<svg xmlns="http://www.w3.org/2000/svg" viewBox="0 0 36.21 34.32"><defs><style>.cls-1{fill:#6a625e;}</style></defs><title>Asset 9</title><g id="Layer_2" data-name="Layer 2"><g id="graphic_elements" data-name="graphic elements"><g id="Layer_99" data-name="Layer 99"><path class="cls-1" d="M6.32,10l-3,.79c-1.37.37-1.47.31-1.83-1.06l-1.32-5A4.58,4.58,0,0,1,0,4,.87.87,0,0,1,.72,2.94L11.49.14a1.94,1.94,0,0,1,1.77.39c.48.38,1,.75,1.48,1.1a5.49,5.49,0,0,0,6.12.29A17.38,17.38,0,0,0,23.06.36,1.35,1.35,0,0,1,24.29,0L33.1,2.27c.73.18,1.45.39,2.17.59s1.1.61.88,1.47c-.5,1.95-1,3.88-1.53,5.82-.21.77-.45.92-1.22.72-1.15-.29-2.3-.61-3.45-.91l-.36-.08c0,.2,0,.36,0,.52V31.88c0,1.92-.53,2.45-2.46,2.44l-15.34-.07c-.83,0-1.67,0-2.5.06a9.71,9.71,0,0,1-1.12,0c-1.33-.13-1.81-.64-1.81-2,0-4.31,0-8.62,0-12.94q0-4.42,0-8.85C6.32,10.37,6.32,10.2,6.32,10Z"/></g></g></g></svg>