<svg xmlns="http://www.w3.org/2000/svg" viewBox="0 0 37.42 26.21"><defs><style>.cls-1{fill:#6a625e;}</style></defs><title>Asset 7</title><g id="Layer_2" data-name="Layer 2"><g id="graphic_elements" data-name="graphic elements"><g id="Layer_134" data-name="Layer 134"><path class="cls-1" d="M3,25.46a2.32,2.32,0,0,1-1.18.72A1.87,1.87,0,0,1,0,25.49a.26.26,0,0,1,0-.17A25.11,25.11,0,0,1,2.09,15.18,17.3,17.3,0,0,1,8.18,7.83l.37-.25-.09-.2a39.61,39.61,0,0,1-1.63-4,2.25,2.25,0,0,1,.09-1.9,2.18,2.18,0,0,1,3.19-.7l.17.12A2.21,2.21,0,0,1,11.9.37,2.13,2.13,0,0,1,13.83,3a23.49,23.49,0,0,1-1.29,3.43c-.18.41-.37.82-.56,1.24l.09.08a17.37,17.37,0,0,1,6.26,7.22,22.18,22.18,0,0,1,1.87,6.1,29.15,29.15,0,0,1,.37,4.22.39.39,0,0,1-.13.32,1.8,1.8,0,0,1-2.63.08l-.12-.1a1.88,1.88,0,0,1-2.9-.1,1.89,1.89,0,0,1-3,0,2.19,2.19,0,0,1-1.41.74,1.93,1.93,0,0,1-1.47-.64,2.06,2.06,0,0,1-1.46.64A2.1,2.1,0,0,1,6,25.46a2.16,2.16,0,0,1-1.5.75A2.07,2.07,0,0,1,3,25.46Z"/><path class="cls-1" d="M37.27,24.95c-.28-1.86-.49-3.73-.65-5.6-.12-1.43-.21-2.86-.3-4.29-.08-1.11-.12-2.23-.22-3.33A21.52,21.52,0,0,0,35,6.36a7.64,7.64,0,0,0-1.16-2.21,4.81,4.81,0,0,0-.53-.56,2,2,0,0,0-.8-.44,5.4,5.4,0,0,1-1-.43c-.5-.27-1-.56-1.49-.84l-.15-.08L30,2l2.29,4.06c.15.27.12.42-.11.6L29.86,8.42l-.11.09,0,.11c.33.83.66,1.66,1,2.49a.47.47,0,0,1,0,.45l-5.1,9a.33.33,0,0,1-.63,0l-5.08-9a.51.51,0,0,1,0-.48c.33-.81.65-1.62,1-2.44l.05-.14-.17-.13-2.3-1.71a.39.39,0,0,1-.12-.61L20.6,2l.07-.13-.47.27-1.79.9c-.14.07-.3.08-.44.14a2.9,2.9,0,0,0-1.07.88,8.12,8.12,0,0,0-1.3,2.49A17.18,17.18,0,0,0,15,8.88a18.55,18.55,0,0,1,3.58,4.62L18.81,12h0a.76.76,0,0,1,0,.16l-.08,1.68q.17.33.34.67a22.89,22.89,0,0,1,1.95,6.35,30.19,30.19,0,0,1,.38,4.35,1.29,1.29,0,0,1-.15.64H32.54Q32.22,19,31.9,12.13s0-.06.06-.11L34.1,25.9h3.31v-.14C37.37,25.49,37.31,25.22,37.27,24.95Z"/><path class="cls-1" d="M28.77,4.35l-.86.31c0,.39,0,.76,0,1.14s-.13.44-.41.39L26.82,6l0,1-1.3-1.56-.37,0a1.83,1.83,0,0,0-.19.18L23.83,7V6.08l-.55.11c-.24,0-.37-.1-.38-.37s0-.74,0-1.11l-1-.36,3.42,16h0l-5.13-9,1.16-2.92L18.57,6.33l.07-.13,2.26-4c.2-.35.4-.71.62-1.05a3.33,3.33,0,0,1,1-1,.4.4,0,0,1,.14-.06c-.11.08-.23.16-.34.25a1.63,1.63,0,0,0-.25,2.26,5,5,0,0,0,1,1,14.84,14.84,0,0,0,2.14,1.4.28.28,0,0,0,.24,0,13.41,13.41,0,0,0,2.37-1.59,5.33,5.33,0,0,0,.73-.76A1.62,1.62,0,0,0,28.31.31C28.18.2,28,.11,27.89,0l.22.12a4,4,0,0,1,1.31,1.46c.61,1.06,1.2,2.13,1.8,3.2l.87,1.55L29.34,8.39l1.16,2.92-5.12,9h0Z"/><path class="cls-1" d="M25.34,11.33a.42.42,0,0,1-.41-.45.43.43,0,0,1,.4-.45.44.44,0,0,1,.42.45A.43.43,0,0,1,25.34,11.33Z"/><path class="cls-1" d="M25.33,7.76a.43.43,0,0,1,.41.45.44.44,0,0,1-.41.44.43.43,0,0,1-.41-.44A.43.43,0,0,1,25.33,7.76Z"/><ellipse class="cls-1" cx="25.33" cy="13.55" rx="0.45" ry="0.41" transform="translate(11.7 38.84) rotate(-89.82)"/></g></g></g></svg>