<svg xmlns="http://www.w3.org/2000/svg" viewBox="0 0 35.72 26.57"><defs><style>.cls-1{fill:#6a625e;}</style></defs><title>Asset 45</title><g id="Layer_2" data-name="Layer 2"><g id="graphic_elements" data-name="graphic elements"><g id="Layer_134" data-name="Layer 134"><path class="cls-1" d="M35.69,6.77q0-2.09,0-4.17a2.18,2.18,0,0,0-.16-.82A2.86,2.86,0,0,0,32.86,0H2.62A2.71,2.71,0,0,0,1.29.32L1.2.38A2.66,2.66,0,0,0,0,2.64V15.19A2.28,2.28,0,0,0,.81,17a1.33,1.33,0,0,0,.4.24c.64.23.74.59.7,1.18a.81.81,0,0,0,.82.88h30c.58,0,.81-.23.82-.8q0-.36,0-.72v-.22l.09,0,.21-.07a2.91,2.91,0,0,0,1.89-2.61C35.69,12.13,35.69,9.41,35.69,6.77Zm-3.47,9.14v2h-29v-2Zm.48-1.31H2.8c-.68,0-.89.2-.89.87v.64a1.49,1.49,0,0,1-1-1.46q0-3,0-6.06V5.9q0-1.45,0-2.9a1.59,1.59,0,0,1,1.7-1.71h30a1.63,1.63,0,0,1,1.86,1.84q0,5.76,0,11.51a1.5,1.5,0,0,1-1,1.47v-.67C33.52,14.83,33.3,14.61,32.7,14.61Z"/><path class="cls-1" d="M20,21.73a1.44,1.44,0,0,0,.62-1.06c0-.25-.23-.44-.6-.45a.85.85,0,0,0-.45.09.4.4,0,0,0-.23.31.94.94,0,0,1-.43.66,1.32,1.32,0,0,0,0,2.31c.64.51.64,1,0,1.44a1.54,1.54,0,0,0-.65,1h0c0,.42.37.5.6.5h0a.86.86,0,0,0,.41-.09.4.4,0,0,0,.22-.33.94.94,0,0,1,.45-.65,1.31,1.31,0,0,0,0-2.28C19.29,22.68,19.3,22.27,20,21.73Z"/><path class="cls-1" d="M23.36,20.22h0a.64.64,0,0,0-.65.44,1.53,1.53,0,0,1-.45.64,1.34,1.34,0,0,0,0,2.3c.64.5.63.94,0,1.44a1.44,1.44,0,0,0-.64,1.08c0,.26.24.43.61.44h0a.65.65,0,0,0,.65-.4,1.46,1.46,0,0,1,.41-.65,1.35,1.35,0,0,0,0-2.35c-.61-.47-.6-.93,0-1.41a1.52,1.52,0,0,0,.66-1h0C24,20.43,23.75,20.24,23.36,20.22Z"/><path class="cls-1" d="M9.87,21.73a1.39,1.39,0,0,0,.62-1.08c0-.24-.26-.41-.61-.43a.9.9,0,0,0-.45.1.38.38,0,0,0-.21.29,1,1,0,0,1-.48.71,1.31,1.31,0,0,0,0,2.26c.67.53.66.94,0,1.48a1.5,1.5,0,0,0-.62,1h0c0,.32.21.5.61.51h0c.37,0,.61-.16.64-.43a1,1,0,0,1,.45-.65,1.31,1.31,0,0,0,0-2.26C9.19,22.68,9.19,22.27,9.87,21.73Z"/><path class="cls-1" d="M16.56,21.77a1.55,1.55,0,0,0,.67-1c0-.28-.2-.48-.58-.51a.65.65,0,0,0-.71.43,1.29,1.29,0,0,1-.38.59,1.37,1.37,0,0,0,0,2.42,1.24,1.24,0,0,1,.38.61h0l0,.05a.87.87,0,0,1-.44.69,1.43,1.43,0,0,0-.68,1.11c0,.25.22.42.59.43h.05a.89.89,0,0,0,.43-.1.37.37,0,0,0,.21-.3.92.92,0,0,1,.43-.66,1.32,1.32,0,0,0,0-2.33C15.94,22.7,15.95,22.24,16.56,21.77Z"/><path class="cls-1" d="M26.69,21.76a1.48,1.48,0,0,0,.65-1.1c0-.24-.26-.44-.62-.44a.86.86,0,0,0-.45.11.37.37,0,0,0-.21.29,1,1,0,0,1-.46.69,1.32,1.32,0,0,0,0,2.3c.62.48.62.95,0,1.43a1.51,1.51,0,0,0-.66,1.07h0c0,.27.21.44.58.46h.06a.88.88,0,0,0,.42-.09.4.4,0,0,0,.22-.32,1,1,0,0,1,.44-.65,1.32,1.32,0,0,0,0-2.3C26,22.69,26,22.26,26.69,21.76Z"/><path class="cls-1" d="M13.19,21.78a1.56,1.56,0,0,0,.67-1.09h0c0-.25-.23-.44-.59-.46a.93.93,0,0,0-.48.1.35.35,0,0,0-.21.28,1.08,1.08,0,0,1-.51.75,1.3,1.3,0,0,0,0,2.23c.68.54.68,1,0,1.48a1.47,1.47,0,0,0-.63,1.05c0,.26.21.44.59.46h.06a.86.86,0,0,0,.41-.09.4.4,0,0,0,.22-.32.91.91,0,0,1,.42-.64,1.32,1.32,0,0,0,0-2.33C12.57,22.71,12.57,22.25,13.19,21.78Z"/><path class="cls-1" d="M22.67,6.55l-.54-.27L22,6.22l.05,0L22.42,6a.64.64,0,0,0,.21-.89.62.62,0,0,0-.85-.21l-.36.2-.05,0V5c0-.22,0-.42,0-.61a.66.66,0,0,0-.6-.76h0a.65.65,0,0,0-.63.67c0,.26,0,.52-.06.78s0,.43,0,.65a.34.34,0,0,1-.06.2c-.43.26-.87.52-1.33.78l-.27.15V6.49c0-.51,0-1,0-1.48a.35.35,0,0,1,.15-.19l.64-.44L19.77,4a.71.71,0,0,0,.31-.46A.61.61,0,0,0,20,3.06a.65.65,0,0,0-.9-.13l-.56.36-.14.09V3.32c0-.14,0-.25,0-.37a.65.65,0,0,0-.63-.7h0a.67.67,0,0,0-.65.68c0,.12,0,.25,0,.39s0,0,0,0L17,3.3,16.49,3a.65.65,0,0,0-.93.15.64.64,0,0,0,.23.91l.55.38.58.4c.11.08.15.14.15.15,0,.5,0,1,0,1.52v.34l-.27-.16L15.47,5.9a.36.36,0,0,1-.06-.2c0-.22,0-.43,0-.65s0-.52-.06-.78c0-.43-.29-.68-.66-.67a.66.66,0,0,0-.6.76c0,.2,0,.4,0,.6v.12L13.85,5c-.32-.19-.72-.42-1,.12a.65.65,0,0,0-.11.51c.06.24.3.37.53.5l.19.11-.13.06-.53.27a.66.66,0,0,0-.35.91.65.65,0,0,0,.91.24L14,7.39l.62-.3c.15-.07.19-.07.2-.07l1.35.76.29.16h0L16,8.17c-.36.21-.72.43-1.09.62a.53.53,0,0,1-.39,0c-.25-.11-.5-.23-.74-.35l-.52-.26a.74.74,0,0,0-.53,0,.61.61,0,0,0-.37.33.65.65,0,0,0,.35.87l.55.28.12.06,0,0L13,9.9A.64.64,0,1,0,13.69,11l.34-.2,0,0V11c0,.18,0,.35,0,.51a.82.82,0,0,0,.19.62.56.56,0,0,0,.41.18h0c.35,0,.61-.3.63-.74v-.17c0-.38,0-.77.08-1.15a.38.38,0,0,1,.07-.24c.42-.25.84-.49,1.28-.75L17,9.07v0c0,.08,0,.14,0,.2v.27c0,.44,0,.9,0,1.34a.37.37,0,0,1-.16.19l-.64.43-.5.33a.64.64,0,0,0-.25.9.6.6,0,0,0,.38.28.76.76,0,0,0,.58-.12l.46-.3.12-.08s0,0,0,.06,0,.27,0,.4a.65.65,0,0,0,.64.65h0A.63.63,0,0,0,18.3,13c0-.13,0-.25,0-.4V12.5l.15.1L19,13a.65.65,0,0,0,.93-.15.63.63,0,0,0-.22-.91l-.19-.14a4.31,4.31,0,0,0-.64-.4.91.91,0,0,1-.58-1.07,6,6,0,0,0,0-.93c0-.1,0-.2,0-.3l.29.16c.45.25.87.5,1.28.74a.35.35,0,0,1,.1.22c0,.29.05.59.07.88s0,.37,0,.55a.62.62,0,1,0,1.24-.07c0-.19,0-.38,0-.58V10.8l.22.12c.33.19.73.42,1.05-.13s-.07-.79-.39-1l-.22-.14.15-.07.59-.31a.61.61,0,0,0,.27-.84.62.62,0,0,0-.83-.3l-.1,0a2.71,2.71,0,0,0-.61.31,1.14,1.14,0,0,1-1.6-.06,4.25,4.25,0,0,0-.61-.4L19,7.94l.32-.19c.42-.25.82-.48,1.23-.69a.37.37,0,0,1,.27,0l.76.36.54.26a.64.64,0,1,0,.56-1.14Z"/><path class="cls-1" d="M10.34,6.74H2.62a.66.66,0,0,0-.71.62.6.6,0,0,0,.17.44A.77.77,0,0,0,2.62,8h7.72a.67.67,0,0,0,.71-.63A.61.61,0,0,0,10.88,7,.75.75,0,0,0,10.34,6.74Z"/><path class="cls-1" d="M32.81,8a.66.66,0,0,0,.71-.62A.59.59,0,0,0,33.36,7a.77.77,0,0,0-.55-.22H30.5c-1.75,0-3.56,0-5.34,0a1,1,0,0,0-.66.3.59.59,0,0,0,0,.63,1,1,0,0,0,.64.34l1.95,0h5.74Z"/><path class="cls-1" d="M27.28,10.11h0a1.77,1.77,0,0,0-1.23.51,1.74,1.74,0,0,0-.53,1.24,1.78,1.78,0,0,0,1.75,1.79h0A1.78,1.78,0,0,0,29,11.9,1.79,1.79,0,0,0,27.28,10.11Zm.32,2.1a.48.48,0,0,1-.34.15h0a.47.47,0,0,1-.34-.14.48.48,0,0,1-.14-.35.47.47,0,0,1,.46-.47h0a.48.48,0,0,1,.33.13.47.47,0,0,1,.15.34A.48.48,0,0,1,27.61,12.21Z"/><path class="cls-1" d="M31.76,10.11h0a1.77,1.77,0,0,0,0,3.53h0a1.79,1.79,0,0,0,1.76-1.77A1.79,1.79,0,0,0,31.76,10.11Zm.48,1.78a.48.48,0,0,1-.15.34.48.48,0,0,1-.68,0,.47.47,0,0,1-.13-.35.48.48,0,0,1,.48-.45h0a.48.48,0,0,1,.48.49Z"/><path class="cls-1" d="M2.55,5.22h0a.66.66,0,0,0,.62-.71c0-.23,0-.46,0-.71V3.53h1a.67.67,0,0,0,.71-.63.61.61,0,0,0-.17-.44.72.72,0,0,0-.51-.21H2.61a.65.65,0,0,0-.7.7c0,.5,0,1,0,1.55A.77.77,0,0,0,2.13,5,.61.61,0,0,0,2.55,5.22Z"/><path class="cls-1" d="M31.29,3.53h1v.25c0,.24,0,.46,0,.68a.82.82,0,0,0,.22.59.58.58,0,0,0,.41.16h0a.67.67,0,0,0,.63-.74q0-.74,0-1.48a.67.67,0,0,0-.73-.75H31.28a.66.66,0,0,0-.73.65A.67.67,0,0,0,31.29,3.53Z"/></g></g></g></svg>