<svg xmlns="http://www.w3.org/2000/svg" viewBox="0 0 28.17 35.73"><defs><style>.cls-1{fill:#6a625e;}</style></defs><title>Asset 17</title><g id="Layer_2" data-name="Layer 2"><g id="graphic_elements" data-name="graphic elements"><g id="Layer_134" data-name="Layer 134"><path class="cls-1" d="M0,13.86A11.67,11.67,0,0,1,8.61,2.57c.38-.11.57-.25.6-.67a1.76,1.76,0,0,1,.33-.83,3,3,0,0,1,4.55,0,1.47,1.47,0,0,1,.34.82c0,.56.28.66.71.79A11.72,11.72,0,1,1,.06,15.22C0,14.77,0,14.31,0,13.86Zm11.74,5.26a4.85,4.85,0,1,0-4.89-4.86A4.88,4.88,0,0,0,11.74,19.12Z"/><path class="cls-1" d="M21.49,35.73H2.23c.53-.53.94-1,1.36-1.37,1.27-1.25,2.55-2.48,3.8-3.74A1.17,1.17,0,0,0,7.65,30a13.11,13.11,0,0,1,.16-1.63,3.61,3.61,0,0,1,4.12-2.42,3.36,3.36,0,0,1,3,3.34A1.75,1.75,0,0,0,15.73,31,16.09,16.09,0,0,1,17,32c.25-.54.44-1.06.71-1.52A8.25,8.25,0,0,1,18.82,29a1.25,1.25,0,0,1,2.14.2c.24.35.37.78.58,1.16A20.36,20.36,0,0,0,23.1,33a2.29,2.29,0,0,0,3.1.59,1.65,1.65,0,0,0,.93-2,3.06,3.06,0,0,0-.2-.59c-.16-.35-.42-.73.12-.94s.64.25.79.59a2.78,2.78,0,0,1-.64,3.5,3.41,3.41,0,0,1-4.26.08,7.3,7.3,0,0,1-2.15-3.08c-.17-.42-.32-.85-.53-1.25s-.58-.58-.88-.08A28.7,28.7,0,0,0,18,32.5c-.05.11.12.4.26.52C19.27,33.9,20.32,34.76,21.49,35.73Z"/><path class="cls-1" d="M14.58,14.28a2.85,2.85,0,1,1-2.87-2.88A2.82,2.82,0,0,1,14.58,14.28Z"/></g></g></g></svg>