<svg xmlns="http://www.w3.org/2000/svg" viewBox="0 0 32.95 36.07"><defs><style>.cls-1{fill:#6a625e;}</style></defs><title>Asset 23</title><g id="Layer_2" data-name="Layer 2"><g id="graphic_elements" data-name="graphic elements"><g id="Layer_134" data-name="Layer 134"><path class="cls-1" d="M32.83,5,23.59,8.84C16,7.05,8.37,5.53.45,3.67,1,3.45,7.85,1,11.09,0Z"/><path class="cls-1" d="M23.87,9.08l.49,27c2.88-1.7,5.74-2.87,8.59-4.56V5.33ZM29,17.45l-.08.08.08-.08Z"/><path class="cls-1" d="M0,3.87V28l24,8.1L23.67,9.22ZM6.82,26.28C3.44,25.14.76,20.22.88,16.05.76,11.87,3.27,8.51,6.68,9.38S13,14.78,13.05,19.6C13.11,24.83,10,27.33,6.82,26.28Zm16.34,3.16L15.74,27l0-1.88,7.4,2.36ZM23,21.55l-7.36-2.13c0-.1,0-.16,0-.23,0-1.44,0-2.87,0-4.29a1.78,1.78,0,0,1,.29-1.15A1,1,0,0,1,17,13.3c1.39.35,2.8.73,4.23,1.07.73.19,1.18.86,1.57,1.67a.37.37,0,0,1,0,.18c.06,1.72.12,3.46.17,5.19C23,21.44,23,21.47,23,21.55Z"/><path class="cls-1" d="M11.58,18.23l-2.39-.69a5.11,5.11,0,0,0-1.84-3l0-3.19C9.67,12.25,11.49,15.86,11.58,18.23Z"/><path class="cls-1" d="M11.64,20.13A6,6,0,0,1,10.71,23a3.24,3.24,0,0,1-3.29,1.64l0-3.27a2.27,2.27,0,0,0,1.8-2Z"/><path class="cls-1" d="M6.08,20.91l0,3.26c-2.06-1-3.73-4.06-4-6.88L4.37,18A5.17,5.17,0,0,0,6.08,20.91Z"/><path class="cls-1" d="M6,14.21a2.25,2.25,0,0,0-1.68,2l-2.26-.65C2.28,12.85,4.1,10.84,6,11,6.06,12.1,6,13.13,6,14.21Z"/><path class="cls-1" d="M7.84,18.07c0,.73-.39,1.35-1.08,1.14a1.84,1.84,0,0,1-1.08-1.78c0-.94.56-1.29,1.09-1.13A2,2,0,0,1,7.84,18.07Z"/><polygon class="cls-1" points="18.32 19.17 16.53 18.66 16.51 17.4 18.3 17.89 18.32 19.17"/><polygon class="cls-1" points="19.37 27.89 15.97 26.78 15.95 25.5 19.35 26.59 19.37 27.89"/><polygon class="cls-1" points="21.88 20.18 20.02 19.65 19.99 18.36 21.85 18.88 21.88 20.18"/><polygon class="cls-1" points="19.48 14.96 19.52 16.92 18.71 16.7 18.67 14.75 19.48 14.96"/></g></g></g></svg>