<svg xmlns="http://www.w3.org/2000/svg" viewBox="0 0 25.22 36.01"><defs><style>.cls-1{fill:#6a625e;}</style></defs><title>Asset 10</title><g id="Layer_2" data-name="Layer 2"><g id="graphic_elements" data-name="graphic elements"><g id="Layer_134" data-name="Layer 134"><path class="cls-1" d="M18.77,16.84c.07,1.08.11,2,.21,3a1.09,1.09,0,0,1-1,1.33,27.9,27.9,0,0,1-10.75,0,1,1,0,0,1-1-1.26c.09-1,.14-1.94.22-3.07-.85.5-1.59,1-2.4,1.38a4.76,4.76,0,0,1-2,.54A2.1,2.1,0,0,1,.12,17.07a2,2,0,0,1,.79-2.42c2.22-1.4,4.49-2.73,6.81-3.95a2.54,2.54,0,0,1,2,.12,5.66,5.66,0,0,0,5.69,0,2.4,2.4,0,0,1,2.51,0c2,1.15,4,2.3,6,3.52a2.28,2.28,0,0,1,.89,3.31,2.33,2.33,0,0,1-3.27.76C20.64,18,19.76,17.4,18.77,16.84Z"/><path class="cls-1" d="M18.15,5.51A5.54,5.54,0,1,1,12.59,0,5.58,5.58,0,0,1,18.15,5.51Z"/><path class="cls-1" d="M1.18,29.47a8.48,8.48,0,0,1,1.1-2.4A14.91,14.91,0,0,1,5.44,24.3a2.6,2.6,0,0,1,3.62.88,2.75,2.75,0,0,1-.7,3.7c-.52.4-1.38.75-1.46,1.23s.56,1.16.87,1.75A2.66,2.66,0,0,1,7,35.6a2.7,2.7,0,0,1-3.77-1A9.9,9.9,0,0,1,1.18,29.47Z"/><path class="cls-1" d="M18.53,30l-1.41-.92a2.76,2.76,0,0,1-1-3.86,2.7,2.7,0,0,1,3.8-.82A11.81,11.81,0,0,1,22,26c2.18,2.1,2.49,4.18,1,6.84a19.47,19.47,0,0,1-1.2,2,2.7,2.7,0,0,1-3.66.83,2.6,2.6,0,0,1-.87-3.55C17.7,31.38,18.1,30.73,18.53,30Z"/><path class="cls-1" d="M18.83,21.33c.36,1.83.3,1.94-1.35,2.52a3.08,3.08,0,0,0-2,3.62c.14.6,0,.88-.57,1a8.58,8.58,0,0,1-4.59,0c-.53-.15-.66-.4-.54-1a3.09,3.09,0,0,0-2.07-3.67c-1.58-.53-1.62-.6-1.32-2.48A30.32,30.32,0,0,0,18.83,21.33Z"/></g></g></g></svg>