<svg xmlns="http://www.w3.org/2000/svg" viewBox="0 0 38.45 28.84"><defs><style>.cls-1{fill:#6a625e;}</style></defs><title>Asset 11</title><g id="Layer_2" data-name="Layer 2"><g id="graphic_elements" data-name="graphic elements"><g id="Layer_134" data-name="Layer 134"><path class="cls-1" d="M38.45,8c-.15.56-.25,1.14-.45,1.69a7.15,7.15,0,0,1-6.57,4.76,6.86,6.86,0,0,1-3.4-.79l-.49-.25c.06.17.09.29.14.4q2,4.89,3.91,9.78a3.86,3.86,0,0,1-1.44,4.76,3.49,3.49,0,0,1-5-1.38c-.75-1.63-1.37-3.33-2-5-.15-.36-.21-.85-.48-1s-.77-.08-1.16-.08H12.82c0,.18,0,.32,0,.45,0,1.13,0,2.25,0,3.38a4,4,0,0,1-4.18,4.19H3.3a3.19,3.19,0,0,1-.41-6.37c.95-.05,1.9,0,2.93,0-.09-.18-.15-.3-.21-.41-.51-.92-1.07-1.81-1.54-2.75a7.65,7.65,0,0,1,1.8-9.35A7,7,0,0,1,10.57,8c3.78,0,7.56,0,11.34,0a8.3,8.3,0,0,1,1.81.41,3.4,3.4,0,0,1,.45.19,7.46,7.46,0,0,1,.14-3.43,7.2,7.2,0,0,1,14.06,1,1.16,1.16,0,0,0,.07.21ZM11.18,19.23V9.65l-.06,0a6,6,0,0,0-5.53,3.18,6,6,0,0,0,.16,6.25.36.36,0,0,0,.26.16Z"/></g></g></g></svg>