<svg xmlns="http://www.w3.org/2000/svg" viewBox="0 0 29.82 37.29"><defs><style>.cls-1{fill:#6a625e;}</style></defs><title>Asset 12</title><g id="Layer_2" data-name="Layer 2"><g id="graphic_elements" data-name="graphic elements"><g id="Layer_134" data-name="Layer 134"><path class="cls-1" d="M9.09,26.48c0-2.25-.08-4.5,0-6.75a4.75,4.75,0,0,0-1.57-4c-2.17-2.07-4.2-4.28-6.27-6.45C-.21,7.75-.39,6.3.7,5.21s2.52-.94,4,.61c2,2,3.91,4,5.88,6a5.68,5.68,0,0,0,8.61,0c2-2,4-4.14,6-6.18,1.34-1.36,2.69-1.52,3.79-.53s1,2.57-.26,4c-2.24,2.36-4.59,4.61-6.73,7a5.31,5.31,0,0,0-1.24,3.11c-.13,5.06,0,10.12-.07,15.19,0,1.74-1.08,2.94-2.55,2.84a2.53,2.53,0,0,1-2.53-2.7c0-.5,0-1,0-1.5,0-1.88,0-3.75,0-5.62A5.17,5.17,0,0,0,15,25.87c-.27.54-.76,1.07-.79,1.62-.09,2.25,0,4.5-.05,6.75,0,1.91-1.05,3.08-2.56,3.06S9.11,36.07,9.1,34.17C9.07,31.61,9.09,29,9.09,26.48Z"/><path class="cls-1" d="M20.76,6A5.85,5.85,0,1,1,9.07,5.89,5.85,5.85,0,1,1,20.76,6Z"/></g></g></g></svg>