<svg xmlns="http://www.w3.org/2000/svg" viewBox="0 0 35.27 35.41"><defs><style>.cls-1{fill:#6a625e;}</style></defs><title>Asset 102</title><g id="Layer_2" data-name="Layer 2"><g id="graphic_elements" data-name="graphic elements"><g id="Layer_134" data-name="Layer 134"><path class="cls-1" d="M35.09,6.33a7.48,7.48,0,0,0-6.26-6l-1-.14H26.73l-.15,0a10,10,0,0,0-2.44.45,13.9,13.9,0,0,0-6.29,4.06l.56.74,1.33-1.37.79.8L19.3,6.1l.35.21,1.14-1.13,1,1L20.87,7a3.12,3.12,0,0,1,.33.23L22,6.43l1,1-.9.91a3.77,3.77,0,0,1,.18.35l1-1,1,1-1.65,1.64,0,0a3.37,3.37,0,0,1-.1.71l.14-.14,1,1L22,13.4l-.64-.63L21,13l.67.67-1.65,1.63-1-1,.87-.86a3.36,3.36,0,0,1-.66.1l-.48.48-.57-.57a3.42,3.42,0,0,1-1-.38l-1.58,1.58c-.05-.33-.12-.64-.16-1a1.83,1.83,0,0,1,0-.78c.08-.23.34-.39.52-.58h0l-.28-.16,0,0-.24.24,0-.38-.45-.3-.49-.33c0,.08,0,.17,0,.25a11.33,11.33,0,0,0-.06,1.92,3.25,3.25,0,0,1,0,.75,22.51,22.51,0,0,1-3.56,8.83c-.32.47-.68.91-1,1.36-.25-.1-.37-.12-.55,0-.37.28-.73.58-1.1.87a4.28,4.28,0,0,0,1.68,1.75.15.15,0,0,0,.14,0c.28-.32.56-.64.81-1a.74.74,0,0,0,.1-.44.2.2,0,0,1,.08-.2c.42-.32.83-.66,1.26-1a22.46,22.46,0,0,1,7.8-3.35,5.74,5.74,0,0,1,1.7-.25,10.62,10.62,0,0,0,4.26-.6,13.88,13.88,0,0,0,6.75-5.08,12.51,12.51,0,0,0,2.31-5.43c0-.29.08-.59.13-.89V7.44C35.21,7.07,35.16,6.7,35.09,6.33ZM34,6.39l-1-1,.46-.46A6.41,6.41,0,0,1,34,6.39ZM27.09,3.84l1,1L26.41,6.44l-1-1Zm-1.9,1.37-1-1L25.85,2.6l1,1Zm3.46,4L27,10.84l-1-1,1.65-1.64ZM27.95,8l1.64-1.64,1,1L28.91,8.94ZM27,11.39l1,1L26.35,14l-1-1Zm.27-.28L28.92,9.5l1,1-1.63,1.62Zm2.86-.37,1,1-1.63,1.63-1-1Zm-.95-1.53,1.62-1.61,1,1-1.62,1.62ZM30.81,7l-1-1,1.64-1.63,1,1ZM29.55,5.8l-1-1,1.63-1.63,1,1Zm-.26.27L27.67,7.68l-1-1,1.63-1.62ZM27.39,8,25.76,9.58l-1-1L26.41,7Zm-1.6,2.17,1,1-1.64,1.64-1-1Zm.29,4.12-1.62,1.62-1-1,1.62-1.62Zm-1.89,1.9-1.63,1.62-1-1,1.62-1.62Zm.28.27,1,1L23.82,19l-1-1Zm.26-.27,1.64-1.64,1,1L25.7,17.13Zm1.92-1.9,1.62-1.61,1,1-1.62,1.62Zm2.87-.37,1,1-1.62,1.61-1-1Zm.27-.28L31.42,12l1,1-1.64,1.63Zm1.61-2.21-1-1,1.64-1.63,1,1ZM31.1,7.32l1.62-1.61,1,1L32.06,8.29Zm2.19-2.74-.57.57-1-1,.72-.72ZM32.2,3.17l-.72.72-1-1,.61-.61ZM29.52,1.58l1.27.52-.55.54-1-1C29.3,1.55,29.39,1.52,29.52,1.58ZM29,2l1,1L28.33,4.56l-1-1Zm-2.15-.42a.8.8,0,0,1,.88-.33.94.94,0,0,0,.28,0,.83.83,0,0,1,.73.42L27.08,3.32l-1-1C26.33,2.07,26.61,1.83,26.84,1.56Zm-.15-.37-.87.87-.67-.68Zm-2.42.47c.08-.08.23-.09.35-.15s.23.07.32.15l.66.65L23.94,4l-1-1C23.38,2.53,23.82,2.09,24.27,1.66Zm-.7.17v0l-.89.88-.36-.38Zm-2.8,2.79L20,3.88a11.89,11.89,0,0,1,2-1.34l.41.43ZM22,5.87l-1-1L22.7,3.28l1,1Zm1.26,1.25-1-1,1.62-1.62,1,1Zm.26.28L25.2,5.74l1,1L24.5,8.35Zm-.65,3.14,1.65-1.64,1,1L23.86,11.5Zm1,1.5,1,1-1.62,1.62-1-1ZM22,13.95l1,1-1.62,1.62-1-1Zm-1.87,1.88,1,1-1.66,1.66-1-1Zm-1.26-1.23,1,1-1.63,1.62-1-1Zm-1.9,1.92,1,1-.42.42-.88-1.11Zm-.5,0-.45-1,.69.7Zm1.14-3.14,1,1-1.61,1.61-1-1Zm-7,11.86-.3-.34a20,20,0,0,0,4.91-8.39,8,8,0,0,0,1.56,2.24A7.57,7.57,0,0,0,19,20.3,19.8,19.8,0,0,0,10.57,25.23ZM18.88,19l-1.15-.84.44-.44,1,1Zm.32.15.21-.18.47.49Zm.49-.44,1.64-1.64,1,1-1.65,1.63Zm3.25,1.21a.16.16,0,0,1-.11,0l-1.7-.15h0l1.45-1.44,1,1Zm.52,0,.35-.36.3.28ZM26,19.36a.33.33,0,0,1-.14.07l-1.22.32a.26.26,0,0,1-.19-.06c-.14-.12-.26-.25-.4-.38l1.65-1.65,1,1Zm0-2,1.63-1.63,1,1L27,18.38Zm3.28.23-1.72,1.09c-.15.1-.25.07-.33-.07L28.85,17l.52.55Zm.45-.31-.57-.58,1.63-1.64.61.6Zm3-3.61c-.37.58-.76,1.15-1.13,1.71L31,14.84l1.64-1.64C32.93,13.43,32.94,13.44,32.75,13.73Zm.33-.59L32.9,13l.47-.45Zm.86-2.32c-.07.25-.14.51-.22.76a.32.32,0,0,1-.06.12l-1,1-1-1L33.32,10c.2.2.39.39.58.6A.23.23,0,0,1,33.94,10.82Zm.13-.52-.49-.51.65-.64Zm.07-1.57c-.27.28-.55.56-.83.83l-1-1L34,6.92a.4.4,0,0,1,.19.35c0,.4.05.8.07,1.19A.4.4,0,0,1,34.14,8.72Z"/><path class="cls-1" d="M0,33.43a2.48,2.48,0,0,1,.3-.35,46.61,46.61,0,0,0,3.94-3.67c1.19-1.21,2.4-2.4,3.6-3.6L8,25.69a6.42,6.42,0,0,0,1.81,1.87.68.68,0,0,0-.17.09C7.8,29.46,6,31.27,4.17,33.11c-.65.67-1.23,1.4-1.84,2.11-.18.21-.19.22-.44.14l-.4-.13A2.26,2.26,0,0,1,0,33.79l0-.11Q0,33.56,0,33.43Z"/><path class="cls-1" d="M14.59,11.4l.49.33-.53-.08C14.57,11.57,14.58,11.48,14.59,11.4Z"/><path class="cls-1" d="M14.75,7.17l1.8,1.2-.18.29-1.9-1-.28.48,1.94,1-.18.3-.15-.05-1.85-.66c-.07,0-.1,0-.13,0s-.16.27-.25.42l2.14.69-.28.44-.65-.1L7.5,9.08A1.82,1.82,0,0,1,7.19,9a.36.36,0,0,1-.26-.45.85.85,0,0,1,.57-.65l.61-.23A.77.77,0,0,1,8,7.09c0-.25.07-.5.11-.75a.32.32,0,0,1,.1-.16,2.53,2.53,0,0,1,.88-.58l.17,0a1.67,1.67,0,0,1-.05-.22,2.73,2.73,0,0,1,.11-1,.23.23,0,0,1,.06-.1,2.71,2.71,0,0,1,.87-.6l.21-.05a2.36,2.36,0,0,1,.06-1.24.21.21,0,0,1,0-.1,2.62,2.62,0,0,1,.88-.61,2,2,0,0,1,.35-.07c0-.13,0-.27-.06-.42s0-.21,0-.32A.81.81,0,0,1,12,.13a.36.36,0,0,1,.56,0,5.8,5.8,0,0,1,.38.48L17.46,6.7l0,.07-.26.45L15.64,5.68l-.29.49L17,7.65l-.19.3L15,6.69ZM13,8.32l0,0L12,8a.44.44,0,0,0-.19,0,.26.26,0,0,0-.23.36.37.37,0,0,0,.24.25l.82.27a.07.07,0,0,0,.07,0Zm1.66-2.82L14.92,5l-.66-.62-.07,0a.34.34,0,0,0-.44.07.32.32,0,0,0,.09.42l.32.29Zm-1,1.69-.91-.48a.33.33,0,0,0-.15,0,.27.27,0,0,0-.24.43.56.56,0,0,0,.2.18l.74.37.07,0Zm.63-1.06-.78-.55a.37.37,0,0,0-.13-.05.3.3,0,0,0-.34.14.31.31,0,0,0,.07.36l.08.07.28.19.52.34Z"/><path class="cls-1" d="M18.57,7.41l.68.41.8.48a2.08,2.08,0,0,1,1,2.27A2,2,0,0,1,18.75,12a2.08,2.08,0,0,1-.72-.26l-1.49-.88,0,0Z"/></g></g></g></svg>