<svg xmlns="http://www.w3.org/2000/svg" viewBox="0 0 37.04 34.55"><defs><style>.cls-1{fill:#6a625e;}</style></defs><title>Asset 119</title><g id="Layer_2" data-name="Layer 2"><g id="graphic_elements" data-name="graphic elements"><g id="Layer_134" data-name="Layer 134"><path class="cls-1" d="M25.47,24.68c0,.5,0,1,0,1.52,0,.78-.54,1.07-1.22.68l-.91-.54L21.88,29l-2.62,4.89c-.18.33-.38.61-.8.61s-.59-.29-.75-.6L14,27l-.34-.61-.94.55a.74.74,0,0,1-1.2-.66c0-.51,0-1,0-1.49-.8,0-1.57.06-2.33,0A10.76,10.76,0,0,1,.1,16.26,7.87,7.87,0,0,1,7.9,7.21l.25,0c-.5,6.27,1.65,11.16,7.21,14.44l-.83,1.19,1.39.73a.79.79,0,0,1,0,1.5l-1,.55,2.81,5.2.07,0V23.49H16.46c-.86,0-1.14-.52-.72-1.26l.94-1.64c-.32-.13-.62-.25-.91-.38a9.17,9.17,0,0,1-3.68-3.16A12.5,12.5,0,0,1,9.77,7a8.9,8.9,0,0,1,9.41-7c5.09.36,9,4.55,8.37,10.47a13.06,13.06,0,0,1-1.76,5.36,9.85,9.85,0,0,1-5.36,4.64l.85,1.39a2.94,2.94,0,0,1,.29.53.72.72,0,0,1-.71,1c-.26,0-.53,0-.79,0H19.3v7.39l.07,0,2.82-5.22c-.33-.19-.62-.36-.92-.52a.86.86,0,0,1-.58-.78c0-.4.28-.6.59-.77l1.22-.7-.84-1.21c5.64-3.23,7.74-8.19,7.28-14.49a6.38,6.38,0,0,1,2.76.43,7.79,7.79,0,0,1,4.14,11.57,11,11,0,0,1-7.68,5.48A15.38,15.38,0,0,1,25.47,24.68Z"/></g></g></g></svg>