<svg xmlns="http://www.w3.org/2000/svg" viewBox="0 0 38.16 28.98"><defs><style>.cls-1{fill:#6a625e;}.cls-2{fill:#fff;}</style></defs><title>Asset 94</title><g id="Layer_2" data-name="Layer 2"><g id="graphic_elements" data-name="graphic elements"><g id="Layer_134" data-name="Layer 134"><path class="cls-1" d="M38.06,11.36a4.47,4.47,0,0,0-3.74-3.59l-.63-.09h-.63L33,7.7A6,6,0,0,0,31.51,8a8.3,8.3,0,0,0-5.24,4.79,6.46,6.46,0,0,0-.53,2.94,1.68,1.68,0,0,1,0,.45,13.37,13.37,0,0,1-2.13,5.28c-.19.28-.41.55-.61.82-.15-.06-.22-.07-.33,0s-.43.34-.66.52a2.53,2.53,0,0,0,1,1,.09.09,0,0,0,.08,0c.17-.19.34-.38.48-.59a.53.53,0,0,0,.06-.27c0-.06,0-.09,0-.12.25-.18.49-.39.75-.57a13.39,13.39,0,0,1,4.66-2,3.32,3.32,0,0,1,1-.14,6.4,6.4,0,0,0,2.55-.36,8.32,8.32,0,0,0,4-3,7.48,7.48,0,0,0,1.38-3.24l.07-.53V12C38.13,11.8,38.1,11.58,38.06,11.36Zm-.65,0-.59-.6.27-.27A4.23,4.23,0,0,1,37.41,11.4Zm-3.2,1.68-1,1-.59-.58,1-1Zm-.42-.74,1-1,.57.58-1,1ZM32.5,13.64l.57.57-1,1-.57-.58Zm-1.15.81-.58-.58,1-1,.58.58C32,13.8,31.67,14.13,31.34,14.45Zm1.14-1.15-.58-.58,1-1,.59.59Zm-.75-.73L31.16,12l1-1,.57.57Zm-.14.16-1,1L30,13.12l1-1Zm-1.15,1.14-1,1-.59-.58,1-1Zm-.58-.9-.58-.59,1-1,.58.58Zm-.17.15-1,1-.57-.58,1-1Zm-1,1.3.57.58-1,1-.58-.58Zm.75.74.58.58-1,1-.58-.58Zm.14-.15,1-1,.59.59-1,1Zm1.72-.24.58.59-1,1-.59-.58Zm.74.75.58.59-1,1-.59-.58Zm.17-.16,1-1,.57.58-1,1Zm1.14-1.14,1-1,.59.58-1,1ZM35.11,14l.59.58-1,1L34.14,15Zm-.56-.91,1-1,.58.58-1,1Zm1-1.3-.58-.58,1-1,.57.58ZM34.75,11l-.57-.58,1-1,.58.58Zm-.15.16-1,1L33,11.58l1-1Zm-1.72.22-.58-.58,1-1,.57.58Zm-.74-.74-.58-.58,1-1,.58.59Zm-.17.17-1,1-.59-.59,1-1Zm-1.72.22-.58-.57,1-1,.58.57Zm-.17.18-1,1-.59-.59,1-1Zm-1.14,1.12-1,1-.58-.57,1-1Zm-.39,1.88-1,1L27,14.65l1-1Zm-1.12,1.13-1,1c0-.19-.07-.38-.09-.57a1,1,0,0,1,0-.47c.06-.14.21-.23.31-.35l.15-.18Zm.14.17.59.59-1,1-.59-.59ZM27,17.28l-.14.16-.26-.58Zm.15.17.59.59-.25.26L27,17.62Zm.18-.18,1-1,.59.58-1,1ZM29.09,17l.58.57-1,1L28.1,18Zm.15-.16,1-1,.59.59-1,1ZM31,16.65l.58.58-1,1L30,17.62Zm.75.74.59.59-1,1-.59-.59Zm.16-.16,1-1,.59.59-1,1ZM33,16.1l1-1,.58.59-1,1Zm1.72-.22.57.59-1,1-.58-.58Zm.16-.16,1-1,.57.58-1,1Zm1-1.32-.58-.57,1-1,.57.58ZM35.68,12l1-1c.18.18.38.38.57.59l-1,1ZM37,10.31l-.34.34-.59-.58.43-.43Zm-.65-.84-.43.43-.58-.59L35.68,9Zm-1.6-.95.76.31-.34.32-.59-.59C34.59,8.5,34.65,8.49,34.73,8.52Zm-.32.23.58.58-1,1-.58-.59ZM33.13,8.5a.49.49,0,0,1,.53-.19l.17,0a.48.48,0,0,1,.43.25l-1,1L32.67,9A6.28,6.28,0,0,0,33.13,8.5ZM33,8.29l-.52.51-.39-.4Zm-1.44.28s.14-.06.21-.09.14,0,.18.09l.39.38-1,1-.59-.59C31.06,9.09,31.32,8.82,31.59,8.57Zm-.43.1a0,0,0,0,1,0,0c-.17.18-.34.34-.53.52L30.43,9Zm-.92.43.24.26-1,1-.44-.44A6.42,6.42,0,0,1,30.25,9.1ZM28.88,10l.47.48-1,1L27.92,11Zm-1.72,2.17c.18-.31.39-.61.59-.92l0-.06.43.43-1,1h0C27,12.43,27,12.42,27.16,12.18Zm-.22.43.15.15-.36.38ZM26.48,14a1,1,0,0,1,.4-.74,4.78,4.78,0,0,0,.34-.35l.6.6-1,1-.37-.37a.15.15,0,0,1,0-.06A.19.19,0,0,1,26.48,14Zm-.07.34.29.29-.34.34C26.37,14.78,26.39,14.57,26.4,14.36Zm-3,8.29-.18-.2a11.88,11.88,0,0,0,2.94-5,4.77,4.77,0,0,0,.93,1.34,4.59,4.59,0,0,0,1.38.93A11.85,11.85,0,0,0,23.4,22.65Zm5-3.72-.69-.5.26-.26.6.6Zm.19.1.13-.11c.09.1.18.19.28.29Zm.29-.26,1-1,.58.58-1,1Zm1.88.74-1-.09h0l.87-.86.59.58-.36.36A.06.06,0,0,1,30.73,19.5Zm.38,0,.21-.21.18.17Zm1.52-.34a.13.13,0,0,1-.08,0l-.73.19a.17.17,0,0,1-.12,0l-.23-.22,1-1,.59.6Zm0-1.16,1-1,.58.59-1,1Zm2,.14-1,.65a.12.12,0,0,1-.2,0l1-1,.31.33Zm.26-.18-.34-.34,1-1,.36.36Zm1.82-2.16-.67,1-.35-.35,1-1C36.77,15.6,36.77,15.61,36.66,15.78Zm.19-.35-.1-.1.28-.27Zm.38-.93a.13.13,0,0,1,0,.07l-.59.59-.59-.6,1-1,.35.36a.17.17,0,0,1,0,.11C37.34,14.2,37.29,14.34,37.24,14.49Zm.22-.76-.3-.3.39-.38C37.51,13.28,37.49,13.5,37.46,13.73Zm0-.95c-.16.18-.33.34-.49.5-.2-.2-.4-.39-.59-.59l1-1a.24.24,0,0,1,.11.21c0,.24,0,.47,0,.71A.21.21,0,0,1,37.49,12.79Z"/><path class="cls-1" d="M17.09,27.56a1.48,1.48,0,0,1,.18-.21,27.86,27.86,0,0,0,2.36-2.19L21.78,23l.08-.07A3.84,3.84,0,0,0,22.94,24a.41.41,0,0,0-.1.06c-1.09,1.09-2.18,2.17-3.26,3.27-.39.4-.74.84-1.1,1.26-.11.13-.11.13-.27.08L18,28.63a1.35,1.35,0,0,1-.86-.86l0-.07S17.09,27.61,17.09,27.56Z"/><path class="cls-1" d="M33.14,25.69c-.29,0-.58.06-.87.12a2.72,2.72,0,0,0-2.09,1.94c-.14.4-.22.81-.33,1.23a3.08,3.08,0,0,1-3-3c.46-.13.93-.24,1.38-.4a2.75,2.75,0,0,0,1.88-2.65c0-.08,0-.16,0-.24A3.08,3.08,0,0,1,33.14,25.69Z"/><path class="cls-1" d="M30.15,29a5.11,5.11,0,0,1,.53-1.7A2.4,2.4,0,0,1,32.56,26c.19,0,.38,0,.58,0A3.09,3.09,0,0,1,30.15,29Z"/><path class="cls-1" d="M29.87,22.69A2.63,2.63,0,0,1,28.81,25a4.61,4.61,0,0,1-1.94.68A3.11,3.11,0,0,1,29.87,22.69Z"/><path class="cls-1" d="M28.95,1a3.64,3.64,0,0,0-.69-.43h0l0,0L28,.44,27.69.33l0,0c-.25-.07-.51-.14-.77-.18l-.1,0h0A7.85,7.85,0,0,0,22.6.55a9,9,0,0,0-5,4.12.34.34,0,0,0,0,.11,7.74,7.74,0,0,0-.67,1.37h0a6.55,6.55,0,0,0-.46,1.92.86.86,0,0,0,.51.9l.41.19a6.86,6.86,0,0,0,3,.6,9.71,9.71,0,0,0,1.92-.19A8.34,8.34,0,0,0,24,9a7.68,7.68,0,0,0,1.84-1A9.52,9.52,0,0,0,29.2,2.92a3.9,3.9,0,0,0,.1-.56,1.23,1.23,0,0,1,0-.24l0-.22A1,1,0,0,0,28.95,1Zm-12,5.31a7.65,7.65,0,0,1,.66-1.37,17.11,17.11,0,0,0,1.1,2.29l.07.13-1.05.61A8,8,0,0,1,16.9,6.28Zm2,3.3A10.79,10.79,0,0,1,17.71,8l1-.6.1.14a8.41,8.41,0,0,0,1.8,2.15l0,0A8.25,8.25,0,0,1,18.92,9.58ZM26.64,4l-.31.19c-.14.08-.22.06-.3-.07l-.31-.51h0l-.29.17-.24.14.3.5c.1.17.08.25-.08.34l-.24.14c-.19.12-.26.1-.37-.09l-.3-.5-.53.3.32.54c.1.16.07.23-.08.32l-.31.18a.17.17,0,0,1-.27-.06L23.25,5l-.53.3c.11.2.22.38.34.56s.06.23-.08.32l-.29.18c-.14.08-.22.06-.31-.07L22,5.73,21.5,6l.35.59c.09.15.06.22-.08.32l-.31.18a.19.19,0,0,1-.29-.07l-.37-.62-.33.19-.2.11v0l.33.55c.12.2.1.26-.1.38l-.27.17A.18.18,0,0,1,20,7.78l-.34-.57a.1.1,0,0,0-.06,0l-.13.07a.12.12,0,0,1-.17,0L19.13,7a.13.13,0,0,1,0-.17l.1-.06h0a.18.18,0,0,0,0-.11L19,6.21a.18.18,0,0,1,.07-.3l.32-.19a.19.19,0,0,1,.29.07l.32.54.54-.3-.26-.44c-.16-.26-.15-.3.1-.46L20.58,5c.17-.1.24-.09.34.08s.22.34.33.53l.53-.31-.33-.55c-.09-.15-.07-.22.07-.32l.3-.18a.19.19,0,0,1,.3.07l.35.59L23,4.61c-.12-.19-.23-.38-.34-.56s-.07-.23.07-.33L23,3.55c.14-.09.22-.07.31.07l.36.59.53-.3-.35-.58c-.1-.17-.08-.24.08-.34l.23-.14c.21-.13.27-.11.39.1l.34.55.26-.14.27-.16-.29-.48a1.07,1.07,0,0,1-.1-.16.17.17,0,0,1,.06-.26l.36-.22a.17.17,0,0,1,.26.07l.3.48a.72.72,0,0,0,.11.16l0,0a.12.12,0,0,1,.17,0L26.5,3a.12.12,0,0,1,0,.17l0,0h0s0,0,0,0a.83.83,0,0,0,0,.08c.07.14.16.27.24.41A.18.18,0,0,1,26.64,4ZM27,2.5l-.1-.16A9.19,9.19,0,0,0,25,.15L25,.1a7.6,7.6,0,0,1,1.81.1,10.92,10.92,0,0,1,1.36,1.72l-1.07.61Zm1.15,2.69a.25.25,0,0,0,0-.15,13.71,13.71,0,0,0-.86-2l-.24-.43,1.1-.63c.26.51.51,1,.77,1.48A9.84,9.84,0,0,1,28.19,5.19Z"/><path class="cls-2" d="M20.47,6.63a.08.08,0,0,1,0,0l-.14.09v0Z"/><path class="cls-2" d="M25.46,3.19l-.27.16,0,0Z"/><path class="cls-2" d="M25.71,3.62l-.26.14,0,0,.29-.17Z"/><path class="cls-1" d="M9.82,8.87a9.83,9.83,0,1,0,9.84,9.83A9.83,9.83,0,0,0,9.82,8.87Zm.41,3.79a.41.41,0,0,1,.14-.28c.83-.69,1.66-1.36,2.49-2l.14-.1.2.06a9,9,0,0,1,3.7,2.77.36.36,0,0,1,0,.3c-.34.93-.71,1.85-1.07,2.77a.47.47,0,0,1-.22.24c-.89.38-1.78.77-2.69,1.14a.39.39,0,0,1-.3,0l-2.33-1.89a.41.41,0,0,1-.12-.26C10.22,14.43,10.22,13.55,10.23,12.67Zm-7.48.43a8.81,8.81,0,0,1,3.78-2.81.34.34,0,0,1,.27.06c.85.67,1.68,1.36,2.52,2a.41.41,0,0,1,.12.26c0,.44,0,.88,0,1.33s0,.88,0,1.32a.45.45,0,0,1-.14.28L7,17.48a.28.28,0,0,1-.34.06c-.88-.38-1.76-.75-2.64-1.13a.38.38,0,0,1-.21-.21c-.38-.95-.74-1.89-1.1-2.84A.32.32,0,0,1,2.74,13.1ZM5.44,23.76l-2.73.15c-.2.07-.33,0-.44-.23a8.88,8.88,0,0,1-1.46-4.4A.32.32,0,0,1,.95,19c.89-.59,1.8-1.17,2.69-1.75a.42.42,0,0,1,.31,0c.82.34,1.64.69,2.45,1.05a.38.38,0,0,1,.21.23c.3,1,.59,2,.89,3a.28.28,0,0,1-.08.32L5.75,23.61A.55.55,0,0,1,5.44,23.76Zm7,3.48a.31.31,0,0,1-.18.18,8.73,8.73,0,0,1-4.84,0,.29.29,0,0,1-.18-.18c-.27-1-.54-2-.79-3A.31.31,0,0,1,6.5,24c.51-.55,1-1.09,1.57-1.62a.38.38,0,0,1,.27-.11h2.9a.39.39,0,0,1,.27.12c.55.55,1.09,1.11,1.62,1.68a.35.35,0,0,1,.08.27C13,25.3,12.7,26.27,12.43,27.24Zm4.92-3.49a.35.35,0,0,1-.34.17l-2.86-.17a.44.44,0,0,1-.3-.13c-.56-.55-1.11-1.12-1.64-1.69a.34.34,0,0,1-.06-.27c.3-1.05.59-2.11.91-3.15a.43.43,0,0,1,.22-.25c.8-.35,1.61-.69,2.41-1a.42.42,0,0,1,.31,0c.91.57,1.8,1.16,2.7,1.73.23.14.13.32.14.5A9.12,9.12,0,0,1,17.35,23.75Z"/></g></g></g></svg>