<svg xmlns="http://www.w3.org/2000/svg" viewBox="0 0 35.36 35.36"><defs><style>.cls-1{fill:#6a625e;}</style></defs><title>Asset 97</title><g id="Layer_2" data-name="Layer 2"><g id="graphic_elements" data-name="graphic elements"><g id="Layer_134" data-name="Layer 134"><path class="cls-1" d="M17.68,0A17.68,17.68,0,1,0,35.36,17.68,17.7,17.7,0,0,0,17.68,0ZM33.49,24c-.63,0-1.26,0-1.89,0s-1.41,0-2.11-.11c-1-.09-2-.2-2.94-.32a.2.2,0,0,0-.25.15c-.16.43-.33.85-.5,1.27l-.25.59a4.45,4.45,0,0,1,2.25,1.92,6.32,6.32,0,0,1,.81,2.54c0,.19,0,.38.05.58q-.41.35-.85.67a7.55,7.55,0,0,0-.34-2.45,3.76,3.76,0,0,0-2.14-2.42c-.15-.06-.21,0-.28.11a21.71,21.71,0,0,1-1.88,3,20.08,20.08,0,0,1-4.42,4.45c-.3.21-.6.42-.91.62h-.17c-.48,0-1,0-1.43-.06a17.68,17.68,0,0,0,4.19-3.16,21.5,21.5,0,0,0,3.36-4.43c.16-.28.31-.56.46-.84l0-.06c-.47,0-.93,0-1.4,0a19.94,19.94,0,0,0-4.43.87c-1.64.49-3.28,1-4.92,1.52a22,22,0,0,1-5.15,1,12.87,12.87,0,0,1-2.72-.11l-.32,0q-.5-.53-1-1.09a12,12,0,0,0,4.14.39,22,22,0,0,0,4.82-1c1.58-.48,3.15-1,4.73-1.47a22.29,22.29,0,0,1,4.52-.93,7.1,7.1,0,0,1,2,.07c.11,0,.16,0,.2-.11l.66-1.57a2.06,2.06,0,0,0,.06-.22c-1.88-.3-3.71-.68-5.53-1.16a59.36,59.36,0,0,1-6.73-2.19,44.83,44.83,0,0,1-6.71-3.26,23,23,0,0,1-5.15-4q.14-.48.31-.95a16,16,0,0,0,2.08,2,31.31,31.31,0,0,0,5.41,3.44,48.84,48.84,0,0,0,5.07,2.25,49.81,49.81,0,0,0,4.74,1.56c1.13.3,2.27.6,3.41.85s2.16.41,3.25.62c.14,0,.2,0,.23-.15.2-.74.41-1.48.61-2.22.08-.31.13-.63.2-1l-.43,0A9,9,0,0,1,22.83,18a15,15,0,0,1-4.4-4.09c-.83-1.12-1.6-2.29-2.4-3.43A22.69,22.69,0,0,0,13.1,7,9.58,9.58,0,0,0,7,4.4Q7.5,4,8,3.65l.42.07a9.8,9.8,0,0,1,3.32,1.21A13.44,13.44,0,0,1,15.2,8c1.09,1.31,2,2.73,3,4.13A19.51,19.51,0,0,0,21.47,16a9.84,9.84,0,0,0,4.19,2.28c.37.08.75.12,1.13.18,0-.08,0-.12,0-.15.09-.87.21-1.75.26-2.62a24.35,24.35,0,0,0-.17-4.41A24.4,24.4,0,0,0,26,7.13a22.42,22.42,0,0,0-2.54-5.47q.71.26,1.4.58A25.66,25.66,0,0,1,27.7,18.37h.08l.3,0a6.88,6.88,0,0,0,4.43-3,9,9,0,0,0,1.28-3.25h0q.27.78.46,1.59a10.37,10.37,0,0,1-.72,1.66,7.77,7.77,0,0,1-2.76,2.83,6.84,6.84,0,0,1-3,1.06c-.16,0-.21.07-.25.22q-.26,1.18-.54,2.36c-.07.31-.17.6-.26.91l.08,0c.62.07,1.24.17,1.87.22,1,.08,2,.14,3.05.18.71,0,1.42,0,2.13,0Q33.66,23.61,33.49,24Z"/></g></g></g></svg>