<svg xmlns="http://www.w3.org/2000/svg" viewBox="0 0 37.58 22.95"><defs><style>.cls-1{fill:#6a625e;}</style></defs><title>Asset 86</title><g id="Layer_2" data-name="Layer 2"><g id="graphic_elements" data-name="graphic elements"><g id="Layer_134" data-name="Layer 134"><path class="cls-1" d="M29.27,4.45v5a1.61,1.61,0,0,1,1-1.21V5.52h6.24V9.13H32.21a1.62,1.62,0,0,1,.13.46.82.82,0,0,1,0,.11h4.19v3.61H32.36V14.4H36v1.52h1.53V4.45Z"/><path class="cls-1" d="M30.84,6V8.17a1.51,1.51,0,0,1,1,.45H36V6Zm3.85,1H32.21c-.18,0-.34,0-.34-.24s.13-.27.32-.27H34.7c.17,0,.3,0,.3.25S34.87,7.07,34.69,7.07Z"/><path class="cls-1" d="M32.36,10.23v.49h2.33c.19,0,.31.05.31.27s-.13.24-.3.24H32.36v1.58H36V10.23Z"/><path class="cls-1" d="M0,9.56l.11-.18A.85.85,0,0,1,1,8.89a.84.84,0,0,1,.71.71,6.75,6.75,0,0,1,0,.89c0,.57,0,1.15,0,1.74h28.2c0-.12,0-.22,0-.33,0-.63,0-1.26,0-1.88a2.3,2.3,0,0,1,0-.37.88.88,0,0,1,.83-.77.89.89,0,0,1,.84.8,2.55,2.55,0,0,1,0,.34q0,5.9,0,11.8a1.83,1.83,0,0,1,0,.46.86.86,0,0,1-.82.66.87.87,0,0,1-.81-.73,2.62,2.62,0,0,1,0-.46c0-.63,0-1.25,0-1.91H1.71c0,.53,0,1.05,0,1.58a6.29,6.29,0,0,1,0,.71.87.87,0,0,1-.74.8.85.85,0,0,1-.89-.57L0,22.23Z"/><path class="cls-1" d="M26.21,2.86c0-.53,0-1.08,0-1.64,0-.11,0-.23,0-.34A.9.9,0,0,1,27,0a.88.88,0,0,1,.86.81,1.88,1.88,0,0,1,0,.28q0,4.51,0,9,0,.1,0,.21l-.07,0a6.94,6.94,0,0,1-.61-.74A1.13,1.13,0,0,0,26,9a1.57,1.57,0,0,1-.31,0c0-.13,0-.24,0-.35,0-.85,0-1.71,0-2.56a.38.38,0,0,0-.31-.44,20.27,20.27,0,0,0-3.8-.8,48.27,48.27,0,0,0-9-.23,25.55,25.55,0,0,0-6.08,1,3,3,0,0,1-.29.1C6,5.73,6,5.85,6,6c0,.88,0,1.75,0,2.63C6,8.77,6,8.88,6,9a.74.74,0,0,1-.21,0,1.1,1.1,0,0,0-1.18.57c-.23.32-.52.61-.83,1,0-.15,0-.23,0-.32q0-4.54,0-9.08a2.36,2.36,0,0,1,0-.34A.88.88,0,0,1,4.61,0a.89.89,0,0,1,.82.89c0,.58,0,1.15,0,1.73,0,.09,0,.18,0,.25A48.33,48.33,0,0,1,26.21,2.86Z"/><path class="cls-1" d="M15.68,6.6V10H7.19V6.61A12.42,12.42,0,0,1,15.68,6.6Z"/><path class="cls-1" d="M16.15,6.61a11.71,11.71,0,0,1,3-.69,12.38,12.38,0,0,1,5.27.59c.21.07.29.15.29.38,0,.93,0,1.85,0,2.78,0,.09,0,.18,0,.29H16.15Z"/></g></g></g></svg>