<svg xmlns="http://www.w3.org/2000/svg" viewBox="0 0 18.81 36.48"><defs><style>.cls-1{fill:#6a625e;}</style></defs><title>Asset 63</title><g id="Layer_2" data-name="Layer 2"><g id="graphic_elements" data-name="graphic elements"><g id="Layer_134" data-name="Layer 134"><path class="cls-1" d="M18.08,3.66H.66A3.79,3.79,0,0,0,0,3.78v10a2.56,2.56,0,0,1,1.55-.45h.54l.4,0a3.17,3.17,0,0,0,2.08-.79A7.73,7.73,0,0,1,9.4,10.89a8.5,8.5,0,0,1,5.67,2.18,1.39,1.39,0,0,0,.65.22,4.62,4.62,0,0,0,.59,0h1.21a2.18,2.18,0,0,1,1.28.41V3.78A4.54,4.54,0,0,0,18.08,3.66Zm-.48,21.56-.44.06a11.53,11.53,0,0,0-3.53,1.19,8.37,8.37,0,0,1-4.2,1.13,8.14,8.14,0,0,1-5.52-2.12.77.77,0,0,0-.59-.27H3.24l-.86,0h-1A2.21,2.21,0,0,1,0,24.75v10a7,7,0,0,0,.74.08H18.13a5.92,5.92,0,0,0,.68-.08v-10A2.33,2.33,0,0,1,17.61,25.22Z"/><path class="cls-1" d="M1.55,1.22H17.26l1.06,2H.48Z"/><path class="cls-1" d="M17.94.41a.56.56,0,0,1-.28.41l-.14,0a2.72,2.72,0,0,1-.42,0H1.7a2.84,2.84,0,0,1-.41,0h0l-.14,0A.56.56,0,0,1,.87.41h0A.24.24,0,0,1,.9.31.72.72,0,0,1,1.2,0l.14,0H17.47l.14,0A.72.72,0,0,1,17.9.3h0a.24.24,0,0,1,0,.09Z"/><path class="cls-1" d="M17.46,0h-.27A1.27,1.27,0,0,1,17.46,0Z"/><path class="cls-1" d="M.89,36.48l-.47-1.3h18l-.47,1.3Z"/><path class="cls-1" d="M4.81,16.53a5.27,5.27,0,0,1,5-2.58,5,5,0,0,1,4.13,2.58Z"/><path class="cls-1" d="M14,22a5.21,5.21,0,0,1-4.64,2.59A5.15,5.15,0,0,1,4.84,22Z"/><path class="cls-1" d="M18.46,15.39a.86.86,0,0,0-1-1h-.57a8.77,8.77,0,0,1-1.36,0,2.43,2.43,0,0,1-1.26-.5,7.09,7.09,0,0,0-9.05-.48,4.28,4.28,0,0,1-3.29,1h-.4c-.91,0-1.16.25-1.16,1.15,0,1.24,0,2.47,0,3.71s0,2.52,0,3.79a.9.9,0,0,0,1,1h.4c.46,0,.91,0,1.37,0a1.89,1.89,0,0,1,1.51.56,7.16,7.16,0,0,0,8.39.85A12.58,12.58,0,0,1,17,24.16l.52-.07a.9.9,0,0,0,1-1Q18.47,19.26,18.46,15.39Zm-1.27,1.34c0,1.69,0,3.39,0,5.08a1.18,1.18,0,0,1-.18.79.8.8,0,0,1-.77.19c-.13,0-.27,0-.4,0a3,3,0,0,0-2.56.92,5.67,5.67,0,0,1-7.76-.08,2.8,2.8,0,0,0-2.27-.85c-1,0-1.35,0-1.47-.42a5.12,5.12,0,0,1-.06-1.1v-2c0-.92,0-1.83,0-2.74A1,1,0,0,1,1.81,16a.59.59,0,0,1,.64-.23A4.27,4.27,0,0,0,6,14.54a5.59,5.59,0,0,1,7.5.43,2.19,2.19,0,0,0,2,.76c.24,0,.49,0,.72,0a.88.88,0,0,1,.83.2A1.18,1.18,0,0,1,17.19,16.73Z"/><path class="cls-1" d="M2.33,17.32H4.48a1.38,1.38,0,0,1,.89.26,1,1,0,0,1,.19,1.22,1.15,1.15,0,0,1-.45.35,1,1,0,0,1,.35,1.77,1.26,1.26,0,0,1-.73.19H2.33v-.84h.3V18.16h-.3ZM3.9,18.79h.24q.4,0,.4-.32t-.44-.3H3.9Zm0,1.5h.23q.43,0,.43-.34t-.4-.35H3.9Z"/><path class="cls-1" d="M9.09,17.32v1.5H8.5l-.2-.66H7.8v.61h.5v.83H7.8v.68h.53l.17-.82h.64v1.66H6.21v-.84h.3V18.16h-.3v-.84Z"/><path class="cls-1" d="M12.38,17.32v1.5h-.6l-.2-.66h-.5v.61h.5v.83h-.5v.68h.53l.17-.82h.64v1.66H9.49v-.84h.3V18.16h-.3v-.84Z"/><path class="cls-1" d="M16.65,20.28v.84H15.44l-1.09-1.81v1h.28v.84H12.78v-.84h.3V18.16h-.3v-.84h2.31a1.54,1.54,0,0,1,.81.16,1,1,0,0,1,.44.93.94.94,0,0,1-.64.94l.68.93ZM14.35,19h.15q.54,0,.54-.39a.37.37,0,0,0-.15-.34.77.77,0,0,0-.37-.06h-.16Z"/></g></g></g></svg>