<svg xmlns="http://www.w3.org/2000/svg" viewBox="0 0 37.26 24.34"><defs><style>.cls-1{fill:#6a625e;}</style></defs><title>Asset 106</title><g id="Layer_2" data-name="Layer 2"><g id="graphic_elements" data-name="graphic elements"><g id="Layer_134" data-name="Layer 134"><path class="cls-1" d="M37.17,15.94a6.82,6.82,0,0,0-2.51-4.35A6.54,6.54,0,0,0,31.31,10,18.9,18.9,0,0,0,29,10a.29.29,0,0,1-.34-.25c-.38-1.34-.77-2.68-1.16-4l-.17-.61-.1-.35-.19-.69h0a1,1,0,0,1,.52-1l0,0a.83.83,0,0,0,0-1.22c-.48-.52-1-1-1.48-1.53A1,1,0,0,0,25.49,0C24.24,0,23,0,21.73,0a.78.78,0,0,0-.86.82.79.79,0,0,0,.88.8h3.18a.61.61,0,0,1,.37.09c.25.21.48.46.73.7a3.87,3.87,0,0,1-.32.36,1.12,1.12,0,0,0-.29,1.46c.15.34.28.7.41,1.08h0l.1.35H14.13c-.16,0-.23,0-.27-.2a4.55,4.55,0,0,0-.2-.64c-.07-.19,0-.29.16-.35L15.2,4a4.32,4.32,0,0,0,.8-.36.71.71,0,0,0,0-1.2,1,1,0,0,0-.49-.1l-5.7,0a.42.42,0,0,0-.18,0,1,1,0,0,0-.46,1,2.08,2.08,0,0,0,.7,1.1,2.59,2.59,0,0,0,1.7.58c.59,0,.55,0,.76.57A1.39,1.39,0,0,1,12.16,7c-.61,1-1.15,2-1.74,3-.4.66-.32.53-.91.34A7.46,7.46,0,0,0,6.06,10,7.2,7.2,0,1,0,8.79,24.15a6.83,6.83,0,0,0,5-4.06,16.77,16.77,0,0,0,.62-2c0-.07.05-.16.11-.18a.52.52,0,0,1,.62.23,1.92,1.92,0,0,0,3.15.1,2.25,2.25,0,0,0,.35-1.55.48.48,0,0,1,.11-.34q3.76-3.5,7.54-7c.18-.17.37-.32.56-.49l0,.05.26.89c.18.62.18.62-.41.93A7.16,7.16,0,0,0,24.42,21.6a6.89,6.89,0,0,0,7.39,2.5A7.12,7.12,0,0,0,37.17,15.94ZM12.82,18.27a5.61,5.61,0,0,1-4,4.3,5.33,5.33,0,0,1-5.58-1.5,5.32,5.32,0,0,1-1.39-5.61,5.44,5.44,0,0,1,4.32-3.93,5.74,5.74,0,0,1,3.24.3l-1.5,2.65-.72,1.3h.16a1.38,1.38,0,0,1,1.18,2.11H12a5.35,5.35,0,0,1,.6,0C12.79,18,12.87,18.06,12.82,18.27ZM8.63,16.35l0-.07,2.1-3.68a6.11,6.11,0,0,1,2.19,3.75Zm6.33,0a.36.36,0,0,1-.58-.24,7.59,7.59,0,0,0-2.51-4.47c-.49-.45-.44-.28-.13-.85.4-.72.82-1.42,1.23-2.13l.16-.25c.06.15.1.26.14.36l2.08,6.58A.94.94,0,0,1,15,16.32ZM26,7.49l-8,7.33a4.16,4.16,0,0,1-.55.43A.41.41,0,0,1,16.9,15l-2.4-7.6a.85.85,0,0,1,0-.11h11.7Zm8.35,13.28a5.67,5.67,0,1,1-8.44-7.57,5.39,5.39,0,0,1,1.81-1.26l.43,1.45L29,16.23a1.38,1.38,0,0,1,1.43-.41l-.6-2.2-.51-1.91c-.05-.19,0-.26.21-.28A5.62,5.62,0,0,1,35.62,16,5.34,5.34,0,0,1,34.37,20.78Z"/><circle class="cls-1" cx="7.29" cy="17.15" r="0.88"/><circle class="cls-1" cx="30.04" cy="17.15" r="0.88"/></g></g></g></svg>