<svg xmlns="http://www.w3.org/2000/svg" viewBox="0 0 39.69 31.86"><defs><style>.cls-1{fill:#6a625e;}</style></defs><title>Asset 16</title><g id="Layer_2" data-name="Layer 2"><g id="graphic_elements" data-name="graphic elements"><g id="Layer_104" data-name="Layer 104"><path class="cls-1" d="M35.41,26.92c0-1.15,0-2.3,0-3.44s-.59-1.71-1.87-1.72-2,.47-2,1.68q-.06,3.4,0,6.81c0,1.15.69,1.64,2.06,1.62,1.21,0,1.82-.54,1.84-1.67s0-2.19,0-3.28Z"/><path class="cls-1" d="M6.31,21.7c-1.35,0-2,.6-2,1.83q0,3.32,0,6.64c0,1.21.56,1.7,1.87,1.71s2-.48,2-1.67,0-2.3,0-3.45,0-2.12,0-3.18A1.69,1.69,0,0,0,6.31,21.7Z"/><path class="cls-1" d="M.9,23.82a2.41,2.41,0,0,0-.9,2c0,.58,0,1.15,0,1.72,0,1.81.74,2.6,2.69,2.83V23.3a3.63,3.63,0,0,0-.66,0A2.54,2.54,0,0,0,.9,23.82Z"/><path class="cls-1" d="M39.66,26A2.83,2.83,0,0,0,39,24a2.22,2.22,0,0,0-1.12-.63,4.57,4.57,0,0,0-.94-.14c0,1.21,0,2.42,0,3.64v3.54c2.14-.41,2.71-1.09,2.7-3.1C39.69,26.88,39.66,26.42,39.66,26Z"/><path class="cls-1" d="M26.85,4.65c.11-.28.23-.57.34-.85A18.18,18.18,0,0,1,38.06,22.36l.13,0a3.5,3.5,0,0,1,1,.44A19.38,19.38,0,0,0,27.67,2.69l.08-.19A.88.88,0,0,0,27.83,2l0-.07a.71.71,0,0,0-.38-.35l-.1,0A20.71,20.71,0,0,0,20.22,0h-.87a20.72,20.72,0,0,0-7.1,1.48l-.1,0a.71.71,0,0,0-.38.34l0,.08a.88.88,0,0,0,.08.55l.14.33A19.41,19.41,0,0,0,.61,20.48,19.09,19.09,0,0,0,.74,22.7a3.68,3.68,0,0,1,1.14-.37h0a17.85,17.85,0,0,1-.09-1.83A18.19,18.19,0,0,1,12.45,4l.08,0c.13.33.27.65.42,1,.06.13.53.18.75.1a17,17,0,0,1,5.71-1.14h.77A16.79,16.79,0,0,1,25.9,5.06.63.63,0,0,0,26.85,4.65Z"/><polygon class="cls-1" points="5.34 14.06 6.74 14.06 6.74 19.76 8.36 19.76 8.36 12.76 5.34 12.76 5.34 14.06"/><path class="cls-1" d="M12.58,12.64c-1.72,0-3,1.31-3,3.62s1.28,3.62,3,3.62,3-1.31,3-3.62S14.31,12.64,12.58,12.64Zm0,5.87c-.8,0-1.36-.66-1.36-2.25S11.78,14,12.58,14,14,14.67,14,16.26,13.39,18.51,12.58,18.51Z"/><polygon class="cls-1" points="15.99 14.06 17.39 14.06 17.39 19.76 19.01 19.76 19.01 12.76 15.99 12.76 15.99 14.06"/><path class="cls-1" d="M23.23,12.64c-1.72,0-3,1.31-3,3.62s1.28,3.62,3,3.62,3-1.31,3-3.62S25,12.64,23.23,12.64Zm0,5.87c-.8,0-1.36-.66-1.36-2.25S22.43,14,23.23,14s1.37.66,1.37,2.25S24,18.51,23.23,18.51Z"/><polygon class="cls-1" points="26.64 14.06 28.04 14.06 28.04 19.76 29.66 19.76 29.66 12.76 26.64 12.76 26.64 14.06"/><polygon class="cls-1" points="31.96 19.76 33.58 19.76 33.58 12.76 30.56 12.76 30.56 14.06 31.96 14.06 31.96 19.76"/></g></g></g></svg>