<svg xmlns="http://www.w3.org/2000/svg" viewBox="0 0 44.93 29.92"><defs><style>.cls-1{fill:#6a625e;}</style></defs><title>Asset 39</title><g id="Layer_2" data-name="Layer 2"><g id="graphic_elements" data-name="graphic elements"><g id="Layer_91" data-name="Layer 91"><path class="cls-1" d="M25.2,20.17c0-.15,0-.31,0-.46H1.47V1.5H35.89V9.71a9.43,9.43,0,0,1,1.5.15q0-4.1,0-8.19C37.38.45,36.86,0,35.52,0H2C.42,0,0,.43,0,2q0,9.1,0,18.2v1H25.25Q25.2,20.67,25.2,20.17Z"/><path class="cls-1" d="M0,21.66v1.9c0,1.8.37,2.18,2.14,2.18H26.81a10.33,10.33,0,0,1-1.5-4.08Zm19.15,2.27h0a.5.5,0,0,1-.27.25h0a.45.45,0,0,1-.18,0,.51.51,0,1,1,.51-.51A.5.5,0,0,1,19.15,23.93Z"/><path class="cls-1" d="M24.4,29.22a10.4,10.4,0,0,0-1.1-.06l-.65-3H14.74l-.66,3a6.91,6.91,0,0,0-1.08,0c-.14,0-.25.24-.37.37.12.1.22.25.36.3a1.62,1.62,0,0,0,.51,0H23.88a1.29,1.29,0,0,0,.51,0c.15-.07.25-.24.37-.37C24.64,29.41,24.53,29.24,24.4,29.22Z"/><path class="cls-1" d="M35.66,10.89A9.19,9.19,0,0,0,28.94,14a9.36,9.36,0,0,0-2.55,6.17,9.24,9.24,0,0,0,2.55,6.39,9.09,9.09,0,0,0,.7.66,9.27,9.27,0,0,0,15.29-7.05A9.67,9.67,0,0,0,35.66,10.89Zm0,14.28a4.79,4.79,0,1,1,4.8-4.79A4.8,4.8,0,0,1,35.66,25.18Z"/><path class="cls-1" d="M35.66,17.27a3.11,3.11,0,1,0,3.11,3.11A3.11,3.11,0,0,0,35.66,17.27Zm0,4.37a1.26,1.26,0,1,1,1.26-1.26A1.26,1.26,0,0,1,35.66,21.64Z"/><polygon class="cls-1" points="4.61 6.05 4.61 2.41 3.04 2.41 3.04 3.09 3.77 3.09 3.77 6.05 4.61 6.05"/><path class="cls-1" d="M8.58,4.23C8.58,3,7.92,2.35,7,2.35S5.46,3,5.46,4.23,6.12,6.12,7,6.12,8.58,5.43,8.58,4.23Zm-2.27,0c0-.83.29-1.17.71-1.17s.71.34.71,1.17S7.44,5.4,7,5.4,6.31,5.06,6.31,4.23Z"/><polygon class="cls-1" points="10.58 6.05 10.58 2.41 9.01 2.41 9.01 3.09 9.73 3.09 9.73 6.05 10.58 6.05"/><path class="cls-1" d="M14.54,4.23c0-1.2-.66-1.88-1.56-1.88S11.42,3,11.42,4.23,12.09,6.12,13,6.12,14.54,5.43,14.54,4.23Zm-2.27,0c0-.83.29-1.17.71-1.17s.71.34.71,1.17S13.4,5.4,13,5.4,12.27,5.06,12.27,4.23Z"/><polygon class="cls-1" points="16.54 6.05 16.54 2.41 14.97 2.41 14.97 3.09 15.7 3.09 15.7 6.05 16.54 6.05"/><polygon class="cls-1" points="18.79 6.05 18.79 2.41 17.22 2.41 17.22 3.09 17.95 3.09 17.95 6.05 18.79 6.05"/><path class="cls-1" d="M21.19,6.12c.9,0,1.56-.68,1.56-1.88s-.66-1.88-1.56-1.88S19.63,3,19.63,4.23,20.3,6.12,21.19,6.12Zm0-3.06c.42,0,.71.34.71,1.17s-.29,1.17-.71,1.17-.71-.34-.71-1.17S20.78,3.06,21.19,3.06Z"/><polygon class="cls-1" points="24.59 6.05 24.59 2.41 23.01 2.41 23.01 3.09 23.74 3.09 23.74 6.05 24.59 6.05"/><path class="cls-1" d="M27,2.35c-.9,0-1.56.68-1.56,1.88S26.1,6.12,27,6.12s1.56-.68,1.56-1.88S27.89,2.35,27,2.35ZM27,5.4c-.42,0-.71-.34-.71-1.17s.29-1.17.71-1.17.71.34.71,1.17S27.41,5.4,27,5.4Z"/><polygon class="cls-1" points="30.55 6.05 30.55 2.41 28.98 2.41 28.98 3.09 29.7 3.09 29.7 6.05 30.55 6.05"/><path class="cls-1" d="M31.39,4.23c0,1.2.67,1.88,1.56,1.88s1.56-.68,1.56-1.88S33.85,2.35,33,2.35,31.39,3,31.39,4.23Zm2.27,0c0,.83-.29,1.17-.71,1.17s-.71-.34-.71-1.17.29-1.17.71-1.17S33.67,3.4,33.67,4.23Z"/><polygon class="cls-1" points="24.59 11.88 24.59 8.23 23.01 8.23 23.01 8.91 23.74 8.91 23.74 11.88 24.59 11.88"/><path class="cls-1" d="M27,8.17c-.9,0-1.56.68-1.56,1.88s.67,1.88,1.56,1.88,1.56-.68,1.56-1.88S27.89,8.17,27,8.17Zm0,3.06c-.42,0-.71-.34-.71-1.17s.29-1.17.71-1.17.71.34.71,1.17S27.41,11.23,27,11.23Z"/><polygon class="cls-1" points="3.04 9.34 3.77 9.34 3.77 12.3 4.61 12.3 4.61 8.66 3.04 8.66 3.04 9.34"/><polygon class="cls-1" points="6.86 8.66 5.29 8.66 5.29 9.34 6.02 9.34 6.02 12.3 6.86 12.3 6.86 8.66"/><path class="cls-1" d="M10.83,10.48c0-1.2-.66-1.88-1.56-1.88s-1.56.68-1.56,1.88.67,1.88,1.56,1.88S10.83,11.68,10.83,10.48Zm-2.27,0c0-.83.29-1.17.71-1.17s.71.34.71,1.17-.29,1.17-.71,1.17S8.56,11.31,8.56,10.48Z"/><polygon class="cls-1" points="12.83 8.66 11.25 8.66 11.25 9.34 11.98 9.34 11.98 12.3 12.83 12.3 12.83 8.66"/><path class="cls-1" d="M15.23,8.6c-.9,0-1.56.68-1.56,1.88s.67,1.88,1.56,1.88,1.56-.68,1.56-1.88S16.13,8.6,15.23,8.6Zm0,3.06c-.42,0-.71-.34-.71-1.17s.29-1.17.71-1.17.71.34.71,1.17S15.65,11.65,15.23,11.65Z"/><polygon class="cls-1" points="17.22 9.34 17.95 9.34 17.95 12.3 18.79 12.3 18.79 8.66 17.22 8.66 17.22 9.34"/><path class="cls-1" d="M22.76,10.48c0-1.2-.66-1.88-1.56-1.88s-1.56.68-1.56,1.88.67,1.88,1.56,1.88S22.76,11.68,22.76,10.48Zm-1.56,1.17c-.42,0-.71-.34-.71-1.17s.29-1.17.71-1.17.71.34.71,1.17S21.62,11.65,21.19,11.65Z"/><path class="cls-1" d="M4.77,18.61c.9,0,1.56-.68,1.56-1.88s-.66-1.88-1.56-1.88-1.56.68-1.56,1.88S3.87,18.61,4.77,18.61Zm0-3.06c.42,0,.71.34.71,1.17s-.29,1.17-.71,1.17-.71-.34-.71-1.17S4.35,15.56,4.77,15.56Z"/><polygon class="cls-1" points="8.33 18.55 8.33 14.91 6.75 14.91 6.75 15.58 7.48 15.58 7.48 18.55 8.33 18.55"/><path class="cls-1" d="M10.73,18.61c.9,0,1.56-.68,1.56-1.88s-.66-1.88-1.56-1.88-1.56.68-1.56,1.88S9.84,18.61,10.73,18.61Zm0-3.06c.42,0,.71.34.71,1.17s-.29,1.17-.71,1.17S10,17.56,10,16.73,10.32,15.56,10.73,15.56Z"/><polygon class="cls-1" points="14.29 18.55 14.29 14.91 12.72 14.91 12.72 15.58 13.45 15.58 13.45 18.55 14.29 18.55"/><polygon class="cls-1" points="16.54 18.55 16.54 14.91 14.97 14.91 14.97 15.58 15.7 15.58 15.7 18.55 16.54 18.55"/><path class="cls-1" d="M18.94,18.61c.9,0,1.56-.68,1.56-1.88s-.66-1.88-1.56-1.88-1.56.68-1.56,1.88S18,18.61,18.94,18.61Zm0-3.06c.42,0,.71.34.71,1.17s-.29,1.17-.71,1.17-.71-.34-.71-1.17S18.53,15.56,18.94,15.56Z"/><path class="cls-1" d="M21,18.08a.5.5,0,1,0,1,0,.5.5,0,0,0-1,0Z"/><path class="cls-1" d="M23.11,18.59a.5.5,0,0,0,.51-.51.5.5,0,0,0-1,0A.5.5,0,0,0,23.11,18.59Z"/><path class="cls-1" d="M24.68,18.59a.5.5,0,0,0,.51-.51.5.5,0,0,0-1,0A.5.5,0,0,0,24.68,18.59Z"/></g></g></g></svg>