<svg xmlns="http://www.w3.org/2000/svg" viewBox="0 0 21.31 36.33"><defs><style>.cls-1{fill:#6a625e;}</style></defs><title>Asset 49</title><g id="Layer_2" data-name="Layer 2"><g id="graphic_elements" data-name="graphic elements"><g id="Layer_134" data-name="Layer 134"><path class="cls-1" d="M15,21.24H4.3L1.63,2.72h16ZM13.28,6.55,12.74,17.4h.82L15.13,6.55Z"/><path class="cls-1" d="M0,36.33l.39-2.58c.39-2.58.79-5.15,1.17-7.73a3,3,0,0,1,2.27-2.66,3.1,3.1,0,0,1,.67-.07H14.77a2.94,2.94,0,0,1,2.9,2.49q.79,5.16,1.57,10.32c0,.07,0,.14,0,.23Zm5.43-6.51a4.2,4.2,0,1,0,4.19-4.21A4.21,4.21,0,0,0,5.43,29.82Z"/><path class="cls-1" d="M.87,2.3V0H18.39V2.3Z"/><path class="cls-1" d="M15.86,17.65l.22-1.48h2.47a1.17,1.17,0,0,0,1.26-1.25q0-3.38,0-6.76a1.15,1.15,0,0,0-1.23-1.24H17.41l.22-1.5a3.77,3.77,0,0,1,2.54.47A2.54,2.54,0,0,1,21.3,8q0,3.53,0,7.06a2.59,2.59,0,0,1-2.48,2.58C17.85,17.68,16.87,17.65,15.86,17.65Z"/><path class="cls-1" d="M14.25,21.65V22.9H5V21.65Z"/></g></g></g></svg>