<svg xmlns="http://www.w3.org/2000/svg" viewBox="0 0 38.24 35.83"><defs><style>.cls-1{fill:#6a625e;}</style></defs><title>Asset 30</title><g id="Layer_2" data-name="Layer 2"><g id="graphic_elements" data-name="graphic elements"><g id="Layer_100" data-name="Layer 100"><path class="cls-1" d="M18.73,32.48a1,1,0,0,0,.78,0,35.6,35.6,0,0,1,14.62-3.2H35V0L34.6,0h-.16A37.47,37.47,0,0,0,19.36,3.09a.58.58,0,0,1-.34.05A36.69,36.69,0,0,0,10.16.5,35.61,35.61,0,0,0,3.56,0H3.27V29.28h.84A35.49,35.49,0,0,1,18.73,32.48ZM7.93,2.5A36.71,36.71,0,0,1,17.69,5c.28.12.33.19.33.47q0,10.14,0,20.27v4.05A37,37,0,0,0,5.5,27.14V2.31l.58,0C6.7,2.39,7.32,2.43,7.93,2.5Zm24.82-.18V27.14a37.17,37.17,0,0,0-12.49,2.63V5.12A36.23,36.23,0,0,1,32.75,2.32Z"/><path class="cls-1" d="M37.95,5.11c-.16,0-.39-.22-.6-.41a1.63,1.63,0,0,0-1-.57H36V30.39h-.22l-2.09.17c-1.55.12-3.16.25-4.73.46a43.18,43.18,0,0,0-9.7,2.44.71.71,0,0,1-.43,0A49.31,49.31,0,0,0,5.14,30.55c-.73-.06-1.46-.09-2.21-.13l-.75,0V4.13H1.89a1.67,1.67,0,0,0-1,.59c-.19.17-.42.39-.56.39H0V32.53l.41,0H.68a49,49,0,0,1,8,.56,44.45,44.45,0,0,1,10,2.63,1,1,0,0,0,.38.07,1.17,1.17,0,0,0,.37-.06l1-.38c.42-.16.84-.32,1.26-.45A50.13,50.13,0,0,1,37.1,32.57h1.14V5.11Z"/></g></g></g></svg>