<svg xmlns="http://www.w3.org/2000/svg" viewBox="0 0 40.83 30.6"><defs><style>.cls-1{fill:#6a625e;}</style></defs><title>Asset 14</title><g id="Layer_2" data-name="Layer 2"><g id="graphic_elements" data-name="graphic elements"><g id="Layer_129" data-name="Layer 129"><path class="cls-1" d="M39.2,24.88a3.92,3.92,0,0,0-.68-.33l-1.94-.66c0-.7-.06-1.41,0-2.1a2.16,2.16,0,0,1,1.59-2.09,1.2,1.2,0,0,0,.52-.33.42.42,0,0,0-.21-.73l-.75-.23a4.5,4.5,0,0,0,1.69-3.49,4.74,4.74,0,0,0-.86-3.75,16.56,16.56,0,0,0,2.26-.65,2.35,2.35,0,0,0-.5-.4c-.47-.22-1-.41-1.44-.59s-.71-.23-1.07-.33a7,7,0,0,1,.07-2.55,2,2,0,0,1,1.4-1.61,1.69,1.69,0,0,0,.57-.33c.35-.29.25-.67-.19-.8l-3.79-1.1L26.39.07A1.57,1.57,0,0,0,25.84,0L21,.64l-9,1.21c-2.58.34-5.17.7-7.76,1a3.07,3.07,0,0,0-2.4,1.31,4,4,0,0,0-.63,2.2,5.82,5.82,0,0,0,1.32,4.39s0,0,0,.06l-1.53.45c-.46.14-.56.51-.19.81a2.64,2.64,0,0,0,.69.36,1.75,1.75,0,0,1,.93.75,5.36,5.36,0,0,1,.41,3.35l-.36.13c-.71.26-1.43.51-2.14.79a1.71,1.71,0,0,0-.43.35s0,.08,0,.13l1,.32A8.66,8.66,0,0,0,.3,19.74a6.5,6.5,0,0,0,.37,4.74,2.84,2.84,0,0,0,1.85,1.58c2.3.69,4.59,1.43,6.87,2.14l7.65,2.4c5.37-1.14,22.16-5.14,22.45-5.38A1.81,1.81,0,0,0,39.2,24.88ZM19.28,9.17l18.19-3.6a7.15,7.15,0,0,0-.42,4l-17.92,4.3C19.18,12.27,19.23,10.73,19.28,9.17ZM2.87,8.82a5.27,5.27,0,0,1-.06-3.49,1.05,1.05,0,0,1,1.43-.67L18,9l.45.14c-.06,1.58-.1,3.12-.16,4.71l-2.48-.67L9.73,11.53V14.2l11.74,2.33c.06,1.56.1,3.09.15,4.68L9.73,18.36,9,18.19,4.15,17h0l-.4-.1a7.09,7.09,0,0,0-.41-4l.81.16V10A1.78,1.78,0,0,1,2.87,8.82ZM17.1,28.54l-.65-.15C12,27.18,7.53,26,3.05,24.78a2,2,0,0,1-1.53-1.54,5.32,5.32,0,0,1,0-3.2A1.07,1.07,0,0,1,3,19.36l14,4.39.28.11C17.2,25.42,17.15,27,17.1,28.54Zm18.73-4.28-17.93,4.3c0-1.57.1-3.11.15-4.68L20,23.49c.49-.1,1-.21,1.47-.28a4.9,4.9,0,0,1,.81,0,1.25,1.25,0,0,0,.32,0,58.9,58.9,0,0,1,7.48-1.71c2-.41,3.93-.78,5.91-1.17l.24,0A6.91,6.91,0,0,0,35.83,24.26Zm-10.65-3.8-2.76.75c-.06-1.6-.1-3.14-.16-4.71l2.23-.7c3.93-1.25,7.87-2.47,11.8-3.73,1.18-.37,1.61.2,1.79,1a5.49,5.49,0,0,1-.21,3.2,1.78,1.78,0,0,1-1.34,1.16C32.75,18.4,29,19.44,25.18,20.46Z"/><path class="cls-1" d="M4.1,17h0l0,0Z"/><polygon class="cls-1" points="5.04 15.04 5.04 8.4 8.79 9.45 8.79 16.2 6.9 13.44 5.04 15.04"/></g></g></g></svg>