<svg xmlns="http://www.w3.org/2000/svg" viewBox="0 0 34.33 37.32"><defs><style>.cls-1{fill:#6a625e;}</style></defs><title>Asset 72</title><g id="Layer_2" data-name="Layer 2"><g id="graphic_elements" data-name="graphic elements"><g id="Layer_134" data-name="Layer 134"><circle class="cls-1" cx="7.51" cy="24.72" r="1.5"/><circle class="cls-1" cx="13.97" cy="28.85" r="1.5"/><circle class="cls-1" cx="10.35" cy="26.77" r="1.33"/><circle class="cls-1" cx="12.95" cy="23.89" r="2.05"/><path class="cls-1" d="M34.19,2.51A34.33,34.33,0,0,0,31.58.17c-.35-.29-.75-.17-1.1.16-.63.62-1.28,1.24-1.92,1.85a.71.71,0,0,0-.08,1.08L29.87,2c1-1,1-1,1.4-.83-.6.64-1.19,1.33-1.84,2-.42.39-.73.76-.58,1.18-.88.94-1.65,1.82-2.48,2.65q-2,2-4.13,4a4.07,4.07,0,0,1-.94.52l-.1-.2,7.32-7.12-.25-.77c-1.86,1.82-3.69,3.55-5.44,5.36a11.5,11.5,0,0,1-4.27,2.84c-.7.27-1.37.58-2.08.8a16,16,0,0,0-7.75,5.26C6.11,20.76,3.45,23.85.8,27c-1,1.2-1.07,1.44-.11,2.72a27.59,27.59,0,0,0,6.12,5.85,28.75,28.75,0,0,0,2.84,1.67.92.92,0,0,0,1.22-.27c2.93-3.21,5.81-6.47,8.83-9.6a15.54,15.54,0,0,0,4.23-8.25,16.28,16.28,0,0,1,3.7-7.92c1.39-1.61,2.6-3.38,3.85-5l.83-.05c.65-.85,1.33-1.69,1.92-2.59A1,1,0,0,0,34.19,2.51ZM24,16.58l-.84,3.11c-.68-.52-1.26-1-1.88-1.43a2.26,2.26,0,0,0-.89-.38A3,3,0,0,1,18,15.74a8.91,8.91,0,0,0-1.3-1.89c-2.64.77-4.28,2.64-6.09,4.44a57.85,57.85,0,0,0,9.05,8.08l-5.75,6.31a28.57,28.57,0,0,1-2.44-1.5,1.33,1.33,0,1,0-2.08-1.56c-.21-.18-.42-.35-.62-.54V29a2.25,2.25,0,0,0-2.25-2.25H6.49q-.93-1-1.77-2.16c-.9,1-1.78,1.89-2.58,2.87-.2.25-.14.7-.19,1a1,1,0,0,1-.1-1.57c.7-.75,1.42-1.5,2.09-2.28a4.52,4.52,0,0,0,.47-.86l-.16-.11,5.49-6.23.6.38c1.74-1.68,3.36-3.49,5.78-4.2V13l3.43-1.43.74.87c2.23.14,2.92,1.22,3.11,2.83l.75.65C24.11,16.16,24.06,16.37,24,16.58Z"/></g></g></g></svg>