<svg xmlns="http://www.w3.org/2000/svg" viewBox="0 0 13.31 36.33"><defs><style>.cls-1{fill:#6a625e;}</style></defs><title>Asset 66</title><g id="Layer_2" data-name="Layer 2"><g id="graphic_elements" data-name="graphic elements"><g id="Layer_134" data-name="Layer 134"><path class="cls-1" d="M13.06,16.54c0-1,.17-1.93.25-2.89-.79-.41-1.46-.82-2.18-1.11A1.61,1.61,0,0,1,9.92,10.8c0-.17,0-.34,0-.51a8.5,8.5,0,0,0-.76-5,2.17,2.17,0,0,1-.17-1,.77.77,0,0,0,.21-.57c0-.82,0-1.64,0-2.47A1.14,1.14,0,0,0,8,0L6.67,0h0L5.3,0A1.14,1.14,0,0,0,4.09,1.3c0,.82,0,1.64,0,2.47a.82.82,0,0,0,.16.52,1.89,1.89,0,0,1-.11.93,8.42,8.42,0,0,0-.78,5.14c.15,1.3,0,1.55-1.19,2.16L0,13.63c.08,1,.23,2,.23,3C.18,22.46.1,28.3,0,34.14c0,1.47.58,2.13,2.05,2.16,3,0,6.08,0,9.11,0,1.48,0,2.08-.7,2-2.16,0-1.27-.18-2.53-.19-3.8Q13,23.44,13.06,16.54ZM9.83,31.81a.87.87,0,0,1,0,.12H2.27l-.85,2.39V13.85l3-1.74a12.07,12.07,0,0,1,.21-5.54A4,4,0,0,1,5,5.65c-.09.62-.18,1.22-.24,1.81a11.52,11.52,0,0,0,.37,4.77L2,14.18c0,.49.08,1,.12,1.61h7.91a.92.92,0,0,0,0,.13l-7.71.59V31.18Z"/></g></g></g></svg>