<svg xmlns="http://www.w3.org/2000/svg" viewBox="0 0 9.84 36.43"><defs><style>.cls-1{fill:#6a625e;}</style></defs><title>Asset 67</title><g id="Layer_2" data-name="Layer 2"><g id="graphic_elements" data-name="graphic elements"><g id="Layer_134" data-name="Layer 134"><path class="cls-1" d="M3.31,9H6.54l.19,1.75c0,.45.1.91.14,1.36a.2.2,0,0,0,.14.19,4.74,4.74,0,0,1,2.35,2.26,4.5,4.5,0,0,1,.48,2q0,3.82,0,7.64,0,5.13,0,10.26c0,.37,0,.74,0,1.1a.79.79,0,0,1-.81.81H.81a.79.79,0,0,1-.8-.81q0-5.18,0-10.37c0-2.88,0-5.76,0-8.64A4.6,4.6,0,0,1,1.39,13.3a4.77,4.77,0,0,1,1.46-1A.23.23,0,0,0,3,12.14c.08-.65.14-1.3.21-1.95Zm6.16,9.23H.37V31h9.1Z"/><path class="cls-1" d="M6.53,4.09V8.71H3.32V4.09Z"/><path class="cls-1" d="M6.75,1.9q0,.8,0,1.6c0,.22-.07.29-.29.29H3.36c-.19,0-.27-.07-.27-.26q0-1.63,0-3.27c0-.21.06-.27.27-.27H6.45c.25,0,.3.05.3.3q0,.8,0,1.6Z"/><path class="cls-1" d="M1.41,19.28V30h7V19.28Z"/></g></g></g></svg>