<svg xmlns="http://www.w3.org/2000/svg" viewBox="0 0 16.9 36.07"><defs><style>.cls-1{fill:#6a625e;}</style></defs><title>Asset 70</title><g id="Layer_2" data-name="Layer 2"><g id="graphic_elements" data-name="graphic elements"><g id="Layer_134" data-name="Layer 134"><path class="cls-1" d="M16.85,22a4.09,4.09,0,0,0-1.44-2.48c-1-.91-2.08-1.78-3.18-2.59a3.45,3.45,0,0,1-1.45-2.69c0-.79,0-1.58,0-2.38,0-1.68,0-3.36,0-5a3.31,3.31,0,0,1,.53-1.65A2.88,2.88,0,0,0,11.69,4c.06-.85,0-1.7,0-2.56A1.44,1.44,0,0,0,10.32,0Q8.46,0,6.61,0A1.43,1.43,0,0,0,5.22,1.44c0,.83,0,1.66,0,2.49a2.05,2.05,0,0,0,.41,1.31,2.6,2.6,0,0,1,.52,1.55c0,2.32.07,4.64.06,7A3.74,3.74,0,0,1,4.38,17.2a4.33,4.33,0,0,0-.55.41C3,18.31,2.14,19,1.37,19.72A4.09,4.09,0,0,0,0,23.19c0,.5,0,1,.1,1.51.41,2.84.82,5.68,1.26,8.51A2.79,2.79,0,0,0,3.9,35.78a20.75,20.75,0,0,0,4.53.27c.77,0,1.54,0,2.31,0a19.62,19.62,0,0,0,2.32-.27,2.78,2.78,0,0,0,2.46-2.38c.55-3.15,1.1-6.29,1.34-9.49A8.93,8.93,0,0,0,16.85,22Zm-14.4-.41c-.27-.47.32-1.33,1.32-1.91s2-.67,2.31-.19-.32,1.33-1.32,1.91S2.73,22.1,2.45,21.63Zm6,8.31c-3,0-5.37-1.14-5.37-2.54s2.4-2.54,5.37-2.54S13.83,26,13.83,27.4,11.42,29.94,8.45,29.94Z"/></g></g></g></svg>