<svg xmlns="http://www.w3.org/2000/svg" viewBox="0 0 25.85 36.88"><defs><style>.cls-1{fill:#6a625e;}</style></defs><title>Asset 62</title><g id="Layer_2" data-name="Layer 2"><g id="graphic_elements" data-name="graphic elements"><g id="Layer_134" data-name="Layer 134"><path class="cls-1" d="M24.46,28.23H20.39a.66.66,0,0,0-.15,0v2.32a.54.54,0,0,1,.26-.09h.32a.78.78,0,0,0,.48-.18l.17-.12.1-.06h0a1.67,1.67,0,0,1,.75-.21h.16a1.78,1.78,0,0,1,.58.11,1,1,0,0,1,.21.08,1.91,1.91,0,0,1,.45.3h0l.09,0h.48a.45.45,0,0,1,.21.05l.08,0V28.26A.65.65,0,0,0,24.46,28.23Zm-.12,5h-.1a2.83,2.83,0,0,0-.83.28,1.93,1.93,0,0,1-1,.26,1.88,1.88,0,0,1-1.28-.5.18.18,0,0,0-.14-.06h-.45a.57.57,0,0,1-.32-.11v2.33l.17,0h4.06l.15,0V33.15A.53.53,0,0,1,24.34,33.26Z"/><path class="cls-1" d="M24.51,28.14H20.35l.06-.12h0l.18-.35h3.67l0,.06h0a.84.84,0,0,0,.05.11l.09.18v0Z"/><path class="cls-1" d="M24.42,27.47h0a.14.14,0,0,1-.06.1H20.51a.14.14,0,0,1-.06-.1h0a0,0,0,0,1,0,0,.13.13,0,0,1,.07-.06h3.82a.15.15,0,0,1,.07.06Z"/><path class="cls-1" d="M24.31,27.31h0Z"/><path class="cls-1" d="M24.31,27.38h0Z"/><path class="cls-1" d="M20.44,35.88l-.11-.3h4.19l-.11.3Z"/><path class="cls-1" d="M23.48,31.23H21.36a1.3,1.3,0,0,1,.12-.15l.1-.11a1.22,1.22,0,0,1,1.91.26Z"/><path class="cls-1" d="M23.5,32.5a1.33,1.33,0,0,1-.26.3,1.15,1.15,0,0,1-.83.3,1.21,1.21,0,0,1-1.05-.61Z"/><path class="cls-1" d="M24.32,30.74h-.13a1.71,1.71,0,0,1-.32,0h-.08a.58.58,0,0,1-.22-.1,1.59,1.59,0,0,0-.23-.18,1.78,1.78,0,0,0-.55-.22,1.32,1.32,0,0,0-.48,0,1.57,1.57,0,0,0-.74.25l-.1.06h0a1,1,0,0,1-.77.23h-.2c-.12,0-.16.08-.16.25s0,.58,0,.86v.88a.22.22,0,0,0,.23.24H21a.44.44,0,0,1,.35.13,1.68,1.68,0,0,0,2,.2A2.84,2.84,0,0,1,24.2,33l.12,0c.13,0,.21-.06.22-.19a.08.08,0,0,0,0,0V31A.2.2,0,0,0,24.32,30.74Zm-.07,1.76a.26.26,0,0,1,0,.14.19.19,0,0,1-.18,0h-.09a.64.64,0,0,0-.48.12l-.12.1a1.32,1.32,0,0,1-1.81,0,.64.64,0,0,0-.53-.19c-.23,0-.32,0-.34-.1a1.26,1.26,0,0,1,0-.25V31.23a.24.24,0,0,1,0-.13s.07-.06.15-.05a.9.9,0,0,0,.66-.17l.1-.06.06,0a1.26,1.26,0,0,1,1.19-.23h0a.82.82,0,0,1,.21.08,1.18,1.18,0,0,1,.34.24.53.53,0,0,0,.46.18A1.51,1.51,0,0,0,24,31c.1,0,.15,0,.19.05a.28.28,0,0,1,0,.19c0,.27,0,.55,0,.82a.34.34,0,0,0,0,.08c0,.08,0,.16,0,.24Z"/><path class="cls-1" d="M21.57,31.93a.16.16,0,0,0-.1-.07l0,0,0,0,.06-.06a.22.22,0,0,0,0-.12.2.2,0,0,0-.07-.17h0a.29.29,0,0,0-.19-.05h-.5v.2h.07v.49h-.07v.2h.55l.14,0,0,0a.21.21,0,0,0,.09-.17,0,0,0,0,0,0,0A.2.2,0,0,0,21.57,31.93Zm-.43-.32h.05c.06,0,.1,0,.1.07s0,.07-.09.07h-.06Zm.06.49h-.06v-.16h.06a.08.08,0,0,1,.09.08Q21.3,32.1,21.2,32.1Z"/><path class="cls-1" d="M22.22,31.92l0,.18h-.13v-.15h.12v-.19h-.12v-.14h.12l.05.15h.14v-.35h-.67v.2h.07v.49h-.07v.2h.68v-.39Z"/><path class="cls-1" d="M23,31.92l0,.18h-.12v-.15h.12v-.19h-.12v-.14h.12l0,.15h.14v-.35h-.67v.2h.06v.49h-.06v.2h.68v-.39Z"/><path class="cls-1" d="M24.06,32.1h0l-.15-.21a.21.21,0,0,0,.15-.22.24.24,0,0,0-.1-.22.32.32,0,0,0-.19,0h-.54v.2h.07v.49h-.07v.2h.43v-.2h-.06v-.23l.14.22,0,.08.08.12h.28v-.2Zm-.44-.31h0v-.18h0s.07,0,.08,0a.08.08,0,0,1,0,.08C23.74,31.76,23.7,31.79,23.61,31.79Z"/><path class="cls-1" d="M25.57,30.18h-.1a3,3,0,0,0-.79.26v.25l-.06,0v1.76H25.7l.15,0V30.08A.51.51,0,0,1,25.57,30.18Zm.12-5H21.63a.55.55,0,0,0-.15,0v2.14h.92l.15-.1a1.7,1.7,0,0,1,.26-.17,1.78,1.78,0,0,1,.86-.21h.06a1.92,1.92,0,0,1,1.24.5h0a.46.46,0,0,0,.15.05h.42a.48.48,0,0,1,.3.1V25.18A.65.65,0,0,0,25.69,25.15Z"/><path class="cls-1" d="M25.74,25.06H21.59l.06-.12h0l.18-.35H25.5l.09.17.09.18v0Z"/><path class="cls-1" d="M25.65,24.4a.13.13,0,0,1-.07.1H21.74a.13.13,0,0,1-.07-.1h0v0a.17.17,0,0,1,.07-.06h3.83a.17.17,0,0,1,.07.06h0v0Z"/><path class="cls-1" d="M25.54,24.3h0Z"/><path class="cls-1" d="M25.76,32.5c0,.1-.07.19-.11.3h-1v-.3Z"/><path class="cls-1" d="M24.72,28.16h-.14L24.5,28a1.62,1.62,0,0,1-.1-.19A1.59,1.59,0,0,1,24.72,28.16Z"/><path class="cls-1" d="M24.73,29.43l0,.06v-.06Z"/><path class="cls-1" d="M25.55,27.67h-.13a1.71,1.71,0,0,1-.32,0,.62.62,0,0,1-.3-.12,1.64,1.64,0,0,0-1.93-.23h1.46l.05,0h0l.07.06,0,.06a.2.2,0,0,1-.09.15,1.06,1.06,0,0,1,.21.17.53.53,0,0,0,.46.18,1.63,1.63,0,0,0,.17,0c.1,0,.15,0,.19.05a.28.28,0,0,1,0,.19c0,.27,0,.55,0,.82a.34.34,0,0,0,0,.08c0,.1,0,.19,0,.28v0a.32.32,0,0,1,0,.16s-.08.06-.18,0h-.08a.63.63,0,0,0-.48.12v.43a2.52,2.52,0,0,1,.75-.23l.12,0c.14,0,.23-.08.23-.23v-1.8A.2.2,0,0,0,25.55,27.67Z"/><path class="cls-1" d="M25.29,29h0l-.15-.21a.21.21,0,0,0,.15-.22.25.25,0,0,0-.1-.22.35.35,0,0,0-.19,0h-.3v.89h.2V29h-.07V28.8l.14.22,0,.08.08.12h.28V29Zm-.44-.31h0v-.18h0s.06,0,.08,0a.08.08,0,0,1,0,.08C25,28.69,24.93,28.72,24.85,28.72Z"/><path class="cls-1" d="M19,28.23H14.89a.66.66,0,0,0-.15,0v2.32a.54.54,0,0,1,.26-.09h.32a.78.78,0,0,0,.48-.18l.17-.12.1-.06h0a1.67,1.67,0,0,1,.75-.21H17a1.78,1.78,0,0,1,.58.11,1,1,0,0,1,.21.08,1.91,1.91,0,0,1,.45.3h0l.09,0h.48a.45.45,0,0,1,.21.05l.08,0V28.26A.65.65,0,0,0,19,28.23Zm-.12,5h-.1a2.83,2.83,0,0,0-.83.28,1.93,1.93,0,0,1-1,.26,1.88,1.88,0,0,1-1.28-.5.18.18,0,0,0-.14-.06h-.45a.57.57,0,0,1-.32-.11v2.33l.17,0H19l.15,0V33.15A.53.53,0,0,1,18.84,33.26Z"/><path class="cls-1" d="M19,28.14H14.85l.06-.12h0l.18-.35h3.67l0,.06h0a.84.84,0,0,0,.05.11l.09.18v0Z"/><path class="cls-1" d="M18.92,27.47h0a.14.14,0,0,1-.06.1H15a.14.14,0,0,1-.06-.1h0a0,0,0,0,1,0,0,.13.13,0,0,1,.07-.06h3.82a.15.15,0,0,1,.07.06Z"/><path class="cls-1" d="M18.81,27.31h0Z"/><path class="cls-1" d="M18.81,27.38h0Z"/><path class="cls-1" d="M14.94,35.88l-.11-.3H19l-.11.3Z"/><path class="cls-1" d="M18,31.23H15.86a1.3,1.3,0,0,1,.12-.15l.1-.11a1.22,1.22,0,0,1,1.91.26Z"/><path class="cls-1" d="M18,32.5a1.33,1.33,0,0,1-.26.3,1.15,1.15,0,0,1-.83.3,1.21,1.21,0,0,1-1.05-.61Z"/><path class="cls-1" d="M18.82,30.74h-.13a1.71,1.71,0,0,1-.32,0h-.08a.58.58,0,0,1-.22-.1,1.59,1.59,0,0,0-.23-.18,1.78,1.78,0,0,0-.55-.22,1.32,1.32,0,0,0-.48,0,1.57,1.57,0,0,0-.74.25l-.1.06h0a1,1,0,0,1-.77.23H15c-.12,0-.16.08-.16.25s0,.58,0,.86v.88a.22.22,0,0,0,.23.24h.41a.44.44,0,0,1,.35.13,1.68,1.68,0,0,0,2,.2A2.84,2.84,0,0,1,18.7,33l.12,0c.13,0,.21-.06.22-.19a.08.08,0,0,0,0,0V31A.2.2,0,0,0,18.82,30.74Zm-.07,1.76a.26.26,0,0,1,0,.14.19.19,0,0,1-.18,0h-.09a.64.64,0,0,0-.48.12l-.12.1a1.32,1.32,0,0,1-1.81,0,.64.64,0,0,0-.53-.19c-.23,0-.32,0-.34-.1a1.26,1.26,0,0,1,0-.25V31.23a.24.24,0,0,1,0-.13s.07-.06.15-.05a.9.9,0,0,0,.66-.17l.1-.06.06,0a1.26,1.26,0,0,1,1.19-.23h0a.82.82,0,0,1,.21.08,1.18,1.18,0,0,1,.34.24.53.53,0,0,0,.46.18,1.51,1.51,0,0,0,.17,0c.1,0,.15,0,.19.05a.28.28,0,0,1,0,.19c0,.27,0,.55,0,.82a.34.34,0,0,0,0,.08c0,.08,0,.16,0,.24Z"/><path class="cls-1" d="M16.07,31.93a.16.16,0,0,0-.1-.07l0,0,0,0,.06-.06a.22.22,0,0,0,0-.12.2.2,0,0,0-.07-.17h0a.29.29,0,0,0-.19-.05h-.5v.2h.07v.49h-.07v.2h.55l.14,0,0,0a.21.21,0,0,0,.09-.17,0,0,0,0,0,0,0A.2.2,0,0,0,16.07,31.93Zm-.43-.32h.05c.06,0,.1,0,.1.07s0,.07-.09.07h-.06Zm.06.49h-.06v-.16h.06a.08.08,0,0,1,.09.08Q15.8,32.1,15.7,32.1Z"/><path class="cls-1" d="M16.72,31.92l0,.18h-.13v-.15h.12v-.19h-.12v-.14h.12l.05.15h.14v-.35h-.67v.2h.07v.49h-.07v.2h.68v-.39Z"/><path class="cls-1" d="M17.48,31.92l0,.18h-.12v-.15h.12v-.19h-.12v-.14h.12l0,.15h.14v-.35H17v.2H17v.49H17v.2h.68v-.39Z"/><path class="cls-1" d="M18.56,32.1h0l-.15-.21a.21.21,0,0,0,.15-.22.24.24,0,0,0-.1-.22.32.32,0,0,0-.19,0h-.54v.2h.07v.49h-.07v.2h.43v-.2h-.06v-.23l.14.22,0,.08.08.12h.28v-.2Zm-.44-.31h0v-.18h0s.07,0,.08,0a.08.08,0,0,1,0,.08C18.24,31.76,18.2,31.79,18.11,31.79Z"/><path class="cls-1" d="M20.07,30.18H20a3,3,0,0,0-.79.26v.25l-.06,0v1.76H20.2l.15,0V30.08A.51.51,0,0,1,20.07,30.18Zm.12-5H16.13a.55.55,0,0,0-.15,0v2.14h.92l.15-.1a1.7,1.7,0,0,1,.26-.17,1.78,1.78,0,0,1,.86-.21h.06a1.92,1.92,0,0,1,1.24.5h0a.46.46,0,0,0,.15.05h.42a.48.48,0,0,1,.3.1V25.18A.65.65,0,0,0,20.19,25.15Z"/><path class="cls-1" d="M20.24,25.06H16.09l.06-.12h0l.18-.35H20l.09.17.09.18v0Z"/><path class="cls-1" d="M20.15,24.4a.13.13,0,0,1-.07.1H16.24a.13.13,0,0,1-.07-.1h0v0a.17.17,0,0,1,.07-.06h3.83a.17.17,0,0,1,.07.06h0v0Z"/><path class="cls-1" d="M20,24.3h0Z"/><path class="cls-1" d="M20.26,32.5c0,.1-.07.19-.11.3h-1v-.3Z"/><path class="cls-1" d="M19.22,28.16h-.14L19,28a1.62,1.62,0,0,1-.1-.19A1.59,1.59,0,0,1,19.22,28.16Z"/><path class="cls-1" d="M19.23,29.43l0,.06v-.06Z"/><path class="cls-1" d="M20,27.67h-.13a1.71,1.71,0,0,1-.32,0,.62.62,0,0,1-.3-.12,1.64,1.64,0,0,0-1.93-.23h1.46l.05,0h0l.07.06,0,.06a.2.2,0,0,1-.09.15,1.06,1.06,0,0,1,.21.17.53.53,0,0,0,.46.18,1.63,1.63,0,0,0,.17,0c.1,0,.15,0,.19.05a.28.28,0,0,1,0,.19c0,.27,0,.55,0,.82a.34.34,0,0,0,0,.08c0,.1,0,.19,0,.28v0a.32.32,0,0,1,0,.16s-.08.06-.18,0h-.08a.63.63,0,0,0-.48.12v.43a2.52,2.52,0,0,1,.75-.23l.12,0c.14,0,.23-.08.23-.23v-1.8A.2.2,0,0,0,20,27.67Z"/><path class="cls-1" d="M19.79,29h0l-.15-.21a.21.21,0,0,0,.15-.22.25.25,0,0,0-.1-.22.35.35,0,0,0-.19,0h-.3v.89h.2V29h-.07V28.8l.14.22,0,.08.08.12h.28V29Zm-.44-.31h0v-.18h0s.06,0,.08,0a.08.08,0,0,1,0,.08C19.47,28.69,19.43,28.72,19.35,28.72Z"/><path class="cls-1" d="M13,28.23H8.94a.66.66,0,0,0-.15,0v2.32A.54.54,0,0,1,9,30.49h.32a.78.78,0,0,0,.48-.18l.17-.12.1-.06h0a1.67,1.67,0,0,1,.75-.21H11a1.78,1.78,0,0,1,.58.11,1,1,0,0,1,.21.08,1.91,1.91,0,0,1,.45.3h0l.09,0h.48a.45.45,0,0,1,.21.05l.08,0V28.26A.65.65,0,0,0,13,28.23Zm-.12,5h-.1a2.83,2.83,0,0,0-.83.28,1.93,1.93,0,0,1-1,.26,1.88,1.88,0,0,1-1.28-.5.18.18,0,0,0-.14-.06H9.11a.57.57,0,0,1-.32-.11v2.33l.17,0H13l.15,0V33.15A.53.53,0,0,1,12.89,33.26Z"/><path class="cls-1" d="M13.06,28.14H8.9L9,28H9l.18-.35h3.67l0,.06h0a.84.84,0,0,0,.05.11L13,28v0Z"/><path class="cls-1" d="M13,27.47h0a.14.14,0,0,1-.06.1H9.05a.14.14,0,0,1-.06-.1H9a0,0,0,0,1,0,0,.13.13,0,0,1,.07-.06h3.82a.15.15,0,0,1,.07.06Z"/><path class="cls-1" d="M12.86,27.31h0Z"/><path class="cls-1" d="M12.86,27.38h0Z"/><path class="cls-1" d="M9,35.88l-.11-.3h4.19l-.11.3Z"/><path class="cls-1" d="M12,31.23H9.91a1.3,1.3,0,0,1,.12-.15l.1-.11a1.22,1.22,0,0,1,1.91.26Z"/><path class="cls-1" d="M12,32.5a1.33,1.33,0,0,1-.26.3,1.15,1.15,0,0,1-.83.3,1.21,1.21,0,0,1-1.05-.61Z"/><path class="cls-1" d="M12.87,30.74h-.13a1.71,1.71,0,0,1-.32,0h-.08a.58.58,0,0,1-.22-.1,1.59,1.59,0,0,0-.23-.18,1.78,1.78,0,0,0-.55-.22,1.32,1.32,0,0,0-.48,0,1.57,1.57,0,0,0-.74.25l-.1.06h0a1,1,0,0,1-.77.23H9c-.12,0-.16.08-.16.25s0,.58,0,.86v.88a.22.22,0,0,0,.23.24h.41a.44.44,0,0,1,.35.13,1.68,1.68,0,0,0,2,.2,2.84,2.84,0,0,1,.92-.31l.12,0c.13,0,.21-.06.22-.19a.08.08,0,0,0,0,0V31A.2.2,0,0,0,12.87,30.74Zm-.07,1.76a.26.26,0,0,1,0,.14.19.19,0,0,1-.18,0h-.09a.64.64,0,0,0-.48.12l-.12.1a1.32,1.32,0,0,1-1.81,0,.64.64,0,0,0-.53-.19c-.23,0-.32,0-.34-.1a1.26,1.26,0,0,1,0-.25V31.23a.24.24,0,0,1,0-.13s.07-.06.15-.05a.9.9,0,0,0,.66-.17l.1-.06.06,0a1.26,1.26,0,0,1,1.19-.23h0a.82.82,0,0,1,.21.08,1.18,1.18,0,0,1,.34.24.53.53,0,0,0,.46.18,1.51,1.51,0,0,0,.17,0c.1,0,.15,0,.19.05a.28.28,0,0,1,0,.19c0,.27,0,.55,0,.82a.34.34,0,0,0,0,.08c0,.08,0,.16,0,.24Z"/><path class="cls-1" d="M10.12,31.93a.16.16,0,0,0-.1-.07l0,0,0,0,.06-.06a.22.22,0,0,0,0-.12.2.2,0,0,0-.07-.17h0a.29.29,0,0,0-.19-.05h-.5v.2H9.4v.49H9.33v.2h.55l.14,0,0,0a.21.21,0,0,0,.09-.17,0,0,0,0,0,0,0A.2.2,0,0,0,10.12,31.93Zm-.43-.32h.05c.06,0,.1,0,.1.07s0,.07-.09.07H9.69Zm.06.49H9.69v-.16h.06a.08.08,0,0,1,.09.08Q9.85,32.1,9.75,32.1Z"/><path class="cls-1" d="M10.77,31.92l0,.18H10.6v-.15h.12v-.19H10.6v-.14h.12l.05.15h.14v-.35h-.67v.2h.07v.49h-.07v.2h.68v-.39Z"/><path class="cls-1" d="M11.53,31.92l0,.18h-.12v-.15h.12v-.19h-.12v-.14h.12l0,.15h.14v-.35H11v.2h.06v.49H11v.2h.68v-.39Z"/><path class="cls-1" d="M12.61,32.1h0l-.15-.21a.21.21,0,0,0,.15-.22.24.24,0,0,0-.1-.22.32.32,0,0,0-.19,0h-.54v.2h.07v.49h-.07v.2h.43v-.2h-.06v-.23l.14.22,0,.08.08.12h.28v-.2Zm-.44-.31h0v-.18h0s.07,0,.08,0a.08.08,0,0,1,0,.08C12.29,31.76,12.25,31.79,12.16,31.79Z"/><path class="cls-1" d="M14.12,30.18H14a3,3,0,0,0-.79.26v.25l-.06,0v1.76h1.08l.15,0V30.08A.51.51,0,0,1,14.12,30.18Zm.12-5H10.18a.55.55,0,0,0-.15,0v2.14h.92l.15-.1a1.7,1.7,0,0,1,.26-.17,1.78,1.78,0,0,1,.86-.21h.06a1.92,1.92,0,0,1,1.24.5h0a.46.46,0,0,0,.15.05h.42a.48.48,0,0,1,.3.1V25.18A.65.65,0,0,0,14.24,25.15Z"/><path class="cls-1" d="M14.29,25.06H10.13l.06-.12h0l.18-.35H14l.09.17.09.18v0Z"/><path class="cls-1" d="M14.2,24.4a.13.13,0,0,1-.07.1H10.29a.13.13,0,0,1-.07-.1h0v0a.17.17,0,0,1,.07-.06h3.83a.17.17,0,0,1,.07.06h0v0Z"/><path class="cls-1" d="M14.09,24.3h0Z"/><path class="cls-1" d="M14.31,32.5c0,.1-.07.19-.11.3h-1v-.3Z"/><path class="cls-1" d="M13.27,28.16h-.14L13.05,28a1.62,1.62,0,0,1-.1-.19A1.59,1.59,0,0,1,13.27,28.16Z"/><path class="cls-1" d="M13.28,29.43l0,.06v-.06Z"/><path class="cls-1" d="M14.1,27.67H14a1.71,1.71,0,0,1-.32,0,.62.62,0,0,1-.3-.12,1.64,1.64,0,0,0-1.93-.23h1.46l.05,0h0l.07.06,0,.06a.2.2,0,0,1-.09.15,1.06,1.06,0,0,1,.21.17.53.53,0,0,0,.46.18,1.63,1.63,0,0,0,.17,0c.1,0,.15,0,.19.05a.28.28,0,0,1,0,.19c0,.27,0,.55,0,.82a.34.34,0,0,0,0,.08c0,.1,0,.19,0,.28v0a.32.32,0,0,1,0,.16s-.08.06-.18,0h-.08a.63.63,0,0,0-.48.12v.43a2.52,2.52,0,0,1,.75-.23l.12,0c.14,0,.23-.08.23-.23v-1.8A.2.2,0,0,0,14.1,27.67Z"/><path class="cls-1" d="M13.84,29h0l-.15-.21a.21.21,0,0,0,.15-.22.25.25,0,0,0-.1-.22.35.35,0,0,0-.19,0h-.3v.89h.2V29h-.07V28.8l.14.22,0,.08.08.12h.28V29Zm-.44-.31h0v-.18h0s.06,0,.08,0a.08.08,0,0,1,0,.08C13.52,28.69,13.48,28.72,13.4,28.72Z"/><path class="cls-1" d="M5.32,0l-1,0h0l-1,0c-.57,0-1,.4-.94,1.17s0,1.5,0,2.26A.8.8,0,0,0,2.48,4a1,1,0,0,1,.22.71q0,1,0,1.94v.19H5.85V6.64q0-1,0-1.94A1,1,0,0,1,6.07,4a.8.8,0,0,0,.18-.55c0-.75,0-1.5,0-2.26S5.88,0,5.32,0Z"/><path class="cls-1" d="M2.75,4.2h3c0,.12,0,.22,0,.32,0,2.53,0,5.06,0,7.59a2,2,0,0,0,.34,1.2c.33.48.7.94,1,1.42s.7,1,1,1.55a3,3,0,0,1,.37,1.52q0,8.69,0,17.37a2,2,0,0,1-.31,1.14,1.19,1.19,0,0,1-1,.57H1.49A1.36,1.36,0,0,1,0,35.58a3.76,3.76,0,0,1,0-.49Q0,26.55,0,18a3.8,3.8,0,0,1,.62-2.17c.34-.51.71-1,1.07-1.48l.5-.66a2.83,2.83,0,0,0,.58-1.82c0-2.44,0-4.88,0-7.32Z"/></g></g></g></svg>