<svg xmlns="http://www.w3.org/2000/svg" viewBox="0 0 19.25 36.36"><defs><style>.cls-1{fill:#6a625e;}</style></defs><title>Asset 64</title><g id="Layer_2" data-name="Layer 2"><g id="graphic_elements" data-name="graphic elements"><g id="Layer_134" data-name="Layer 134"><path class="cls-1" d="M4.24,36.36H1c-.68,0-1-.31-1-1Q0,24.19,0,13a3.22,3.22,0,0,1,.86-2.13A11.72,11.72,0,0,1,1.92,9.82,2.09,2.09,0,0,0,2.66,8.2c0-2.08,0-4.16,0-6.24,0-.36-.13-.72-.13-1.07A2.43,2.43,0,0,1,2.69.12c0-.06.17-.11.25-.11,1,0,1.9,0,2.85,0A.31.31,0,0,1,6,.17a3.74,3.74,0,0,1,.15,1.15c-.3,2.26,0,4.52-.13,6.78a2.15,2.15,0,0,0,.82,1.79,9.06,9.06,0,0,1,1,1,3.48,3.48,0,0,1,.83,2.34q0,10.85,0,21.7c0,1-.41,1.39-1.41,1.39ZM3,7.44c0,.16,0,.29,0,.43a2.71,2.71,0,0,1-1.07,2.39A4.2,4.2,0,0,0,.31,13.77c.07,7.17,0,14.34,0,21.5,0,.59.16.75.75.75H7.26c.88,0,1.12-.23,1.12-1.12,0-7.18,0-14.36,0-21.54a3.46,3.46,0,0,0-1-2.47c-.26-.28-.55-.54-.83-.8a2.32,2.32,0,0,1-.86-1.85c0-.26,0-.53,0-.8Z"/><path class="cls-1" d="M10.81,36.14l.73-.11A5.69,5.69,0,0,0,13,35.74a2.26,2.26,0,0,0,1.29-2.2q0-3.55,0-7.09a1.13,1.13,0,0,0-.86-1.32A5.29,5.29,0,0,1,9.9,20a13.35,13.35,0,0,1,1.57-6.21.47.47,0,0,1,.35-.21q2.76,0,5.51,0a.43.43,0,0,1,.33.18,13.16,13.16,0,0,1,1.57,6.44,5.25,5.25,0,0,1-3.39,4.85c-.9.39-1,.54-1,1.54q0,3.49,0,7A2.38,2.38,0,0,0,17.3,36c.8,0,.8,0,1.08.28H10.81Zm-.58-16.55a5,5,0,0,0,2.5,4.8,3.58,3.58,0,0,0,3.68,0A4.83,4.83,0,0,0,18.91,20a13,13,0,0,0-1.45-5.85.47.47,0,0,0-.35-.21q-2.53,0-5.05,0a.5.5,0,0,0-.38.23A13.68,13.68,0,0,0,10.23,19.59Z"/><path class="cls-1" d="M1.16,23.59c0-1.66,0-3.31,0-5,0-.34.09-.44.43-.44q2.77,0,5.55,0c.36,0,.45.11.45.46q0,5,0,9.94c0,.37-.11.45-.46.45q-2.77,0-5.55,0c-.35,0-.43-.11-.43-.44C1.17,26.92,1.16,25.25,1.16,23.59Z"/><path class="cls-1" d="M18.67,20a4.83,4.83,0,0,1-1.27,3.37c-2.11,2.21-5.13,1.43-6.4-1.12a8.92,8.92,0,0,1-.47-1.62c-.06-.2,0-.32.23-.41A6,6,0,0,1,15,19.89,5.74,5.74,0,0,0,18.67,20Z"/></g></g></g></svg>