<svg xmlns="http://www.w3.org/2000/svg" viewBox="0 0 14.26 36.48"><defs><style>.cls-1{fill:#6a625e;}</style></defs><title>Asset 71</title><g id="Layer_2" data-name="Layer 2"><g id="graphic_elements" data-name="graphic elements"><g id="Layer_134" data-name="Layer 134"><path class="cls-1" d="M11.05,24a.34.34,0,0,0-.12.23c0,1.36,0,2.72,0,4.08v.24H3.34v-.25c0-1.34,0-2.67,0-4a.36.36,0,0,0-.09-.25,4.69,4.69,0,0,0-.5-.31V32c0,.5.22.72.72.72h7.29c.55,0,.75-.2.75-.75V23.76A4.15,4.15,0,0,0,11.05,24ZM10,31.19H9.76l-3.49,0-1.77,0c-.19,0-.27-.06-.25-.25s0-.16.18-.16H9.69C10,30.82,10,30.82,10,31.19Zm-.23-.88H4.47a.26.26,0,0,1-.2-.14c0-.1,0-.25.15-.26l.28,0H7.15v0h2.6c.15,0,.25,0,.25.2S9.88,30.31,9.74,30.31Z"/><path class="cls-1" d="M10.82,19.09,8,22.56a.37.37,0,0,0,0,.1l-.06,0c-.23-2-.46-3.94-.69-5.93a3.83,3.83,0,0,1,1.37.23,4.4,4.4,0,0,1,2.3,1.82A.24.24,0,0,1,10.82,19.09Z"/><path class="cls-1" d="M7.08,16.69c-.23,2-.46,4-.7,6l-.71-.87L3.41,19.05a.2.2,0,0,1,0-.29,9.76,9.76,0,0,1,.88-1A4.14,4.14,0,0,1,7.08,16.69Z"/><path class="cls-1" d="M5.13,23.47l-.66-.21-1.58-.51a.23.23,0,0,1-.14-.15c0-.74,0-1.49.05-2.23a6.09,6.09,0,0,1,.25-1h.06Z"/><path class="cls-1" d="M11.51,20.86c0,.56,0,1.12,0,1.68a.23.23,0,0,1-.1.19l-2.28.74,2-4.15A4.17,4.17,0,0,1,11.51,20.86Z"/><path class="cls-1" d="M14.26,14.14A1.14,1.14,0,0,0,13.57,13c-.84-.41-1.67-.83-2.51-1.25A1.92,1.92,0,0,1,10,9.94q0-3.16,0-6.31a.42.42,0,0,1,.14-.32l1.36-1.15a.48.48,0,0,0,.07-.68.48.48,0,0,0-.68-.06l-.9.76q0-.17,0-.34c0-.44,0-.88,0-1.32S9.79,0,9.42,0H4.84c-.38,0-.54.16-.53.54s0,1,0,1.53a.07.07,0,0,1,0,0l-.81-.68a.48.48,0,0,0-.68.06.49.49,0,0,0,.08.68L4.17,3.24a.42.42,0,0,1,.15.34.73.73,0,0,0,0,.1c0,.43,0,.85,0,1.27,0,1.67,0,3.33,0,5a1.91,1.91,0,0,1-1.09,1.83c-.86.44-1.73.87-2.59,1.3A1,1,0,0,0,0,14c0,.3,0,.59,0,.89q0,3.48,0,7v6.86c0,1.95,0,3.89,0,5.84a1.82,1.82,0,0,0,1.93,1.93H12.28a2.89,2.89,0,0,0,.43,0,1.83,1.83,0,0,0,1.55-1.95c0-2.25,0-4.5,0-6.75s0-4.44,0-6.65S14.25,16.46,14.26,14.14ZM1.43,15.2c0,1.35,0,2.7,0,4.06q-.1,4.89-.22,9.78c0,1.14-.12,2.27-.23,3.42,0-.08,0-.15,0-.23C.85,30.09.74,28,.69,25.82q-.06-2.69,0-5.38c0-1.74.14-3.48.2-5.22a2.2,2.2,0,0,1,1-1.83,8.65,8.65,0,0,1,2.24-1.09L2.41,13.48a3.68,3.68,0,0,0-.31.27A1.77,1.77,0,0,0,1.43,15.2ZM12,32.21a.85.85,0,0,1-1,1H3.2a.84.84,0,0,1-1-1c0-3.74,0-7.49,0-11.24a4.58,4.58,0,0,1,.66-2.35,4.82,4.82,0,0,1,2.14-2A4.88,4.88,0,0,1,12,20.4a4.83,4.83,0,0,1,0,.71q0,2.74,0,5.49Z"/></g></g></g></svg>