<svg xmlns="http://www.w3.org/2000/svg" viewBox="0 0 13.89 36.43"><defs><style>.cls-1{fill:#6a625e;}</style></defs><title>Asset 68</title><g id="Layer_2" data-name="Layer 2"><g id="graphic_elements" data-name="graphic elements"><g id="Layer_134" data-name="Layer 134"><path class="cls-1" d="M13.47,35.59c.06-.63.11-1.26.15-1.89.09-1.45.21-2.91.23-4.36,0-2.4.05-4.8,0-7.19,0-1.77-.26-3.53-.35-5.3a3.06,3.06,0,0,0-1.16-2.24A8.78,8.78,0,0,0,10,13.22L9.44,13l.31-1.58a11.33,11.33,0,0,1-5.58-.09c.1.51.18,1,.29,1.46,0,.17,0,.23-.16.29a9.43,9.43,0,0,0-2.58,1.41A3.24,3.24,0,0,0,.44,16.82C.22,19.3,0,21.78,0,24.27a109.79,109.79,0,0,0,.45,11.2,1,1,0,0,0,.55,1H12.87A.89.89,0,0,0,13.47,35.59Zm-1.65-1.47.2-3.43H.39c0-.08,0-.14,0-.21-.13-2.87-.16-5.74,0-8.61.05-1.17.15-2.34.21-3.51a.27.27,0,0,1,.23-.29,19.45,19.45,0,0,1,6.49-.92,18.58,18.58,0,0,1,4.3.7l.18,0-.13-1.4h0c0,.14.09.28.13.43.08.31.16.62.23.94a.21.21,0,0,0,.17.18l1.05.35a.2.2,0,0,1,.16.21c.06,1.07.15,2.13.2,3.2.12,2.66.1,5.32,0,8,0,.29,0,.58,0,.9H12.46A21.42,21.42,0,0,1,11.81,34.12Z"/><path class="cls-1" d="M7.72,0c.39,0,.77.06,1.16.07.17,0,.23.07.25.22a9.47,9.47,0,0,1,0,3A.32.32,0,0,1,9,3.45a2.79,2.79,0,0,0-.33,3.08c.14.32.32.63.48.94A6,6,0,0,1,9.76,11c0,.12-.07.15-.17.17a10.75,10.75,0,0,1-3.85.17c-.46-.06-.91-.17-1.36-.25-.16,0-.2-.11-.22-.25a6,6,0,0,1,.76-3.73,6.21,6.21,0,0,0,.51-1.2A2.54,2.54,0,0,0,5,3.57a1,1,0,0,1-.19-.48,9.27,9.27,0,0,1,0-2.83c0-.14.08-.19.22-.19L6.16,0Z"/><path class="cls-1" d="M12,21.11l.12,6.49H.8c-.05-2.16,0-4.32.09-6.49Z"/><path class="cls-1" d="M13,21.11c.11,2.17.14,4.32.09,6.49H11.62a43.67,43.67,0,0,0-.11-6.49Z"/></g></g></g></svg>