<svg xmlns="http://www.w3.org/2000/svg" viewBox="0 0 11.27 36.68"><defs><style>.cls-1{fill:#6a625e;}</style></defs><title>Asset 65</title><g id="Layer_2" data-name="Layer 2"><g id="graphic_elements" data-name="graphic elements"><g id="Layer_134" data-name="Layer 134"><path class="cls-1" d="M11.27,7.09a.73.73,0,0,1-.43.68.54.54,0,0,1-.69-.06s-.06,0-.11,0c-1,.48-2.58.18-3.69.49a14.25,14.25,0,0,1,.11-1.56,3.11,3.11,0,0,0-.1-1.17c0-.06,0-.13,0-.19A1.38,1.38,0,0,0,5,4.21H3.34l.42-.44c.61-.65.67-2,1.28-2.69C5.1,1,5.11,1,5.07.93A.53.53,0,0,1,5.21.26.77.77,0,0,1,6,0a.4.4,0,0,1,.18.57.85.85,0,0,1-.67.48h-.1a2,2,0,0,0,.18.59A2.48,2.48,0,0,0,8,3c.42,0,.85-.06,1.29-.1a.6.6,0,0,1,.13-.51.84.84,0,0,1,.34-.26.51.51,0,0,1,.66.1.56.56,0,0,1-.17.68.73.73,0,0,1-.81.17l0,0c-.15.36-.32.73-.45,1.09a2.71,2.71,0,0,0,.1,2.3A2.21,2.21,0,0,0,10,7.4l.06,0a.42.42,0,0,0,0-.08.86.86,0,0,1,.63-.55A.42.42,0,0,1,11.27,7.09Z"/><path class="cls-1" d="M3.65,36.68H.86c-.59,0-.86-.27-.86-.85q0-9.64,0-19.27a2.78,2.78,0,0,1,.74-1.84,10.1,10.1,0,0,1,.91-.91,1.81,1.81,0,0,0,.64-1.4c0-1.79,0-3.59,0-5.38,0-.31-.11-.62-.11-.93a2.09,2.09,0,0,1,.14-.65c0-.05.14-.1.22-.1H5a.27.27,0,0,1,.21.14,3.23,3.23,0,0,1,.13,1c-.26,1.95,0,3.9-.11,5.85a1.86,1.86,0,0,0,.71,1.54,7.81,7.81,0,0,1,.89.9,3,3,0,0,1,.71,2q0,9.35,0,18.71c0,.85-.35,1.2-1.21,1.2ZM2.6,11.75c0,.14,0,.25,0,.37a2.34,2.34,0,0,1-.92,2.06,3.62,3.62,0,0,0-1.41,3c.06,6.18,0,12.36,0,18.54,0,.51.14.65.65.65H6.26c.76,0,1-.2,1-1,0-6.19,0-12.38,0-18.57a3,3,0,0,0-.83-2.13c-.22-.24-.47-.47-.72-.69a2,2,0,0,1-.74-1.6c0-.23,0-.46,0-.69Z"/><path class="cls-1" d="M1,25.67c0-1.43,0-2.86,0-4.28,0-.29.08-.38.37-.38q2.39,0,4.78,0c.31,0,.39.09.39.4q0,4.28,0,8.57c0,.32-.1.39-.39.39q-2.39,0-4.78,0c-.3,0-.37-.09-.37-.38C1,28.54,1,27.11,1,25.67Z"/></g></g></g></svg>