<svg xmlns="http://www.w3.org/2000/svg" viewBox="0 0 38.02 22.3"><defs><style>.cls-1{fill:#6a625e;}</style></defs><title>Asset 110</title><g id="Layer_2" data-name="Layer 2"><g id="graphic_elements" data-name="graphic elements"><g id="Layer_134" data-name="Layer 134"><path class="cls-1" d="M33.35,16.34,23.93,4.65c-.26-.33-.53-.65-.79-1a.36.36,0,0,0-.59-.07c-.68.55-1.37,1.09-2,1.65a1.25,1.25,0,0,0-.41,1.52c.23.5,0,.68-.32.93A24.49,24.49,0,0,0,17,10.06a7,7,0,0,0-1.42,7.4.48.48,0,0,1-.19.66c-.34.24-.66.53-1,.79a.77.77,0,0,0-.29.83c0,.11,0,.3-.06.36l-.57.47A5.73,5.73,0,0,1,15,22.3l.4-.32c.16-.13.29-.24.52-.08a.69.69,0,0,0,.86-.09c.35-.29.71-.56,1.06-.85a.37.37,0,0,1,.53,0,7.23,7.23,0,0,0,8.81-.61c.71-.61,1.45-1.17,2.18-1.76l.19.11a1.51,1.51,0,0,0,2.12,0l1.64-1.32C33.78,16.89,33.78,16.87,33.35,16.34Zm-8.47-.08L18.43,16v-.11L22,14.78,20.62,13l.05-.13,6.32.21,0,.11L23.38,14.4Z"/><path class="cls-1" d="M27,7l-1.58-2a3.52,3.52,0,0,1,.26-.26c1.5-1.21,3-2.43,4.51-3.63a1.29,1.29,0,0,1,2.12.56A1.16,1.16,0,0,1,32,3C30.38,4.36,28.72,5.68,27,7Z"/><path class="cls-1" d="M32.65,14,31.1,12.05a1.51,1.51,0,0,1,.18-.2L35.9,8.13A1.26,1.26,0,0,1,37.38,8,1.13,1.13,0,0,1,38,9.23a1.49,1.49,0,0,1-.44.84c-1.58,1.31-3.19,2.59-4.79,3.87C32.74,14,32.71,14,32.65,14Z"/><path class="cls-1" d="M14.52,12.17a7.34,7.34,0,0,0-.44,2.3l-.8.55L12,15.86a.83.83,0,0,1-1.13-.12,4.52,4.52,0,0,0-2.35-1.32A5,5,0,0,1,6,6a4.93,4.93,0,0,1,6.89-.18,4.81,4.81,0,0,1,1.56,4.47A4.79,4.79,0,0,0,14.52,12.17Z"/><path class="cls-1" d="M14.51,17.49l-.41.33-.31.26-.16-.14a.13.13,0,0,0-.11,0,.78.78,0,0,1-.9-.33,5.56,5.56,0,0,1-.45-.65.52.52,0,0,1,.16-.73l1.2-.82.54-.37A9.21,9.21,0,0,0,14.51,17.49Z"/><path class="cls-1" d="M5.41,2.5,6,3.3a.56.56,0,0,1-.79.77A.65.65,0,0,1,5,3.92L3.94,2.33a.55.55,0,0,1,0-.69.53.53,0,0,1,.64-.15.83.83,0,0,1,.28.24c.19.25.35.51.53.77Z"/><path class="cls-1" d="M11.25,2.91a.58.58,0,0,1-.68.06.52.52,0,0,1-.26-.55q.18-1,.37-2a.56.56,0,0,1,1.1.2c-.12.66-.24,1.32-.37,2A1,1,0,0,1,11.25,2.91Z"/><path class="cls-1" d="M3,7.9a.55.55,0,0,1,0,.61.55.55,0,0,1-.58.25L.83,8.47.46,8.4A.56.56,0,0,1,0,7.75.55.55,0,0,1,.66,7.3l2,.37A.53.53,0,0,1,3,7.9Z"/><path class="cls-1" d="M16.58,5.4l-.77.53A.56.56,0,1,1,15.18,5l1.57-1.08a.56.56,0,0,1,.76.8.81.81,0,0,1-.16.13l-.4.27Z"/><path class="cls-1" d="M3.13,14.61l-.78.53a.56.56,0,1,1-.63-.92l1.6-1.09a.56.56,0,0,1,.75.81.83.83,0,0,1-.17.14Z"/></g></g></g></svg>