<svg xmlns="http://www.w3.org/2000/svg" viewBox="0 0 39.51 32.43"><defs><style>.cls-1{fill:#6a625e;}</style></defs><title>Asset 37</title><g id="Layer_2" data-name="Layer 2"><g id="graphic_elements" data-name="graphic elements"><g id="Layer_103" data-name="Layer 103"><path class="cls-1" d="M19.73,32.41c-5.27,0-10.55,0-15.82,0A3.63,3.63,0,0,1,0,28.53C0,21.79,0,15,0,8.29A3.4,3.4,0,0,1,2.65,4.67a5.53,5.53,0,0,1,1.29-.12c2,0,4.08,0,6.12,0a1.3,1.3,0,0,0,1.37-.85c.26-.61.59-1.18.87-1.78a3.13,3.13,0,0,1,3-1.91q4.48,0,9,0a3.16,3.16,0,0,1,3,1.89c.32.64.67,1.27.95,1.93a1.09,1.09,0,0,0,1.15.71c2.14,0,4.27,0,6.41,0a3.59,3.59,0,0,1,3,1.33,3.71,3.71,0,0,1,.73,2.39q0,7.74,0,15.48c0,1.66,0,3.33,0,5a3.41,3.41,0,0,1-3.67,3.68Zm0-2.31h16.1c.93,0,1.36-.42,1.36-1.34q0-10.26,0-20.53c0-1-.42-1.36-1.39-1.37H29.27a3.16,3.16,0,0,1-3-1.85c-.36-.71-.72-1.41-1.06-2.13a1.07,1.07,0,0,0-1.07-.68H15.35a1.12,1.12,0,0,0-1.11.71c-.34.72-.7,1.42-1.06,2.13a3.08,3.08,0,0,1-3,1.82H3.82c-1.08,0-1.47.38-1.47,1.46q0,10.15,0,20.3c0,1.11.39,1.48,1.51,1.48Z"/><rect class="cls-1" x="4.7" y="2.23" width="4.56" height="1.09" rx="0.55" ry="0.55"/><path class="cls-1" d="M30.21,17.34A10.45,10.45,0,1,1,19.78,6.87,10.38,10.38,0,0,1,30.21,17.34ZM19.76,9.2a8.13,8.13,0,1,0,8.14,8.13A8.08,8.08,0,0,0,19.76,9.2Z"/><path class="cls-1" d="M32.55,9.19a1.17,1.17,0,0,1-2.33,0,1.17,1.17,0,0,1,2.33,0Z"/></g></g></g></svg>