<svg xmlns="http://www.w3.org/2000/svg" viewBox="0 0 38.02 29.37"><defs><style>.cls-1{fill:#6a625e;}</style></defs><title>Asset 107</title><g id="Layer_2" data-name="Layer 2"><g id="graphic_elements" data-name="graphic elements"><g id="Layer_134" data-name="Layer 134"><path class="cls-1" d="M19.89,16.79h2.73l-4,6h-.13A.78.78,0,0,1,18,22.5a72.94,72.94,0,0,1-7.6-13.83c-.13-.34-.23-.69-.33-1a1.19,1.19,0,0,1,0-.26l.44.38a11.85,11.85,0,0,0,5.28,3,10.05,10.05,0,0,0,7.49-1.53l.4-.26.81,1.53Z"/><path class="cls-1" d="M17.15,22.75H9.06V7.57C10.95,13,14.07,17.86,17.15,22.75Z"/><path class="cls-1" d="M8.1,7.53v15.2H0C3.06,17.87,6.2,13.06,8.1,7.53Z"/><path class="cls-1" d="M20.34,24.55,24.44,16H22.51l4.16-7.85H25.23l4-7.43,3.92,7.36-1.39.08L35.84,16H33.91L38,24.5H30.73v4.87h-3V24.55Z"/><circle class="cls-1" cx="15.74" cy="2.64" r="2.64"/></g></g></g></svg>