<svg xmlns="http://www.w3.org/2000/svg" viewBox="0 0 37.56 24.33"><defs><style>.cls-1{fill:#6a625e;}</style></defs><title>Asset 108</title><g id="Layer_2" data-name="Layer 2"><g id="graphic_elements" data-name="graphic elements"><g id="Layer_134" data-name="Layer 134"><path class="cls-1" d="M11.13,18.88h9.94C17.28,12.88,13.45,7,11.13.25Z"/><path class="cls-1" d="M10,18.87V.19C7.61,7,3.76,12.9,0,18.87Z"/><path class="cls-1" d="M35,14.18c-.55-.42-1.1-.83-1.64-1.26a1.66,1.66,0,0,0-.28-.18l-.43-.32-.17-.12-.18-.14a1.73,1.73,0,0,0-1.22-.52,2.13,2.13,0,0,0-1.06.31A4.08,4.08,0,0,0,28.3,14a1.89,1.89,0,0,0-.08,1.48l-.37.37a16.79,16.79,0,0,0-1.76,2c-1.48.45-2.67.78-3.12.9l0,.05h-.16a1,1,0,0,1-.69-.31c-3.58-5.41-7-10.9-9.34-17-.16-.42-.28-.85-.41-1.28a1.49,1.49,0,0,1,0-.32l.54.47A14.57,14.57,0,0,0,19.35,4.2a12.34,12.34,0,0,0,9.2-1.88L29,2l.46.87c1.32,2.24,4.12,8.63,5.68,10.46C35.39,13.58,35.31,13.88,35,14.18Z"/><path class="cls-1" d="M29.3,15.58c-.52-.34-.45-.79-.26-1.25a3.26,3.26,0,0,1,1.4-1.69,1,1,0,0,1,1.32.09,4.54,4.54,0,0,0,.42.32,3.45,3.45,0,0,1-.47.18.3.3,0,0,1-.24-.07.58.58,0,0,0-.82,0,2.87,2.87,0,0,0-1.18,1.57.32.32,0,0,0,.15.45.42.42,0,0,1,.23.51,2.65,2.65,0,0,0,.13.77c-.46.35-.34,1-.48,1.5.4,0,.64-.15.62-.49s0-.53.27-.69a.23.23,0,0,1,.18,0,7,7,0,0,1,1.75,1.23c-.51.42-.42,1-.55,1.57.48,0,.63-.16.62-.58a2,2,0,0,1,0-.23.35.35,0,0,1,.55-.3.82.82,0,0,0,.82.06.32.32,0,0,1,.26,0c.28.19.54.41.83.63A4.28,4.28,0,0,1,36.51,17l-.68-.52a.63.63,0,0,1,.71,0,4.44,4.44,0,0,1,.87.61.67.67,0,0,1,.14.55,3.57,3.57,0,0,1-.43,1.07,11.06,11.06,0,0,1-.9,1.05A1,1,0,0,0,36,20a9.15,9.15,0,0,1-1.73,3.36,4,4,0,0,1-1,.77,1.74,1.74,0,0,1-1.52.05.67.67,0,0,0-.24,0,1.7,1.7,0,0,1-.61,0,13.5,13.5,0,0,1-1.66-.8,11.58,11.58,0,0,1-2.78-2.2c-.76-.85-.77-.95-.19-2a12.64,12.64,0,0,1,2.16-2.72C28.7,16.16,29,15.88,29.3,15.58ZM29,18.11l-.71-.43a.43.43,0,0,0-.58.08c-.2.2-.41.41-.59.63a9.25,9.25,0,0,0-.67.86.48.48,0,0,0,.08.74,9.45,9.45,0,0,0,1.18.9c.42.27.64.22.94-.17s.67-1,1-1.47a.51.51,0,0,0-.12-.69Zm2.79,2.19-.6-.39-.09,0a.47.47,0,0,0-.66.1c-.19.19-.38.38-.56.59a9.42,9.42,0,0,0-.67.86.48.48,0,0,0,.08.75,9.05,9.05,0,0,0,1.14.88c.47.3.69.26,1-.19s.65-.95,1-1.43a.5.5,0,0,0-.1-.67C32.1,20.58,31.91,20.41,31.77,20.3Zm3-.55c-.39.67-.74,1.32-1.14,1.95s-.85,1.23-1.28,1.86a1.39,1.39,0,0,0,1.09-.39,7.21,7.21,0,0,0,1.78-3.1ZM36.89,18l.17-.66c-.66,0-1.85,1.61-1.68,2.15a1.82,1.82,0,0,0,1.27-1.6,2,2,0,0,0-.87,1.17c.11-.13.21-.25.31-.36s.08,0,.12,0,0,.1,0,.13a2.86,2.86,0,0,1-.36.39c-.07.05-.18,0-.27.07a.77.77,0,0,1,0-.26,2.66,2.66,0,0,1,.88-1.19C36.71,17.63,36.78,17.65,36.89,18Z"/><path class="cls-1" d="M36.06,16A2.76,2.76,0,0,0,34.69,17a11.55,11.55,0,0,1-.86,1c-.3.29-.47.28-.81.06a2.48,2.48,0,0,1-.32-.24,10.16,10.16,0,0,0-2.09-1.47c-.48-.26-.56-.47-.37-1a3.4,3.4,0,0,1,1.35-1.7,2.68,2.68,0,0,1,.57-.26.71.71,0,0,1,.73.13c1,.76,2,1.49,2.93,2.23Z"/><path class="cls-1" d="M27.59,18.42l.27.31-.32.42.41.31.29-.38.78.41c-.27.37-.51.73-.78,1.07a.25.25,0,0,1-.24,0c-.4-.28-.8-.56-1.18-.86a.3.3,0,0,1-.06-.28C27,19.11,27.3,18.78,27.59,18.42Z"/><path class="cls-1" d="M28.8,18.47l.41.36a.18.18,0,0,1,0,.3.29.29,0,0,1-.25,0,2.27,2.27,0,0,1-1.07-.81c0-.06,0-.21,0-.24a.31.31,0,0,1,.27,0C28.4,18.19,28.6,18.34,28.8,18.47Z"/><path class="cls-1" d="M30.35,20.58l.32.37-.18.27.39.3.2-.22.69.35c-.26.37-.5.72-.76,1.06a.27.27,0,0,1-.25.05c-.4-.28-.79-.57-1.18-.86a.22.22,0,0,1,0-.35Z"/><path class="cls-1" d="M31.08,21c-.14-.15-.29-.3-.41-.47s0-.2,0-.22.21-.1.27-.06c.35.23.69.48,1,.73a.22.22,0,0,1,.06.33c-.09.15-.2.09-.3,0Z"/></g></g></g></svg>