<svg xmlns="http://www.w3.org/2000/svg" viewBox="0 0 42.52 28.03"><defs><style>.cls-1{fill:#6a625e;}</style></defs><title>Asset 11</title><g id="Layer_2" data-name="Layer 2"><g id="graphic_elements" data-name="graphic elements"><g id="Layer_130" data-name="Layer 130"><path class="cls-1" d="M39.72,16l2.8-2.63-2-3.5-3.43,1L33.64,7.59,34.7,4.1l-3.5-2-2.63,2.8L24.15,3.7,23.29,0H19.23l-.87,3.7L13.94,4.88l-2.63-2.8-3.5,2,1,3.46L5.46,10.94,2,9.9l-2,3.5L2.79,16,1.62,20.44H4.93A16.62,16.62,0,0,1,21,6.78a16.21,16.21,0,0,1,10.48,3.55,16.16,16.16,0,0,1,6.07,10.11H40.9Z"/><path class="cls-1" d="M34.3,16.78c-1.06-.15-2.19-.34-2.88.79-.84-1.29-1.63-2.57-2.5-3.8a1.72,1.72,0,0,0-1-.66,47,47,0,0,0-6.62-.45h0a47,47,0,0,0-6.62.45,1.72,1.72,0,0,0-1,.66c-.87,1.23-1.66,2.51-2.5,3.8-.69-1.13-1.82-.94-2.88-.79a1.18,1.18,0,0,0-.74.76c-.12.45.34.59.71.68l2.05.47c-1.23,1.16-1.07,2.6-1.06,4s0,2.89,0,4.33c0,.86.15,1,1,1s1.71,0,2.56,0c.65,0,1.08-.14,1.06-.88H28.69c0,.73.41.9,1.06.88.85,0,1.71,0,2.56,0s1-.14,1-1c0-1.44,0-2.89,0-4.33s.18-2.83-1.06-4l2.05-.47c.37-.09.83-.22.71-.68A1.18,1.18,0,0,0,34.3,16.78ZM14,14.56a1.39,1.39,0,0,1,1.13-.78c1.09-.12,2.17-.25,3.26-.33s1.92-.11,2.87-.11,1.91,0,2.87.11,2.17.21,3.26.33a1.39,1.39,0,0,1,1.13.78c.63,1.14,1.3,2.25,2,3.48H12C12.69,16.82,13.36,15.7,14,14.56ZM12.67,25.64a.7.7,0,0,1-.53.3h0a.7.7,0,0,1-.24-1.36l.14,0h.21a.7.7,0,0,1,.47,1.09Zm2.6-2.9c-.55,0-1.21.11-1.55-.15A3.7,3.7,0,0,0,11.81,22c-1.13-.18-1.28-.31-1.36-1.57a9.25,9.25,0,0,1,5.1,1.5Zm11.06.92c-.13.49-.52.6-1,.6h-8.2c-.45,0-.85-.1-1-.6a1.61,1.61,0,0,1,1.47-1.86h7.2A1.61,1.61,0,0,1,26.33,23.66Zm4.1,2.28h0a.7.7,0,0,1-.06-1.39h.21l.14,0a.7.7,0,0,1-.24,1.36Zm.28-3.9a3.7,3.7,0,0,0-1.91.55c-.34.26-1,.11-1.55.15L27,22a9.25,9.25,0,0,1,5.1-1.5C32,21.73,31.84,21.86,30.71,22Z"/></g></g></g></svg>