<svg xmlns="http://www.w3.org/2000/svg" viewBox="0 0 22.22 36.14"><defs><style>.cls-1{fill:#6a625e;}</style></defs><title>Asset 83</title><g id="Layer_2" data-name="Layer 2"><g id="graphic_elements" data-name="graphic elements"><g id="Layer_134" data-name="Layer 134"><path class="cls-1" d="M18.32,21.19l.84,9.09c.16,1.77.33,3.53.49,5.3,0,.41.1.58.28.56a9.18,9.18,0,0,1,1,0V21.19Z"/><path class="cls-1" d="M6.85,21.19,6,30.28c-.16,1.77-.33,3.53-.49,5.3,0,.41-.1.58-.28.56a9.18,9.18,0,0,0-1,0V21.19Z"/><path class="cls-1" d="M3.85,21.61A39.56,39.56,0,0,0,2.35,10.5C1.56,7.28.85,4.05.1.83,0,.58,0,.33,0,0H4.18C5.4,5.29,6.65,10.53,7.82,15.79c.19.87.53,1.11,1.39,1.1,3.91,0,7.83,0,11.74,0h1.27V21l-1.28.2"/><path class="cls-1" d="M18.66,21.21H6.11"/></g></g></g></svg>