<svg xmlns="http://www.w3.org/2000/svg" viewBox="0 0 29.72 36.27"><defs><style>.cls-1{fill:#6a625e;}</style></defs><title>Asset 60</title><g id="Layer_2" data-name="Layer 2"><g id="graphic_elements" data-name="graphic elements"><g id="Layer_134" data-name="Layer 134"><path class="cls-1" d="M11,14.34A.75.75,0,0,1,12.48,14a.75.75,0,1,1-1.44.39Z"/><path class="cls-1" d="M11.91,10.19a.73.73,0,0,1,.52-.93.75.75,0,1,1-.52.93Z"/><path class="cls-1" d="M14.23,13.49a.76.76,0,0,1,.52-.93A.75.75,0,0,1,15.14,14,.72.72,0,0,1,14.23,13.49Z"/><path class="cls-1" d="M17.81,19.84a.75.75,0,1,0-.27,1.47.74.74,0,0,0,.86-.61A.74.74,0,0,0,17.81,19.84Zm2.58-3.39a.74.74,0,0,0-.87.61.74.74,0,1,0,1.46.26A.75.75,0,0,0,20.39,16.45Zm.66,4a.76.76,0,0,0-.87.61.74.74,0,1,0,.87-.61Zm0,0a.76.76,0,0,0-.87.61.74.74,0,1,0,.87-.61Zm-.66-4a.74.74,0,0,0-.87.61.74.74,0,1,0,1.46.26A.75.75,0,0,0,20.39,16.45Zm-2.58,3.39a.75.75,0,1,0-.27,1.47.74.74,0,0,0,.86-.61A.74.74,0,0,0,17.81,19.84ZM12.9,24.38a1.43,1.43,0,0,1-.75-.34s0,0-.08,0a1.89,1.89,0,0,1-.69,0,2,2,0,0,1-1.25-.69,1.91,1.91,0,0,1-.44-1.43.09.09,0,0,0,0-.09,1.41,1.41,0,0,1-.51-.65c0-.1-.06-.21-.1-.31a3.26,3.26,0,1,0,3.89,3.51Zm-5.5-.64a.65.65,0,1,1,.65.66A.65.65,0,0,1,7.41,23.74ZM8.54,26a.49.49,0,0,1,0-1,.5.5,0,0,1,.49.5A.49.49,0,0,1,8.54,26ZM9,22.77a.33.33,0,0,1,0-.66.32.32,0,0,1,.32.33A.33.33,0,0,1,9,22.77Zm.66,1.63a.33.33,0,1,1,.32-.32A.33.33,0,0,1,9.69,24.4Zm1.14,2a.49.49,0,1,1,0-1,.49.49,0,1,1,0,1Zm7-6.51a.75.75,0,1,0-.27,1.47.74.74,0,0,0,.86-.61A.74.74,0,0,0,17.81,19.84Zm2.58-3.39a.74.74,0,0,0-.87.61.74.74,0,1,0,1.46.26A.75.75,0,0,0,20.39,16.45Zm.66,4a.76.76,0,0,0-.87.61.74.74,0,1,0,.87-.61ZM12.9,24.38a1.43,1.43,0,0,1-.75-.34s0,0-.08,0a1.89,1.89,0,0,1-.69,0,2,2,0,0,1-1.25-.69,1.91,1.91,0,0,1-.44-1.43.09.09,0,0,0,0-.09,1.41,1.41,0,0,1-.51-.65c0-.1-.06-.21-.1-.31a3.26,3.26,0,1,0,3.89,3.51Zm-5.5-.64a.65.65,0,1,1,.65.66A.65.65,0,0,1,7.41,23.74ZM8.54,26a.49.49,0,0,1,0-1,.5.5,0,0,1,.49.5A.49.49,0,0,1,8.54,26ZM9,22.77a.33.33,0,0,1,0-.66.32.32,0,0,1,.32.33A.33.33,0,0,1,9,22.77Zm.66,1.63a.33.33,0,1,1,.32-.32A.33.33,0,0,1,9.69,24.4Zm1.14,2a.49.49,0,1,1,0-1,.49.49,0,1,1,0,1Zm10.22-5.92a.76.76,0,0,0-.87.61.74.74,0,1,0,.87-.61Zm-.66-4a.74.74,0,0,0-.87.61.74.74,0,1,0,1.46.26A.75.75,0,0,0,20.39,16.45Zm-2.58,3.39a.75.75,0,1,0-.27,1.47.74.74,0,0,0,.86-.61A.74.74,0,0,0,17.81,19.84ZM12.9,24.38a1.43,1.43,0,0,1-.75-.34s0,0-.08,0a1.89,1.89,0,0,1-.69,0,2,2,0,0,1-1.25-.69,1.91,1.91,0,0,1-.44-1.43.09.09,0,0,0,0-.09,1.41,1.41,0,0,1-.51-.65c0-.1-.06-.21-.1-.31a3.26,3.26,0,1,0,3.89,3.51Zm-5.5-.64a.65.65,0,1,1,.65.66A.65.65,0,0,1,7.41,23.74ZM8.54,26a.49.49,0,0,1,0-1,.5.5,0,0,1,.49.5A.49.49,0,0,1,8.54,26ZM9,22.77a.33.33,0,0,1,0-.66.32.32,0,0,1,.32.33A.33.33,0,0,1,9,22.77Zm.66,1.63a.33.33,0,1,1,.32-.32A.33.33,0,0,1,9.69,24.4Zm1.14,2a.49.49,0,1,1,0-1,.49.49,0,1,1,0,1Zm7-6.51a.75.75,0,1,0-.27,1.47.74.74,0,0,0,.86-.61A.74.74,0,0,0,17.81,19.84Zm2.58-3.39a.74.74,0,0,0-.87.61.74.74,0,1,0,1.46.26A.75.75,0,0,0,20.39,16.45Zm.66,4a.76.76,0,0,0-.87.61.74.74,0,1,0,.87-.61ZM12.9,24.38a1.43,1.43,0,0,1-.75-.34s0,0-.08,0a1.89,1.89,0,0,1-.69,0,2,2,0,0,1-1.25-.69,1.91,1.91,0,0,1-.44-1.43.09.09,0,0,0,0-.09,1.41,1.41,0,0,1-.51-.65c0-.1-.06-.21-.1-.31a3.26,3.26,0,1,0,3.89,3.51Zm-5.5-.64a.65.65,0,1,1,.65.66A.65.65,0,0,1,7.41,23.74ZM8.54,26a.49.49,0,0,1,0-1,.5.5,0,0,1,.49.5A.49.49,0,0,1,8.54,26ZM9,22.77a.33.33,0,0,1,0-.66.32.32,0,0,1,.32.33A.33.33,0,0,1,9,22.77Zm.66,1.63a.33.33,0,1,1,.32-.32A.33.33,0,0,1,9.69,24.4Zm1.14,2a.49.49,0,1,1,0-1,.49.49,0,1,1,0,1Zm10.22-5.92a.76.76,0,0,0-.87.61.74.74,0,1,0,.87-.61Zm-.66-4a.74.74,0,0,0-.87.61.74.74,0,1,0,1.46.26A.75.75,0,0,0,20.39,16.45Zm-2.58,3.39a.75.75,0,1,0-.27,1.47.74.74,0,0,0,.86-.61A.74.74,0,0,0,17.81,19.84ZM12.9,24.38a1.43,1.43,0,0,1-.75-.34s0,0-.08,0a1.89,1.89,0,0,1-.69,0,2,2,0,0,1-1.25-.69,1.91,1.91,0,0,1-.44-1.43.09.09,0,0,0,0-.09,1.41,1.41,0,0,1-.51-.65c0-.1-.06-.21-.1-.31a3.26,3.26,0,1,0,3.89,3.51Zm-5.5-.64a.65.65,0,1,1,.65.66A.65.65,0,0,1,7.41,23.74ZM8.54,26a.49.49,0,0,1,0-1,.5.5,0,0,1,.49.5A.49.49,0,0,1,8.54,26ZM9,22.77a.33.33,0,0,1,0-.66.32.32,0,0,1,.32.33A.33.33,0,0,1,9,22.77Zm.66,1.63a.33.33,0,1,1,.32-.32A.33.33,0,0,1,9.69,24.4Zm1.14,2a.49.49,0,1,1,0-1,.49.49,0,1,1,0,1Zm7-6.51a.75.75,0,1,0-.27,1.47.74.74,0,0,0,.86-.61A.74.74,0,0,0,17.81,19.84Zm2.58-3.39a.74.74,0,0,0-.87.61.74.74,0,1,0,1.46.26A.75.75,0,0,0,20.39,16.45Zm.66,4a.76.76,0,0,0-.87.61.74.74,0,1,0,.87-.61ZM12.9,24.38a1.43,1.43,0,0,1-.75-.34s0,0-.08,0a1.89,1.89,0,0,1-.69,0,2,2,0,0,1-1.25-.69,1.91,1.91,0,0,1-.44-1.43.09.09,0,0,0,0-.09,1.41,1.41,0,0,1-.51-.65c0-.1-.06-.21-.1-.31a3.26,3.26,0,1,0,3.89,3.51Zm-5.5-.64a.65.65,0,1,1,.65.66A.65.65,0,0,1,7.41,23.74ZM8.54,26a.49.49,0,0,1,0-1,.5.5,0,0,1,.49.5A.49.49,0,0,1,8.54,26ZM9,22.77a.33.33,0,0,1,0-.66.32.32,0,0,1,.32.33A.33.33,0,0,1,9,22.77Zm.66,1.63a.33.33,0,1,1,.32-.32A.33.33,0,0,1,9.69,24.4Zm1.14,2a.49.49,0,1,1,0-1,.49.49,0,1,1,0,1Zm10.22-5.92a.76.76,0,0,0-.87.61.74.74,0,1,0,.87-.61Zm-.66-4a.74.74,0,0,0-.87.61.74.74,0,1,0,1.46.26A.75.75,0,0,0,20.39,16.45Zm-2.58,3.39a.75.75,0,1,0-.27,1.47.74.74,0,0,0,.86-.61A.74.74,0,0,0,17.81,19.84ZM12.9,24.38a1.43,1.43,0,0,1-.75-.34s0,0-.08,0a1.89,1.89,0,0,1-.69,0,2,2,0,0,1-1.25-.69,1.91,1.91,0,0,1-.44-1.43.09.09,0,0,0,0-.09,1.41,1.41,0,0,1-.51-.65c0-.1-.06-.21-.1-.31a3.26,3.26,0,1,0,3.89,3.51Zm-5.5-.64a.65.65,0,1,1,.65.66A.65.65,0,0,1,7.41,23.74ZM8.54,26a.49.49,0,0,1,0-1,.5.5,0,0,1,.49.5A.49.49,0,0,1,8.54,26ZM9,22.77a.33.33,0,0,1,0-.66.32.32,0,0,1,.32.33A.33.33,0,0,1,9,22.77Zm.66,1.63a.33.33,0,1,1,.32-.32A.33.33,0,0,1,9.69,24.4Zm1.14,2a.49.49,0,1,1,0-1,.49.49,0,1,1,0,1Zm7-6.51a.75.75,0,1,0-.27,1.47.74.74,0,0,0,.86-.61A.74.74,0,0,0,17.81,19.84Zm2.58-3.39a.74.74,0,0,0-.87.61.74.74,0,1,0,1.46.26A.75.75,0,0,0,20.39,16.45Zm.66,4a.76.76,0,0,0-.87.61.74.74,0,1,0,.87-.61ZM12.9,24.38a1.43,1.43,0,0,1-.75-.34s0,0-.08,0a1.89,1.89,0,0,1-.69,0,2,2,0,0,1-1.25-.69,1.91,1.91,0,0,1-.44-1.43.09.09,0,0,0,0-.09,1.41,1.41,0,0,1-.51-.65c0-.1-.06-.21-.1-.31a3.26,3.26,0,1,0,3.89,3.51Zm-5.5-.64a.65.65,0,1,1,.65.66A.65.65,0,0,1,7.41,23.74ZM8.54,26a.49.49,0,0,1,0-1,.5.5,0,0,1,.49.5A.49.49,0,0,1,8.54,26ZM9,22.77a.33.33,0,0,1,0-.66.32.32,0,0,1,.32.33A.33.33,0,0,1,9,22.77Zm.66,1.63a.33.33,0,1,1,.32-.32A.33.33,0,0,1,9.69,24.4Zm1.14,2a.49.49,0,1,1,0-1,.49.49,0,1,1,0,1Zm10.22-5.92a.76.76,0,0,0-.87.61.74.74,0,1,0,.87-.61ZM21,17.32a.75.75,0,0,0-.59-.87.74.74,0,0,0-.87.61.74.74,0,1,0,1.46.26Zm-3.18,2.52a.75.75,0,1,0-.27,1.47.74.74,0,0,0,.86-.61A.74.74,0,0,0,17.81,19.84Zm-15.62,8C1.62,29.28,1,30.66.33,32.13H29.42c-.66-1.5-1.31-2.92-1.91-4.35a4,4,0,0,1-.32-1.41q0-9.1,0-18.18a3.58,3.58,0,0,1,.42-1.56c.49-1,1.08-1.94,1.65-3H.48c.49.87.9,1.67,1.38,2.41a4.61,4.61,0,0,1,.73,2.68c0,5.81,0,11.63,0,17.44A4.62,4.62,0,0,1,2.19,27.88ZM21.51,13.77l3.18,9.79a.53.53,0,0,1-.61.68L14,22.08a.51.51,0,0,1-.28-.85l6.91-7.66A.51.51,0,0,1,21.51,13.77Zm-13,2.68,2.93-9.89a.51.51,0,0,1,.86-.2l7.1,7.47a.53.53,0,0,1-.26.87l-10,2.4A.51.51,0,0,1,8.49,16.44Zm5.11,6a.32.32,0,1,1-.32-.33A.33.33,0,0,1,13.6,22.44Zm-2-1.8a.49.49,0,1,1,.49.49A.49.49,0,0,1,11.65,20.65ZM12,22.12a.34.34,0,0,1-.31.32.33.33,0,0,1-.33-.33.33.33,0,0,1,.31-.32A.33.33,0,0,1,12,22.12Zm-5.76.17a3.88,3.88,0,0,1,3.63-2.12.83.83,0,0,0,.67,1.31,1.31,1.31,0,0,0,1.84,1.74.83.83,0,0,0,.51.49.79.79,0,0,0,.7-.09,3.87,3.87,0,0,1-1.84,3.8,3.91,3.91,0,0,1-5.51-5.13Zm14-1.24a.74.74,0,1,0,.87-.61A.76.76,0,0,0,20.18,21Zm-.06-3.12a.75.75,0,0,0,.28-1.47.74.74,0,0,0-.87.61A.75.75,0,0,0,20.12,17.93Zm-2.57,3.39a.74.74,0,0,0,.86-.61.74.74,0,0,0-.59-.86.75.75,0,1,0-.27,1.47Zm-7.84,6a3.27,3.27,0,0,0,3.23-2.94h0a1.43,1.43,0,0,1-.75-.34s0,0-.08,0a1.89,1.89,0,0,1-.69,0,2,2,0,0,1-1.25-.69,1.91,1.91,0,0,1-.44-1.43.09.09,0,0,0,0-.09,1.41,1.41,0,0,1-.51-.65c0-.1-.06-.21-.1-.31a3.26,3.26,0,0,0,.66,6.45Zm1.13-2a.49.49,0,1,1,0,1,.49.49,0,1,1,0-1ZM8.54,26a.49.49,0,0,1,0-1,.5.5,0,0,1,.49.5A.49.49,0,0,1,8.54,26Zm1.14-2.29a.33.33,0,1,1-.32.32A.33.33,0,0,1,9.68,23.74ZM9,22.11a.32.32,0,0,1,.32.33A.32.32,0,1,1,9,22.11Zm-1,1a.65.65,0,1,1-.66.65A.65.65,0,0,1,8.06,23.09Zm9.75-3.25a.75.75,0,1,0-.27,1.47.74.74,0,0,0,.86-.61A.74.74,0,0,0,17.81,19.84Zm2.58-3.39a.74.74,0,0,0-.87.61.74.74,0,1,0,1.46.26A.75.75,0,0,0,20.39,16.45Zm.66,4a.76.76,0,0,0-.87.61.74.74,0,1,0,.87-.61ZM12.9,24.38a1.43,1.43,0,0,1-.75-.34s0,0-.08,0a1.89,1.89,0,0,1-.69,0,2,2,0,0,1-1.25-.69,1.91,1.91,0,0,1-.44-1.43.09.09,0,0,0,0-.09,1.41,1.41,0,0,1-.51-.65c0-.1-.06-.21-.1-.31a3.26,3.26,0,1,0,3.89,3.51Zm-5.5-.64a.65.65,0,1,1,.65.66A.65.65,0,0,1,7.41,23.74ZM8.54,26a.49.49,0,0,1,0-1,.5.5,0,0,1,.49.5A.49.49,0,0,1,8.54,26ZM9,22.77a.33.33,0,0,1,0-.66.32.32,0,0,1,.32.33A.33.33,0,0,1,9,22.77Zm.66,1.63a.33.33,0,1,1,.32-.32A.33.33,0,0,1,9.69,24.4Zm1.14,2a.49.49,0,1,1,0-1,.49.49,0,1,1,0,1Zm10.22-5.92a.76.76,0,0,0-.87.61.74.74,0,1,0,.87-.61Zm-.66-4a.74.74,0,0,0-.87.61.74.74,0,1,0,1.46.26A.75.75,0,0,0,20.39,16.45Zm-2.58,3.39a.75.75,0,1,0-.27,1.47.74.74,0,0,0,.86-.61A.74.74,0,0,0,17.81,19.84ZM12.9,24.38a1.43,1.43,0,0,1-.75-.34s0,0-.08,0a1.89,1.89,0,0,1-.69,0,2,2,0,0,1-1.25-.69,1.91,1.91,0,0,1-.44-1.43.09.09,0,0,0,0-.09,1.41,1.41,0,0,1-.51-.65c0-.1-.06-.21-.1-.31a3.26,3.26,0,1,0,3.89,3.51Zm-5.5-.64a.65.65,0,1,1,.65.66A.65.65,0,0,1,7.41,23.74ZM8.54,26a.49.49,0,0,1,0-1,.5.5,0,0,1,.49.5A.49.49,0,0,1,8.54,26ZM9,22.77a.33.33,0,0,1,0-.66.32.32,0,0,1,.32.33A.33.33,0,0,1,9,22.77Zm.66,1.63a.33.33,0,1,1,.32-.32A.33.33,0,0,1,9.69,24.4Zm1.14,2a.49.49,0,1,1,0-1,.49.49,0,1,1,0,1Zm7-6.51a.75.75,0,1,0-.27,1.47.74.74,0,0,0,.86-.61A.74.74,0,0,0,17.81,19.84Zm2.58-3.39a.74.74,0,0,0-.87.61.74.74,0,1,0,1.46.26A.75.75,0,0,0,20.39,16.45Zm.66,4a.76.76,0,0,0-.87.61.74.74,0,1,0,.87-.61ZM12.9,24.38a1.43,1.43,0,0,1-.75-.34s0,0-.08,0a1.89,1.89,0,0,1-.69,0,2,2,0,0,1-1.25-.69,1.91,1.91,0,0,1-.44-1.43.09.09,0,0,0,0-.09,1.41,1.41,0,0,1-.51-.65c0-.1-.06-.21-.1-.31a3.26,3.26,0,1,0,3.89,3.51Zm-5.5-.64a.65.65,0,1,1,.65.66A.65.65,0,0,1,7.41,23.74ZM8.54,26a.49.49,0,0,1,0-1,.5.5,0,0,1,.49.5A.49.49,0,0,1,8.54,26ZM9,22.77a.33.33,0,0,1,0-.66.32.32,0,0,1,.32.33A.33.33,0,0,1,9,22.77Zm.66,1.63a.33.33,0,1,1,.32-.32A.33.33,0,0,1,9.69,24.4Zm1.14,2a.49.49,0,1,1,0-1,.49.49,0,1,1,0,1Zm10.22-5.92a.76.76,0,0,0-.87.61.74.74,0,1,0,.87-.61Zm-.66-4a.74.74,0,0,0-.87.61.74.74,0,1,0,1.46.26A.75.75,0,0,0,20.39,16.45Zm-2.58,3.39a.75.75,0,1,0-.27,1.47.74.74,0,0,0,.86-.61A.74.74,0,0,0,17.81,19.84ZM12.9,24.38a1.43,1.43,0,0,1-.75-.34s0,0-.08,0a1.89,1.89,0,0,1-.69,0,2,2,0,0,1-1.25-.69,1.91,1.91,0,0,1-.44-1.43.09.09,0,0,0,0-.09,1.41,1.41,0,0,1-.51-.65c0-.1-.06-.21-.1-.31a3.26,3.26,0,1,0,3.89,3.51Zm-5.5-.64a.65.65,0,1,1,.65.66A.65.65,0,0,1,7.41,23.74ZM8.54,26a.49.49,0,0,1,0-1,.5.5,0,0,1,.49.5A.49.49,0,0,1,8.54,26ZM9,22.77a.33.33,0,0,1,0-.66.32.32,0,0,1,.32.33A.33.33,0,0,1,9,22.77Zm.66,1.63a.33.33,0,1,1,.32-.32A.33.33,0,0,1,9.69,24.4Zm1.14,2a.49.49,0,1,1,0-1,.49.49,0,1,1,0,1Zm7-6.51a.75.75,0,1,0-.27,1.47.74.74,0,0,0,.86-.61A.74.74,0,0,0,17.81,19.84Zm2.58-3.39a.74.74,0,0,0-.87.61.74.74,0,1,0,1.46.26A.75.75,0,0,0,20.39,16.45Zm.66,4a.76.76,0,0,0-.87.61.74.74,0,1,0,.87-.61ZM12.9,24.38a1.43,1.43,0,0,1-.75-.34s0,0-.08,0a1.89,1.89,0,0,1-.69,0,2,2,0,0,1-1.25-.69,1.91,1.91,0,0,1-.44-1.43.09.09,0,0,0,0-.09,1.41,1.41,0,0,1-.51-.65c0-.1-.06-.21-.1-.31a3.26,3.26,0,1,0,3.89,3.51Zm-5.5-.64a.65.65,0,1,1,.65.66A.65.65,0,0,1,7.41,23.74ZM8.54,26a.49.49,0,0,1,0-1,.5.5,0,0,1,.49.5A.49.49,0,0,1,8.54,26ZM9,22.77a.33.33,0,0,1,0-.66.32.32,0,0,1,.32.33A.33.33,0,0,1,9,22.77Zm.66,1.63a.33.33,0,1,1,.32-.32A.33.33,0,0,1,9.69,24.4Zm1.14,2a.49.49,0,1,1,0-1,.49.49,0,1,1,0,1Zm10.22-5.92a.76.76,0,0,0-.87.61.74.74,0,1,0,.87-.61Zm-.66-4a.74.74,0,0,0-.87.61.74.74,0,1,0,1.46.26A.75.75,0,0,0,20.39,16.45Zm-2.58,3.39a.75.75,0,1,0-.27,1.47.74.74,0,0,0,.86-.61A.74.74,0,0,0,17.81,19.84ZM12.9,24.38a1.43,1.43,0,0,1-.75-.34s0,0-.08,0a1.89,1.89,0,0,1-.69,0,2,2,0,0,1-1.25-.69,1.91,1.91,0,0,1-.44-1.43.09.09,0,0,0,0-.09,1.41,1.41,0,0,1-.51-.65c0-.1-.06-.21-.1-.31a3.26,3.26,0,1,0,3.89,3.51Zm-5.5-.64a.65.65,0,1,1,.65.66A.65.65,0,0,1,7.41,23.74ZM8.54,26a.49.49,0,0,1,0-1,.5.5,0,0,1,.49.5A.49.49,0,0,1,8.54,26ZM9,22.77a.33.33,0,0,1,0-.66.32.32,0,0,1,.32.33A.33.33,0,0,1,9,22.77Zm.66,1.63a.33.33,0,1,1,.32-.32A.33.33,0,0,1,9.69,24.4Zm1.14,2a.49.49,0,1,1,0-1,.49.49,0,1,1,0,1Zm7-6.51a.75.75,0,1,0-.27,1.47.74.74,0,0,0,.86-.61A.74.74,0,0,0,17.81,19.84Zm2.58-3.39a.74.74,0,0,0-.87.61.74.74,0,1,0,1.46.26A.75.75,0,0,0,20.39,16.45Zm.66,4a.76.76,0,0,0-.87.61.74.74,0,1,0,.87-.61ZM12.9,24.38a1.43,1.43,0,0,1-.75-.34s0,0-.08,0a1.89,1.89,0,0,1-.69,0,2,2,0,0,1-1.25-.69,1.91,1.91,0,0,1-.44-1.43.09.09,0,0,0,0-.09,1.41,1.41,0,0,1-.51-.65c0-.1-.06-.21-.1-.31a3.26,3.26,0,1,0,3.89,3.51Zm-5.5-.64a.65.65,0,1,1,.65.66A.65.65,0,0,1,7.41,23.74ZM8.54,26a.49.49,0,0,1,0-1,.5.5,0,0,1,.49.5A.49.49,0,0,1,8.54,26ZM9,22.77a.33.33,0,0,1,0-.66.32.32,0,0,1,.32.33A.33.33,0,0,1,9,22.77Zm.66,1.63a.33.33,0,1,1,.32-.32A.33.33,0,0,1,9.69,24.4Zm1.14,2a.49.49,0,1,1,0-1,.49.49,0,1,1,0,1Zm10.22-5.92a.76.76,0,0,0-.87.61.74.74,0,1,0,.87-.61Zm-.66-4a.74.74,0,0,0-.87.61.74.74,0,1,0,1.46.26A.75.75,0,0,0,20.39,16.45Zm-2.58,3.39a.75.75,0,1,0-.27,1.47.74.74,0,0,0,.86-.61A.74.74,0,0,0,17.81,19.84ZM12.9,24.38a1.43,1.43,0,0,1-.75-.34s0,0-.08,0a1.89,1.89,0,0,1-.69,0,2,2,0,0,1-1.25-.69,1.91,1.91,0,0,1-.44-1.43.09.09,0,0,0,0-.09,1.41,1.41,0,0,1-.51-.65c0-.1-.06-.21-.1-.31a3.26,3.26,0,1,0,3.89,3.51Zm-5.5-.64a.65.65,0,1,1,.65.66A.65.65,0,0,1,7.41,23.74ZM8.54,26a.49.49,0,0,1,0-1,.5.5,0,0,1,.49.5A.49.49,0,0,1,8.54,26ZM9,22.77a.33.33,0,0,1,0-.66.32.32,0,0,1,.32.33A.33.33,0,0,1,9,22.77Zm.66,1.63a.33.33,0,1,1,.32-.32A.33.33,0,0,1,9.69,24.4Zm1.14,2a.49.49,0,1,1,0-1,.49.49,0,1,1,0,1Z"/><path class="cls-1" d="M29.72,0V2.48H0V0Z"/><path class="cls-1" d="M0,36.27V33.79H29.69v2.48Z"/></g></g></g></svg>