<svg xmlns="http://www.w3.org/2000/svg" viewBox="0 0 29.9 36.5"><defs><style>.cls-1{fill:#6a625e;}</style></defs><title>Asset 59</title><g id="Layer_2" data-name="Layer 2"><g id="graphic_elements" data-name="graphic elements"><g id="Layer_134" data-name="Layer 134"><path class="cls-1" d="M29.9,0V2.5H0V0Z"/><path class="cls-1" d="M0,36.5V34H29.87v2.5Z"/><path class="cls-1" d="M14,24.31a.33.33,0,0,0-.41,0l-.34.33A5.1,5.1,0,0,1,11.06,26l-.76.2a.33.33,0,0,0-.2.37.36.36,0,0,0,.36.29h.07A5.88,5.88,0,0,0,13.87,25a1.27,1.27,0,0,0,.23-.32A.33.33,0,0,0,14,24.31ZM14.8,22a.26.26,0,0,0-.26.16,1.14,1.14,0,0,0-.11.24l-.27.88a1.25,1.25,0,0,0-.07.25.3.3,0,0,0,.16.32.28.28,0,0,0,.34,0,.81.81,0,0,0,.21-.23,4.92,4.92,0,0,0,.36-1.21A.36.36,0,0,0,14.8,22Zm8.8-11.26-.15,0a1.43,1.43,0,0,0-.85.31.49.49,0,0,1-.13.11.35.35,0,0,1-.44-.55,2,2,0,0,1,.76-.48c.16-.06.17-.07.08-.2a1.09,1.09,0,0,0-2,.68,2.23,2.23,0,0,1-.69,1.63c-1,.94-1.91,1.93-2.86,2.88,0,0-.08.07-.09.12-.07.22-.13.45-.2.71l.2-.06.53-.17c.11,0,.15,0,.15.11s0,.51,0,.77.06.18.17.12a2,2,0,0,0,.39-.28c.34-.3.66-.61,1-.93.74-.72,1.46-1.43,2.21-2.14a1.42,1.42,0,0,1,.71-.4,7,7,0,0,1,.88-.11,1.08,1.08,0,0,0,.32-2.1Zm0,0-.15,0a1.43,1.43,0,0,0-.85.31.49.49,0,0,1-.13.11.35.35,0,0,1-.44-.55,2,2,0,0,1,.76-.48c.16-.06.17-.07.08-.2a1.09,1.09,0,0,0-2,.68,2.23,2.23,0,0,1-.69,1.63c-1,.94-1.91,1.93-2.86,2.88,0,0-.08.07-.09.12-.07.22-.13.45-.2.71l.2-.06.53-.17c.11,0,.15,0,.15.11s0,.51,0,.77.06.18.17.12a2,2,0,0,0,.39-.28c.34-.3.66-.61,1-.93.74-.72,1.46-1.43,2.21-2.14a1.42,1.42,0,0,1,.71-.4,7,7,0,0,1,.88-.11,1.08,1.08,0,0,0,.32-2.1ZM14.8,22a.26.26,0,0,0-.26.16,1.14,1.14,0,0,0-.11.24l-.27.88a1.25,1.25,0,0,0-.07.25.3.3,0,0,0,.16.32.28.28,0,0,0,.34,0,.81.81,0,0,0,.21-.23,4.92,4.92,0,0,0,.36-1.21A.36.36,0,0,0,14.8,22Zm-1.23,2.3-.34.33A5.1,5.1,0,0,1,11.06,26l-.76.2a.33.33,0,0,0-.2.37.36.36,0,0,0,.36.29h.07A5.88,5.88,0,0,0,13.87,25a1.27,1.27,0,0,0,.23-.32.33.33,0,0,0-.12-.38A.33.33,0,0,0,13.57,24.31Zm10-13.56-.15,0a1.43,1.43,0,0,0-.85.31.49.49,0,0,1-.13.11.35.35,0,0,1-.44-.55,2,2,0,0,1,.76-.48c.16-.06.17-.07.08-.2a1.09,1.09,0,0,0-2,.68,2.23,2.23,0,0,1-.69,1.63c-1,.94-1.91,1.93-2.86,2.88,0,0-.08.07-.09.12-.07.22-.13.45-.2.71l.2-.06.53-.17c.11,0,.15,0,.15.11s0,.51,0,.77.06.18.17.12a2,2,0,0,0,.39-.28c.34-.3.66-.61,1-.93.74-.72,1.46-1.43,2.21-2.14a1.42,1.42,0,0,1,.71-.4,7,7,0,0,1,.88-.11,1.08,1.08,0,0,0,.32-2.1ZM14.8,22a.26.26,0,0,0-.26.16,1.14,1.14,0,0,0-.11.24l-.27.88a1.25,1.25,0,0,0-.07.25.3.3,0,0,0,.16.32.28.28,0,0,0,.34,0,.81.81,0,0,0,.21-.23,4.92,4.92,0,0,0,.36-1.21A.36.36,0,0,0,14.8,22Zm-1.23,2.3-.34.33A5.1,5.1,0,0,1,11.06,26l-.76.2a.33.33,0,0,0-.2.37.36.36,0,0,0,.36.29h.07A5.88,5.88,0,0,0,13.87,25a1.27,1.27,0,0,0,.23-.32.33.33,0,0,0-.12-.38A.33.33,0,0,0,13.57,24.31Zm.41,0a.33.33,0,0,0-.41,0l-.34.33A5.1,5.1,0,0,1,11.06,26l-.76.2a.33.33,0,0,0-.2.37.36.36,0,0,0,.36.29h.07A5.88,5.88,0,0,0,13.87,25a1.27,1.27,0,0,0,.23-.32A.33.33,0,0,0,14,24.31ZM14.8,22a.26.26,0,0,0-.26.16,1.14,1.14,0,0,0-.11.24l-.27.88a1.25,1.25,0,0,0-.07.25.3.3,0,0,0,.16.32.28.28,0,0,0,.34,0,.81.81,0,0,0,.21-.23,4.92,4.92,0,0,0,.36-1.21A.36.36,0,0,0,14.8,22Zm8.8-11.26-.15,0a1.43,1.43,0,0,0-.85.31.49.49,0,0,1-.13.11.35.35,0,0,1-.44-.55,2,2,0,0,1,.76-.48c.16-.06.17-.07.08-.2a1.09,1.09,0,0,0-2,.68,2.23,2.23,0,0,1-.69,1.63c-1,.94-1.91,1.93-2.86,2.88,0,0-.08.07-.09.12-.07.22-.13.45-.2.71l.2-.06.53-.17c.11,0,.15,0,.15.11s0,.51,0,.77.06.18.17.12a2,2,0,0,0,.39-.28c.34-.3.66-.61,1-.93.74-.72,1.46-1.43,2.21-2.14a1.42,1.42,0,0,1,.71-.4,7,7,0,0,1,.88-.11,1.08,1.08,0,0,0,.32-2.1Zm0,0-.15,0a1.43,1.43,0,0,0-.85.31.49.49,0,0,1-.13.11.35.35,0,0,1-.44-.55,2,2,0,0,1,.76-.48c.16-.06.17-.07.08-.2a1.09,1.09,0,0,0-2,.68,2.23,2.23,0,0,1-.69,1.63c-1,.94-1.91,1.93-2.86,2.88,0,0-.08.07-.09.12-.07.22-.13.45-.2.71l.2-.06.53-.17c.11,0,.15,0,.15.11s0,.51,0,.77.06.18.17.12a2,2,0,0,0,.39-.28c.34-.3.66-.61,1-.93.74-.72,1.46-1.43,2.21-2.14a1.42,1.42,0,0,1,.71-.4,7,7,0,0,1,.88-.11,1.08,1.08,0,0,0,.32-2.1ZM14.8,22a.26.26,0,0,0-.26.16,1.14,1.14,0,0,0-.11.24l-.27.88a1.25,1.25,0,0,0-.07.25.3.3,0,0,0,.16.32.28.28,0,0,0,.34,0,.81.81,0,0,0,.21-.23,4.92,4.92,0,0,0,.36-1.21A.36.36,0,0,0,14.8,22ZM14,24.31a.33.33,0,0,0-.41,0l-.34.33A5.1,5.1,0,0,1,11.06,26l-.76.2a.33.33,0,0,0-.2.37.36.36,0,0,0,.36.29h.07A5.88,5.88,0,0,0,13.87,25a1.27,1.27,0,0,0,.23-.32A.33.33,0,0,0,14,24.31Z"/><path class="cls-1" d="M2.19,28.31C1.61,29.73,1,31.12.31,32.59H29.58c-.66-1.51-1.31-2.93-1.92-4.38a4,4,0,0,1-.32-1.42q0-9.15,0-18.3a3.6,3.6,0,0,1,.42-1.56c.49-1,1.09-2,1.67-3H.46c.5.88.9,1.68,1.39,2.42a4.72,4.72,0,0,1,.75,2.7c0,5.85,0,11.7,0,17.55A4.86,4.86,0,0,1,2.19,28.31ZM9.84,17.09A15.9,15.9,0,0,0,12,16.63a8.54,8.54,0,0,0,3.31-1.9l.34-.3a2.1,2.1,0,0,1,1.43-.56,1,1,0,0,0,.83-.38c.52-.56,1.06-1.1,1.62-1.63a1.83,1.83,0,0,0,.62-1.42,1.69,1.69,0,0,1,.7-1.39,1.81,1.81,0,0,1,2.71.64,1,1,0,0,0,.47.46,1.8,1.8,0,0,1,.27,3.06,2.06,2.06,0,0,1-1.08.34,3,3,0,0,0-.4,0,1.16,1.16,0,0,0-.75.36l-3.2,3.17a.25.25,0,0,0-.07.07.06.06,0,0,1,0,0h1a1.7,1.7,0,0,1-.08.15,11.37,11.37,0,0,1-1.13,1.38,9.93,9.93,0,0,0-2.32,4.69,5.54,5.54,0,0,1-1.32,2.75A5.37,5.37,0,0,1,11.1,28a5.38,5.38,0,0,1-4.94-2.49,5.33,5.33,0,0,1-.88-3.47A5.47,5.47,0,0,1,9.84,17.09Z"/></g></g></g></svg>