<svg xmlns="http://www.w3.org/2000/svg" viewBox="0 0 36.53 36.16"><defs><style>.cls-1{fill:#6a625e;}</style></defs><title>Asset 17</title><g id="Layer_2" data-name="Layer 2"><g id="graphic_elements" data-name="graphic elements"><g id="Layer_125" data-name="Layer 125"><path class="cls-1" d="M6.67,6.46V29.78H30V6.46ZM24.21,24H12.46V12.24H24.21Z"/><path class="cls-1" d="M11.73,5H9.28V0h2.45Z"/><path class="cls-1" d="M27.37,5H25V0h2.41Z"/><path class="cls-1" d="M14.5,0h2.43V5H14.5Z"/><path class="cls-1" d="M19.74,0h2.39V5H19.74Z"/><path class="cls-1" d="M11.73,36.14H9.28v-5h2.45Z"/><path class="cls-1" d="M27.37,36.16H25v-5h2.41Z"/><path class="cls-1" d="M14.5,31.14h2.43v5H14.5Z"/><path class="cls-1" d="M19.74,31.15h2.39v5H19.74Z"/><path class="cls-1" d="M5,24.71v2.45H0V24.71Z"/><path class="cls-1" d="M5,9.08v2.41H0V9.08Z"/><path class="cls-1" d="M0,21.94V19.52H5v2.43Z"/><path class="cls-1" d="M0,16.71V14.32H5v2.39Z"/><path class="cls-1" d="M36.51,24.71v2.45h-5V24.71Z"/><path class="cls-1" d="M36.53,9.08v2.41h-5V9.08Z"/><path class="cls-1" d="M31.51,21.94V19.52h5v2.43Z"/><path class="cls-1" d="M31.52,16.71V14.32h5v2.39Z"/></g></g></g></svg>