<svg xmlns="http://www.w3.org/2000/svg" viewBox="0 0 29.81 36.35"><defs><style>.cls-1{fill:#6a625e;}.cls-2{fill:#fff;}</style></defs><title>Asset 84</title><g id="Layer_2" data-name="Layer 2"><g id="graphic_elements" data-name="graphic elements"><g id="Layer_134" data-name="Layer 134"><path class="cls-1" d="M1.79,2.83V25.08H14.31V2.83ZM13.17,17.11H12.09V12h1.08Z"/><path class="cls-1" d="M15.54,2.83V25.05H28.09V2.83Zm2.22,12.79v1.49H16.67V15q0-.59,0-1.17V12h1.08V13.4c0,.18,0,.36,0,.53s0,.31,0,.47,0,.43,0,.65v0C17.76,15.26,17.76,15.44,17.76,15.62Z"/><path class="cls-1" d="M4,36.34V34.11H5.87C5.55,35.61,4.95,36.4,4,36.34Z"/><path class="cls-1" d="M23.94,34.09h1.83v2.22C24.89,36.43,24.48,35.92,23.94,34.09Z"/><path class="cls-1" d="M13.88,30.15v3.29H1.79V30.15ZM7.31,31.51v.57h1v-.57Z"/><path class="cls-2" d="M6.81,31.38h2v.82h-2Z"/><path class="cls-1" d="M28.09,30.15v3.29H16V30.15Zm-6.57,1.36v.57h1v-.57Z"/><path class="cls-2" d="M21,31.38h2v.82H21Z"/><path class="cls-1" d="M13.88,26.2v3.29H1.79V26.2ZM7.31,27.55v.57h1v-.57Z"/><path class="cls-2" d="M6.81,27.43h2v.82h-2Z"/><path class="cls-1" d="M28.09,26.2v3.29H16V26.2Zm-6.57,1.36v.57h1v-.57Z"/><path class="cls-2" d="M21,27.43h2v.82H21Z"/><polygon class="cls-1" points="29.81 0 28.83 1.7 0.97 1.7 0 0.01 0 0 29.81 0"/></g></g></g></svg>