<svg xmlns="http://www.w3.org/2000/svg" viewBox="0 0 27.69 36.88"><defs><style>.cls-1{fill:#6a625e;}.cls-2{fill:#606060;}</style></defs><title>Asset 8</title><g id="Layer_2" data-name="Layer 2"><g id="graphic_elements" data-name="graphic elements"><g id="Layer_134" data-name="Layer 134"><path class="cls-1" d="M27.67,23.8c0-1,0-2-.08-3s-.15-2-.29-2.94c-.19-1.31-.32-2.63-.39-3.94s-.09-2.91-.12-4.37c0-1.11,0-2.21-.05-3.32a3,3,0,0,0-.47-1.4,3.1,3.1,0,0,0-1.4-1.15,15.21,15.21,0,0,0-2.17-.81.31.31,0,0,0-.21,0,1.69,1.69,0,0,0,.26.4c.48.72.93,1.47,1.36,2.22A.83.83,0,0,1,24,6.64a.88.88,0,0,1-.74.25c-.55,0-1.09-.1-1.64-.14a7.85,7.85,0,0,0-1.38,0,.57.57,0,0,0-.55.75,3.37,3.37,0,0,0,.24.75l.69,1.65a.88.88,0,0,1-.32,1,6.91,6.91,0,0,1-1,.62c-.59.31-1.19.58-1.78.89a21.65,21.65,0,0,0-2.65,1.65c-.75.54-1.47,1.11-2.18,1.69a.4.4,0,0,0-.14.28c-.13,1.05-.22,2.11-.3,3.16-.11,1.4-.22,2.8-.3,4.2s-.13,2.55-.15,3.83c0,2.34,0,4.68.14,7,.05.76.13,1.51.19,2.27,0,.13.06.17.19.19.58.06,1.17.12,1.76.15a20,20,0,0,0,5.39-.41,10.3,10.3,0,0,0,2.3-.83.23.23,0,0,0,.14-.2c0-.43.1-.86.13-1.29s.06-1,.1-1.53A13.82,13.82,0,0,0,22,29.51a17.52,17.52,0,0,1-.26-2.59c0-1.08,0-2.15,0-3.23,0-2.54,0-5.08,0-7.62a11.86,11.86,0,0,0-.11-2,.84.84,0,0,1,0-.36,1.77,1.77,0,0,1,1.12-1.15.35.35,0,0,1,.47.19.37.37,0,0,1-.21.49,1.9,1.9,0,0,0-.38.23.63.63,0,0,0-.29.61,15.24,15.24,0,0,1,.11,2.22c0,2.4,0,4.81,0,7.21,0,.35,0,.7,0,1.05a29.84,29.84,0,0,0,0,3.26c.09.84.21,1.69.32,2.53a.19.19,0,0,0,.18.18,12.12,12.12,0,0,0,1.35.17,8.33,8.33,0,0,0,3.09-.25.17.17,0,0,0,.15-.18c0-.46.05-.92.06-1.38C27.66,27.15,27.71,25.47,27.67,23.8Z"/><path class="cls-1" d="M12.19,14a9.51,9.51,0,0,1,.34-1.18c0-.08.05-.16-.06-.23-.83-.51-1.61-1.08-2.38-1.67A10,10,0,0,1,8.29,9.29a.76.76,0,0,1-.15-.85A7.94,7.94,0,0,0,8.6,7.34.84.84,0,0,0,8,6.25c-.75-.19-1.51-.33-2.27-.45A7.57,7.57,0,0,1,5,5.73a.84.84,0,0,1-.53-1.24c.2-.29.41-.57.62-.85l.53-.71H5.51a10.21,10.21,0,0,0-2.07.55,4.52,4.52,0,0,0-1.52.87A3,3,0,0,0,1,6.47Q1,8.19.94,9.91q0,2-.13,4Q.75,15.24.59,16.51c-.11.88-.24,1.76-.35,2.64a38.12,38.12,0,0,0-.23,4c0,1.53,0,3.06,0,4.59,0,.76,0,1.52,0,2.28,0,.13,0,.23.18.28a6.88,6.88,0,0,0,1.71.31,11.14,11.14,0,0,0,2.62-.18.32.32,0,0,0,.3-.33c.08-.76.2-1.52.29-2.29a17.74,17.74,0,0,0,.07-2.36,8.47,8.47,0,0,1,0-.86c0-.37,0-.75,0-1.12,0-2.07,0-4.15,0-6.22q0-1.63,0-3.26a.83.83,0,0,0,0-.37,1,1,0,0,0-.7-.57.37.37,0,0,1-.25-.5.39.39,0,0,1,.44-.2A1.67,1.67,0,0,1,6,14.06C6,15.24,6,16.43,6,17.62q0,2.77,0,5.55c0,1.1,0,2.2,0,3.3a2.57,2.57,0,0,0,0,.36c.05.35.09.71.12,1.07.07,1.05.06,2.11,0,3.17,0,.68,0,1.37-.06,2.05a10.33,10.33,0,0,0,0,1.63.85.85,0,0,0,.49.74,2.3,2.3,0,0,0,.63.14,26.22,26.22,0,0,0,3.93.35c.27,0,.27,0,.25-.28-.13-1.42-.22-2.84-.25-4.27,0-1.68,0-3.35,0-5,0-.53,0-1.06.06-1.59q.1-1.74.21-3.48c0-.73.11-1.46.17-2.2.07-.92.16-1.83.26-2.75A19.71,19.71,0,0,1,12.19,14Z"/><path class="cls-1" d="M13,13.87a3.57,3.57,0,0,0-.16.85.37.37,0,0,0,.2-.12c.68-.54,1.37-1.07,2.08-1.56A20.81,20.81,0,0,1,18,11.37a10.38,10.38,0,0,0,1.75-.94c.2-.15.26-.27.16-.5s-.32-.71-.46-1.07A4.87,4.87,0,0,1,19,7.47,1.24,1.24,0,0,1,20.24,6a8.37,8.37,0,0,1,1.82.06c.43,0,.85,0,1.28.12a.2.2,0,0,0,.19-.07c.05-.06,0-.12,0-.17-.35-.63-.71-1.25-1.11-1.86a10.08,10.08,0,0,0-2.8-3,5,5,0,0,0-1-.58l0,0a.67.67,0,0,0,.09.27A4,4,0,0,1,19,2.62a6.87,6.87,0,0,1-.44,2,10.14,10.14,0,0,1-1.44,2.69c-.6.79-1.3,1.49-1.9,2.28a15.85,15.85,0,0,0-1.31,2A10.55,10.55,0,0,0,13,13.87Z"/><path class="cls-1" d="M5.06,5c0,.08.13.09.22.09h.23a22.87,22.87,0,0,1,2.32.42A1.92,1.92,0,0,1,9,6.11a1.44,1.44,0,0,1,.35,1.1,3.69,3.69,0,0,1-.33,1c-.28.62-.36.44.17,1l0,0a17.77,17.77,0,0,0,1.55,1.28c.63.47,1.27.92,1.93,1.35.1.06.15.05.2-.06s.22-.43.33-.65a10.85,10.85,0,0,1,1-1.48c.07-.08.07-.16,0-.22l-.48-.31a8.13,8.13,0,0,1-1.47-1.07,9.8,9.8,0,0,1-2-2.64,5,5,0,0,1-.52-3.1A6.29,6.29,0,0,1,10.27.48c.08-.16.19-.31.29-.48h-.07l-.34.13a8.17,8.17,0,0,0-2,1.18,13.19,13.19,0,0,0-1.9,2c-.39.47-.74,1-1.1,1.47C5.08,4.81,5,4.87,5.06,5Z"/><path class="cls-1" d="M27.44,30.89a8.35,8.35,0,0,1-2.66.26A10.38,10.38,0,0,1,23.11,31c-.08,0-.2-.06-.17.1.09.5.18,1,.26,1.51a.15.15,0,0,0,.15.14,10.18,10.18,0,0,0,1.77.15h.33a7.53,7.53,0,0,0,1.85-.27c.09,0,.19,0,.19-.17,0-.48,0-1,.08-1.43C27.58,30.9,27.56,30.85,27.44,30.89Z"/><path class="cls-1" d="M4.49,31a7.24,7.24,0,0,1-1,.14,8.64,8.64,0,0,1-3.27-.26c-.14,0-.19,0-.18.14q0,.67.07,1.34a.2.2,0,0,0,.18.22,8.3,8.3,0,0,0,2.16.29,12.78,12.78,0,0,0,1.76-.14.22.22,0,0,0,.22-.21l.23-1.34C4.73,30.95,4.7,30.92,4.49,31Z"/><path class="cls-1" d="M18.54.48s0,0,0,0l0,0Z"/><circle class="cls-2" cx="16.36" cy="19" r="0.94"/><circle class="cls-2" cx="16.36" cy="25.14" r="0.94"/><circle class="cls-2" cx="16.36" cy="31.68" r="0.94"/></g></g></g></svg>