<svg xmlns="http://www.w3.org/2000/svg" viewBox="0 0 37.28 30.62"><defs><style>.cls-1{fill:#6a625e;}</style></defs><title>Asset 52</title><g id="Layer_2" data-name="Layer 2"><g id="graphic_elements" data-name="graphic elements"><g id="Layer_114" data-name="Layer 114"><path class="cls-1" d="M7.77,17.3h22c0-.12,0-.22,0-.32q0-5.58,0-11.16c0-.72-.31-1-1.1-1H8.93C8,4.84,7.77,5.09,7.77,6q0,5.35,0,10.71ZM8.63,5.72H28.89V16.44H8.63Z"/><path class="cls-1" d="M7.77,18.71C7.77,19.77,8,20,9,20H28.61a2.23,2.23,0,0,0,.4,0,.78.78,0,0,0,.73-.72c0-.55,0-1.1,0-1.67h-22Zm11-.22a.3.3,0,0,1,.27.43h0a.29.29,0,0,1-.16.15h0l-.11,0a.3.3,0,0,1,0-.6Z"/><path class="cls-1" d="M29.7,24H7.57a1,1,0,0,0-1.19,1.05c-.17,1.4-.34,2.8-.53,4.19-.13,1,.08,1.23,1.08,1.23H30.23a4.6,4.6,0,0,0,.49,0,.71.71,0,0,0,.73-.88q-.27-2.29-.57-4.58A1,1,0,0,0,29.7,24ZM10.54,28.82H8.15v-.75h2.38Zm9.23,1a2.56,2.56,0,0,1-2.09-4.64,2.49,2.49,0,0,1,3.29.61c-1.2.52-1.46.8-1.25,1.36s.56.57,1.78.22A2.39,2.39,0,0,1,19.77,29.8Z"/><path class="cls-1" d="M27,20.93a.94.94,0,0,0-.54-.15h-5.2l-.12-.54H16.44l-.12.54H10.91a.76.76,0,0,0-.42.06c-1,.75-2,1.51-3,2.33H29.83C28.82,22.38,27.9,21.65,27,20.93Z"/><path class="cls-1" d="M0,30.62H5.37V0H0ZM2.74,2.67A1.86,1.86,0,1,1,.84,4.45,1.85,1.85,0,0,1,2.74,2.67Zm0,8A1.86,1.86,0,1,1,.84,12.46,1.85,1.85,0,0,1,2.76,10.63Zm-.07,8a1.86,1.86,0,0,1,0,3.72,1.86,1.86,0,0,1,0-3.72Z"/><circle class="cls-1" cx="2.68" cy="4.56" r="0.5"/><circle class="cls-1" cx="2.68" cy="12.48" r="0.5"/><circle class="cls-1" cx="2.68" cy="20.48" r="0.5"/><path class="cls-1" d="M31.91,0V30.62h5.37V0Zm2.74,2.67a1.86,1.86,0,1,1-1.9,1.78A1.85,1.85,0,0,1,34.65,2.67Zm0,19.64a1.86,1.86,0,0,1,0-3.72,1.86,1.86,0,0,1,0,3.72Zm-.06-8a1.86,1.86,0,1,1,1.91-1.83A1.85,1.85,0,0,1,34.54,14.35Z"/><circle class="cls-1" cx="34.59" cy="4.56" r="0.5"/><circle class="cls-1" cx="34.59" cy="12.48" r="0.5"/><circle class="cls-1" cx="34.59" cy="20.48" r="0.5"/></g></g></g></svg>