<svg xmlns="http://www.w3.org/2000/svg" viewBox="0 0 40.94 35.01"><defs><style>.cls-1{fill:#6a625e;}</style></defs><title>Asset 43</title><g id="Layer_2" data-name="Layer 2"><g id="graphic_elements" data-name="graphic elements"><g id="Layer_110" data-name="Layer 110"><path class="cls-1" d="M40.92,29.24a49.32,49.32,0,0,0-2.5-12.54,29.63,29.63,0,0,0-2.67-5.94,7,7,0,0,0-3.25-3.1,14.05,14.05,0,0,0-6.62-.87A3.29,3.29,0,0,0,23,9a2.56,2.56,0,0,1-.25.6c-.12.16-.32.36-.49.37l-1.15,0c-.06-2-.44-5.46-2.3-6.68-2.92-1.92-5.61-.51-7.58.53s-2.66,1.29-3.32.53C6.57,2.79,8.39,1,8.47.9L7.59,0C6.63.93,5.26,3.21,7,5.16c1.38,1.59,3.15.66,4.86-.24,2-1,4-2.11,6.3-.59C19.4,5.17,19.78,8,19.85,10h-.63A1.07,1.07,0,0,1,18,9.15a3.29,3.29,0,0,0-3.24-2.37,29.57,29.57,0,0,0-3.3.12,7.82,7.82,0,0,0-6.73,4.64l-.07.14A45.58,45.58,0,0,0,0,29.7c-.22,3.66,3.74,6.13,7,5a7.46,7.46,0,0,0,3.43-2.58q1.9-2.42,3.71-4.89a4.29,4.29,0,0,1,2.31-1.62A14.09,14.09,0,0,1,24,25.46a4.76,4.76,0,0,1,2.94,2c.84,1.23,1.72,2.43,2.66,3.58a17.36,17.36,0,0,0,2.61,2.75,5.21,5.21,0,0,0,6,.51A4.86,4.86,0,0,0,40.92,29.24Zm-6.2,3.15a5.1,5.1,0,0,1-2.36-1.77c-1.15-1.49-2.33-3-3.39-4.53a7.12,7.12,0,0,0-4.49-3,16.49,16.49,0,0,0-8.8.24,6.66,6.66,0,0,0-3.51,2.53C11,27.47,9.78,29.07,8.54,30.66a4.45,4.45,0,0,1-2.91,1.86c-1.8.24-3.41-1.29-3.22-2.68a43.32,43.32,0,0,1,4.41-17l.05-.1a5.23,5.23,0,0,1,4.62-3.35c1-.06,2.09-.15,3.13-.17a1.16,1.16,0,0,1,1.15.84,8.68,8.68,0,0,0,.56,1.18,2,2,0,0,0,1.86,1.13c1.5,0,3,0,4.51,0a2.11,2.11,0,0,0,2-1.23c.2-.39.39-.78.56-1.18a1.17,1.17,0,0,1,1-.75,11.35,11.35,0,0,1,5.33.76,4.25,4.25,0,0,1,1.6,1.41,19.86,19.86,0,0,1,2.42,4.79,47.12,47.12,0,0,1,2.91,13.39A2.87,2.87,0,0,1,34.72,32.39Z"/><path class="cls-1" d="M25.67,15.9a1.67,1.67,0,0,0-1.73,1.68,1.74,1.74,0,0,0,1.73,1.75,1.69,1.69,0,0,0,1.71-1.75A1.62,1.62,0,0,0,25.67,15.9Z"/><path class="cls-1" d="M28.63,18.72a1.73,1.73,0,0,0,0,3.45,1.72,1.72,0,0,0,1.71-1.72A1.75,1.75,0,0,0,28.63,18.72Z"/><path class="cls-1" d="M28.62,16.49a1.77,1.77,0,0,0,1.78-1.72A1.72,1.72,0,0,0,28.64,13a1.68,1.68,0,0,0-1.7,1.71A1.72,1.72,0,0,0,28.62,16.49Z"/><path class="cls-1" d="M31.45,15.89a1.72,1.72,0,1,0,.09,3.44,1.75,1.75,0,0,0,1.69-1.74A1.73,1.73,0,0,0,31.45,15.89Z"/><path class="cls-1" d="M14.48,16.62h-1c-.68,0-.82-.17-.83-.86,0-.47,0-1,0-1.42,0-.21,0-.42,0-.63v-.22h-2v.22c0,.21,0,.41,0,.61,0,.43,0,.84,0,1.24,0,1-.07,1-1.08,1.06H7.51v2h.9c.49,0,1,0,1.43,0,.68,0,.81.16.82.85,0,.47,0,.93,0,1.42q0,.33,0,.66v.22h2v-.22c0-.22,0-.43,0-.64,0-.45,0-.87,0-1.29,0-.88.14-1,1-1h2.09v-2H14.48Z"/></g></g></g></svg>