<svg xmlns="http://www.w3.org/2000/svg" viewBox="0 0 37.79 29.22"><defs><style>.cls-1{fill:#6a625e;}</style></defs><title>Asset 46</title><g id="Layer_2" data-name="Layer 2"><g id="graphic_elements" data-name="graphic elements"><g id="Layer_134" data-name="Layer 134"><path class="cls-1" d="M36.75,4.35H22.16A2.12,2.12,0,0,1,23,5.81H36.35V25.64H3.72V21.42a3.77,3.77,0,0,1-1.43-.88v6c.14.15.27.43.41.43.6,0,.63.48.76.87l.26.78a.76.76,0,0,0,.79.57H6.43a.77.77,0,0,0,.81-.6c.11-.36.27-.71.35-1.08s.25-.46.62-.46H31.85c.06,0,.14,0,.19,0s.3.15.35.27c.17.41.3.83.44,1.26a.77.77,0,0,0,.81.6h1.93a.75.75,0,0,0,.77-.51l0-.06c.14-.43.28-.87.44-1.3h0a.43.43,0,0,1,.27-.23.9.9,0,0,0,.72-.54V4.89A1,1,0,0,0,36.75,4.35Zm-31,23.45c-.89,0-.89,0-1-.7H6.27C6.09,27.38,6.26,27.81,5.74,27.81Zm29.56-.47c-.05.22,0,.45-.4.47-.88,0-.93,0-1.05-.7H35.4A.54.54,0,0,0,35.3,27.33Z"/><path class="cls-1" d="M29.65,7.21h-7A2.27,2.27,0,0,1,21,8.27l-.16.38h8.4V13.6H27.95a.72.72,0,0,0-.82.79c0,.38,0,.76,0,1.14,0,.68-.23.9-.93.9h-8l.7,1.43h7.33a2.14,2.14,0,0,0,2.3-2.27V15h.69v7.76H6.56V21.28a3.8,3.8,0,0,1-.88.28,4.15,4.15,0,0,1-.56.06v1.61c0,.81.2,1,1,1H29.67c.82,0,1-.21,1-1v-15C30.69,7.4,30.5,7.21,29.65,7.21Z"/><path class="cls-1" d="M32.11,12.87a1.39,1.39,0,0,1,1.42-1.4,1.41,1.41,0,0,1,1.41,1.42,1.44,1.44,0,0,1-1.43,1.41A1.41,1.41,0,0,1,32.11,12.87Z"/><circle class="cls-1" cx="33.53" cy="17.14" r="1.42" transform="translate(16.33 50.64) rotate(-89.9)"/><path class="cls-1" d="M33.54,7.21a1.42,1.42,0,0,1,1.41,1.43A1.44,1.44,0,0,1,33.51,10a1.41,1.41,0,0,1-1.4-1.44A1.39,1.39,0,0,1,33.54,7.21Z"/><path class="cls-1" d="M10.63,0c-5.19,0-9.4,1.11-9.4,2.48S5.44,5,10.63,5,20,3.85,20,2.48,15.83,0,10.63,0Zm0,4.51c-5.88,0-8.95-1.32-8.95-2s3.07-2,8.95-2,9,1.32,9,2S16.51,4.51,10.63,4.51Z"/><path class="cls-1" d="M16.5,1.42a6.23,6.23,0,0,1,2.07.75.34.34,0,0,1,0,.54,4.25,4.25,0,0,1-1.41.62Z"/><path class="cls-1" d="M18.59,2.71a4.25,4.25,0,0,1-1.41.62L16.5,1.42a6.23,6.23,0,0,1,2.07.75A.34.34,0,0,1,18.59,2.71Z"/><path class="cls-1" d="M11.69,4h-1.3L9.3.93h1.29Z"/><path class="cls-1" d="M7.57,1,8.83.92,9.92,4H8.63Z"/><path class="cls-1" d="M13.41,3.91,12.14,4l-1.09-3h1.3Z"/><path class="cls-1" d="M12.83,1l1.33.1,1,2.67-1.25.15Z"/><path class="cls-1" d="M5.88,1.2l1.25-.14,1,2.88L6.81,3.82Z"/><path class="cls-1" d="M16,1.31l.75,2.12-1.21.23-.91-2.55Z"/><path class="cls-1" d="M4.23,1.52l1.21-.25.89,2.49L5,3.55Z"/><path class="cls-1" d="M18.59,2.71a4.25,4.25,0,0,1-1.41.62L16.5,1.42a6.23,6.23,0,0,1,2.07.75A.34.34,0,0,1,18.59,2.71Z"/><path class="cls-1" d="M2.54,2.25a3.49,3.49,0,0,1,1.27-.61l.64,1.8a4.75,4.75,0,0,1-1.91-.78A.28.28,0,0,1,2.54,2.25Z"/><path class="cls-1" d="M20.73,5.55H20V4.3l-.15.1a8.67,8.67,0,0,1-2.32.92,28.44,28.44,0,0,1-6.93.76A28.44,28.44,0,0,1,3.7,5.32,8.67,8.67,0,0,1,1.38,4.4l-.13-.09.08,1.24H.56c-.34,0-.57.19-.56.54s.23.52.58.53h1a9.58,9.58,0,0,0,5.2,6.2L6,14.28l-.7,1.4c-1.66,0-2.65,1-2.51,2.33a2.12,2.12,0,0,0,2.56,1.91A2,2,0,0,0,6.76,19a2.24,2.24,0,0,0,0-2.39H15.1l1.5,3,1.07-.52-3.07-6.25a9.56,9.56,0,0,0,5.2-6.2h.92c.38,0,.62-.22.62-.53S21.12,5.57,20.73,5.55ZM5,18.87a1.06,1.06,0,0,1-1.08-1,1,1,0,0,1,1-1A1,1,0,0,1,6,17.8,1,1,0,0,1,5,18.87Zm9.72-3.09H6.62l1.2-2.44a25.32,25.32,0,0,0,2.82.3,26.2,26.2,0,0,0,2.87-.3l.58,1.16Z"/></g></g></g></svg>