<svg xmlns="http://www.w3.org/2000/svg" viewBox="0 0 38.54 19.34"><defs><style>.cls-1{fill:#6a625e;}</style></defs><title>Asset 88</title><g id="Layer_2" data-name="Layer 2"><g id="graphic_elements" data-name="graphic elements"><g id="Layer_134" data-name="Layer 134"><path class="cls-1" d="M29.66,15.35a2,2,0,0,1-1,1.85.41.41,0,0,0-.16.3c0,.37,0,.74,0,1.12a.72.72,0,1,1-1.43,0V17.44H3.21V19a.38.38,0,0,1-.38.38H2.48a.72.72,0,0,1-.72-.71c0-.34,0-.67,0-1a.47.47,0,0,0-.27-.5,1.72,1.72,0,0,1-.94-1.53c0-1.62,0-3.25,0-4.88q0-.38,0-.76t0-.77a1.44,1.44,0,0,1,2.89,0v4.62a.67.67,0,0,0,.67.67h22a.67.67,0,0,0,.67-.67V9.2A1.45,1.45,0,0,1,28.2,7.74h0A1.45,1.45,0,0,1,29.66,9.2C29.66,10.92,29.65,13.74,29.66,15.35Z"/><path class="cls-1" d="M14.6,4.48v9H5.46a1,1,0,0,1-1-1c0-1.8,0-5.5,0-7.56A1,1,0,0,1,5.52,3.84H14A.64.64,0,0,1,14.6,4.48Z"/><path class="cls-1" d="M15.6,13.52v-9a.64.64,0,0,1,.64-.64h8.41A1,1,0,0,1,25.77,5c0,2.06,0,5.74,0,7.53a1,1,0,0,1-1,1Z"/><path class="cls-1" d="M4,8.58A2,2,0,0,1,4,9,2,2,0,0,0,0,9a2,2,0,1,1,4-.38Z"/><path class="cls-1" d="M30.22,8.58a2,2,0,0,1,0,.38,2,2,0,0,0-3.92,0,2,2,0,1,1,4-.38Z"/><path class="cls-1" d="M26,0V7.56a2.44,2.44,0,0,1,1.57-1.82V1.61H37V7.07H30.43a2.44,2.44,0,0,1,.2.69,1.24,1.24,0,0,1,0,.16H37v5.46H30.66V15h5.57v2.3h2.32V0Z"/><path class="cls-1" d="M28.36,2.39V5.61a2.29,2.29,0,0,1,1.54.68h6.29V2.39Zm5.81,1.55H30.42c-.27,0-.51,0-.52-.36s.2-.41.48-.41h3.8c.26,0,.45.05.46.38S34.45,4,34.17,3.95Z"/><path class="cls-1" d="M30.66,8.73v.73h3.53c.29,0,.47.08.47.42s-.2.37-.46.36H30.66v2.38h5.53V8.73Z"/></g></g></g></svg>