<?xml version="1.0" encoding="utf-8"?>
<!-- Svg Vector Icons : http://www.onlinewebfonts.com/icon -->
<!DOCTYPE svg PUBLIC "-//W3C//DTD SVG 1.1//EN" "http://www.w3.org/Graphics/SVG/1.1/DTD/svg11.dtd">
<svg version="1.1" xmlns="http://www.w3.org/2000/svg" xmlns:xlink="http://www.w3.org/1999/xlink" x="0px" y="0px" viewBox="0 0 1000 1000" enable-background="new 0 0 1000 1000" xml:space="preserve">
<metadata> Svg Vector Icons : http://www.onlinewebfonts.com/icon </metadata>
<g><path d="M500,147.3C267.3,147.3,78.7,336,78.7,568.7C78.7,801.4,267.3,990,500,990c232.7,0,421.3-188.6,421.3-421.3C921.3,336,732.7,147.3,500,147.3z M500,930.1c-199.6,0-361.5-161.8-361.5-361.5c0-199.6,161.8-361.5,361.5-361.5c199.6,0,361.5,161.8,361.5,361.5S699.6,930.1,500,930.1z"/><path d="M644.9,45.6c0,19.7-13.4,35.6-29.9,35.6h-230c-16.5,0-29.9-15.9-29.9-35.6l0,0c0-19.7,13.4-35.6,29.9-35.6h230C631.5,10,644.9,25.9,644.9,45.6L644.9,45.6z"/><path d="M500,599.1c-19.7,0-35.6-13.4-35.6-29.9v-230c0-16.5,15.9-29.9,35.6-29.9l0,0c19.7,0,35.6,13.4,35.6,29.9v230C535.6,585.7,519.7,599.1,500,599.1L500,599.1z"/><path d="M481.3,552.2c12.5-15.2,32.9-19,45.7-8.6l203.7,167.1c12.8,10.5,13,31.3,0.5,46.5l0,0c-12.5,15.2-32.9,19-45.7,8.6L481.8,598.7C469,588.2,468.8,567.4,481.3,552.2L481.3,552.2z"/><path d="M500.1,207.2c-19.7,0-35.6-8.7-35.6-19.4V38.3c0-10.7,15.9-19.4,35.6-19.4l0,0c19.7,0,35.6,8.7,35.6,19.4v149.5C535.7,198.5,519.7,207.2,500.1,207.2L500.1,207.2z"/></g>
</svg>