<svg xmlns="http://www.w3.org/2000/svg" viewBox="0 0 35.91 35.91"><defs><style>.cls-1{fill:#6a625e;}</style></defs><title>Asset 21</title><g id="Layer_2" data-name="Layer 2"><g id="graphic_elements" data-name="graphic elements"><g id="Layer_134" data-name="Layer 134"><path class="cls-1" d="M0,20.16H0a1.66,1.66,0,0,1,1.77-1.06c.93.05,1.87,0,2.81,0V16.81c-1,0-1.9,0-2.81,0A1.68,1.68,0,0,1,0,15.77a1.64,1.64,0,0,1,1.76-1.12c.94,0,1.88,0,2.83,0V12.38c-1,0-1.84,0-2.73,0a1.74,1.74,0,0,1-1.84-1v-.06A1.59,1.59,0,0,1,1.74,10.2c1,0,1.92,0,2.86,0C5,6.79,6.87,5,10.21,4.6c0-1,0-1.92,0-2.85A1.59,1.59,0,0,1,11.35,0h.06a1.74,1.74,0,0,1,1,1.84c0,.91,0,1.82,0,2.75h2.28c0-1,0-1.92,0-2.85A1.64,1.64,0,0,1,15.77,0a1.68,1.68,0,0,1,1.06,1.77c-.05.93,0,1.87,0,2.81H19.1c0-1,0-1.9,0-2.81A1.66,1.66,0,0,1,20.15,0h0a1.66,1.66,0,0,1,1.1,1.76c0,.94,0,1.88,0,2.83h2.28c0-1,0-1.9,0-2.81A1.78,1.78,0,0,1,24.5,0h0a1.62,1.62,0,0,1,1.2,1.74c0,1,0,1.92,0,2.86,3.42.4,5.24,2.27,5.61,5.61,1,0,1.92,0,2.85,0a1.6,1.6,0,0,1,1.72,1.15v.06a1.74,1.74,0,0,1-1.84,1c-.91,0-1.82,0-2.75,0v2.28c1,0,1.92,0,2.85,0a1.66,1.66,0,0,1,1.76,1.11h0a1.68,1.68,0,0,1-1.78,1.06c-.93,0-1.87,0-2.81,0V19.1c1,0,1.9,0,2.81,0a1.67,1.67,0,0,1,1.77,1.06h0a1.65,1.65,0,0,1-1.76,1.11c-.94,0-1.88,0-2.83,0v2.28c1,0,1.84,0,2.73,0a1.74,1.74,0,0,1,1.84,1v.06a1.6,1.6,0,0,1-1.72,1.15c-1,0-1.92,0-2.89,0a5.94,5.94,0,0,1-1.66,3.92A6,6,0,0,1,25.7,31.3c0,1,0,1.93,0,2.87a1.6,1.6,0,0,1-1.15,1.72H24.5a1.74,1.74,0,0,1-1-1.84c0-.91,0-1.82,0-2.75H21.25c0,1,0,1.92,0,2.85a1.65,1.65,0,0,1-1.08,1.75h0a1.66,1.66,0,0,1-1.07-1.84c0-.91,0-1.82,0-2.74H16.81c0,1,0,1.9,0,2.81a1.68,1.68,0,0,1-1.06,1.78h0a1.66,1.66,0,0,1-1.11-1.76c0-.94,0-1.88,0-2.83H12.38c0,1,0,1.84,0,2.73a1.73,1.73,0,0,1-1,1.84h-.06a1.6,1.6,0,0,1-1.15-1.72c0-1,0-1.92,0-2.86C6.8,30.91,5,29,4.59,25.7c-1,0-1.92,0-2.85,0A1.6,1.6,0,0,1,0,24.56v0a1.69,1.69,0,0,1,1.84-1c.91,0,1.82,0,2.75,0V21.25c-1,0-1.92,0-2.85,0A1.66,1.66,0,0,1,0,20.16ZM29.06,18c0-2.52,0-5,0-7.56a3.36,3.36,0,0,0-3.57-3.54h-15a3.37,3.37,0,0,0-3.58,3.61q0,7.48,0,15a3.38,3.38,0,0,0,3.65,3.62H25.39a3.39,3.39,0,0,0,3.66-3.69C29.06,22.9,29.06,20.43,29.06,18Z"/><path class="cls-1" d="M14.4,19a2.58,2.58,0,0,1-.22.88,2.05,2.05,0,0,1-.5.69,2.3,2.3,0,0,1-.78.45,3.1,3.1,0,0,1-1,.16A2.7,2.7,0,0,1,10.78,21a2.23,2.23,0,0,1-.82-.6,2.74,2.74,0,0,1-.51-1,4.11,4.11,0,0,1-.18-1.26v-.42a4,4,0,0,1,.19-1.26,2.78,2.78,0,0,1,.53-1,2.28,2.28,0,0,1,.82-.61,2.67,2.67,0,0,1,1.08-.21,3,3,0,0,1,1,.17,2.24,2.24,0,0,1,.77.46,2.11,2.11,0,0,1,.49.71,3,3,0,0,1,.23.89h-1.3a2,2,0,0,0-.1-.5,1,1,0,0,0-.22-.36.9.9,0,0,0-.37-.22,1.72,1.72,0,0,0-.55-.08,1.1,1.1,0,0,0-1,.48,2.69,2.69,0,0,0-.32,1.48v.42a4.54,4.54,0,0,0,.07.86,1.81,1.81,0,0,0,.23.61,1,1,0,0,0,.4.37,1.3,1.3,0,0,0,.59.12,1.8,1.8,0,0,0,.53-.07.9.9,0,0,0,.6-.56,1.74,1.74,0,0,0,.1-.49Z"/><path class="cls-1" d="M17,18.89v2.22h-1.3v-6.3h2.46a3,3,0,0,1,1,.16,2.15,2.15,0,0,1,.74.43,1.86,1.86,0,0,1,.47.66,2.14,2.14,0,0,1,.16.83,2.05,2.05,0,0,1-.16.83,1.71,1.71,0,0,1-.47.63,2.14,2.14,0,0,1-.74.4,3.27,3.27,0,0,1-1,.14Zm0-1.05h1.16a1.47,1.47,0,0,0,.48-.07.87.87,0,0,0,.33-.19.75.75,0,0,0,.19-.3,1.13,1.13,0,0,0,.06-.38,1.27,1.27,0,0,0-.06-.39.93.93,0,0,0-.19-.33.91.91,0,0,0-.33-.23,1.2,1.2,0,0,0-.48-.09H17Z"/><path class="cls-1" d="M26.64,14.81V19a2.39,2.39,0,0,1-.18,1,2,2,0,0,1-.5.7,2.13,2.13,0,0,1-.76.42,3.36,3.36,0,0,1-1.94,0,2.13,2.13,0,0,1-.76-.42,1.93,1.93,0,0,1-.5-.7,2.42,2.42,0,0,1-.18-1V14.81h1.3V19a1.2,1.2,0,0,0,.3.9,1.33,1.33,0,0,0,1.64,0,1.21,1.21,0,0,0,.29-.9V14.81Z"/></g></g></g></svg>