<svg xmlns="http://www.w3.org/2000/svg" viewBox="0 0 38.64 20.03"><defs><style>.cls-1{fill:#6a625e;}</style></defs><title>Asset 47</title><g id="Layer_2" data-name="Layer 2"><g id="graphic_elements" data-name="graphic elements"><g id="Layer_107" data-name="Layer 107"><path class="cls-1" d="M36.23,5.43a2.4,2.4,0,0,0-1.47,4.3A10.36,10.36,0,0,1,27.42,13c-3.79-.06-6.11-5-7.25-8.35a2.4,2.4,0,1,0-1.7,0C17.33,8,15,12.94,11.22,13A10.36,10.36,0,0,1,3.87,9.73a2.39,2.39,0,1,0-1.47.51h0l.13.54,1.77,7.69a2,2,0,0,0,2,1.57h26a2,2,0,0,0,2-1.57l1.77-7.69.13-.54h0a2.4,2.4,0,0,0,0-4.81Z"/></g></g></g></svg>