<svg xmlns="http://www.w3.org/2000/svg" viewBox="0 0 32.92 35.79"><defs><style>.cls-1{fill:#6a625e;}</style></defs><title>Asset 104</title><g id="Layer_2" data-name="Layer 2"><g id="graphic_elements" data-name="graphic elements"><g id="Layer_134" data-name="Layer 134"><path class="cls-1" d="M8.94,21.26H2.72v-.53H8.59a.9.9,0,0,1,.33.42A.33.33,0,0,1,8.94,21.26Z"/><path class="cls-1" d="M10.07,33.38a1.68,1.68,0,0,1,0-.22,13.47,13.47,0,0,1-4.56-3.87c-.14.26-.32.54-.49.8a1.36,1.36,0,0,1-.12.16,14.81,14.81,0,0,0,5.17,4.1A3.22,3.22,0,0,1,10.07,33.38Z"/><path class="cls-1" d="M25.21,9.09l0,.07c-.17.3-.32.59-.45.87a13.59,13.59,0,0,0-8-2.78V17.78l-.54.07V7.25A13.77,13.77,0,0,0,2.72,20.73v.53A13.78,13.78,0,0,0,4,26.74l-.23.56c-.1.24-.19.48-.3.73a14.47,14.47,0,0,1-1.8-7A14.82,14.82,0,0,1,16.46,6.2,14.58,14.58,0,0,1,25.21,9.09Z"/><path class="cls-1" d="M28.33,21.74a2.67,2.67,0,0,0-.63-.48h-11v3.53h.36c.67,0,1.37-.06,2.08-.12a3.31,3.31,0,0,1,1.73.18A2.48,2.48,0,0,0,22,25c1.15.08,2.33.12,3.62.17-.17.29-.2.51-.35.6-.84.56-1.71,1.12-2.57,1.63a1.27,1.27,0,0,1-.79,0A1.83,1.83,0,0,0,20,28c-.18.25-.12.44.17.5a4.26,4.26,0,0,0,1,.08c.79-.11,1.58-.27,2.37-.42a2.31,2.31,0,0,1,.56-.06,2,2,0,0,0,2.44-.67,7,7,0,0,0,.75-1.35c.42-.87.79-1.79,1.21-2.66A1.26,1.26,0,0,0,28.33,21.74Zm-.78,1.6c-.12.59-.35,1.18-.56,1.91a7.87,7.87,0,0,0-3.18-2.08c1-.25,1.91-.5,2.78-.73S27.68,22.61,27.55,23.34ZM15.82,17.9c-1.28.14-2.57.27-3.86.44a4.92,4.92,0,0,0-1.58.45.84.84,0,0,1-1,0,21,21,0,0,0-2-.93.71.71,0,0,0-.68.1.73.73,0,0,0,0,.67c.17.27.33.53.5.79s.42.5.65.75a2.63,2.63,0,0,0,.6.48l.11.08h7.6V17.85Z"/><path class="cls-1" d="M31.26,21a14.81,14.81,0,0,1-19,14.18l.55-.51.06-.06.35-.26a13.63,13.63,0,0,0,3,.39V24.81l.54,0v10A13.75,13.75,0,0,0,30.19,21.26H27.7a2.73,2.73,0,0,0-1.08-.36l-1.09-.17h4.66a13.52,13.52,0,0,0-1.89-6.67c.06-.18.13-.37.19-.56s.17-.45.27-.69A14.61,14.61,0,0,1,31.26,21Z"/><path class="cls-1" d="M15.82,17.9c-1.28.14-2.57.27-3.86.44a4.92,4.92,0,0,0-1.58.45.84.84,0,0,1-1,0,21,21,0,0,0-2-.93.71.71,0,0,0-.68.1.73.73,0,0,0,0,.67c.17.27.33.53.5.79s.42.5.65.75a2.63,2.63,0,0,0,.6.48l.11.08h7.6V17.85Zm12.51,3.84a2.67,2.67,0,0,0-.63-.48h-11v3.53h.36c.67,0,1.37-.06,2.08-.12a3.31,3.31,0,0,1,1.73.18A2.48,2.48,0,0,0,22,25c1.15.08,2.33.12,3.62.17-.17.29-.2.51-.35.6-.84.56-1.71,1.12-2.57,1.63a1.27,1.27,0,0,1-.79,0A1.83,1.83,0,0,0,20,28c-.18.25-.12.44.17.5a4.26,4.26,0,0,0,1,.08c.79-.11,1.58-.27,2.37-.42a2.31,2.31,0,0,1,.56-.06,2,2,0,0,0,2.44-.67,7,7,0,0,0,.75-1.35c.42-.87.79-1.79,1.21-2.66A1.26,1.26,0,0,0,28.33,21.74Zm-.78,1.6c-.12.59-.35,1.18-.56,1.91a7.87,7.87,0,0,0-3.18-2.08c1-.25,1.91-.5,2.78-.73S27.68,22.61,27.55,23.34Zm.78-1.6a2.67,2.67,0,0,0-.63-.48h-11v3.53h.36c.67,0,1.37-.06,2.08-.12a3.31,3.31,0,0,1,1.73.18A2.48,2.48,0,0,0,22,25c1.15.08,2.33.12,3.62.17-.17.29-.2.51-.35.6-.84.56-1.71,1.12-2.57,1.63a1.27,1.27,0,0,1-.79,0A1.83,1.83,0,0,0,20,28c-.18.25-.12.44.17.5a4.26,4.26,0,0,0,1,.08c.79-.11,1.58-.27,2.37-.42a2.31,2.31,0,0,1,.56-.06,2,2,0,0,0,2.44-.67,7,7,0,0,0,.75-1.35c.42-.87.79-1.79,1.21-2.66A1.26,1.26,0,0,0,28.33,21.74Zm-.78,1.6c-.12.59-.35,1.18-.56,1.91a7.87,7.87,0,0,0-3.18-2.08c1-.25,1.91-.5,2.78-.73S27.68,22.61,27.55,23.34Zm.78-1.6a2.67,2.67,0,0,0-.63-.48h-11v3.53h.36c.67,0,1.37-.06,2.08-.12a3.31,3.31,0,0,1,1.73.18A2.48,2.48,0,0,0,22,25c1.15.08,2.33.12,3.62.17-.17.29-.2.51-.35.6-.84.56-1.71,1.12-2.57,1.63a1.27,1.27,0,0,1-.79,0A1.83,1.83,0,0,0,20,28c-.18.25-.12.44.17.5a4.26,4.26,0,0,0,1,.08c.79-.11,1.58-.27,2.37-.42a2.31,2.31,0,0,1,.56-.06,2,2,0,0,0,2.44-.67,7,7,0,0,0,.75-1.35c.42-.87.79-1.79,1.21-2.66A1.26,1.26,0,0,0,28.33,21.74Zm-.78,1.6c-.12.59-.35,1.18-.56,1.91a7.87,7.87,0,0,0-3.18-2.08c1-.25,1.91-.5,2.78-.73S27.68,22.61,27.55,23.34Z"/><path class="cls-1" d="M16.19,21.26v3.55l-.37,0h-.25A1.51,1.51,0,0,0,15,25l-2.81,1.6c-.33.2-.39.39-.23.79.5,1.06,1,2.19,1.43,3.27a5.59,5.59,0,0,1,.33,1.16,1.61,1.61,0,0,1-.84,2.07l-.37.29h0l-.88.82-.14.13H11a1.68,1.68,0,0,1-.22-.44,2.45,2.45,0,0,1-.12-1.21c0-.24,0-.49.08-.74s.33-.42.65-.25c.53.33.78,0,1.12-.39a2.65,2.65,0,0,0-.48-.25.59.59,0,0,1-.39-.73,2.23,2.23,0,0,0-.48-1.66c-.48-.69-1-1.34-1.43-2a2.47,2.47,0,0,1-.33-.6c-.17-.39,0-.61.39-.5,1.12.31,1.73-.45,2.5-1a14.25,14.25,0,0,0-4.6.85,4.74,4.74,0,0,0-2.25,2.1c-.1.18-.19.35-.3.51-.19.35-.39.67-.61,1a19.24,19.24,0,0,1-3.27,3.62c-.25.23-.5.43-.75.62s-.56,0-.5-.27c.08-1,0-2.08,1-2.78.5-.39.87-.92,1.65-.87.51.06.79-.47,1-.9.07-.16.14-.31.2-.48.18-.41.35-.82.51-1.24l.37-.91c.14-.33.29-.68.45-1a1.88,1.88,0,0,1,1.46-1.17,2.12,2.12,0,0,0,1.82-1.74,4.51,4.51,0,0,0,.49-1.35Z"/><path class="cls-1" d="M32.85,10.38a1,1,0,0,1-1.29.56c-.31-.06-.59-.12-.9-.17a1.6,1.6,0,0,0-2,.9,4.81,4.81,0,0,0-.29.55c-.17.35-.31.72-.44,1.08l0,.1a28.64,28.64,0,0,1-2.55,6c-.08.13-.17.3-.27.44-.31.5-.31.67.11.79a3,3,0,0,0,.35.08H16.73v-3l.36,0a2.35,2.35,0,0,0,.42-.06A4.85,4.85,0,0,0,19,17.2c1.06-.53,2.1-1.09,3.17-1.68a1.25,1.25,0,0,0,.59-.53c.82-1.52,1.64-3,2.45-4.59.16-.31.32-.62.5-.94s.29-.57.44-.86c-1.15-.26-1.46-1.24-2-2.08a1.26,1.26,0,0,1,2,1.12c.47.14.69-.14.86-.59-.56-.43-1.15-.79-1.65-1.24a7.51,7.51,0,0,1-.73-1.09,1.91,1.91,0,0,0-.45-.56,7.11,7.11,0,0,0-.78-.56,1.68,1.68,0,0,1-.6-2.25A14.71,14.71,0,0,1,23.56,0a.19.19,0,0,0,.12.06c-.12.39-.29.79-.37,1.18a1.16,1.16,0,0,0,.59,1.59A3.47,3.47,0,0,1,25.7,5c.11.38.59.73,1,1.06-.84-1.77-.33-3.31.5-4.8a.27.27,0,0,1,.17,0,4.74,4.74,0,0,1-.22,1.09,4.07,4.07,0,0,0,.27,3.85,4.44,4.44,0,0,0,.2-.9,7,7,0,0,0-.14-1.12,2.56,2.56,0,0,1-.12-1c.31.7.65,1.37.93,2.1.06.14-.06.43-.14.6a1.22,1.22,0,0,0,.5,1.88,7.07,7.07,0,0,0,1.27.48c.75.31,1.54.59,2.27.92S33.05,9.93,32.85,10.38Z"/></g></g></g></svg>