<svg xmlns="http://www.w3.org/2000/svg" viewBox="0 0 42.37 36.65"><defs><style>.cls-1{fill:#6a625e;}</style></defs><title>Asset 24</title><g id="Layer_2" data-name="Layer 2"><g id="graphic_elements" data-name="graphic elements"><g id="Layer_109" data-name="Layer 109"><path class="cls-1" d="M24.28,27.37H18.07v1.29h7.56q0-.64,0-1.29Zm5,8.37c-1.2-.21-2.41-.3-3.62-.44l-.58-.07.19-.12.32-.2a7.93,7.93,0,0,0,3.49-6.2.41.41,0,0,1,.05-.24.86.86,0,0,0,.19-.64c0-1.74,0-3.47,0-5.21a.25.25,0,0,1,.17-.28A3.43,3.43,0,0,0,31,21.19a3.64,3.64,0,0,0-3.56-5.72.22.22,0,0,1-.28-.14,3.63,3.63,0,0,0-4.82-1.53,10.25,10.25,0,0,0-1.1.72,3.69,3.69,0,0,0-5.94,1h-.07l-.12,0a3.56,3.56,0,0,0-3.51,1.3,3.61,3.61,0,0,0,1.29,5.56.26.26,0,0,1,.18.27q0,2.61,0,5.22a.91.91,0,0,0,.1.48,1,1,0,0,1,.14.51A7.79,7.79,0,0,0,16,34.28a9.8,9.8,0,0,0,.78.61l.47.34-.12,0-3.1.36a7.71,7.71,0,0,0-2.67.65c-.25.12-.48.25-.71.39h5.53l1.74-.19a1.08,1.08,0,0,0,.2-.79V34.19l-.06,0a7,7,0,0,1-1.27-.87,6.64,6.64,0,0,1-2.21-4.63H27.86a6.61,6.61,0,0,1-2.23,4.63,6.73,6.73,0,0,1-.57.44,8.09,8.09,0,0,1-.78.48v1.41c0,.85.19,1,1,1h6.51A7.15,7.15,0,0,0,29.31,35.74Zm-5-8.37H14.57c-.26,0-.26,0-.26-.26q0-2.51,0-5a.66.66,0,0,0-.57-.78,2.35,2.35,0,1,1,1.55-4.44.72.72,0,0,0,1-.5,2.28,2.28,0,0,1,2-1.66,2.33,2.33,0,0,1,2.34,1.19c.2.34.49.49.81.34a1,1,0,0,0,.39-.38,2.38,2.38,0,0,1,4.29.4l0,.15a.64.64,0,0,0,.91.45,2.36,2.36,0,1,1,1.63,4.43c-.55.18-.64.3-.64.89v5.18Z"/><path class="cls-1" d="M16.74,27.37v1.29h1.34V27.37Zm7.55,0v1.29h1.35q0-.64,0-1.29Zm-7.55,1.29h1.34V27.37H16.74ZM37.5,18.18a1.21,1.21,0,0,0-.47-1q-5.57-4.63-11.11-9.28l-4.1-3.43c-.5-.42-.73-.42-1.24,0l-.24.19Q12.87,10.88,5.39,17.11a1.28,1.28,0,0,0-.51,1.09q0,8.74,0,17.49c0,.77.19,1,1,1H17.12a1,1,0,0,0,.75-.19,1.08,1.08,0,0,0,.2-.79V34.19l-.06,0a7,7,0,0,1-1.27-.87v2H6.23v-.48q0-8.1,0-16.2A.92.92,0,0,1,6.52,18q7.17-6,14.35-12l.33-.25,3.74,3.12q5.45,4.56,10.89,9.12a.92.92,0,0,1,.3.62q0,8.15,0,16.29c0,.13,0,.26,0,.42H25.66c0-.13,0-.25,0-.36s0-.05,0-.08V33.29a6.73,6.73,0,0,1-.57.44,8.09,8.09,0,0,1-.78.48v1.41c0,.85.19,1,1,1H36.4c.92,0,1.09-.17,1.09-1.08Q37.49,26.88,37.5,18.18Z"/><path class="cls-1" d="M42,17.72Q33.72,10.47,25.39,3.23c-1.22-1.06-2.52-2-3.78-3a.63.63,0,0,0-.87,0c-.33.25-.68.46-1,.73L13.25,6.34c-.6.51-1.19,1-1.88,1.63V3.8H6C6,4,6,4.19,6,4.36,6,7,6,9.57,6,12.18a1,1,0,0,1-.38.83C3.89,14.56,2.12,16.14.35,17.71c-.39.34-.46.72-.19,1s.66.33,1.08,0l2.54-2.19L20.56,2.07l.64-.52.24.19,19.69,17c.42.36.79.38,1.08,0S42.42,18.06,42,17.72ZM9.7,9.45c-.75.64-1.48,1.3-2.29,2V5.16H10V6.22C10,7,10,7.87,10,8.7A.86.86,0,0,1,9.7,9.45Z"/><path class="cls-1" d="M33.08,34.87c-.34-.12-.38-.42-.38-.71,0-.53,0-1.05,0-1.58q.05-2.95.09-5.89c0-.08,0-.2-.07-.23A1.65,1.65,0,0,1,32,25.17a4,4,0,0,1,.34-2.3,1.6,1.6,0,0,1,.28-.39.71.71,0,0,1,1.17,0,2.61,2.61,0,0,1,.53,1.24c0,.17.06.33.1.5V25a.87.87,0,0,0,0,.14,1.66,1.66,0,0,1-.85,1.37.25.25,0,0,0-.08.19q.06,3,.12,6c0,.54,0,1.07,0,1.61a.55.55,0,0,1-.4.55Z"/><path class="cls-1" d="M8.06,25l.1-1.84a7.41,7.41,0,0,1,.11-1.09l.15,2.82h.13l.15-2.84h.05L8.89,25H9c.13-1,.11-1.95.27-2.92l.1,2.82h.13l.21-2.82h.05c0,.23,0,.45,0,.68q0,1.24,0,2.48c0,.49,0,1-.52,1.25,0,0-.06.11-.06.17,0,1.23,0,2.45,0,3.68s.08,2.45.11,3.68a.86.86,0,0,1-.34.83H8.93a.52.52,0,0,1-.34-.48c0-.42,0-.84,0-1.26,0-2.15.09-4.3.14-6.45,0-.06,0-.16,0-.17a1.23,1.23,0,0,1-.59-.9Z"/></g></g></g></svg>