<svg xmlns="http://www.w3.org/2000/svg" viewBox="0 0 37.69 21.36"><defs><style>.cls-1{fill:#6a625e;}.cls-2{fill:none;}</style></defs><title>Asset 81</title><g id="Layer_2" data-name="Layer 2"><g id="graphic_elements" data-name="graphic elements"><g id="Layer_134" data-name="Layer 134"><path class="cls-1" d="M7,11l-.5,0a1.11,1.11,0,0,1-1-1.07c0-.62,0-1.23,0-1.85a.64.64,0,0,1,.17-.39L10.43,3.2A.73.73,0,0,1,11,3h15.7a.75.75,0,0,1,.57.24l4.59,4.44a.66.66,0,0,1,.19.41c0,.62,0,1.23,0,1.85A1.11,1.11,0,0,1,31,11l-.37,0H7Z"/><path class="cls-1" d="M10.55,10.91,9.41,17.26C9.19,18.5,9,19.73,8.75,21c0,.29-.13.41-.38.39-.45,0-.91,0-1.38,0V10.91Z"/><path class="cls-1" d="M27,10.91l1.14,6.35c.22,1.23.45,2.47.66,3.7,0,.29.13.41.38.39.45,0,.91,0,1.38,0V10.91Z"/><path class="cls-1" d="M10.55,10.91,9.41,17.26C9.19,18.5,9,19.73,8.75,21c0,.29-.13.41-.38.39-.45,0-.91,0-1.38,0V10.91Z"/><path class="cls-1" d="M27,10.91l1.14,6.35c.22,1.23.45,2.47.66,3.7,0,.29.13.41.38.39.45,0,.91,0,1.38,0V10.91Z"/><path class="cls-1" d="M13.48,11.9,12.75,16c-.14.8-.29,1.59-.43,2.39,0,.19-.09.26-.25.25s-.58,0-.89,0V11.9Z"/><path class="cls-1" d="M24.11,11.9,24.85,16c.14.8.29,1.59.43,2.39,0,.19.09.26.25.25s.58,0,.89,0V11.9Z"/><path class="cls-1" d="M3.94,12.2l-.48,5.23c-.09,1-.19,2-.28,3,0,.24-.06.33-.16.32a5.28,5.28,0,0,0-.58,0V12.2Z"/><path class="cls-1" d="M6.46,11.44h.07v.9l-2.61.06-1.49,0H2.22A22.74,22.74,0,0,0,1.35,6C.9,4.19.49,2.33.06.48A3.89,3.89,0,0,1,0,0H2.4c.71,3,1.42,6.06,2.1,9.09.09.41.24.58.55.62,0,.08,0,.15,0,.23A1.56,1.56,0,0,0,6.46,11.44Z"/><path class="cls-2" d="M3.51,12.2h3"/><line class="cls-2" x1="10.74" y1="12.2" x2="10.74" y2="12.2"/><path class="cls-1" d="M33.75,12.2l.48,5.23c.09,1,.19,2,.28,3,0,.24.06.33.16.32a5.28,5.28,0,0,1,.58,0V12.2Z"/><path class="cls-1" d="M37.69,0c0,.19,0,.34-.06.48C37.2,2.33,36.79,4.19,36.34,6a22.74,22.74,0,0,0-.86,6.4h-.22l-1.49,0-2.71-.06v-.9h0a1.56,1.56,0,0,0,1.4-1.51c0-.07,0-.14,0-.21.42,0,.59-.16.69-.63.67-3,1.39-6,2.1-9.09Z"/><path class="cls-2" d="M34.18,12.2H31.06"/></g></g></g></svg>