<svg xmlns="http://www.w3.org/2000/svg" viewBox="0 0 37.71 25.11"><defs><style>.cls-1{fill:#6a625e;}</style></defs><title>Asset 55</title><g id="Layer_2" data-name="Layer 2"><g id="graphic_elements" data-name="graphic elements"><g id="Layer_134" data-name="Layer 134"><path class="cls-1" d="M13.13,25.11c-3.84,0-7.68,0-11.52,0A1.48,1.48,0,0,1,0,23.75a6.25,6.25,0,0,1,.07-.92q.5-4.8,1-9.6Q1.53,8.76,2,4.29c.1-1,.21-1.93.31-2.9A1.42,1.42,0,0,1,3.85,0H33.77a1.51,1.51,0,0,1,1.67,1.56c.2,2.08.43,4.15.64,6.23.19,1.81.37,3.63.56,5.44q.32,3,.64,6.07c.14,1.33.27,2.66.41,4a1.58,1.58,0,0,1-.58,1.53,1.64,1.64,0,0,1-1.07.29Zm0-.75H36.23a.73.73,0,0,0,.72-.82c-.1-1-.21-2.09-.32-3.13q-.25-2.42-.51-4.85t-.49-4.75q-.28-2.72-.57-5.44c-.14-1.32-.27-2.64-.41-4A.68.68,0,0,0,34,.77H3.72a.61.61,0,0,0-.63.56C3,1.75,3,2.16,2.95,2.58q-.39,3.68-.78,7.35c-.23,2.24-.45,4.49-.69,6.73S1,21.13.78,23.36c-.07.72.19,1,.91,1Z"/><path class="cls-1" d="M18.31,23.07H9.08A1.42,1.42,0,0,1,8,22.72a1.17,1.17,0,0,1-.35-1q.11-1.5.23-3c0-.37.07-.75.1-1.12a1.21,1.21,0,0,1,1.33-1.22H27c1,0,1.46.43,1.52,1.45q.12,1.84.3,3.67c.1,1-.36,1.55-1.36,1.55Zm-.05-.77h9.39c.33,0,.46-.15.46-.47,0-.11,0-.22,0-.33l-.31-3.64c-.05-.62-.13-.69-.75-.69H9.48c-.62,0-.71.08-.76.69q-.15,1.87-.29,3.74c0,.58.08.7.67.7Z"/><path class="cls-1" d="M4.87,8.63a5.76,5.76,0,1,1,5.74,5.78A5.74,5.74,0,0,1,4.87,8.63Zm5.74,5.15A5.15,5.15,0,1,0,5.48,8.64,5.16,5.16,0,0,0,10.61,13.79Z"/><path class="cls-1" d="M14.11,18.21h3.45c.57,0,.8.23.8.81s0,1,0,1.53a.68.68,0,0,1-.75.77h-7a.69.69,0,0,1-.76-.76q0-.8,0-1.59a.68.68,0,0,1,.77-.75Zm3.48.8h-7v1.52h7Z"/><path class="cls-1" d="M25.11,18.34a1.45,1.45,0,0,0-1.43,1.41,1.42,1.42,0,0,0,1.41,1.42,1.39,1.39,0,0,0,1.42-1.4A1.42,1.42,0,0,0,25.11,18.34Zm0,2.53A1.13,1.13,0,0,1,24,19.79a1.15,1.15,0,0,1,1.11-1.14,1.13,1.13,0,0,1,1.12,1.12A1.11,1.11,0,0,1,25.08,20.88Z"/><path class="cls-1" d="M14.73,8.65a4.11,4.11,0,1,1-4.08-4.12A4.12,4.12,0,0,1,14.73,8.65Zm-.63,0a3.48,3.48,0,1,0-3.52,3.46A3.48,3.48,0,0,0,14.1,8.66Z"/><path class="cls-1" d="M14.1,8.66a3.48,3.48,0,1,1-3.45-3.51A3.47,3.47,0,0,1,14.1,8.66Z"/><path class="cls-1" d="M20.34,8.63a5.76,5.76,0,1,1,5.74,5.78A5.74,5.74,0,0,1,20.34,8.63Zm5.74,5.15a5.15,5.15,0,1,0-5.14-5.15A5.16,5.16,0,0,0,26.08,13.79Z"/><path class="cls-1" d="M30.2,8.65a4.11,4.11,0,1,1-4.08-4.12A4.12,4.12,0,0,1,30.2,8.65Zm-.63,0A3.48,3.48,0,1,0,26,12.12,3.48,3.48,0,0,0,29.57,8.66Z"/><path class="cls-1" d="M29.57,8.66a3.48,3.48,0,1,1-3.45-3.51A3.47,3.47,0,0,1,29.57,8.66Z"/><rect class="cls-1" x="25.03" y="18.84" width="0.17" height="1.77" transform="translate(-6.59 23.54) rotate(-45)"/></g></g></g></svg>