<svg xmlns="http://www.w3.org/2000/svg" viewBox="0 0 29.51 36.67"><defs><style>.cls-1{fill:#6a625e;}</style></defs><title>Asset 23</title><g id="Layer_2" data-name="Layer 2"><g id="graphic_elements" data-name="graphic elements"><g id="Layer_111" data-name="Layer 111"><path class="cls-1" d="M25.07,29.64H23.88c-.16,0-.22,0-.21-.2,0-.4,0-.79,0-1.19a.44.44,0,0,0-.49-.48H22a.42.42,0,0,0-.47.47c0,.41,0,.82,0,1.22,0,.13,0,.17-.16.17h-1.2c-.34,0-.5.16-.5.5s0,.8,0,1.21a.4.4,0,0,0,.44.46h1.26c.13,0,.18,0,.17.16s0,.42,0,.63,0,.43,0,.65a.42.42,0,0,0,.47.47h1.17c.37,0,.52-.16.52-.54s0-.77,0-1.15c0-.17,0-.24.22-.23.4,0,.8,0,1.2,0a.44.44,0,0,0,.49-.5c0-.38,0-.77,0-1.15A.46.46,0,0,0,25.07,29.64Zm-.33,1.51c-.22,0-.43,0-.65,0h-.63a.39.39,0,0,0-.44.43c0,.44,0,.88,0,1.31,0,.12,0,.17-.15.16a5,5,0,0,0-.54,0c-.12,0-.16,0-.16-.16,0-.42,0-.84,0-1.26s-.15-.49-.48-.49H20.47c-.12,0-.16,0-.16-.15a4.64,4.64,0,0,0,0-.54c0-.12,0-.16.16-.16h1.22a.43.43,0,0,0,.49-.49c0-.41,0-.82,0-1.22,0-.12,0-.16.16-.15a5,5,0,0,0,.54,0c.13,0,.15,0,.15.16,0,.41,0,.83,0,1.24a.4.4,0,0,0,.46.46h1.28c.13,0,.17,0,.16.17a3.49,3.49,0,0,0,0,.48C24.94,31.11,24.9,31.17,24.74,31.16Z"/><path class="cls-1" d="M29.42,28.06a5.42,5.42,0,0,0-2-3,11.77,11.77,0,0,0-3.5-1.86c-.53-.2-1.07-.37-1.62-.53A14.62,14.62,0,0,0,24,14.28l-.06-.34-1-.18a6,6,0,0,0,.22-.86,1.79,1.79,0,0,0-1.09-2c-.15,0-.19-.13-.14-.28s.13-.55.21-.83a8.72,8.72,0,0,0,.21-3.67,7,7,0,0,0-2.27-4,7.59,7.59,0,0,0-3.66-2c-.35-.08-.71,0-1.06-.12H14.08l-.24,0a7.5,7.5,0,0,0-3.38,1.16A5.63,5.63,0,0,0,7.61,6a31.94,31.94,0,0,0,.23,4.65c0,.15,0,.2-.16.24a1.48,1.48,0,0,0-1.22,1.19,2.74,2.74,0,0,0,.16,1.66l-1.22.22-.06.34A14.63,14.63,0,0,0,7,22.75c-.49.15-1,.31-1.47.49s-.69.26-1,.41a11.36,11.36,0,0,0-1.09.53,8.53,8.53,0,0,0-1.39.93h0A6.13,6.13,0,0,0,.58,26.83,4.73,4.73,0,0,0,.1,28.06l0,.16a5.09,5.09,0,0,0-.06.87v5.36a.27.27,0,0,0,0,0,2.83,2.83,0,0,0,.05.64,2.22,2.22,0,0,0,.69,1.22,1.24,1.24,0,0,0,.39.25c.27,0,.54.06.82.07H28a1.15,1.15,0,0,0,.74-.32,2.31,2.31,0,0,0,.74-1.86.27.27,0,0,0,0,0V29.08A4.67,4.67,0,0,0,29.42,28.06ZM22.54,14.69l.52.09a13.4,13.4,0,0,1-1.66,7.65L20,22c-1-.29-.83-.09-1.27-1.08a1.67,1.67,0,0,0-.11-.22.32.32,0,0,1,.07-.46,5.75,5.75,0,0,0,1.65-2.66c.08-.26.15-.52.21-.79a.56.56,0,0,1,.36-.45,2.55,2.55,0,0,0,1-.7A5.83,5.83,0,0,0,22.54,14.69Zm-3.73,8.48a4.33,4.33,0,0,1-4.06,2.9h-.22A4.17,4.17,0,0,1,11.82,25l-.08-.08-.06-.06-.05-.06h0l-.06-.08-.07-.11h0a3.79,3.79,0,0,1-.77-1.37c-.05-.17-.05-.26.15-.3a.78.78,0,0,0,.59-.52c.17-.39.37-.77.55-1.16.06-.13.13-.17.28-.11a7,7,0,0,0,2.18.47h.31a6.88,6.88,0,0,0,2.46-.47c.16-.06.22,0,.28.11.18.39.39.77.55,1.16a.78.78,0,0,0,.59.52C18.86,22.91,18.86,23,18.81,23.17ZM9.26,4a5.6,5.6,0,0,1,3.8-2.66,6.6,6.6,0,0,1,6.72,2.17,6,6,0,0,1,1.42,5,.67.67,0,0,1,0,.12l0,0A.64.64,0,0,1,21,8.36,4.13,4.13,0,0,0,20,6.5a2.55,2.55,0,0,0-1.65-.71,1.05,1.05,0,0,0-1.06.58,8.24,8.24,0,0,0-.44,1.11,3.36,3.36,0,0,1-.72,1.27,2.11,2.11,0,0,1-1.24.58,3.58,3.58,0,0,0,.47-.74.71.71,0,0,0-.72-1c-.44,0-.88,0-1.31.08a2,2,0,0,1-2-1c-.15-.23-.27-.48-.4-.72a.56.56,0,0,0-.48-.37.64.64,0,0,0-.56.3A7.18,7.18,0,0,0,8.76,8.17C8.69,6.74,8.5,5.28,9.26,4ZM7.52,12.41a.44.44,0,0,1,.3-.42c.18,0,.29.09.4.22a.55.55,0,0,0,.87.08.72.72,0,0,0,.15-.42A17.28,17.28,0,0,1,10.1,7.7c.19-.52.2-.52.54-.09a3.08,3.08,0,0,0,2.8,1.13l.41,0,0,.06c-.21.21-.42.43-.64.64a.56.56,0,0,0-.19.6.55.55,0,0,0,.5.39,3.79,3.79,0,0,0,3.22-.77,4,4,0,0,0,1-1.67c.11-.29.21-.57.31-.86a.24.24,0,0,1,.32-.18,1.62,1.62,0,0,1,1.15.92,5.69,5.69,0,0,1,.59,2.33,6.77,6.77,0,0,1,0,1.28,1.18,1.18,0,0,0,.09.54.54.54,0,0,0,.89.24c.15-.13.3-.29.51-.19a.52.52,0,0,1,.26.58,5.07,5.07,0,0,1-.17.76A.88.88,0,1,0,21,14.81a3.72,3.72,0,0,1-.39.38,1,1,0,0,1-.56.21c-.37,0-.53.21-.57.59a6.53,6.53,0,0,1-.38,1.62,4.73,4.73,0,0,1-.94,1.51,4.07,4.07,0,0,1-2.58,1.27,7.57,7.57,0,0,1-.81.06h0A5.09,5.09,0,0,1,12.58,20a4.05,4.05,0,0,1-2.19-2.42,6.39,6.39,0,0,1-.23-.74A5.35,5.35,0,0,1,10,16a.52.52,0,0,0-.5-.55,1.31,1.31,0,0,1-.95-.49l-.12-.14a.88.88,0,1,0-.81-1.53c0-.13-.07-.25-.11-.38A1.36,1.36,0,0,1,7.52,12.41ZM6.28,14.78,7,14.65A3.47,3.47,0,0,0,8.86,16.4c.12,0,.12.14.13.25a7.33,7.33,0,0,0,.23,1h0a5.75,5.75,0,0,0,1.65,2.66.32.32,0,0,1,.07.46,1.67,1.67,0,0,0-.11.22c-.33.74-.32.82-.72.93h0L9.52,22,9,22.19l-1,.28A13.4,13.4,0,0,1,6.28,14.78Zm7.91,20.76H2.37a7.31,7.31,0,0,1-.74-.06c-.24-.08-.34-.27-.45-.68a2.07,2.07,0,0,1-.06-.55v-2c0-1,0-1.94,0-2.91a3.87,3.87,0,0,1,.15-1.1A4.06,4.06,0,0,1,2,26.83a5.71,5.71,0,0,1,1.45-1.27,9.26,9.26,0,0,1,.82-.47l.28-.14a20.39,20.39,0,0,1,3.1-1.15,16.58,16.58,0,0,0,6.53,5.68Zm.48-6.93a16,16,0,0,1-6.05-5.1l.79-.23c.23-.07.21.1.24.2A5.53,5.53,0,0,0,10.45,25a5.35,5.35,0,0,0,4,2.13h.71a5.54,5.54,0,0,0,.63-.08l.4-.09.39-.12a5.31,5.31,0,0,0,3.31-3.38c0-.11,0-.27.24-.2l.64.18A15.93,15.93,0,0,1,14.67,28.61Zm13.72,5.64a2.07,2.07,0,0,1-.06.55c-.17.62-.31.74-1,.74H15.17V29.46a16.55,16.55,0,0,0,6.54-5.71,20,20,0,0,1,3.53,1.33,6.61,6.61,0,0,1,2.26,1.74,3.92,3.92,0,0,1,.88,2.49Q28.38,31.78,28.39,34.25Z"/></g></g></g></svg>