<svg xmlns="http://www.w3.org/2000/svg" viewBox="0 0 25.64 35.33"><defs><style>.cls-1{fill:#6a625e;}.cls-2{fill:#fff;}</style></defs><title>Asset 90</title><g id="Layer_2" data-name="Layer 2"><g id="graphic_elements" data-name="graphic elements"><g id="Layer_134" data-name="Layer 134"><path class="cls-1" d="M24.1,21.56c0-.88-.32-1.28-1.23-1.27q-10.06,0-20.11,0c-.89,0-1.24.33-1.23,1.24,0,3.09,0,6.19,0,9.28,0,1,.4,1.34,1.37,1.33,3.28,0,6.56,0,9.84,0s6.7,0,10.06,0c.94,0,1.32-.35,1.32-1.3Q24.06,26.2,24.1,21.56Zm-7.6,5.49a.92.92,0,0,1-.83.32c-.89,0-1.77,0-2.65,0s-1.76,0-2.64,0S9.29,27,9.3,26.22a1.4,1.4,0,0,1,.16-.71.54.54,0,0,1,.07-.11,1,1,0,0,1,.79-.28h5.4c.79,0,1,.48,1,1.16a1.34,1.34,0,0,1-.18.77Z"/><path class="cls-1" d="M24.1,11.23c0-.89-.31-1.26-1.23-1.26Q12.82,10,2.77,10c-.9,0-1.25.32-1.23,1.24,0,2.21.06,4.42,0,6.63,0,1.11.42,1.38,1.43,1.37,3.28,0,6.56,0,9.84,0s6.7,0,10.06,0c.9,0,1.27-.32,1.26-1.24C24.07,15.72,24.08,13.48,24.1,11.23Zm-7.67,4a1.09,1.09,0,0,1-.81.25H10.46c-.66,0-1.16-.18-1.14-1a.93.93,0,0,1,.2-.61l0,0a1.11,1.11,0,0,1,.89-.27h5.17c.65,0,1.07.19,1.08.92a1.23,1.23,0,0,1-.07.48A.58.58,0,0,1,16.43,15.25Z"/><path class="cls-1" d="M24.1,2.71c0-1-.37-1.3-1.32-1.28-3.27,0-6.55,0-9.82,0s-6.77,0-10.15,0c-.87,0-1.3.27-1.28,1.2q.06,2.54,0,5.08c0,.88.37,1.17,1.19,1.17H22.93c.84,0,1.19-.37,1.17-1.2C24.08,6,24.07,4.36,24.1,2.71ZM16.67,5.33c0,.72-.42.95-1.06.95h-.34c-.74.06-1.49,0-2.25,0H10.38c-.65,0-1.07-.23-1.07-.95a.73.73,0,0,1,0-.27.12.12,0,0,1,0-.06.4.4,0,0,1,.07-.19.28.28,0,0,1,.06-.1,1.05,1.05,0,0,1,.9-.32h5.28c.6,0,1,.26,1,.8Z"/><path class="cls-2" d="M16.51,27a1.34,1.34,0,0,0,.18-.77c0-.68-.18-1.16-1-1.16h-5.4a1,1,0,0,0-.79.28.9.9,0,0,1,.82-.33h5.4c.79,0,1,.48,1,1.16A1.26,1.26,0,0,1,16.51,27Z"/><path class="cls-2" d="M16.6,15a1.23,1.23,0,0,0,.07-.48c0-.73-.44-.93-1.08-.92H10.42a1.11,1.11,0,0,0-.89.27,1.07,1.07,0,0,1,.93-.33h5.17c.64,0,1.07.19,1.08.93A1,1,0,0,1,16.6,15Z"/><path class="cls-2" d="M10.43,4.33h0Z"/><path class="cls-2" d="M15.31,6.21c-.74.06-1.5,0-2.25,0Z"/><path class="cls-2" d="M16.7,5.13c0-.58-.42-.77-.94-.8C16.33,4.35,16.75,4.61,16.7,5.13Z"/><path class="cls-2" d="M9.94,4.39a.72.72,0,0,0-.44.32.28.28,0,0,0-.06.1,1,1,0,0,0-.08.33V5.05a.12.12,0,0,1,0-.06A.66.66,0,0,1,9.94,4.39Z"/><path class="cls-2" d="M13,6.21c-.75,0-1.5.06-2.25,0Z"/><path class="cls-2" d="M15.71,4.33h0Z"/><path class="cls-1" d="M24.26,0H1.38A1.39,1.39,0,0,0,0,1.39v30.8a1.38,1.38,0,0,0,1.38,1.38H2.83v1.26a.51.51,0,0,0,.51.5h1a.5.5,0,0,0,.5-.5V33.57H21v1.26a.5.5,0,0,0,.5.5h1a.5.5,0,0,0,.5-.5V33.57h1.28a1.38,1.38,0,0,0,1.38-1.38V1.39A1.39,1.39,0,0,0,24.26,0ZM25,32.19a.72.72,0,0,1-.71.72H1.38a.72.72,0,0,1-.72-.72V1.39A.72.72,0,0,1,1.38.67H24.26a.72.72,0,0,1,.71.72Z"/></g></g></g></svg>