<svg xmlns="http://www.w3.org/2000/svg" viewBox="0 0 30.74 36"><defs><style>.cls-1{fill:#6a625e;}</style></defs><title>Asset 18</title><g id="Layer_2" data-name="Layer 2"><g id="graphic_elements" data-name="graphic elements"><g id="Layer_101" data-name="Layer 101"><path class="cls-1" d="M21.11.73c0,1.22,0,2.45-.06,3.67a8.35,8.35,0,0,1-1.16,3.88c-.3.53-.62,1-.92,1.56a5.91,5.91,0,0,1-2.44.57,1.17,1.17,0,0,0-2.1,0,5.26,5.26,0,0,1-2.73-.68h0l-.05-.09c-.34-.61-.71-1.2-1-1.82a8.37,8.37,0,0,1-1-3.76c0-1,0-2,0-3,0-.17,0-.33,0-.5A.54.54,0,0,1,10,0a.57.57,0,0,1,.6.12.64.64,0,0,1,.27.57c0,.54,0,1.07,0,1.61,0,.16.07.2.21.22A6.76,6.76,0,0,1,14.67,4c.22.18.43.38.67.61a1.81,1.81,0,0,0,.23-.18,6.24,6.24,0,0,1,3.78-1.78c.45-.06.45-.07.47-.53s0-1,0-1.46a.66.66,0,0,1,.48-.6.63.63,0,0,1,.74.49A1.51,1.51,0,0,1,21.11.73Z"/><path class="cls-1" d="M30.25,32.53a20.62,20.62,0,0,1-2.92,1.31,33.64,33.64,0,0,1-7.62,1.88,34.27,34.27,0,0,1-6.38.21A34,34,0,0,1,2.94,33.66c-.81-.32-1.58-.72-2.38-1.08a.91.91,0,0,1-.56-1A28,28,0,0,1,1.5,22.4a17.79,17.79,0,0,1,5.36-7.71,33.59,33.59,0,0,1,3.45-2.39c.5-.32,1-.66,1.46-1l.13-.11a10.19,10.19,0,0,0,2.61.45,1.18,1.18,0,0,0,1.93,0,10,10,0,0,0,2.39-.42h0a11.45,11.45,0,0,0,1,.7c1,.67,2,1.3,3,2A17.3,17.3,0,0,1,28.9,21.6a22.89,22.89,0,0,1,1.61,6.62c.11,1.15.15,2.3.23,3.45A.85.85,0,0,1,30.25,32.53Z"/></g></g></g></svg>