<svg xmlns="http://www.w3.org/2000/svg" viewBox="0 0 37.81 34.88"><defs><style>.cls-1{fill:#6a625e;}</style></defs><title>Asset 45</title><g id="Layer_2" data-name="Layer 2"><g id="graphic_elements" data-name="graphic elements"><g id="Layer_90" data-name="Layer 90"><path class="cls-1" d="M37,23.16h0A12.25,12.25,0,0,0,36.64,22h0l-.09-.3h0a11.66,11.66,0,0,0-4.57-6,1,1,0,0,1,.13-1.77c3.13-1.49,5.7-3.54,5.7-5.6,0-1.49-2.5-2.07-5.6-1.42a8.6,8.6,0,1,0-14.54,7.79,1,1,0,0,1-.48,1.7,15.93,15.93,0,0,1-5.75.4C7.18,16.24,5.3,14.3,4.51,13a1,1,0,0,0-1.62-.14c-3.13,3.46-3.94,10-1.31,15.27l.12.24a11.46,11.46,0,0,0,8.21,5.94,45.28,45.28,0,0,0,12.67.18c7.72-1,14.92-4,14.5-10.44A8.74,8.74,0,0,0,37,23.16ZM26.49,4.71a1.85,1.85,0,1,1-1.85,1.85A1.85,1.85,0,0,1,26.49,4.71Z"/></g></g></g></svg>