<svg xmlns="http://www.w3.org/2000/svg" viewBox="0 0 28.6 38.69"><defs><style>.cls-1{fill:#6a625e;}</style></defs><title>Asset 27</title><g id="Layer_2" data-name="Layer 2"><g id="graphic_elements" data-name="graphic elements"><g id="Layer_97" data-name="Layer 97"><path class="cls-1" d="M11.85,10.83c0,.4-.31.6-.88.6H9.8V10.23H11C11.54,10.23,11.85,10.43,11.85,10.83Z"/><path class="cls-1" d="M12.1,12.91c0,.43-.33.62-.93.62H9.8V12.28h1.37C11.78,12.28,12.1,12.48,12.1,12.91Z"/><path class="cls-1" d="M16.93,12.47a1,1,0,1,1-2,0,1,1,0,1,1,2,0Z"/><path class="cls-1" d="M21.66,12.47a1,1,0,1,1-2,0,1,1,0,1,1,2,0Z"/><path class="cls-1" d="M6.75,12.13H4.83a.92.92,0,0,1,1-.81A.92.92,0,0,1,6.75,12.13Z"/><path class="cls-1" d="M5.79,11.32a.92.92,0,0,0-1,.81H6.75A.92.92,0,0,0,5.79,11.32Zm5.38,1H9.8v1.25h1.37c.61,0,.93-.19.93-.62S11.78,12.28,11.17,12.28Zm-.2-2H9.8v1.19H11c.57,0,.88-.2.88-.6S11.54,10.23,11,10.23Zm5,1.16a1,1,0,0,0-1,1.08,1,1,0,1,0,2,0A1,1,0,0,0,15.94,11.39Zm4.73,0a1,1,0,0,0-1,1.08,1,1,0,1,0,2,0A1,1,0,0,0,20.67,11.39Z"/><path class="cls-1" d="M5.79,11.32a.92.92,0,0,0-1,.81H6.75A.92.92,0,0,0,5.79,11.32ZM11,10.23H9.8v1.19H11c.57,0,.88-.2.88-.6S11.54,10.23,11,10.23Zm.2,2H9.8v1.25h1.37c.61,0,.93-.19.93-.62S11.78,12.28,11.17,12.28Zm-5.38-1a.92.92,0,0,0-1,.81H6.75A.92.92,0,0,0,5.79,11.32Zm5.38,1H9.8v1.25h1.37c.61,0,.93-.19.93-.62S11.78,12.28,11.17,12.28Zm-.2-2H9.8v1.19H11c.57,0,.88-.2.88-.6S11.54,10.23,11,10.23ZM5.79,11.32a.92.92,0,0,0-1,.81H6.75A.92.92,0,0,0,5.79,11.32ZM11,10.23H9.8v1.19H11c.57,0,.88-.2.88-.6S11.54,10.23,11,10.23Zm.2,2H9.8v1.25h1.37c.61,0,.93-.19.93-.62S11.78,12.28,11.17,12.28Zm4.77-.89a1,1,0,0,0-1,1.08,1,1,0,1,0,2,0A1,1,0,0,0,15.94,11.39Zm4.73,0a1,1,0,0,0-1,1.08,1,1,0,1,0,2,0A1,1,0,0,0,20.67,11.39ZM5.79,11.32a.92.92,0,0,0-1,.81H6.75A.92.92,0,0,0,5.79,11.32Zm5.38,1H9.8v1.25h1.37c.61,0,.93-.19.93-.62S11.78,12.28,11.17,12.28Zm.68-1.45c0-.4-.31-.59-.88-.59H9.8v1.19H11C11.54,11.43,11.85,11.22,11.85,10.83Zm4.09.56a1,1,0,0,0-1,1.08,1,1,0,1,0,2,0A1,1,0,0,0,15.94,11.39Zm4.73,0a1,1,0,0,0-1,1.08,1,1,0,1,0,2,0A1,1,0,0,0,20.67,11.39Zm7.55,26.74a2.89,2.89,0,0,1-1-2.32,3.81,3.81,0,0,1,1.3-2.7h0V8.17l0-2.65v-2c0-.49,0-1,0-1.48a1.94,1.94,0,0,0-2.08-2c-.7,0-1.4.07-2.1.07L3.11,0a2.78,2.78,0,0,0-3,3c0,.82,0,1.65,0,2.54l0,2.65v1q0,13-.07,25.93c0,2.33,1.16,3.53,3.47,3.54H28.6v-.17A.38.38,0,0,0,28.22,38.13ZM23.56,9h1.13v3l1.65-1.56h1.34l-1.62,1.65,1.76,2.24H26.46l-1.23-1.52-.54.53v1H23.56Zm-2.88,1.42a2,2,0,1,1,0,4,2,2,0,1,1,0-4Zm-4.73,0a2,2,0,1,1,0,4,2,2,0,1,1,0-4ZM8.64,9.35h2.47c1.26,0,1.91.53,1.91,1.32a1.22,1.22,0,0,1-.67,1.11A1.25,1.25,0,0,1,13.28,13c0,.88-.69,1.38-2,1.38H8.64ZM5.79,10.46a1.92,1.92,0,0,1,2,2c0,.09,0,.21,0,.3H4.85A1,1,0,0,0,6,13.56a1.32,1.32,0,0,0,1-.38l.6.65a2,2,0,0,1-1.6.63,2,2,0,0,1-2.22-2A2,2,0,0,1,5.79,10.46Zm-2,27.68A3.06,3.06,0,0,1,1.16,37a2.25,2.25,0,0,1-.34-2.47,2.26,2.26,0,0,1,2.08-1.39c.73,0,1.45,0,2.18,0H28a4.24,4.24,0,0,0-1.15,2.69,3.18,3.18,0,0,0,.91,2.32C20.82,38.13,8.5,38.12,3.75,38.14Zm16.93-24.6a1,1,0,0,0,1-1.08,1,1,0,1,0-2,0A1,1,0,0,0,20.67,13.54Zm-4.73,0a1,1,0,0,0,1-1.08,1,1,0,1,0-2,0A1,1,0,0,0,15.94,13.54Zm-3.84-.64c0-.43-.33-.63-.93-.63H9.8v1.25h1.37C11.78,13.53,12.1,13.34,12.1,12.91Zm-.25-2.08c0-.4-.31-.59-.88-.59H9.8v1.19H11C11.54,11.43,11.85,11.22,11.85,10.83Zm-6.05.49a.92.92,0,0,0-1,.81H6.75A.92.92,0,0,0,5.79,11.32Zm10.15.07a1,1,0,0,0-1,1.08,1,1,0,1,0,2,0A1,1,0,0,0,15.94,11.39Zm-5-1.16H9.8v1.19H11c.57,0,.88-.2.88-.6S11.54,10.23,11,10.23Zm.2,2H9.8v1.25h1.37c.61,0,.93-.19.93-.62S11.78,12.28,11.17,12.28Zm-5.38-1a.92.92,0,0,0-1,.81H6.75A.92.92,0,0,0,5.79,11.32Zm10.15.07a1,1,0,0,0-1,1.08,1,1,0,1,0,2,0A1,1,0,0,0,15.94,11.39Zm-4.77.89H9.8v1.25h1.37c.61,0,.93-.19.93-.62S11.78,12.28,11.17,12.28Zm-.2-2H9.8v1.19H11c.57,0,.88-.2.88-.6S11.54,10.23,11,10.23ZM5.79,11.32a.92.92,0,0,0-1,.81H6.75A.92.92,0,0,0,5.79,11.32ZM11,10.23H9.8v1.19H11c.57,0,.88-.2.88-.6S11.54,10.23,11,10.23Zm.2,2H9.8v1.25h1.37c.61,0,.93-.19.93-.62S11.78,12.28,11.17,12.28Zm0,0H9.8v1.25h1.37c.61,0,.93-.19.93-.62S11.78,12.28,11.17,12.28Zm-.2-2H9.8v1.19H11c.57,0,.88-.2.88-.6S11.54,10.23,11,10.23Z"/></g></g></g></svg>