<svg xmlns="http://www.w3.org/2000/svg" viewBox="0 0 32.47 36.34"><defs><style>.cls-1{fill:#6a625e;}</style></defs><title>Asset 80</title><g id="Layer_2" data-name="Layer 2"><g id="graphic_elements" data-name="graphic elements"><g id="Layer_134" data-name="Layer 134"><path class="cls-1" d="M20.5,29.72h4.81c.71,0,1,.28.85,1a22,22,0,0,1-1.47,4.6,1.72,1.72,0,0,1-.2.31,1.7,1.7,0,0,1-1.47.74c-1.68,0-3.36,0-5,0a1.71,1.71,0,0,1-1.67-1,10.55,10.55,0,0,1-.67-1.63c-.29-.88-.54-1.77-.8-2.66a2.74,2.74,0,0,1-.09-.44c-.07-.6.19-.91.79-.91Z"/><path class="cls-1" d="M23.93,27.54l-.39,0c-2,0-4.06,0-6.09,0-.31,0-.4-.1-.43-.39a1.49,1.49,0,0,1,.48-1.36.51.51,0,0,0,.14-.7,1.54,1.54,0,0,1,.07-1.37,2,2,0,0,1,1.41-1.25,1.64,1.64,0,0,1,1.13,0,2.68,2.68,0,0,0-.24.17,2.57,2.57,0,0,0-.54.51c-.59,1-.27,1.36.55,1.57s1.6.31,2.39.5A1.84,1.84,0,0,1,23.93,27.54Z"/><path class="cls-1" d="M27.08,27.07a2.32,2.32,0,0,1,.56.43c1.57,2.26,3.12,4.54,4.68,6.81a.69.69,0,0,1,.07.74c-.15.32-.28.64-.44,1-.06.12-.17.29-.28.3s-.25-.13-.33-.25q-1.71-2.47-3.4-5c-.76-1.1-1.52-2.21-2.27-3.32-.08-.12-.18-.32-.14-.39a.62.62,0,0,1,.41-.18c.36,0,.72,0,1.09-.06Z"/><path class="cls-1" d="M20.51,27.88c1.53,0,3.05,0,4.58,0,.34,0,.46.09.46.44,0,1.13,0,1.13-1.12,1.13H15.94c-.5,0-.51,0-.51-.5,0-1.07,0-1.07,1.06-1.07Z"/><path class="cls-1" d="M3.16,22.89a2.08,2.08,0,0,0,.34,0,15.52,15.52,0,0,0,3.65,4.86h0a19.26,19.26,0,0,0,2.9,1.8l.06,0a4.8,4.8,0,0,0,3.43.18,5.72,5.72,0,0,0,.65-.25,3,3,0,0,1,0-.58v-.07c0-.13,0-.26,0-.38a9.62,9.62,0,0,1-1.68.54,1.93,1.93,0,0,1-.83,0,9.76,9.76,0,0,1-4.48-2.37h0a12.7,12.7,0,0,1-1.38-1.48l0-.05a5.93,5.93,0,0,1-.41-.56A9.05,9.05,0,0,1,4.06,21a16.34,16.34,0,0,1-.31-6,4,4,0,0,1,.09-.43c0-.1.06-.2.08-.27L4.07,14a2.23,2.23,0,0,1,.77-1c.34-.28.7-.54,1-.83a7.84,7.84,0,0,0,2-3.1A7.61,7.61,0,0,1,8.94,7a3.71,3.71,0,0,1,4.27-1,5.92,5.92,0,0,1,2.56,1.72,2.75,2.75,0,0,0,1,.76,4.69,4.69,0,0,1,3.1,3.4,19.55,19.55,0,0,1,.65,5.22,16.09,16.09,0,0,1-.47,4.1,3.63,3.63,0,0,1,.54.13l.38.12c.1-.58.18-1.11.31-1.63a.73.73,0,0,1,.47-.44c.34-.07.61-.14.6-.54s-.28-.47-.72-.44l-.2,0,.06-1.26a1.5,1.5,0,0,1,1.32.7,2,2,0,0,1,.27,1.61,3.41,3.41,0,0,1-1.53,2.16l1.14.35A4.39,4.39,0,0,0,24,19.69a3.06,3.06,0,0,0-.42-2.46.85.85,0,0,1-.1-.55A25.28,25.28,0,0,0,24,11.31a8.72,8.72,0,0,0-.85-4,14.65,14.65,0,0,0-4.24-4.95A10.79,10.79,0,0,0,9,.49a13.52,13.52,0,0,0-6.84,5,9.33,9.33,0,0,0-2,5.62,26.44,26.44,0,0,0,.44,5.26,1.21,1.21,0,0,1-.15,1A2.54,2.54,0,0,0,0,19.26a4.18,4.18,0,0,0,2.14,3.21,5.56,5.56,0,0,0,.79.36M1,18.5a1.6,1.6,0,0,1,1.63-1.38l.06,1.23a1.59,1.59,0,0,0-.62,0,.64.64,0,0,0-.32.47.61.61,0,0,0,.38.42c.61.16.65.17.76.79s.22,1.17.34,1.76c0,0,0,0-.06,0A3.23,3.23,0,0,1,1,18.5Z"/><path class="cls-1" d="M21,15.32a.4.4,0,0,1-.35.06,11.63,11.63,0,0,0-3.38-.21c-.46,0-.93.11-1.39.11a.61.61,0,0,1-.47-.23c-.12-.22,0-.39.27-.48a4.87,4.87,0,0,1,2.79-.26c.8.16,1.59.43,2.37.67a.37.37,0,0,1,.2.29S21.07,15.3,21,15.32Z"/><path class="cls-1" d="M18.15,19A2.87,2.87,0,0,1,16,18.91l-.26-.12a.38.38,0,0,1-.12-.36.44.44,0,0,1,.37-.2,3.7,3.7,0,0,0,2.44-.34,1.88,1.88,0,0,1,.64-.2,1.78,1.78,0,0,1,.71.18.13.13,0,0,1,.05.05.26.26,0,0,1-.13.37l-.07,0a5,5,0,0,0-.73.28A5,5,0,0,1,18.15,19Z"/><path class="cls-1" d="M14.15,22a2.15,2.15,0,0,1-2.23,0h0a.41.41,0,0,1-.09-.66.43.43,0,0,1,.64,0,.81.81,0,0,0,1.15,0,.43.43,0,0,1,.64,0,.41.41,0,0,1-.09.66Z"/><path class="cls-1" d="M13,27a2.67,2.67,0,0,1-.73-.26.67.67,0,0,1-.19-.54c0-.26.26-.33.52-.32a6.76,6.76,0,0,1,.85,0,.83.83,0,0,1,.53.31.4.4,0,0,1-.26.58C13.49,26.88,13.25,26.92,13,27Z"/><path class="cls-1" d="M7.9,19A2.87,2.87,0,0,0,10,18.91l.26-.12a.38.38,0,0,0,.12-.36.44.44,0,0,0-.37-.2,3.7,3.7,0,0,1-2.44-.34,1.88,1.88,0,0,0-.64-.2,1.78,1.78,0,0,0-.71.18.13.13,0,0,0-.05.05.26.26,0,0,0,.13.37l.07,0a5,5,0,0,1,.73.28A5,5,0,0,0,7.9,19Z"/><path class="cls-1" d="M5.09,15.32a.4.4,0,0,0,.35.06,11.63,11.63,0,0,1,3.38-.21c.46,0,.93.11,1.39.11a.61.61,0,0,0,.47-.23c.12-.22,0-.39-.27-.48a4.87,4.87,0,0,0-2.79-.26c-.8.16-1.59.43-2.37.67a.37.37,0,0,0-.2.29S5.07,15.3,5.09,15.32Z"/><path class="cls-1" d="M15.09,24c-.17,0-1,.19-1.19.08a1.33,1.33,0,0,0-.95,0,.27.27,0,0,1-.22,0,1.33,1.33,0,0,0-.95,0c-.2.11-1-.11-1.19-.08s-.66.45,0,.7a3.31,3.31,0,0,0,1.6.14,1.51,1.51,0,0,0,.6.22h0a1.51,1.51,0,0,0,.6-.22,3.31,3.31,0,0,0,1.6-.14C15.75,24.49,15.26,24.06,15.09,24Z"/><path class="cls-1" d="M10.13,29.62l-.07,0,.06,0Z"/><path class="cls-1" d="M3.16,22.89"/></g></g></g></svg>