<svg xmlns="http://www.w3.org/2000/svg" viewBox="0 0 33.69 33.84"><defs><style>.cls-1{fill:#6a625e;}</style></defs><title>Asset 25</title><g id="Layer_2" data-name="Layer 2"><g id="graphic_elements" data-name="graphic elements"><g id="Layer_122" data-name="Layer 122"><path class="cls-1" d="M30.93,26.46l-1.63,2.07-2.58-1.08-1.8,1.44.47,2.73-2.34,1.17-1.88-2.1-2.25.51-.75,2.64H15.53l-.76-2.63-2.25-.53-1.85,2.1L8.3,31.64l.47-2.74L7,27.45,4.41,28.53l-1.66-2,1.64-2.27-1-2.08L.61,22,0,19.43l2.46-1.36v-2.3L0,14.43l.56-2.57,2.79-.16,1-2.06L2.77,7.38,4.38,5.31,7,6.38,8.77,5,8.3,2.23,10.64,1l1.87,2.09,2.26-.5L15.52,0h2.65l.76,2.63,2.25.52L23,1.06,25.4,2.2l-.47,2.74L26.71,6.4l2.55-1.08,1.68,2L29.32,9.64l1,2.07,2.78.14.6,2.56-2.42,1.35v2.33l2.42,1.32L33.11,22l-2.78.15-1,2.07ZM5,16.89A11.88,11.88,0,1,0,16.93,5,11.87,11.87,0,0,0,5,16.89Z"/><path class="cls-1" d="M24.5,24.28H22.76V22.53H20.5v1.73H14.95V19a2.68,2.68,0,0,1,.46,0,2.33,2.33,0,0,0,1.81-.55c.45-.36.95-.65,1.43-1,.12-.08.25-.14.5-.28v1.56l.15.08,2.4-1.6.13.09v1.42l.13.09,2.52-1.66Zm-7-2.82H18.6V20.33H17.46Zm4.53,0V20.33H20.87v1.15Zm-5.07-1.15H15.79v1.14h1.13Zm2.24,1.13h1.13V20.33H19.15Zm3.39,0h1.14V20.33H22.54Z"/><path class="cls-1" d="M14.55,14.93c0,3.1,0,6.2,0,9.33H10.71V14.92A3.23,3.23,0,0,1,14.55,14.93Z"/><path class="cls-1" d="M10.31,19v5.25H9.19V19Z"/><path class="cls-1" d="M17.49,9.77A1.27,1.27,0,0,1,16.74,11a5.86,5.86,0,0,1-1.28.44c-.6.16-1.21.28-1.82.42l.09-.55-2.17.57a1,1,0,0,1,.5-.87,5.23,5.23,0,0,1,1.37-.54,3.7,3.7,0,0,0,2-.9l-.15,1Z"/><path class="cls-1" d="M14.55,13.9a3.91,3.91,0,0,0-3.8,0c-.16-.85,0-1.2.81-1.34a6.83,6.83,0,0,1,2.11,0C14.54,12.68,14.67,13,14.55,13.9Z"/></g></g></g></svg>