<svg xmlns="http://www.w3.org/2000/svg" viewBox="0 0 24.2 35.6"><defs><style>.cls-1{fill:#6a625e;}</style></defs><title>Asset 115</title><g id="Layer_2" data-name="Layer 2"><g id="graphic_elements" data-name="graphic elements"><g id="Layer_134" data-name="Layer 134"><path class="cls-1" d="M8,33.25l-.81-.74a.6.6,0,0,1-.1-.82,3.31,3.31,0,0,0,.54-1.9,3.63,3.63,0,1,1,6.81,1.64,3.52,3.52,0,0,1-2.92,1.86,3.44,3.44,0,0,0-1.9.74.6.6,0,0,1-.79,0Z"/><path class="cls-1" d="M7.85,33.49l.76.69a.4.4,0,0,1,0,.6,5.17,5.17,0,0,1-.42.44.52.52,0,0,1-.61.1.1.1,0,0,0-.08,0l-.29.19a.45.45,0,0,1-.58-.05L6,34.86a.45.45,0,0,1-.1-.57L6,34a.11.11,0,0,0,0-.08.57.57,0,0,1,.08-.69,4.63,4.63,0,0,1,.39-.43.38.38,0,0,1,.55,0Z"/><path class="cls-1" d="M15.62,25.55l-.48.53a.41.41,0,0,1-.68-.43.48.48,0,0,1,.08-.13l1-1a.4.4,0,0,1,.49-.1.39.39,0,0,1,.22.43.6.6,0,0,1-.13.24c-.15.17-.3.34-.46.51Z"/><path class="cls-1" d="M16.31,29.77a.43.43,0,0,1-.16-.47.38.38,0,0,1,.35-.28L18,29a.41.41,0,0,1,0,.81l-1.47.07A.72.72,0,0,1,16.31,29.77Z"/><path class="cls-1" d="M11.37,24.71a.4.4,0,0,1-.43.11.4.4,0,0,1-.28-.37c0-.39,0-.77-.06-1.16,0-.09,0-.18,0-.27a.41.41,0,0,1,.39-.43.4.4,0,0,1,.42.39c0,.48,0,1,.07,1.45A.39.39,0,0,1,11.37,24.71Z"/><path class="cls-1" d="M15.44,34l-.5-.46a.41.41,0,1,1,.55-.6l1,.94a.41.41,0,0,1-.44.68.59.59,0,0,1-.12-.09l-.26-.24Z"/><path class="cls-1" d="M6.63,26l-.51-.47a.41.41,0,1,1,.55-.6l1,1a.41.41,0,0,1-.45.67.61.61,0,0,1-.13-.09Z"/><path class="cls-1" d="M22,20.79l-8-5.17a3.9,3.9,0,0,0,1.72-2.94L24.2,17Z"/><path class="cls-1" d="M2.17,20.79,0,17l8.46-4.35a3.89,3.89,0,0,0,1.73,2.94Z"/><path class="cls-1" d="M13.8,9.43a3.34,3.34,0,0,0-3.4,0L9.93,0h4.33Z"/><path class="cls-1" d="M15.28,12.58a3.18,3.18,0,1,1-3.18-3.18A3.19,3.19,0,0,1,15.28,12.58Zm-3.17,2.29a2.28,2.28,0,0,0,2.29-2.31,2.3,2.3,0,0,0-4.59,0A2.28,2.28,0,0,0,12.11,14.86Z"/><path class="cls-1" d="M12.12,14.48A1.9,1.9,0,1,1,14,12.55,1.92,1.92,0,0,1,12.12,14.48Z"/></g></g></g></svg>