<svg xmlns="http://www.w3.org/2000/svg" viewBox="0 0 29.89 36.14"><defs><style>.cls-1{fill:#6a625e;}</style></defs><title>Asset 73</title><g id="Layer_2" data-name="Layer 2"><g id="graphic_elements" data-name="graphic elements"><g id="Layer_134" data-name="Layer 134"><path class="cls-1" d="M29.86,35c0-1.33.08-2.67,0-4a6.34,6.34,0,0,0-3.74-5.1c-2-1.06-4.25-1.34-6.46-1.92,0,.37,0,.67,0,1a2.81,2.81,0,0,1-1.41,2.95,6.66,6.66,0,0,1-6.59,0,2.48,2.48,0,0,1-1.35-2.4c0-.47,0-.94,0-1.48-.68.15-1.31.28-1.93.44A17.65,17.65,0,0,0,3.4,26.12a6.46,6.46,0,0,0-3.4,6c0,1.36,0,2.71,0,4.07H3.75c0-.51,0-1,0-1.52a.9.9,0,0,1,.92-1,.9.9,0,0,1,.92.95c0,.52,0,1,0,1.57H24.28c0-.54,0-1.08,0-1.61a.89.89,0,0,1,1-.9.9.9,0,0,1,.88,1q0,.76,0,1.53h3.74Q29.86,35.57,29.86,35Z"/><path class="cls-1" d="M26.21,23.76l-5.7-1.54.4-.45a11.65,11.65,0,0,0,2.9-6.66,22.65,22.65,0,0,0,.05-3.63.91.91,0,0,0-1.41-.81c-2.41,1.32-5.13.65-7-1.6a13.14,13.14,0,0,1-.83-1.15,1,1,0,0,0-1.65-.17A5.73,5.73,0,0,1,9.29,9.55a10.14,10.14,0,0,1-1.53-.08.92.92,0,0,0-1.14.84,14.52,14.52,0,0,0,.84,8.42,11.26,11.26,0,0,0,2.28,3.42L4,23.65a28,28,0,0,1-.74-2.83A25.52,25.52,0,0,1,4.09,9.73,18.1,18.1,0,0,1,6.67,4.31C11-1.89,21.29-1.34,24.84,5.54A21.32,21.32,0,0,1,27,12.46a31,31,0,0,1,.27,7.21A13.26,13.26,0,0,1,26.21,23.76Z"/><path class="cls-1" d="M8.27,11.44a7.33,7.33,0,0,0,5.24-1.71c2.2,2.77,4.93,4.11,8.55,3.16a11.2,11.2,0,0,1-.41,3.56,9.55,9.55,0,0,1-3.26,5.14,5.25,5.25,0,0,1-6.53-.08C8.64,18.89,8.06,15.36,8.27,11.44Z"/><path class="cls-1" d="M12.14,23.89a7.11,7.11,0,0,0,5.58.19,9,9,0,0,1,0,1.62,1.14,1.14,0,0,1-.61.68,5.18,5.18,0,0,1-4.3,0,1,1,0,0,1-.65-1C12.16,24.92,12.14,24.47,12.14,23.89Z"/></g></g></g></svg>