<svg xmlns="http://www.w3.org/2000/svg" viewBox="0 0 36.25 36.26"><defs><style>.cls-1{fill:#6a625e;}</style></defs><title>Asset 77</title><g id="Layer_2" data-name="Layer 2"><g id="graphic_elements" data-name="graphic elements"><g id="Layer_134" data-name="Layer 134"><path class="cls-1" d="M36.13,23.2a.4.4,0,0,1-.58,0c-.59-.57-1.19-1.14-1.79-1.7l-3.34-3.12,0,0-1.28-1.18-2.52-2.3-.76-.67h0l-1.94-1.67c-2.64-2.3-6-5.25-8.43-6.32L22,13l.29.29a4.69,4.69,0,0,1,.38.43,3.54,3.54,0,0,1,.66,2.51,6.6,6.6,0,0,1-1.52,3.67,10.14,10.14,0,0,1-3,2.65,5.64,5.64,0,0,1-3.59.78,3.14,3.14,0,0,1-1.8-.85l-5.7-5.63c-.26-.26-.5-.55-.75-.82l-.11.07c.25.51.46,1,.74,1.54a29.44,29.44,0,0,0,3.22,4.33c1.25,1.46,2.49,2.92,3.79,4.35,2.21,2.44,4.44,4.85,6.68,7.27.62.67,1.25,1.32,1.87,2,.21.21.21.42,0,.59a.4.4,0,0,1-.61,0c-.88-.92-1.76-1.84-2.63-2.77-1.2-1.28-2.4-2.56-3.58-3.86s-2.32-2.59-3.47-3.9-2.09-2.4-3.11-3.61a29.12,29.12,0,0,1-2.85-3.88A14.6,14.6,0,0,1,5.67,15a1.28,1.28,0,0,0-.3-.45C3.74,12.89,2.11,11.26.45,9.67A1.3,1.3,0,0,1,.11,8.14,12.87,12.87,0,0,1,1.85,5a14.12,14.12,0,0,1,2.84-2.9A12.12,12.12,0,0,1,8.24.1,1.71,1.71,0,0,1,8.69,0a.91.91,0,0,1,.78.28c1,1,1.94,1.89,2.91,2.83l.15.15.17.17,1.59,1.63.26.26,0,0-.07-.07-.15-.15c2.16.33,5.3,2.82,8.35,5.42l.14.12.14.12L24.44,12l.5.44c.23.21.46.41.69.6l.37.32.36.31,0,0c1.95,1.73,3.88,3.5,5.81,5.28,1.26,1.16,2.5,2.35,3.75,3.52l.18.18A.37.37,0,0,1,36.13,23.2Z"/><path class="cls-1" d="M14.59,5.29l0,0-.26-.26L12.69,3.43l.42.4.8.78.46.45.15.15Z"/><path class="cls-1" d="M22.87,10.6l-.14-.12h0Z"/><path class="cls-1" d="M14.59,5.29l0,0-.26-.26h.09l.15.15Z"/><path class="cls-1" d="M26.37,13.62h0L26,13.32Z"/></g></g></g></svg>