<svg xmlns="http://www.w3.org/2000/svg" viewBox="0 0 37.52 25.82"><defs><style>.cls-1{fill:#6a625e;}</style></defs><title>Asset 105</title><g id="Layer_2" data-name="Layer 2"><g id="graphic_elements" data-name="graphic elements"><g id="Layer_134" data-name="Layer 134"><path class="cls-1" d="M37,8.89a.57.57,0,0,1-.28-.58Q36.85,4.15,37,0l-.67.05,0,1q-.1,3.67-.19,7.33a.43.43,0,0,1-.24.45,1.14,1.14,0,0,0-.13,1.93.58.58,0,0,1,.19.39q-.07,3.23-.16,6.47a1.92,1.92,0,0,1-3.08,1.49,1.89,1.89,0,0,1-.75-1.75l.87,0-1.61-2.53a14.51,14.51,0,0,0-.12,2,6.76,6.76,0,0,0,.06,1.39,2.78,2.78,0,0,0,5.5-.52c.07-2.14.12-4.28.17-6.42a.52.52,0,0,1,.25-.49A1.11,1.11,0,0,0,37,8.89Zm-.65,1.22a.31.31,0,1,1,.32-.3A.31.31,0,0,1,36.38,10.11Z"/><path class="cls-1" d="M30.19,12.94a16.34,16.34,0,0,0-8.38-6.42,1.14,1.14,0,0,1-.75-.64A9.93,9.93,0,0,0,16,1.12l-.1,0-.06,0,1.74,4.78c-.49,0-.95.07-1.4.12a18.88,18.88,0,0,0-7.2,2.52c-.85.49-1.67,1-2.49,1.58a.38.38,0,0,1-.48,0L.66,6.87.33,6.68,0,19.43l.34-.17,5.45-3a.41.41,0,0,1,.54,0A22.42,22.42,0,0,0,14,20.5c1,.28,2,.44,3.09.67l-2,4.65a1.53,1.53,0,0,0,.24-.05A10,10,0,0,0,20.83,21a.55.55,0,0,1,.33-.24,16.36,16.36,0,0,0,9-6.06l-1.52-.93Zm-2.64.35a.6.6,0,1,1,.64-.58A.61.61,0,0,1,27.55,13.29Z"/></g></g></g></svg>