<svg xmlns="http://www.w3.org/2000/svg" viewBox="0 0 33.8 39.21"><defs><style>.cls-1{fill:#6a625e;}</style></defs><title>Asset 50</title><g id="Layer_2" data-name="Layer 2"><g id="graphic_elements" data-name="graphic elements"><g id="Layer_93" data-name="Layer 93"><path class="cls-1" d="M22.42,25.83a12.66,12.66,0,0,0,5.8-7.28c.21-.67.31-1.37.46-2.06l0-1.49c-.14.23-.28.47-.43.69A6.52,6.52,0,0,1,26,17.55c-1.44.82-2.92,1.6-4.31,2.5a12,12,0,0,0-5.78,8.16c-.14.78-.21,1.58-.31,2.37l.11,0,.14-.15a21.65,21.65,0,0,1,2.22-2C19.47,27.53,21,26.69,22.42,25.83Z"/><path class="cls-1" d="M16,6.21c0,.66,0,1.32,0,2,0,0,.05,0,.06,0,.13-.29.27-.58.39-.88A5.22,5.22,0,0,1,19.55,4a.42.42,0,0,0,.18-.37,7.93,7.93,0,0,0-.5-1.81A14.18,14.18,0,0,0,18,0l-.15,0-.57.24a6.09,6.09,0,0,0-2.75,2.14.36.36,0,0,0,0,.56A4.85,4.85,0,0,1,16,6.21Z"/><path class="cls-1" d="M15.05,20.67a2,2,0,0,0,1.25-.52L15.89,20a3.34,3.34,0,0,1-2.21-2.68,6.71,6.71,0,0,1,0-2c.22-1.22.55-2.42.81-3.63a11.34,11.34,0,0,0,.32-1.94,8.47,8.47,0,0,0-3.37-7.26A8.68,8.68,0,0,0,8,.82c.11.32.21.57.28.84a7.68,7.68,0,0,1-.12,3.76C7.8,7,7.37,8.66,7,10.3A8.46,8.46,0,0,0,6.83,14a8,8,0,0,0,4.42,5.87A7,7,0,0,0,15.05,20.67Z"/><path class="cls-1" d="M17.79,7.73A12.5,12.5,0,0,0,16,11.11a14.46,14.46,0,0,0-1.07,5.45,3.29,3.29,0,0,0,2.28,3A4,4,0,0,0,22,17.79,11.14,11.14,0,0,0,23.5,13.5c.21-1.26.39-2.53.62-3.78a8.37,8.37,0,0,1,1.18-3.19C25.63,6,26,5.58,26.5,5c-.86-.1-1.67-.26-2.48-.27A7.4,7.4,0,0,0,17.79,7.73Z"/><path class="cls-1" d="M8.1,19.43A25.12,25.12,0,0,0,4.2,15.76a17,17,0,0,1-4-4.17C.08,12.1,0,12.6,0,13.1a10.74,10.74,0,0,0,1,5.27A15.74,15.74,0,0,0,4.68,23c2.07,1.91,4.38,3.56,6.08,5.85l.14,0c0-1,0-2.07-.08-3.1A11.68,11.68,0,0,0,8.1,19.43Z"/><path class="cls-1" d="M14.83,23.18a1.06,1.06,0,0,0-2.09-.33c-.06.38-1.43,9.25.55,13.7a1.06,1.06,0,1,0,1.94-.86C13.49,31.82,14.81,23.27,14.83,23.18Z"/><path class="cls-1" d="M33.49,24.8a10.49,10.49,0,0,0-.91-.94,1.41,1.41,0,0,0-2,0c-1,1-2,2-3,3a1.29,1.29,0,0,0-.42,1.16.56.56,0,0,1-.23.63,1.58,1.58,0,0,0-.17.16l-1,1.05L23.75,28c-.35-.35-.58-.36-.93,0-1.26,1.25-2.5,2.52-3.77,3.76a3.19,3.19,0,0,0-.95,1.82,10,10,0,0,0,.57,4.73.59.59,0,0,0,.33.29,5.85,5.85,0,0,0,.89.26c.58.13,1.17.23,1.76.34h1.77l.2,0a3.18,3.18,0,0,0,1.75-.86l3.91-3.92a.51.51,0,0,0,0-.82l-1.24-1.24-.73-.72,1.45-1.45a.18.18,0,0,1,.15,0,1.5,1.5,0,0,0,1.51-.48l2.73-2.74a4.37,4.37,0,0,0,.33-.36A1.39,1.39,0,0,0,33.49,24.8Zm-5.33,9.12A.57.57,0,0,0,28,34c-1.07,1.06-2.16,2.11-3.19,3.2a2.84,2.84,0,0,1-2.15.91,10.69,10.69,0,0,1-3.18-.48.23.23,0,0,1-.14-.13,9.12,9.12,0,0,1-.42-3.87,2.24,2.24,0,0,1,.66-1.29c1.11-1.09,2.2-2.2,3.3-3.3.07-.07.14-.16.22-.25l1.69,1.7L23.5,31.78a1.2,1.2,0,0,0-.4,1,1.12,1.12,0,0,0,.72,1A1.07,1.07,0,0,0,25,33.6c.42-.37.81-.78,1.21-1.18a3.08,3.08,0,0,0,.2-.24Zm-.44-4.41-3.2,3.2s-.08.1-.12.11-.2,0-.24,0,0-.16,0-.24,0-.05.07-.08l3.32-3.32.08-.06.24.27Zm5-3.54c-.41.42-1.36,1.34-1.89,1.86l0,0-.11.12-.4.43-.6.6A.45.45,0,0,1,29,29l-.72-.72a.44.44,0,0,1,0-.69l3-3a.44.44,0,0,1,.67,0q.38.36.75.75A.43.43,0,0,1,32.68,26Z"/></g></g></g></svg>