<svg xmlns="http://www.w3.org/2000/svg" viewBox="0 0 32.63 24.56"><defs><style>.cls-1{fill:#6a625e;}.cls-2{fill:#fff;}</style></defs><title>Asset 99</title><g id="Layer_2" data-name="Layer 2"><g id="graphic_elements" data-name="graphic elements"><g id="Layer_134" data-name="Layer 134"><path class="cls-1" d="M31.6,2.44a9.28,9.28,0,0,0-1.74-1.07l0,0,0,0h0l-.55-.21q-.41-.16-.84-.29l-.11,0A18.26,18.26,0,0,0,26.37.32L26.1.25h0A19.8,19.8,0,0,0,15.63,1.4,22.58,22.58,0,0,0,3,11.77a.6.6,0,0,0-.09.28,20.62,20.62,0,0,0-1.7,3.45v0A16.61,16.61,0,0,0,0,20.3a2.16,2.16,0,0,0,1.29,2.26l1,.48a17.32,17.32,0,0,0,7.45,1.52,25.08,25.08,0,0,0,4.83-.48,21.68,21.68,0,0,0,4.57-1.35,19.36,19.36,0,0,0,4.64-2.6,23.82,23.82,0,0,0,8.4-12.79,7.46,7.46,0,0,0,.26-1.4q0-.31.06-.62t.07-.54A2.44,2.44,0,0,0,31.6,2.44ZM7.25,16.72c-.2-.38-.44-.73-.65-1.1a.47.47,0,0,1,.19-.75l.8-.48a.46.46,0,0,1,.73.18l.82,1.35,1.34-.77L9.8,14c-.4-.66-.38-.77.27-1.16l.47-.28c.43-.26.61-.22.86.2l.81,1.33,1.34-.77L12.72,12c-.22-.38-.17-.56.2-.79l.77-.46a.46.46,0,0,1,.73.18c.3.48.59,1,.89,1.46l1.34-.77-.85-1.42c-.23-.39-.18-.59.19-.82l.71-.43c.37-.22.57-.18.8.19l.9,1.48,1.34-.77-.88-1.47c-.25-.41-.2-.59.2-.84l.58-.35c.53-.32.69-.28,1,.24l.85,1.41L22.82,8l-.73-1.21c-.08-.14-.17-.27-.25-.41A.45.45,0,0,1,22,5.75c.29-.19.6-.37.91-.55a.45.45,0,0,1,.68.19L24.3,6.6a1.49,1.49,0,0,0,.54.6c.17.09.24.38.34.59s.1.39.19.56c.19.35.41.68.61,1a.46.46,0,0,1-.18.73l-.8.48c-.35.2-.54.15-.75-.19l-.8-1.31-1.34.77.75,1.26c.25.43.21.62-.21.87l-.6.36c-.48.29-.65.24-.93-.22l-.76-1.26L19,11.62,19.83,13c.23.39.18.57-.21.81l-.77.46a.44.44,0,0,1-.7-.18c-.29-.47-.58-.95-.88-1.44l-1.34.77.85,1.41c.22.38.17.58-.19.8l-.74.45c-.35.21-.56.16-.78-.19l-.89-1.46-1.34.77.89,1.47c.22.37.17.56-.2.79l-.77.46a.46.46,0,0,1-.73-.18c-.31-.5-.61-1-.93-1.54L9.75,17l.86,1.43c.3.49.26.65-.24,1l-.69.41A.46.46,0,0,1,9,19.57c-.29-.47-.57-1-.87-1.42A.39.39,0,0,0,7.85,18a.75.75,0,0,1-.59-.93A.49.49,0,0,0,7.25,16.72Zm22.45-4a31.47,31.47,0,0,0-2.17-5.13l-.59-1.08L29.7,4.88l1.94,3.73A24.41,24.41,0,0,1,29.69,13,.6.6,0,0,0,29.7,12.68ZM26.18.48A27.49,27.49,0,0,1,29.57,4.8L26.89,6.34l-.07-.06-.26-.41A23.09,23.09,0,0,0,21.8.37a1,1,0,0,0-.19-.12A18.49,18.49,0,0,1,26.18.48ZM2.93,12.34A43,43,0,0,0,5.7,18.1l.18.32L3.24,19.95a20.18,20.18,0,0,1-2-4.15A20.31,20.31,0,0,1,2.93,12.34ZM6.37,24.09a27.86,27.86,0,0,1-3.05-4L6,18.54l.23.35a21.71,21.71,0,0,0,4.53,5.41l.05,0A20.75,20.75,0,0,1,6.37,24.09Z"/><path class="cls-2" d="M26,9.36c-.2-.34-.42-.67-.61-1a1.37,1.37,0,0,1-.1-.29l.07,0a.31.31,0,0,0,.12-.43L25.14,7a.31.31,0,0,0-.43-.12L24.59,7a2.43,2.43,0,0,1-.28-.4l-.73-1.21a.45.45,0,0,0-.68-.19c-.31.17-.61.35-.91.55a.45.45,0,0,0-.15.67c.08.14.17.27.25.41L22.81,8l-.62.36-.06,0-.66.38L20.63,7.4c-.31-.52-.47-.56-1-.24l-.58.35c-.4.25-.45.43-.2.84l.88,1.47-1.34.77-.9-1.48c-.23-.37-.42-.41-.8-.19L16,9.34c-.38.23-.42.43-.19.82l.85,1.42-1.34.77c-.3-.5-.59-1-.89-1.46a.46.46,0,0,0-.73-.18l-.77.46c-.37.23-.42.42-.2.79l.84,1.39-1.34.77-.81-1.33c-.26-.42-.43-.46-.86-.2l-.47.28c-.65.39-.67.5-.27,1.16l.66,1.1-1.34.77L8.3,14.57a.46.46,0,0,0-.73-.18l-.8.48a.47.47,0,0,0-.19.75c.22.37.45.73.65,1.1a.46.46,0,0,1,0,.27L7,17.14a.31.31,0,0,0-.12.43l.31.53a.31.31,0,0,0,.43.12L8,18a.34.34,0,0,1,.14.11c.3.47.58.95.87,1.42a.46.46,0,0,0,.71.18l.69-.41c.5-.3.54-.46.24-1L9.77,17l.38-.22a.31.31,0,0,0,.11-.11l.83-.48c.33.54.62,1,.93,1.54a.46.46,0,0,0,.73.18l.77-.46c.37-.23.42-.42.2-.79l-.89-1.47,1.34-.77.89,1.46c.21.34.42.39.78.19l.74-.45c.36-.22.41-.42.19-.8l-.85-1.41,1.34-.77c.3.5.58,1,.88,1.44a.44.44,0,0,0,.7.18l.77-.46c.4-.24.45-.42.21-.81L19,11.62l1.34-.77.76,1.26c.28.47.45.51.93.22l.6-.36c.41-.25.46-.44.21-.87l-.75-1.26.61-.35.1,0,.64-.37.79,1.29c.21.34.4.39.75.19l.8-.48A.46.46,0,0,0,26,9.36Z"/></g></g></g></svg>