<svg xmlns="http://www.w3.org/2000/svg" viewBox="0 0 39.18 32.79"><defs><style>.cls-1{fill:#6a625e;}</style></defs><title>Asset 19</title><g id="Layer_2" data-name="Layer 2"><g id="graphic_elements" data-name="graphic elements"><g id="Layer_124" data-name="Layer 124"><path class="cls-1" d="M22.69,7.78c.27-.16.15-.3-.09-.43l-.06,0-.67.4.06,0A.7.7,0,0,0,22.69,7.78Z"/><path class="cls-1" d="M19.22,7.17a1.5,1.5,0,0,0,1.45-.06c.36-.21.47-.57,0-.82a1.51,1.51,0,0,0-1.4,0C19,6.53,18.72,6.89,19.22,7.17Z"/><path class="cls-1" d="M19.09,9.47a1.52,1.52,0,0,0-1.41,0c-.34.2-.59.56-.08.84A1.51,1.51,0,0,0,19,10.28C19.4,10.07,19.51,9.71,19.09,9.47Z"/><path class="cls-1" d="M16.92,8.56c.22-.13.15-.25,0-.35l-.06,0-.58.34.06,0A.55.55,0,0,0,16.92,8.56Z"/><path class="cls-1" d="M1.94,23.19,4.48,24l6,2,4.89,1.66c1.16.4,2.33.77,3.49,1.18a13.52,13.52,0,0,0,1.4.45c.06,0,3.09-3,4.53-4.44L30,19.8l7.77-7.63c.13-.13,1.11-1.08,1.36-1.35a9.71,9.71,0,0,0,0-1.23A.21.21,0,0,0,39,9.33L38,9a.46.46,0,0,0,.33-.47,1.11,1.11,0,0,0,0-.14,1.54,1.54,0,0,1,0-.37.3.3,0,0,0-.18-.33L25,.06a.32.32,0,0,0-.37,0L19.21,3.23,4.43,11.9.18,14.4c-.07,0-.18.07-.18.19a.16.16,0,0,1,0,0c0,.13,0,.27,0,.4a2.33,2.33,0,0,0,0,.52V17.3a1.66,1.66,0,0,0,0,.33c0,.17,0,.34,0,.51a.3.3,0,0,0,.19.32c.76.43,1.52.88,2.28,1.32l-.19.2c-.45.46-.94.89-1.36,1.37a5.74,5.74,0,0,0,0,.67c0,.24,0,.48,0,.72,0,.69,0,1.37,0,2.06a3,3,0,0,0,0,.45c0,.25,0,.49,0,.74s.05.24.22.3l5.54,1.87L20.1,32.73c.07,0,.15.11.23,0l.2-.18,8.4-8.25,10.11-9.93a.36.36,0,0,0,.13-.28c0-.36,0-.72,0-1.09,0-.07,0-.16-.08-.19l-.83-.29a2,2,0,0,0,0,.72.67.67,0,0,1-.25.62c-.05,0-.53.51-1.1,1.06l-1.63,1.6-.14.14-2.59,2.53-.08.07L29.78,22l-.31.31-2.6,2.55-.36.35c-1.75,1.73-5.42,5.25-5.48,5.31l-.66.66c-.07.07-.14.14-.26.11l-.16,0c-.91-.34-1.85-.63-2.77-.95l-8.82-3L3.47,25.63c-.51-.17-1-.36-1.53-.52a.34.34,0,0,1-.28-.38c0-.45,0-.89,0-1.34C1.67,23.11,1.69,23.1,1.94,23.19Zm27-12.7-.35,1.58h0L30,11.2l.43.25-2.21,1.33-.31-.18L28.29,11h0l-1.48.88-.44-.25,2.24-1.34ZM27.4,9.62c.38.22.52.52.36.82l-.59-.1a.34.34,0,0,0-.17-.5,1.55,1.55,0,0,0-1.41.11c-.36.22-.56.58-.13.82a1.15,1.15,0,0,0,1,0L26,10.49l.35-.21,1,.55-.06,0a2.23,2.23,0,0,1-2.19.12c-.66-.38-.54-.94.07-1.3A2.39,2.39,0,0,1,27.4,9.62ZM25.46,13a.57.57,0,0,0-.52,0c-.37.22.68.63-.05,1.07a1.53,1.53,0,0,1-1.49,0,.47.47,0,0,1-.27-.64h.56a.26.26,0,0,0,.09.42.64.64,0,0,0,.6,0c.23-.14.08-.3,0-.43s-.24-.44.09-.64a1.41,1.41,0,0,1,1.31,0,.68.68,0,0,1,.37.49l-.5.06A.25.25,0,0,0,25.46,13Zm-3-.67-1,.59L21,12.67l2.2-1.31.44.25-.93.55h0L24.33,12l.54.31L23,12.43l-.27,1.22-.57-.32.26-1ZM19.6,10.62a2.42,2.42,0,0,1,2.3-.05c.68.38.63.94,0,1.33a2.42,2.42,0,0,1-2.3.06C18.87,11.56,18.95,11,19.6,10.62Zm-2.43,0c-.71-.4-.63-1,0-1.35a2.44,2.44,0,0,1,2.32,0c.69.39.63.95,0,1.34A2.43,2.43,0,0,1,17.17,10.61ZM26,8.91l-2.19,1.31L23.4,10l2.2-1.31Zm-.73-.42-.37.22-.73-.42-.48.29.7.4L24,9.21l-.7-.4-.59.35.73.42-.37.22-1.18-.67,2.21-1.31ZM23,7.2c.45.26.57.55.1.83a1.29,1.29,0,0,1-1.08.09L21.78,9l-.54-.31.33-.85h0l-.89.53-.45-.25,2.22-1.32ZM21.14,6c.69.39.63,1,0,1.34a2.42,2.42,0,0,1-2.32,0c-.71-.4-.63-1,0-1.35A2.42,2.42,0,0,1,21.14,6ZM18.62,4.66l1.15.66-.38.22-.7-.4-.49.29.66.38L18.48,6l-.66-.38-1,.58L16.37,6Zm-1.91,3,.57.32c.43.24.53.49.09.75a1.05,1.05,0,0,1-.64.14c.23.18.09.41-.16.56a1.38,1.38,0,0,1-1.39,0L14.46,9ZM.43,17.51c0-.1,0-.16,0-.24q0-.64,0-1.29a.5.5,0,0,0,0-.18l3.44,2,6,3.44,3.37,1.94a.76.76,0,0,0,.47.17.76.76,0,0,0,.16-.08l7.65-4.49,5.09-3,8.49-5c.86-.5,1.72-1,2.59-1.51a3,3,0,0,0,0,1l0,0a.9.9,0,0,0,0,.68l-4.06,2.38-6,3.54-3.22,1.89-5.58,3.27-3.36,2c-.58.34-1.17.68-1.75,1l-.05.06a.78.78,0,0,0-.27-.18l-1.39-.8-5.25-3Z"/><path class="cls-1" d="M20,11.7a1.49,1.49,0,0,0,1.43-.08c.36-.21.47-.57,0-.8a1.52,1.52,0,0,0-1.39,0C19.74,11.07,19.5,11.42,20,11.7Z"/><path class="cls-1" d="M16.15,9.2c.29-.17.06-.32-.18-.45l-.07,0-.62.37.09.06A.71.71,0,0,0,16.15,9.2Z"/></g></g></g></svg>