<svg xmlns="http://www.w3.org/2000/svg" viewBox="0 0 38.16 24.31"><defs><style>.cls-1{fill:#6a625e;}</style></defs><title>Asset 44</title><g id="Layer_2" data-name="Layer 2"><g id="graphic_elements" data-name="graphic elements"><g id="Layer_134" data-name="Layer 134"><path class="cls-1" d="M2.52,24.31v-.45h7.7v.45Z"/><path class="cls-1" d="M27.9,24.31v-.45h7.64v.45Z"/><path class="cls-1" d="M0,2.92V2.12c.15,0,.28,0,.4,0H37.69c.31,0,.48.07.47.43S38,3,37.7,3s-.75,0-1.12,0H.56Z"/><path class="cls-1" d="M0,1.67V.09A2.25,2.25,0,0,1,.4,0H37.69c.31,0,.48.14.47.84s-.13.91-.46.88-.75,0-1.12,0H.56C.38,1.72.21,1.69,0,1.67Z"/><path class="cls-1" d="M30.63,13.23a.56.56,0,0,0-.61-.57H29V13.8h1A.56.56,0,0,0,30.63,13.23Z"/><path class="cls-1" d="M37.76,3.29H.31c0,.11,0,.18,0,.25q0,9.19,0,18.38A1.52,1.52,0,0,0,1.93,23.5H36.12a1.53,1.53,0,0,0,1.66-1.66q0-9.08,0-18.17C37.78,3.55,37.77,3.43,37.76,3.29ZM28.32,12H30a1.19,1.19,0,0,1,1.29,1.19,1.06,1.06,0,0,1-.9,1.12l1.08,1.22v0h-.77l-1-1.2H29v1.2h-.67Zm-3.6,0h2.68v.65h-2v.82h1.94v.63H25.38v.81h2v.66H24.71ZM23.88,15v.64H21.09v-.39l1.81-2.57H21.18V12h2.7v.32L22,15Zm-.45-9.48a1.17,1.17,0,0,1-1.19,1.21q-3.19,0-6.39,0a1.16,1.16,0,0,1-1.17-1.21Zm-3.08,8v.63H18.41v.81h2v.66H17.74V12h2.68v.65h-2v.82ZM14.14,12h2.68v.65h-2v.82h1.94v.63H14.81v.81h2v.66H14.14Zm-3.92,0h1.7a1.19,1.19,0,0,1,1.29,1.19,1.06,1.06,0,0,1-.9,1.12l1.08,1.22v0h-.77l-1-1.2h-.68v1.2h-.67ZM6.81,12H9.38v.65H7.48v1H9.28v.62H7.48V15.6H6.81ZM36.39,23.09a2.14,2.14,0,0,1-.32,0H2a1.25,1.25,0,0,1-1.11-.48,1.21,1.21,0,0,1-.09-.19H37.26A1.06,1.06,0,0,1,36.39,23.09Z"/><path class="cls-1" d="M12.53,13.23a.56.56,0,0,0-.61-.57h-1V13.8h1A.56.56,0,0,0,12.53,13.23Z"/></g></g></g></svg>