<svg xmlns="http://www.w3.org/2000/svg" viewBox="0 0 36.25 17.9"><defs><style>.cls-1{fill:#6a625e;}</style></defs><title>Asset 58</title><g id="Layer_2" data-name="Layer 2"><g id="graphic_elements" data-name="graphic elements"><g id="Layer_134" data-name="Layer 134"><path class="cls-1" d="M18.09,9.64l.84,1.41a.35.35,0,0,0,0,.08l.12.09s.05-.1,0-.14c-.07-.32-.15-.63-.23-.95s-.13-.49-.2-.73l-.08,0,.06,0c1.41-.63,2.83-1.25,4.24-1.88a1.08,1.08,0,0,1,1.15.12A4.78,4.78,0,0,1,26,13.32a.84.84,0,0,1-.58.58L24,14.36a.55.55,0,0,0,0-.16c-.17-.38-.34-.76-.52-1.14,0,0-.09-.07-.14-.1a.59.59,0,0,0,0,.17c.07.45.15.89.23,1.38l-6.18,1.59a3,3,0,0,0-.1-.3c-.15-.34-.31-.67-.47-1,0,0-.1-.08-.15-.11a.62.62,0,0,0,0,.17c.07.44.15.88.22,1.33l-.15,0-5.94,1.25c-.14,0-.19,0-.25-.14-.12-.29-.26-.56-.4-.84,0,0-.09-.07-.14-.11a.53.53,0,0,0,0,.17c.06.33.12.67.18,1l-.06,0a17.69,17.69,0,0,1-3.23.31,2.67,2.67,0,0,1-.7-.11.65.65,0,0,1-.36-1,3.12,3.12,0,0,1,.53-.59A14.13,14.13,0,0,1,8.5,14.65c1.09-.63,2.2-1.23,3.3-1.85l.11,0c.18.31.35.62.54.93a1.16,1.16,0,0,0,.17.18.77.77,0,0,0,0-.24c-.08-.36-.18-.73-.28-1.13Z"/><path class="cls-1" d="M31.19,14.3c-.17.43-.42.47-.72.15a1.58,1.58,0,0,1-.33-.72c0-.07,0-.15-.05-.22h0c-.36.26-.65.18-.77-.25a4.91,4.91,0,0,1-.09-.74h0a.42.42,0,0,1-.6-.39,1.13,1.13,0,0,1,0-.31c.1-.49,0-.66-.44-1a2,2,0,0,0-1.4-.25l-.15,0-.51-1.42L26.36,9a1.91,1.91,0,0,0,.85-1.26A.65.65,0,0,0,27,7.12c-.07-.06-.15-.12-.21-.18a.91.91,0,0,1-.16-.21c-.15-.29,0-.52.3-.64a1.66,1.66,0,0,1-.21-.24,2.42,2.42,0,0,1-.27-.55c-.08-.29.09-.49.39-.51h.13l-.2-.44a1.12,1.12,0,0,1-.09-.66c.06-.33.25-.42.55-.27l.07,0c0-.15.07-.3.11-.44a1.11,1.11,0,0,1,.39-.58.59.59,0,0,1,.79,0,1.74,1.74,0,0,1,.52.81c.48-.1.67.11.63.65a1.39,1.39,0,0,1,.37.18.49.49,0,0,1,.09.46c0,.17-.08.33-.13.51.22.12.17.32.11.52a8.53,8.53,0,0,1-1,2.09A6.15,6.15,0,0,1,28.1,8.9a.13.13,0,0,0,0,.06,7.54,7.54,0,0,0,1.35-.8l.38-.31a1.8,1.8,0,0,0,.61-1.12,1.24,1.24,0,0,1,.19-.52c.26-.35.61-.3.79.1l0,.07a4.6,4.6,0,0,1,.32-.5,2.79,2.79,0,0,1,.48-.47.71.71,0,0,1,.39-.11c.31,0,.48.16.52.5l.16-.17a1.67,1.67,0,0,1,.81-.52c.59-.15,1.08.14.88.86l.16,0a1.25,1.25,0,0,1,.74.07.59.59,0,0,1,.27.9,1.53,1.53,0,0,1-.27.31,3.36,3.36,0,0,1-.35.24l.14.12a.57.57,0,0,1,0,.91,1.26,1.26,0,0,1-.87.32c-.2,0-.39,0-.6,0a.43.43,0,0,1,.07.5.69.69,0,0,1-.51.37,1.83,1.83,0,0,1-1-.14l-.28-.1c0,.08,0,.15,0,.21a.38.38,0,0,1-.37.47.73.73,0,0,1-.56-.19l-.35-.28a1.59,1.59,0,0,0-1-.3,7.42,7.42,0,0,0-2,.22l-.08,0,.45,0a7.8,7.8,0,0,1,2.77.9,6.85,6.85,0,0,1,.65.39c.14.1.25.23.17.42.15.11.3.21.43.32a.84.84,0,0,1,.19.26c.09.19,0,.34-.17.5.13.14.31.26.29.49a.43.43,0,0,1-.34.43,1.7,1.7,0,0,1,.12,1,.59.59,0,0,1-.63.49,1.38,1.38,0,0,1-.88-.37Zm-3-4.27c.37.17.71.31,1,.49a6,6,0,0,1,2.17,2.19.8.8,0,0,0,.1.15s.08,0,.1,0a.13.13,0,0,0,.06-.1.8.8,0,0,0-.08-.23,4.83,4.83,0,0,0-2.23-2.15A4.31,4.31,0,0,0,28.18,10Zm-.52-1.36.13-.15a4.88,4.88,0,0,0,.87-4c0-.09,0-.23-.17-.2s-.07.15-.06.24,0,0,0,.07a6.39,6.39,0,0,1,0,2.13A5.78,5.78,0,0,1,27.66,8.68ZM28.78,9l.13,0c.69-.22,1.38-.44,2.06-.67s1.4-.51,2.11-.77a1.87,1.87,0,0,0,.24-.14A25.08,25.08,0,0,0,28.78,9Z"/><path class="cls-1" d="M11.94,5.05a4.14,4.14,0,0,1,.78-1.81L12.95,3l-.06-.1a2.72,2.72,0,0,0-2.81-1.37,1.08,1.08,0,0,1-.71-.14,2.78,2.78,0,0,0-3.27.2c-.21.16-.38.36-.57.54A3.13,3.13,0,0,0,1.62,5.32C0,6.49-.31,7.38.28,9.3a2.9,2.9,0,0,0,1.49,3.9c1.5.62,2.85,0,3.85-1.71l.4.11A7.1,7.1,0,0,1,8.56,13l.5.44,1.89-1,1.11-.58.13-.06,0,0h0v0l.21-.1a13.67,13.67,0,0,1-1-2,6.57,6.57,0,0,1-.59-2.49L11.29,7a2.6,2.6,0,0,0,.53-.21q0-.24,0-.48A7.94,7.94,0,0,1,11.94,5.05Zm-4.7,5.65.52-.62L9.32,12ZM9,9l.71-.39.87,2.31Z"/><path class="cls-1" d="M24,6.52l-2.53,1L20,8.17l-.15.08,0,0-5.6,2.61a6.17,6.17,0,0,1-1.82-4.45,7.22,7.22,0,0,1,.12-1.19,3.51,3.51,0,0,1,.66-1.53A3.66,3.66,0,0,1,16.7,2.37l1.17.17.07-.66A3.22,3.22,0,0,1,14.19.42c1.12-.7,2.68-.36,4,.81L19.36,0l.36.64a2,2,0,0,0-1.13,1.83h.35a15,15,0,0,1,2.07,0,3.34,3.34,0,0,1,3,3.12A6.91,6.91,0,0,1,24,6.52Z"/></g></g></g></svg>