<svg xmlns="http://www.w3.org/2000/svg" viewBox="0 0 37.52 27.44"><defs><style>.cls-1{fill:#6a625e;}</style></defs><title>Asset 47</title><g id="Layer_2" data-name="Layer 2"><g id="graphic_elements" data-name="graphic elements"><g id="Layer_134" data-name="Layer 134"><path class="cls-1" d="M35.43.27a3,3,0,0,0,0,.36H30.62a.26.26,0,0,1,0-.07c0-.69-.09-.55.52-.55h4C35.38,0,35.46.06,35.43.27Z"/><path class="cls-1" d="M29.22.24c0,.12,0,.25,0,.38H24.4V0l.22,0H29C29.18,0,29.24.07,29.22.24Z"/><path class="cls-1" d="M7,.3V.62H2.19c0-.62,0-.62.53-.62h4C7,0,7,0,7,.3Z"/><path class="cls-1" d="M13.56.62H8.74c0-.62,0-.62.53-.62h4c.28,0,.28,0,.28.29C13.56.4,13.56.5,13.56.62Z"/><path class="cls-1" d="M22.79.29a2.82,2.82,0,0,0,0,.34H18V0h4.54C22.74,0,22.82.07,22.79.29Z"/><path class="cls-1" d="M36.69,2H.81c0-.11,0-.21,0-.3a.45.45,0,0,1,.39-.44,1.75,1.75,0,0,1,.26,0H36C36.6,1.22,36.75,1.38,36.69,2Z"/><path class="cls-1" d="M.81,2.43V6.13H36.7V2.43Zm3.52,3A1.18,1.18,0,1,1,5.51,4.25,1.18,1.18,0,0,1,4.33,5.44Zm3.5,0A1.18,1.18,0,0,1,6.65,4.25,1.18,1.18,0,1,1,9,4.26,1.18,1.18,0,0,1,7.83,5.44Zm3.5,0a1.18,1.18,0,1,1,1.19-1.18A1.17,1.17,0,0,1,11.33,5.44Zm6.52-.37a.62.62,0,0,1-.68.69H13.81A.64.64,0,0,1,13.08,5q0-.84,0-1.67a.63.63,0,0,1,.69-.7h3.39a.62.62,0,0,1,.69.7C17.85,3.93,17.85,4.5,17.85,5.07Zm1.54.37a1.18,1.18,0,0,1,0-2.37,1.2,1.2,0,0,1,1.18,1.2A1.19,1.19,0,0,1,19.39,5.44Zm3.51,0a1.18,1.18,0,1,1,1.16-1.19A1.17,1.17,0,0,1,22.9,5.44Zm3.27,0a1.18,1.18,0,0,1,0-2.37,1.18,1.18,0,1,1,0,2.37Zm3.53,0a1.18,1.18,0,0,1,0-2.37,1.18,1.18,0,0,1,0,2.37Zm3.26,0a1.17,1.17,0,0,1-1.18-1.19,1.18,1.18,0,0,1,1.17-1.18,1.18,1.18,0,1,1,0,2.37Z"/><path class="cls-1" d="M.82,6.74V23.88H36.7V6.74Zm15,15.64a.88.88,0,0,1-.95.95H2.61a.86.86,0,0,1-.94-1q0-3.46,0-6.93c0-2.29,0-4.59,0-6.88a.94.94,0,0,1,1-1H14.9a.89.89,0,0,1,1,.95Q15.85,15.44,15.85,22.37Zm20.09-.21a1.13,1.13,0,0,1-1.15,1.16h-17a1.1,1.1,0,0,1-1.23-1.23c0-4.43,0-8.86,0-13.28a1.19,1.19,0,0,1,1.26-1.27q8.5,0,17,0a1.15,1.15,0,0,1,1.18,1.16Q35.92,15.44,35.94,22.17Z"/><path class="cls-1" d="M36.7,26.18a.45.45,0,0,1-.44.45H1.45A.83.83,0,0,1,1,26.55a.48.48,0,0,1-.21-.33c0-.57,0-1.14,0-1.74h35.9c0,.3,0,.6,0,.9S36.71,25.91,36.7,26.18Z"/><path class="cls-1" d="M17.74,8.14c-.47,0-.65.18-.65.65V22c0,.07,0,.13,0,.2a.5.5,0,0,0,.46.51,2.23,2.23,0,0,0,.31,0h16.8c.53,0,.7-.17.7-.69V8.79c0-.49-.17-.65-.66-.65H26.25m7,11.35a1.29,1.29,0,0,1-1.38,1.37H20.75a1.29,1.29,0,0,1-1.34-1.34q0-3.56,0-7.13A1.3,1.3,0,0,1,20.78,11H31.89a1.29,1.29,0,0,1,1.35,1.36Zm.93-9.2c0,.24-.07.3-.3.31h-.4c-.28,0-.34-.06-.36-.35,0,0,0-.07,0-.12H19.26s0,0,0,0c0,.41,0,.42-.47.42-.6,0-.6,0-.6-.61,0-.25,0-.5,0-.75s.08-.3.31-.31h.35c.32,0,.35,0,.43.34H33.07c.12-.34.12-.34.5-.34.6,0,.6,0,.6.61C34.17,9.8,34.17,10,34.17,10.29Z"/><path class="cls-1" d="M14.79,8.14H2.67c-.35,0-.43.08-.43.43q0,3.44,0,6.88t0,6.84c0,.39.07.46.46.46h12.1c.36,0,.45-.09.45-.45q0-6.84,0-13.68C15.26,8.21,15.19,8.14,14.79,8.14Zm-1,11.46a1.17,1.17,0,0,1-1.26,1.26H8.74c-1.26,0-2.52,0-3.78,0a1.22,1.22,0,0,1-1.27-1.28q0-3.64,0-7.28A1.24,1.24,0,0,1,5,11c2.52,0,5,0,7.57,0a1.18,1.18,0,0,1,1.27,1.27Q13.83,15.95,13.83,19.6Zm.87-9.25a.24.24,0,0,1-.27.25H14c-.28,0-.33-.06-.35-.33,0,0,0-.07,0-.13H4c0,.07,0,.13,0,.2a.25.25,0,0,1-.27.26H3.16a.24.24,0,0,1-.26-.26c0-.38,0-.76,0-1.14a.24.24,0,0,1,.27-.25h.4c.32,0,.34,0,.42.34h9.63c.07-.31.1-.34.4-.34h.4a.25.25,0,0,1,.28.26C14.7,9.58,14.7,10,14.69,10.35Z"/><path class="cls-1" d="M17.42,5c0,.21-.09.29-.29.29h-3.3c-.26,0-.31-.06-.31-.31q0-.81,0-1.63c0-.25.05-.3.3-.3h3.3c.24,0,.3.06.3.3C17.42,3.94,17.41,4.49,17.42,5Z"/><path class="cls-1" d="M32.66,12.47q0,3.5,0,7a.74.74,0,0,1-.81.82h-11a.75.75,0,0,1-.84-.84q0-3.5,0-7a.75.75,0,0,1,.84-.84h11A.75.75,0,0,1,32.66,12.47Z"/><path class="cls-1" d="M13.24,19.58c0,.49-.22.71-.71.71H5c-.48,0-.69-.22-.69-.7V12.33c0-.51.21-.72.72-.72h7.52c.51,0,.73.21.73.71Q13.24,15.95,13.24,19.58Z"/><path class="cls-1" d="M36.51,27.44H1a1,1,0,0,1-1-1v-25a1,1,0,0,1,1-1h35.5a1,1,0,0,1,1,1v25A1,1,0,0,1,36.51,27.44ZM1,.84a.57.57,0,0,0-.57.57v25A.57.57,0,0,0,1,27h35.5a.57.57,0,0,0,.57-.57v-25a.57.57,0,0,0-.57-.57Z"/><rect class="cls-1" x="4.03" y="3.62" width="0.55" height="1.39"/><rect class="cls-1" x="7.56" y="3.62" width="0.55" height="1.39"/><rect class="cls-1" x="11.06" y="3.62" width="0.55" height="1.39"/><rect class="cls-1" x="19.13" y="3.62" width="0.55" height="1.39"/><rect class="cls-1" x="22.6" y="3.62" width="0.55" height="1.39"/><rect class="cls-1" x="25.91" y="3.62" width="0.55" height="1.39"/><rect class="cls-1" x="29.37" y="3.62" width="0.55" height="1.39"/><rect class="cls-1" x="32.68" y="3.62" width="0.55" height="1.39"/></g></g></g></svg>