<svg xmlns="http://www.w3.org/2000/svg" viewBox="0 0 45.09 32.94"><defs><style>.cls-1{fill:#6a625e;}</style></defs><title>Asset 20</title><g id="Layer_2" data-name="Layer 2"><g id="graphic_elements" data-name="graphic elements"><g id="Layer_112" data-name="Layer 112"><path class="cls-1" d="M16.55,9.12,20.42,7.7H11.77v0L12,7.59c.73-.29,1.49-.52,2.2-.87a3,3,0,0,0,.9-.82.94.94,0,0,0-1-1.51l-.19,0c0-.15.07-.28.09-.41A.88.88,0,0,0,13,3a2.1,2.1,0,0,0-1.22.85,8.39,8.39,0,0,0-1.26,2.59,2.49,2.49,0,0,1-.1.27V1H9V6.56l-.1-.24A8.63,8.63,0,0,0,7.74,4a2.46,2.46,0,0,0-1.08-.9.94.94,0,0,0-1,.14.93.93,0,0,0-.25,1,2,2,0,0,0,.06.24l-.36,0a.89.89,0,0,0-.9,1.32,1.9,1.9,0,0,0,1,1c.72.33,1.48.59,2.22.89l.27.07v0H1V9.12H7.29c-.3.35-.62.67-.88,1a13.87,13.87,0,0,0-.69,1.25l1-.5c.06.18.11.36.18.52s.15.5.23.73h.08a5.23,5.23,0,0,1,.28-1A4.62,4.62,0,0,1,9,9.18v2.73l1.45-.53V9.24a2.18,2.18,0,0,1,.7.64,4,4,0,0,1,.6,1l.71-.26.16.46c0-.06,0-.13,0-.2l.92.47a5,5,0,0,0-.46-1L13,10.26a4.66,4.66,0,0,0-.69-.83L12,9.12ZM8.27,7.06A4.94,4.94,0,0,1,6.1,6.28a.94.94,0,0,1-.33-.39.5.5,0,0,1,0-.45c.09-.1.29-.13.45-.17s.11,0,.17,0l0-.06c-.08-.24-.15-.48.1-.65a.5.5,0,0,1,.65.12,2.9,2.9,0,0,1,.59.73c.25.5.44,1,.65,1.52Zm2.77,0a4.83,4.83,0,0,1,1.11-2.27l0,0c.22-.15.44-.35.72-.17s.18.45.06.71a2.21,2.21,0,0,1,.35-.07.37.37,0,0,1,.37.54,1.25,1.25,0,0,1-.33.44A4.64,4.64,0,0,1,11,7.06Zm24.56,2-.13,0h.29V9ZM9,18.87v1.51l1.45-.53V18.33Zm1-5.15a1,1,0,0,0,.1,1l.13.21-.34.1a.89.89,0,0,0-.39,1.55,2.05,2.05,0,0,0,.94.56V13.31A.83.83,0,0,0,10,13.71Z"/><path class="cls-1" d="M14.48,21.26h-.31l.28.35.08,0C14.5,21.48,14.49,21.36,14.48,21.26Zm-1.58,0s0,.08,0,.11l.1-.11Zm18.54.34-.12-.34-1.36.5.25.68h.41L30.44,22Zm.14.53-.8.3h.91Zm1.08-.88h-1.1l.1.24.6-.22.43,1.15h.4Zm-3,.62-.35.13.15.42h.41Zm-1.43.47a1.06,1.06,0,0,0-.18.09h1l0-.06A1.07,1.07,0,0,0,28.18,22.34ZM17.83,21.26H16.29l.44,1.17h1.52ZM35.59,20a.26.26,0,0,1,0,.09l0-.08Zm.24,1.25a.81.81,0,0,1-.41.37.66.66,0,0,1-.89-.38,1.17,1.17,0,0,1-.37.07v0a1,1,0,0,0,1.37.61,1.09,1.09,0,0,0,.62-.54ZM35.76,9l-.15.06v1.51l1.17-.44V8.64Zm1,10.25-.39.14-.14,2a2.41,2.41,0,0,0,.45-.77,2.84,2.84,0,0,0,.15-.81v-.52ZM36,.76A2.61,2.61,0,0,0,34.12,0H2.66A2.66,2.66,0,0,0,0,2.66V19.77a2.66,2.66,0,0,0,2.66,2.66H8.43L8,21.26H2.66a1.49,1.49,0,0,1-1.49-1.49V2.66A1.49,1.49,0,0,1,2.66,1.17H34.12a1.43,1.43,0,0,1,.45.08,1.45,1.45,0,0,1,.94.9L36,2a1.46,1.46,0,0,1,.67-.08A2.8,2.8,0,0,0,36,.76Z"/><path class="cls-1" d="M20.09,18.5h-.41v.08l.52.06ZM19.55,18c-.1-.09-.21-.17-.32-.25a1,1,0,0,0-.55,1,1,1,0,0,0,.57.93c0-.13,0-.27,0-.39v0a.66.66,0,0,1-.21-.5A.7.7,0,0,1,19.55,18Z"/><path class="cls-1" d="M39.8,7.53l-.14.06L36.78,8.64l-1,.37-.15.06-.13,0L17.28,15.81l0,0,.2-.16c.59-.51,1.22-1,1.76-1.57A2.84,2.84,0,0,0,19.79,13a1,1,0,0,0-.31-1.09.91.91,0,0,0-1.1,0l-.17.1c0-.15,0-.29-.07-.41A.88.88,0,0,0,16.78,11a2.06,2.06,0,0,0-.85,1.21,8.16,8.16,0,0,0-.29,2.88v.29l-1.92-5.2L13.67,10l-.68.25-.65.24.06.14.16.46,1.69,4.6a2.33,2.33,0,0,1-.17-.19,8.72,8.72,0,0,0-1.88-1.82,2.44,2.44,0,0,0-1.31-.47,1.13,1.13,0,0,0-.49.09.83.83,0,0,0-.45.4,1,1,0,0,0,.1,1l.13.21-.34.1a.89.89,0,0,0-.39,1.55,2.05,2.05,0,0,0,.94.56l.3,0c.8.06,1.6,0,2.4.06l.27,0,0,0-3,1.1L9,18.87l-1.61.59-.15.06.5,1.33.14-.06L9,20.38l1.45-.53,3.16-1.16c-.15.43-.35.85-.47,1.29a12.17,12.17,0,0,0-.2,1.29s0,.08,0,.11l.1-.11.64-.69.54.69.28.35.08,0c0-.11,0-.23,0-.33a4.67,4.67,0,0,1,.68-3.1l1.13,3.1.44,1.17,2.59,7.07.06.14,1.35-.5L20.68,29l-2.42-6.57-.43-1.17-1.3-3.53a4.73,4.73,0,0,1,2.7,2.18,2.53,2.53,0,0,1,0-.29c0-.13,0-.27,0-.39v0c0-.2,0-.41-.07-.68l.5.06.52.06-.11-.13a5.73,5.73,0,0,0-.54-.53c-.1-.09-.21-.17-.32-.25A4.87,4.87,0,0,0,18,17.07l17.66-6.49,1.17-.44,3.36-1.24.14,0Zm-26,8.88a4.84,4.84,0,0,1-2.31,0,1.09,1.09,0,0,1-.46-.26.56.56,0,0,1-.17-.41c0-.13.23-.23.36-.32s.11,0,.17,0,0-.06,0-.07c-.15-.19-.3-.39-.12-.64a.49.49,0,0,1,.65-.1,2.91,2.91,0,0,1,.81.49c.4.37.75.8,1.13,1.21Zm2.61-.94a4.75,4.75,0,0,1,.25-2.52l0,0c.15-.22.3-.49.62-.41s.32.35.3.65c.14-.08.22-.14.31-.18a.37.37,0,0,1,.53.38,1.25,1.25,0,0,1-.16.52A4.83,4.83,0,0,1,16.39,15.46Z"/><path class="cls-1" d="M13.67,10l-.68.25.09.13.65-.24Zm-.5-.9-.86.31a4.66,4.66,0,0,1,.69.83l-.65.24.06.14.68-.25.65-.24,2.82-1Zm0,0-.86.31a4.66,4.66,0,0,1,.69.83l-.65.24.06.14.68-.25.65-.24,2.82-1Zm21.4-7.87L17,7.7,13.17,9.12l-.86.31a4.66,4.66,0,0,1,.69.83l-.65.24.06.14.68-.25.65-.24,2.82-1L20.42,7.7,35.51,2.14A1.45,1.45,0,0,0,34.57,1.25Zm0,0L17,7.7,13.17,9.12l-.86.31a4.66,4.66,0,0,1,.69.83l-.65.24.06.14.68-.25.65-.24,2.82-1L20.42,7.7,35.51,2.14A1.45,1.45,0,0,0,34.57,1.25Zm0,0L17,7.7,13.17,9.12l-.86.31a4.66,4.66,0,0,1,.69.83l-.65.24.06.14.68-.25.65-.24,2.82-1L20.42,7.7,35.51,2.14A1.45,1.45,0,0,0,34.57,1.25Zm0,0L17,7.7,13.17,9.12l-.86.31a4.66,4.66,0,0,1,.69.83l-.65.24.06.14.68-.25.65-.24,2.82-1L20.42,7.7,35.51,2.14A1.45,1.45,0,0,0,34.57,1.25ZM44.92,18.5,39,2.44A2.65,2.65,0,0,0,36,.76a1.81,1.81,0,0,0-.37.1l-1,.38L17,7.7,13.17,9.12l-.86.31-1.21.45-.7.26L9,10.67l-1.51.55-.58.21-.8.3a2.65,2.65,0,0,0-1.57,3.4l2.25,6.13.44,1.17,3.22,8.77a2.66,2.66,0,0,0,3.41,1.58L43.34,21.91A2.67,2.67,0,0,0,44.92,18.5Zm-2,2.31L20.68,29l-1.35.5-5.91,2.17a1.48,1.48,0,0,1-1.91-.88L8.43,22.43,8,21.26l-.17-.47-.49-1.33L5.6,14.73a1.48,1.48,0,0,1,.88-1.91L9,11.91l1.45-.53,1.3-.48.71-.26.68-.25.65-.24,2.82-1L20.42,7.7,35.51,2.14,36,2a1.46,1.46,0,0,1,.67-.08,1.49,1.49,0,0,1,1.24,1l1.74,4.74.49,1.32,3.68,10A1.48,1.48,0,0,1,42.94,20.81ZM34.57,1.25,17,7.7,13.17,9.12l-.86.31a4.66,4.66,0,0,1,.69.83l-.65.24.06.14.68-.25.65-.24,2.82-1L20.42,7.7,35.51,2.14A1.45,1.45,0,0,0,34.57,1.25Zm0,0L17,7.7,13.17,9.12l-.86.31a4.66,4.66,0,0,1,.69.83l-.65.24.06.14.68-.25.65-.24,2.82-1L20.42,7.7,35.51,2.14A1.45,1.45,0,0,0,34.57,1.25Zm0,0L17,7.7,13.17,9.12l-.86.31a4.66,4.66,0,0,1,.69.83l-.65.24.06.14.68-.25.65-.24,2.82-1L20.42,7.7,35.51,2.14A1.45,1.45,0,0,0,34.57,1.25Zm0,0L17,7.7,13.17,9.12l-.86.31a4.66,4.66,0,0,1,.69.83l-.65.24.06.14.68-.25.65-.24,2.82-1L20.42,7.7,35.51,2.14A1.45,1.45,0,0,0,34.57,1.25ZM13.17,9.12l-.86.31a4.66,4.66,0,0,1,.69.83l-.65.24.06.14.68-.25.65-.24,2.82-1Zm0,0-.86.31a4.66,4.66,0,0,1,.69.83l-.65.24.06.14.68-.25.65-.24,2.82-1Z"/><path class="cls-1" d="M29.26,22.91l-.82.3.12.31.49-.17.12.33a.66.66,0,0,1-.37.3.64.64,0,0,1-.9-.39.69.69,0,0,1,.4-.94.85.85,0,0,1,.55,0l.11-.25,0-.06a1.09,1.09,0,0,0-1,.06,1,1,0,0,0-.44,1.31,1,1,0,0,0,1.36.6,1,1,0,0,0,.63-.62Z"/><path class="cls-1" d="M29.82,22.43l-.21-.55-.35.13.15.42L30,23.91l.36-.13Z"/><path class="cls-1" d="M31.71,22.47v0l-.11-.3-.8.3-.15.06,0-.06L30.44,22l1-.37-.12-.34-1.36.5.25.68.45,1.22.36-.12-.26-.71Z"/><path class="cls-1" d="M32.66,21.26l0-.11.6-.22-.12-.33-1.56.58,0,.09.1.24.6-.22.43,1.15.15.42.35-.13-.1-.29Z"/><path class="cls-1" d="M35.82,21.2a.81.81,0,0,1-.41.37.66.66,0,0,1-.89-.38v0a.66.66,0,0,1,.41-.9.74.74,0,0,1,.53,0l.11-.24,0-.08h0a1.06,1.06,0,0,0-1.43,1.31v0a1,1,0,0,0,1.37.61,1.09,1.09,0,0,0,.62-.54Z"/><path class="cls-1" d="M36.78,19.33l-.07-.07-.39.14-.14,2v.19l.38-.14,0-.42,1-.37.3.3.39-.14Zm-.15,1.33h0l.06-.93.11.11.53.56Z"/><path class="cls-1" d="M40.1,20.15l-.82-.44a.59.59,0,0,0,.26-.77.67.67,0,0,0-.91-.38l-.91.33.71,1.9.35-.12L38.55,20l.34-.12.79.43.43-.16ZM39,19.5l-.55.2-.22-.61.54-.2a.33.33,0,1,1,.23.61Z"/><path class="cls-1" d="M41.57,18.54a1,1,0,0,0-1.3-.59l-.74.28.7,1.91.75-.28A1,1,0,0,0,41.57,18.54Zm-.72,1-.39.14L40,18.44l.39-.14a.65.65,0,0,1,.45,1.22Z"/></g></g></g></svg>