<svg xmlns="http://www.w3.org/2000/svg" viewBox="0 0 38.07 25.49"><defs><style>.cls-1{fill:#6a625e;}</style></defs><title>Asset 22</title><g id="Layer_2" data-name="Layer 2"><g id="graphic_elements" data-name="graphic elements"><g id="Layer_134" data-name="Layer 134"><path class="cls-1" d="M5.85,23.61H3.32v-2.1h-1V15.44h1V11h-1V4.95h1V2.56H0V0H5.85Z"/><path class="cls-1" d="M33.53,15.74l-1.31-.21.83-.46A1.53,1.53,0,0,0,33.66,13a4.19,4.19,0,0,0-.58-.83.53.53,0,0,0-.81,0l-.82,1v-1A1.53,1.53,0,0,0,30,10.72a4.35,4.35,0,0,0-1,.09.53.53,0,0,0-.39.71l.48,1.23-.81-.48a1.53,1.53,0,0,0-2.05.45,4,4,0,0,0-.49,1,.53.53,0,0,0,.42.69l1.32.21-.83.46A1.53,1.53,0,0,0,26,17.11a4.29,4.29,0,0,0,.58.84.53.53,0,0,0,.81,0l.82-1v1a1.53,1.53,0,0,0,1.49,1.53,4.28,4.28,0,0,0,1-.09.53.53,0,0,0,.39-.71l-.43-1.12.06-.05.71.42a1.53,1.53,0,0,0,2.08-.49,4.23,4.23,0,0,0,.44-.92A.53.53,0,0,0,33.53,15.74Zm-3.7,0a.67.67,0,1,1,.67-.67A.67.67,0,0,1,29.83,15.74Z"/><path class="cls-1" d="M21.71,18.07a.34.34,0,0,0-.18,0,.29.29,0,0,0-.16,0,.3.3,0,0,0-.1.11.54.54,0,0,0-.06.16,1,1,0,0,0,0,.2v0a1,1,0,0,0,0,.2.51.51,0,0,0,.06.16.3.3,0,0,0,.1.11.29.29,0,0,0,.15,0,.34.34,0,0,0,.19,0,.32.32,0,0,0,.12-.13V18.2A.32.32,0,0,0,21.71,18.07Z"/><path class="cls-1" d="M18.14,18.64,18,18.7a.22.22,0,0,0-.06.08.27.27,0,0,0,0,.11A.19.19,0,0,0,18,19a.24.24,0,0,0,.17.06h.11l.09,0,.07-.05,0-.06v-.3H18.3Z"/><path class="cls-1" d="M38.06,8.22A2.07,2.07,0,0,0,35.82,6H7.74L7.42,6V23.48H8.54v2H21.66v-2h1.23v2H36v-2l.1,0a2.15,2.15,0,0,0,2-2.3C38,16.86,38.06,12.54,38.06,8.22Zm-23.25,3h3V12h-2v1.18h1.81v.76H15.76v1.87h-.94ZM10.16,24.82h-.6V23.39h.6Zm1.32,0h-.61V23.39h.61Zm1.31,0h-.61V23.4h.61Zm-.15-9a3.11,3.11,0,0,1-.67.06,2.17,2.17,0,0,1-.81-.15,1.7,1.7,0,0,1-.63-.43,2,2,0,0,1-.4-.7,2.87,2.87,0,0,1-.14-.94V13.4a3,3,0,0,1,.14-.95,2,2,0,0,1,.39-.7,1.63,1.63,0,0,1,.61-.43,2,2,0,0,1,.79-.15,2.39,2.39,0,0,1,.77.11,1.52,1.52,0,0,1,.54.31,1.42,1.42,0,0,1,.34.48,2.11,2.11,0,0,1,.16.61H12.8a1.36,1.36,0,0,0-.09-.31.71.71,0,0,0-.16-.24.7.7,0,0,0-.26-.15,1.1,1.1,0,0,0-.36-.05.84.84,0,0,0-.74.37,1.93,1.93,0,0,0-.25,1.09v.28a1.81,1.81,0,0,0,.27,1.09.94.94,0,0,0,.8.37l.3,0,.22-.06.15-.07.1-.08v-.79h-.86v-.7h1.8v1.83a1.53,1.53,0,0,1-.22.21,1.69,1.69,0,0,1-.36.21A2.63,2.63,0,0,1,12.64,15.82Zm1.45,9h-.59V23.39h.59Zm1.31,0h-.61V23.39h.61Zm1.3,0h-.59V23.39h.59Zm-1-6.19a.67.67,0,0,0,.08.23.37.37,0,0,0,.15.14.48.48,0,0,0,.22,0l.2,0a.33.33,0,0,0,.22-.21.64.64,0,0,0,0-.18h.48A1,1,0,0,1,17,19a.76.76,0,0,1-.19.26.85.85,0,0,1-.29.17,1.15,1.15,0,0,1-.38.06,1,1,0,0,1-.4-.08.82.82,0,0,1-.3-.22,1,1,0,0,1-.19-.35,1.52,1.52,0,0,1-.07-.46v-.15a1.48,1.48,0,0,1,.07-.47,1,1,0,0,1,.19-.35.84.84,0,0,1,.3-.22,1,1,0,0,1,.4-.08,1.11,1.11,0,0,1,.38.06.83.83,0,0,1,.28.17.78.78,0,0,1,.18.26,1.09,1.09,0,0,1,.08.33h-.48a.73.73,0,0,0,0-.18.36.36,0,0,0-.08-.13.33.33,0,0,0-.14-.08.64.64,0,0,0-.2,0,.41.41,0,0,0-.36.18,1,1,0,0,0-.12.55v.16A1.68,1.68,0,0,0,15.71,18.64ZM18,24.83h-.61V23.39H18Zm.49-5.57a.6.6,0,0,1-.18.13.57.57,0,0,1-.26.05.69.69,0,0,1-.23,0,.58.58,0,0,1-.19-.11.49.49,0,0,1-.12-.16.48.48,0,0,1,0-.21.55.55,0,0,1,.05-.24.47.47,0,0,1,.15-.18.73.73,0,0,1,.25-.11,1.41,1.41,0,0,1,.35,0h.21v-.1a.29.29,0,0,0-.06-.19.24.24,0,0,0-.19-.07A.28.28,0,0,0,18,18a.19.19,0,0,0-.07.15h-.46a.46.46,0,0,1,.05-.21.53.53,0,0,1,.15-.18.74.74,0,0,1,.23-.12,1,1,0,0,1,.3,0,1,1,0,0,1,.28,0,.63.63,0,0,1,.22.11.52.52,0,0,1,.14.19.64.64,0,0,1,.05.27V19s0,.09,0,.13,0,.07,0,.11l0,.08,0,.07v0h-.47A.51.51,0,0,1,18.51,19.25Zm.81,5.57h-.6V23.4h.6Zm-1-9,1.37-2.31-1.33-2.27h1.09l.86,1.58.86-1.58h1.09l-1.33,2.27,1.37,2.31h-1.1l-.88-1.6-.88,1.6Zm1.6,2.45v1.13h-.46V17.68h.44v.21a.52.52,0,0,1,.16-.18.4.4,0,0,1,.22-.06h.14v.44h-.17a.46.46,0,0,0-.22,0A.28.28,0,0,0,19.94,18.27Zm.69,6.55H20V23.4h.61Zm1.66-5.42h-.42l0-.18a.59.59,0,0,1-.19.16.54.54,0,0,1-.25.06.6.6,0,0,1-.29-.07.62.62,0,0,1-.21-.18.85.85,0,0,1-.13-.28,1.28,1.28,0,0,1,0-.35v0a1.33,1.33,0,0,1,0-.36.85.85,0,0,1,.13-.28.6.6,0,0,1,.21-.18.63.63,0,0,1,.29-.06.54.54,0,0,1,.24,0,.57.57,0,0,1,.18.14V17h.46Zm2.22,5.41h-.59V23.39h.59Zm1.32,0h-.61V23.39h.61Zm1.3,0h-.6V23.39h.6Zm1.3,0h-.6V23.39h.6Zm1.33,0h-.62V23.4h.62Zm1.29,0h-.61V23.4h.61Zm1.32,0h-.61V23.4h.61Zm1.31,0h-.61V23.4h.61Zm1.3,0h-.61V23.39H35Zm-5-4A5.72,5.72,0,1,1,35.56,15,5.72,5.72,0,0,1,29.94,20.78Z"/></g></g></g></svg>