<svg xmlns="http://www.w3.org/2000/svg" viewBox="0 0 38.09 35.61"><defs><style>.cls-1{fill:#6a625e;}</style></defs><title>Asset 53</title><g id="Layer_2" data-name="Layer 2"><g id="graphic_elements" data-name="graphic elements"><g id="Layer_134" data-name="Layer 134"><path class="cls-1" d="M19,0C9.72,0,2.2,2,2.2,4.42S9.72,8.85,19,8.85s16.78-2,16.78-4.42S28.25,0,19,0Zm0,8C8.49,8,3,5.69,3,4.42S8.49.8,19,.8,35,3.16,35,4.42,29.47,8,19,8Z"/><path class="cls-1" d="M29.45,2.53a11.12,11.12,0,0,1,3.69,1.34.61.61,0,0,1,0,1,7.59,7.59,0,0,1-2.52,1.1Z"/><path class="cls-1" d="M33.19,4.83a7.59,7.59,0,0,1-2.52,1.1l-1.22-3.4a11.12,11.12,0,0,1,3.69,1.34A.61.61,0,0,1,33.19,4.83Z"/><path class="cls-1" d="M20.86,7.13H18.54L16.6,1.67h2.31Z"/><path class="cls-1" d="M13.51,1.81l2.26-.17,1.94,5.44H15.39Z"/><path class="cls-1" d="M23.94,7l-2.26.12L19.73,1.67H22Z"/><path class="cls-1" d="M22.89,1.71l2.37.18L27,6.65l-2.23.26Z"/><path class="cls-1" d="M10.49,2.14l2.22-.26L14.54,7l-2.38-.2Z"/><path class="cls-1" d="M28.56,2.34l1.34,3.79-2.16.42L26.13,2Z"/><path class="cls-1" d="M7.55,2.71l2.16-.45L11.3,6.71,8.85,6.34Z"/><path class="cls-1" d="M33.19,4.83a7.59,7.59,0,0,1-2.52,1.1l-1.22-3.4a11.12,11.12,0,0,1,3.69,1.34A.61.61,0,0,1,33.19,4.83Z"/><path class="cls-1" d="M4.53,4A6.23,6.23,0,0,1,6.8,2.92L8,6.14A8.47,8.47,0,0,1,4.54,4.75.5.5,0,0,1,4.53,4Z"/><path class="cls-1" d="M37,9.91c-.41,0-.83,0-1.22,0V7.67l-.27.18a15.47,15.47,0,0,1-4.15,1.64A50.76,50.76,0,0,1,19,10.85,50.76,50.76,0,0,1,6.61,9.49,15.47,15.47,0,0,1,2.46,7.85l-.24-.15c0,.75.09,1.43.14,2.21-.48,0-.92,0-1.36,0-.61,0-1,.33-1,1s.42.93,1,.94,1.14,0,1.72,0A17.09,17.09,0,0,0,12,22.89l-1.27,2.59L9.52,28c-3,.07-4.72,1.72-4.49,4.16a3.79,3.79,0,0,0,4.57,3.4,3.59,3.59,0,0,0,2.46-1.69,4,4,0,0,0,0-4.27H27L29.62,35,31.53,34,26,22.89a17.06,17.06,0,0,0,9.29-11.06c.6,0,1.12,0,1.64,0,.69,0,1.11-.39,1.11-.95S37.69,9.93,37,9.91ZM8.9,33.67A1.89,1.89,0,0,1,7,31.81,1.86,1.86,0,0,1,8.82,30a1.83,1.83,0,0,1,1.87,1.81A1.86,1.86,0,0,1,8.9,33.67Zm17.35-5.51H11.82L14,23.81a45.2,45.2,0,0,0,5,.54,46.77,46.77,0,0,0,5.11-.53c.29.57.67,1.32,1,2.07S25.86,27.36,26.25,28.16Z"/></g></g></g></svg>