<svg xmlns="http://www.w3.org/2000/svg" viewBox="0 0 31.76 34.9"><defs><style>.cls-1{fill:#6a625e;}</style></defs><title>Asset 13</title><g id="Layer_2" data-name="Layer 2"><g id="graphic_elements" data-name="graphic elements"><g id="Layer_105" data-name="Layer 105"><path class="cls-1" d="M31.69,15.16c0-.68-.09-1.36-.18-2a16.42,16.42,0,0,0-.64-2.94A14.88,14.88,0,0,0,14.68.14,14.7,14.7,0,0,0,8.37,2.46l3.11,1.27a1.73,1.73,0,0,1,1.19,1.73,1.78,1.78,0,0,1-1.32,1.72A21.86,21.86,0,0,0,9,8.05a2.12,2.12,0,0,0-.9.91c-.41.82-.7,1.69-1,2.54a1.75,1.75,0,0,1-1.69,1.24,1.79,1.79,0,0,1-1.77-1.26L2.74,9.35,2.4,9.28a36,36,0,0,0-.83,5.14c-.11,5.08-.07,10.17,0,15.26a4.9,4.9,0,0,0,5.18,5.12c2.27,0,4.54,0,6.81,0,.21,0,.41,0,.81-.06-.66-.3-1.13-.5-1.58-.73C8.32,31.68,6.2,26.4,6.48,21.72c.11-1.88.17-1.88,2.06-2.19l.68-.1a29.71,29.71,0,0,0,9.52-2.8c1.91-1,3.39-2.37,3.54-4.72,0-.07.07-.14.13-.24.54.75,1,1.48,1.57,2.17A13.38,13.38,0,0,1,26.52,26c-1,4-3.11,7.19-7.22,8.65-.08,0-.15.12-.29.24,2.53,0,4.94,0,7.35,0a5.09,5.09,0,0,0,4.07-2,5,5,0,0,0,1-2.69h0c.14-1.24.24-2.76.29-4.39,0-1.48.06-3,.06-4.55h0C31.76,19.16,31.79,17.16,31.69,15.16Z"/><path class="cls-1" d="M4.1,7.65c.47,1,.85,2.09,1.31,3.27a26.4,26.4,0,0,0,1.06-2.7A2.28,2.28,0,0,1,8.18,6.53c.84-.26,1.64-.64,2.65-1.05C9.58,5,8.53,4.6,7.53,4.14a1.72,1.72,0,0,1-.78-.79C6.28,2.3,5.89,1.23,5.42,0,5,1.21,4.57,2.28,4.09,3.31a1.87,1.87,0,0,1-.84.85c-1,.47-2,.84-3.25,1.32,1.22.49,2.25.87,3.25,1.33A1.87,1.87,0,0,1,4.1,7.65Z"/><path class="cls-1" d="M24.69,24.47C22.9,22,20.54,22,19,24.32,20.93,23.29,22.73,23.55,24.69,24.47Z"/><path class="cls-1" d="M9.31,24.31a5.79,5.79,0,0,1,5.58.15C13.15,22,10.75,22,9.31,24.31Z"/><path class="cls-1" d="M14.43,28.82C16,31,18.18,31.06,19.49,29A5.25,5.25,0,0,1,14.43,28.82Z"/></g></g></g></svg>