<svg xmlns="http://www.w3.org/2000/svg" viewBox="0 0 27.75 36.02"><defs><style>.cls-1{fill:#6a625e;}</style></defs><title>Asset 35</title><g id="Layer_2" data-name="Layer 2"><g id="graphic_elements" data-name="graphic elements"><g id="Layer_134" data-name="Layer 134"><path class="cls-1" d="M1.63,0H26.11a2.29,2.29,0,0,1,1.64,2.53q0,15.65,0,31.3A2,2,0,0,1,25.55,36H2.19a2.83,2.83,0,0,1-.52,0A2,2,0,0,1,0,33.87q0-8.51,0-17Q0,9.49,0,2.14A2,2,0,0,1,1,.3,5.15,5.15,0,0,1,1.63,0ZM16.56,16.75l.06,0L14,24.46c.55,0,1-.06,1.52-.14a10.49,10.49,0,1,0-5.93-.79.37.37,0,0,0,.5-.1c1.15-1.19,2.3-2.37,3.46-3.55ZM2.72,27.64a16.8,16.8,0,0,0,.82,1.64c1.92,3,4.89,4.05,8.26,4.31a.31.31,0,0,0,.24-.17c.32-1.21.62-2.42.93-3.66A9.26,9.26,0,0,1,6.79,25.6ZM23.94,1.76a1.52,1.52,0,1,0,1.53,1.52A1.54,1.54,0,0,0,23.94,1.76Zm0,32.5a1.52,1.52,0,0,0,0-3,1.52,1.52,0,1,0,0,3ZM1.83,3.26a1.52,1.52,0,1,0,1.54-1.5A1.51,1.51,0,0,0,1.83,3.26Z"/><path class="cls-1" d="M16.11,13.94a2.24,2.24,0,1,1-2.23-2.25A2.25,2.25,0,0,1,16.11,13.94Z"/></g></g></g></svg>