<svg xmlns="http://www.w3.org/2000/svg" viewBox="0 0 29.45 35.65"><defs><style>.cls-1{fill:#6a625e;}</style></defs><title>Asset 16</title><g id="Layer_2" data-name="Layer 2"><g id="graphic_elements" data-name="graphic elements"><g id="Layer_134" data-name="Layer 134"><path class="cls-1" d="M26.19,15.63a3.45,3.45,0,0,1-.17-.79c.1-5.69-3.77-11.14-9.5-12.11a10.46,10.46,0,0,0-10,3.67A12.18,12.18,0,0,0,3.41,15c0,.15,0,.3,0,.45a11.4,11.4,0,0,1,1.81-.36A3.12,3.12,0,0,1,8.38,17q2,4.19,3.91,8.42a3.34,3.34,0,0,1-1.18,4.18,6.17,6.17,0,0,1-3.5,1.26A4.68,4.68,0,0,1,3.11,28c-.93-1.9-1.81-3.83-2.67-5.76a4.84,4.84,0,0,1,.35-4.67A1.41,1.41,0,0,0,1,16.8C.36,10.94,2.22,6.09,7,2.53a13.2,13.2,0,0,1,17,1.2,15.18,15.18,0,0,1,4.66,10.84,5.59,5.59,0,0,1,0,.73A5,5,0,0,0,29,18.46a4.21,4.21,0,0,1,0,3.85c-.35.78-.74,1.55-1.06,2.34a.84.84,0,0,0,.05.69,4.27,4.27,0,0,1-1,6.36,13.38,13.38,0,0,1-5,2.16c-1,.26-2.12.43-3.18.66a2.32,2.32,0,0,0-.56.25,5.94,5.94,0,0,1-1.28.66,7.79,7.79,0,0,1-3.64,0,2.74,2.74,0,0,1-1-.52,1,1,0,0,1,.09-1.78,2.61,2.61,0,0,1,1.14-.49c1.08-.07,2.16,0,3.24,0a1.37,1.37,0,0,1,.78.27,1.94,1.94,0,0,0,1.78.24,19.14,19.14,0,0,0,5.3-1.6,9.36,9.36,0,0,0,2.23-1.61,2.54,2.54,0,0,0,.13-3.45c-.18.38-.39.72-.52,1.09-1.1,2.95-4.43,4.37-7.79,2.33a3.45,3.45,0,0,1-1.9-3.41,3.83,3.83,0,0,1,.35-1.25c1.2-2.63,2.47-5.22,3.62-7.86a3.49,3.49,0,0,1,4.74-2C25.78,15.49,26,15.56,26.19,15.63Zm-15.53,11a4.64,4.64,0,0,0-.16-.53c-.15-.35-.32-.7-.48-1L6.75,18a1.54,1.54,0,0,0-1.69-1A1.46,1.46,0,0,0,4,19.13c.73,1.63,1.49,3.24,2.24,4.85.54,1.16,1.06,2.32,1.62,3.46a1.43,1.43,0,0,0,1.67.77A1.52,1.52,0,0,0,10.66,26.64Zm14.91-8A1.51,1.51,0,0,0,24.44,17a1.45,1.45,0,0,0-1.69.83c-.56,1.17-1.09,2.34-1.64,3.52-.73,1.58-1.48,3.17-2.2,4.76A1.48,1.48,0,0,0,20,28.26a1.53,1.53,0,0,0,1.61-1q1.87-4,3.72-8A4.42,4.42,0,0,0,25.56,18.67Z"/></g></g></g></svg>