<svg xmlns="http://www.w3.org/2000/svg" viewBox="0 0 35.51 36.23"><defs><style>.cls-1{fill:#6a625e;}</style></defs><title>Asset 78</title><g id="Layer_2" data-name="Layer 2"><g id="graphic_elements" data-name="graphic elements"><g id="Layer_134" data-name="Layer 134"><path class="cls-1" d="M35.17,5.7c.48.68.45,1.07-.16,1.88L21,1.39A1.3,1.3,0,0,1,22.24,0Z"/><path class="cls-1" d="M20.53,2.58l-.05.11L16.91,13.28l-1.48,4.4.68-.13a2.65,2.65,0,0,1,.39,0,2.81,2.81,0,0,1,1,.2A3.4,3.4,0,0,1,19.78,21v6.22a3.39,3.39,0,0,1-.23,1.25l2.86,1.26c.22.1.35.13.48-.13.23-.47.5-.93.75-1.39l3-5.5,3.45-6.24,3.1-5.59L34.42,8.7Zm-.91,15.67c-.15-.63-.33-1.23-.44-1.84s-.15-1.21-.23-1.82a8.71,8.71,0,0,0,.37,3.73,3.36,3.36,0,0,1-1.52-2.87,3.4,3.4,0,0,1,1.69-3,5.23,5.23,0,0,0,.8,2.38c.11.23.23.46.32.69A2.06,2.06,0,0,1,19.62,18.25Zm7.16-.3a5.14,5.14,0,0,1-5.06,1.72A14.63,14.63,0,0,0,26.6,15.6a18.94,18.94,0,0,1-5.27,3.61,3.19,3.19,0,0,1,1.91-4c.5-.22,1-.37,1.55-.54A7.24,7.24,0,0,0,28,13.11,5.26,5.26,0,0,1,26.78,18Z"/><path class="cls-1" d="M21.75,31.78,21,33.55l-7.27-3.2.55.06.89.1.35,0a7.27,7.27,0,0,0,1,.08,3.26,3.26,0,0,0,1.67-.46Z"/><path class="cls-1" d="M10.75,30.43l3.11,1.37a3,3,0,0,0-1.56,1.47c-.54-.24-1.09-.45-1.6-.71a.9.9,0,0,1-.39-1.11C10.43,31.11,10.59,30.79,10.75,30.43Z"/><path class="cls-1" d="M17.33,35.49a3,3,0,0,0,0-2.14l3.1,1.37c-.16.36-.29.72-.47,1a.9.9,0,0,1-1.1.41C18.36,36,17.86,35.73,17.33,35.49Z"/><path class="cls-1" d="M13.38,33.74A1.56,1.56,0,1,1,16.24,35Z"/><path class="cls-1" d="M17.19,18.55a1.76,1.76,0,0,0-.92-.13c-1.17.22-2.34.46-3.52.66a9.9,9.9,0,0,1-2.48.2c-1-.08-2-.16-3-.27-1.24-.14-2.48-.31-3.73-.47a9,9,0,0,0-1.08-.13A2.51,2.51,0,0,0,0,21v3.12c0,1,0,2.08,0,3.12a2.46,2.46,0,0,0,1.3,2.23,2,2,0,0,0,1.29.3c1.09-.16,2.18-.35,3.27-.51A13.76,13.76,0,0,1,9,29c1.08.08,2.17.17,3.25.27s2,.21,3,.32a10.68,10.68,0,0,0,1.19.12,2.52,2.52,0,0,0,2.48-2.54V21A2.53,2.53,0,0,0,17.19,18.55ZM14,22.46h1.79a1,1,0,0,1,1,.75,1.12,1.12,0,0,1-.43,1.29,1.35,1.35,0,0,1-.55.16c-.25,0-.51,0-.78,0v1H14Zm-2,0a.14.14,0,0,1,.15.1l1.1,3s0,.07,0,.12h-1s-.09-.05-.11-.09-.06-.29-.15-.35-.24,0-.37,0H11a.14.14,0,0,0-.16.11c-.1.35-.11.35-.46.35H9.7a.5.5,0,0,1,0-.12q.54-1.48,1.07-3a.22.22,0,0,1,.25-.16C11.36,22.46,11.66,22.46,12,22.45ZM.66,21.23l-.27.39a2.44,2.44,0,0,1,2.24-2.51,7.9,7.9,0,0,1,1.08.13c1.88.23,3.75.48,5.63.7.43.05.86,0,1.29.08a2.79,2.79,0,0,1,.56.1c.12,0,.27.08.26.23s-.15.19-.27.23a2.66,2.66,0,0,1-1.12.11c-1.34-.13-2.67-.26-4-.42C5,20.13,3.88,20,2.78,19.81A1.33,1.33,0,0,0,2,20,4,4,0,0,0,.66,21.23Zm3.87,4.37a2.47,2.47,0,0,1-.64.15,2.65,2.65,0,0,1-1.07-.1,1,1,0,0,1-.7-1h1c0,.14,0,.3.21.35a.94.94,0,0,0,.66,0,.15.15,0,0,0,0-.3,3.69,3.69,0,0,0-.47-.15,7.31,7.31,0,0,1-.8-.24.82.82,0,0,1-.53-.82.85.85,0,0,1,.5-.84,2.16,2.16,0,0,1,1.88,0,.83.83,0,0,1,.49.86H4.08c-.1-.4-.46-.39-.74-.29a.23.23,0,0,0-.11.15.19.19,0,0,0,.1.15,4.35,4.35,0,0,0,.49.15c.22.06.45.1.67.18a.83.83,0,0,1,.65.79A1,1,0,0,1,4.53,25.59Zm1.31-1.13a2.85,2.85,0,0,1,0-.87,1.41,1.41,0,0,1,1.34-1.18l.29,0a2.34,2.34,0,0,1,1,.21,1.3,1.3,0,0,1,.72,1,3.18,3.18,0,0,1,0,.85A1.39,1.39,0,0,1,8.11,25.7a2.61,2.61,0,0,1-1.19,0A1.35,1.35,0,0,1,5.84,24.47Zm11.65,3.92a2.07,2.07,0,0,1-1.5.5c-.36,0-.72-.09-1.08-.13-1.24-.14-2.47-.29-3.71-.41-1-.1-2.07-.14-3.11-.22A3.11,3.11,0,0,1,7.42,28c-.06,0-.15-.11-.14-.16a.23.23,0,0,1,.14-.16,3.39,3.39,0,0,1,.78-.15c.68,0,1.38,0,2.06.1,1.3.11,2.6.27,3.9.41.56.06,1.12.12,1.67.2a1.71,1.71,0,0,0,1.22-.32,4.86,4.86,0,0,0,1.27-1.38l.09-.13A2.45,2.45,0,0,1,17.49,28.39Z"/><path class="cls-1" d="M8.23,24.13a2.67,2.67,0,0,1-.05.39.62.62,0,0,1-.64.45.6.6,0,0,1-.63-.44,1.69,1.69,0,0,1,0-.91.6.6,0,0,1,.67-.45.62.62,0,0,1,.63.55A3.4,3.4,0,0,1,8.23,24.13Z"/><path class="cls-1" d="M11.8,24.5h-.68c.11-.37.22-.74.33-1.1h0Z"/><path class="cls-1" d="M15.74,23.59a.28.28,0,0,1-.26.3H15v-.65a4.84,4.84,0,0,1,.53,0C15.67,23.26,15.75,23.39,15.74,23.59Z"/></g></g></g></svg>