<svg xmlns="http://www.w3.org/2000/svg" viewBox="0 0 23.04 36.34"><defs><style>.cls-1{fill:#6a625e;}</style></defs><title>Asset 74</title><g id="Layer_2" data-name="Layer 2"><g id="graphic_elements" data-name="graphic elements"><g id="Layer_134" data-name="Layer 134"><path class="cls-1" d="M9.5,22c-1,.5-2,1-3,1.47a2.43,2.43,0,0,0-1,3.26A2.41,2.41,0,0,0,8.7,27.8l2.72-1.32a.87.87,0,0,0,.16-.11Zm-.22,1.36c-.72.36-1.44.7-2.17,1.05a.27.27,0,0,1-.41-.11.28.28,0,0,1,.16-.39l2.2-1.06c.22-.11.43,0,.42.3A.71.71,0,0,1,9.27,23.33Z"/><path class="cls-1" d="M17.29,23.35c-1-.53-2.09-1-3.16-1.45l-2,4.46.13.08c.95.43,1.9.86,2.85,1.28a2.44,2.44,0,0,0,2.14-4.36Zm-.29.73c0,.1-.17.16-.24.22l-.24-.09-2.07-.93c-.19-.09-.35-.19-.24-.42s.3-.18.48-.09l2.09.94C16.95,23.79,17.07,23.9,17,24.08Z"/><path class="cls-1" d="M15.25,19.35a3.64,3.64,0,0,1-2.78,2.55,10.33,10.33,0,0,0,2-4,13.28,13.28,0,0,1-2.38,3.83,2.26,2.26,0,0,1,.1-3.11c.27-.28.57-.53.86-.79a6.07,6.07,0,0,0,1.39-1.48,2.51,2.51,0,0,0,.23-.46,4.26,4.26,0,0,1,.28.45A3.61,3.61,0,0,1,15.25,19.35Z"/><path class="cls-1" d="M9.9,20.52c-.24-.36-.44-.74-.66-1.11a6.2,6.2,0,0,0,1.3,2.3A2.36,2.36,0,0,1,8.74,20.3,2.41,2.41,0,0,1,9,17.89a3.77,3.77,0,0,0,1.2,1.31,5.07,5.07,0,0,1,.41.36,1.46,1.46,0,0,1,.14,2C10.43,21.22,10.15,20.89,9.9,20.52Z"/><path class="cls-1" d="M3.89,6.89l7.35-.09h.1l7.35-.13a1.67,1.67,0,0,0,1.76-2c0-.77,0-1.54,0-2.32C20.39.41,20,0,18,0L11.2.1,4.37.21C2.43.24,2,.68,2,2.67c0,.77,0,1.54,0,2.32A1.67,1.67,0,0,0,3.89,6.89Z"/><path class="cls-1" d="M23,22.74C23.09,18,22.59,11.5,19.38,9A2.48,2.48,0,0,0,18,8.42q-3.3,0-6.59.07h-.11q-3.3,0-6.59.13a2.52,2.52,0,0,0-1.4.61C.14,11.84-.16,18.39.05,23.09l0,0C.29,30.34.2,35,1.59,35.9c.66.45,5.36.5,10.15.39s9.49-.22,10.13-.69C23.23,34.63,23,30,23,22.76Zm-3.17,5.69-4.5.07-1.63,0-2,0h-.11l-2,0-1.64,0-4.5.07-.52-7.79c0-1.85-.05-3.59-.07-4.36l8.58-.13h.11l2.94,0h.51l5.13-.07c0,.78,0,2.51.07,4.36Z"/></g></g></g></svg>