<svg xmlns="http://www.w3.org/2000/svg" viewBox="0 0 25.01 35.66"><defs><style>.cls-1{fill:#6a625e;}</style></defs><title>Asset 41</title><g id="Layer_2" data-name="Layer 2"><g id="graphic_elements" data-name="graphic elements"><g id="Layer_134" data-name="Layer 134"><rect class="cls-1" x="17.56" y="15.19" width="7.45" height="4.04" rx="0.69" ry="0.69"/><rect class="cls-1" x="11.87" y="15.19" width="4.94" height="4.04" rx="0.69" ry="0.69"/><path class="cls-1" d="M11.87,20.69V34.95a.69.69,0,0,0,.69.69H24.31A.69.69,0,0,0,25,35V20.69a.69.69,0,0,0-.69-.69H12.56A.69.69,0,0,0,11.87,20.69ZM18.43,33.4h0a5.59,5.59,0,0,1-5.57-5.59,5.58,5.58,0,0,1,11.17,0A5.61,5.61,0,0,1,18.43,33.4Z"/><path class="cls-1" d="M0,8.07V34.3a1.25,1.25,0,0,0,1.35,1.35h9.76V14.94c0-.39.12-.51.5-.51h3a.69.69,0,0,0,.69-.69V8.07Zm.45,2a.69.69,0,0,1,0-.2.43.43,0,0,1,.38-.33H1a.44.44,0,0,1,.34.32.65.65,0,0,1,0,.19c0,.62,0,1.24,0,1.86h0c0,.62,0,1.24,0,1.86a.65.65,0,0,1,0,.19.43.43,0,0,1-.37.32H.86A.43.43,0,0,1,.48,14a.66.66,0,0,1,0-.19Zm7.23,8.35A1.61,1.61,0,0,1,6,20.08H2.13A1.61,1.61,0,0,1,.45,18.41V16a1.6,1.6,0,0,1,1.67-1.68H6A1.61,1.61,0,0,1,7.68,16C7.69,16.78,7.69,17.57,7.68,18.43Z"/><path class="cls-1" d="M15.32,1.3A1.24,1.24,0,0,0,14,0H1.3A1.28,1.28,0,0,0,.36.37,1.32,1.32,0,0,0,0,1.31Q0,3.75,0,6.2V7.31H15.32V5.63C15.32,4.18,15.32,2.74,15.32,1.3ZM1.38,6a.47.47,0,0,1-.46.5A.47.47,0,0,1,.45,6V2.62A.45.45,0,0,1,.9,2.15a.45.45,0,0,1,.48.47c0,.06,0,.12,0,.18Z"/><path class="cls-1" d="M6,15.28H2.13a.68.68,0,0,0-.74.74c0,.72,0,1.48,0,2.4a.68.68,0,0,0,.74.74H6a.68.68,0,0,0,.74-.74V16A.69.69,0,0,0,6,15.28ZM5.4,18.44a.46.46,0,0,1,0,.18.43.43,0,0,1-.38.24H4.91a.41.41,0,0,1-.4-.25.46.46,0,0,1,0-.18V16a.46.46,0,0,1,0-.18.41.41,0,0,1,.4-.25H5a.43.43,0,0,1,.36.24.46.46,0,0,1,0,.18c0,.4,0,.81,0,1.22S5.4,18,5.4,18.44Z"/><path class="cls-1" d="M18.45,23.17h0a4.66,4.66,0,0,0-4.65,4.64,4.65,4.65,0,1,0,4.66-4.64Zm0,8.61h0a4,4,0,0,1,0-7.91h0A4,4,0,0,1,21.25,25a3.91,3.91,0,0,1,1.14,2.79A4,4,0,0,1,18.43,31.78Z"/><path class="cls-1" d="M21,29.62a3.15,3.15,0,0,1-3.37,1.21,3.12,3.12,0,0,1-.12-6,3,3,0,0,1,.93-.15,3.08,3.08,0,0,1,2.48,1.21A7.08,7.08,0,0,0,21,29.62Z"/></g></g></g></svg>