<svg xmlns="http://www.w3.org/2000/svg" viewBox="0 0 44.92 38.91"><defs><style>.cls-1{fill:#6a625e;}</style></defs><title>Asset 46</title><g id="Layer_2" data-name="Layer 2"><g id="graphic_elements" data-name="graphic elements"><g id="Layer_108" data-name="Layer 108"><path class="cls-1" d="M39.74,37.71c0,1-.18,1.14-1.15,1.14H34.19l-.35-1.47h4.45c0-.17,0-.3,0-.44q0-8.63,0-17.27A1,1,0,0,0,38,19q-5.76-4.85-11.55-9.67l-4-3.3-.34.26Q14.51,12.66,6.91,19a1,1,0,0,0-.29.67q0,8.59,0,17.18v.51h4.68a2,2,0,0,0,0,.42,1.93,1.93,0,0,0,.36,1.05H6.21c-.83,0-1-.2-1-1q0-9.27,0-18.54a1.36,1.36,0,0,1,.54-1.16q7.93-6.6,15.84-13.22l.25-.21c.53-.43.79-.43,1.31,0l4.34,3.63q5.89,4.92,11.78,9.83a1.28,1.28,0,0,1,.5,1.08Q39.73,28.49,39.74,37.71Z"/><path class="cls-1" d="M44.56,18.78Q35.74,11.1,26.92,3.42c-1.3-1.12-2.67-2.15-4-3.23a.67.67,0,0,0-.93,0c-.34.27-.72.49-1.06.77L14,6.72c-.64.53-1.26,1.09-2,1.72V4H6.38c0,.23,0,.41,0,.6,0,2.76,0,5.52,0,8.28a1,1,0,0,1-.4.88c-1.89,1.66-3.76,3.33-5.64,5-.41.36-.48.76-.2,1.1s.7.35,1.14,0L4,17.52,21.79,2.19c.22-.19.45-.37.67-.55l.26.2,20.87,18c.45.38.84.4,1.15,0S45,19.14,44.56,18.78ZM10.28,10c-.79.67-1.57,1.37-2.42,2.13V5.47h2.78V6.6c0,.87,0,1.75,0,2.62A.91.91,0,0,1,10.28,10Z"/><polygon class="cls-1" points="32.99 38.6 31.24 38.3 30.65 37.01 31.15 36.47 32.57 36.88 32.99 38.6"/><rect class="cls-1" x="26.87" y="29.03" width="0.85" height="8.72" transform="translate(-15.74 30.62) rotate(-47.06)"/><path class="cls-1" d="M14.19,19.12a.63.63,0,0,0-.89,0l-1.2,1.29a.63.63,0,0,0,0,.89l7.73,7.19,2.06-2.22Zm5.54,7.51L13.4,20.74a.28.28,0,0,1,.39-.42l6.33,5.9a.28.28,0,0,1-.39.42Z"/><rect class="cls-1" x="21.98" y="29.6" width="3.03" height="0.51" transform="matrix(0.68, -0.73, 0.73, 0.68, -14.36, 26.71)"/><path class="cls-1" d="M25.24,26.78l-.92,1-.39.42L21.87,30.4l-.39.42-7.29,7.83a.84.84,0,0,1-1.18,0l-.37-.34a.84.84,0,0,1,0-1.18l7.29-7.83.39-.42,2.06-2.22.39-.42.92-1Z"/><path class="cls-1" d="M32.81,27.18l-2.86,3.08a.32.32,0,0,1-.45,0L27.8,28.69a.37.37,0,0,1-.11-.38.75.75,0,0,0-.11-.63l-.1-.12a.71.71,0,0,0-.43-.19,2.16,2.16,0,0,1-.92-.56l-.2-.16-1.88-1.75L24,24.78c.36-1,.58-2.8-1-3.56a15.79,15.79,0,0,0-3.12-1.07c3.11-1.62,5.9-1.25,8.32,1.11,1.27,1.3,1.89,2.5,1.87,3.54a.49.49,0,0,0,.19.4.49.49,0,0,0,.44.08l.21-.07c.23-.09.27-.1.44.05s1,1,1.45,1.48A.32.32,0,0,1,32.81,27.18Z"/></g></g></g></svg>