<svg xmlns="http://www.w3.org/2000/svg" viewBox="0 0 35.47 35.38"><defs><style>.cls-1{fill:#6a625e;}</style></defs><title>Asset 12</title><g id="Layer_2" data-name="Layer 2"><g id="graphic_elements" data-name="graphic elements"><g id="Layer_113" data-name="Layer 113"><path class="cls-1" d="M35.34,24.58a3.39,3.39,0,0,0-4.07-3.06c-.25,0-.49.12-.76.19a17.74,17.74,0,0,0-5.08-6.83h0c.11-.15.21-.3.3-.45L26,14a9.39,9.39,0,0,0,.71-1.64,9.13,9.13,0,0,0,.3-1.2A9.43,9.43,0,0,0,17.73,0a9.58,9.58,0,0,0-1.2.08h-.07a9.31,9.31,0,0,0-2.54.72l-.07,0a9.46,9.46,0,0,0-5.38,6.8,9.29,9.29,0,0,0-.17,1.8,9.38,9.38,0,0,0,1.61,5.26,9.32,9.32,0,0,0,.87,1.1l.29.3a9.41,9.41,0,0,0,13.36,0l.19.14a16.32,16.32,0,0,1,4.52,6.17l-2.58,3.25c-.65-.94-1.35-2-2.07-3a4.78,4.78,0,0,0-.48-.53c-.35-.36-.75-.48-1.13-.08s-.26.72,0,1.11c.66.88,1.29,1.79,1.93,2.69a2.56,2.56,0,0,1,.21.39,20.27,20.27,0,0,0-14.8.08c.73-1,1.48-2,2.2-3a1.48,1.48,0,0,0,.39-.78.89.89,0,0,0-.5-.64,1,1,0,0,0-.84.25c-.75.93-1.42,1.91-2.11,2.88a8.18,8.18,0,0,0-.45.8c-.1-.17-.18-.3-.27-.43-.47-.65-.89-1.34-1.41-1.95-.92-1.08-.94-1.06-.26-2.35a15.78,15.78,0,0,1,4-4.94l.06,0a4,4,0,0,1-.29-.29,9.25,9.25,0,0,1-.87-1.11c.05.09.11.17.16.25a17.88,17.88,0,0,0-5,6.75,1.18,1.18,0,0,1-.22,0C2.43,21.06.8,22,.24,24.36a9.75,9.75,0,0,0,1.35,7.29,7.3,7.3,0,0,0,3.75,3.47,3.18,3.18,0,0,0,4.08-1.45,3.34,3.34,0,0,1,.23-.34,17.07,17.07,0,0,0,16.24,0A3.34,3.34,0,0,0,28,35.22a3.84,3.84,0,0,0,3.69-.94A10.26,10.26,0,0,0,35.34,24.58ZM21.18,16.65a8,8,0,0,1-8.63-1.13,8.11,8.11,0,0,1-.79-.77l-.22-.26A8,8,0,0,1,14.21,2.25a2.51,2.51,0,0,0,1.3,2.67,4.71,4.71,0,0,0,2.19.54,5.12,5.12,0,0,0,.92-.08,2.8,2.8,0,0,0,1.21-.54,1.65,1.65,0,0,0,.71-1.21A1.61,1.61,0,0,0,20,2.39a2.43,2.43,0,0,0-1.73-.72,3.35,3.35,0,0,0-1,.17.76.76,0,0,0-.56,1,.55.55,0,0,0,.56.46,1.33,1.33,0,0,0,.4-.07,1.75,1.75,0,0,1,.54-.09,1.21,1.21,0,0,1,.62.16.57.57,0,0,1,.24.23c0,.05-.09.15-.16.22l-.09.1,0,0-.06,0a2.3,2.3,0,0,1-1,.19A4.06,4.06,0,0,1,17,4a2.52,2.52,0,0,1-1.12-.51.75.75,0,0,1-.31-.5.75.75,0,0,1,.22-.55,2,2,0,0,1,.95-.64,5.91,5.91,0,0,1,1.78-.29h.18a8,8,0,0,1,6,12h0a8.07,8.07,0,0,1-3.43,3.13Zm3.94-1.4-.37.44ZM8.28,32.45a3.64,3.64,0,0,1-.14.35,1.57,1.57,0,0,1-2.31.85,6.61,6.61,0,0,1-2-1.55,9,9,0,0,1-2.25-6.34,5.63,5.63,0,0,1,.19-1.22,1.86,1.86,0,0,1,2.93-1.25,6.92,6.92,0,0,1,3.13,3.79A16,16,0,0,1,8.37,29,6.2,6.2,0,0,1,8.28,32.45Zm17.15-1a.81.81,0,0,1-.37.52A14.48,14.48,0,0,1,18.7,33.8a15.17,15.17,0,0,1-8.1-1.72.85.85,0,0,1-.52-.94,26.7,26.7,0,0,0-.19-3,18.48,18.48,0,0,1,15.69,0C25.54,29.3,25.51,30.38,25.43,31.45ZM31,32.88a4.69,4.69,0,0,1-1.13.74,1.75,1.75,0,0,1-2.59-1,6.29,6.29,0,0,1,0-4.28,8.49,8.49,0,0,1,3-4.67,4.56,4.56,0,0,1,1.21-.6,1.57,1.57,0,0,1,1.91.72,5.09,5.09,0,0,1,.57,3A9.28,9.28,0,0,1,31,32.88Z"/><path class="cls-1" d="M19.51,11.17h-.08a.71.71,0,0,0-.69.61s0,.09,0,.14,0,.11,0,.16a1,1,0,0,1-.95.77,1,1,0,0,1-.27,0,1,1,0,0,1-.74-1,.69.69,0,0,0-.69-.67H16c-.42,0-.65.39-.62.9v0a1.62,1.62,0,0,0,0,.22,2.45,2.45,0,0,0,2.31,1.95h.15a2.42,2.42,0,0,0,2.3-2.34A.72.72,0,0,0,19.51,11.17Z"/><path class="cls-1" d="M20.16,8.5a.85.85,0,0,0-.62.25.91.91,0,0,0-.24.64.92.92,0,0,0,.25.66.89.89,0,0,0,1.24,0,.91.91,0,0,0,.25-.66A.86.86,0,0,0,20.16,8.5Z"/><path class="cls-1" d="M16.15,9.5a.85.85,0,0,0-.88-.89.84.84,0,0,0-.86.88.92.92,0,0,0,.25.66.85.85,0,0,0,.61.25h0a.85.85,0,0,0,.63-.26A.93.93,0,0,0,16.15,9.5Z"/></g></g></g></svg>