<svg xmlns="http://www.w3.org/2000/svg" viewBox="0 0 38.23 25.49"><defs><style>.cls-1{fill:#6a625e;}</style></defs><title>Asset 92</title><g id="Layer_2" data-name="Layer 2"><g id="graphic_elements" data-name="graphic elements"><g id="Layer_134" data-name="Layer 134"><path class="cls-1" d="M21.17,22.07c-.06.19-.11.39-.15.59a1.42,1.42,0,0,1-1.3,1.21c-1.73.2-3.46.44-5.19.51a37.08,37.08,0,0,1-9.61-.61l-.19,0a1.83,1.83,0,0,1-1.62-1.52c-.39-1.39-1-2.72-1.58-4.19a7.67,7.67,0,0,1,7.05-2.18,7.37,7.37,0,0,0,2-.12c0,.23,0,.46,0,.7a2.18,2.18,0,0,0,1.69,2.1,2.06,2.06,0,0,0,2.42-1A4.75,4.75,0,0,1,19,14.66l.34,0a7.17,7.17,0,0,0-.06,3.53,8.94,8.94,0,0,0,1.4,3.19Q20.88,21.71,21.17,22.07Z"/><path class="cls-1" d="M24.53,9.25a10.08,10.08,0,0,0-2.21,1.21A7.89,7.89,0,0,0,19.48,14l-.77.05a5.59,5.59,0,0,0-3.63,1.63c0-.95.06-1.89,0-2.82a11.43,11.43,0,0,0-.44-2.72,3.85,3.85,0,0,0-1.15-1.55,1.56,1.56,0,0,1-.59-.95c-.18-1-.4-1.92-.61-2.93a14.7,14.7,0,0,1,7.08-.3A6.61,6.61,0,0,1,23.4,7.24,19.75,19.75,0,0,1,24.53,9.25Z"/><path class="cls-1" d="M13.73,14.33a2.46,2.46,0,0,0-2.49.36l-.71-3.25c-.39-1.76-.76-3.53-1.17-5.28a7.33,7.33,0,0,1,.22-4c.13-.39.22-.8.32-1.21A1.28,1.28,0,0,1,11.53.06a1.08,1.08,0,0,1,.71,1.56,8.91,8.91,0,0,0-.05,5.58c.55,2.24,1,4.51,1.51,6.76A3.46,3.46,0,0,1,13.73,14.33Z"/><path class="cls-1" d="M1.12,17.56c-.23-.26-.43-.49-.65-.71a1.08,1.08,0,0,1,0-1.79,2.3,2.3,0,0,1,.71-.47,6.9,6.9,0,0,1,6.45.52A8.91,8.91,0,0,0,1.12,17.56Z"/><path class="cls-1" d="M12.75,14.78a1.57,1.57,0,0,0-1.56,1.57,1.56,1.56,0,1,0,3.12,0A1.58,1.58,0,0,0,12.75,14.78Zm0,2.4a.81.81,0,0,1-.79-.83.81.81,0,1,1,.79.83Z"/><path class="cls-1" d="M30.23,9.64c.29,0,.58.05.86.1A7.79,7.79,0,0,1,37,13.54a6,6,0,0,1,.29.61.18.18,0,0,0,.18.12,1.06,1.06,0,0,1,.76.28q0,.08,0,.16a1.36,1.36,0,0,1-.22.18,7.28,7.28,0,0,1-2.37.75,2.58,2.58,0,0,0-1.44.56.2.2,0,0,1-.16,0,19.55,19.55,0,0,0-3.89-.41c-1.38,0-2.75,0-4.12.09a1.51,1.51,0,0,1-.62,0,9.51,9.51,0,0,0-3.57-.59c-.35,0-.7.07-1.07.11a1.29,1.29,0,0,1,0-.19A5.58,5.58,0,0,1,22.65,12,9.94,9.94,0,0,1,28.33,9.7L29,9.64ZM24.7,11.25A5.71,5.71,0,0,0,22.56,13a1.64,1.64,0,0,0-.14.23.48.48,0,0,0,.13.65,5.41,5.41,0,0,0,.65.36.81.81,0,0,0,.81,0A14.61,14.61,0,0,1,28.29,13a10.77,10.77,0,0,1,4.4.24.21.21,0,0,0,.16,0c.32-.29.64-.58,1-.88a.46.46,0,0,0,0-.71,2.13,2.13,0,0,0-1-.56,16.3,16.3,0,0,0-2.71-.57c-.43,0-.85-.06-1.1-.08A9.56,9.56,0,0,0,24.7,11.25Zm4.49,4.09a16.2,16.2,0,0,1,3.47.29.3.3,0,0,0,.39-.22.29.29,0,0,0-.29-.33c-.68-.1-1.36-.21-2-.26s-1.55,0-2.33,0c-.61,0-1.21.06-1.82.09-.2,0-.32.13-.31.31s.14.27.35.23C27.46,15.39,28.32,15.35,29.19,15.34Zm6.7-2-1.31.47a.27.27,0,0,0-.15.17.26.26,0,0,0,.1.21,6.6,6.6,0,0,0,.62.35.27.27,0,0,0,.19,0l1.15-.45a.2.2,0,0,0,.07-.35c-.11-.13-.23-.25-.35-.37a.8.8,0,0,0-.16-.1Zm-3.66-2.88a7.31,7.31,0,0,1,2.13,1.07,5.33,5.33,0,0,1,1.19,1.17c.06.09.14.15.24.08s.06-.17,0-.25a5.66,5.66,0,0,0-2-1.71c-.48-.25-1-.43-1.5-.64a.16.16,0,0,0-.24.17A.83.83,0,0,0,32.23,10.44Z"/><path class="cls-1" d="M20.64,16.24l0-.4a8.75,8.75,0,0,1,4.84.5c-.31.72-.59,1.43-.93,2.11a9.19,9.19,0,0,1-2,2.8c-.21.19-.44.36-.69.57-.11-.29-.21-.53-.31-.77a13.87,13.87,0,0,1-.85-3.31c0-.29-.06-.58-.09-.86Zm3.14,2.56s-.06.07-.05.09,0,.15.06.17A.21.21,0,0,0,24,19s.07-.09.1-.14a12.34,12.34,0,0,0,.9-2.19.19.19,0,0,0-.13-.26l-1-.29a3.9,3.9,0,0,0-.47-.06c-.1,0-.19,0-.19.14s.07.14.16.15l1.13.21a1.72,1.72,0,0,1,.23.08A12.53,12.53,0,0,1,23.78,18.8Z"/><path class="cls-1" d="M29.08,24.23l-4.46-2a.3.3,0,0,0-.2,0,2.58,2.58,0,0,1-1.53.09A2.23,2.23,0,0,1,22,22a8.75,8.75,0,0,0,2.66-3.23,15.53,15.53,0,0,0,1-2.25c0-.07,0-.14.15-.14.92,0,1.85-.09,2.77-.11a28.82,28.82,0,0,1,4.09.18l.81.12-.59,1c-.05.09-.1.18,0,.25s.18,0,.24-.09l.64-1.06.17,0c-.33.55-.66,1.08-1,1.63a1.52,1.52,0,0,0-.15.41c0,.19-.07.39-.1.59-.14.9-.28,1.79-.43,2.69-.06.36-.15.71-.22,1.05a1.87,1.87,0,0,0-2,1.39A1.47,1.47,0,0,1,29.08,24.23Zm-4.27-2.7c1.32.59,2.67,1.15,4,1.79A1.82,1.82,0,0,0,31.25,22c.13-.9.29-1.8.44-2.7.07-.4.13-.79.2-1.19,0-.15,0-.21-.16-.24-.5-.09-1-.2-1.51-.25a4.65,4.65,0,0,0-2.15.28,5.84,5.84,0,0,0-2.8,2.23c-.28.4-.51.84-.78,1.29Zm7,1.15c.11,0,.15-.06.16-.15l.2-1.05a.58.58,0,0,0,0-.2c0-.05-.06-.13-.11-.14s-.15,0-.16.08c-.09.44-.17.88-.26,1.35C31.7,22.61,31.75,22.67,31.81,22.69Z"/><path class="cls-1" d="M31.45,25.45a2.19,2.19,0,0,1-1.16-.83.26.26,0,0,1,0-.2,1.65,1.65,0,0,1,1.59-1.22.26.26,0,0,1,.26.16,4.26,4.26,0,0,1,.31,1.23C32.42,25.3,32.07,25.59,31.45,25.45Zm.53-.7c0,.06.11.09.16.13s.11-.11.12-.17a.94.94,0,0,0-.13-.68.2.2,0,0,0-.14-.09s-.09.08-.11.13a.86.86,0,0,0,0,.2h0C31.87,24.43,31.91,24.6,32,24.75Z"/><path class="cls-1" d="M29.62,11.39c-.13,0-.25,0-.28.17s.08.21.2.26c.35.15.7.31,1.06.45a.6.6,0,0,0,.33,0,1.32,1.32,0,0,0,.82-.61c.11-.17,0-.34-.19-.34h-1S29.94,11.39,29.62,11.39Z"/><path class="cls-1" d="M24.54,13.45a.47.47,0,0,0,.38-.16c.28-.26.56-.51.85-.76.09-.08.15-.17.08-.29a.22.22,0,0,0-.29-.09l-1.87.59a.29.29,0,0,0-.17.17.26.26,0,0,0,.1.21A1.4,1.4,0,0,0,24.54,13.45Z"/><path class="cls-1" d="M28.12,10.64a7.18,7.18,0,0,0-3.5,1c-.09,0-.15.11-.1.21s.15.08.24,0A7.19,7.19,0,0,1,27,11,5.3,5.3,0,0,1,28.6,11c.1,0,.2,0,.22-.11s-.08-.17-.19-.17Z"/><path class="cls-1" d="M26.43,21.36l.27.17L29,22.94a.62.62,0,0,0,.8-.07.18.18,0,0,0,0-.16q-.74-1.49-1.49-3s-.1-.07-.12-.06a4,4,0,0,0-1.75,1.62Z"/><path class="cls-1" d="M30.54,19a4.83,4.83,0,0,0-1.88.42c-.09,0-.1.08-.06.17l1.44,3a.13.13,0,0,0,.18.08.65.65,0,0,0,.52-.59q.14-1.44.28-2.88c0-.08,0-.13-.1-.14Z"/></g></g></g></svg>