<svg xmlns="http://www.w3.org/2000/svg" viewBox="0 0 39.08 28.39"><defs><style>.cls-1{fill:#6a625e;}</style></defs><title>Asset 48</title><g id="Layer_2" data-name="Layer 2"><g id="graphic_elements" data-name="graphic elements"><g id="Layer_106" data-name="Layer 106"><path class="cls-1" d="M19.53,19a4.53,4.53,0,0,1,4.37,4.7,4.55,4.55,0,0,1-4.37,4.71,4.55,4.55,0,0,1-4.35-4.69A4.54,4.54,0,0,1,19.53,19Z"/><path class="cls-1" d="M39.08,23.68a4.55,4.55,0,0,1-4.33,4.72,4.55,4.55,0,0,1-4.39-4.68,4.38,4.38,0,1,1,8.73,0Z"/><path class="cls-1" d="M0,23.69A4.53,4.53,0,0,1,4.36,19a4.55,4.55,0,0,1,4.37,4.71,4.56,4.56,0,0,1-4.38,4.7A4.54,4.54,0,0,1,0,23.69Z"/><path class="cls-1" d="M19.51,3.91c.57-.5,1.1-1,1.69-1.47A11,11,0,0,1,28,0a8.18,8.18,0,0,1,7.72,6.85,9.15,9.15,0,0,1-3.2,9.38,7,7,0,0,1-5.34,1.58,11.79,11.79,0,0,1-7.44-3.76l-.13-.14-.16.14a12,12,0,0,1-7.07,3.73A8.13,8.13,0,0,1,3.41,11,9.3,9.3,0,0,1,5.72,2.43,7.23,7.23,0,0,1,11.9,0a11.7,11.7,0,0,1,7.56,3.83Zm8.22,9.5.69-.07A4.42,4.42,0,0,0,32,8.69a4.34,4.34,0,0,0-4-4.23,6.51,6.51,0,0,0-2.5.53,7.49,7.49,0,0,0-3,2,2.68,2.68,0,0,0,0,3.94A8.08,8.08,0,0,0,27.73,13.42Zm-16.29,0a7.88,7.88,0,0,0,3.47-1.13,6.2,6.2,0,0,0,1.92-1.62,2.61,2.61,0,0,0,0-3.42,4.82,4.82,0,0,0-.45-.51,7.89,7.89,0,0,0-2.91-1.79,5.64,5.64,0,0,0-2.8-.42,4.43,4.43,0,0,0-3.56,4.7A4.36,4.36,0,0,0,11.44,13.39Z"/></g></g></g></svg>