<svg xmlns="http://www.w3.org/2000/svg" viewBox="0 0 34.77 36.9"><defs><style>.cls-1{fill:#6a625e;}</style></defs><title>Asset 51</title><g id="Layer_2" data-name="Layer 2"><g id="graphic_elements" data-name="graphic elements"><g id="Layer_134" data-name="Layer 134"><path class="cls-1" d="M20.77,15.16h6a.79.79,0,0,1,.55.2,16.62,16.62,0,0,1,4.11,5.2,18.47,18.47,0,0,1,2,6.39,11.27,11.27,0,0,1-.55,5.56,6.58,6.58,0,0,1-5.2,4.25,8.07,8.07,0,0,1-1.49.14c-3.62,0-7.24,0-10.86,0A6.84,6.84,0,0,1,8.38,31.6a12,12,0,0,1-.23-4.8A18.55,18.55,0,0,1,12.6,17a23,23,0,0,1,1.78-1.7.56.56,0,0,1,.35-.12Z"/><path class="cls-1" d="M8.74,21.81a19.94,19.94,0,0,0-1.32,4.88,13.25,13.25,0,0,0,0,3.84,2.59,2.59,0,0,1-1-1.66c-.08-.44-.08-.89-.12-1.34a.88.88,0,0,0-.06-.29,7.07,7.07,0,0,0-.39-.71,6.07,6.07,0,0,0-5.69-4H0c.09-.43.19-.87.3-1.3.2-.77.29-.82,1.09-.85A16,16,0,0,1,8.74,21.81Z"/><path class="cls-1" d="M22,11.89c.79.26,1.55.49,2.29.75a5.45,5.45,0,0,1,1.77,1,2.3,2.3,0,0,1,.76,1.16H14.65A7,7,0,0,1,15,14.1a3.47,3.47,0,0,1,1.27-1,13.45,13.45,0,0,1,3-1.07l.24-.07c-.09-.35-.16-.7-.26-1s-.23-.69-.34-1a3.12,3.12,0,0,1-.1-.38.49.49,0,0,1,.42-.66,2.57,2.57,0,0,1,.58-.07l2.2,0,.13,0c.53.1.67.31.53.83s-.33,1-.49,1.56C22.12,11.4,22.08,11.65,22,11.89Z"/><path class="cls-1" d="M30.12,5.24a1.93,1.93,0,0,0-.62-1.78A12.32,12.32,0,0,0,21.21,0,12.35,12.35,0,0,0,12.8,3.5a1.83,1.83,0,0,0-.6,1.74A13.59,13.59,0,0,0,8.91,21.4q.31-.71.69-1.39A12.4,12.4,0,0,1,12.79,6.31a1.92,1.92,0,0,0,2.51.17c.32-.22.6-.49.91-.72A8.05,8.05,0,0,1,21.86,4,9.15,9.15,0,0,1,27,6.41a1.89,1.89,0,0,0,2.59-.09,12.4,12.4,0,0,1,2.82,14.52q.33.69.61,1.39a13.59,13.59,0,0,0-2.85-17Z"/></g></g></g></svg>