<svg xmlns="http://www.w3.org/2000/svg" viewBox="0 0 39.65 27.32"><defs><style>.cls-1{fill:#6a625e;}</style></defs><title>Asset 15</title><g id="Layer_2" data-name="Layer 2"><g id="graphic_elements" data-name="graphic elements"><g id="Layer_134" data-name="Layer 134"><path class="cls-1" d="M19.63,12.54H34.35a9.06,9.06,0,0,1,2.88.36,3.21,3.21,0,0,1,2.34,2.95c.11,1.2.07,2.41.07,3.62,0,1.56,0,3.12,0,4.68A2.56,2.56,0,0,1,37.37,27a10.77,10.77,0,0,1-2.41.29q-15.19,0-30.38,0a10.29,10.29,0,0,1-2.22-.25A2.71,2.71,0,0,1,.06,24.19c0-.64,0-1.29,0-1.93,0-2,0-3.91,0-5.86a5,5,0,0,1,.09-1c.35-1.82,1.38-2.67,3.4-2.81.72,0,1.44-.07,2.16-.07ZM15.45,23.87H7.82a2,2,0,0,0-.35,0,.52.52,0,0,0-.48.57.51.51,0,0,0,.49.52,2.42,2.42,0,0,0,.35,0H23.09c.12,0,.27,0,.35,0s.4-.32.45-.52-.15-.49-.44-.55a1.88,1.88,0,0,0-.39,0Zm14.44-4.48c.43,0,.64-.18.63-.56s-.21-.53-.66-.53-.6.17-.6.54S29.45,19.39,29.89,19.39Zm0,2c.42,0,.6-.18.59-.55s-.22-.55-.65-.54-.62.19-.61.58S29.47,21.35,29.93,21.34Zm4.24-2c.44,0,.66-.17.67-.53s-.2-.56-.63-.56-.64.17-.64.55S33.76,19.39,34.17,19.39Zm-2.11,0c.42,0,.61-.17.62-.53s-.2-.56-.63-.56-.65.18-.65.55S31.62,19.39,32.06,19.39Zm0,.86c-.44,0-.65.16-.67.53s.18.56.58.57.68-.15.68-.54S32.48,20.25,32.08,20.25Zm-2.18,2c-.45,0-.64.16-.63.54s.19.54.64.54.61-.16.62-.53S30.34,22.22,29.9,22.22Zm4.28-.87c.45,0,.65-.15.66-.53s-.22-.57-.63-.57-.64.17-.63.55S33.77,21.34,34.18,21.34Zm-2.11.87c-.44,0-.65.16-.66.53s.22.55.64.55.63-.18.62-.56S32.48,22.22,32.06,22.22Zm2.14,0c-.46,0-.63.15-.63.54s.19.54.6.54.66-.17.66-.53S34.64,22.22,34.2,22.22Zm0-5.17c.44,0,.64-.17.64-.55s-.2-.52-.62-.52-.65.14-.65.52S33.76,17,34.21,17Zm-4.32,0c.44,0,.64-.16.64-.53S30.35,16,30,16s-.69.12-.7.51S29.43,17,29.88,17ZM32,16c-.44,0-.62.15-.63.52s.2.55.64.55.62-.17.62-.52S32.49,16,32,16ZM8.6,20.92c-.45,0-.66.16-.65.54s.2.51.6.51.65-.16.64-.54S9,20.93,8.6,20.92Zm14.31-4c.45,0,.62-.14.62-.51s-.19-.55-.64-.54-.58.17-.59.52S22.49,17,22.91,17Zm-2.85,5c.43,0,.61-.16.62-.53s-.2-.52-.62-.52-.62.16-.62.53S19.63,22,20.06,22ZM8.54,17c.44,0,.63-.13.65-.49a.49.49,0,0,0-.54-.56c-.48,0-.69.15-.69.53S8.14,17,8.54,17Zm0,2.68c.46,0,.65-.17.64-.54s-.2-.52-.63-.51-.61.19-.6.54S8.16,19.65,8.55,19.65ZM22.91,22c.43,0,.62-.15.62-.52s-.17-.53-.6-.53-.63.16-.63.51S22.49,22,22.91,22Zm-8.58-6.06c-.42,0-.62.16-.63.51s.18.54.59.54.66-.16.65-.52S14.74,15.92,14.32,15.92ZM25.76,17c.44,0,.64-.14.65-.49s-.19-.55-.59-.56-.65.17-.64.54S25.35,17,25.76,17Zm-11.41,4c-.46,0-.67.16-.66.53s.2.52.59.52.66-.17.66-.53S14.75,20.93,14.35,20.92ZM5.7,17c.43,0,.62-.16.62-.52s-.2-.53-.62-.53-.61.15-.61.52S5.26,17,5.7,17Zm8.59,2.68c.43,0,.64-.16.65-.51s-.2-.55-.6-.55-.65.17-.64.55S13.9,19.65,14.29,19.65ZM5.72,20.92c-.46,0-.62.13-.62.51s.18.54.63.54.58-.16.6-.51S6.13,20.93,5.72,20.92ZM20,17c.43,0,.62-.16.62-.52s-.2-.52-.58-.53-.66.14-.67.52S19.63,17,20,17Zm2.88,2.68c.44,0,.61-.14.6-.53s-.17-.52-.58-.53-.65.16-.65.53S22.49,19.64,22.93,19.65Zm2.85,0c.43,0,.63-.15.64-.51s-.2-.54-.61-.55-.63.16-.64.51S25.35,19.65,25.77,19.65Zm-5.75,0c.44,0,.63-.14.65-.5s-.19-.55-.6-.55-.63.14-.64.5S19.61,19.64,20,19.65Zm5.81,1.28c-.46,0-.66.15-.66.52s.19.52.58.53.66-.16.66-.52S26.22,20.93,25.83,20.93ZM5.68,19.65c.44,0,.64-.15.65-.49s-.19-.55-.59-.56-.63.14-.64.5S5.26,19.64,5.68,19.65Zm5.77,0c.42,0,.61-.16.61-.53s-.19-.52-.62-.52-.61.17-.61.53S11,19.65,11.45,19.65ZM17.2,18.6c-.45,0-.64.16-.64.55s.19.5.6.5.62-.14.63-.5S17.61,18.6,17.2,18.6Zm-5.73-2.68c-.45,0-.64.17-.64.54s.19.51.63.51.59-.14.59-.5S11.88,15.92,11.47,15.92Zm5.7,1c.44,0,.62-.14.62-.51s-.19-.53-.61-.54-.61.15-.62.52S16.74,17,17.17,17Zm0,5c.45,0,.64-.16.63-.55s-.18-.5-.59-.5-.63.14-.64.5S16.74,22,17.16,22Zm-5.74,0c.45,0,.64-.16.64-.55s-.19-.5-.63-.5-.58.15-.6.5S11,22,11.42,22Z"/><path class="cls-1" d="M20,13.64h1.86c-.17-.9-.25-1.75-.48-2.56a9.16,9.16,0,0,0-8.67-6.56H11.15A3.7,3.7,0,0,1,7.3,1.08,1.54,1.54,0,0,0,6.91.16.92.92,0,0,0,6,.08a1.47,1.47,0,0,0-.51,1,5.41,5.41,0,0,0,5.14,5.24c.86,0,1.73,0,2.59.06A7.48,7.48,0,0,1,20,13.64Z"/></g></g></g></svg>