<svg xmlns="http://www.w3.org/2000/svg" viewBox="0 0 36.45 24.42"><defs><style>.cls-1{fill:#6a625e;}</style></defs><title>Asset 9</title><g id="Layer_2" data-name="Layer 2"><g id="graphic_elements" data-name="graphic elements"><g id="Layer_134" data-name="Layer 134"><path class="cls-1" d="M29.34,22.31l-1.42.25L24,23.32h-.06a.13.13,0,0,1-.14-.1l-1.63-6.69a.13.13,0,0,1,.07-.14l9.94-4.63a.13.13,0,0,1,.16,0l4.07,5.55a.13.13,0,0,1,0,.17l-.86.71L32.19,21h0l-.28,0v0l-3.14-4.28c-.07-.1-.13-.14-.25-.07l-.17.08c-.14,0-.18.11-.14.27.43,1.74.85,3.48,1.27,5.22Z"/><path class="cls-1" d="M14.33,8.43c0-.26.07-.51.1-.77l0,0C14.67,8,14.64,8.29,14.33,8.43Z"/><path class="cls-1" d="M18.56,2.75a.24.24,0,0,1,.34,0A1.32,1.32,0,0,0,20,3.15,4.77,4.77,0,0,0,23.5,1.52,1.33,1.33,0,0,0,23.91.44.25.25,0,0,1,24.1.16,3.26,3.26,0,0,1,24.64,0a6.43,6.43,0,0,1,3.87.68c1.09.62,2.13,1.32,3.19,2l1.22.78a.25.25,0,0,1,.1.3l-1.2,3.29a.25.25,0,0,1-.32.15l-1.27-.47-.17.18,1.53,3.28a.25.25,0,0,1-.12.33l-9.66,4.5a.25.25,0,0,1-.33-.12l-1.38-3a.25.25,0,0,0-.46,0l-.36,1a.25.25,0,0,1-.32.15L15.62,11.9a.25.25,0,0,1-.16-.27l.11-.87c.15-1.19.33-2.37.46-3.57a6.5,6.5,0,0,1,1.47-3.41,11.21,11.21,0,0,1,1.07-1Z"/><path class="cls-1" d="M20,23.65a1.56,1.56,0,0,1-1.66.33,1,1,0,0,0-.93.12A1.39,1.39,0,0,1,15.5,24a.54.54,0,0,0-.36-.07c-.21,0-.4.12-.61.16a1.58,1.58,0,0,1-1.82-.77c-.69.36-1.34.7-2,.07,0,0-.11-.06-.13,0-.5.37-1.05.05-1.43-.11C8.59,23,8,22.93,7.5,22.7a4.22,4.22,0,0,1-.93-.85c-1.09.67-1.8-.12-2.53-.8a1.52,1.52,0,0,1-2-.78,1.38,1.38,0,0,0-.68-.46A1.83,1.83,0,0,1,0,18.76a.55.55,0,0,1,.11-.48,14.07,14.07,0,0,0,3.54-4C5.09,12,6.41,9.72,7.74,7.44c.19-.32.35-.43.7-.31s.71.18,1.07.27a2,2,0,0,1,1.55,1,2.88,2.88,0,0,0,3.14,1.13c-.06.43-.26,1.91-.26,1.91a1.77,1.77,0,0,0,1.16,1.9l3.34,1.21.23.07q.11,2,.28,4a12.16,12.16,0,0,0,1.17,4.55A.5.5,0,0,1,20,23.65Z"/><path class="cls-1" d="M15.26,4.47a7.51,7.51,0,0,0-.66,1.95,3.07,3.07,0,0,0-3.44,0c-.11.09-.28.2-.39.18C10,6.45,9.23,6.25,8.43,6l.21-.87L4.18,6.75a.81.81,0,0,1-1.07-.61l-.35-1.8a.81.81,0,0,1,.46-.89C4.5,2.86,5.78,2.3,7,1.66A24.86,24.86,0,0,1,11.68.27a3.66,3.66,0,0,0,.81,3.11,3.77,3.77,0,0,0,1.61,1A2.81,2.81,0,0,0,15.26,4.47Z"/><path class="cls-1" d="M17,1.51a2,2,0,0,1-.46,1l-.16.18a2.28,2.28,0,0,1-1.93.68A2.32,2.32,0,0,1,12.84.48c.71.24,1.37.52,2.06.68S16.3,1.4,17,1.51Z"/><path class="cls-1" d="M14.33,8.43l-.11,0-.12,0a2.5,2.5,0,0,1-2.22-.62l0,0c-.29-.28-.2-.57.16-.76a2.29,2.29,0,0,1,2.42.57l0,0C14.67,8,14.64,8.29,14.33,8.43Z"/></g></g></g></svg>