<svg xmlns="http://www.w3.org/2000/svg" viewBox="0 0 38.17 21.91"><defs><style>.cls-1{fill:#6a625e;}</style></defs><title>Asset 91</title><g id="Layer_2" data-name="Layer 2"><g id="graphic_elements" data-name="graphic elements"><g id="Layer_134" data-name="Layer 134"><path class="cls-1" d="M33.4,5.4l1.12-1-1.37.13c-.34-1.63-.5-1.92-1.07-2.14a16.44,16.44,0,0,1,.11,1.76c0,.53-.28.74-.89.6A8.56,8.56,0,0,0,26,5.25a2.78,2.78,0,0,0,.2-1.73,5.24,5.24,0,0,1-.42.4A1,1,0,0,1,24.47,4a2.92,2.92,0,0,1-.55-.5c-.39-.48-.74-1-1.13-1.45A14,14,0,0,0,21.44.51a1.73,1.73,0,0,0-2.61.18A10.41,10.41,0,0,0,18,1.84c-.38.6-.71,1.23-1.12,1.8a3.4,3.4,0,0,1-.89.84,1.65,1.65,0,0,1-1.32.28,8,8,0,0,0-3.3,0,1.37,1.37,0,0,1-1.1-.21A3.48,3.48,0,0,1,9.15,3.35c-.34-.54-.64-1.1-1-1.64a6.76,6.76,0,0,0-.76-1A1.72,1.72,0,0,0,4.95.54a4.67,4.67,0,0,0-.78.76c-.51.63-1,1.31-1.49,1.94a5.17,5.17,0,0,1-.89.86A.94.94,0,0,1,.52,4C.36,3.9.22,3.76.07,3.62s0,0,0,0a2.69,2.69,0,0,0,3,3.18,4,4,0,0,0,2.4-1.25,10.75,10.75,0,0,1,.93-.86,1.46,1.46,0,0,1,1.8-.06c.38.24.74.53,1.11.81a8.57,8.57,0,0,0-4.76,9.09,8.32,8.32,0,0,0,6.1,7,8.19,8.19,0,0,0,6.39-.6,8.61,8.61,0,0,0,4.19-4.71,1.1,1.1,0,0,0,0,.17A8.83,8.83,0,0,0,35,19.94a8.58,8.58,0,0,0,3.11-6.1C38.36,10.09,36.66,7.33,33.4,5.4ZM14.27,20.48a7.35,7.35,0,0,1-8.54-8,7.56,7.56,0,0,1,.82-2.7A.6.6,0,0,1,7,9.47l3.26-.79a1.05,1.05,0,0,0,.57-.32c.18-.22.39-.41.65-.67v.73H13.9c0-.18,0-.35,0-.6.42.43.79.82,1.18,1.19a.77.77,0,0,0,.42.19c1.22.14,2.45.27,3.67.39a.43.43,0,0,1,.37.26A7.36,7.36,0,0,1,14.27,20.48Zm7-10.32a.77.77,0,0,0-.07.16,8.77,8.77,0,0,0-4.35-4.87l1-.73a1.64,1.64,0,0,1,2.37.12c.29.26.55.56.85.83a3.46,3.46,0,0,0,2.7,1,8.62,8.62,0,0,0-2.09,2.76C21.56,9.68,21.44,9.88,21.3,10.16Zm9.31,10.55a7.54,7.54,0,0,1-8.5-5.88A13.89,13.89,0,0,1,22,12.24c0-.57.28-.8.85-1,1.88-.54,3.77-1.09,5.59-1.8a9.47,9.47,0,0,0,3.74-2.71c.73,1.1,1.34,2.2,2.12,3.16a12.35,12.35,0,0,0,2.17,2,1.21,1.21,0,0,1,.59,1A7.6,7.6,0,0,1,30.61,20.71Z"/><path class="cls-1" d="M33.7,15.63a4.29,4.29,0,0,1-8.45,0Z"/><path class="cls-1" d="M32.23,13.34a1,1,0,0,1-1-.93,1,1,0,0,1,1-1,1,1,0,0,1,1,1A1,1,0,0,1,32.23,13.34Z"/><path class="cls-1" d="M26.77,11.36a1,1,0,0,1,1,1,1,1,0,0,1-1,.93,1,1,0,0,1-1-1A1,1,0,0,1,26.77,11.36Z"/><path class="cls-1" d="M16.14,16a3,3,0,0,1-6,0Z"/><path class="cls-1" d="M11.16,11.67a1.07,1.07,0,1,1-1.09-1.07A1.07,1.07,0,0,1,11.16,11.67Z"/><path class="cls-1" d="M15.82,12.88a1.08,1.08,0,0,1,0-2.15,1.08,1.08,0,1,1,0,2.15Z"/></g></g></g></svg>