<svg xmlns="http://www.w3.org/2000/svg" viewBox="0 0 31.82 36.38"><defs><style>.cls-1{fill:#6a625e;}</style></defs><title>Asset 29</title><g id="Layer_2" data-name="Layer 2"><g id="graphic_elements" data-name="graphic elements"><g id="Layer_117" data-name="Layer 117"><path class="cls-1" d="M22.45,6.33a8.33,8.33,0,0,0-1.79-4A6.2,6.2,0,0,0,15.91,0a6.21,6.21,0,0,0-4.75,2.33A8.55,8.55,0,0,0,9.25,7.83h1.27a7.29,7.29,0,0,1,1.62-4.68,4.94,4.94,0,0,1,3.78-1.88,4.93,4.93,0,0,1,3.78,1.88A7.29,7.29,0,0,1,21.3,7.83h1.27c0-.27,0-.54,0-.81A5.45,5.45,0,0,0,22.45,6.33Z"/><path class="cls-1" d="M31.8,33.24l-.74-5.74L29,11.82a3.71,3.71,0,0,0-3.58-3.15H6.37a3.71,3.71,0,0,0-3.58,3.15L.77,27.5,0,33.24A2.73,2.73,0,0,0,2.8,36.38H29A2.73,2.73,0,0,0,31.8,33.24ZM21.18,11.54s0,0,0-.07a0,0,0,0,1,0,0s0,0,0-.06h0s0,0,0,0,0,0,0,0l0-.06a.63.63,0,0,1,.08-.12.08.08,0,0,1,0,0s0,0,0,0l.05,0,0,0,.06,0s0,0,.06,0l.13-.06.06,0h0a.78.78,0,0,1,.22,0,.88.88,0,0,1,0,1.75.78.78,0,0,1-.22,0s0,0,0,0h-.06l-.13-.06-.06,0-.06,0s0,0,0-.05l-.05,0h0l0,0,0-.06a.75.75,0,0,1-.07-.12s0,0,0,0a.43.43,0,0,0,0-.05h0s0,0,0-.06a0,0,0,0,1,0,0s0,0,0-.08Zm-11-.78a.88.88,0,1,1-.87.87A.87.87,0,0,1,10.23,10.76Z"/></g></g></g></svg>