<svg xmlns="http://www.w3.org/2000/svg" viewBox="0 0 37.06 31.67"><defs><style>.cls-1{fill:#6a625e;}</style></defs><title>Asset 28</title><g id="Layer_2" data-name="Layer 2"><g id="graphic_elements" data-name="graphic elements"><g id="Layer_134" data-name="Layer 134"><path class="cls-1" d="M.47,31.67,0,30.48l2.53-6.53c.69-1.77,1.38-3.53,2.06-5.3a2.4,2.4,0,0,0,.13-.83q0-8.6,0-17.19c0-.2,0-.39,0-.62h27.6c0,.25,0,.46,0,.68q0,8.57,0,17.14a2.64,2.64,0,0,0,.17.92c1.5,3.9,3,7.79,4.55,11.73l-.47,1.19Zm35.86-1.23L31.88,19H5.18L.73,30.44ZM31.62.66H5.44V18.25H31.62Z"/><path class="cls-1" d="M33.25,25.06H3.81l1.95-5H31.29Zm-10.56-.5H25l-.24-1.12h-2.2Zm-16,0H9l.29-1.13H7.11Zm7.75-1.14H12.26l-.2,1.13h2.31ZM28,24.58h2.3l-.38-1.13H27.73Zm-18.62,0h2.31l.17-1.11H9.68ZM20,23.44l.06,1.12h2.3l-.14-1.12Zm7.38,0H25.14l.22,1.12h2.3ZM14.71,24.57H17V23.45H14.84Zm2.71,0h2.21V23.45H17.42Zm2.51-2.88H22L21.9,20.6h-2Zm4.69-1.11.2,1.11h2.1l-.29-1.11Zm4.73,1.12L29,20.59H27l.29,1.1Zm-21.67,0H9.78l.28-1.13h-2Zm2.45,0h2.09l.2-1.1h-2Zm14.33,0-.21-1.11h-2l.13,1.11Zm-11.89,0h2.1l.12-1.07h-2Zm4.53,0,.05-1.12h-2L15,21.71Zm2.41,0V20.6h-2v1.1Zm.07.4H17.47v1H19.6ZM6.38,24.58l.37-1.13H5l-.45,1.13Zm23.93-1.14.38,1.14h1.86l-.45-1.14ZM17.08,22.1H15l-.09,1h2.19Zm2.9,0v1h2.21l-.13-1Zm-7.47,0-.16,1h2.19l.09-1Zm9.92,0,.11,1h2.19l-.18-1Zm5.21,1h2.17l-.31-1H27.38Zm-15.48-1H10l-.23,1H12Zm-2.48,0H7.56l-.31,1H9.43ZM27,22.1H24.9l.19,1h2.18Zm-21.37-.4H7.33l.37-1.12H6.08Zm25.76,0L31,20.59H29.36l.38,1.11ZM5.12,23.06H6.89l.29-1H5.49Zm25.05,0h1.77l-.37-1h-1.7Z"/><path class="cls-1" d="M13.28,29.34l1.32-3.39h7.87l1.31,3.39Zm.5-.34h9.51l-1-2.69H14.82Z"/><path class="cls-1" d="M30.07,16.72H7V2.22H30.07Z"/></g></g></g></svg>