<svg xmlns="http://www.w3.org/2000/svg" viewBox="0 0 38.56 32.91"><defs><style>.cls-1{fill:#6a625e;}</style></defs><title>Asset 30</title><g id="Layer_2" data-name="Layer 2"><g id="graphic_elements" data-name="graphic elements"><g id="Layer_134" data-name="Layer 134"><path class="cls-1" d="M18.81,32.84a3.46,3.46,0,0,1-2.48-.56L3.88,25,0,22.67v-.42a.87.87,0,0,1,.77-.63l.17,0,4.78-.82L13,19.49l.91-.17c0-.09,0-.16.05-.24l.36-2.15,1-5.89,1.11-6.63a2.5,2.5,0,0,1,.29-.93A.92.92,0,0,1,17.44,3l3.37-.51,4.64-.72L30.53,1l5.14-.8c.39-.06.77-.14,1.15-.22h.69l.14.06a1.2,1.2,0,0,1,.83.84l.07.22V2c-.06.33-.12.67-.18,1L37.5,8.41l-.82,5.09c-.3,1.87-.59,3.74-.91,5.61s-.68,3.92-1,5.88c-.08.44-.16.87-.23,1.3L18.81,32.84M35.58,1.63l-1.83.24-3.91.51-4.26.56-3.67.48-4,.52a.75.75,0,0,0-.63.42,1.81,1.81,0,0,0-.19.5c-.24,1.38-.47,2.76-.7,4.14q-.59,3.55-1.18,7.1a7.93,7.93,0,0,0-.12,1.07.56.56,0,0,0,.51.63l10,2.3,6.62,1.53a1,1,0,0,0,.92-.27,1.49,1.49,0,0,0,.4-.88q.36-2.17.72-4.33l.83-5L36,5.78c.17-1,.35-2,.51-3.06A.86.86,0,0,0,35.58,1.63Zm-30,22.13v.07l.19.11c1.25.67,2.51,1.33,3.76,2a1.29,1.29,0,0,0,1,.13c1.22-.32,2.44-.65,3.66-1a1,1,0,0,0,.2-.11v-.05l-.23-.12L10,23a1.31,1.31,0,0,0-.81-.09l-3.39.73A1.66,1.66,0,0,0,5.54,23.76ZM10,22.33l.21.1,6.68,2.76a.86.86,0,0,0,.6,0l1-.3.14-.07v0l-.26-.11-6.58-2.54a1.41,1.41,0,0,0-.88-.07l-.72.15Zm11.47,3.43.22.1,1.26.48,2.93,1.13a.65.65,0,0,0,.54,0c.32-.14.66-.26,1-.39l.21-.09-.11-.06-4.41-1.57a.62.62,0,0,0-.35,0c-.37.1-.74.23-1.1.35Zm2.47-.28.14.07,3.58,1.27a.64.64,0,0,0,.39,0c.35-.12.68-.26,1-.4l.12-.08-.21-.08c-1.05-.35-2.11-.69-3.16-1.07a1.32,1.32,0,0,0-1,0C24.49,25.31,24.21,25.38,23.9,25.49Zm4-.74v0l.14.05,2.49.79a.74.74,0,0,0,.57,0c.24-.11.49-.19.73-.29l.13-.07-.07,0-2.69-.8a.42.42,0,0,0-.23,0Zm-5.24,2.82.09.06,1.43.58a.39.39,0,0,0,.26,0l1.29-.5.16-.09L24.3,27a.36.36,0,0,0-.22,0l-1.3.47ZM18.85,26V26l1.64.67a.36.36,0,0,0,.23,0l1.4-.47s0,0,0,0l0,0-1.57-.6a.39.39,0,0,0-.23,0Zm11.64-.19v-.05l-.18-.06c-.45-.14-.9-.26-1.34-.43a1.22,1.22,0,0,0-1,0c-.24.11-.49.18-.77.28l.12.06,1.85.62a.28.28,0,0,0,.17,0Zm-9.6,1.06.2.09c.27.11.55.21.81.34a1,1,0,0,0,1,0,4.87,4.87,0,0,1,.58-.21l.53-.2-.09,0-1.37-.52a.4.4,0,0,0-.24,0L21,26.77Zm-3.55-1.47.17.09c.3.13.6.26.91.37a.66.66,0,0,0,.37,0c.41-.11.81-.24,1.21-.37l.17-.07c-.42-.16-.8-.31-1.19-.45a.52.52,0,0,0-.28,0l-1,.28Zm5.19-.18v-.05l-1.23-.43a.2.2,0,0,0-.11,0l-1.32.4s0,0,0,0l1.2.45a.22.22,0,0,0,.13,0Zm5.63-.14V25a6.09,6.09,0,0,1-.69-.23,1.67,1.67,0,0,0-1.5,0,4.1,4.1,0,0,1-.5.17v0l1.38.46a.22.22,0,0,0,.13,0ZM25,25v0c-.33-.11-.66-.21-1-.34a1,1,0,0,0-.74,0c-.32.12-.64.2-1,.3v0l1.28.44a.26.26,0,0,0,.15,0Zm-6.56-.42v.05L19.5,25a.26.26,0,0,0,.15,0l1.39-.4L21,24.58l-1-.37a.24.24,0,0,0-.13,0Zm5.49-.14v0l1.27.42a.23.23,0,0,0,.13,0l1.18-.38v0l-1.29-.39a.32.32,0,0,0-.17,0Zm-3.12-.05v0l1.14.4a.43.43,0,0,0,.24,0l1.08-.33.14-.06-1.2-.4a.24.24,0,0,0-.13,0Zm5.49-.15v.06c.4.13.8.26,1.21.38a.63.63,0,0,0,.33,0c.3-.09.58-.19.88-.3l.13-.07-1.35-.4a.21.21,0,0,0-.11,0Zm-6.72-.1v0c-.23-.08-.46-.15-.68-.25a1.09,1.09,0,0,0-.85,0c-.31.11-.64.18-1,.26v0c.55.16,1,.57,1.68.25a2.71,2.71,0,0,1,.48-.14ZM24.86,24V24c-.24-.08-.48-.14-.71-.23a1.28,1.28,0,0,0-1,0,7.21,7.21,0,0,1-.73.22v0l1.17.38a.24.24,0,0,0,.13,0Zm-5.43-.14v0c.33.12.65.24,1,.35a.6.6,0,0,0,.32,0c.35-.09.69-.2,1-.3l.15-.06a7.12,7.12,0,0,1-.69-.24,1.26,1.26,0,0,0-1,0C20,23.75,19.68,23.81,19.42,23.88Zm7.74-.06-.06-.05L26,23.43a.29.29,0,0,0-.15,0l-1.12.32c.41.17.82.29,1.23.42a.28.28,0,0,0,.15,0ZM10.75,21v0c-.3-.11-.62-.21-.91-.33A1.3,1.3,0,0,0,9,20.53c-.14,0-.28,0-.42.08l-.35.07c.4.18.8.34,1.21.49a.31.31,0,0,0,.15,0Zm7.49,2.67v0c-.29-.1-.57-.22-.86-.31a.74.74,0,0,0-.35,0c-.34.07-.67.16-1,.25l-.17.06a10.07,10.07,0,0,0,1,.39.17.17,0,0,0,.09,0ZM21,23.46v.05c.24.08.48.15.72.25a1.07,1.07,0,0,0,.83,0c.26-.1.53-.16.8-.24v0a4.55,4.55,0,0,1-.52-.17,1.54,1.54,0,0,0-1.26,0A5.79,5.79,0,0,1,21,23.46Zm-.57,0v0c-.3-.1-.59-.21-.89-.29a.8.8,0,0,0-.37,0c-.34.07-.67.17-1,.25l-.14.06,1,.35a.35.35,0,0,0,.19,0Zm5.14-.11v0L24.48,23a.23.23,0,0,0-.11,0l-1.12.3v.05l1.15.36h.1ZM17,23.2v0l-.81-.29a.38.38,0,0,0-.19,0l-1.31.3v0l.9.33a.28.28,0,0,0,.15,0ZM6.67,20.95v0l1,.39h.1L9,21.16c-.19-.11-.39-.16-.57-.26a1.36,1.36,0,0,0-1-.1C7.18,20.86,6.93,20.9,6.67,20.95ZM22,23.09v0l-.89-.28a.44.44,0,0,0-.21,0l-1.2.29v0l1,.33a.22.22,0,0,0,.11,0ZM16.9,23v0a3.62,3.62,0,0,1,.43.16,1.35,1.35,0,0,0,1.13,0c.22-.08.46-.13.7-.19V23l-1-.3a.23.23,0,0,0-.11,0Zm7.22,0v0a2.67,2.67,0,0,1-.28-.09,2,2,0,0,0-1.65,0,3.08,3.08,0,0,1-.31.09c.35.15.7.25,1,.36H23Zm-10.54-.22v0l.81.3a.28.28,0,0,0,.15,0l1.18-.28.1-.05L15,22.45a.26.26,0,0,0-.13,0Zm-3.43-1.1v-.05c-.43-.12-.82-.44-1.33-.27a5.08,5.08,0,0,1-.66.13l-.22.06a5.15,5.15,0,0,0,.73.34.41.41,0,0,0,.2,0Zm10.51,1.06v0l-.71-.22a.74.74,0,0,0-.32-.07c-.4.08-.79.18-1.19.27v0l.93.31a.26.26,0,0,0,.13,0Zm-2.71-.06a1.85,1.85,0,0,0-1.56-.21L16,22.5l-.25.07a7.83,7.83,0,0,0,.86.34h.09Zm2.64-.16v0l.23.08a1.91,1.91,0,0,0,1.61,0,3,3,0,0,1,.31-.09,8.88,8.88,0,0,0-1-.33h-.11Zm-8.05-.14v0a2.07,2.07,0,0,1,.23.09,1.39,1.39,0,0,0,1.17.08c.23-.08.48-.12.72-.17v0l-.57-.21a.62.62,0,0,0-.28-.07C13.38,22.13,13,22.23,12.53,22.32Zm6.86,0v0c-.22-.07-.45-.13-.67-.21a.86.86,0,0,0-.54,0l-.91.22a5.77,5.77,0,0,0,.8.3.38.38,0,0,0,.19,0Zm-4.78-.09a1.76,1.76,0,0,0,1.55.19,2.63,2.63,0,0,1,.37-.09l.21-.05a4.45,4.45,0,0,0-.66-.26.54.54,0,0,0-.24,0Zm4.77-.12v.05l.22.07a1.8,1.8,0,0,0,1.45,0c.13,0,.27-.08.41-.11a5.34,5.34,0,0,0-.67-.23.83.83,0,0,0-.33-.07C20.1,21.89,19.74,22,19.38,22.07ZM9.69,20.41v0l.8.28a.45.45,0,0,0,.21,0l1.09-.2v-.05l-.94-.3h-.1ZM13.58,22v0l-.18-.08a1.74,1.74,0,0,0-.62-.18,11.75,11.75,0,0,0-1.26.25,5.58,5.58,0,0,0,.71.3.21.21,0,0,0,.11,0Zm-4.52-.08v0a1.4,1.4,0,0,0,1.11.2,7.82,7.82,0,0,1,.93-.2v-.06a2.53,2.53,0,0,0-.78-.22A9.3,9.3,0,0,0,9.06,21.92Zm9.17,0a1.78,1.78,0,0,0-1.4-.2,2.66,2.66,0,0,1-.45.1l-.19.05a3.87,3.87,0,0,0,.66.26.57.57,0,0,0,.26,0Zm-2.58,0v0c-.13,0-.27-.08-.4-.14a1.16,1.16,0,0,0-.82,0c-.26.08-.54.12-.81.18a3.67,3.67,0,0,0,.61.26.52.52,0,0,0,.24,0ZM13.2,20.31v0l-.62-.2a1.16,1.16,0,0,0-.41-.1c-.35,0-.7.11-1.06.17v0l.87.29a.46.46,0,0,0,.21,0Zm5,1.4v0L19,22a.4.4,0,0,0,.19,0l1.08-.25v-.05a3.84,3.84,0,0,0-.94-.22A5.8,5.8,0,0,0,18.21,21.71Zm-5.61-.07a1.4,1.4,0,0,0-1.2-.21,3.62,3.62,0,0,1-.55.11l-.24.06a2.17,2.17,0,0,0,.42.19.83.83,0,0,0,.35.09C11.79,21.81,12.19,21.72,12.6,21.64Zm4.51-.09a1.72,1.72,0,0,0-1.31-.19,3.67,3.67,0,0,1-.54.12l-.15.05.57.19a.69.69,0,0,0,.3.07C16.35,21.73,16.73,21.63,17.11,21.55Zm-2.51,0v0l-.42-.14a.88.88,0,0,0-.35-.1c-.4.06-.8.15-1.19.23v0l.45.16a.79.79,0,0,0,.33.09C13.82,21.69,14.21,21.59,14.6,21.51Zm2.52-.14v.07a4.58,4.58,0,0,0,1,.19,4.76,4.76,0,0,0,1-.21,3,3,0,0,0-.54-.19.91.91,0,0,0-.35-.07C17.83,21.21,17.48,21.3,17.13,21.37Zm-7.37-.11v.05a2.08,2.08,0,0,0,.69.21,9.18,9.18,0,0,0,1.22-.22v-.07a2.4,2.4,0,0,0-.72-.19A9,9,0,0,0,9.76,21.26Zm6.27,0v-.05a2.85,2.85,0,0,0-.79-.2,7.19,7.19,0,0,0-1.12.21,4.66,4.66,0,0,0,.67.26.35.35,0,0,0,.17,0Zm-4.31-.09a1.33,1.33,0,0,0,1.09.21,2,2,0,0,1,.3-.07l.49-.1v0a2.3,2.3,0,0,0-.71-.2A8.68,8.68,0,0,0,11.72,21.13ZM16.09,21a2.05,2.05,0,0,0,1.87,0,2.46,2.46,0,0,0-.81-.22A6.36,6.36,0,0,0,16.09,21ZM15,20.9v0a1.66,1.66,0,0,0-1.09-.16,6.2,6.2,0,0,1-.74.15,1.19,1.19,0,0,0,.34.15,1.17,1.17,0,0,0,.43.1C14.32,21.06,14.67,21,15,20.9Zm-2.35,0a1.38,1.38,0,0,0-1.14-.18,6.21,6.21,0,0,1-.69.14v.05a2.38,2.38,0,0,0,.7.18A8.45,8.45,0,0,0,12.68,20.87Zm2.45-.12a2.1,2.1,0,0,0,1.79,0A2.17,2.17,0,0,0,15.13,20.75Zm-2.82-.18v0a2.45,2.45,0,0,0,.7.18,7.49,7.49,0,0,0,1.07-.19v-.07a3.11,3.11,0,0,0-.75-.16A7,7,0,0,0,12.31,20.57Zm1.91-.12v.06a2.63,2.63,0,0,0,.71.17,6.69,6.69,0,0,0,1-.18v-.05a2.47,2.47,0,0,0-.69-.18A7.07,7.07,0,0,0,14.22,20.45Zm-.91-.27c.57.38,1.13.13,1.69,0a1.86,1.86,0,0,0-.68-.19A7.15,7.15,0,0,0,13.31,20.18Zm.83-.24a2.19,2.19,0,0,0-1.66,0C13,20.27,13.56,20,14.14,19.94Z"/></g></g></g></svg>