<svg xmlns="http://www.w3.org/2000/svg" viewBox="0 0 31.71 36.71"><defs><style>.cls-1{fill:#6a625e;}</style></defs><title>Asset 76</title><g id="Layer_2" data-name="Layer 2"><g id="graphic_elements" data-name="graphic elements"><g id="Layer_134" data-name="Layer 134"><path class="cls-1" d="M17.72,0c.41.09.82.15,1.22.27a3,3,0,0,1,1.93,2.27,9.15,9.15,0,0,1,.34,2.55c0,1.52.05,3,.09,4.55,0,.13,0,.25,0,.38l-.09,0c-.13-.42-.31-.84-.4-1.27-.36-1.68-.72-3.36-1-5.06A5.64,5.64,0,0,0,18,.68c-.24-.23-.49-.45-.74-.68Z"/><path class="cls-1" d="M19.8,22.95a4.9,4.9,0,0,1-2,3.42A24.16,24.16,0,0,0,19,23.84a6,6,0,0,0-.84-5.43A7.55,7.55,0,0,0,15.8,16a6.58,6.58,0,0,1-3-5A25,25,0,0,1,12.8,5c.06-.74.13-1.48.17-2.22a6.12,6.12,0,0,0-.07-.85,1.38,1.38,0,0,0-.78.85,10.39,10.39,0,0,0-.52,1.71A10.86,10.86,0,0,1,9.24,9.38c-.57.72-.52.94.27,1.41l.27.17-.42.53c-.32.43-.29.58.14.91l.27.19c-.73.4-.74.49-.14,1.07l.27.25c-.07.19-.16.38-.21.57-.24.86.12,1.41,1,1.44a9,9,0,0,0,2.1-.11,1.63,1.63,0,0,1,1.77.69,9.34,9.34,0,0,1,1.86,4.41,8.34,8.34,0,0,1-.23,4.46c-1.46,3.7-3.9,6.41-8,7.31a6.72,6.72,0,0,1-2.6.1c.49-.24,1-.45,1.46-.72a6.05,6.05,0,0,0,1.21-.82A2.77,2.77,0,0,0,9,28.73,9.55,9.55,0,0,0,7.9,25.45c-.83-1.52-1.68-3-2.62-4.49a6,6,0,0,1-.88-3.87,19.13,19.13,0,0,1,1.62-6c.32,5.28,5.43,9.44,5.31,14-.12,4.72-1.74,5.86-1.08,5.38s2.57-3,2-6.85-2.87-5.38-3.83-8a33.32,33.32,0,0,1-1.31-7c.22-.41.43-.81.64-1.22a.34.34,0,0,0,0-.26c-.13.17-.26.34-.38.52a23,23,0,0,0-3.27,6.42,9,9,0,0,0,.37,7C5,22.06,5.43,23,5.85,24a18.71,18.71,0,0,1,1.43,4.08,3.15,3.15,0,0,1-.85,3.1,2.37,2.37,0,0,1-3.7-.53,4.62,4.62,0,0,1-.61-2.46,1.93,1.93,0,0,1,.17.22,2.05,2.05,0,0,0,2.63.57,1.05,1.05,0,0,0,.38-1.51,5,5,0,0,0-1.57-1.59A9.14,9.14,0,0,1,.77,22.42a8.69,8.69,0,0,1-.66-5,20.14,20.14,0,0,1,2.21-6.45A22,22,0,0,1,5.7,5.77a18.11,18.11,0,0,1,5.73-4.42,6.7,6.7,0,0,1,1.5-.45,1,1,0,0,1,1.25.74,14,14,0,0,1,.52,2.41c.21,2,.33,4,.52,6A12,12,0,0,0,16,13.68a6.85,6.85,0,0,0,.67,1.26,24.37,24.37,0,0,1,2.43,4.13A7.67,7.67,0,0,1,19.8,22.95Z"/><path class="cls-1" d="M21.72,34.66a4.76,4.76,0,0,0,1.51-1.19A9,9,0,0,0,25.18,29a15.73,15.73,0,0,0-1.16-9,15.35,15.35,0,0,0-2.15-3.63,20.4,20.4,0,0,1-4-9.08,17.65,17.65,0,0,0-1.51-5c-.36-.68-.79-1.33-1.19-2a2.14,2.14,0,0,1,2.48.52,5.85,5.85,0,0,1,1.11,1.87,23.8,23.8,0,0,1,1.19,4.9A10.91,10.91,0,0,0,22,12.62c1.34,1.77,2.68,3.55,4,5.33a10.61,10.61,0,0,1,1.69,2.77,9.56,9.56,0,0,1,.4,4.14,23.7,23.7,0,0,1-1.15,5l-.1.31s0,0,0,.1c1.34-2.21,2.54-4.44,2.59-7.1a7.15,7.15,0,0,0-2.18-5.29,12,12,0,0,0-1.72-1.46,7.43,7.43,0,0,1-2.75-3.71,23.7,23.7,0,0,1-1.09-5.61c-.18-1.7-.39-3.39-.66-5.08a9.48,9.48,0,0,0-.61-1.7,2.41,2.41,0,0,1,1.68.85,6.74,6.74,0,0,1,1.51,2.66c.54,1.66,1,3.33,1.51,5a8.07,8.07,0,0,0,1.27,2.55c1,1.4,2,2.8,3,4.25a12.26,12.26,0,0,1,1.74,4.22,8.89,8.89,0,0,1-.34,5,26.5,26.5,0,0,1-3.29,6.38,14,14,0,0,1-5.25,4.62,9,9,0,0,1-3.54.86c.44-.39.89-.75,1.3-1.16a9.63,9.63,0,0,0,2.78-5.8A13.89,13.89,0,0,0,20.36,20c-.26-.38-.57-.74-.87-1.1a16.15,16.15,0,0,1-3.55-8c-.31-2.07-.48-4.15-.73-6.23a12.63,12.63,0,0,0-1-3.87A.6.6,0,0,1,14.17.4c.15.1.34.17.43.3a11.2,11.2,0,0,1,1,1.55,22,22,0,0,1,2.1,7.7,7.44,7.44,0,0,0,1.88,4.26,29.58,29.58,0,0,1,3.87,6,12.73,12.73,0,0,1-.7,13C22.42,33.63,22.09,34.1,21.72,34.66Z"/><path class="cls-1" d="M22.82,1.42a24.09,24.09,0,0,1,4.73,4.15,15.61,15.61,0,0,1,3.5,7.7c.27,1.48.44,3,.64,4.47a1.6,1.6,0,0,1,0,.55l-.16-.45a14.72,14.72,0,0,0-2.42-4.68,16.81,16.81,0,0,0-1.43-1.51A6,6,0,0,1,26,8.89a33.24,33.24,0,0,0-2.14-5.58C23.5,2.68,23.16,2.05,22.82,1.42Z"/></g></g></g></svg>