<svg xmlns="http://www.w3.org/2000/svg" viewBox="0 0 34.04 36.81"><defs><style>.cls-1{fill:#6a625e;}</style></defs><title>Asset 75</title><g id="Layer_2" data-name="Layer 2"><g id="graphic_elements" data-name="graphic elements"><g id="Layer_134" data-name="Layer 134"><path class="cls-1" d="M26.36,18.38c0-.23-.1-.47-.15-.7l-.1.16a5,5,0,0,1-.34.53c-.47.69-1,1.52-1.65,2.41,0,.19,0,.37.05.52a13,13,0,0,1-3.59,9.37,9.92,9.92,0,0,1-14.47,0,12.38,12.38,0,0,1-3.51-7.49,13,13,0,0,1,2.17-9,10.37,10.37,0,0,1,6.17-4.44A9.4,9.4,0,0,1,16.5,10l1.76-2.58a11.39,11.39,0,0,0-3-.92c-.41-.07-.81-.11-1.22-.16H12.59l-.21,0a21.33,21.33,0,0,0-2.44.48,12.94,12.94,0,0,0-7.35,5.73,16.51,16.51,0,0,0-2,13.29,14.46,14.46,0,0,0,5.35,8.31,11.58,11.58,0,0,0,12.23,1.55,13.26,13.26,0,0,0,6.49-6.14A16.66,16.66,0,0,0,26.36,18.38ZM3.27,29.52a21.81,21.81,0,0,1-2-6.31,13.46,13.46,0,0,1,6-13.79l.25-.15h0c-.51.48-1,.95-1.52,1.44a14.7,14.7,0,0,0-4.18,8.91,21.18,21.18,0,0,0,1.44,9.8.72.72,0,0,1,.05.23A.73.73,0,0,1,3.27,29.52Z"/><path class="cls-1" d="M27.75,10.6l-.22-.15c-1.33-.91-1.39-.92-.61-2.89A14.9,14.9,0,0,1,28.7,4a2.89,2.89,0,0,1,4.4-.49C34.38,4.8,34.38,6.67,33,8.25c-.94,1-2.05,1.92-3.09,2.87-.45.41-.83.46-1.2.12A7.36,7.36,0,0,0,27.75,10.6Z"/><path class="cls-1" d="M22.94,15.41l2.16,1.47c-.17.27-.31.5-.46.73l-6.5,9.55c-.33.49-.71,1.16-1.24,1a3.83,3.83,0,0,1-1.49-1.06c-.12-.13,0-.73.21-1,2.37-3.52,4.77-7,7.17-10.53A1.07,1.07,0,0,1,22.94,15.41Z"/><path class="cls-1" d="M28.81,12.11c-1,1.34-2,2.62-3.06,3.88a.57.57,0,0,1-.54.13c-.65-.39-1.27-.84-2-1.31L26,10.17Z"/><path class="cls-1" d="M15.59,12.64l4.54,3.09c-.07.11-.13.22-.2.32l-5.57,8.18c-.67,1-1.49,1.3-2.17.83L9.82,23.44c-.65-.45-.67-1.33,0-2.26Z"/><path class="cls-1" d="M23.08,9.25,20.57,7.54c.06-.11.13-.21.2-.32,1-1.52,2.07-3.05,3.12-4.57A2.47,2.47,0,0,1,24.53,2c1.08-.68,2.17-1.33,3.25-2a.3.3,0,0,1,.31,0A1.59,1.59,0,0,1,28,2C26.4,4.39,24.75,6.8,23.08,9.25Z"/><path class="cls-1" d="M23.06,10.35,20.64,13.9l-3.51-2.39L19.55,8Z"/></g></g></g></svg>