<svg xmlns="http://www.w3.org/2000/svg" viewBox="0 0 24.62 35.68"><defs><style>.cls-1{fill:#6a625e;}</style></defs><title>Asset 19</title><g id="Layer_2" data-name="Layer 2"><g id="graphic_elements" data-name="graphic elements"><g id="Layer_134" data-name="Layer 134"><path class="cls-1" d="M19.21,17.94a6.9,6.9,0,1,1-13.8,0c0-1.82,0-3.65,0-5.47s0-3.57,0-5.36A6.86,6.86,0,0,1,13,.25,5.47,5.47,0,0,0,19.2,8.62C19.2,11.73,19.2,14.84,19.21,17.94Z"/><path class="cls-1" d="M12.33,25.09A7.15,7.15,0,0,1,5.19,18q0-1.89,0-3.78,0-.84,0-1.69t0-1.7c0-1.2,0-2.44,0-3.66a7.21,7.21,0,0,1,5.53-7,7.22,7.22,0,0,1,5.72,1.16,7.12,7.12,0,0,1,2.95,4.94,8,8,0,0,1,0,.95h0q0,1.89,0,3.77c0,2.28,0,4.64,0,7a7.23,7.23,0,0,1-5.55,7A7.24,7.24,0,0,1,12.33,25.09ZM12.26.44A6.76,6.76,0,0,0,10.81.6,6.76,6.76,0,0,0,5.63,7.15c0,1.22,0,2.46,0,3.66q0,.85,0,1.7t0,1.69q0,1.89,0,3.78a6.71,6.71,0,0,0,8.16,6.5A6.78,6.78,0,0,0,19,17.94c0-2.32,0-4.68,0-7q0-1.89,0-3.77h0a7.38,7.38,0,0,0,0-.9,6.59,6.59,0,0,0-2.76-4.63A6.77,6.77,0,0,0,12.26.44Z"/><path class="cls-1" d="M13.8,30.18v2.53H19a1.48,1.48,0,0,1,.23,3,4.4,4.4,0,0,1-.45,0H5.65a1.49,1.49,0,0,1-1.52-1.92,1.51,1.51,0,0,1,1.49-1.05h5.2V30.2c-.54-.11-1.1-.2-1.64-.34a12.18,12.18,0,0,1-9-10.28A39.18,39.18,0,0,1,0,15.1a1.44,1.44,0,0,1,1.51-1.33A1.47,1.47,0,0,1,3,15.18c0,1,0,1.94,0,2.91A9.35,9.35,0,0,0,21.47,19.8,12.7,12.7,0,0,0,21.65,18c0-.91,0-1.81,0-2.72a1.48,1.48,0,1,1,3,0c0,1.21,0,2.43,0,3.64a11.75,11.75,0,0,1-3.72,7.88,11.79,11.79,0,0,1-6.7,3.3Z"/></g></g></g></svg>