<svg xmlns="http://www.w3.org/2000/svg" viewBox="0 0 37.94 28.04"><defs><style>.cls-1{fill:#6a625e;}</style></defs><title>Asset 39</title><g id="Layer_2" data-name="Layer 2"><g id="graphic_elements" data-name="graphic elements"><g id="Layer_134" data-name="Layer 134"><path class="cls-1" d="M36.82,0H1.09C.25,0,0,.25,0,1.07V23.64c0,.85.25,1.11,1.11,1.11H36.76c.92,0,1.18-.25,1.18-1.16V1.13C37.94.25,37.69,0,36.82,0Zm-1.4,24.16a.31.31,0,0,1-.22.09h-.29a.31.31,0,1,1,0-.63h.29a.31.31,0,0,1,.22.54Zm.83-1.09H1.65V1.67H36.25Z"/><path class="cls-1" d="M19,28h-7.1a2.87,2.87,0,0,1-.42,0,.81.81,0,0,1-.72-.79.83.83,0,0,1,.71-.84,2.36,2.36,0,0,1,.38,0H26.4a.84.84,0,0,1,.81.82.81.81,0,0,1-.8.82c-.69,0-1.39,0-2.08,0Z"/><path class="cls-1" d="M16.59,7.43a2.5,2.5,0,0,1,.4.18l6.52,4.07a.8.8,0,0,1-.05,1.42L18.87,16c-.61.38-1.23.76-1.83,1.15a.85.85,0,0,1-.94.12.9.9,0,0,1-.44-.88q0-3.53,0-7.07c0-.35,0-.7,0-1A.83.83,0,0,1,16.59,7.43Z"/><rect class="cls-1" x="18.21" y="25.01" width="1.5" height="1.03" rx="0.52" ry="0.52"/></g></g></g></svg>