<svg xmlns="http://www.w3.org/2000/svg" viewBox="0 0 37.18 36.06"><defs><style>.cls-1{fill:#6a625e;}.cls-2{fill:#606060;}</style></defs><title>Asset 24</title><g id="Layer_2" data-name="Layer 2"><g id="graphic_elements" data-name="graphic elements"><g id="Layer_134" data-name="Layer 134"><path class="cls-1" d="M33.65,2.72a1,1,0,1,0,1,1A1,1,0,0,0,33.65,2.72Zm0,28.38a1,1,0,1,0,1,1A1,1,0,0,0,33.65,31.1ZM5,2.72a1,1,0,1,0,1,1A1,1,0,0,0,5,2.72ZM5,31.1a1,1,0,1,0,1,1A1,1,0,0,0,5,31.1ZM33.65,2.72a1,1,0,1,0,1,1A1,1,0,0,0,33.65,2.72Zm0,28.38a1,1,0,1,0,1,1A1,1,0,0,0,33.65,31.1ZM5,2.72a1,1,0,1,0,1,1A1,1,0,0,0,5,2.72ZM5,31.1a1,1,0,1,0,1,1A1,1,0,0,0,5,31.1Zm0,0a1,1,0,1,0,1,1A1,1,0,0,0,5,31.1ZM5,2.72a1,1,0,1,0,1,1A1,1,0,0,0,5,2.72ZM33.65,31.1a1,1,0,1,0,1,1A1,1,0,0,0,33.65,31.1Zm0-28.38a1,1,0,1,0,1,1A1,1,0,0,0,33.65,2.72Zm0,2a1,1,0,1,0-1-1A1,1,0,0,0,33.65,4.71Zm0,26.38a1,1,0,1,0,1,1A1,1,0,0,0,33.65,31.1ZM5,2.72a1,1,0,1,0,1,1A1,1,0,0,0,5,2.72ZM5,31.1a1,1,0,1,0,1,1A1,1,0,0,0,5,31.1ZM1.16,0V1.74L0,1.86V4.08L1.06,4V5.39H0v6.13H1.07v1.37L0,12.82v2.23l1.06.13v1.35H0v2.23H1.11V36.06H37.18V0ZM35.75,34.63H2.59V1.43H35.75ZM33.65,4.71a1,1,0,1,0-1-1A1,1,0,0,0,33.65,4.71Zm0,28.37a1,1,0,1,0-1-1A1,1,0,0,0,33.65,33.09ZM5,4.71a1,1,0,1,0-1-1A1,1,0,0,0,5,4.71ZM5,33.09a1,1,0,1,0-1-1A1,1,0,0,0,5,33.09Zm0-2a1,1,0,1,0,1,1A1,1,0,0,0,5,31.1ZM5,2.72a1,1,0,1,0,1,1A1,1,0,0,0,5,2.72ZM33.65,31.1a1,1,0,1,0,1,1A1,1,0,0,0,33.65,31.1Zm0-28.38a1,1,0,1,0,1,1A1,1,0,0,0,33.65,2.72Zm0,0a1,1,0,1,0,1,1A1,1,0,0,0,33.65,2.72Zm0,28.38a1,1,0,1,0,1,1A1,1,0,0,0,33.65,31.1ZM5,2.72a1,1,0,1,0,1,1A1,1,0,0,0,5,2.72ZM5,31.1a1,1,0,1,0,1,1A1,1,0,0,0,5,31.1Z"/><path class="cls-1" d="M3,1.8V34.26H35.38V1.8ZM30.87,5.62h1.38V24.28H30.87Zm-23.78,0H22v15H7.09ZM5,33.09a1,1,0,1,1,1-1A1,1,0,0,1,5,33.09ZM5,4.71a1,1,0,1,1,1-1A1,1,0,0,1,5,4.71ZM19.61,30.43H6.05V29H19.61Zm0-3.09H6.05V25.93H19.61Zm12.65,3.1H21.2V25.93H32.26Zm1.38,2.65a1,1,0,1,1,1-1A1,1,0,0,1,33.65,33.09Zm0-28.37a1,1,0,1,1,1-1A1,1,0,0,1,33.65,4.71Z"/><path class="cls-1" d="M8.31,13.12a6.23,6.23,0,0,1,12.47,0,6.27,6.27,0,0,1-6.18,6.25A6.2,6.2,0,0,1,8.31,13.12Zm8.48.83h0a.29.29,0,0,1,0-.37,2.32,2.32,0,0,1,.44-.42c.75-.48,1.55-.91,2.29-1.41.18-.12.39-.48.33-.64a5.05,5.05,0,0,0-2.06-2.69l-1.27,3.07a.25.25,0,0,1-.28.15h0a.25.25,0,0,1-.21-.2,4.82,4.82,0,0,1-.12-.73c0-.9,0-1.79-.09-2.69,0-.21-.25-.55-.42-.57a5.06,5.06,0,0,0-3.31.46l2,2.61a.27.27,0,0,1,0,.34h0a.27.27,0,0,1-.29.07,5.17,5.17,0,0,1-.69-.27c-.76-.4-1.5-.87-2.28-1.23A.91.91,0,0,0,10,9.6a4.79,4.79,0,0,0-1.17,3l3.24-.44a.26.26,0,0,1,.28.16h0a.26.26,0,0,1-.06.29,3.51,3.51,0,0,1-.53.46c-.73.46-1.49.87-2.22,1.35-.19.13-.44.47-.39.62a5.18,5.18,0,0,0,2.08,2.75l1.27-3.05a.27.27,0,0,1,.29-.16h0a.27.27,0,0,1,.22.21,4.24,4.24,0,0,1,.12.71c0,.89,0,1.79.08,2.69,0,.2.25.54.42.56a5.05,5.05,0,0,0,3.31-.46l-2-2.61a.26.26,0,0,1,0-.33h0a.26.26,0,0,1,.28-.08,4.69,4.69,0,0,1,.7.27c.77.4,1.51.85,2.28,1.24.2.1.62.12.73,0a4.92,4.92,0,0,0,1.3-3.18l-3.14.48A.29.29,0,0,1,16.79,13.95Z"/><path class="cls-1" d="M16.07,13.1a1.57,1.57,0,0,1-1.53,1.56,1.56,1.56,0,0,1,0-3.12A1.57,1.57,0,0,1,16.07,13.1Z"/><circle class="cls-2" cx="4.96" cy="3.71" r="1"/><circle class="cls-1" cx="8.36" cy="19.38" r="0.71"/><circle class="cls-1" cx="20.93" cy="19.38" r="0.71"/><circle class="cls-1" cx="8.36" cy="6.68" r="0.71"/><circle class="cls-1" cx="20.93" cy="6.68" r="0.71"/><circle class="cls-2" cx="33.65" cy="3.71" r="1"/><circle class="cls-2" cx="4.96" cy="32.09" r="1"/><circle class="cls-2" cx="33.65" cy="32.09" r="1"/><rect class="cls-1" x="21.84" y="26.53" width="1.25" height="1.25"/><rect class="cls-1" x="21.84" y="28.66" width="1.25" height="1.25"/><rect class="cls-1" x="24.1" y="26.53" width="1.25" height="1.25"/><rect class="cls-1" x="24.1" y="28.66" width="1.25" height="1.25"/><rect class="cls-1" x="26.14" y="26.53" width="1.25" height="1.25"/><rect class="cls-1" x="26.14" y="28.66" width="1.25" height="1.25"/><rect class="cls-1" x="28.39" y="26.53" width="1.25" height="1.25"/><rect class="cls-1" x="28.39" y="28.66" width="1.25" height="1.25"/><rect class="cls-1" x="30.35" y="26.53" width="1.25" height="1.25"/><rect class="cls-1" x="30.35" y="28.66" width="1.25" height="1.25"/></g></g></g></svg>