<svg xmlns="http://www.w3.org/2000/svg" viewBox="0 0 18.98 36.17"><defs><style>.cls-1{fill:#6a625e;}</style></defs><title>Asset 14</title><g id="Layer_2" data-name="Layer 2"><g id="graphic_elements" data-name="graphic elements"><g id="Layer_134" data-name="Layer 134"><path class="cls-1" d="M.07,21.76H5.84a2,2,0,0,0,.94,1.63,2.84,2.84,0,0,0,1.28.36c1,0,1.72-.69,2-2h5.72a1.32,1.32,0,0,1,.05.24c0,2.24.06,4.49,0,6.73a7.9,7.9,0,0,1-15.77.06C0,26.45.07,24.13.07,21.76Z"/><path class="cls-1" d="M5.87,20.83H.13C-.72,15,2.7,11.24,7.22,10.74h.26v5.14a2.25,2.25,0,0,0-1.62,2.52C5.91,19.19,5.87,20,5.87,20.83Z"/><path class="cls-1" d="M8.44,10.75c4.72,0,8.12,4.66,7.39,10.07H10.06c0-.83,0-1.65,0-2.46a2.24,2.24,0,0,0-1.62-2.48Z"/><path class="cls-1" d="M8.6,9.8H7.26c.12-.65.18-1.26.35-1.84a6.58,6.58,0,0,1,6.23-4.72h1.09A2.66,2.66,0,0,0,17.7.77,1.1,1.1,0,0,1,18,.11a.66.66,0,0,1,.63-.05A1.05,1.05,0,0,1,19,.77a3.89,3.89,0,0,1-3.69,3.77c-.62,0-1.24,0-1.86,0A5.38,5.38,0,0,0,8.6,9.8Z"/><path class="cls-1" d="M6.75,19.79c0-.6,0-1.2,0-1.8A1.21,1.21,0,0,1,8,16.72a1.13,1.13,0,0,1,1.16,1.23q0,1.83,0,3.66a1.22,1.22,0,1,1-2.43,0C6.74,21,6.75,20.41,6.75,19.79Z"/></g></g></g></svg>