<svg xmlns="http://www.w3.org/2000/svg" viewBox="0 0 42.35 41.44"><defs><style>.cls-1{fill:#6a625e;}</style></defs><title>Asset 34</title><g id="Layer_2" data-name="Layer 2"><g id="graphic_elements" data-name="graphic elements"><g id="Layer_94" data-name="Layer 94"><path class="cls-1" d="M11.37,41.43c-3.09,0-6.18,0-9.26,0A2,2,0,0,1,0,39.34c0-3.93,0-7.87,0-11.8a6.5,6.5,0,0,1,12.88-1.2A5.61,5.61,0,0,0,14,29a4.92,4.92,0,0,0,4.19,1.88,5.24,5.24,0,0,1,2.11.3A2.71,2.71,0,0,1,22.07,34q0,3.1,0,6.19a1.47,1.47,0,0,1,0,.2,1.18,1.18,0,0,1-1.23,1.06H11.37ZM8.83,40V34.14H7.15V40Zm2,0V37.48l-.36,0V34.14H9.17V40Zm.74-5.81v3.32l-.35,0V40h1.68v-5.8Zm-6.16,0v3.32l-.35,0V40H6.76V34.18Zm9.15,3.6V34.14H13.26V40h1.68V37.81ZM1,40H2.47c.17,0,.21-.06.21-.22,0-.71,0-1.42,0-2.13a1.73,1.73,0,0,0,0-.18l-.37,0V34.14H1Zm18.73-5.82V37.5l-.35,0V40H21V34.18Zm-1.11,3.32V34.19h-1V37.5l-.36,0V40H19V37.53ZM3.41,34.18v3.33l-.35,0V40H4.74V37.53l-.36,0V34.18Zm11.92,3.68V40H17V37.53l-.35,0V34.19h-1v3.64Z"/><path class="cls-1" d="M25.52,24l-.39.39.15.16.39-.39ZM11.17,10.37l0,0,.32-.32Z"/><path class="cls-1" d="M42.31,30.74a5.75,5.75,0,0,0-.4-1.33,6.6,6.6,0,0,0-3-3.12c-.83-.4-1.7-.69-2.53-1.09a7.71,7.71,0,0,1-1.7-1,4.07,4.07,0,0,1-1-1.34,10.85,10.85,0,0,0-1.85-3,4,4,0,0,0-2.12-1.27A1.52,1.52,0,0,0,28,19.1a1.48,1.48,0,0,0,.1,1.79,2.4,2.4,0,0,1,.49,1.72c0,.3-.09.6-.44.69a.94.94,0,0,1-1-.18L12.33,8.26a2.1,2.1,0,0,1-.67-1.53c0-.41-.07-.83,0-1.24a1.23,1.23,0,0,0-.89-1.31c-.61-.22-1.25-.37-1.87-.55S7.56,3.25,6.92,3a.61.61,0,0,1-.44-.58,2.59,2.59,0,0,0-2-2.24h1A4.72,4.72,0,0,0,3.64,0L2.68.2h.7a2.85,2.85,0,0,0-2,2.16v1L2,5.32l-.64.55v.56c.14.27.33.28.55.1s.43-.38.65-.59l.31.37c-.44.19-.71.46-.63,1,.05.32.22.42.5.23a8.81,8.81,0,0,0,.72-.63l.29.28c-.4.19-.69.4-.65.83,0,.15.06.38.15.41a.6.6,0,0,0,.46-.12,5.86,5.86,0,0,0,.59-.55L4.52,8a.83.83,0,0,0-.57,1,.3.3,0,0,0,.51.2c.22-.16.42-.37.66-.57l.15.15a5.53,5.53,0,0,0-.46.87c0,.13.1.33.16.49a1.53,1.53,0,0,0,.46-.18,4.48,4.48,0,0,0,.48-.55l.35.31c-.45.22-.69.51-.6,1,.06.32.2.4.47.22a6.53,6.53,0,0,0,.61-.53c.25,0,.47.08.68.09a2.89,2.89,0,0,1,2,.75L22.21,23.94c.35.35.73.68,1.11,1a1.79,1.79,0,0,1-2,.68h0l-.57-.31a10.9,10.9,0,0,1-1.69-1.11.77.77,0,0,0-.67-.34,1,1,0,0,0-.77.69,3.44,3.44,0,0,0-.1.55c0,.07,0,.14,0,.21,0,1.63,1.39,4.08,4.31,5.37v0l1.19.49A3.78,3.78,0,0,1,25,33c.4.78.8,1.56,1.17,2.35.56,1.19.79,1.81.92,2.08,1.34,2.67,2.46,3.21,2.93,3.39l.24.08a6.86,6.86,0,0,0,3.6,0l.52-.2a15,15,0,0,0,3.25-1.82,12.9,12.9,0,0,0,4.17-5.15,9.38,9.38,0,0,0,.5-2.23A2.69,2.69,0,0,0,42.31,30.74Zm-31.94-22c0,.05.06.15,0,.18s-.3.3-.43.47-.36.07-.55,0L8,9a1,1,0,0,1-.44-.21Q5.82,7.09,4.13,5.36a3.25,3.25,0,0,1-1-2.3.83.83,0,0,1,0-.09h0s0-.1,0-.15a.87.87,0,0,1,.82-.91.82.82,0,0,1,.88.79A1.91,1.91,0,0,0,6.09,4.5c1,.39,2,.67,3.07,1,.75.21.74.19.77,1a4.47,4.47,0,0,0,.44,2c0,.05.06.15,0,.18l0,0Zm.47,2.07.7-.7.17-.17L25.64,23.86l-.12.12-.39.39-.35.35ZM40.3,32.95A11.07,11.07,0,0,1,37,37.2a9.35,9.35,0,0,1-3.65,2,3.82,3.82,0,0,1-4.28-1.77c-.2-.34-.38-.7-.54-1.07-.53-1.16-1-2.33-1.58-3.49a6.26,6.26,0,0,0-3.55-3.43c-.47-.17-.92-.37-1.38-.56a4.71,4.71,0,0,1-2.91-3.06,8.28,8.28,0,0,1,.67.6,5,5,0,0,0,1.53.91,2.61,2.61,0,0,0,1.9-.2c.46-.26.88-.58,1.39-.91l.61.75c.56-.56,1.09-1.07,1.59-1.6a1,1,0,0,1,.9-.36,2.33,2.33,0,0,0,2.63-2.28A4.42,4.42,0,0,0,30,20.53a3.58,3.58,0,0,1,.61.49A7.89,7.89,0,0,1,32,23.35a8.69,8.69,0,0,0,.54,1.06,6.38,6.38,0,0,0,3,2.31c1,.46,2.08.84,3.05,1.37A3.81,3.81,0,0,1,40.3,32.95Z"/><path class="cls-1" d="M33.47,35.67l-1.08-1.1,3.31-3.3,1.09,1.1Z"/><path class="cls-1" d="M30.88,32.22l-1.06-1.05,2.51-2.47,1,1.11Z"/><path class="cls-1" d="M30.88,27.26l-2.47,2.47L27.29,28.6l2.51-2.45Z"/><path class="cls-1" d="M17.53,25.14c0,.07,0,.14,0,.21Z"/><path class="cls-1" d="M35.48,30.05a.82.82,0,0,1,.81-.86.85.85,0,0,1,.89.83.87.87,0,0,1-.86.87A.85.85,0,0,1,35.48,30.05Z"/><path class="cls-1" d="M32.92,27.46a.83.83,0,0,1,.84-.82.85.85,0,0,1,.85.87.87.87,0,0,1-.85.83A.85.85,0,0,1,32.92,27.46Z"/><path class="cls-1" d="M38,30.87a.85.85,0,0,1,.84-.84.87.87,0,0,1,.86.87.88.88,0,0,1-.85.84A.86.86,0,0,1,38,30.87Z"/><g id="_Group_" data-name="&lt;Group&gt;"><path class="cls-1" d="M18.27,23.92c-.42.09-.67.48-.73,1.14v.08a3.44,3.44,0,0,1,.1-.55,1,1,0,0,1,.77-.69Z"/></g></g></g></g></svg>