<svg xmlns="http://www.w3.org/2000/svg" viewBox="0 0 35.33 35.41"><defs><style>.cls-1{fill:#6a625e;}</style></defs><title>Asset 26</title><g id="Layer_2" data-name="Layer 2"><g id="graphic_elements" data-name="graphic elements"><g id="Layer_121" data-name="Layer 121"><path class="cls-1" d="M35.29,9.65a4.32,4.32,0,0,0-3.57-3.7c-1.6-.39-3.19-.8-4.79-1.21a4.15,4.15,0,0,1-2.83-2.3C23.7,1.61,23.29.8,22.89,0H12.58L11.15,2.63a4.1,4.1,0,0,1-2.22,2,4.54,4.54,0,0,1-.53.16l-.11,0C6.63,5.19,5,5.62,3.3,6A4.14,4.14,0,0,0,0,10.45c.13,1.64.31,3.28.59,4.91A60.4,60.4,0,0,0,5.4,30.59c.75,1.63,1.6,3.22,2.39,4.82h19.7c.11-.19.22-.38.32-.57a67,67,0,0,0,7.32-22.23A12.93,12.93,0,0,0,35.29,9.65Zm-1.64.92a53.13,53.13,0,0,1-2.12,10.77A69.17,69.17,0,0,1,26.7,33.23l-.27.49H8.86c-.17-.31-.36-.64-.54-1A60.23,60.23,0,0,1,2.17,14.55c-.23-1.41-.36-2.84-.48-4.26A2.27,2.27,0,0,1,3.33,7.81C5,7.32,6.67,6.93,8.38,6.48l.18,0,1-.35.67-.24C12,5,12.7,3.31,13.56,1.69h8.29C22.61,3.37,23.42,5,25.2,5.87l.92.36a5.19,5.19,0,0,0,.79.26l.39.1,1.8.46,2.57.66A2.62,2.62,0,0,1,33.65,10.57Z"/><path class="cls-1" d="M16.77,16.81a1,1,0,0,0,2.09,0,1,1,0,1,0-2.09,0Z"/><path class="cls-1" d="M27.71,8s0,0,0,0,0-.07,0-.1A1.85,1.85,0,0,0,27.34,7l0,0-.11-.13.09-.26.08-.27a4.74,4.74,0,0,0,.11-.53A.6.6,0,0,0,27,5a.61.61,0,0,0-.72.51l-.18.68v.05h0a1.94,1.94,0,0,0-2,1.21l0,.09h0a1.94,1.94,0,0,0,.31,1.71l-1.14,1.23a1.92,1.92,0,0,0-3.09,1.58,8.92,8.92,0,0,1-4.72,0,1.88,1.88,0,0,0-1-1.75,2,2,0,0,0-2,.19L11.13,9.27l0,0L11,9.37l0,0-.1.09-.14.11-.08,0a1.62,1.62,0,0,1-.42.19,1.69,1.69,0,0,1-.32.07l1.77,1.81a1.77,1.77,0,0,0,1.06,1.91A1.83,1.83,0,0,0,15,13.21l.87.22-3.31,3.35,2.36,2.35,2.64,2.63c.1.09.17.21.26.31h.08c.09-.1.16-.22.26-.31l4.63-4.61a2.49,2.49,0,0,1,.4-.26l-3.38-3.41.91-.24a1.85,1.85,0,0,0,2.21.38,1.76,1.76,0,0,0,1-1.81L25.65,10h.21a1.69,1.69,0,0,0,.66-.14l.09,0,.07,0,0,0a2,2,0,0,0,.37-.27l.11-.12a2.31,2.31,0,0,0,.34-.51l0,0,.08-.16a1.74,1.74,0,0,0,.08-.45s0-.06,0-.1h0S27.72,8.06,27.71,8ZM13.56,12.86a.91.91,0,0,1-.9-.93.94.94,0,0,1,.93-.87.9.9,0,0,1,.87.91A.89.89,0,0,1,13.56,12.86Zm7.23,3.95-2.95,3-3-3,2.93-2.93ZM22,12.86a.9.9,0,0,1,0-1.8.93.93,0,0,1,.9.9A.92.92,0,0,1,22,12.86ZM25.85,9a.9.9,0,0,1,0-1.8.93.93,0,0,1,.9.9A.92.92,0,0,1,25.85,9Z"/><path class="cls-1" d="M27.55,8.88a1.91,1.91,0,0,1-.34.51A2.31,2.31,0,0,0,27.55,8.88Z"/><path class="cls-1" d="M11.56,8a.07.07,0,0,0,0,0s0,0,0,0a1.68,1.68,0,0,0-.07-.35l0-.09v0l0-.07,0,0,0-.07A1.94,1.94,0,0,0,11.25,7a1.82,1.82,0,0,0-1.5-.79h0l-.15,0,0-.13a5.82,5.82,0,0,1-.17-.78.91.91,0,0,0-.43-.71,4.54,4.54,0,0,1-.53.16l-.11,0a.78.78,0,0,0-.14.75c.08.32.15.65.22,1l.05.25-.08.16a1.82,1.82,0,0,0,1.25,3h.34a1.69,1.69,0,0,0,.32-.07,1.62,1.62,0,0,0,.42-.19l.08,0,.14-.11L11,9.4l0,0,.08-.08,0,0,.14-.19L11.34,9a1.61,1.61,0,0,0,.16-.4l0-.15s0-.1,0-.15a.15.15,0,0,0,0,0,1.32,1.32,0,0,0,0-.16S11.57,8,11.56,8ZM9.75,9a.91.91,0,0,1-.9-.93.94.94,0,0,1,.93-.87.9.9,0,0,1,.87.91A.89.89,0,0,1,9.75,9Z"/></g></g></g></svg>