<svg xmlns="http://www.w3.org/2000/svg" viewBox="0 0 12.52 36.27"><defs><style>.cls-1{fill:#6a625e;}</style></defs><title>Asset 61</title><g id="Layer_2" data-name="Layer 2"><g id="graphic_elements" data-name="graphic elements"><g id="Layer_134" data-name="Layer 134"><path class="cls-1" d="M4.49,23.29l-.07-.1,0,0,.2.22,0,0h0Zm.37.08v0h0l0,0h0V23.3Zm0,0v0h0l0,0h0V23.3Zm-.37-.08-.07-.1,0,0,.2.22,0,0h0Zm0,0-.07-.1,0,0,.2.22,0,0h0Zm.37.08v0h0l0,0h0V23.3Zm0,0v0h0l0,0h0V23.3Zm-.37-.08-.07-.1,0,0,.2.22,0,0h0Zm0,0-.07-.1,0,0,.2.22,0,0h0Zm.37.08v0h0l0,0h0V23.3Zm0,0v0h0l0,0h0V23.3Zm-.37-.08-.07-.1,0,0,.2.22,0,0h0Zm0,0-.07-.1,0,0,.2.22,0,0h0Zm.37.08v0h0l0,0h0V23.3Zm0,0v0h0l0,0h0V23.3Zm-.37-.08-.07-.1,0,0,.2.22,0,0h0Zm0,0-.07-.1,0,0,.2.22,0,0h0Zm.37.08v0h0l0,0h0V23.3Zm0,0v0h0l0,0h0V23.3Zm-.37-.08-.07-.1,0,0,.2.22,0,0h0Zm0,0-.07-.1,0,0,.2.22,0,0h0Zm.37.08v0h0l0,0h0V23.3Zm-.37-.08-.07-.1,0,0,.2.22,0,0h0Zm.37.08v0h0l0,0h0V23.3Zm0,0v0h0l0,0h0V23.3Zm-.37-.08-.07-.1,0,0,.2.22,0,0h0Zm0,0-.07-.1,0,0,.2.22,0,0h0Zm.37.08v0h0l0,0h0V23.3Zm0,0v0h0l0,0h0V23.3Zm-.37-.08-.07-.1,0,0,.2.22,0,0h0Zm0,0-.07-.1,0,0,.2.22,0,0h0Zm.37.08v0h0l0,0h0V23.3Zm0,0v0h0l0,0h0V23.3Zm-.37-.08-.07-.1,0,0,.2.22,0,0h0Zm0,0-.07-.1,0,0,.2.22,0,0h0Zm.37.08v0h0l0,0h0V23.3Zm0,0v0h0l0,0h0V23.3Zm-.37-.08-.07-.1,0,0,.2.22,0,0h0Zm0,0-.07-.1,0,0,.2.22,0,0h0Zm.37.08v0h0l0,0h0V23.3Zm0,0v0h0l0,0h0V23.3Zm-.37-.08-.07-.1,0,0,.2.22,0,0h0Zm0,0-.07-.1,0,0,.2.22,0,0h0Zm.37.08v0h0l0,0h0V23.3Zm0,0v0h0l0,0h0V23.3Zm-.37-.08-.07-.1,0,0,.2.22,0,0h0Zm0,0-.07-.1,0,0,.2.22,0,0h0Zm.37.08v0h0l0,0h0V23.3Zm0,0v0h0l0,0h0V23.3Zm-.37-.08-.07-.1,0,0,.2.22,0,0h0Z"/><path class="cls-1" d="M1,21l.09.26.11-.06Zm3-3.6a.92.92,0,0,0-.1-.2.54.54,0,0,0-.17-.2.13.13,0,0,0-.2.12.7.7,0,0,0,.11.25.73.73,0,0,0,.16.2.12.12,0,0,0,.14,0A.13.13,0,0,0,4,17.39Zm.19,2.28a.77.77,0,0,0-.1-.2.53.53,0,0,0-.16-.2.12.12,0,0,0-.14,0,.12.12,0,0,0-.07.12.7.7,0,0,0,.11.25.64.64,0,0,0,.16.2.12.12,0,0,0,.14,0A.14.14,0,0,0,4.23,19.67Zm2.13-1.29a1.57,1.57,0,0,0-.1-.2A.59.59,0,0,0,6.1,18,.12.12,0,0,0,6,18a.13.13,0,0,0-.07.13.76.76,0,0,0,.1.24.63.63,0,0,0,.17.2.12.12,0,0,0,.14,0A.14.14,0,0,0,6.36,18.38Z"/><path class="cls-1" d="M12.51,19.23c0-1.13,0-2.25,0-3.37a12.34,12.34,0,0,0-.2-1.48H.29a.53.53,0,0,0,0,.11C.17,15.21,0,15.92,0,16.63c0,1.37,0,2.73,0,4.1v8.46a1.81,1.81,0,0,0,0,.19H12.51v-.11c0-1,0-2,0-3Q12.51,22.73,12.51,19.23ZM8.2,16.33a.38.38,0,0,1,.25-.06v-.05l.19-.11.24.4-.18.11,0,0a.2.2,0,0,0-.11-.1.18.18,0,0,0-.13,0,.13.13,0,0,0-.07.15.84.84,0,0,0,.11.25c.07.11.13.17.19.19a.14.14,0,0,0,.13,0,.13.13,0,0,0,.08-.12.22.22,0,0,0,0-.11L9,16.72l.14.24a.55.55,0,0,1-.11.19.93.93,0,0,1-.2.18.49.49,0,0,1-.4.06.62.62,0,0,1-.34-.3A.66.66,0,0,1,8,16.66.43.43,0,0,1,8.2,16.33Zm-.49.32.13.22-.07,0,.32.54.08,0,.13.22-.49.29-.13-.21.08,0-.33-.54-.08,0L7.22,17Zm-.8.48.13.22-.1.05.33.54.12-.07-.07-.24.16-.1.25.42L7,18.41l-.13-.22.08,0-.33-.54-.08,0-.13-.21Zm-1.08.63a.52.52,0,0,1,.44-.07.55.55,0,0,1,.35.28.6.6,0,0,1,.09.44.56.56,0,0,1-.28.36.55.55,0,0,1-.44.08.64.64,0,0,1-.44-.72A.55.55,0,0,1,5.83,17.77ZM5.21,19l-.17.1.1.17.06,0,.13.22-.46.28-.13-.22.08,0-.33-.54-.08,0-.13-.22.46-.28.13.22-.06,0,.1.17.17-.1L5,18.59l-.05,0-.13-.22.47-.28.13.22-.08,0,.33.54.08,0,.13.22-.47.28-.13-.22.06,0Zm-2.28.57.19-.11.24.4-.18.11v0a.19.19,0,0,0-.11-.1.12.12,0,0,0-.13,0,.14.14,0,0,0-.08.14.78.78,0,0,0,.12.25q.1.17.18.2a.14.14,0,0,0,.13,0,.15.15,0,0,0,.08-.13.32.32,0,0,0,0-.11L3.49,20l.15.24a.84.84,0,0,1-.11.19,1,1,0,0,1-.2.18.46.46,0,0,1-.4.05.62.62,0,0,1-.34-.29A.67.67,0,0,1,2.48,20a.45.45,0,0,1,.22-.32.4.4,0,0,1,.24-.07Zm.57.31a.59.59,0,0,1-.08-.44A.56.56,0,0,1,3.7,19,.54.54,0,0,1,4.14,19a.58.58,0,0,1,.36.28.64.64,0,0,1,.08.45.56.56,0,0,1-.28.36.58.58,0,0,1-.44.08A.6.6,0,0,1,3.51,19.86Zm1-3.66.67.41L5,16.36,5,16.28l0,0H4.86l-.13-.21.37-.22.13.22h0a.1.1,0,0,0,0,.06.24.24,0,0,0,.05.13l.37.62-.36.22-.62-.39.12.21.05.08,0,0h.08L5,17.2l-.37.22-.13-.22h0a.09.09,0,0,0,0-.06A.24.24,0,0,0,4.55,17l-.24-.41-.08,0-.13-.22Zm-1.28.94a.58.58,0,0,1,.28-.37A.57.57,0,0,1,4,16.7a.65.65,0,0,1,.44.73.58.58,0,0,1-.28.36.54.54,0,0,1-.44.07.64.64,0,0,1-.44-.72Zm-.86.35.68.42-.15-.25-.05-.08a.06.06,0,0,0,0,0,.08.08,0,0,0-.07,0h0l-.13-.22L3,17.13l.13.22h0a.09.09,0,0,0,0,.06.3.3,0,0,0,.05.13l.37.62-.36.22L2.48,18l.13.2.05.08,0,0h.08l.13.22-.36.22-.13-.22h0a.08.08,0,0,0,0-.06s0-.07,0-.13l-.25-.4L2.1,18,2,17.74ZM2,20.11l.13.22L2,20.38l.33.54.12-.07-.07-.24.16-.1.25.42-.74.45-.13-.22.08,0-.33-.54-.08,0-.13-.21ZM1.4,21.36l-.19.11,0,.05a.07.07,0,0,0,.1,0h0l.13.22-.4.24-.13-.22H1a.08.08,0,0,0,0-.07.45.45,0,0,0,0-.12l-.22-.72.41-.25.66.63.08,0,.13.22-.5.3-.13-.22.08,0Zm9.4-.62s0,0-.05,0a1.77,1.77,0,0,0-.38-.41,1.42,1.42,0,0,0-.6-.27l-.19,0H9.25a.15.15,0,0,0-.1,0,2.69,2.69,0,0,0-.45.46,1.93,1.93,0,0,0-.23.32l0,0,.26.06a2.8,2.8,0,0,1,1.14.6,2.87,2.87,0,0,1,.23.23l.21.27a2.1,2.1,0,0,1,.3.57,2.36,2.36,0,0,1,.15.68,2.38,2.38,0,0,1-.16,1.08,2.42,2.42,0,0,1-.53.83A2.65,2.65,0,0,1,8.61,26a2.8,2.8,0,0,1-1.69-.22,0,0,0,0,0-.05,0,2.71,2.71,0,0,1-1.41.77l-.31.05h-.6l-.31,0a2.85,2.85,0,0,1-1-.44,2.78,2.78,0,0,1-1-1.13A2.67,2.67,0,0,1,2,24a.89.89,0,0,0,0-.13v-.13c0-.07,0-.13,0-.19a1.51,1.51,0,0,1,.38-.68,2.6,2.6,0,0,1,.83-.59A3.81,3.81,0,0,1,4.42,22l.32,0a4,4,0,0,1,1,.05,0,0,0,0,0,.05,0,2.44,2.44,0,0,1,.15-.2,2.65,2.65,0,0,1,1.38-.84,2.59,2.59,0,0,1,.88-.08,0,0,0,0,0,0,0l.19-.3.2-.3a4.39,4.39,0,0,1,.83-.9l0,0A2,2,0,0,1,10,19l.15-.05h0a1.07,1.07,0,0,1,.25.29l0,.09s0,0,0,0a3.83,3.83,0,0,0-.61.25l-.2.11-.16.09h0l.22,0h0a1.51,1.51,0,0,1,.49.17,1.21,1.21,0,0,1,.58.67v0Z"/><path class="cls-1" d="M10.67,23.9a2.39,2.39,0,0,1-.87,1.46A2.62,2.62,0,0,1,8.18,26a2.7,2.7,0,0,1-1.08-.18l-.17-.07v0a2.22,2.22,0,0,0,.38-.54,2.54,2.54,0,0,0,.26-.8c0-.07,0-.13,0-.19a2.61,2.61,0,0,0-.08-.89,1.15,1.15,0,0,0-.23-.45l-.16-.18a1.21,1.21,0,0,0-.19-.16,2.84,2.84,0,0,0-.34-.21A3.15,3.15,0,0,0,5.82,22a2.6,2.6,0,0,1,1-.84,2.7,2.7,0,0,1,1.39-.26l0,.07a.05.05,0,0,0,0,0,.22.22,0,0,0,.13.07A.09.09,0,0,0,8.38,21l0-.06s0,0,.07,0a2.82,2.82,0,0,1,1.56.84,2.6,2.6,0,0,1,.2.25,2.52,2.52,0,0,1,.26.44A2.36,2.36,0,0,1,10.67,23.9Z"/><path class="cls-1" d="M0,30.65H12.51c0,.63,0,1.26,0,1.88a4.55,4.55,0,0,1-.15,1.06,3.71,3.71,0,0,1-3.51,2.67q-2.6,0-5.19,0A3.69,3.69,0,0,1,.06,33C0,32.25,0,31.46,0,30.65Z"/><path class="cls-1" d="M3.13,5H9.4c0,.39,0,.78,0,1.16A9.62,9.62,0,0,0,10.31,10c.32.67.72,1.31,1.07,2,.18.35.33.72.51,1.1H.66a4.74,4.74,0,0,1,.19-.48c.34-.65.7-1.3,1-1.94A9.76,9.76,0,0,0,3,7.1c.07-.61.06-1.23.09-1.84C3.14,5.18,3.13,5.11,3.13,5Z"/><path class="cls-1" d="M6.26,0h3A.64.64,0,0,1,10,.73Q10,1.88,10,3a.63.63,0,0,1-.7.71H3.21a.63.63,0,0,1-.7-.7q0-1.19,0-2.39A.61.61,0,0,1,3.17,0Z"/><path class="cls-1" d="M4.62,23.45h0l0,0-.2-.22,0,0,.07.1Z"/><path class="cls-1" d="M4.89,23.3v.07h0l0,0h0v0Z"/><path class="cls-1" d="M7.33,23a1.29,1.29,0,0,0-.19-.25,2.13,2.13,0,0,0-.6-.43A3.52,3.52,0,0,0,5.62,22,5.34,5.34,0,0,0,5,22l-.41,0a4,4,0,0,0-1.11.26,3,3,0,0,0-.87.52,1.64,1.64,0,0,0-.49.69,1.09,1.09,0,0,0,.07.89,1.63,1.63,0,0,0,.6.61,3,3,0,0,0,1.13.4,4.24,4.24,0,0,0,.68.05H4.9a4.33,4.33,0,0,0,1.27-.31L6.4,25a2.7,2.7,0,0,0,.7-.52,1.47,1.47,0,0,0,.32-.5,1.11,1.11,0,0,0-.09-1Zm0,.92a1.34,1.34,0,0,1-.17.35,2,2,0,0,1-.66.62L6.17,25a3.75,3.75,0,0,1-1,.29l-.29,0a3.34,3.34,0,0,1-.6,0l-.22,0a3.09,3.09,0,0,1-1-.28,2,2,0,0,1-.63-.47,1.14,1.14,0,0,1-.29-.7,1.2,1.2,0,0,1,.26-.8,2.24,2.24,0,0,1,.77-.63A3.73,3.73,0,0,1,4.64,22l.28,0a3.7,3.7,0,0,1,1.26.2,2.08,2.08,0,0,1,.85.54,1.11,1.11,0,0,1,.31.56A1.14,1.14,0,0,1,7.33,23.87Z"/><path class="cls-1" d="M7.15,23a1.64,1.64,0,0,0-.61-.55,2.94,2.94,0,0,0-1-.32,3.82,3.82,0,0,0-.9,0,3.6,3.6,0,0,0-1.53.44,2.11,2.11,0,0,0-.67.57,1.15,1.15,0,0,0-.24.53,1,1,0,0,0,.15.74,1.64,1.64,0,0,0,.62.56,2.87,2.87,0,0,0,1,.32H4a3.31,3.31,0,0,0,.55,0l.31,0A3.61,3.61,0,0,0,6,25L6.17,25a2.41,2.41,0,0,0,.71-.48,1.44,1.44,0,0,0,.38-.56.63.63,0,0,0,0-.08A1,1,0,0,0,7.15,23Zm0,.39a.59.59,0,0,1-.09.2l0,0a.16.16,0,0,1-.11.07l-.16,0c-.19,0-.39,0-.58,0l-.55,0-.49,0h0l.48.08.57.12.29.06a.91.91,0,0,1,.22.07c.05,0,.06,0,0,.1a.68.68,0,0,1-.25.38,1.44,1.44,0,0,1-.31.17l-.13,0a.26.26,0,0,1-.26,0l0,0a4.3,4.3,0,0,1-.51-.48l-.29-.33,0,0h0l0,0a7.83,7.83,0,0,1,.53.65,1.05,1.05,0,0,1,.11.17.79.79,0,0,1,.07.14.08.08,0,0,1,0,.1,1.33,1.33,0,0,1-.71.23,1.31,1.31,0,0,1-.4,0A.08.08,0,0,1,4.41,25a.17.17,0,0,1,0-.08c0-.08,0-.17,0-.26a6.68,6.68,0,0,1,.25-.81v0h0l0,0c0,.08-.06.16-.1.24l-.3.65a.87.87,0,0,1-.18.26.15.15,0,0,1-.11,0H3.8a1.84,1.84,0,0,1-.31,0h0l-.1,0a.73.73,0,0,1-.21-.14l-.08-.1c0-.06,0-.08,0-.14l0,0a2.15,2.15,0,0,1,.24-.17l.68-.4.47-.25s0,0,0,0l-1,.43-.21.08a2.27,2.27,0,0,1-.49.15.18.18,0,0,1-.16,0l-.1-.08a.42.42,0,0,1-.13-.36.78.78,0,0,1,.11-.25.16.16,0,0,1,.12-.07l.25,0c.36,0,.72,0,1.08,0H4l.46,0h0a.07.07,0,0,0,0,0l-.41-.07-.19,0A8.11,8.11,0,0,1,3,23.33l-.19-.08s0,0,0-.08A.67.67,0,0,1,3,22.83a1.11,1.11,0,0,1,.42-.23c.19-.06.19-.08.39.07a4.15,4.15,0,0,1,.44.42l.13.15,0,0a4.62,4.62,0,0,1-.35-.5A.75.75,0,0,1,4,22.45a.08.08,0,0,1,0-.11,1.39,1.39,0,0,1,.61-.22,1.45,1.45,0,0,1,.46,0c.11,0,.13.05.12.17v0c0,.08,0,.17-.06.25a5.83,5.83,0,0,1-.25.71v.07a7.58,7.58,0,0,1,.34-.78,1.17,1.17,0,0,1,.2-.31.18.18,0,0,1,.11-.06,1.33,1.33,0,0,1,.49,0,.69.69,0,0,1,.41.27c.05.07.05.1,0,.16h0l-.17.12,0,0,0,0c-.31.2-.63.38-1,.55l-.14.08s0,0,0,0l1.05-.43.07,0L6.43,23l.31-.09a.17.17,0,0,1,.17,0,.88.88,0,0,1,.13.13A.38.38,0,0,1,7.13,23.39Z"/><path class="cls-1" d="M5,23.69l0,0-.09,0-.13,0h0a.57.57,0,0,1-.14,0,.11.11,0,0,1,0-.2.35.35,0,0,1,.31-.08l.09,0A.11.11,0,0,1,5,23.69Z"/></g></g></g></svg>