<svg xmlns="http://www.w3.org/2000/svg" viewBox="0 0 32.44 38.27"><defs><style>.cls-1{fill:#6a625e;}</style></defs><title>Asset 33</title><g id="Layer_2" data-name="Layer 2"><g id="graphic_elements" data-name="graphic elements"><g id="Layer_119" data-name="Layer 119"><path class="cls-1" d="M4.05,38.27a14,14,0,0,1-1.47-.38A3.6,3.6,0,0,1,.05,35a3.85,3.85,0,0,1,.5-2.59,7.52,7.52,0,0,1,4.72-3.53,7,7,0,0,1,4.05,0l.17,0V5.25L32.4,0V.5q0,12.93,0,25.86a10.86,10.86,0,0,1,0,1.52,4.19,4.19,0,0,1-1.55,2.61A6.51,6.51,0,0,1,24.78,32a3,3,0,0,1-2.45-2.52,3.27,3.27,0,0,1,.54-2.31A6.45,6.45,0,0,1,27,24.37a5.88,5.88,0,0,1,2.37-.09l.32,0V7.76l-.41.1-16.75,4.8c-.33.09-.41.24-.41.57,0,6.15,0,12.31,0,18.46a5.77,5.77,0,0,1-2.65,5A8.17,8.17,0,0,1,5.72,38.2a1.9,1.9,0,0,0-.25.07Z"/></g></g></g></svg>