<svg xmlns="http://www.w3.org/2000/svg" viewBox="0 0 37.22 28.25"><defs><style>.cls-1{fill:#6a625e;}.cls-2{fill:#ecede9;}</style></defs><title>Asset 93</title><g id="Layer_2" data-name="Layer 2"><g id="graphic_elements" data-name="graphic elements"><g id="Layer_134" data-name="Layer 134"><circle class="cls-1" cx="20.2" cy="7.88" r="0.15" transform="translate(11.88 27.9) rotate(-88.75)"/><path class="cls-1" d="M22.48,7a.08.08,0,0,0-.08.08.08.08,0,0,0,.08.08.07.07,0,0,0,.08-.08A.08.08,0,0,0,22.48,7Zm0,0a.08.08,0,0,0-.08.08.08.08,0,0,0,.08.08.07.07,0,0,0,.08-.08A.08.08,0,0,0,22.48,7Zm3.78.23-7-7a.94.94,0,0,0-1.33,0l-7,7a.92.92,0,0,0,0,1.32l6.91,6.91.75.76.7-.7,7-7A.92.92,0,0,0,26.27,7.27Zm-5.4,1.13A4.28,4.28,0,0,1,18.54,10a.14.14,0,0,0-.09.06A2.59,2.59,0,0,1,17,11.27H17l.51-1.21c-.27-.05-.54-.1-.8-.17a5.84,5.84,0,0,1-2-1.08.11.11,0,0,0-.14,0l-1.41.77-.09,0,.09-3.31.09,0,1.37.85a.11.11,0,0,0,.13,0c.21-.14.42-.29.64-.41a4.91,4.91,0,0,1,1.86-.66l.36,0-.45-1.24h0a2.6,2.6,0,0,1,1.33,1.24.3.3,0,0,0,.2.16,4.29,4.29,0,0,1,2.17,1.67l-.41.22Zm1.78-1a.13.13,0,0,0-.07.13l0,1.67a.73.73,0,0,1-.67.7.72.72,0,0,1-.76-.57,1.59,1.59,0,0,1,0-.36,4.17,4.17,0,0,1,0-.51l.42.66h-.23a.49.49,0,0,0,.2.45.47.47,0,0,0,.52.05.48.48,0,0,0,.28-.44l0-1.68a.16.16,0,0,0,0-.1.29.29,0,0,1,0-.5c.05,0,.06-.06.06-.12,0-.64,0-1.26,0-1.9V4.6h.17c0,.72,0,1.43-.05,2.15a.15.15,0,0,0,.08.15A.29.29,0,0,1,22.65,7.37ZM22.48,7a.08.08,0,0,0-.08.08.08.08,0,0,0,.08.08.07.07,0,0,0,.08-.08A.08.08,0,0,0,22.48,7Zm0,0a.08.08,0,0,0-.08.08.08.08,0,0,0,.08.08.07.07,0,0,0,.08-.08A.08.08,0,0,0,22.48,7Zm0,0a.08.08,0,0,0-.08.08.08.08,0,0,0,.08.08.07.07,0,0,0,.08-.08A.08.08,0,0,0,22.48,7Z"/><path class="cls-1" d="M27.74,20a1.45,1.45,0,0,1-1,1.09,1.45,1.45,0,0,1-1.77-1.8,1.39,1.39,0,0,1,1.1-1,1.47,1.47,0,0,1,.82.08l-.38.67-.18.33h0a.35.35,0,0,1,.36.36.32.32,0,0,1-.05.18h1C27.73,19.9,27.75,19.93,27.74,20Z"/><path class="cls-1" d="M27.75,19.5H26.67v0l.53-.94A1.58,1.58,0,0,1,27.75,19.5Z"/><path class="cls-1" d="M27.85,17.57c.17.55.35,1.11.53,1.67a.24.24,0,0,1-.1.25.09.09,0,0,1-.14-.06,1.93,1.93,0,0,0-.64-1.13c-.13-.12-.11-.08,0-.22l.31-.54,0-.06A.74.74,0,0,0,27.85,17.57Z"/><path class="cls-1" d="M28.16,17.2h3l0,0-2,1.86-.14.11a.11.11,0,0,1-.16-.05l-.61-1.93Z"/><path class="cls-1" d="M33.52,19.41a1.35,1.35,0,0,1-.31,1.21,1.42,1.42,0,0,1-1.79.33,1.44,1.44,0,0,1-.36-2.25,1.41,1.41,0,0,1,.46-.32c0,.13.07.25.11.37s.14.48.21.72a.36.36,0,0,1,.26-.12h.1L32,18.81c0-.16-.08-.32-.13-.48s0-.07.05-.07A1.42,1.42,0,0,1,33.52,19.41Z"/><path class="cls-1" d="M36.95,17.94l-7-7a.94.94,0,0,0-1.32,0l-7,7-.7.7.74.74,6.92,6.92a.92.92,0,0,0,1.32,0l7-7A.94.94,0,0,0,36.95,17.94Zm-4.39,3.52a1.75,1.75,0,0,1-1.88-.63,1.82,1.82,0,0,1,.59-2.76c.15-.08.15-.08.1-.23s0-.15-.07-.23h0l-.14.12-1.91,1.78a.13.13,0,0,0,0,.09.6.6,0,0,1-.09.39.49.49,0,0,1-.8,0,.13.13,0,0,0-.16-.05s0,0,0,0a3.1,3.1,0,0,1-.16.51,1.72,1.72,0,0,1-1.26,1A1.82,1.82,0,1,1,26,17.89a1.9,1.9,0,0,1,.87.07c.15,0,.13.08.23-.09s.29-.51.44-.75a.34.34,0,0,0,0-.35c-.05-.14,0-.14-.19-.14a.65.65,0,0,1-.43-.15.48.48,0,0,1-.18-.28.24.24,0,0,1,.12-.26h1.49a.25.25,0,0,1,.12,0,.18.18,0,0,1,0,.31,1.09,1.09,0,0,1-.2.09l-.35.12s-.06,0,0,.09a.75.75,0,0,1,0,.16.07.07,0,0,0,.08.05h3l0-.09c0-.1-.07-.18-.11-.27a.29.29,0,0,1,.08-.37l.08-.09-.18-.18a.14.14,0,0,0-.1,0H30a.2.2,0,0,1-.22-.2.19.19,0,0,1,.21-.2h1a.3.3,0,0,1,.16.08c.13.12.25.25.38.39a.21.21,0,0,1,0,.31h0a.26.26,0,0,0-.13.23v0c0,.06,0,.12,0,.18a.45.45,0,0,0,0,.09l0,.16c.1.34.2.68.29,1a.07.07,0,0,0,.08.06,5.47,5.47,0,0,1,.58,0,1.7,1.7,0,0,1,.85.4,1.73,1.73,0,0,1,.64,1.11A1.8,1.8,0,0,1,32.55,21.46Z"/><path class="cls-1" d="M6.62,19.77,6,20.42a.19.19,0,0,1-.12.06l-1,.05c-.08,0-.13,0-.17-.09a3.44,3.44,0,0,1-.56-1.68.15.15,0,0,1,.05-.1l1-.67a.14.14,0,0,1,.12,0l.94.4a.17.17,0,0,1,.08.09l.34,1.17A.11.11,0,0,1,6.62,19.77Z"/><path class="cls-1" d="M4.81,16.49a.15.15,0,0,1,0-.1,3.42,3.42,0,0,1,1.45-1.07.13.13,0,0,1,.11,0l1,.78a.2.2,0,0,1,0,.1v.51c0,.17,0,.33,0,.51a.15.15,0,0,1,0,.11l-.88.72a.12.12,0,0,1-.14,0l-1-.44a.2.2,0,0,1-.08-.08C5.09,17.23,5,16.86,4.81,16.49Z"/><path class="cls-1" d="M8.81,20.59a.14.14,0,0,1,0,.1c-.1.38-.19.74-.29,1.12a.12.12,0,0,1-.08.07,3.41,3.41,0,0,1-1.85,0,.15.15,0,0,1-.07-.08l-.31-1.15a.13.13,0,0,1,0-.1l.6-.62a.19.19,0,0,1,.1,0H8.09a.15.15,0,0,1,.1,0Z"/><path class="cls-1" d="M10.25,16.39a.13.13,0,0,1,0,.11q-.19.53-.41,1.07a.17.17,0,0,1-.08.09l-1,.44a.14.14,0,0,1-.12,0l-.89-.72a.13.13,0,0,1,0-.1v-1a.15.15,0,0,1,.05-.11c.31-.27.64-.52,1-.78a.16.16,0,0,1,.05,0l.08,0A3.34,3.34,0,0,1,10.25,16.39Z"/><path class="cls-1" d="M9.91,18l1,.67c.09.05,0,.12,0,.18a3.43,3.43,0,0,1-.57,1.63.13.13,0,0,1-.13.07l-1.1-.07a.18.18,0,0,1-.11,0l-.63-.65a.14.14,0,0,1,0-.1l.35-1.21a.24.24,0,0,1,.09-.1L9.79,18A.17.17,0,0,1,9.91,18Z"/><path class="cls-1" d="M16.24,18.6l-.74-.74L8.59,11a.92.92,0,0,0-1.32,0l-7,7a.94.94,0,0,0,0,1.32l7,7a.94.94,0,0,0,1.32,0l7.66-7.66ZM7.55,22.31a3.77,3.77,0,1,1,3.76-3.77A3.77,3.77,0,0,1,7.55,22.31Z"/><path class="cls-1" d="M20.89,20.16l.81-.81.7-.7-1.46-1.46,7-7a.58.58,0,0,0,0-.84.59.59,0,0,0-.84,0l-7,7L18.56,14.8l-.7.7-.81.81-7-7a.6.6,0,0,0-.85,0,.59.59,0,0,0,0,.84l7,7-.7.7-.79.79,1.54,1.54-7.06,7a.6.6,0,0,0,.85.85l7-7.06,1.46,1.46L20,21l7.08,7.08a.6.6,0,0,0,.85-.85Zm-1.58.1-.75.75-.72-.72L17,19.44l-.79-.78h0l0,0,.7-.7.84-.85.77-.77.8.79.85.85.72.72-.77.77Z"/><circle class="cls-2" cx="26.33" cy="19.7" r="0.22"/><circle class="cls-2" cx="32.1" cy="19.7" r="0.22"/></g></g></g></svg>