<svg xmlns="http://www.w3.org/2000/svg" viewBox="0 0 37.97 17.1"><defs><style>.cls-1{fill:#6a625e;}</style></defs><title>Asset 48</title><g id="Layer_2" data-name="Layer 2"><g id="graphic_elements" data-name="graphic elements"><g id="Layer_134" data-name="Layer 134"><path class="cls-1" d="M23.69,0H.69A.73.73,0,0,0,0,.32v15c.1.1.19.29.29.3.41,0,.43.33.52.6L1,16.7a.52.52,0,0,0,.54.39H2.85a.53.53,0,0,0,.56-.41c.08-.25.19-.49.25-.74s.17-.32.43-.32H20.32s.1,0,.13,0,.2.1.24.18c.12.28.21.57.3.86a.53.53,0,0,0,.56.41h1.32a.52.52,0,0,0,.53-.35l0,0c.1-.3.19-.6.3-.89h0a.3.3,0,0,1,.19-.16.62.62,0,0,0,.49-.37V.37A.66.66,0,0,0,23.69,0ZM2.37,16.13c-.61,0-.61,0-.68-.48H2.74C2.62,15.83,2.73,16.13,2.37,16.13ZM1,14.64V1H23.42V14.64Zm21.43,1.49c-.61,0-.64,0-.72-.48h1.07a.38.38,0,0,0-.07.16C22.66,16,22.66,16.11,22.42,16.12Z"/><path class="cls-1" d="M10.74,2h8.07c.58,0,.71.13.71.72q0,5.14,0,10.29c0,.56-.14.7-.7.7H2.65c-.56,0-.71-.14-.71-.7q0-5.17,0-10.34c0-.53.14-.67.67-.67ZM12.21,8.3h1m-2.93,0h1m-2.93,0h1m-2.94,0h1m8.79,0h.33c.48,0,.63-.15.64-.62,0-.26,0-.52,0-.78a.49.49,0,0,1,.56-.54h.89V3H2.94V6.33l.07,0h.84a.48.48,0,0,1,.54.53c0,.3,0,.59,0,.89a.48.48,0,0,0,.41.52,5.06,5.06,0,0,0,.56,0m8.78,0h1m2.92-.94c0,.15,0,.26,0,.38a1.47,1.47,0,0,1-1.58,1.56H5a1.48,1.48,0,0,1-1.59-1.6c0-.11,0-.22,0-.33H2.94v5.33H18.53V7.34Z"/><path class="cls-1" d="M20.51,5.86a1,1,0,0,1,1-1,1,1,0,0,1,1,1,1,1,0,0,1-1,1A1,1,0,0,1,20.51,5.86Z"/><circle class="cls-1" cx="21.48" cy="8.8" r="0.97" transform="translate(12.64 30.26) rotate(-89.9)"/><path class="cls-1" d="M21.48,2a1,1,0,0,1,1,1,1,1,0,0,1-1,1,1,1,0,0,1-1-1A1,1,0,0,1,21.48,2Z"/><path class="cls-1" d="M38,15.76c-.11-2-.24-3.9-.34-5.85a2.29,2.29,0,0,0-2.4-2.33H33.85c.14-.24.22-.4.32-.54a1.35,1.35,0,0,0,.14-1.43,1.3,1.3,0,0,0-1.25-.78H26.37a1.29,1.29,0,0,0-1.22.75A1.35,1.35,0,0,0,25.29,7c.1.14.18.29.32.53H24a2.31,2.31,0,0,0-.63.11v1a1.55,1.55,0,0,1,.78-.19h7.37A1.35,1.35,0,0,1,33,9.87c.12,2,.22,3.93.34,5.94H22.7c0,.15,0,.31-.28.32-.61,0-.64,0-.72-.48h.73l.05-1h-.92L21.49,16c0,.68.07.79.77.79H37C37.94,16.75,38,16.67,38,15.76ZM31.46,6.51a4.42,4.42,0,0,0-.31.5,3.44,3.44,0,0,0-.15.55H26.6c-.22-.4-.4-.74-.59-1.07s-.06-.72.34-.73q2.38,0,4.76,0C31.54,5.76,31.69,6.13,31.46,6.51Zm1.82.2c-.13.25-.22.52-.36.85h-1c.25-.59.79-1.08.49-1.79a1.41,1.41,0,0,1,.37,0c.25.06.56.09.72.25S33.4,6.48,33.28,6.71Zm1,9.09c-.09-1.47-.17-2.93-.26-4.39,0-.58,0-1.16-.11-1.74a8,8,0,0,0-.33-1.16c.64,0,1.31,0,2,0a1.25,1.25,0,0,1,1.11,1.12c.14,2,.25,4.08.37,6.15Z"/><path class="cls-1" d="M36.16,11.24h0a.5.5,0,0,0-.5-.5h-.18a1.09,1.09,0,0,1,0-.13c0-.33-.16-.58-.54-.53s-.39.33-.37.63c.05.91.1,1.83.15,2.74,0,.35,0,.78.51.75s.42-.43.41-.77c0-.56-.05-1.12-.08-1.69h.13a.5.5,0,0,0,.5-.42A.25.25,0,0,0,36.16,11.24Z"/></g></g></g></svg>