<svg xmlns="http://www.w3.org/2000/svg" viewBox="0 0 37.4 26.2"><defs><style>.cls-1{fill:#6a625e;}</style></defs><title>Asset 56</title><g id="Layer_2" data-name="Layer 2"><g id="graphic_elements" data-name="graphic elements"><g id="Layer_134" data-name="Layer 134"><path class="cls-1" d="M36.31,0H1.05A1.13,1.13,0,0,0,0,.48V23.4c.15.16.28.45.44.46.62,0,.66.51.8.92l.27.82a.8.8,0,0,0,.83.6h2a.81.81,0,0,0,.85-.63c.12-.38.29-.75.38-1.13s.26-.48.65-.48H31.14c.07,0,.15,0,.2,0s.31.16.36.28c.18.43.32.88.46,1.32a.81.81,0,0,0,.85.63h2a.79.79,0,0,0,.81-.54l0-.06c.15-.46.29-.92.46-1.37v0a.46.46,0,0,1,.28-.25.94.94,0,0,0,.76-.57V.57A1,1,0,0,0,36.31,0ZM3.64,24.71c-.94,0-.94,0-1-.73H4.2C4,24.26,4.18,24.71,3.64,24.71ZM1.51,22.43V1.54H35.89V22.43Zm32.85,2.28c-.93,0-1,0-1.11-.73h1.64a.59.59,0,0,0-.11.24C34.72,24.45,34.73,24.69,34.36,24.71Z"/><path class="cls-1" d="M16.46,3H28.83c.89,0,1.09.21,1.09,1.1q0,7.88,0,15.76c0,.86-.22,1.08-1.08,1.08H4.07C3.21,21,3,20.74,3,19.89Q3,12,3,4c0-.81.22-1,1-1Zm2.25,9.7h1.49m-4.49,0h1.5m-4.48,0h1.49m-4.5,0h1.5m13.46,0h.5c.73,0,1-.24,1-1,0-.4,0-.8,0-1.2A.76.76,0,0,1,27,9.74h1.36V4.54H4.51V9.7l.1,0H5.89a.74.74,0,0,1,.83.81c0,.45,0,.91,0,1.36a.73.73,0,0,0,.63.79,7.76,7.76,0,0,0,.86,0m13.46,0h1.5m4.48-1.45c0,.22,0,.4,0,.58a2.25,2.25,0,0,1-2.42,2.39H7.67a2.27,2.27,0,0,1-2.44-2.46c0-.17,0-.34,0-.5H4.51v8.17H28.4V11.25Z"/><path class="cls-1" d="M31.42,9a1.46,1.46,0,0,1,1.5-1.48A1.49,1.49,0,0,1,34.41,9a1.51,1.51,0,0,1-1.51,1.49A1.49,1.49,0,0,1,31.42,9Z"/><circle class="cls-1" cx="32.91" cy="13.48" r="1.49" transform="translate(19.38 46.37) rotate(-89.9)"/><path class="cls-1" d="M32.92,3a1.5,1.5,0,0,1,1.49,1.5A1.52,1.52,0,0,1,32.9,6a1.49,1.49,0,0,1-1.47-1.51A1.47,1.47,0,0,1,32.92,3Z"/></g></g></g></svg>