<svg xmlns="http://www.w3.org/2000/svg" viewBox="0 0 38.66 27.05"><defs><style>.cls-1{fill:#6a625e;}</style></defs><title>Asset 117</title><g id="Layer_2" data-name="Layer 2"><g id="graphic_elements" data-name="graphic elements"><g id="Layer_134" data-name="Layer 134"><path class="cls-1" d="M19.62,19c0,.39,0,.78,0,1.17,0,.6-.41.83-.94.52L18,20.3l-1.12,2.08-2,3.77c-.14.25-.29.47-.62.47s-.45-.23-.58-.46l-2.89-5.38-.26-.47-.72.42a.57.57,0,0,1-.92-.51c0-.39,0-.79,0-1.15-.62,0-1.21,0-1.8,0a8.29,8.29,0,0,1-7-6.53,6.06,6.06,0,0,1,6-7l.2,0c-.39,4.83,1.27,8.6,5.56,11.12l-.64.92,1.07.56a.61.61,0,0,1,0,1.15l-.74.42,2.16,4,.06,0V18.1H12.68c-.66,0-.88-.4-.56-1l.73-1.27-.7-.29a7.07,7.07,0,0,1-2.83-2.43A9.64,9.64,0,0,1,7.53,5.39,6.86,6.86,0,0,1,14.78,0c3.92.28,6.91,3.51,6.45,8.07a10.07,10.07,0,0,1-1.36,4.13,7.59,7.59,0,0,1-4.13,3.58l.66,1.07a2.26,2.26,0,0,1,.22.41.56.56,0,0,1-.54.76h-1.2v5.7l.05,0,2.17-4-.71-.4a.66.66,0,0,1-.44-.6c0-.31.21-.46.45-.59l.94-.54-.65-.93c4.34-2.49,6-6.31,5.61-11.17a4.92,4.92,0,0,1,2.13.33,6,6,0,0,1,3.19,8.92A8.48,8.48,0,0,1,21.7,19,11.85,11.85,0,0,1,19.62,19Z"/><path class="cls-1" d="M20.34,21.12a1.31,1.31,0,0,0,2.09.11,1.17,1.17,0,0,0,.3-.77c0-.15.06-.2.19-.25l2.35-.85.24-.09a.78.78,0,1,1,1.32.06c-.23.33-.6.4-1.08.19L24,23.19l-.21,0a1.29,1.29,0,0,0-1.31.68,1.25,1.25,0,0,0,.2,1.47.36.36,0,0,1,.07.5c-.17.33-.33.67-.47,1-.08.19-.2.24-.36.17a5.64,5.64,0,0,1-.95-.46,9,9,0,0,1-3-3.4,4.13,4.13,0,0,1-.27-.86.26.26,0,0,1,.11-.23Zm1.28,4.05a1.1,1.1,0,1,0-1.53-.08A1.06,1.06,0,0,0,21.62,25.17Zm2.72-3.44a.87.87,0,1,0-1.23-.06A.87.87,0,0,0,24.34,21.73Z"/><path class="cls-1" d="M23.69,23.87l-.5,1a.61.61,0,0,1-.16-.69A.62.62,0,0,1,23.69,23.87Z"/><path class="cls-1" d="M22,20.55a.62.62,0,0,1-1,.37Z"/><path class="cls-1" d="M21.24,24.64a.44.44,0,0,1-.66,0,.43.43,0,0,1,0-.62.44.44,0,0,1,.64,0A.45.45,0,0,1,21.24,24.64Z"/><path class="cls-1" d="M23.88,21.32a.81.81,0,0,1-.29-.1.18.18,0,0,1,0-.3.31.31,0,0,1,.29,0c.06.06,0,.2,0,.3Z"/><path class="cls-1" d="M32.88,14.85l-3.32-4.15,4.19-1.23-.17,1.59c-.13,1.19-.25,2.37-.39,3.56,0,.32.07.43.37.48a14.07,14.07,0,0,0,4.6.07c.44-.07.44-.07.46.42a13.65,13.65,0,0,1-5.68-.13,15.3,15.3,0,0,1-5.13-2.4l-.1.11c.07.09.12.22.21.28.71.45,1.44.88,2.21,1.34L27.3,17.16l-.09,0,.23-3.08-.07,0-.8,1.89-2.2-5.28,4.33.15-.61,1.49c-.07.16-.1.28.08.4A12.9,12.9,0,0,0,32.88,14.85Z"/><path class="cls-1" d="M38.25,5.4l.41.51c-.1.06-.18.11-.26.18a19.4,19.4,0,0,1-7,3.78,16,16,0,0,1-6.42.44l-.5-.06c-.54-.08-.55-.1-.36-.68C29.49,10.55,34.11,8.88,38.25,5.4Z"/><path class="cls-1" d="M37.7,12.08,34.26,9.19l3.16-1.9L37.8,12Z"/><path class="cls-1" d="M31.06,19.56,30.54,15,34,16l-2.88,3.56Z"/><path class="cls-1" d="M36.43,20.23l-1.71-4.12L38.31,16l-1.78,4.26Z"/></g></g></g></svg>