<svg xmlns="http://www.w3.org/2000/svg" viewBox="0 0 36.07 36.07"><defs><style>.cls-1{fill:#6a625e;}</style></defs><title>Asset 36</title><g id="Layer_2" data-name="Layer 2"><g id="graphic_elements" data-name="graphic elements"><g id="Layer_118" data-name="Layer 118"><path class="cls-1" d="M35.45,13.32c-.11-.43-.26-.85-.4-1.28A18,18,0,0,0,1,12a10,10,0,0,0-.4,1.28A17.16,17.16,0,0,0,0,18,18,18,0,0,0,6.63,32a17.29,17.29,0,0,0,1.88,1.34,18,18,0,0,0,19,0A17.31,17.31,0,0,0,29.44,32a18,18,0,0,0,6.63-14A18.55,18.55,0,0,0,35.45,13.32ZM29.27,29.9a16.88,16.88,0,0,1-3.67,2.62A16.22,16.22,0,0,1,18,34.37,16.32,16.32,0,0,1,6.8,29.9,16.28,16.28,0,0,1,1.71,18a16.76,16.76,0,0,1,.23-2.7,15.36,15.36,0,0,1,1.25-4.07A16.41,16.41,0,0,1,16,1.82a15.88,15.88,0,0,1,2-.11,15.73,15.73,0,0,1,2,.11A16.31,16.31,0,0,1,34.14,15.29,17.13,17.13,0,0,1,34.37,18,16.38,16.38,0,0,1,29.27,29.9Z"/><path class="cls-1" d="M32.54,17.82c0,.28,0,.6,0,.88a9.09,9.09,0,0,1-1,4.33,4.45,4.45,0,0,1-3.1,2.45,4.83,4.83,0,0,1-1.14.11,4.38,4.38,0,0,1-1.2-.2,2.2,2.2,0,0,1-1.71-2.68,8,8,0,0,1,.91-2.53A12.08,12.08,0,0,1,29,16.12a3.63,3.63,0,0,1,1.59-.68,1.41,1.41,0,0,1,1.51.74,2.64,2.64,0,0,1,.28.74A3.33,3.33,0,0,1,32.54,17.82Z"/><path class="cls-1" d="M28.61,11.64a6.6,6.6,0,0,1-3.33,5.61,2.86,2.86,0,0,1-3.39,0,3.51,3.51,0,0,1-1.45-2.7,6.82,6.82,0,0,1,.34-2.73,14.1,14.1,0,0,1,1.54-3.93c.14-.17.26-.37.4-.54a5.24,5.24,0,0,1,.65-.71A1.93,1.93,0,0,1,26,6.41a5.9,5.9,0,0,1,2.22,2.9,9.8,9.8,0,0,1,.34,1.31A6.22,6.22,0,0,1,28.61,11.64Z"/><path class="cls-1" d="M10.88,14.89h-.06a8.58,8.58,0,0,1-.43,3,5.62,5.62,0,0,1-.57,1.08,2,2,0,0,1-2.22.88A4.77,4.77,0,0,1,5.87,19L5,18.25A4.74,4.74,0,0,1,4,14.92a9.29,9.29,0,0,1,1.4-4c.09-.11.17-.26.26-.4A9.91,9.91,0,0,1,6.72,9.14a1.62,1.62,0,0,1,2.7.26,5.76,5.76,0,0,1,.51.91,8.51,8.51,0,0,1,.6,1.88C10.68,13.1,10.76,14,10.88,14.89Z"/><path class="cls-1" d="M20.13,6.92a15.9,15.9,0,0,1-1.57,6,4,4,0,0,1-2.48,2.16,2.88,2.88,0,0,1-3.19-1,5.16,5.16,0,0,1-1.05-2.76,8.47,8.47,0,0,1-.06-1.45,6.28,6.28,0,0,1,2.05-4.27,4.16,4.16,0,0,1,.54-.46A6.13,6.13,0,0,1,17.51,4,2.09,2.09,0,0,1,20,5.89C20.07,6.26,20.1,6.63,20.13,6.92Z"/><path class="cls-1" d="M24.43,27.62A4.78,4.78,0,0,1,22.83,31a5.77,5.77,0,0,1-1.14.8,4.9,4.9,0,0,1-5.27-.26,7.71,7.71,0,0,0-2.25-1.05A7.84,7.84,0,0,0,12,30.24,5.15,5.15,0,0,1,7.26,27.3a5.41,5.41,0,0,1-.48-2.36,4.89,4.89,0,0,1,1.37-3.39,5,5,0,0,1,1.74-1.17,14.09,14.09,0,0,0,3.36-2.08c.51-.43,1-.83,1.54-1.22A4.39,4.39,0,0,1,21.3,19l.77,2.31a11.13,11.13,0,0,0,1.48,3.1A5.34,5.34,0,0,1,24.43,27.62Z"/></g></g></g></svg>