<svg xmlns="http://www.w3.org/2000/svg" viewBox="0 0 36.6 30.33"><defs><style>.cls-1{fill:#6a625e;}</style></defs><title>Asset 27</title><g id="Layer_2" data-name="Layer 2"><g id="graphic_elements" data-name="graphic elements"><g id="Layer_134" data-name="Layer 134"><path class="cls-1" d="M11.84,26.28v0h0ZM30.25,12.2h0Z"/><path class="cls-1" d="M30.51,0H6.09A2.69,2.69,0,0,0,3.4,2.71V27.63a2.69,2.69,0,0,0,2.69,2.69H30.51a2.69,2.69,0,0,0,2.69-2.69V2.71A2.69,2.69,0,0,0,30.51,0Zm-.32,2.17a1.32,1.32,0,1,1-1.32,1.32A1.32,1.32,0,0,1,30.18,2.19ZM6.7,2.19A1.32,1.32,0,1,1,5.38,3.51,1.32,1.32,0,0,1,6.7,2.19Zm0,26.37A1.32,1.32,0,1,1,8,27.23,1.32,1.32,0,0,1,6.7,28.55Zm23.49,0a1.32,1.32,0,1,1,1.32-1.32A1.32,1.32,0,0,1,30.18,28.55Zm-12,.37A13.37,13.37,0,1,1,31.59,15.55,13.37,13.37,0,0,1,18.22,28.92Z"/><path class="cls-1" d="M30.1,15.63,27.42,16h3.27q0-.25,0-.5h0Zm.14-3.43h0Z"/><path class="cls-1" d="M23.59,17.53a.62.62,0,0,1-.55-1,4.89,4.89,0,0,1,.94-.88c1.6-1,3.27-1.92,4.84-3,.39-.26.82-1,.71-1.36A10.68,10.68,0,0,0,25.18,5.6l-2.69,6.49a.54.54,0,0,1-1-.1,10.24,10.24,0,0,1-.24-1.53c-.08-1.89-.06-3.79-.2-5.68,0-.44-.53-1.16-.89-1.21a10.69,10.69,0,0,0-7,1l4.23,5.51a.57.57,0,0,1-.64.88,11,11,0,0,1-1.45-.58c-1.62-.85-3.17-1.84-4.83-2.59a1.92,1.92,0,0,0-1.77.34,10.12,10.12,0,0,0-2.48,6.34L13,13.5a.55.55,0,0,1,.46.94,7.44,7.44,0,0,1-1.13,1c-1.55,1-3.16,1.85-4.68,2.86-.41.27-.94,1-.83,1.32a10.94,10.94,0,0,0,4.39,5.81l2.68-6.45A.57.57,0,0,1,15,19a8.93,8.93,0,0,1,.25,1.51c.08,1.89,0,3.79.16,5.68,0,.43.53,1.14.89,1.19a10.69,10.69,0,0,0,7-1L19,20.92a.56.56,0,0,1,.62-.87,9.89,9.89,0,0,1,1.47.56c1.62.85,3.18,1.81,4.82,2.61.43.21,1.31.26,1.54,0a10.4,10.4,0,0,0,2.75-6.72Zm-5.38,1.66a3.64,3.64,0,1,1,3.64-3.64A3.64,3.64,0,0,1,18.22,19.19Z"/><circle class="cls-1" cx="18.22" cy="15.59" r="2.92"/><path class="cls-1" d="M0,0H3.76a3.58,3.58,0,0,0-.6.65H0Z"/><path class="cls-1" d="M36.6,0V.65H33.43a3.58,3.58,0,0,0-.6-.65Z"/><path class="cls-1" d="M0,1.28H2.81a3.52,3.52,0,0,0-.21.65H0Z"/><path class="cls-1" d="M36.6,1.28v.65H34a3.52,3.52,0,0,0-.21-.65Z"/><path class="cls-1" d="M0,2.57H2.52s0,.1,0,.15v.51H0Z"/><path class="cls-1" d="M36.6,2.57v.65H34.09V2.71c0-.05,0-.1,0-.15Z"/><rect class="cls-1" y="3.85" width="2.51" height="0.65"/><path class="cls-1" d="M24,4.5H21.87a2.6,2.6,0,0,0-.25-.65h.95A12.43,12.43,0,0,1,24,4.5Z"/><rect class="cls-1" x="34.09" y="3.85" width="2.51" height="0.65"/><rect class="cls-1" y="5.13" width="2.51" height="0.65"/><path class="cls-1" d="M12.47,5.13l.5.65H10.44q.43-.35.9-.65Z"/><path class="cls-1" d="M24.41,5.13l-.27.65H22q0-.33,0-.65Z"/><rect class="cls-1" x="34.09" y="5.13" width="2.51" height="0.65"/><rect class="cls-1" y="6.41" width="2.51" height="0.65"/><path class="cls-1" d="M14,7.07H11.06L10.81,7a2.12,2.12,0,0,0-.88-.17,3.33,3.33,0,0,0-.67.07l.45-.44h3.74Z"/><path class="cls-1" d="M23.88,6.41l-.27.65H22q0-.33,0-.65Z"/><rect class="cls-1" x="34.09" y="6.41" width="2.51" height="0.65"/><rect class="cls-1" y="7.69" width="2.51" height="0.65"/><path class="cls-1" d="M14.94,8.35H13.5l-1.19-.65h2.13Z"/><path class="cls-1" d="M23.35,7.69l-.27.65H22c0-.05,0-.1,0-.15v-.5Z"/><rect class="cls-1" x="34.09" y="7.69" width="2.51" height="0.65"/><rect class="cls-1" y="8.98" width="2.51" height="0.65"/><path class="cls-1" d="M15.92,9.63h-.11l-.13-.06L14.61,9h.81Z"/><path class="cls-1" d="M22.82,9l-.27.65h-.47c0-.22,0-.44,0-.65Z"/><rect class="cls-1" x="34.09" y="8.98" width="2.51" height="0.65"/><rect class="cls-1" y="10.26" width="2.51" height="0.65"/><path class="cls-1" d="M22.29,10.26l-.16.4q0-.12,0-.23v-.16Z"/><rect class="cls-1" x="34.09" y="10.26" width="2.51" height="0.65"/><rect class="cls-1" y="11.54" width="2.51" height="0.65"/><rect class="cls-1" x="34.09" y="11.54" width="2.51" height="0.65"/><rect class="cls-1" y="12.82" width="2.51" height="0.65"/><path class="cls-1" d="M30.53,13.48H29.17l.15-.1a2.46,2.46,0,0,0,.57-.56h.52Q30.48,13.15,30.53,13.48Z"/><rect class="cls-1" x="34.09" y="12.82" width="2.51" height="0.65"/><rect class="cls-1" y="14.11" width="2.51" height="0.65"/><path class="cls-1" d="M10.35,14.76l1.77-.24-.22.15-.14.09Z"/><path class="cls-1" d="M30.68,14.76H27.1l1.08-.65h2.44Q30.66,14.43,30.68,14.76Z"/><rect class="cls-1" x="34.09" y="14.11" width="2.51" height="0.65"/><rect class="cls-1" y="15.39" width="2.51" height="0.65"/><path class="cls-1" d="M10.73,15.39l-.85.51L9.62,16H5.74q0-.25,0-.5,0-.08,0-.15Z"/><path class="cls-1" d="M30.7,15.54h0q0,.25,0,.5H25L26,15.39H30.7S30.7,15.49,30.7,15.54Z"/><rect class="cls-1" x="34.09" y="15.39" width="2.51" height="0.65"/><rect class="cls-1" y="16.67" width="2.51" height="0.65"/><path class="cls-1" d="M5.78,16.67H8.57l-1.05.65H5.85Q5.81,17,5.78,16.67Z"/><rect class="cls-1" x="34.09" y="16.67" width="2.51" height="0.65"/><rect class="cls-1" y="17.95" width="2.51" height="0.65"/><path class="cls-1" d="M6,18h.76a3.59,3.59,0,0,0-.38.47l-.11.18H6.11Q6,18.29,6,18Z"/><rect class="cls-1" x="34.09" y="17.95" width="2.51" height="0.65"/><rect class="cls-1" y="19.24" width="2.51" height="0.65"/><rect class="cls-1" x="34.09" y="19.24" width="2.51" height="0.65"/><rect class="cls-1" y="20.52" width="2.51" height="0.65"/><path class="cls-1" d="M14.39,21.17H14l.27-.65h.14s0,0,0,.07C14.38,20.78,14.39,21,14.39,21.17Z"/><rect class="cls-1" x="34.09" y="20.52" width="2.51" height="0.65"/><rect class="cls-1" y="21.8" width="2.51" height="0.65"/><path class="cls-1" d="M14.42,22.46h-1l.27-.65h.71Q14.41,22.13,14.42,22.46Z"/><path class="cls-1" d="M22.64,22.46h-1.3l-.51-.65h.62Z"/><rect class="cls-1" x="34.09" y="21.8" width="2.51" height="0.65"/><rect class="cls-1" y="23.08" width="2.51" height="0.65"/><path class="cls-1" d="M14.44,23.74H12.9l.27-.65h1.26Q14.43,23.41,14.44,23.74Z"/><path class="cls-1" d="M25,23.74H22.34l-.51-.65h1.94Z"/><rect class="cls-1" x="34.09" y="23.08" width="2.51" height="0.65"/><rect class="cls-1" y="24.37" width="2.51" height="0.65"/><path class="cls-1" d="M14.47,25H12.36l.27-.65h1.82C14.46,24.58,14.46,24.8,14.47,25Z"/><path class="cls-1" d="M27,24.37q-.34.34-.71.65h-3l-.51-.65Z"/><rect class="cls-1" x="34.09" y="24.37" width="2.51" height="0.65"/><rect class="cls-1" y="25.65" width="2.51" height="0.65"/><path class="cls-1" d="M14.54,26.3H11.83v0l.22-.54,0-.09h2.4q0,.32,0,.65Z"/><path class="cls-1" d="M25.55,25.65q-.48.35-1,.65h-.23l-.51-.65Z"/><rect class="cls-1" x="34.09" y="25.65" width="2.51" height="0.65"/><rect class="cls-1" y="26.93" width="2.51" height="0.65"/><path class="cls-1" d="M15.1,27.59h-.2a12.38,12.38,0,0,1-1.81-.65H14.7a3,3,0,0,0,.32.56Z"/><rect class="cls-1" x="34.09" y="26.93" width="2.51" height="0.65"/><path class="cls-1" d="M2.56,28.21a3.51,3.51,0,0,0,.17.65H0v-.65Z"/><path class="cls-1" d="M36.6,28.21v.65H33.87a3.52,3.52,0,0,0,.17-.65Z"/><path class="cls-1" d="M3,29.5a3.59,3.59,0,0,0,.51.65H0V29.5Z"/><path class="cls-1" d="M36.6,29.5v.65H33a3.59,3.59,0,0,0,.51-.65Z"/></g></g></g></svg>