<svg xmlns="http://www.w3.org/2000/svg" viewBox="0 0 38.19 31.32"><defs><style>.cls-1{fill:#6a625e;}</style></defs><title>Asset 26</title><g id="Layer_2" data-name="Layer 2"><g id="graphic_elements" data-name="graphic elements"><g id="Layer_134" data-name="Layer 134"><path class="cls-1" d="M.49,21.29H38c0-.21,0-.37,0-.54q0-9.54,0-19.07C38.08.45,37.56,0,36.21,0H2.47C.91,0,.49.43.49,2q0,9.15,0,18.3ZM2,1.51H36.58V19.81H2Z"/><path class="cls-1" d="M.49,23.7c0,1.81.37,2.19,2.15,2.19H36.11a3.81,3.81,0,0,0,.69,0A1.34,1.34,0,0,0,38,24.64c.06-.93,0-1.87,0-2.86H.49Zm18.79-.37a.51.51,0,0,1,.46.74h0a.5.5,0,0,1-.27.25h0a.47.47,0,0,1-.18,0,.51.51,0,0,1,0-1Z"/><path class="cls-1" d="M33.27,27.5a1.61,1.61,0,0,0-.92-.25H23.47l-.2-.92h-8l-.2.92H5.85a1.3,1.3,0,0,0-.72.1c-1.69,1.28-3.35,2.59-5.13,4H38.19C36.47,30,34.89,28.72,33.27,27.5Z"/></g></g></g></svg>