<svg xmlns="http://www.w3.org/2000/svg" viewBox="0 0 35.52 34.21"><defs><style>.cls-1{fill:#6a625e;}</style></defs><title>Asset 38</title><g id="Layer_2" data-name="Layer 2"><g id="graphic_elements" data-name="graphic elements"><g id="Layer_134" data-name="Layer 134"><path class="cls-1" d="M2.1,9h0a.74.74,0,0,1,.79-.48c.42,0,.84,0,1.26,0v-1c-.44,0-.85,0-1.26,0a.75.75,0,0,1-.8-.47.74.74,0,0,1,.79-.5c.42,0,.84,0,1.27,0v-1c-.43,0-.83,0-1.22,0a.78.78,0,0,1-.82-.44v0a.71.71,0,0,1,.77-.52c.43,0,.86,0,1.28,0A2.58,2.58,0,0,1,6.67,2.06c0-.44,0-.86,0-1.28A.71.71,0,0,1,7.19,0h0a.78.78,0,0,1,.44.82c0,.41,0,.81,0,1.23h1c0-.44,0-.86,0-1.28A.74.74,0,0,1,9.16,0a.75.75,0,0,1,.47.8c0,.42,0,.84,0,1.26h1c0-.44,0-.85,0-1.26A.74.74,0,0,1,11.13,0h0a.74.74,0,0,1,.49.79c0,.42,0,.84,0,1.27h1c0-.44,0-.85,0-1.26a.8.8,0,0,1,.44-.8h0a.72.72,0,0,1,.54.78c0,.43,0,.86,0,1.28a2.58,2.58,0,0,1,2.52,2.51c.44,0,.86,0,1.28,0a.72.72,0,0,1,.77.51v0a.78.78,0,0,1-.82.44c-.41,0-.81,0-1.23,0v1c.44,0,.86,0,1.28,0a.74.74,0,0,1,.79.5h0a.75.75,0,0,1-.8.48c-.42,0-.84,0-1.26,0v1c.44,0,.85,0,1.26,0a.75.75,0,0,1,.79.47h0a.74.74,0,0,1-.79.5c-.42,0-.84,0-1.27,0v1c.43,0,.83,0,1.22,0a.78.78,0,0,1,.82.44v0a.72.72,0,0,1-.77.52c-.43,0-.86,0-1.29,0a2.66,2.66,0,0,1-.74,1.76,2.7,2.7,0,0,1-1.76.75c0,.45,0,.87,0,1.29a.72.72,0,0,1-.52.77h0a.78.78,0,0,1-.44-.82c0-.41,0-.81,0-1.23h-1c0,.44,0,.86,0,1.28a.74.74,0,0,1-.48.78h0a.74.74,0,0,1-.48-.82c0-.41,0-.82,0-1.23h-1c0,.44,0,.85,0,1.26a.75.75,0,0,1-.48.8h0a.74.74,0,0,1-.5-.79c0-.42,0-.84,0-1.27h-1c0,.43,0,.83,0,1.22a.78.78,0,0,1-.44.82h0a.72.72,0,0,1-.51-.77c0-.43,0-.86,0-1.28a2.58,2.58,0,0,1-2.52-2.51c-.44,0-.86,0-1.28,0A.72.72,0,0,1,2.11,11h0a.76.76,0,0,1,.83-.45c.41,0,.81,0,1.23,0v-1c-.44,0-.86,0-1.28,0A.74.74,0,0,1,2.1,9Zm13-1c0-1.13,0-2.26,0-3.39a1.51,1.51,0,0,0-1.6-1.59H6.78A1.51,1.51,0,0,0,5.17,4.69q0,3.35,0,6.71A1.51,1.51,0,0,0,6.81,13h6.67a1.52,1.52,0,0,0,1.64-1.65C15.12,10.26,15.12,9.15,15.12,8Z"/><path class="cls-1" d="M8.55,8.52a1.16,1.16,0,0,1-.1.4.92.92,0,0,1-.22.31,1,1,0,0,1-.35.2,1.39,1.39,0,0,1-.47.07,1.21,1.21,0,0,1-.49-.09,1,1,0,0,1-.37-.27,1.23,1.23,0,0,1-.23-.43,1.84,1.84,0,0,1-.08-.56V8a1.79,1.79,0,0,1,.08-.56A1.25,1.25,0,0,1,6.57,7a1,1,0,0,1,.37-.27,1.2,1.2,0,0,1,.48-.09,1.35,1.35,0,0,1,.47.07,1,1,0,0,1,.34.21.94.94,0,0,1,.22.32,1.32,1.32,0,0,1,.1.4H8a.88.88,0,0,0,0-.22.44.44,0,0,0-.1-.16.4.4,0,0,0-.16-.1.77.77,0,0,0-.24,0A.49.49,0,0,0,7,7.29,1.21,1.21,0,0,0,6.84,8v.19a2,2,0,0,0,0,.38A.81.81,0,0,0,7,8.8.44.44,0,0,0,7.15,9,.58.58,0,0,0,7.42,9a.8.8,0,0,0,.24,0,.4.4,0,0,0,.27-.25.78.78,0,0,0,0-.22Z"/><path class="cls-1" d="M9.72,8.46v1H9.14V6.63h1.1a1.33,1.33,0,0,1,.45.07A1,1,0,0,1,11,6.9a.83.83,0,0,1,.21.3,1,1,0,0,1,.07.37.92.92,0,0,1-.07.37.76.76,0,0,1-.21.28,1,1,0,0,1-.33.18,1.46,1.46,0,0,1-.45.06Zm0-.47h.52a.66.66,0,0,0,.21,0,.39.39,0,0,0,.15-.09.34.34,0,0,0,.08-.13.51.51,0,0,0,0-.17.57.57,0,0,0,0-.18.42.42,0,0,0-.08-.15.41.41,0,0,0-.15-.1.54.54,0,0,0-.21,0H9.72Z"/><path class="cls-1" d="M14,6.63V8.5a1.07,1.07,0,0,1-.08.43.87.87,0,0,1-.22.31,1,1,0,0,1-.34.19,1.51,1.51,0,0,1-.87,0,1,1,0,0,1-.34-.19A.86.86,0,0,1,12,8.93a1.08,1.08,0,0,1-.08-.43V6.63h.58V8.5a.54.54,0,0,0,.13.4.59.59,0,0,0,.73,0,.54.54,0,0,0,.13-.4V6.63Z"/><path class="cls-1" d="M11.13,33.46l-1.78.75-.62-1.48L8,33,6.2,28.75l.7-.3L5.59,25.34l-.7.3-1.8-4.3L3.8,21l-.71-1.69-2.33,1L0,18.52l4.13-1.73Z"/><path class="cls-1" d="M28.36,19.7l-1,.24.45-.57a1.17,1.17,0,0,0-.18-1.63,3.21,3.21,0,0,0-.66-.41.41.41,0,0,0-.57.26l-.28,1-.29-.68a1.17,1.17,0,0,0-1.5-.64,3.33,3.33,0,0,0-.68.36.41.41,0,0,0-.06.62l.7.73-.71-.1a1.17,1.17,0,0,0-1.32.93,3.07,3.07,0,0,0-.06.83.41.41,0,0,0,.5.36l1-.24-.45.57a1.17,1.17,0,0,0,.18,1.63,3.29,3.29,0,0,0,.66.42.41.41,0,0,0,.56-.26l.28-1,.29.68a1.17,1.17,0,0,0,1.5.64,3.28,3.28,0,0,0,.68-.36.41.41,0,0,0,.06-.62l-.63-.66,0-.06.63.09a1.17,1.17,0,0,0,1.32-1,3.24,3.24,0,0,0,0-.78A.41.41,0,0,0,28.36,19.7Zm-2.62,1.09a.52.52,0,1,1,.28-.68A.52.52,0,0,1,25.74,20.79Z"/><path class="cls-1" d="M20.7,24.84a.26.26,0,0,0-.14,0,.22.22,0,0,0-.1.07.23.23,0,0,0,0,.11.41.41,0,0,0,0,.13.79.79,0,0,0,0,.15v0a.79.79,0,0,0,.07.13.39.39,0,0,0,.09.1.23.23,0,0,0,.1,0,.22.22,0,0,0,.12,0,.26.26,0,0,0,.12-.09.25.25,0,0,0,0-.13l-.2-.48A.24.24,0,0,0,20.7,24.84Z"/><path class="cls-1" d="M18.34,26.31l-.06.07a.17.17,0,0,0,0,.08.21.21,0,0,0,0,.08.14.14,0,0,0,.09.08.18.18,0,0,0,.13,0l.07,0,.05-.05,0-.06a.22.22,0,0,0,0-.06l-.09-.21-.13.06Z"/><path class="cls-1" d="M29.33,13a1.58,1.58,0,0,0-2.24-.92L7.24,20.45,7,20.56,12.2,32.9l.79-.33.6,1.42,9.27-3.89-.59-1.41.87-.36.59,1.41L33,25.85l-.59-1.4.06-.06a1.64,1.64,0,0,0,.71-2.21C31.87,19.15,30.61,16.09,29.33,13Zm-15.53,9,2.11-.88.23.54-1.44.6.35.84,1.28-.54.23.54-1.28.54L15.82,25l-.67.28Zm.74,11-.43.18-.43-1,.43-.18Zm.93-.38-.43.18-.43-1,.43-.18Zm.92-.39-.43.18-.42-1,.43-.18Zm-2.78-6.32a2.38,2.38,0,0,1-.45.24,1.66,1.66,0,0,1-.62.14,1.3,1.3,0,0,1-.57-.12,1.5,1.5,0,0,1-.49-.37,2.2,2.2,0,0,1-.38-.62L11,25a2.3,2.3,0,0,1-.18-.71,1.51,1.51,0,0,1,.07-.61,1.25,1.25,0,0,1,.3-.48,1.56,1.56,0,0,1,.51-.34,1.83,1.83,0,0,1,.58-.15,1.16,1.16,0,0,1,.48.06,1.09,1.09,0,0,1,.38.24,1.62,1.62,0,0,1,.3.39l-.65.27a1,1,0,0,0-.16-.2.55.55,0,0,0-.19-.12.54.54,0,0,0-.23,0,.84.84,0,0,0-.27.07.64.64,0,0,0-.41.48,1.47,1.47,0,0,0,.14.84l.08.2a1.39,1.39,0,0,0,.52.69.72.72,0,0,0,.68,0l.2-.1.14-.1.08-.1,0-.08-.23-.56L12.6,25l-.21-.49,1.27-.53.54,1.29a1.17,1.17,0,0,1-.1.21,1.3,1.3,0,0,1-.19.25A2,2,0,0,1,13.62,25.95Zm3.7,5.93-.42.18-.42-1,.42-.18Zm.92-.4-.43.18-.42-1,.43-.18Zm.92-.38-.42.18-.43-1,.42-.18ZM16.63,27a.51.51,0,0,0,.13.14.28.28,0,0,0,.14.05.37.37,0,0,0,.17,0l.13-.08a.25.25,0,0,0,.1-.21.49.49,0,0,0,0-.14l.34-.14a.73.73,0,0,1,0,.25.58.58,0,0,1-.06.24.65.65,0,0,1-.15.2.88.88,0,0,1-.25.16.77.77,0,0,1-.31.06.63.63,0,0,1-.28-.07.78.78,0,0,1-.24-.19,1.16,1.16,0,0,1-.18-.31l0-.11A1.13,1.13,0,0,1,16,26.5a.79.79,0,0,1,0-.31.65.65,0,0,1,.15-.25.76.76,0,0,1,.26-.17.85.85,0,0,1,.29-.07.63.63,0,0,1,.25,0,.6.6,0,0,1,.21.13.84.84,0,0,1,.16.21l-.34.14a.56.56,0,0,0-.08-.12.28.28,0,0,0-.1-.07l-.12,0-.15,0a.31.31,0,0,0-.2.23.76.76,0,0,0,.08.42l0,.11A1.29,1.29,0,0,0,16.63,27Zm3.46,3.69-.43.18-.43-1,.43-.18Zm-1.31-4.08a.46.46,0,0,1-.09.15.43.43,0,0,1-.17.12.53.53,0,0,1-.18,0,.44.44,0,0,1-.16,0,.38.38,0,0,1-.14-.08A.37.37,0,0,1,18,26.7a.42.42,0,0,1,0-.19.36.36,0,0,1,.05-.17.56.56,0,0,1,.14-.15,1.08,1.08,0,0,1,.23-.13L18.5,26l0-.07a.22.22,0,0,0-.1-.12.19.19,0,0,0-.16,0,.21.21,0,0,0-.11.09.15.15,0,0,0,0,.13l-.33.14a.35.35,0,0,1,0-.17.41.41,0,0,1,.05-.17.57.57,0,0,1,.13-.15.75.75,0,0,1,.2-.12.74.74,0,0,1,.21-.06.48.48,0,0,1,.19,0,.4.4,0,0,1,.16.09.49.49,0,0,1,.12.17l.22.52,0,.09,0,.07,0,.05,0,0v0l-.33.14A.39.39,0,0,1,18.78,26.63ZM21,30.33l-.42.18-.42-1,.42-.18Zm-3.36-6.07.28-2L16.31,21l.77-.32,1.08.86.14-1.37.77-.32-.27,2,1.65,1.23-.78.33-1.1-.87-.15,1.4Zm1.86,1.26.34.8-.33.14L19,25.23l.31-.13.07.14a.4.4,0,0,1,.06-.17.3.3,0,0,1,.14-.11l.06,0h.05l.13.32-.06,0-.06,0a.35.35,0,0,0-.14.1A.22.22,0,0,0,19.5,25.52Zm2.43,4.42-.43.18-.42-1,.43-.18Zm-.43-4.32-.29.12-.07-.12a.46.46,0,0,1-.09.17.42.42,0,0,1-.16.12.46.46,0,0,1-.22,0,.48.48,0,0,1-.2-.07.65.65,0,0,1-.18-.16,1,1,0,0,1-.14-.23v0a1,1,0,0,1-.07-.27.65.65,0,0,1,0-.24.46.46,0,0,1,.1-.19.48.48,0,0,1,.18-.13.41.41,0,0,1,.18,0,.43.43,0,0,1,.17,0L20.45,24l.33-.14Zm3.17,3.17-.42.18-.42-1,.42-.18Zm.94-.39-.43.18-.43-1,.43-.18Zm.91-.39-.42.18-.42-1L26.1,27Zm.92-.38L27,27.8l-.43-1,.42-.18Zm.93-.41-.44.18-.42-1,.44-.18Zm.92-.37-.43.18-.42-1,.43-.18Zm.93-.39-.43.18-.42-1,.43-.18Zm.92-.38-.43.18-.42-1,.43-.18Zm.92-.39-.43.18-.43-1,.43-.18Zm-4.76-1.37a4.38,4.38,0,1,1,2.25-5.76A4.38,4.38,0,0,1,27.32,24.32Z"/><path class="cls-1" d="M25.4,3.75v6.43H35.52V3.75Zm3.35,5.38A2.17,2.17,0,1,1,30.91,7,2.17,2.17,0,0,1,28.75,9.13Zm5.62-.56H32.07V8.12h2.29Zm0-1.84H32.07a.52.52,0,0,1,0-.05q0-.53,0-1.06a.45.45,0,0,1,.1-.3.46.46,0,0,1,.37-.18h1.33a.55.55,0,0,1,.47.3.08.08,0,0,1,0,0q0,.61,0,1.22Z"/><path class="cls-1" d="M30.42,6.73h-.82A1,1,0,0,0,29,6.1V5.27A1.69,1.69,0,0,1,30.42,6.73Z"/><path class="cls-1" d="M30.44,7.2a1.63,1.63,0,0,1-.33.79A1.69,1.69,0,0,1,29,8.67V7.84a1,1,0,0,0,.64-.64Z"/><path class="cls-1" d="M28.5,7.83v.83A1.73,1.73,0,0,1,27,7.2h.84A1,1,0,0,0,28.5,7.83Z"/><path class="cls-1" d="M28.5,6.1a.93.93,0,0,0-.61.63h-.84a1.73,1.73,0,0,1,1.44-1.46C28.51,5.55,28.5,5.82,28.5,6.1Z"/><path class="cls-1" d="M29.13,7a.38.38,0,0,1-.39.37A.37.37,0,0,1,28.36,7a.38.38,0,0,1,.39-.37A.39.39,0,0,1,29.13,7Z"/><rect class="cls-1" x="32.37" y="6.18" width="0.57" height="0.31"/><rect class="cls-1" x="32.15" y="8.19" width="1.07" height="0.31"/><rect class="cls-1" x="33.47" y="6.18" width="0.57" height="0.31"/><rect class="cls-1" x="32.97" y="5.49" width="0.47" height="0.26" transform="translate(27.58 38.83) rotate(-90)"/><polygon class="cls-1" points="25.6 3.47 35.36 3.47 32.85 0.97 28.1 0.97 25.6 3.47"/></g></g></g></svg>