<svg xmlns="http://www.w3.org/2000/svg" viewBox="0 0 42.36 24.49"><defs><style>.cls-1{fill:#6a625e;}</style></defs><title>Asset 15</title><g id="Layer_2" data-name="Layer 2"><g id="graphic_elements" data-name="graphic elements"><g id="Layer_127" data-name="Layer 127"><path class="cls-1" d="M27.57.55h-26C.32.56,0,.89,0,2.11Q0,9.17,0,16.23c0,.24,0,.48,0,.76H29c0-.16,0-.29,0-.42q0-7.36,0-14.72C29,.9,28.61.55,27.57.55Zm.29,15.29H1.14V1.72H27.86Z"/><path class="cls-1" d="M0,17.36v1.48c0,1.4.29,1.69,1.66,1.69H27.49a2.94,2.94,0,0,0,.53,0,1,1,0,0,0,1-.95c0-.72,0-1.45,0-2.21Zm14.86,1.76h0a.38.38,0,0,1-.21.19h0a.36.36,0,0,1-.14,0,.4.4,0,1,1,.4-.4A.39.39,0,0,1,14.86,19.12Z"/><path class="cls-1" d="M18.94,23.23a8.07,8.07,0,0,0-.86-.05l-.5-2.31H11.44l-.51,2.34a5.36,5.36,0,0,0-.84,0c-.11,0-.19.19-.28.29.09.08.17.19.28.23a1.25,1.25,0,0,0,.4,0h8.06a1,1,0,0,0,.39,0c.12-.05.19-.19.29-.29C19.13,23.38,19,23.24,18.94,23.23Z"/><path class="cls-1" d="M40.09,0H32.88a2.27,2.27,0,0,0-2.27,2.27V22.22a2.27,2.27,0,0,0,2.27,2.27h7.21a2.27,2.27,0,0,0,2.27-2.27V2.27A2.27,2.27,0,0,0,40.09,0Zm1.2,22.22a1.2,1.2,0,0,1-1.2,1.2H32.88a1.2,1.2,0,0,1-1.2-1.2V2.27a1.2,1.2,0,0,1,1.2-1.2h7.21a1.2,1.2,0,0,1,1.2,1.2Z"/><rect class="cls-1" x="33.48" y="3.9" width="6.24" height="1.38"/><rect class="cls-1" x="33.48" y="6.54" width="6.24" height="1.38"/><circle class="cls-1" cx="36.6" cy="17.82" r="0.97"/><circle class="cls-1" cx="36.6" cy="20.17" r="0.63"/><polygon class="cls-1" points="4.12 5.06 5.68 5.02 3.22 4.16 3.94 6.39 4.12 5.06"/></g></g></g></svg>