<svg xmlns="http://www.w3.org/2000/svg" viewBox="0 0 36.55 36.01"><defs><style>.cls-1{fill:#6a625e;}</style></defs><title>Asset 113</title><g id="Layer_2" data-name="Layer 2"><g id="graphic_elements" data-name="graphic elements"><g id="Layer_134" data-name="Layer 134"><path class="cls-1" d="M36.5,35.25q-1-3.87-2-7.74a1.51,1.51,0,0,0-.38-.63Q30,22.79,26,18.73a3.64,3.64,0,0,0-.37-.29l.59-.53,9.57-9.28c.49-.47.49-.61,0-1.08Q32.42,4.07,29.05.61c-.42-.44-.57-.45-1,0l-10,9.69-.3.29L15.15,7.92,8.82,1.57A5.08,5.08,0,0,0,2.75.62a4.78,4.78,0,0,0-1.27,7,6.91,6.91,0,0,0,.75.85l8.38,8.38c.1.1.22.18.35.29L6.64,21.33.3,27.5c-.39.38-.4.56,0,.95l6.79,7c.42.43.57.43,1,0L18.5,25.33l.32-.29.31.29q4.12,4.12,8.26,8.24a1.62,1.62,0,0,0,.73.41c2.56.68,5.11,1.32,7.68,2C36.43,36.12,36.66,35.88,36.5,35.25ZM22.13,7.62l2.57,2.67,1.21,1.25a.46.46,0,1,0,.65-.63c-.08-.1-.18-.18-.26-.28L23.08,7.3l-.21-.23,2.49-2.7c.16.19.23.31.33.41L28.92,8.1c.28.29.54.34.76.14s.19-.47-.11-.78L27.71,5.55,26.16,3.94l2.37-2.57L35,8.06l-10,9.66-6.56-6.56C19.67,10,20.9,8.82,22.13,7.62ZM2.46,2a3.92,3.92,0,0,1,5.32-.08c-.49.49-1,.93-1.43,1.44s-1.1.94-1.58,1.51c-.72.86-1.56,1.62-2.35,2.42A4,4,0,0,1,2.46,2ZM7.58,34.63,1.23,28.12l2.53-2.76c.12.15.19.26.28.35l3.29,3.42c.08.09.15.22.25.23s.45.07.53,0a.82.82,0,0,0,.1-.57c0-.1-.14-.19-.23-.29L4.71,25.1l-.29-.33,3.11-3,3.55,3.74c.08.09.17.24.26.26s.46.07.57,0,.09-.37.06-.57-.15-.19-.24-.29L8.46,21.41l-.28-.31,3.35-3.27,6.57,6.6ZM19.65,24.55a.56.56,0,0,1-.11-.37.47.47,0,0,0-.51-.52.63.63,0,0,1-.41-.15q-3.11-3.07-6.18-6.17c-.1-.1-.11-.29-.2-.41a1.87,1.87,0,0,0-.4-.43c-.15-.11-.37-.14-.5-.26-1.84-1.82-3.68-3.66-5.51-5.5L3.09,8,5.4,5.64,28.91,29l-2.38,2.37Q23.08,28,19.65,24.55ZM35.12,34.86c-2-.53-4-1.08-6.06-1.55a3.08,3.08,0,0,1-1.78-1.16l5.39-5.39a3,3,0,0,1,1.15,1.72c.32,1.45.73,2.88,1.11,4.33.18.69.36,1.39.54,2.12Z"/></g></g></g></svg>