<svg xmlns="http://www.w3.org/2000/svg" viewBox="0 0 32.64 36.05"><defs><style>.cls-1{fill:#6a625e;}</style></defs><title>Asset 79</title><g id="Layer_2" data-name="Layer 2"><g id="graphic_elements" data-name="graphic elements"><g id="Layer_134" data-name="Layer 134"><path class="cls-1" d="M9.34,36H2.4A2.4,2.4,0,0,1,0,33.65c0-.48,0-1,0-1.44Q0,25,0,17.73c0-.42,0-.85,0-1.27a3.79,3.79,0,0,1,.45-1.64,4.19,4.19,0,0,1,1.91-1.87,4.06,4.06,0,0,1,1.77-.41c3.48,0,7,0,10.45,0a4.17,4.17,0,0,1,3.9,3,4.48,4.48,0,0,1,.19,1.22q0,3.78,0,7.56,0,3.93,0,7.87c0,.26,0,.52,0,.78a8.78,8.78,0,0,1,0,1.07,2.3,2.3,0,0,1-1.27,1.76A2.39,2.39,0,0,1,16.2,36Zm0-3.7h5.45c.18,0,.18,0,.18-.17Q15,27.1,15,22a6.82,6.82,0,0,0-.1-1.16,5.45,5.45,0,0,0-1.75-3.15,5.52,5.52,0,0,0-3.44-1.47A5.4,5.4,0,0,0,7,16.77a5.58,5.58,0,0,0-2.39,2.12,5.21,5.21,0,0,0-.85,2.77c0,3.51,0,7,0,10.54,0,.12,0,.15.15.15Z"/><path class="cls-1" d="M32.64,31.38a2.28,2.28,0,0,1-1.55,2.11c-.71.25-1.42.52-2.13.79l-2.08.78-2.56,1c-.09,0-.13,0-.16-.07L23.07,32.4l-.85-2.79-.88-2.88L20.22,23.1c-.07-.23-.07-.23.15-.31l3.52-1.31c1-.38,2-.79,3.08-1.14a2.13,2.13,0,0,1,2.21.48,2.5,2.5,0,0,1,.7,1.27c.07.25.15.49.22.74l.9,2.93.72,2.32c.28.92.56,1.84.84,2.76A4,4,0,0,1,32.64,31.38Z"/><path class="cls-1" d="M12.81,6.47c0,.1,0,.13-.13.13H5.86V6.36q0-.85,0-1.69a.8.8,0,0,1,.79-.82H7c.12,0,.16,0,.15-.15,0-.31,0-.62,0-.93v0a.54.54,0,0,0,.22,0c.23,0,.42-.13.42-.3s-.19-.3-.42-.3a.54.54,0,0,0-.21,0c0-.3,0-.6,0-.91A.86.86,0,0,1,8,.45c.91,0,1.82,0,2.73,0a.87.87,0,0,1,.88.89c0,.78,0,1.56,0,2.34,0,.17,0,.17.17.17a1,1,0,0,1,.61.12.78.78,0,0,1,.38.68C12.81,5.26,12.81,5.86,12.81,6.47Z"/><path class="cls-1" d="M14.73,11.05H4.09c-.12,0-.15,0-.15-.15,0-.67,0-1.35,0-2a.76.76,0,0,1,.44-.71.79.79,0,0,1,.34-.08h2.5c2.21,0,4.43,0,6.64,0a.84.84,0,0,1,.86.86c0,.65,0,1.3,0,2C14.73,10.94,14.73,11,14.73,11.05Z"/><circle class="cls-1" cx="9.34" cy="25.9" r="0.66" transform="translate(-16.59 35.18) rotate(-89.87)"/><path class="cls-1" d="M13.47,21.59a3.93,3.93,0,0,0-.95-2.38,4,4,0,0,0-3.64-1.46A3.88,3.88,0,0,0,6.14,19.3a4.4,4.4,0,0,0-.95,2.8q0,4.12,0,8.24v.52h8.13c.17,0,.17,0,.17-.17q0-4.18,0-8.37C13.48,22.08,13.48,21.83,13.47,21.59ZM12.87,26a.66.66,0,0,1-.25.46,1.28,1.28,0,0,1-1.11.28c-.23,0-.44-.12-.67-.18h0l.18.09c.16.09.33.18.48.28a1.3,1.3,0,0,1,.56.92.66.66,0,0,1-.78.77,1.28,1.28,0,0,1-.9-.55c-.14-.19-.24-.41-.36-.61a.17.17,0,0,0,0-.06l0,.06a6.3,6.3,0,0,1,.19.72,1.23,1.23,0,0,1-.33,1.07.64.64,0,0,1-1,0,1.25,1.25,0,0,1-.32-.71,1.88,1.88,0,0,1,.11-.82c0-.11.07-.22.1-.33l-.12.24a2.35,2.35,0,0,1-.41.62,1.25,1.25,0,0,1-.86.39.65.65,0,0,1-.69-.73,1.24,1.24,0,0,1,.52-.93,7,7,0,0,1,.67-.39l.06,0-.46.14a1.57,1.57,0,0,1-.87,0,1.21,1.21,0,0,1-.52-.27.65.65,0,0,1,0-1,1.26,1.26,0,0,1,1.07-.28c.23,0,.46.12.69.19l.06,0h0l-.46-.25a1.49,1.49,0,0,1-.62-.6,1.12,1.12,0,0,1-.15-.6.64.64,0,0,1,.72-.63,1.3,1.3,0,0,1,1,.63c.11.17.2.35.3.53a.31.31,0,0,0,0,.07c0-.08-.06-.17-.08-.25a4.16,4.16,0,0,1-.14-.59,1.24,1.24,0,0,1,.34-1,.64.64,0,0,1,.95,0,1.22,1.22,0,0,1,.33.7,1.63,1.63,0,0,1-.07.73c0,.15-.09.31-.14.46l.1-.19c.09-.16.17-.33.28-.48a1.28,1.28,0,0,1,1-.58A.66.66,0,0,1,12,24a1.28,1.28,0,0,1-.56.92c-.2.14-.43.25-.64.37l-.06,0,.36-.12a2.07,2.07,0,0,1,.66-.12,1.3,1.3,0,0,1,.81.28A.67.67,0,0,1,12.87,26Z"/><rect class="cls-1" y="2.1" width="5.57" height="0.69" rx="0.35" ry="0.35" transform="translate(5.57 4.89) rotate(180)"/><rect class="cls-1" y="3.71" width="5.57" height="0.69" rx="0.35" ry="0.35" transform="translate(6.25 7.55) rotate(169.75)"/><rect class="cls-1" y="0.43" width="5.57" height="0.69" rx="0.35" ry="0.35" transform="translate(5.39 2.04) rotate(-169.75)"/></g></g></g></svg>