<svg xmlns="http://www.w3.org/2000/svg" viewBox="0 0 20.32 35.86"><defs><style>.cls-1{fill:#6a625e;}</style></defs><title>Asset 32</title><g id="Layer_2" data-name="Layer 2"><g id="graphic_elements" data-name="graphic elements"><g id="Layer_134" data-name="Layer 134"><path class="cls-1" d="M20.31,2.72A2.64,2.64,0,0,0,17.58,0H2.77A2.76,2.76,0,0,0,1,.54,2.69,2.69,0,0,0,0,2.8V33.07a2.62,2.62,0,0,0,2.63,2.79q7.52,0,15,0a2.55,2.55,0,0,0,1.61-.54,2.73,2.73,0,0,0,1-2.29q0-15.09,0-30.18A.76.76,0,0,0,20.31,2.72ZM16,1.65A.65.65,0,0,1,16,3a.65.65,0,0,1-.66-.64A.66.66,0,0,1,16,1.65Zm-9.31.26h7v.73h-7Zm3.48,32.55A1.87,1.87,0,1,1,12,32.59,1.86,1.86,0,0,1,10.16,34.46ZM18.33,29H2V4.44H18.33Z"/></g></g></g></svg>