<svg xmlns="http://www.w3.org/2000/svg" viewBox="0 0 36.96 35.08"><defs><style>.cls-1{fill:#6a625e;}</style></defs><title>Asset 51</title><g id="Layer_2" data-name="Layer 2"><g id="graphic_elements" data-name="graphic elements"><g id="Layer_115" data-name="Layer 115"><path class="cls-1" d="M36.94,32.61c0-.19-.19-.37-.3-.55s-.18-.21-.19-.33q-.3-4.48-.57-9-.3-4.87-.61-9.73a.33.33,0,0,1,.23-.39,1.8,1.8,0,0,0,1.13-1.71.56.56,0,0,0-.61-.65H29.65a.55.55,0,0,0-.6.63,1.79,1.79,0,0,0,1.12,1.73.36.36,0,0,1,.25.42c-.08,1.17-.15,2.34-.22,3.51L29.31,30.7c0,.42-.06.84-.09,1.27H26.9c0-.16,0-.29,0-.43q-.15-2.51-.31-5-.42-6.73-.85-13.46a.36.36,0,0,1,.25-.42,1.79,1.79,0,0,0,1.11-1.69.57.57,0,0,0-.64-.66h-6.3a.58.58,0,0,0-.65.69,1.82,1.82,0,0,0,1.11,1.66c.2.09.28.18.26.41q-.28,4.15-.53,8.29-.3,4.78-.59,9.56c0,.36-.05.72-.08,1.08H17.32c0-.61-.08-1.2-.12-1.8q-.27-4.31-.54-8.61c-.18-2.84-.35-5.67-.53-8.5a.39.39,0,0,1,.28-.44A1.77,1.77,0,0,0,17.49,11c0-.52-.18-.74-.7-.74H10.6a.61.61,0,0,0-.69.76A1.82,1.82,0,0,0,11,12.65a.33.33,0,0,1,.24.39c-.08,1.12-.14,2.25-.21,3.37q-.42,6.66-.83,13.32c0,.75-.1,1.49-.15,2.24H7.75l-.2-3.11q-.23-3.72-.47-7.45-.26-4.16-.52-8.33a.38.38,0,0,1,.27-.45,1.78,1.78,0,0,0,1.1-1.7.56.56,0,0,0-.62-.64H1A.58.58,0,0,0,.33,11a1.72,1.72,0,0,0,1,1.6c.39.18.41.41.39.76-.21,3.22-.41,6.44-.61,9.66Q.81,27.37.52,31.76a.43.43,0,0,1-.18.29.66.66,0,0,0-.32.62c0,.52,0,1,0,1.55,0,.71.15.86.87.86H36.36a.55.55,0,0,0,.59-.6C37,33.86,37,33.23,36.94,32.61Z"/><path class="cls-1" d="M1.44,8.85h17c5.58,0,11.15,0,16.73,0,1.17,0,1.86-.31,1.77-1.76a.59.59,0,0,0-.44-.64Q27.72,3.29,18.95.09a1.38,1.38,0,0,0-1,0L.73,6.36C-.11,6.67,0,6.49,0,7.41S.44,8.85,1.44,8.85ZM18.5,2.09a2.32,2.32,0,1,1-2.35,2.3A2.33,2.33,0,0,1,18.5,2.09Z"/></g></g></g></svg>