<svg xmlns="http://www.w3.org/2000/svg" viewBox="0 0 42.64 35.06"><defs><style>.cls-1{fill:#6a625e;}</style></defs><title>Asset 21</title><g id="Layer_2" data-name="Layer 2"><g id="graphic_elements" data-name="graphic elements"><g id="Layer_92" data-name="Layer 92"><path class="cls-1" d="M21.69,30a3,3,0,0,1-3.35-.12c0,.41,0,.76,0,1.12a19.68,19.68,0,0,1-.07,2.11A2.26,2.26,0,0,1,15.75,35a2.32,2.32,0,0,1-2.23-2.3c0-1.16,0-2.31,0-3.47,0-.15,0-.31,0-.49l-.37,0c-3.35,0-6.69,0-10,0a5.68,5.68,0,0,1-1.56-.2A2,2,0,0,1,.09,27a3.33,3.33,0,0,1,.09-1.86A21.66,21.66,0,0,1,9.49,13.82,26.43,26.43,0,0,1,15,11.3a1.74,1.74,0,0,1,1.46.22,3.34,3.34,0,0,1,1.8,3.28.55.55,0,0,0,.23.38l5.71,4.27,9.11,6.79a1,1,0,0,1,.51,1.05c0,.28,0,.57-.1.85-.1.53-.23.63-.78.63H26.33c0,.45,0,.88,0,1.3a5.16,5.16,0,0,1-.15,1.17,2.19,2.19,0,0,1-2.25,1.54,2.22,2.22,0,0,1-2.14-1.86C21.74,30.63,21.73,30.34,21.69,30ZM6.34,26.47H14c.57,0,.75.18.75.75,0,1.78,0,3.57,0,5.35a2.43,2.43,0,0,0,.06.59A1.06,1.06,0,0,0,16,34a1,1,0,0,0,.92-.88,2.59,2.59,0,0,0,0-.43c0-1.46,0-2.93,0-4.39,0-.4.15-.56.6-.7a.57.57,0,0,1,.71.31A7.39,7.39,0,0,0,19,28.92a1.32,1.32,0,0,0,1.71.26,5.5,5.5,0,0,0,1-1c.19-.21.35-.42.65-.32a.61.61,0,0,1,.44.66c0,.61,0,1.21,0,1.82a2.33,2.33,0,0,0,.1.68.9.9,0,0,0,.86.61.89.89,0,0,0,.85-.62,2.21,2.21,0,0,0,.11-.68c0-1.06,0-2.11,0-3.17a.81.81,0,0,1,.88-.85c1.2.05,2.4.12,3.6.16.61,0,1.22,0,1.83,0l-.19-.17-13.4-10A.37.37,0,0,0,17,16.3c-1,.49-1.95.93-2.87,1.47A18.92,18.92,0,0,0,7,25C6.77,25.44,6.58,25.94,6.34,26.47Z"/><path class="cls-1" d="M12.91,25.27a4.16,4.16,0,0,1-2.22-.65,1.46,1.46,0,0,1,0-2.61,4.64,4.64,0,0,1,4.71.06,1.45,1.45,0,0,1,0,2.58A4.39,4.39,0,0,1,12.91,25.27Z"/><path class="cls-1" d="M24.94,24.87a4.35,4.35,0,0,1-3.16.05l-.15-.06a1.12,1.12,0,0,1-.75-1,1.17,1.17,0,0,1,.75-1.08,3.6,3.6,0,0,1,3.33,0,1.16,1.16,0,0,1,.75,1.08,1.11,1.11,0,0,1-.75,1Z"/><path class="cls-1" d="M17.08,20.06a2.35,2.35,0,0,1-1.47-.49.89.89,0,0,1,0-1.52,2.78,2.78,0,0,1,3,.07.82.82,0,0,1,0,1.45A2.48,2.48,0,0,1,17.08,20.06Z"/><path class="cls-1" d="M18.07,21.09a2.69,2.69,0,0,1,1.69,0l.27.09a.76.76,0,0,1,.49.72.8.8,0,0,1-.45.72,2.29,2.29,0,0,1-2.29-.07.71.71,0,0,1,.06-1.31Z"/><path class="cls-1" d="M41.53,15.7l-1.48-1.11-2.61-2a1.8,1.8,0,0,0-1.29-.5,1.41,1.41,0,0,0-.53-.86L33,9.27A1.38,1.38,0,0,0,32,9h0a1.38,1.38,0,0,0-.53-.93l-2.68-2a1.35,1.35,0,0,0-.87-.26c.11-.24,0-.36-.24-.57l-.69-.51L25,3.26A1.3,1.3,0,0,0,24.21,3l-.65,0c-.52,0-1.06-.05-1.6-.06-.73,0-1.47,0-2.19,0h-.86a1.07,1.07,0,0,0-.41-.66l-.94-.71L16.05.41a2.06,2.06,0,0,0-2.9.43l-2.5,3.33a2.06,2.06,0,0,0,.42,3l.78.58,1.44,1.08a1.2,1.2,0,0,0,.94.32l.47,1.51,1.12,3.62a1.15,1.15,0,0,0,.45.62l1.41,1,.78.59.52.39a.38.38,0,0,0,.52,0,1.49,1.49,0,0,0,.56.81l1.77,1.33.77.58a1.45,1.45,0,0,0,1.11.29,1.49,1.49,0,0,0,.7,1.06l.68.51,1.56,1.18a1.75,1.75,0,0,0,1.23.45,1.5,1.5,0,0,0,.58.9l1.4,1.05,3,2.24a2.7,2.7,0,0,0,1.61.54,2.67,2.67,0,0,0,2.14-1.1l5.49-7.32a2.39,2.39,0,0,0,.22-.33A2.65,2.65,0,0,0,41.53,15.7Zm-.33,3.13-5.47,7.29a1.56,1.56,0,0,1-2.25.32l-3.16-2.37-1.13-.85a.38.38,0,0,1-.09-.65L32.53,18l3.39-4.52c.12-.16.22-.24.31-.25a.57.57,0,0,1,.37.15l4.27,3.2A1.55,1.55,0,0,1,41.2,18.83Zm-8.78-8.58,2.44,1.83a.47.47,0,0,1,.21.29.46.46,0,0,1-.12.33l-6.86,9.15a.37.37,0,0,1-.61.09L25,20.07a.36.36,0,0,1-.08-.58l3.45-4.6,3.41-4.55C32,10.06,32.14,10,32.42,10.25ZM30.71,9.5l-6.84,9.12c-.22.3-.37.32-.67.1l-2.41-1.81c-.28-.21-.3-.37-.09-.65l6.83-9.1a.51.51,0,0,1,.3-.23h0a.57.57,0,0,1,.32.14L30.62,8.9A.37.37,0,0,1,30.71,9.5ZM26.49,5.8,19.1,15.64l-.05,0-.39-.29L17,14.06a.45.45,0,0,1-.15-.2l-.91-2.92-.74-2.39a.23.23,0,0,1,.05-.24l1.5-2,1.65-2.19a.26.26,0,0,1,.14-.1c1,0,1.91-.06,2.74-.06s1.84,0,2.69.08a.67.67,0,0,1,.39.15l1.47,1.1ZM17.77,3.08,14.05,8,11.72,6.28a1,1,0,0,1-.2-1.42L14,1.54a1,1,0,0,1,.8-.44,1.07,1.07,0,0,1,.64.23Z"/></g></g></g></svg>