<svg xmlns="http://www.w3.org/2000/svg" viewBox="0 0 38.03 24.18"><defs><style>.cls-1{fill:#6a625e;}</style></defs><title>Asset 54</title><g id="Layer_2" data-name="Layer 2"><g id="graphic_elements" data-name="graphic elements"><g id="Layer_134" data-name="Layer 134"><path class="cls-1" d="M38,7.05v6.84H34.6V10.54H26.54v7.37a6.15,6.15,0,0,1-6.21,6.26c-3.93,0-7.85,0-11.78,0A6.13,6.13,0,0,1,2.32,18c0-2.34,0-4.68,0-7V10.5h-2c-.2,0-.33,0-.33-.27,0-1,0-2.06,0-3.15H2.3V6c.36.21.65.41,1,.56A13.7,13.7,0,0,0,7.4,7.72a45,45,0,0,0,14.79-.13,12.37,12.37,0,0,0,3.47-1.07c.28-.15.54-.32.88-.53V7.05h8.92V5.79H25.77a7.36,7.36,0,0,1-2.35.93,33.58,33.58,0,0,1-7.85.94,39.55,39.55,0,0,1-9.15-.72,20.89,20.89,0,0,1-2.79-.86,3.1,3.1,0,0,1-.94-.59.83.83,0,0,1,0-1.41,7.14,7.14,0,0,1,1.77-.93A24.4,24.4,0,0,1,10.83,2c.64,0,1.28-.08,2-.11a1.77,1.77,0,0,0,.63,1.73A2.18,2.18,0,0,0,14.5,4c.92,0,1.35-.56,1.6-2.09,1,.07,2,.12,2.94.22a22.45,22.45,0,0,1,5.39,1,7.62,7.62,0,0,1,1.32.63H37.17v2h-.81V7.05Z"/><path class="cls-1" d="M15.46,1.74c0,.24,0,.47,0,.71a1,1,0,0,1-2.06.06,13,13,0,0,1,0-1.58A1,1,0,0,1,15.46,1c0,.25,0,.5,0,.75Z"/></g></g></g></svg>