<svg xmlns="http://www.w3.org/2000/svg" viewBox="0 0 40.12 14.28"><defs><style>.cls-1{fill:#6a625e;}</style></defs><title>Asset 25</title><g id="Layer_2" data-name="Layer 2"><g id="graphic_elements" data-name="graphic elements"><g id="Layer_134" data-name="Layer 134"><path class="cls-1" d="M40.12,12.48a.66.66,0,0,0-.39.78c0,.33,0,.67,0,1H20.95V12.72H19.19v1.56H.39c0-.44,0-.87,0-1.3,0-.1,0-.26-.07-.28-.37-.16-.31-.47-.31-.77s0-.78,0-1.18c0-.59.07-.66.69-.67s1,0,1.45,0A.8.8,0,0,0,2.81,9a.85.85,0,0,0-.86-.55H.54C.18,8.42,0,8.27,0,7.9s0-.81,0-1.21.16-.5.51-.49.94,0,1.41,0a.9.9,0,0,0,.9-.57A.79.79,0,0,0,2.2,4.56,13.49,13.49,0,0,0,.64,4.5C.08,4.49,0,4.42,0,3.87Q0,2.26,0,.66C0,.08.08,0,.66,0H39.39c.27,0,.56,0,.73.26v4a1.8,1.8,0,0,1-.54.24c-.43,0-.86,0-1.29,0a1.62,1.62,0,0,0-.6.13.77.77,0,0,0-.4.89.82.82,0,0,0,.85.67c.48,0,1,0,1.45,0a1.73,1.73,0,0,1,.53.24V8.17a2.16,2.16,0,0,1-.58.23c-.44,0-.89,0-1.33,0a.86.86,0,0,0-.95.83.85.85,0,0,0,.92.85c.43,0,.86,0,1.29,0a3.1,3.1,0,0,1,.65.19ZM34.46,2.81H5.68V9.33H34.46ZM1.84,12.33v1.32h.89V12.33ZM4.6,13.66V12.33H3.71v1.33Zm1-1.33v1.33h.88V12.33Zm2.76,1.32V12.34H7.46v1.32Zm1.88,0V12.35H9.34v1.32Zm1.87-1.32h-.89v1.31h.89ZM14,13.66V12.34h-.88v1.33Zm2.87-1.33v1.33h.86V12.33Zm5.57,1.32h.89V12.34h-.89Zm3.75-1.32v1.32H27V12.33Zm2.75,1.33V12.34H28v1.32Zm1,0h.88V12.34H29.9Zm2.77-1.32h-.9v1.31h.9Zm1.87,1.32V12.35h-.89v1.32Zm1.89-1.32h-.9v1.3h.9Zm1.87,1.31V12.34h-.9v1.32ZM15.84,12.35H15v1.31h.88Zm9.34,0H24.3v1.31h.88Z"/><path class="cls-1" d="M15.31,8.34H13.85L12.76,6.82H12.3V8.34H11V3.65h2.29a1.64,1.64,0,0,1,1.82,1.61,1.41,1.41,0,0,1-1,1.41l1.22,1.58Zm-3-3.63V5.83h1a.49.49,0,0,0,.5-.54.53.53,0,0,0-.52-.58Z"/><path class="cls-1" d="M20.48,7.57H18.38l-.31.77H16.67l2.1-4.68h1.34L22.2,8.34H20.79Zm-1-2.6-.6,1.49H20Z"/><path class="cls-1" d="M27.83,5.54,26.63,7H26.4L25.23,5.55V8.34H23.92V3.65H25.3l1.23,1.59,1.23-1.59h1.38V8.34H27.83Z"/></g></g></g></svg>