<svg xmlns="http://www.w3.org/2000/svg" viewBox="0 0 15.34 35.71"><defs><style>.cls-1{fill:#6a625e;}</style></defs><title>Asset 42</title><g id="Layer_2" data-name="Layer 2"><g id="graphic_elements" data-name="graphic elements"><g id="Layer_134" data-name="Layer 134"><path class="cls-1" d="M15.34,1.3A1.24,1.24,0,0,0,14,0H1.3A1.25,1.25,0,0,0,0,1.32C0,2.94,0,4.58,0,6.21V7.33H15.34V5.64Q15.34,3.46,15.34,1.3ZM1.38,6a.48.48,0,0,1-.47.5A.47.47,0,0,1,.45,6V2.63A.45.45,0,0,1,.9,2.16a.45.45,0,0,1,.48.47c0,.06,0,.12,0,.18Z"/><path class="cls-1" d="M0,8.08v6.63q0,9.82,0,19.64A1.25,1.25,0,0,0,1.36,35.7H14a1.31,1.31,0,0,0,1.32-1.31V8.08Zm.45,2a.69.69,0,0,1,0-.2.43.43,0,0,1,.38-.33H1a.44.44,0,0,1,.34.32.65.65,0,0,1,0,.19c0,.63,0,1.25,0,1.87h0c0,.62,0,1.25,0,1.87a.65.65,0,0,1,0,.19.43.43,0,0,1-.37.32H.86A.44.44,0,0,1,.48,14a.66.66,0,0,1,0-.19ZM7.7,18.45A1.61,1.61,0,0,1,6,20.11H2.13A1.61,1.61,0,0,1,.45,18.44V16a1.6,1.6,0,0,1,1.67-1.68H6A1.61,1.61,0,0,1,7.7,16C7.7,16.8,7.7,17.6,7.7,18.45Z"/><path class="cls-1" d="M6,15.3H2.13a.68.68,0,0,0-.75.74c0,.72,0,1.48,0,2.41a.68.68,0,0,0,.74.74H6a.68.68,0,0,0,.74-.75V16A.69.69,0,0,0,6,15.3Zm-.61,3.16a.46.46,0,0,1,0,.18.44.44,0,0,1-.38.24H4.91a.41.41,0,0,1-.4-.25.46.46,0,0,1,0-.18V16a.45.45,0,0,1,0-.18.41.41,0,0,1,.4-.25H5a.43.43,0,0,1,.36.24.46.46,0,0,1,0,.18c0,.41,0,.81,0,1.22S5.41,18.06,5.41,18.46Z"/></g></g></g></svg>