<svg xmlns="http://www.w3.org/2000/svg" viewBox="0 0 37.58 31.31"><defs><style>.cls-1{fill:#6a625e;}</style></defs><title>Asset 50</title><g id="Layer_2" data-name="Layer 2"><g id="graphic_elements" data-name="graphic elements"><g id="Layer_134" data-name="Layer 134"><path class="cls-1" d="M18.83,10q8.79,0,17.58,0c.72,0,1.18.23,1.18,1a.85.85,0,0,1-.87,1c-.51,0-1,0-1.54,0-.88,0-1.17.31-1.18,1.2q0,5.36,0,10.72a5.24,5.24,0,0,1-4.28,5.51,1.07,1.07,0,0,0-1,1,1,1,0,0,1-2,0c-.09-.7-.53-1-1.19-1H12.1a1.14,1.14,0,0,0-1.33,1,1.23,1.23,0,0,1-.94.72,1.22,1.22,0,0,1-.94-.72A1.34,1.34,0,0,0,7.72,29.4,5.17,5.17,0,0,1,3.6,24.12c0-3.57,0-7.15,0-10.72,0-1.12-.29-1.4-1.42-1.4H1.06c-.64,0-1-.26-1.06-.95s.39-1,1.08-1H18.83Zm3.64,12.65c0-1.06,0-2.11,0-3.17,0-.84-.37-1.2-1.2-1.21q-2.49,0-5,0c-.81,0-1.18.4-1.19,1.24q0,3.13,0,6.26c0,.89.37,1.25,1.25,1.26q2.4,0,4.8,0c1,0,1.31-.38,1.31-1.37S22.47,23.69,22.47,22.69Z"/><path class="cls-1" d="M18.87,18.82c.83,0,1.66,0,2.49,0,.48,0,.68.19.67.66,0,.8,0,1.6,0,2.4,0,.48-.2.67-.67.67-1.72,0-3.43,0-5.15,0-.46,0-.68-.16-.66-.65,0-.77,0-1.54,0-2.32,0-.55.17-.78.74-.75.86,0,1.72,0,2.57,0Z"/><path class="cls-1" d="M17.11,23.93a1,1,0,0,1-.15,2,.88.88,0,0,1-.94-1C16,24.31,16.36,23.95,17.11,23.93Z"/><path class="cls-1" d="M20.68,23.93a1,1,0,0,1-.15,2,.88.88,0,0,1-.94-1C19.59,24.31,19.93,23.95,20.68,23.93Z"/><path class="cls-1" d="M34,9.36H3.9a6.18,6.18,0,0,1,.38-.59A5.41,5.41,0,0,1,6.11,7.3C6.66,7,7.24,6.83,7.8,6.58A.48.48,0,0,0,8,6.32,11.68,11.68,0,0,1,9.42,3.57,6.76,6.76,0,0,1,13.28.77a21.63,21.63,0,0,1,8-.67,12.24,12.24,0,0,1,4.1,1,7.87,7.87,0,0,1,4.35,5.1.56.56,0,0,0,.43.43,7.87,7.87,0,0,1,3.15,1.84A7.35,7.35,0,0,1,34,9.36ZM26.72,6c0-.11,0-.15,0-.19l-.06-.2a5.14,5.14,0,0,0-3.85-3.49,16,16,0,0,0-7.67,0,4.66,4.66,0,0,0-2.14,1,6.91,6.91,0,0,0-1.78,2.7.73.73,0,0,0,0,.19A63,63,0,0,1,26.72,6Z"/></g></g></g></svg>