<svg xmlns="http://www.w3.org/2000/svg" viewBox="0 0 37.51 21.27"><defs><style>.cls-1{fill:#6a625e;}</style></defs><title>Asset 118</title><g id="Layer_2" data-name="Layer 2"><g id="graphic_elements" data-name="graphic elements"><g id="Layer_134" data-name="Layer 134"><path class="cls-1" d="M22.78,5.17l-.09,0a.16.16,0,0,1,0-.22c.14-.22.29-.43.44-.65a6,6,0,0,0-.7-.26.16.16,0,0,1,.09-.31,6,6,0,0,1,.93.36l.17.09-.11.15c-.19.26-.38.52-.55.79A.16.16,0,0,1,22.78,5.17Z"/><path class="cls-1" d="M20,3.6h0a16.37,16.37,0,0,0-2.42,0,.16.16,0,0,1-.17-.15.16.16,0,0,1,.15-.17,16.71,16.71,0,0,1,2.47,0,.16.16,0,0,1,0,.32Z"/><path class="cls-1" d="M14.7,5.18a.16.16,0,0,1-.14-.09l-.44-.87L14,4.07,14.2,4a7.66,7.66,0,0,1,.94-.32.16.16,0,0,1,.09.31,7.69,7.69,0,0,0-.74.24l.36.71a.16.16,0,0,1-.07.22Z"/><path class="cls-1" d="M12,21.25a.16.16,0,0,1,0-.32,4.8,4.8,0,0,0,1.72-.57.16.16,0,1,1,.16.28,5.12,5.12,0,0,1-1.84.61Zm-1.87-.1h0a5.2,5.2,0,0,1-1.76-.8.16.16,0,0,1,.19-.26,4.88,4.88,0,0,0,1.65.75.16.16,0,0,1,0,.32Zm5.1-1.68a.16.16,0,0,1-.12-.27,5.46,5.46,0,0,0,.64-1c.1-.2.2-.41.29-.61a.16.16,0,0,1,.3.12c-.09.22-.19.43-.3.64a5.81,5.81,0,0,1-.68,1A.16.16,0,0,1,15.23,19.46ZM7.1,19A.16.16,0,0,1,7,19l-.09-.13a7.54,7.54,0,0,1-.8-1.58.16.16,0,1,1,.3-.11,7.22,7.22,0,0,0,.77,1.51l.08.12A.16.16,0,0,1,7.1,19Zm9.62-3h0a.16.16,0,0,1-.12-.19A15.22,15.22,0,0,0,16.83,14a.16.16,0,1,1,.32,0,15.53,15.53,0,0,1-.29,1.88A.16.16,0,0,1,16.71,16ZM5.77,15.54a.16.16,0,0,1-.16-.14c0-.27-.07-.56-.09-.85s0-.71,0-1.05a.16.16,0,0,1,.16-.16h0a.16.16,0,0,1,.16.16c0,.34,0,.69,0,1s0,.56.08.82a.16.16,0,0,1-.14.18ZM17,12.29a.16.16,0,0,1-.16-.15,12.49,12.49,0,0,0-.23-1.85.16.16,0,0,1,.32-.06,12.82,12.82,0,0,1,.24,1.89.16.16,0,0,1-.15.17ZM5.71,11.77h0a.16.16,0,0,1-.15-.18,15.62,15.62,0,0,1,.28-1.89.16.16,0,0,1,.32.07,15.25,15.25,0,0,0-.27,1.85A.16.16,0,0,1,5.71,11.77ZM16.28,8.6a.16.16,0,0,1-.15-.11c-.19-.52-.43-1.09-.73-1.72a.16.16,0,0,1,.29-.14c.31.64.55,1.22.74,1.75a.16.16,0,0,1-.1.21ZM6.51,8.1H6.45a.16.16,0,0,1-.1-.21,12.31,12.31,0,0,1,.79-1.74.16.16,0,0,1,.28.16A12,12,0,0,0,6.66,8,.16.16,0,0,1,6.51,8.1Z"/><path class="cls-1" d="M8.34,4.8a.16.16,0,0,1-.13-.26c.16-.2.33-.41.5-.6A3,3,0,0,0,8,3.68a.16.16,0,0,1,.08-.31,3.29,3.29,0,0,1,.93.4l.16.1L9.09,4c-.22.24-.43.48-.62.73A.16.16,0,0,1,8.34,4.8Z"/><path class="cls-1" d="M2.31,7.29A.16.16,0,0,1,2.24,7,2.49,2.49,0,0,0,3.18,6l.22-.34a.16.16,0,0,1,.27.18l-.22.33A2.79,2.79,0,0,1,2.38,7.28ZM.62,7a.16.16,0,0,1-.11,0A1.62,1.62,0,0,1,0,5.72a2.36,2.36,0,0,1,.1-.67.16.16,0,1,1,.31.09,2,2,0,0,0-.09.57,1.29,1.29,0,0,0,.4,1A.16.16,0,0,1,.62,7Zm4-2.44a.16.16,0,0,1-.11-.28l.17-.15a3.51,3.51,0,0,1,1.5-.75.16.16,0,1,1,.07.32,3.18,3.18,0,0,0-1.37.68l-.16.14A.16.16,0,0,1,4.66,4.52ZM1.1,3.63A.16.16,0,0,1,1,3.38,8.07,8.07,0,0,1,2.18,2a.16.16,0,1,1,.22.24A7.75,7.75,0,0,0,1.23,3.56.16.16,0,0,1,1.1,3.63ZM3.78,1.18A.16.16,0,0,1,3.7.88,7,7,0,0,1,5.46.23a.16.16,0,0,1,.07.32,6.64,6.64,0,0,0-1.68.62ZM9.13.7h0A7.31,7.31,0,0,0,7.31.39a.16.16,0,0,1,0-.32A7.63,7.63,0,0,1,9.17.39a.16.16,0,0,1,0,.32Z"/><path class="cls-1" d="M11.62,2l-.07-.05-.49-.32-.32-.19a.16.16,0,0,1,.16-.28l.33.19.43.28.82-.34a.16.16,0,1,1,.12.3l-.89.37Z"/><path class="cls-1" d="M14.23,1a.16.16,0,0,1,0-.32A17.81,17.81,0,0,1,15.94.26.16.16,0,0,1,16,.58,17.45,17.45,0,0,0,14.27,1ZM23.06.91h0A16.14,16.14,0,0,0,21.29.52.16.16,0,0,1,21.34.2,16.48,16.48,0,0,1,23.1.59a.16.16,0,0,1,0,.32ZM17.74.36a.16.16,0,0,1,0-.32,15.81,15.81,0,0,1,1.81,0,.16.16,0,1,1,0,.32,15.38,15.38,0,0,0-1.77,0Z"/><path class="cls-1" d="M25.64,1.87l-.06,0-.89-.38a.16.16,0,0,1,.12-.3l.84.35.83-.34a.16.16,0,0,1,.13.3l-.9.37Z"/><path class="cls-1" d="M35.21,7.34h-.06a2,2,0,0,1-1-.84L33.89,6l0-.06a.16.16,0,0,1,.28-.17l0,.06.3.49a1.69,1.69,0,0,0,.8.72.16.16,0,0,1-.06.31Zm1.71-.41a.16.16,0,0,1-.11-.28,1.25,1.25,0,0,0,.39-.91,1.69,1.69,0,0,0-.13-.62.16.16,0,0,1,.3-.12,2,2,0,0,1,.15.74A1.56,1.56,0,0,1,37,6.88.16.16,0,0,1,36.92,6.93Zm-4-2.4a.16.16,0,0,1-.11,0,3.42,3.42,0,0,0-1.54-.83.16.16,0,0,1,.07-.31A3.74,3.74,0,0,1,33,4.25a.16.16,0,0,1-.11.28Zm3.46-.94a.16.16,0,0,1-.13-.07A8.14,8.14,0,0,0,35,2.15a.16.16,0,0,1,.22-.24,8.46,8.46,0,0,1,1.23,1.43.16.16,0,0,1-.13.25Zm-2.7-2.47-.08,0a6.14,6.14,0,0,0-1.69-.6.16.16,0,1,1,.06-.32,6.47,6.47,0,0,1,1.78.64.16.16,0,0,1-.08.3ZM28.27.8a.16.16,0,0,1-.05-.32,8.52,8.52,0,0,1,1.2-.32l.64-.09a.16.16,0,0,1,0,.32l-.61.08a8.19,8.19,0,0,0-1.15.31Z"/><path class="cls-1" d="M29.17,4.82A.16.16,0,0,1,29,4.76c-.19-.25-.4-.5-.62-.73l-.14-.15.18-.1a4.49,4.49,0,0,1,.93-.38.16.16,0,0,1,.09.31,4.09,4.09,0,0,0-.68.26c.17.19.34.39.49.59a.16.16,0,0,1-.13.26Z"/><path class="cls-1" d="M25.47,21.27h0a5.22,5.22,0,0,1-1.54-.46l-.3-.15a.16.16,0,1,1,.16-.28l.28.14a4.89,4.89,0,0,0,1.44.43.16.16,0,0,1,0,.32Zm1.87-.11a.16.16,0,0,1,0-.32A5,5,0,0,0,29,20.08a.16.16,0,1,1,.19.26,5.32,5.32,0,0,1-1.76.81Zm-5.1-1.68a.16.16,0,0,1-.12-.06,6.09,6.09,0,0,1-1-1.66.16.16,0,0,1,.3-.12,5.76,5.76,0,0,0,.92,1.58.16.16,0,0,1-.12.27Zm8.14-.43a.16.16,0,0,1-.13-.26,5.91,5.91,0,0,0,.67-1.21l.16-.42a.16.16,0,1,1,.3.11l-.17.44A6.25,6.25,0,0,1,30.51,19,.16.16,0,0,1,30.38,19.05Zm-9.58-3a.16.16,0,0,1-.16-.13A18,18,0,0,1,20.38,14a.16.16,0,1,1,.32,0A17.62,17.62,0,0,0,21,15.85a.16.16,0,0,1-.13.19Zm10.92-.49h0a.16.16,0,0,1-.13-.19,12.18,12.18,0,0,0,.16-1.85.16.16,0,0,1,.16-.16h0a.16.16,0,0,1,.16.16,12.5,12.5,0,0,1-.17,1.9A.16.16,0,0,1,31.71,15.55Zm-11.2-3.27h0a.16.16,0,0,1-.15-.17,14.63,14.63,0,0,1,.2-1.9.16.16,0,1,1,.32.06,14.31,14.31,0,0,0-.2,1.85A.16.16,0,0,1,20.51,12.29Zm11.28-.5a.16.16,0,0,1-.16-.15c0-.35-.08-.71-.14-1.08s-.09-.52-.14-.77a.16.16,0,1,1,.32-.07c.05.26.1.53.15.79s.11.74.14,1.09a.16.16,0,0,1-.14.18ZM21.16,8.58h0a.16.16,0,0,1-.1-.2,14.11,14.11,0,0,1,.7-1.77.16.16,0,1,1,.29.14,13.78,13.78,0,0,0-.69,1.73A.16.16,0,0,1,21.16,8.58ZM31,8.11A.16.16,0,0,1,30.83,8a12.19,12.19,0,0,0-.77-1.7.16.16,0,1,1,.28-.16,12.51,12.51,0,0,1,.79,1.74.16.16,0,0,1-.1.21Z"/><path class="cls-1" d="M25.49,6.93l-.09,0a.16.16,0,0,1,0-.22c.18-.27.37-.54.57-.8L26,5.72l.23.28.52.63a.16.16,0,0,1-.26.2l-.48-.59c-.15.2-.3.41-.43.62A.16.16,0,0,1,25.49,6.93Z"/><path class="cls-1" d="M25.28,17.86l-.08,0a2.33,2.33,0,0,1-.8-.8,4.68,4.68,0,0,1-.4-.83.16.16,0,0,1,.3-.11,4.36,4.36,0,0,0,.37.77,2,2,0,0,0,.69.69.16.16,0,0,1-.08.3Zm1.85-.07a.16.16,0,0,1-.09-.3,2,2,0,0,0,.48-.46,3.85,3.85,0,0,0,.56-1,.16.16,0,0,1,.31.11,4.19,4.19,0,0,1-.61,1.13,2.38,2.38,0,0,1-.56.53A.16.16,0,0,1,27.13,17.79Zm-3.37-3.39a.16.16,0,0,1-.16-.15c0-.29,0-.57,0-.78s0-.4,0-.59,0-.41,0-.6a.16.16,0,0,1,.16-.15h0a.16.16,0,0,1,.15.17c0,.19,0,.39,0,.59s0,.38,0,.57,0,.49,0,.77a.16.16,0,0,1-.15.17Zm4.84-.11h0a.16.16,0,0,1-.14-.18A11.33,11.33,0,0,0,28.5,13c0-.25,0-.51,0-.76a.16.16,0,0,1,.15-.17.16.16,0,0,1,.17.15c0,.26,0,.52,0,.78a11.7,11.7,0,0,1-.06,1.2A.16.16,0,0,1,28.6,14.3ZM24,10.52h0a.16.16,0,0,1-.12-.19,10.81,10.81,0,0,1,.61-1.89.16.16,0,1,1,.3.13,10.47,10.47,0,0,0-.59,1.83A.16.16,0,0,1,24,10.52Zm4.35-.1a.16.16,0,0,1-.16-.12,10.92,10.92,0,0,0-.65-1.81.16.16,0,0,1,.29-.13,11.24,11.24,0,0,1,.67,1.87.16.16,0,0,1-.12.2Z"/><path class="cls-1" d="M12,6.92a.16.16,0,0,1-.13-.07c-.14-.21-.3-.42-.46-.63a6.7,6.7,0,0,0-.49.59.16.16,0,1,1-.26-.19,6.91,6.91,0,0,1,.65-.75l.13-.13.11.14c.21.26.41.52.59.79a.16.16,0,0,1-.13.25Z"/><path class="cls-1" d="M12.22,17.9a.16.16,0,0,1-.07-.31,1.86,1.86,0,0,0,.95-1.37l0-.08a.16.16,0,0,1,.32.07l0,.08a2.17,2.17,0,0,1-1.13,1.59Zm-1.88-.11-.08,0a2.83,2.83,0,0,1-1.08-1.44l-.08-.22A.16.16,0,0,1,9.4,16l.08.21a2.53,2.53,0,0,0,1,1.29.16.16,0,0,1-.09.3Zm3.26-3.38h0a.16.16,0,0,1-.14-.18,16,16,0,0,0,.12-1.89v0a.16.16,0,0,1,.32,0v0a16.26,16.26,0,0,1-.12,1.93A.16.16,0,0,1,13.6,14.41ZM8.85,14.3a.16.16,0,0,1-.16-.15c0-.3,0-.6,0-.91s0-.71.05-1.07a.16.16,0,0,1,.32,0c0,.35,0,.7,0,1s0,.6,0,.89a.16.16,0,0,1-.15.18Zm4.7-3.79a.16.16,0,0,1-.16-.13,9.26,9.26,0,0,0-.57-1.84.16.16,0,0,1,.3-.13,9.59,9.59,0,0,1,.59,1.9.16.16,0,0,1-.13.19Zm-4.35-.09h0a.16.16,0,0,1-.12-.2,11.81,11.81,0,0,1,.65-1.87.16.16,0,0,1,.3.13,11.47,11.47,0,0,0-.63,1.82A.16.16,0,0,1,9.19,10.42Z"/><path class="cls-1" d="M11.58,2.52a15.77,15.77,0,0,1,14-.13A24.79,24.79,0,0,1,29.56,1c3.58-.66,6.1,2,7,4.32a.88.88,0,0,1-.52,1.26.92.92,0,0,1-1.22-.49,11.33,11.33,0,0,0-1.42-2,4.37,4.37,0,0,0-5.92-.21A11.65,11.65,0,0,1,31,10.65a12.35,12.35,0,0,1-.54,6.75,4.59,4.59,0,0,1-6.22,2.67,5.08,5.08,0,0,1-2.72-3.8A13.86,13.86,0,0,1,24.28,4C22.16,2.37,16,2.33,13.39,3.85a51.79,51.79,0,0,1,2.35,5,12.86,12.86,0,0,1,.13,7.72A7,7,0,0,1,15.31,18a4.45,4.45,0,0,1-7.77.38A7.75,7.75,0,0,1,6.34,14.5c-.26-4,.58-7.71,3.58-10.65A4.21,4.21,0,0,0,4.4,3.72,9.24,9.24,0,0,0,2.77,5.78c-.47.73-.89,1-1.46.72S.66,5.68,1,4.89A6.56,6.56,0,0,1,10.8,2C11.07,2.18,11.34,2.36,11.58,2.52ZM26.05,5a11.72,11.72,0,0,0-3,8.54,7.65,7.65,0,0,0,.92,3.8,2.46,2.46,0,0,0,4.18.23,4.51,4.51,0,0,0,.8-1.65,11.65,11.65,0,0,0-1.18-8.65A20.36,20.36,0,0,0,26.05,5Zm-14.54.11c-.21.18-.36.29-.49.42a11.45,11.45,0,0,0-2.3,11,2.8,2.8,0,0,0,2.78,2.05,2.48,2.48,0,0,0,2.39-2.16,18.46,18.46,0,0,0,.47-4.62A10.49,10.49,0,0,0,11.51,5.07Z"/></g></g></g></svg>