<svg xmlns="http://www.w3.org/2000/svg" viewBox="0 0 15.01 36.43"><defs><style>.cls-1{fill:#6a625e;}</style></defs><title>Asset 69</title><g id="Layer_2" data-name="Layer 2"><g id="graphic_elements" data-name="graphic elements"><g id="Layer_134" data-name="Layer 134"><path class="cls-1" d="M4.32,24.4a.59.59,0,0,0-.27,0H3.92v.59H4c.27,0,.4-.09.4-.29A.28.28,0,0,0,4.32,24.4Zm0,0a.59.59,0,0,0-.27,0H3.92v.59H4c.27,0,.4-.09.4-.29A.28.28,0,0,0,4.32,24.4Zm8.18-3.67a2.22,2.22,0,0,1-1.82-1.79c0-.17-.1-.2-.25-.2h-6a2.32,2.32,0,0,1-2,2v9.55a2.31,2.31,0,0,1,2,2H10.5c.12,0,.15,0,.17-.15a2.22,2.22,0,0,1,1.71-1.82l.28-.06V20.77ZM5.63,26.56H4.74l-.81-1.35v.72h.21v.62H2.75v-.62H3V24.36H2.75v-.62H4.47a1.12,1.12,0,0,1,.61.12.77.77,0,0,1,.33.69.7.7,0,0,1-.48.7l.51.69h.18ZM8.4,24.36h0a.22.22,0,0,0-.17.08.68.68,0,0,0-.06.34v.69a2.16,2.16,0,0,1,0,.39.81.81,0,0,1-.17.35,1.1,1.1,0,0,1-.91.42,1,1,0,0,1-1.1-1.13V24.36H5.71v-.62H7.17v.62H6.9v1c0,.18,0,.3,0,.35a.33.33,0,0,0,0,.14.34.34,0,0,0,.6,0,.71.71,0,0,0,0-.31v-.73a2,2,0,0,0,0-.25.2.2,0,0,0-.22-.17h0v-.62H8.4Zm4,0h-.27v1.58h.27v.62H11v-.62h.21V24.82l-.62,1.74h-.47l-.73-1.74v.7a1.14,1.14,0,0,0,0,.24.18.18,0,0,0,.05.1.22.22,0,0,0,.16.06h0v.62H8.56v-.62h0a.2.2,0,0,0,.17-.08.66.66,0,0,0,.06-.33V24.36H8.6v-.62H9.92l.57,1.37L11,23.74h1.43ZM4,24.36H3.92v.59H4c.27,0,.4-.09.4-.29a.28.28,0,0,0-.12-.25A.59.59,0,0,0,4,24.36Zm.27,0a.59.59,0,0,0-.27,0H3.92v.59H4c.27,0,.4-.09.4-.29A.28.28,0,0,0,4.32,24.4Zm0,0a.59.59,0,0,0-.27,0H3.92v.59H4c.27,0,.4-.09.4-.29A.28.28,0,0,0,4.32,24.4Z"/><path class="cls-1" d="M15,19.58a5.76,5.76,0,0,0-.15-1.33,6.76,6.76,0,0,0-3.29-4.52,4.08,4.08,0,0,1-.79-.58A3.3,3.3,0,0,1,9.68,10.8c0-.22,0-.43,0-.64H5.41c0,.13,0,.25,0,.37a5.28,5.28,0,0,1-.05.74,3.53,3.53,0,0,1-1.74,2.41A6.74,6.74,0,0,0,0,19.77c-.05,4.7,0,9.4,0,14.1a1.13,1.13,0,0,0,.35.9,4.6,4.6,0,0,0,.91.66,7.46,7.46,0,0,0,2.37.73c.71.12,1.42.2,2,.27H9.32l.55,0a13.46,13.46,0,0,0,3.2-.66,4,4,0,0,0,1.53-.86,1.28,1.28,0,0,0,.4-1C15,29.13,15,24.36,15,19.58Zm-12.32-4c.8-.57,1.67-.71,1.95-.32S4.48,16.46,3.68,17s-1.67.71-1.95.32S1.88,16.18,2.68,15.61ZM13.13,30.4c0,.34,0,.38-.37.4a1.78,1.78,0,0,0-1.65,1.69c0,.28-.08.33-.35.33H4.3c-.3,0-.34,0-.37-.34A1.77,1.77,0,0,0,2.21,30.8c-.23,0-.29-.09-.29-.36,0-2.07,0-4.13,0-6.2,0-1.18,0-2.37,0-3.56,0-.32,0-.37.36-.39a1.77,1.77,0,0,0,1.64-1.56l0-.14c0-.25.08-.3.33-.3H10.8c.23,0,.3.07.31.3a1.78,1.78,0,0,0,1.72,1.71c.24,0,.3.09.3.33,0,1,0,2,0,2.94Z"/><path class="cls-1" d="M8.93.14C8.62.09,8.31,0,8,0H6.9c-.27,0-.54.08-.8.14s-.38.09-.33.47c0,0,0,.06,0,.09.1.85.2,1.7.3,2.56H8.94c0-.06,0-.11,0-.16.1-.83.2-1.65.3-2.48C9.32.23,9.32.22,8.93.14ZM6,1.82,5.84.75a.51.51,0,0,1,.59.43A.52.52,0,0,1,6,1.82Zm1.17.81a.31.31,0,0,1,0-.62.32.32,0,0,1,.31.32A.31.31,0,0,1,7.15,2.63ZM7.52,1.1A.22.22,0,0,1,7.3.87.22.22,0,0,1,7.52.63a.25.25,0,0,1,.25.24A.24.24,0,0,1,7.52,1.1ZM9,2.43a.21.21,0,0,1-.13.12.48.48,0,0,1-.51-.48.49.49,0,0,1,.59-.49c.09,0,.15.06.13.17S9,2.21,9,2.43Z"/><path class="cls-1" d="M9.36,5.81c.28-.06.35-.25.34-.5s0-.49,0-.73c0-.4,0-.47-.44-.55L9.2,3.42H5.84c0,.11,0,.21,0,.31s0,.2,0,.3c-.42.08-.47.14-.47.56,0,.24,0,.49,0,.73a.42.42,0,0,0,.35.5L5.4,10H9.63c0-.73-.09-1.41-.13-2.11S9.41,6.52,9.36,5.81Zm-3-2H8.71c.06,0,.17.06.17.1s-.1.11-.18.11H6.33c-.06,0-.13-.07-.19-.1A.6.6,0,0,1,6.34,3.86ZM9.13,6A.41.41,0,0,1,9,6.06H6.1c-.09,0-.2,0-.19-.12s.13-.1.2-.1H8.95a.35.35,0,0,1,.17,0S9.14,6,9.13,6Z"/></g></g></g></svg>