<svg xmlns="http://www.w3.org/2000/svg" viewBox="0 0 39.13 29.37"><defs><style>.cls-1{fill:#6a625e;}</style></defs><title>Asset 103</title><g id="Layer_2" data-name="Layer 2"><g id="graphic_elements" data-name="graphic elements"><g id="Layer_134" data-name="Layer 134"><path class="cls-1" d="M27.73,19.58l-3-1.68c-.53.92-1.08,1.8-1.54,2.73A3.09,3.09,0,0,1,21,22.34c-2.4.59-4.77,1.31-7.16,1.95a1.93,1.93,0,0,1-2.53-2.24c.12-1,.8-1.36,1.62-1.58,2.07-.57,4.14-1.14,6.22-1.69a1.45,1.45,0,0,0,1-.76c1.37-2.47,2.78-4.92,4.17-7.37.08-.14.15-.28.28-.54l-4,1.07c-.69.19-1.38.39-2.07.57a1.47,1.47,0,0,1-1.89-1.07,1.46,1.46,0,0,1,1-1.91c2.15-.62,4.32-1.21,6.48-1.8.65-.18,1.29-.35,1.94-.54a2,2,0,0,1,1.72.22q2.58,1.51,5.2,2.94a1.48,1.48,0,0,0,1,.12c1.06-.24,2.1-.57,3.15-.84a1.48,1.48,0,0,1,1.87,1,1.47,1.47,0,0,1-1,2c-1.44.43-2.88.85-4.34,1.19a2.28,2.28,0,0,1-1.25-.21A13.9,13.9,0,0,1,30.92,12l-2.09,3.67,2.43,1.4A1.93,1.93,0,0,1,32,20q-2.35,4.18-4.73,8.33a2,2,0,1,1-3.4-1.93c1.08-1.94,2.19-3.87,3.28-5.8Z"/><path class="cls-1" d="M28.21,3.65a3.68,3.68,0,0,1,7.36,0,3.68,3.68,0,1,1-7.36,0Z"/><rect class="cls-1" x="3.8" y="5.35" width="13.22" height="1.26" rx="0.63" ry="0.63"/><rect class="cls-1" y="9.45" width="13.22" height="1.26" rx="0.63" ry="0.63"/><rect class="cls-1" x="3.34" y="13.05" width="13.22" height="1.26" rx="0.63" ry="0.63"/></g></g></g></svg>