<svg xmlns="http://www.w3.org/2000/svg" viewBox="0 0 37.49 38.94"><defs><style>.cls-1{fill:#6a625e;}</style></defs><title>Asset 28</title><g id="Layer_2" data-name="Layer 2"><g id="graphic_elements" data-name="graphic elements"><g id="Layer_98" data-name="Layer 98"><path class="cls-1" d="M22.39,9.77A28.13,28.13,0,0,1,20.84.06h.94a28.14,28.14,0,0,0,1.53,9.4A3.83,3.83,0,0,1,27,10.85c.23.26.51.48.74.75a.46.46,0,0,0,.63.12A12.76,12.76,0,0,0,36,2.83c.24-.91.38-1.85.58-2.83l.9.08c-.64,5.77-3.33,10.06-8.75,12.49l.17.27a3.67,3.67,0,0,1,0,4.12.76.76,0,0,0-.11.54,6.2,6.2,0,0,1-1.69,6.29L13.93,37a6.23,6.23,0,0,1-9.09,0L1.92,34a6.22,6.22,0,0,1,0-9L15.15,11.82a6.16,6.16,0,0,1,6.29-1.67C21.71,10.22,21.71,10.22,22.39,9.77ZM19.16,20.23l2-2-.68-.74-2,2-.94-.91,2.16-2.15-.64-.62-2.92,2.92,4,4,3-3-.65-.65-1.1,1.13-1.13,1.15ZM7.95,29.3l.75-.84A1.66,1.66,0,0,0,7.33,28a3,3,0,0,0-2.21,2.22A1.48,1.48,0,0,0,6.8,31.86a3.6,3.6,0,0,0,1.05-.38c.39-.19.74-.46,1.14-.62a.81.81,0,0,1,.69,0,.91.91,0,0,1,.22.71,1.31,1.31,0,0,1-1.84.93l-.26-.12-.69.86a2.08,2.08,0,0,0,1.69.53,3.24,3.24,0,0,0,2.26-2.26,1.71,1.71,0,0,0-2.34-1.86,11.06,11.06,0,0,0-1,.52,6.09,6.09,0,0,1-.86.43.61.61,0,0,1-.54-.07A.69.69,0,0,1,6.23,30,1.18,1.18,0,0,1,7.95,29.3Zm4.14,1.77a9.5,9.5,0,0,0,.65-.76.57.57,0,0,0,.07-.44c-.12-.35-.44-.72-.38-1s.48-.55.74-.82.49-.66.79-.72.68.23,1,.35a.52.52,0,0,0,.39,0c.29-.21.55-.46.87-.74l-5-2.16c-.8-.34-.8-.33-1.44.3a.42.42,0,0,0-.11.56c.37.81.73,1.63,1.08,2.44Zm4.68-6.19-3.35-3.37-.79.76,4,4,2.78-2.74-.63-.72Zm7.47-12a1.29,1.29,0,0,0,0,1.71,1.35,1.35,0,0,0,1.73.25,1.24,1.24,0,0,0,.52-1.51C25.68,13.47,24.79,14,24.24,12.87Z"/><path class="cls-1" d="M10.93,25.81l2.06.94-1.13,1Z"/></g></g></g></svg>