<svg xmlns="http://www.w3.org/2000/svg" viewBox="0 0 29.78 35.52"><defs><style>.cls-1{fill:#6a625e;}</style></defs><title>Asset 114</title><g id="Layer_2" data-name="Layer 2"><g id="graphic_elements" data-name="graphic elements"><g id="Layer_134" data-name="Layer 134"><path class="cls-1" d="M17.87,16.53H18c.2,0,.39,0,.59,0s.32.12.33.35c0,0,0,.09,0,.13q0,2.49,0,5a1.49,1.49,0,0,1,0,.21.27.27,0,0,1-.25.25H11.15a.3.3,0,0,1-.3-.33c0-.07,0-.14,0-.22q0-2.43,0-4.86a1.75,1.75,0,0,1,0-.24.28.28,0,0,1,.29-.28l.63,0H12s0-.06,0-.08c0-.5,0-1,0-1.49a2.91,2.91,0,0,1,1.18-2.31,2.6,2.6,0,0,1,1.22-.49,3.21,3.21,0,0,1,1.7.19,2.94,2.94,0,0,1,1.7,2,3.45,3.45,0,0,1,0,.67c0,.5,0,1,0,1.49Zm-4.69,0h3.53v0c0-.57,0-1.14,0-1.71a1.51,1.51,0,0,0-.79-1.29,1.93,1.93,0,0,0-1.46-.2,1.49,1.49,0,0,0-1.17,1.06,2.63,2.63,0,0,0-.1.76c0,.36,0,.72,0,1.08C13.18,16.28,13.18,16.39,13.18,16.51Zm2.58,4.58V21l-.34-1.63a.09.09,0,0,1,0-.09.73.73,0,0,0,.22-.5.75.75,0,0,0-1.4-.41.74.74,0,0,0,.11.91.09.09,0,0,1,0,.09l-.28,1.36-.07.35Z"/><path class="cls-1" d="M29.74,11.44a39.55,39.55,0,0,1-.28,6.93A22.56,22.56,0,0,1,27.16,26a17.94,17.94,0,0,1-6.07,6.64,24.69,24.69,0,0,1-5.72,2.77,1.5,1.5,0,0,1-.91,0,22.87,22.87,0,0,1-8.24-4.72,18.18,18.18,0,0,1-5.16-8.6,27.33,27.33,0,0,1-1-6.88C0,12.32,0,9.38,0,6.44A1.25,1.25,0,0,1,1.36,5.16C2.25,5.11,3.14,5.09,4,5A16.28,16.28,0,0,0,13.55.77L14,.39a1.27,1.27,0,0,1,1.83,0c.78.65,1.54,1.33,2.37,1.91a15.49,15.49,0,0,0,7,2.62c1,.13,2.07.18,3.11.23s1.48.48,1.48,1.5C29.74,8.24,29.74,9.84,29.74,11.44ZM2.51,7.66c0,.14,0,.25,0,.37,0,1.49,0,3-.05,4.48a35,35,0,0,0,.77,8.13A15.81,15.81,0,0,0,8,29a20.25,20.25,0,0,0,6.76,3.93.51.51,0,0,0,.36,0c1.3-.61,2.63-1.14,3.87-1.85a15.26,15.26,0,0,0,6.2-6.51,21.23,21.23,0,0,0,2.05-8.67c.12-2.62,0-5.25.05-7.88,0-.11,0-.22,0-.33-.89-.1-1.75-.18-2.61-.3A18.08,18.08,0,0,1,15.22,3.2a.43.43,0,0,0-.68,0A18.11,18.11,0,0,1,5.15,7.35C4.29,7.47,3.41,7.55,2.51,7.66Z"/></g></g></g></svg>