<svg xmlns="http://www.w3.org/2000/svg" viewBox="0 0 48.59 37.25"><defs><style>.cls-1{fill:#6a625e;}</style></defs><title>Asset 38</title><g id="Layer_2" data-name="Layer 2"><g id="graphic_elements" data-name="graphic elements"><g id="Layer_116" data-name="Layer 116"><path class="cls-1" d="M48.26,21.44a10.19,10.19,0,0,0-.55-1.69A1.39,1.39,0,0,0,46,18.82a11.89,11.89,0,0,0-1.77.52c-.47.18-.93.37-1.4.56l-.09,0c-.76.31-1.54.64-2.32.89a8.2,8.2,0,0,1-2.45.4,3.79,3.79,0,0,1-3.19-1.92,16.65,16.65,0,0,1-1.14-2,2,2,0,0,0-1.4-1.14,2,2,0,0,0-1.72.55,66.35,66.35,0,0,1-8.42,6.58,13.52,13.52,0,0,1-4.24,1.59l-.66.16a25.77,25.77,0,0,0-4.51,1.39,7.93,7.93,0,0,0-4,3.42,7.24,7.24,0,0,0-.84,3.55,2.15,2.15,0,0,0,1.74,2.2,16.07,16.07,0,0,0,2.86.51c2.28.18,4.57.26,7,.26,1.2,0,2.47,0,3.76-.07a18.81,18.81,0,0,0,6.46-1.11c.82-.33,1.7-.73,2.68-1.23A6.42,6.42,0,0,1,36,33.08v1.56c0,1.18.5,1.69,1.68,1.69h8.44a1.66,1.66,0,0,0,1.29-.43,1.55,1.55,0,0,0,.34-1.24,22.49,22.49,0,0,1,.39-4.81l0-.11c.05-.33.1-.66.15-1A21.28,21.28,0,0,0,48.26,21.44Zm-2.89,8.9H42.81c-1.71,0-3.43,0-5.15,0-.91,0-1.84.07-2.67.13l-.59,0a8.85,8.85,0,0,0-3.72,1.3A15.49,15.49,0,0,1,23,33.62c-3.34,0-6.72-.07-9.88-.16a13.29,13.29,0,0,1-1.94-.25l-.11,0-.59-.1a4,4,0,0,1,1.61-3.27,6.65,6.65,0,0,1,1.71-1c1.48-.51,3-1,4.63-1.38a15.32,15.32,0,0,0,5.45-2.2c1.93-1.41,3.8-2.81,5.56-4.17.62-.48,1.23-1,1.84-1.51l.35-.29.07.12c.27.46.54.95.86,1.4a6.8,6.8,0,0,0,4.27,3,8.07,8.07,0,0,0,4.32-.39c.89-.3,1.76-.66,2.65-1l1.23-.5.54-.2A22.87,22.87,0,0,1,45.37,30.34Zm-.28,2.72v.59h-6.4v-.59Z"/><path class="cls-1" d="M7.16,33.37c0-.17,0-.34,0-.51l0-.58L5.86,33.43a13.75,13.75,0,0,1-1.64,1.13L3.54,35c-.1.07-.12.06-.2,0a4.27,4.27,0,0,1-1.11-3.79,6.82,6.82,0,0,1,.64-1.95c.76-1.37,1.61-2.77,2.53-4.14a15.15,15.15,0,0,0,2.54-5.19c.48-2.29.93-4.59,1.34-6.81.15-.79.25-1.58.35-2.35l.1-.74.43.14c.5.16,1,.33,1.55.46a6.55,6.55,0,0,0,5-.61,7.8,7.8,0,0,0,2.86-3.08c.46-.83.87-1.69,1.28-2.53l.58-1.19.31-.6.09-.18a23.15,23.15,0,0,1,6,7l-1.93,1.74c-1.32,1.18-2.64,2.37-3.94,3.57-.65.59-1.27,1.23-1.87,1.85l-.42.44a8.64,8.64,0,0,0-1.84,3.36,14.2,14.2,0,0,1-2,3.8l-.41.56.68-.17.83-.21.79-.19.74-.19.1,0,.05-.1.26-.51c.38-.79.76-1.66,1.16-2.68a7,7,0,0,1,2.38-3.33l1.22,1.35c.7.78,1.25.81,2,.12l6.27-5.65a1.44,1.44,0,0,0,.59-1,1.33,1.33,0,0,0-.5-1,22.79,22.79,0,0,1-3-3.89l-.6-.91A21,21,0,0,0,23.57,1a9.94,9.94,0,0,0-1.5-.86,1.14,1.14,0,0,0-1.56.37,11.73,11.73,0,0,0-.95,1.54c-.24.47-.46.94-.69,1.41-.36.75-.73,1.53-1.15,2.25a8.35,8.35,0,0,1-1.57,2,4,4,0,0,1-3.91.78A16.77,16.77,0,0,1,10,7.72,1.65,1.65,0,0,0,7.63,9.16,66.7,66.7,0,0,1,5.76,19.73a13.71,13.71,0,0,1-2.12,4.09l-.38.56a25.5,25.5,0,0,0-2.4,4,7.69,7.69,0,0,0-.68,5.06,6.91,6.91,0,0,0,1.69,3.08,1.92,1.92,0,0,0,1.43.7,2.27,2.27,0,0,0,1-.27,16,16,0,0,0,2.43-1.52l.6-.47.16-.12-.08-.18A3.11,3.11,0,0,1,7.16,33.37ZM24,15.85l5.13-4.62.73.81-5.13,4.62Z"/></g></g></g></svg>