<svg xmlns="http://www.w3.org/2000/svg" viewBox="0 0 36.8 31.48"><defs><style>.cls-1{fill:#6a625e;}</style></defs><title>Asset 116</title><g id="Layer_2" data-name="Layer 2"><g id="graphic_elements" data-name="graphic elements"><g id="Layer_134" data-name="Layer 134"><path class="cls-1" d="M16.24,0h0Z"/><path class="cls-1" d="M0,4A5.78,5.78,0,0,1,.58,2.83a2,2,0,0,1,2.06-.76A22.66,22.66,0,0,0,10,2.45,23.64,23.64,0,0,0,15.87.89a1.84,1.84,0,0,1,1.46,0,2.38,2.38,0,0,1,1.55,2.15c.21,2.66.51,5.32.58,8A15.43,15.43,0,0,1,16,21.37a7.71,7.71,0,0,1-3.77,2.7,5.71,5.71,0,0,1-4.53-.63,12.88,12.88,0,0,1-4.89-5A17.15,17.15,0,0,1,.57,11C.41,9.06.23,7.11.06,5.17A1.13,1.13,0,0,0,0,5Zm15.31,11.1a6,6,0,0,1-4.71,2.33,5.91,5.91,0,0,1-5-1.51,3.73,3.73,0,0,0,1.07,2.33,5.09,5.09,0,0,0,4.79,1.37,4.81,4.81,0,0,0,3.43-2.42A3.53,3.53,0,0,0,15.31,15.06Zm-1.54-4.5,0-.09a2.64,2.64,0,0,0,1.81-.66,1,1,0,0,0-.16-1.58,2.78,2.78,0,0,0-3.14.28.93.93,0,0,0,.14,1.57A7.5,7.5,0,0,0,13.77,10.56Zm-7.89.61a2.4,2.4,0,0,0,1.76-.71A.92.92,0,0,0,7.54,9a2.72,2.72,0,0,0-3.33.29.93.93,0,0,0,.14,1.44A2.36,2.36,0,0,0,5.88,11.17Z"/><path class="cls-1" d="M36.8,12.08c-.07.76-.13,1.52-.22,2.28-.26,2.14-.38,4.3-.82,6.4a15.16,15.16,0,0,1-5.29,8.82,8,8,0,0,1-4,1.83,6.22,6.22,0,0,1-5-1.55,13.17,13.17,0,0,1-4-6.09c-.18-.51-.32-1-.44-1.55a.64.64,0,0,1,.09-.45c.22-.35.48-.68.74-1,.16.66.29,1.3.48,1.93a12.73,12.73,0,0,0,3.74,6.18,5.61,5.61,0,0,0,3,1.43,5.57,5.57,0,0,0,3.81-1,12.77,12.77,0,0,0,4.36-5A16.57,16.57,0,0,0,35.08,18l.55-6A1.85,1.85,0,0,0,34.44,9.8a1.09,1.09,0,0,0-.52,0,25.33,25.33,0,0,1-6.32.52,23.16,23.16,0,0,1-6.89-1.6.34.34,0,0,1-.19-.22c0-.35-.05-.71-.08-1.11l.4.14a20.36,20.36,0,0,0,9,1.62,30.33,30.33,0,0,0,3.63-.47,2.53,2.53,0,0,1,2.61.93A7.05,7.05,0,0,1,36.8,11Z"/><path class="cls-1" d="M30.38,25.64A5.62,5.62,0,0,0,26,23.45a5.57,5.57,0,0,0-4.7,1.39c0-2.11,2.31-3.72,4.93-3.55C28.62,21.45,30.61,23.49,30.38,25.64Z"/><path class="cls-1" d="M22.92,17.4a3.2,3.2,0,0,1-1.6-.57,1,1,0,0,1,.13-1.71,2.74,2.74,0,0,1,2.75.23A1,1,0,0,1,24,17.06,7,7,0,0,1,22.92,17.4Z"/><path class="cls-1" d="M30.59,18.07A3,3,0,0,1,29,17.48a1,1,0,0,1,.14-1.69,2.72,2.72,0,0,1,2.78.24.93.93,0,0,1-.15,1.68A6.74,6.74,0,0,1,30.59,18.07Z"/></g></g></g></svg>