<svg xmlns="http://www.w3.org/2000/svg" viewBox="0 0 27.92 36.27"><defs><style>.cls-1{fill:#6a625e;}</style></defs><title>Asset 87</title><g id="Layer_2" data-name="Layer 2"><g id="graphic_elements" data-name="graphic elements"><g id="Layer_134" data-name="Layer 134"><path class="cls-1" d="M19.31,9.91H15v-.1c.34-.35,1.33-1.28,1.52-1.48s.5-.47.74-.7l.51.5a.77.77,0,1,0,1.09-1.07Q17.93,6.12,17,5.2a.76.76,0,0,0-1.09,0,.77.77,0,0,0,0,1.09l.23.25L15,7.67V7.16h0c0-1.25,0-2.5,0-3.75A3.53,3.53,0,0,0,10.42.16,4.75,4.75,0,0,0,7.76,2.65.69.69,0,0,0,7.71,3a.75.75,0,0,0,.59.66.77.77,0,0,0,.84-.39A4.36,4.36,0,0,1,10.23,2a1.8,1.8,0,0,1,2.06-.22A1.89,1.89,0,0,1,13.4,3.54q0,1.92,0,3.85c0,.07,0,.13,0,.2l-.06,0-1-1.18a1.21,1.21,0,0,0,.19-.15A.77.77,0,1,0,11.4,5.23L9.6,7a.77.77,0,1,0,1.08,1.09c.16-.16.31-.33.47-.5.49.47,1.74,1.75,2.25,2.25v.07H0V36.27H2.12V34.16h23.7v2.1h2.1V9.91ZM2.13,12.09H25.78V15.4H2.13ZM12.87,31.73V32H2.14V17.57H12.87Zm12.92,0V32H15V17.58H25.79Z"/><path class="cls-1" d="M12.35,18H2.63V31.55h9.73Zm-1.94,3.84H8.51v-1.9h1.9Z"/><path class="cls-1" d="M25.3,18.1H15.57V31.64H25.3Zm-5.89,3.83h-1.9V20h1.9Z"/><rect class="cls-1" x="2.67" y="12.62" width="22.58" height="2.24"/></g></g></g></svg>