<svg xmlns="http://www.w3.org/2000/svg" viewBox="0 0 35.31 35.31"><defs><style>.cls-1{fill:#6a625e;}</style></defs><title>Asset 95</title><g id="Layer_2" data-name="Layer 2"><g id="graphic_elements" data-name="graphic elements"><g id="Layer_134" data-name="Layer 134"><path class="cls-1" d="M17.64,0A17.66,17.66,0,1,1,0,17.68,17.66,17.66,0,0,1,17.64,0Zm-.69,9.18c0-.79,0-1.59,0-2.38a.71.71,0,0,0-.21-.48q-2.24-1.86-4.52-3.67a.6.6,0,0,0-.5-.09,15.85,15.85,0,0,0-6.79,5A.56.56,0,0,0,4.86,8q1,2.56,2,5.1a.77.77,0,0,0,.37.38c1.58.68,3.16,1.34,4.74,2a.52.52,0,0,0,.63-.1c1.37-1.13,2.76-2.25,4.13-3.38a.77.77,0,0,0,.24-.51C17,10.77,16.95,10,16.95,9.18Zm6.41-6.73-.27.19c-1.5,1.21-3,2.43-4.48,3.65a.75.75,0,0,0-.24.51q0,2.38,0,4.77a.7.7,0,0,0,.22.47q2.07,1.72,4.18,3.4a.63.63,0,0,0,.53.08q2.42-1,4.83-2a.83.83,0,0,0,.39-.42q1-2.48,1.92-5a.65.65,0,0,0-.09-.54,16.1,16.1,0,0,0-6.63-5ZM33.84,19.06c0-.32.18-.63-.24-.89-1.63-1-3.24-2.08-4.86-3.11a.7.7,0,0,0-.55-.05q-2.18.89-4.34,1.84a.81.81,0,0,0-.41.44q-.85,2.83-1.64,5.67a.6.6,0,0,0,.12.49q1.45,1.54,2.94,3a.89.89,0,0,0,.53.23l5.15.29a.59.59,0,0,0,.61-.3A16.28,16.28,0,0,0,33.84,19.06ZM4.88,27c1.66-.09,3.28-.17,4.89-.27a1,1,0,0,0,.56-.27c1-1,2-2.07,3-3.1a.51.51,0,0,0,.15-.58c-.54-1.81-1.06-3.63-1.6-5.45a.76.76,0,0,0-.38-.42q-2.2-1-4.42-1.88a.69.69,0,0,0-.55,0Q4.11,16.62,1.7,18.21a.64.64,0,0,0-.25.48,16.18,16.18,0,0,0,2.62,7.89C4.29,26.91,4.51,27.13,4.88,27Zm12.71-3c-.87,0-1.74,0-2.6,0a.78.78,0,0,0-.5.19q-1.43,1.44-2.82,2.92a.56.56,0,0,0-.12.45q.69,2.69,1.42,5.36a.56.56,0,0,0,.32.34,15.84,15.84,0,0,0,8.7,0,.56.56,0,0,0,.34-.33q.72-2.61,1.39-5.23a.62.62,0,0,0-.13-.5q-1.43-1.53-2.91-3a.78.78,0,0,0-.49-.21C19.32,24,18.45,24,17.59,24Z"/></g></g></g></svg>