<svg xmlns="http://www.w3.org/2000/svg" viewBox="0 0 40.07 25.76"><defs><style>.cls-1{fill:#6a625e;}</style></defs><title>Asset 31</title><g id="Layer_2" data-name="Layer 2"><g id="graphic_elements" data-name="graphic elements"><g id="Layer_89" data-name="Layer 89"><path class="cls-1" d="M29.15,5.44q0-2,0-4.1A1.32,1.32,0,0,1,30.5,0h8.18A1.32,1.32,0,0,1,40,1.36q0,4,0,8.09a1.37,1.37,0,0,1-1.44,1.43H30.49a1.32,1.32,0,0,1-1.34-1.34Q29.15,7.5,29.15,5.44Zm5.6,4.1A4.61,4.61,0,0,0,37,8.93,4.28,4.28,0,0,0,39,4,4.49,4.49,0,0,0,32.94,1.2a4.29,4.29,0,0,0-2.24,6,.66.66,0,0,1,0,.55l-.66,1.88a.58.58,0,0,0,0,.11h.12L32.39,9a.3.3,0,0,1,.24,0A4.83,4.83,0,0,0,34.75,9.54Z"/><path class="cls-1" d="M31.15,8.69c.13-.37.23-.73.38-1.06a.48.48,0,0,0,0-.52,3.5,3.5,0,0,1-.56-2.17,3.36,3.36,0,0,1,1.44-2.61,3.64,3.64,0,0,1,1.86-.75,3.73,3.73,0,0,1,3.33,1.25,3.38,3.38,0,0,1,.87,1.64,3.55,3.55,0,0,1-1.09,3.35,3.83,3.83,0,0,1-4.62.48.26.26,0,0,0-.24,0ZM37,6.32c0-.06-.05-.14-.1-.17L36,5.72a.21.21,0,0,0-.28.08l-.28.34a.2.2,0,0,1-.27.07,5.73,5.73,0,0,1-.64-.34A2.61,2.61,0,0,1,33.69,5a.15.15,0,0,1,0-.2,1.14,1.14,0,0,0,.18-.22c.05-.09.13-.22.1-.29-.12-.33-.27-.65-.42-1a.19.19,0,0,0-.11-.08.71.71,0,0,0-.85.44,1.35,1.35,0,0,0-.06.76,2.84,2.84,0,0,0,.52,1.08,4.19,4.19,0,0,0,2.45,1.7,1.32,1.32,0,0,0,.92-.09A.89.89,0,0,0,37,6.32Z"/><path class="cls-1" d="M9.53,14.87H1.35A1.32,1.32,0,0,0,0,16.21v8.2a1.32,1.32,0,0,0,1.34,1.34H9.46a1.37,1.37,0,0,0,1.44-1.43q0-4,0-8.09A1.32,1.32,0,0,0,9.53,14.87Zm-1,7.37a1.42,1.42,0,0,1-.31.21l-.23.1-.08,0a.66.66,0,0,1-.56.42H7a1.36,1.36,0,0,0-.53.18,2.31,2.31,0,0,1-.74.3l-.3,0a1.74,1.74,0,0,1-.81-.21l0,0A2.38,2.38,0,0,0,4,23l-.35,0A.68.68,0,0,1,3,22.58l0,0-.06,0-.16-.06h0a1.45,1.45,0,0,1-.3-.17.56.56,0,0,1,.05-1l.19-.11.1-.05a1.48,1.48,0,0,0,.56-.55h0A2.72,2.72,0,0,1,3,20.37a.73.73,0,0,1-.2-.85.69.69,0,0,1,.66-.42v-.05l0-.14c0-.11,0-.23.05-.35a1.86,1.86,0,0,1,1.58-1.44l.36,0a2.2,2.2,0,0,1,.74.13A1.86,1.86,0,0,1,7.44,19v.15h0a.71.71,0,0,1,.65.45.69.69,0,0,1-.21.79l-.3.23-.06,0a1.54,1.54,0,0,0,.65.61l.24.14a.55.55,0,0,1,.25.42A.54.54,0,0,1,8.52,22.24Z"/><path class="cls-1" d="M3.9,19.11c0-.15,0-.31.06-.46a1.4,1.4,0,0,1,1.2-1.07,1.82,1.82,0,0,1,.88.08A1.39,1.39,0,0,1,7,19c0,.1,0,.21,0,.31a.27.27,0,0,0,.27.27h.2a.25.25,0,0,1,.24.16.23.23,0,0,1-.08.27l-.34.26a.39.39,0,0,0-.13.58,2,2,0,0,0,.85.8l.19.12a.08.08,0,0,1,0,.13A1,1,0,0,1,8,22l-.29.11a.4.4,0,0,0-.24.24.2.2,0,0,1-.18.14l-.33,0a1.83,1.83,0,0,0-.71.24,1.87,1.87,0,0,1-.59.24,1.25,1.25,0,0,1-.82-.13,2.9,2.9,0,0,0-.79-.32,3.31,3.31,0,0,0-.41,0,.23.23,0,0,1-.23-.14.5.5,0,0,0-.29-.26l-.2-.07a1.11,1.11,0,0,1-.22-.12c-.1-.08-.09-.14,0-.21L3,21.58a1.94,1.94,0,0,0,.73-.73.41.41,0,0,0-.16-.63,2.29,2.29,0,0,1-.28-.2.26.26,0,0,1-.08-.32.25.25,0,0,1,.27-.14h.15a.27.27,0,0,0,.28-.27c0-.06,0-.12,0-.18Z"/><path class="cls-1" d="M34,19.33l1.71,1L34,21.3Z"/><path class="cls-1" d="M38.7,14.87H30.52a1.32,1.32,0,0,0-1.35,1.35v8.2a1.32,1.32,0,0,0,1.34,1.34h8.12a1.37,1.37,0,0,0,1.44-1.43q0-4,0-8.09A1.32,1.32,0,0,0,38.7,14.87Zm-.81,6.41v.05c0,.18,0,.37-.09.55a.78.78,0,0,1-.6.6,4.43,4.43,0,0,1-.86.09l-1.15,0H34.12l-1.12,0a8,8,0,0,1-.85-.08.78.78,0,0,1-.67-.63,5,5,0,0,1-.11-.93l0-.36v-.51s0,0,0-.05c0-.17,0-.34,0-.52a3.86,3.86,0,0,1,.1-.75.8.8,0,0,1,.6-.6,4.31,4.31,0,0,1,.85-.09l1.15,0h1.08l.9,0c.33,0,.67,0,1,.08a.8.8,0,0,1,.72.62,2.35,2.35,0,0,1,.06.28c0,.1,0,.2,0,.31Z"/><path class="cls-1" d="M24,14.87H15.86a1.32,1.32,0,0,0-1.35,1.35v8.2a1.32,1.32,0,0,0,1.34,1.34H24a1.37,1.37,0,0,0,1.44-1.43q0-4,0-8.09A1.32,1.32,0,0,0,24,14.87Zm-7.15,7.9-.11-.07a2.9,2.9,0,0,0,2-.59,1.42,1.42,0,0,1-.79-.28,1.36,1.36,0,0,1-.48-.67H18v0a1.39,1.39,0,0,1-.76-.49,1.3,1.3,0,0,1-.29-.83l.56.16,0,0a1.4,1.4,0,0,1-.4-1.81A3.91,3.91,0,0,0,20,19.55,3.37,3.37,0,0,1,20,19,1.28,1.28,0,0,1,20.87,18a1.31,1.31,0,0,1,1.36.27.19.19,0,0,0,.21.05l.72-.26a1.37,1.37,0,0,1-.53.69v0l.68-.19,0,0a4.51,4.51,0,0,1-.46.48.52.52,0,0,0-.21.46,3.86,3.86,0,0,1-5.79,3.26Z"/><path class="cls-1" d="M24.09,0H15.91a1.32,1.32,0,0,0-1.35,1.35v8.2a1.32,1.32,0,0,0,1.34,1.34H24a1.37,1.37,0,0,0,1.43-1.43V1.36A1.32,1.32,0,0,0,24.09,0Zm-.25,8.27a1,1,0,0,1-1,1H17.12a.93.93,0,0,1-.94-.94V2.56a.93.93,0,0,1,.95-.95h5.75a.93.93,0,0,1,1,1Z"/><path class="cls-1" d="M21.37,4.29l-.11,1.16H20.4V8.36H19.24V5.45h-.58V4.29h.58c0-.06,0-.11,0-.15a5.56,5.56,0,0,1,0-.69,1,1,0,0,1,1-.9c.36,0,.72,0,1.1,0v.82c0,.17,0,.17-.16.17h-.47a.25.25,0,0,0-.28.27c0,.1,0,.2,0,.31s0,.12,0,.18Z"/><path class="cls-1" d="M6.64,5.45a1.2,1.2,0,1,1-1.16-1.2A1.19,1.19,0,0,1,6.64,5.45Z"/><path class="cls-1" d="M8.39,4.7a7.27,7.27,0,0,0-.05-1,1.24,1.24,0,0,0-1-1.09,4.32,4.32,0,0,0-.83-.06H5a10.72,10.72,0,0,0-1.23,0,1.4,1.4,0,0,0-.63.22,1.24,1.24,0,0,0-.53.83,4.16,4.16,0,0,0-.06.79c0,.76,0,1.53,0,2.29a3.06,3.06,0,0,0,.06.66,1.2,1.2,0,0,0,.78.93,2.15,2.15,0,0,0,.71.11l1.37,0H6.56a3.66,3.66,0,0,0,.77-.07,1.21,1.21,0,0,0,1-1,3.93,3.93,0,0,0,.07-.88C8.39,5.88,8.39,5.29,8.39,4.7ZM5.45,7.29A1.84,1.84,0,1,1,7.29,5.48,1.84,1.84,0,0,1,5.45,7.29ZM7.35,4a.43.43,0,1,1,.45-.43A.43.43,0,0,1,7.35,4Z"/><path class="cls-1" d="M9.53,0H1.35A1.32,1.32,0,0,0,0,1.35v8.2a1.32,1.32,0,0,0,1.34,1.34H9.46a1.37,1.37,0,0,0,1.44-1.43q0-4,0-8.09A1.32,1.32,0,0,0,9.53,0ZM9,6.55a4.26,4.26,0,0,1-.08.93A1.84,1.84,0,0,1,7.56,8.92a3.26,3.26,0,0,1-.82.1L5.45,9H4.32a4.24,4.24,0,0,1-.93-.09A1.85,1.85,0,0,1,2.16,8a2.1,2.1,0,0,1-.26-.82,11.85,11.85,0,0,1,0-1.32c0-.48,0-1,0-1.45a5.75,5.75,0,0,1,.06-.92,1.89,1.89,0,0,1,.84-1.32,1.91,1.91,0,0,1,.91-.31c.38,0,.76,0,1.14,0H6.47a5.1,5.1,0,0,1,.95.07,1.86,1.86,0,0,1,1.32.92,2.17,2.17,0,0,1,.26.9c0,.48,0,1,0,1.45S9,6.1,9,6.55Z"/></g></g></g></svg>