<svg xmlns="http://www.w3.org/2000/svg" viewBox="0 0 36.92 31.12"><defs><style>.cls-1{fill:#6a625e;}</style></defs><title>Asset 18</title><g id="Layer_2" data-name="Layer 2"><g id="graphic_elements" data-name="graphic elements"><g id="Layer_134" data-name="Layer 134"><path class="cls-1" d="M11.28,26v2.39c.51,0,1,0,1.5,0a1.4,1.4,0,0,1,1.47,1.35,1.36,1.36,0,0,1-1.52,1.37q-4.66,0-9.32,0A1.31,1.31,0,0,1,2,29.77,1.35,1.35,0,0,1,3.4,28.39c.42,0,.85,0,1.34,0V26c-.41-.09-.85-.16-1.28-.29A4.78,4.78,0,0,1,0,21.09C0,15.7,0,10.32,0,4.93A4.68,4.68,0,0,1,5,.09Q8.18,0,11.35.09a4.88,4.88,0,0,1,4.92,4.52,24.14,24.14,0,0,1,.06,2.56q0,6.45,0,12.91C16.33,23.63,14.87,25.36,11.28,26Zm1.87-12.83a4.92,4.92,0,0,0-5-5A5.12,5.12,0,0,0,3,13.22a5.15,5.15,0,0,0,5.09,5A5.12,5.12,0,0,0,13.15,13.16Z"/><path class="cls-1" d="M10.41,13.2a2.31,2.31,0,0,1-2.32,2.33,2.35,2.35,0,0,1-2.31-2.36A2.31,2.31,0,0,1,8.08,10.9,2.28,2.28,0,0,1,10.41,13.2Z"/><path class="cls-1" d="M31.87,25.93v2.39c.51,0,1,0,1.5,0a1.4,1.4,0,0,1,1.47,1.35A1.36,1.36,0,0,1,33.33,31q-4.66,0-9.32,0a1.31,1.31,0,0,1-1.44-1.34A1.35,1.35,0,0,1,24,28.32c.42,0,.85,0,1.34,0V25.94c-.41-.09-.85-.16-1.28-.29A4.78,4.78,0,0,1,20.64,21c-.06-5.39-.07-10.77,0-16.16a4.68,4.68,0,0,1,5-4.84Q28.78,0,31.94,0a4.88,4.88,0,0,1,4.92,4.52,24.14,24.14,0,0,1,.06,2.56q0,6.45,0,12.91C36.92,23.57,35.46,25.3,31.87,25.93ZM33.74,13.1a4.92,4.92,0,0,0-5-5,5.12,5.12,0,0,0-5.06,5.06,5.05,5.05,0,1,0,10.1-.06Z"/><path class="cls-1" d="M31,13.13a2.31,2.31,0,0,1-2.32,2.33,2.35,2.35,0,0,1-2.31-2.36,2.31,2.31,0,0,1,2.29-2.27A2.28,2.28,0,0,1,31,13.13Z"/></g></g></g></svg>