<svg xmlns="http://www.w3.org/2000/svg" viewBox="0 0 27.17 35.04"><defs><style>.cls-1{fill:#6a625e;}</style></defs><title>Asset 112</title><g id="Layer_2" data-name="Layer 2"><g id="graphic_elements" data-name="graphic elements"><g id="Layer_134" data-name="Layer 134"><path class="cls-1" d="M23.8,3.79A14.67,14.67,0,0,0,12.43,0,13.65,13.65,0,0,0,2.51,4.7,9.35,9.35,0,0,0,.42,13.86l.31,1.08h.7a3,3,0,0,1,1.5.41l.48-.06c.52,0,1-.07,1.52-.08l.63,0,1.6-.08v.12h.13a2,2,0,0,1,.8.15h0c2,.15,2.61.82,2.61,2.77a2.08,2.08,0,0,1-1.55,2.36,5.63,5.63,0,0,0,.68,1.64A1.89,1.89,0,0,1,10,23.72v0l-.28,1.8L8,25H8a2.92,2.92,0,0,1-.39-.11c0,.08,0,.16,0,.24a4.32,4.32,0,0,1-.05.47l0,0c.67.67,1.38,1.42,2.16,2.3a4.48,4.48,0,0,1,1.18,3.38c0,.18,0,.37,0,.55a13.11,13.11,0,0,1-.18,1.69,4.3,4.3,0,0,1-.44,1.28,12.42,12.42,0,0,0,3.11.25h1.11a12.47,12.47,0,0,0,5.24-1.15,3.73,3.73,0,0,0,2.21-2.56c1.31-4.88,2.71-9.74,4.07-14.6a28.71,28.71,0,0,0,1.14-4.35A9.74,9.74,0,0,0,23.8,3.79ZM3.34,6a12.52,12.52,0,0,1,10-4.55,13.4,13.4,0,0,1,8.83,2.82,9.1,9.1,0,0,1,3.44,5.52,38,38,0,0,0-24,0A7.21,7.21,0,0,1,3.34,6ZM25.1,12.91A14.33,14.33,0,0,1,22.25,14a34.81,34.81,0,0,1-9.39,1A31.92,31.92,0,0,1,4.4,13.89a10.77,10.77,0,0,1-2-.8c-.34-.18-.81-.61-.78-.87a1.39,1.39,0,0,1,.81-.93A23.9,23.9,0,0,1,6.56,10c2.32-.38,4.67-.54,5.89-.68,4.52.08,7.89.34,11.13,1.4a6.6,6.6,0,0,1,1.55.75C25.82,12,25.83,12.53,25.1,12.91Z"/><path class="cls-1" d="M3,35l-.49-.14a1.74,1.74,0,0,1-1.25-1.31,15.85,15.85,0,0,1,.41-8.77A16.94,16.94,0,0,1,2.46,23a.57.57,0,0,1,.41-.27c.76,0,1.52,0,2.27,0,.58,0,.85.21.9.77A11,11,0,0,1,6,25a2.26,2.26,0,0,1,0,.33,1.41,1.41,0,0,0,.49,1.36c.72.72,1.42,1.46,2.09,2.23a2.91,2.91,0,0,1,.79,2.22,19.28,19.28,0,0,1-.19,2.07A2.18,2.18,0,0,1,7.6,35Zm-1.87-6a5.84,5.84,0,0,0,3.21-.2,4.91,4.91,0,0,1,3.64-.12,1,1,0,0,0-.19-.28c-.56-.58-1.11-1.17-1.69-1.73a1.5,1.5,0,0,1-.44-1.35,13.87,13.87,0,0,0,.11-1.81c0-.41-.22-.56-.63-.57-.66,0-1.32,0-2,0a.42.42,0,0,0-.48.29c-.38,1-.83,2.07-1.13,3.14A21.85,21.85,0,0,0,1.1,29.09Z"/><path class="cls-1" d="M.8,22.25a2,2,0,0,0,.12.34l.15-.3,0,0Z"/><path class="cls-1" d="M5.63,16.78H7.31c.22,0,.31.08.3.31,0,.62,0,1.24,0,1.86,0,.23-.1.32-.3.39a5,5,0,0,0-1,.48,1.91,1.91,0,0,0-.87,1.67c0,.71.08.65-.66.65h-2c-.35,0-.53-.16-.5-.5A2,2,0,0,0,.73,19.44c-.3-.11-.34-.25-.21-.53a3.41,3.41,0,0,1,3-2.07c.69-.06,1.39-.07,2.08-.1Zm1.63.35c-1.05,0-2.07,0-3.09,0a6.41,6.41,0,0,0-1.53.24A2.75,2.75,0,0,0,.81,19.11a2.34,2.34,0,0,1,1.8,2.7H5.06a7.6,7.6,0,0,1,.12-.91A2.65,2.65,0,0,1,7,19.08c.11,0,.26-.18.26-.28C7.28,18.26,7.27,17.71,7.27,17.13Z"/><path class="cls-1" d="M6.2,21.39a1.75,1.75,0,0,1,1.31-1.33,7.74,7.74,0,0,0,1,2.91c.07.11,0,.33-.07.49-.17-.06-.41-.07-.5-.18-.27-.36-.49-.77-.73-1.16C6.88,21.51,6.88,21.51,6.2,21.39Z"/><path class="cls-1" d="M8,16.93c1.16.09,1.16.09,1.16,1.21,0,.87,0,.87-.87.86H8Z"/></g></g></g></svg>