<svg xmlns="http://www.w3.org/2000/svg" viewBox="0 0 37.73 18.65"><defs><style>.cls-1{fill:#6a625e;}</style></defs><title>Asset 100</title><g id="Layer_2" data-name="Layer 2"><g id="graphic_elements" data-name="graphic elements"><g id="Layer_134" data-name="Layer 134"><path class="cls-1" d="M37.72,16.49l-1.8-.24A58,58,0,0,0,30,15.82c-1,0-2,0-3,0a16.82,16.82,0,0,0-5.18,1,29.18,29.18,0,0,1-4.67,1.31,27.12,27.12,0,0,1-7.64.36A11.93,11.93,0,0,1,.23,12.67,1.84,1.84,0,0,1,0,12.14l.4.28a17.34,17.34,0,0,0,5.77,2.45,21.86,21.86,0,0,0,9.66.12c2-.43,4-1,6.05-1.46A28.71,28.71,0,0,1,27,12.69a14.22,14.22,0,0,1,6.55,1.22,18.14,18.14,0,0,1,4,2.36l.22.18Z"/><path class="cls-1" d="M29.17,8.25a4.13,4.13,0,1,1,4.15-4.1A4.12,4.12,0,0,1,29.17,8.25Z"/><path class="cls-1" d="M23.66,9.9a20.52,20.52,0,0,0-4.65.83c-1.92.5-3.84,1-5.77,1.5a10.24,10.24,0,0,1-3.09.36,6.16,6.16,0,0,1-1.27-.24,1.35,1.35,0,0,1-.72-.54l8.69-5.26a9.78,9.78,0,0,0-1.2-1.12A5.94,5.94,0,0,0,12.76,4.2a9.1,9.1,0,0,0-3.48.27A20,20,0,0,0,5.64,5.82h0A1.6,1.6,0,0,1,4.15,3c.65-.36,1.3-.72,2-1a18.91,18.91,0,0,1,2.13-.87C8.68.94,9.1.82,9.54.71A12,12,0,0,1,13.1.34,10,10,0,0,1,18,2a17.78,17.78,0,0,1,3.57,3.22h0s.25.36.33.49l1.7,2.7a3.62,3.62,0,0,1,.38,1A.37.37,0,0,1,23.66,9.9Z"/></g></g></g></svg>