<svg xmlns="http://www.w3.org/2000/svg" viewBox="0 0 46.01 39.91"><defs><style>.cls-1{fill:#6a625e;}</style></defs><title>Asset 35</title><g id="Layer_2" data-name="Layer 2"><g id="graphic_elements" data-name="graphic elements"><g id="Layer_96" data-name="Layer 96"><path class="cls-1" d="M40.77,24.3H5.24c0,3.5,0,6.91,0,10.33,0,1.25,0,2.51,0,3.76,0,1-.45,1.51-1.52,1.51s-1.58-.34-1.58-1.44q0-9.53,0-19.07a1.31,1.31,0,0,1,.12-.33H43.78c0,.49.08.93.08,1.38q0,8.7,0,17.4c0,1.07,0,2.06-1.51,2.06s-1.6-.87-1.59-2c0-4,0-8.07,0-12.11C40.77,25.33,40.77,24.88,40.77,24.3Z"/><path class="cls-1" d="M22.9,17.91c-7,0-14,0-21,0C.74,17.93,0,17.73,0,16.36s.74-1.57,1.88-1.57q21.16,0,42.33,0c1.09,0,1.79.22,1.8,1.5s-.47,1.63-1.66,1.63c-5.8,0-11.6,0-17.4,0Z"/><path class="cls-1" d="M32.21,13.81H13.87c.46-3.11.9-6.23,1.35-9.34A5.11,5.11,0,0,1,20.08,0Q23,0,25.95,0a5.25,5.25,0,0,1,4.93,4.5C31.31,7.63,31.76,10.72,32.21,13.81Z"/><path class="cls-1" d="M34.49,25.3a4.21,4.21,0,0,1-.33.94,1.53,1.53,0,0,1-1.55.92H23c-3.12,0-6.24,0-9.35,0A2.19,2.19,0,0,1,11.3,25.3Z"/><path class="cls-1" d="M16.89,36.67l-.67-1.12.6-.35c1.74-1,3.47-2,5.21-3a.53.53,0,0,0,.32-.55c0-1,0-2.09,0-3.18h1.32c0,.22,0,.45,0,.67,0,.84,0,1.68,0,2.52a.5.5,0,0,0,.3.52c1.82,1,3.64,2.07,5.46,3.11l.35.2-.65,1.12-5.44-3.07v.87H22.34v-.87Z"/><path class="cls-1" d="M15.73,37.76a2,2,0,1,1-2-2A2,2,0,0,1,15.73,37.76Z"/><path class="cls-1" d="M23,39.74a2,2,0,1,1,2-2A2,2,0,0,1,23,39.74Z"/><path class="cls-1" d="M32.27,39.74a2,2,0,1,1,2-2A2,2,0,0,1,32.27,39.74Z"/></g></g></g></svg>