<svg xmlns="http://www.w3.org/2000/svg" viewBox="0 0 37.68 26.06"><defs><style>.cls-1{fill:#6a625e;}</style></defs><title>Asset 82</title><g id="Layer_2" data-name="Layer 2"><g id="graphic_elements" data-name="graphic elements"><g id="Layer_134" data-name="Layer 134"><path class="cls-1" d="M37.67,9.83a1.57,1.57,0,0,1-1.43,1.52l-.53.06h-.08V26.06c-.67,0-1.32,0-2,0-.35,0-.48-.14-.54-.56-.3-1.75-.63-3.5-.94-5.25-.53-2.93-1.05-5.85-1.59-8.84H7.14c-.53,3-1.05,5.91-1.58,8.84-.32,1.75-.65,3.5-.94,5.25-.07.41-.19.57-.54.56-.65,0-1.29,0-2,0V11.41c-.26,0-.46,0-.67-.06A1.56,1.56,0,0,1,0,9.84C0,9,0,8.08,0,7.21a.88.88,0,0,1,.25-.56L7,.3A1,1,0,0,1,7.79,0H30.06a1,1,0,0,1,.81.33c2.17,2.1,4.35,4.19,6.51,6.3a.89.89,0,0,1,.28.57C37.69,8.07,37.69,9,37.67,9.83Z"/><path class="cls-1" d="M11.33,12.65l-1,5.8c-.2,1.13-.41,2.25-.61,3.38,0,.26-.12.37-.35.36-.41,0-.83,0-1.26,0V12.65Z"/><path class="cls-1" d="M26.41,12.65l1,5.8c.2,1.13.41,2.25.61,3.38,0,.26.12.37.35.36.41,0,.83,0,1.26,0V12.65Z"/></g></g></g></svg>