<svg xmlns="http://www.w3.org/2000/svg" viewBox="0 0 27.5 36.79"><defs><style>.cls-1{fill:#6a625e;}</style></defs><title>Asset 33</title><g id="Layer_2" data-name="Layer 2"><g id="graphic_elements" data-name="graphic elements"><g id="Layer_134" data-name="Layer 134"><path class="cls-1" d="M26.89,13.39h0a.22.22,0,0,1,.22-.22h.15a.22.22,0,0,0,.22-.23q0-.46,0-.92c0-.41,0-.8,0-1.2q0-.36,0-.73a.22.22,0,0,0-.22-.23h-.15a.22.22,0,0,1-.22-.23h0a.22.22,0,0,1,.22-.22h.16a.22.22,0,0,0,.22-.22c0-.77,0-1.55,0-2.32,0-.42-.08-.48-.47-.41a.26.26,0,0,1,0-.07c0-1.32,0-2.64,0-4A2,2,0,0,0,24.81.11c-7.48,0-15,0-22.44-.11A2.14,2.14,0,0,0,.13,2.29Q.08,18.35,0,34.41a2,2,0,0,0,2.2,2.28l16.54.07,6.07,0a1.93,1.93,0,0,0,1.44-.56,2.38,2.38,0,0,0,.63-1.78q0-8.86.07-17.72v-.43c.4.1.5,0,.5-.37,0-.7,0-1.4,0-2.1a.22.22,0,0,0-.22-.23h-.16A.22.22,0,0,1,26.89,13.39ZM13.45,34.63a.94.94,0,0,1-.88-1,1,1,0,0,1,.86-1,1,1,0,0,1,0,1.93Zm11.86-18-.06,14c0,.6,0,.61-.59.61l-22.4-.1c-.55,0-.58,0-.58-.59L1.79,2.38c0-.54,0-.58.56-.57l22.47.1c.51,0,.54,0,.54.56Q25.33,9.54,25.3,16.62Z"/></g></g></g></svg>