<svg xmlns="http://www.w3.org/2000/svg" viewBox="0 0 34.57 34.56"><defs><style>.cls-1{fill:#6a625e;}</style></defs><title>Asset 101</title><g id="Layer_2" data-name="Layer 2"><g id="graphic_elements" data-name="graphic elements"><g id="Layer_134" data-name="Layer 134"><path class="cls-1" d="M34.57,12.33A12.36,12.36,0,0,1,32.86,18a18.73,18.73,0,0,1-7.71,7.6,9,9,0,0,1-4.67,1.16A2.08,2.08,0,0,1,19,26.1c-2.36-2.41-4.76-4.79-7.15-7.18Q10,17.08,8.15,15.25a.94.94,0,0,1-.27-.58,8.11,8.11,0,0,1,.68-4.37A18.26,18.26,0,0,1,19.8.42a10,10,0,0,1,10,2.46,21.46,21.46,0,0,1,2.84,3A10.4,10.4,0,0,1,34.57,12.33Z"/><path class="cls-1" d="M8.61,17.46,17.09,26c-.3-.09-.64-.17-1-.28a5.1,5.1,0,0,0-4.86.84,27.45,27.45,0,0,0-3.75,3.4c-1.21,1.28-2.38,2.6-3.58,3.89a4.8,4.8,0,0,1-.53.52.91.91,0,0,1-1.13.07A3,3,0,0,1,1.79,34c-.42-.41-.84-.83-1.25-1.25a2.83,2.83,0,0,1-.3-.36.92.92,0,0,1,.06-1.28c.35-.37.75-.7,1.14-1a56.23,56.23,0,0,0,5.43-5.25,18.91,18.91,0,0,0,1.5-2A4.85,4.85,0,0,0,9,18.69Z"/></g></g></g></svg>