<svg xmlns="http://www.w3.org/2000/svg" viewBox="0 0 34.86 35.22"><defs><style>.cls-1{fill:#6a625e;}</style></defs><title>Asset 98</title><g id="Layer_2" data-name="Layer 2"><g id="graphic_elements" data-name="graphic elements"><g id="Layer_134" data-name="Layer 134"><path class="cls-1" d="M34.86,8.68c0,.29-.08.58-.12.88a12.39,12.39,0,0,1-2.28,5.36,13.73,13.73,0,0,1-6.67,5,10.49,10.49,0,0,1-4.21.59,5.73,5.73,0,0,0-1.68.24,22.17,22.17,0,0,0-7.71,3.32c-.43.3-.83.63-1.25.95a.19.19,0,0,0-.08.2.73.73,0,0,1-.1.44c-.25.34-.52.65-.8,1a.15.15,0,0,1-.14,0,4.23,4.23,0,0,1-1.66-1.73c.36-.29.72-.59,1.09-.86.17-.13.29-.11.54,0,.33-.44.69-.88,1-1.34A22.25,22.25,0,0,0,14.31,14a3.25,3.25,0,0,0,0-.74,10.59,10.59,0,0,1,.87-4.86A13.75,13.75,0,0,1,23.86.47,9.83,9.83,0,0,1,26.27,0l.15,0h1l1,.14a7.4,7.4,0,0,1,6.18,6c.07.36.12.73.17,1.1Zm-16,11.21a7.51,7.51,0,0,1-2.28-1.54A7.87,7.87,0,0,1,15,16.14a19.73,19.73,0,0,1-4.85,8.29l.3.33A19.57,19.57,0,0,1,18.83,19.89ZM24.51,8.33l1,1,1.61-1.59-1-1Zm-.93,2.86,1.62-1.62-1-1-1.63,1.63Zm6.54,3.32-1-1-1.6,1.6,1,1ZM20.4,19.28,22,17.66l-.95-1-1.62,1.62Zm-.82-4.06-1-1L17,15.85l1,1Zm10-5-1-1L27,10.81l1,1ZM26,13.64,27.66,12l-1-1-1.61,1.6Zm3.16-8.08,1.63-1.61-1-1L28.27,4.61Zm1.86,6.1-1.62,1.62,1,.94L32,12.61Zm-2.81,4.73-1-1L25.69,17l1,1Zm5-10-.95-1L30.75,7.06l.95,1ZM20.75,12.11l1,1,1.62-1.62-1-1Zm1-6.49L23.39,4l-.95-.95L20.83,4.68Zm1.44,8.93,1,1,1.6-1.6-1-1ZM18,9.36l1.61-1.59-1-1-1.6,1.6ZM19,6.53l1,1,1.58-1.57-1-1Zm2.18,2.23,1.61-1.61-1-1-1.61,1.6ZM23,6.86l1.6-1.61-1-1L22,5.89Zm-3.78,3.75L20.86,9l-.95-1-1.6,1.6ZM31.42,8.29l-1-.95-1.6,1.59.95,1ZM22.3,17.4l1.61-1.6-1-1-1.6,1.6ZM26.38,6.46l1,1,1.6-1.59-1-1ZM20.5,12.37,18.88,14l1,1,1.63-1.62Zm-4.09-.86,1,1L19,10.88l-1-1ZM25.55,2.4,23.94,4l1,1,1.61-1.61Zm-.64,3.1L23.28,7.13l.94.95,1.63-1.64Zm1.16,8.68L24.44,15.8l1,1L27,15.15ZM23,7.39,21.4,9l1,1L24,8.34ZM29.16,13l1.61-1.61-1-1L28.2,12Zm-9.3,2.46-1.64,1.64.95.95,1.64-1.64Zm9-2.19-1-1-1.6,1.6,1,1ZM18.34,14l-1-1-1.59,1.58,1,1ZM29.61,2.73l-1-1L27,3.37l1,1ZM22,13.34l1,1,1.61-1.6-1-1ZM27.36,8,25.74,9.59l1,1,1.61-1.61ZM25.49,9.85l-1.62,1.61.95,1,1.62-1.62Zm5.63-5.63L29.5,5.83l1,.95,1.62-1.62Zm-9,6-1-1-1.61,1.6,1,1Zm.58-7.47,1,1L25.3,2.11l-.65-.64c-.08-.08-.15-.22-.31-.15s-.26.06-.34.14C23.54,1.89,23.11,2.33,22.68,2.76Zm-3.41,8.39-1.61,1.6.95,1,1.61-1.6Zm3.31,6.51,1,1,1.6-1.6-1-1Zm6-9L30.19,7l-.95-1L27.62,7.71Zm-1.8-5L25.16,5.23l1,1,1.61-1.61Zm4.92,4.92-1.62,1.62,1,.95,1.61-1.6ZM20.1,15.21l1,1,1.6-1.6-1-1ZM17.75,9.66l-1-1a6.83,6.83,0,0,1-.57.58,1.74,1.74,0,0,0-.66,1.23.87.87,0,0,0,0,.1.15.15,0,0,0,0,.1l.6.6Zm15.19.09-1.63,1.63,1,1,1-1a.3.3,0,0,0,.06-.12c.08-.25.15-.5.22-.75a.23.23,0,0,0,0-.18C33.33,10.14,33.13,9.95,32.94,9.75ZM26.77,3.11,28.4,1.48a.82.82,0,0,0-.72-.41.93.93,0,0,1-.28,0,.79.79,0,0,0-.87.33c-.23.27-.5.51-.75.76Zm-3,15.81c.13.13.25.26.39.37a.25.25,0,0,0,.19.06L25.56,19A.32.32,0,0,0,25.7,19l.69-.68-1-1Zm9.16-9.65c.27-.27.55-.54.82-.82a.39.39,0,0,0,.1-.25c0-.39,0-.79-.07-1.18a.4.4,0,0,0-.19-.35L32,8.29ZM19.51,3.86,17.92,5.5l.75.76,1.62-1.61Zm-4,10.48,1.59-1.59-1-1-.26.29c-.18.19-.43.35-.51.58a1.82,1.82,0,0,0,0,.77C15.42,13.71,15.48,14,15.53,14.34Zm5.33,5.06h0l1.68.15a.16.16,0,0,0,.11,0l.59-.6-1-1Zm.89-17.05a11.89,11.89,0,0,0-2,1.32l.73.73,1.64-1.63Zm8.65,12.43L28.8,16.39l.57.57L31,15.37ZM16.78,8.17,18.4,6.53l-.7-.7-.08.1c-.33.51-.66,1-1,1.52s-.22.39.11.7Zm15.51,4.72L30.67,14.5l.59.58c.37-.56.75-1.12,1.12-1.69C32.56,13.11,32.55,13.1,32.29,12.88ZM30.16,2.71l1,1L31.83,3,30.75,2.1Zm2.76,1.64-.82-1.12-.71.72,1,1Zm-6,13.92c.08.14.18.17.33.07l1.7-1.07.11-.09-.51-.54ZM17.7,17.12l-1-1-.32.29.87,1.09ZM28.91,1.46l1,1,.55-.54-1.26-.51C29,1.33,29,1.36,28.91,1.46ZM17.52,17.78l1.14.83.29-.27-1-1Zm8-15.92L26.38,1l-1.51.18Zm8.09,4.29a6.37,6.37,0,0,0-.53-1.44l-.45.46Zm.23,2.73-.64.63.48.5ZM23.31,1.66v0l-1.22.53.36.37ZM15.41,11l-.09,1.05.57-.57Zm1.06,4.83-.68-.69.44.95Zm-.18-7.72L15.94,9l.6-.61Zm6.9,11.37.64-.07-.3-.28Zm-3.53-.46-.47-.48-.21.18ZM33,12.2l-.46.45.18.17Z"/><path class="cls-1" d="M0,32.87a2.45,2.45,0,0,1,.3-.35A46.07,46.07,0,0,0,4.2,28.9c1.18-1.19,2.37-2.37,3.56-3.56l.13-.12a6.34,6.34,0,0,0,1.79,1.84.67.67,0,0,0-.17.09c-1.8,1.8-3.61,3.58-5.39,5.4-.64.66-1.22,1.39-1.82,2.09-.18.21-.19.22-.44.13l-.4-.13A2.23,2.23,0,0,1,0,33.23l0-.11Q0,33,0,32.87Z"/><path class="cls-1" d="M26.55,29.78c-.48.06-1,.1-1.44.2a4.49,4.49,0,0,0-3.45,3.21c-.22.66-.37,1.35-.55,2a5.1,5.1,0,0,1-5-4.93c.77-.22,1.54-.39,2.27-.66a4.55,4.55,0,0,0,3.11-4.38c0-.13,0-.27,0-.4A5.09,5.09,0,0,1,26.55,29.78Z"/><path class="cls-1" d="M21.61,35.21a8.45,8.45,0,0,1,.87-2.81,4,4,0,0,1,3.12-2.08c.32,0,.64-.06,1-.08A5.11,5.11,0,0,1,21.61,35.21Z"/><path class="cls-1" d="M21.14,24.82a4.35,4.35,0,0,1-1.75,3.83,7.62,7.62,0,0,1-3.21,1.13A5.14,5.14,0,0,1,21.14,24.82Z"/></g></g></g></svg>