<svg xmlns="http://www.w3.org/2000/svg" viewBox="0 0 54.27 35.93"><defs><style>.cls-1{fill:#6a625e;}</style></defs><title>Asset 49</title><g id="Layer_2" data-name="Layer 2"><g id="graphic_elements" data-name="graphic elements"><g id="Layer_95" data-name="Layer 95"><path class="cls-1" d="M44.77,15.52a9.49,9.49,0,1,1-9.48,9.67A9.5,9.5,0,0,1,44.77,15.52Zm1.75,18.13a6.32,6.32,0,0,1,2.19-3.24,6,6,0,0,1,3.67-1.06A7.83,7.83,0,0,0,53.49,26a6.51,6.51,0,0,1-2.32-3,6.18,6.18,0,0,1,.13-4l-2.79-2a6.64,6.64,0,0,1-3.7,1.34,5.54,5.54,0,0,1-3.66-1.42L38.22,19a5.52,5.52,0,0,1-2.28,7l1.14,3.41a5.38,5.38,0,0,1,3.73,1A5.78,5.78,0,0,1,43,33.65Z"/><path class="cls-1" d="M44.74,28c-.48,0-1,0-1.45,0a.83.83,0,0,1-.91-.66c-.31-1-.66-1.92-.9-2.89a1.12,1.12,0,0,1,.3-.94,25.35,25.35,0,0,1,2.57-1.87,1,1,0,0,1,.93,0c.87.56,1.69,1.2,2.53,1.8a.82.82,0,0,1,.34,1c-.32,1-.62,1.92-.93,2.89a.83.83,0,0,1-.93.64C45.75,28,45.25,28,44.74,28Z"/><path class="cls-1" d="M24.75,3.33A39,39,0,0,0,34.5,2.08L39.8,14.9a11,11,0,0,1,1.75-.68Q40.49,11.58,39.4,9,37.71,4.88,36,.8A1,1,0,0,0,34.56.13a10.28,10.28,0,0,1-1,.29,46,46,0,0,1-11.19,1A25.11,25.11,0,0,1,13.67.09c-.59-.23-1,0-1.29.62Q7.1,11.59,1.82,22.47L.13,25.93s0,0,0,.05c-.18.5-.28.81.71,1.27a2.38,2.38,0,0,0,.32.12c2,.64,4,1.25,6,1.86.82.26,1.13.12,1.54-.61a45.66,45.66,0,0,0,3.35-8l.21-.64c.2.77.36,1.4.53,2a52.49,52.49,0,0,0,3.57,9.86,1.56,1.56,0,0,0,1,.83c3.23,1,6.45,2.13,9.69,3.16a1.58,1.58,0,0,0,1,0l8.65-3a10.11,10.11,0,0,1-1.27-1.55L28,33.85,15,2.51A35.94,35.94,0,0,0,24.75,3.33Zm1.07,30.16c-2.59-.86-5.05-1.66-7.51-2.49a.86.86,0,0,1-.43-.47C17,28.09,16,25.67,15.17,23.19c-.72-2.26-1.23-4.57-1.81-6.87-.15-.58-.44-.89-.91-.91s-.83.28-1,.88a68.25,68.25,0,0,1-4,10.49c-.2.41-.39.46-.8.33-1.42-.46-2.86-.89-4.36-1.35C6,18.28,9.58,10.83,13.25,3.27,17.46,13.38,21.62,23.38,25.82,33.49Z"/></g></g></g></svg>