<svg xmlns="http://www.w3.org/2000/svg" viewBox="0 0 38 28.37"><defs><style>.cls-1{fill:#6a625e;}</style></defs><title>Asset 31</title><g id="Layer_2" data-name="Layer 2"><g id="graphic_elements" data-name="graphic elements"><g id="Layer_134" data-name="Layer 134"><path class="cls-1" d="M0,15.75Q0,10.49,0,5.24A1.87,1.87,0,0,1,1.1,3.36a2.51,2.51,0,0,1,1-.21q4.24,0,8.48,0a1.92,1.92,0,0,1,2.08,2c0,1.43,0,2.86,0,4.29q0,4.29,0,8.58,0,4.06,0,8.13c0,.09,0,.17,0,.26a1.92,1.92,0,0,1-2,1.94H2.11A1.94,1.94,0,0,1,0,26.26Q0,21,0,15.75ZM11,7.82c0-.07,0-.11,0-.15,0-.91,0-1.81,0-2.72,0-.19-.09-.19-.24-.19H1.62V7.82ZM11,11c0-.44,0-.84,0-1.23,0-.22-.06-.28-.28-.28H1.83c-.18,0-.25,0-.24.24s0,.59,0,.88S1.54,11,2,11H11ZM2.39,23.64a.8.8,0,0,0,.75-.8.75.75,0,0,0-.79-.75.79.79,0,0,0-.78.77A.84.84,0,0,0,2.39,23.64Z"/><path class="cls-1" d="M36.37,17.12V1.59h-30A1.78,1.78,0,0,1,8,0C8.61,0,9.23,0,9.85,0H35.71a2.59,2.59,0,0,1,1.38.31A2,2,0,0,1,38,2.16C38,3.44,38,4.72,38,6q0,6.86,0,13.73a4.47,4.47,0,0,1,0,.57,1.91,1.91,0,0,1-2,1.77H14.58c-.33,0-.33,0-.33-.35,0-1.45,0-2.89,0-4.34,0-.19,0-.26.25-.26H36.14Zm-13.43,2.6a.79.79,0,0,0-.76-.79.74.74,0,0,0-.8.73.8.8,0,0,0,.76.82A.82.82,0,0,0,22.94,19.72Z"/><path class="cls-1" d="M28.45,28.33H15.87l.13-.22c.92-1.37,1.84-2.75,2.74-4.12a.7.7,0,0,1,.65-.35h5.41a.87.87,0,0,1,.81.42c.88,1.34,1.78,2.67,2.67,4Z"/></g></g></g></svg>