<svg xmlns="http://www.w3.org/2000/svg" viewBox="0 0 23.15 35.72"><defs><style>.cls-1{fill:#6a625e;}</style></defs><title>Asset 20</title><g id="Layer_2" data-name="Layer 2"><g id="graphic_elements" data-name="graphic elements"><g id="Layer_134" data-name="Layer 134"><path class="cls-1" d="M18,29.47a5.8,5.8,0,0,1,.75.4.6.6,0,0,1,.2.4c0,.45,0,.9.06,1.35,0,.24.11.33.34.33.47,0,.95,0,1.42,0a2.52,2.52,0,0,1,.5.16,1.15,1.15,0,0,0,.3,0c.42,0,.83,0,1.25,0a.44.44,0,0,1,.33.25c0,.19-.12.26-.31.27s-.58,0-.87,0a1.53,1.53,0,0,0-.81.19c-.25.16-.65.08-1,.1L19,33.09a.65.65,0,0,0-.06.13c0,.58-.1.67-.67.79-.27.06-.54.09-.73.12s-.19-.21-.26-.21c-.52,0-1,.06-1.56.09l-.06,0c-.6.5-1.33.17-2,.31L14,34.2v-.07c-.56,0-1.12,0-1.68,0-.77,0-1.55,0-2.32.13-1,.14-2,.35-3,.54s-2,.38-3,.59a1.56,1.56,0,0,0-.41.24c-.06,0-.12.09-.17.08-.75,0-1.5-.06-2.24-.13a.75.75,0,0,1-.69-.67c-.11-.53-.36-1-.43-1.56a5.81,5.81,0,0,1,.09-1.44c0-.1.17-.21.29-.25.29-.11.6-.17.89-.28a.34.34,0,0,0,.19-.23,6.27,6.27,0,0,0,.06-.93A.44.44,0,0,1,2,29.73c1.19-.2,2.38-.42,3.58-.61s2.11-.27,3.15-.45a3.79,3.79,0,0,1,1.53.11,5.46,5.46,0,0,0,.58.11.33.33,0,0,1,.34.36c0,.1.13.27.21.27q1.16,0,2.32,0a.49.49,0,0,0,.32-.21c.71-1,1.38-2.05,2.11-3.05a1.84,1.84,0,0,0,.31-1.59c-.92-4.17-1.82-8.35-2.72-12.53L12.14,4.94a.94.94,0,0,0-1-.83L8.17,4,4.71,3.78c-.68,0-1-.54-1.41-1a.41.41,0,0,1,0-.29c.13-.55.3-1.09.39-1.65a.83.83,0,0,1,.8-.77A13.59,13.59,0,0,1,6.23,0,.91.91,0,0,1,6.7.28,1.69,1.69,0,0,0,7.87.67c1.5,0,3,.06,4.51.08a.65.65,0,0,0,.39-.2c.13-.12.21-.41.31-.4a2.21,2.21,0,0,1,1,.2,1.18,1.18,0,0,1,.41.72C15,3,15.4,4.93,15.84,6.87L18.91,20.4c.39,1.73.78,3.47,1.19,5.2a1.21,1.21,0,0,1-.19,1C19.27,27.56,18.64,28.52,18,29.47Z"/></g></g></g></svg>