<svg xmlns="http://www.w3.org/2000/svg" viewBox="0 0 33.91 33.93"><defs><style>.cls-1{fill:#6a625e;}</style></defs><title>Asset 40</title><g id="Layer_2" data-name="Layer 2"><g id="graphic_elements" data-name="graphic elements"><g id="Layer_134" data-name="Layer 134"><path class="cls-1" d="M24.12,30.81a2.25,2.25,0,0,0-4.32,1,2.11,2.11,0,0,0,.87,1.63,2.21,2.21,0,0,0,1.4.49h0a2.14,2.14,0,0,0,1.18-.36h0A2.26,2.26,0,0,0,24.12,30.81Zm-2.12,2a1.11,1.11,0,0,1-1-1.63,1.07,1.07,0,0,1,.32-.37,1.13,1.13,0,0,1,1.81.93A1.12,1.12,0,0,1,22,32.77Z"/><path class="cls-1" d="M32.93,30.75a1.17,1.17,0,0,0-1.1-.87c-.78-.09-1.56-.26-2.35-.31a1.39,1.39,0,0,1-1.23-.81,7.37,7.37,0,0,0-5.84-4,.68.68,0,0,1-.44-.19c-.52-.65-1-1.32-1.48-2,.75-.55,1.66-.9,2-1.54a6,6,0,0,0,.11-2.42,2.36,2.36,0,0,0,0-.68,3.2,3.2,0,0,0-.47-1.2Q17.11,11,12.06,5.2c-1.19-1.36-1.19-1.36-2.73-.45,0,0-.1,0-.22,0C8.63,4,8.1,3.29,7.64,2.52a2.17,2.17,0,0,0-1.45-1C4.45,1,2.73.5,1,0H.16C-.2.72.07,1.06.82,1.25c1.64.41,3.27.87,4.9,1.33A1.56,1.56,0,0,1,6.52,3c.6.81,1.13,1.67,1.7,2.52l-.47.36c-1.14.79-1.14.79-.49,2.05L15.5,23.85c.6,1.17.6,1.17,1.86.68l.93,1.24c-2.28,1.8-3.21,3.52-3.12,5.68.05,1.27.12,1.34,1.36,1.34.37,0,.74,0,1.1,0,.73.06,1.08-.16,1-1a3.14,3.14,0,0,1,1.95-3.19,3.18,3.18,0,0,1,3.64.52,3.34,3.34,0,0,1,1,3.7,3.83,3.83,0,0,0,0,1.11h8.65v-.85C33.58,32.3,33.2,31.55,32.93,30.75ZM17.85,17.16a19.28,19.28,0,0,1-2-3.32c-.61-1.28-1-2.65-1.56-4l.2-.11.93,1.05c1.87,2.15,3.75,4.29,5.6,6.46a6.06,6.06,0,0,1,.62,1.33A4,4,0,0,1,17.85,17.16Z"/></g></g></g></svg>