<svg xmlns="http://www.w3.org/2000/svg" viewBox="0 0 35.7 35.7"><defs><style>.cls-1{fill:#6a625e;}</style></defs><title>Asset 96</title><g id="Layer_2" data-name="Layer 2"><g id="graphic_elements" data-name="graphic elements"><g id="Layer_134" data-name="Layer 134"><path class="cls-1" d="M17.85,0A17.85,17.85,0,1,0,35.7,17.85,17.87,17.87,0,0,0,17.85,0Zm9.38,19.27A26.13,26.13,0,0,1,11,33.71a17.27,17.27,0,0,1-2.31-1.23,3,3,0,0,0,1.23-.1c7.53-2.06,12.78-6.75,16.06-13.84a23.12,23.12,0,0,0-7.69-1.47,25.3,25.3,0,0,1-14.32,11q-.46-.63-.87-1.3c2.78-.76,6.33-2.47,7.48-3.65A26.48,26.48,0,0,1,5.62,5.63,17.44,17.44,0,0,1,7.31,4.14a24,24,0,0,0,4.57,18.12,23.37,23.37,0,0,0,4.81-5.53,68,68,0,0,1-2.4-7.89A61.34,61.34,0,0,1,13.78,1,17.18,17.18,0,0,1,15.57.7V6.76a24.86,24.86,0,0,1,18.52,5.13,17.15,17.15,0,0,1,.77,2.81,3.83,3.83,0,0,0-1-1.07A24.52,24.52,0,0,0,22.78,8.49a21.14,21.14,0,0,0-7.16-.22,20.55,20.55,0,0,0,2.59,7.36A26.5,26.5,0,0,1,34.64,22,17.15,17.15,0,0,1,34,23.92,24.85,24.85,0,0,0,27.23,19.27Z"/></g></g></g></svg>