<svg xmlns="http://www.w3.org/2000/svg" viewBox="0 0 38.11 32.58"><defs><style>.cls-1{fill:#6a625e;}</style></defs><title>Asset 57</title><g id="Layer_2" data-name="Layer 2"><g id="graphic_elements" data-name="graphic elements"><g id="Layer_134" data-name="Layer 134"><path class="cls-1" d="M38,6.43A6.24,6.24,0,0,0,31.45,0C23.18,0,15,0,6.64,0A6.3,6.3,0,0,0,0,6.7V23.45c0,4.5,2.47,7,7,7.06H9.63q-1.26,1-2.39,2.07H30.74a28.76,28.76,0,0,0-2.28-1.95c1-.13,2.09-.08,3.1-.13A6.28,6.28,0,0,0,38,24C38.13,18.13,38.13,12.27,38,6.43ZM12,19.64a4.39,4.39,0,1,1,4.38-4.44A4.36,4.36,0,0,1,12,19.64Zm14.05,0a4.39,4.39,0,1,1,4.38-4.4A4.35,4.35,0,0,1,26.09,19.64Z"/></g></g></g></svg>