<svg xmlns="http://www.w3.org/2000/svg" viewBox="0 0 35.62 35.67"><defs><style>.cls-1{fill:#6a625e;}</style></defs><title>Asset 121</title><g id="Layer_2" data-name="Layer 2"><g id="graphic_elements" data-name="graphic elements"><g id="Layer_134" data-name="Layer 134"><path class="cls-1" d="M28,13.1a9.37,9.37,0,0,0-5.6-1.84H22.3l.11.08c5,3.44,7.05,7.91,6,13.31s-4.67,9-10.78,10.3l-.15,0,.14.05a10,10,0,0,0,3.52.63,11.56,11.56,0,0,0,3-.41,12.7,12.7,0,0,0,5.94-3.58,12,12,0,0,0,3.11-6.46,12.72,12.72,0,0,0-1-7.24A12.32,12.32,0,0,0,28,13.1Z"/><path class="cls-1" d="M24.46,22.59l-.08,0c-3.59,5-8.16,6.93-13.59,5.85S2,23.66.58,17.24H.49c-1.16,5.11-.27,9,2.82,12.23a11.84,11.84,0,0,0,8.72,4,13.41,13.41,0,0,0,4.08-.67C20.92,31.23,23.73,27.81,24.46,22.59Z"/><path class="cls-1" d="M32.3,6.16A11.77,11.77,0,0,0,19.53,2.85c-4.78,1.52-7.61,4.92-8.4,10.1l.08,0A12.92,12.92,0,0,1,24.64,7.16C30,8.23,34,12.47,35.07,18.24h.09C36.29,13.31,35.35,9.36,32.3,6.16Z"/><path class="cls-1" d="M13.3,24.67l0-.08c-5-3.36-7.28-8.56-6.12-13.9A13,13,0,0,1,17.78.58V.49C12.93-.76,8.83.38,5.6,3.87a11.77,11.77,0,0,0-2.48,13C4.82,21.24,8.15,23.8,13.3,24.67Z"/></g></g></g></svg>