<svg xmlns="http://www.w3.org/2000/svg" viewBox="0 0 23.47 35.21"><defs><style>.cls-1{fill:#6a625e;}</style></defs><title>Asset 10</title><g id="Layer_2" data-name="Layer 2"><g id="graphic_elements" data-name="graphic elements"><g id="Layer_131" data-name="Layer 131"><path class="cls-1" d="M7.34,29.87a6.81,6.81,0,0,0,1.22.8,6.91,6.91,0,1,0,0-12.3,7,7,0,0,0-1.22.8,6.82,6.82,0,0,0-2.53,5.28A7,7,0,0,0,7.34,29.87Zm0-9A5.55,5.55,0,0,1,9.8,19.15a5.71,5.71,0,0,1,6.3,1.73.4.4,0,0,1,.1.3,14.78,14.78,0,0,0-.25,4.53A9.92,9.92,0,0,0,16.12,27a8.41,8.41,0,0,0,.24.82,5.45,5.45,0,0,1-3.67,2.32,5.51,5.51,0,0,1-4.14-.85,6.15,6.15,0,0,1-1.22-1.13l-.2-.25A5.66,5.66,0,0,1,7.34,20.87Z"/><path class="cls-1" d="M8,0H0V35.21H23.47V0ZM1.23,1.24H9.1V7.7H1.23ZM22.23,34H2.5L1.2,34V33c0-.56,0-1.11,0-1.67q0-7.39,0-14.78,0-3.65,0-7.31V8.94h21Zm0-26.28H10.34V1.24H22.24Z"/><path class="cls-1" d="M7.34,31.81A8.49,8.49,0,0,0,11.73,33a8.53,8.53,0,1,0-4.39-1.22Zm0-13.45a7.55,7.55,0,1,1-3.17,6.15A7.58,7.58,0,0,1,7.34,18.36Z"/></g></g></g></svg>