<svg xmlns="http://www.w3.org/2000/svg" viewBox="0 0 23.54 36.62"><defs><style>.cls-1{fill:#6a625e;}</style></defs><title>Asset 43</title><g id="Layer_2" data-name="Layer 2"><g id="graphic_elements" data-name="graphic elements"><g id="Layer_134" data-name="Layer 134"><path class="cls-1" d="M0,9.64v26a1,1,0,0,0,1,1H22.5a1,1,0,0,0,1-1v-26a1,1,0,0,0-1-1H1A1,1,0,0,0,0,9.64Zm11.74,23h0a10,10,0,1,1,7.13-17,9.82,9.82,0,0,1,2.9,7A10,10,0,0,1,11.74,32.61Z"/><rect class="cls-1" x="10.2" width="13.34" height="7.24" rx="0.94" ry="0.94"/><rect class="cls-1" x="0.01" width="8.83" height="7.24" rx="0.94" ry="0.94"/><path class="cls-1" d="M11.78,14.29h0A8.34,8.34,0,0,0,3.44,22.6a8.33,8.33,0,1,0,8.34-8.31Zm0,15.42h0a7.08,7.08,0,1,1,5.07-12.07,7,7,0,0,1,2,5A7.12,7.12,0,0,1,11.75,29.7Z"/><path class="cls-1" d="M16.33,25.83A5.59,5.59,0,1,1,11.74,17a5.54,5.54,0,0,1,4.44,2.17A12.68,12.68,0,0,0,16.33,25.83Z"/></g></g></g></svg>