<svg xmlns="http://www.w3.org/2000/svg" viewBox="0 0 27.99 39.74"><defs><style>.cls-1{fill:#6a625e;}</style></defs><title>Asset 44</title><g id="Layer_2" data-name="Layer 2"><g id="graphic_elements" data-name="graphic elements"><g id="Layer_102" data-name="Layer 102"><path class="cls-1" d="M25.68,21.56c-.34,1.11-.6,2.19-1,3.21a12.41,12.41,0,0,1-4.86,5.83.56.56,0,0,0-.29.54c0,2.49,0,5,0,7.46,0,.78-.36,1.15-1.13,1.15H7.25a1,1,0,0,1-1.12-1.12c0-2.51,0-5,0-7.52a.52.52,0,0,0-.27-.49A12.46,12.46,0,0,1,0,19.76,12.41,12.41,0,0,1,5.82,9.08a.62.62,0,0,0,.32-.59c0-2.45,0-4.91,0-7.36A1,1,0,0,1,7.24,0H18.4a1,1,0,0,1,1.14,1.14q0,3.71,0,7.43a.45.45,0,0,0,.22.45,12.71,12.71,0,0,1,5.48,7.43c.07.23.15.31.39.3.48,0,1,0,1.44,0h.33c.46,0,.61.15.61.61q0,1.8,0,3.6c0,.47-.13.6-.62.61ZM12.84,29.61A9.79,9.79,0,1,0,3,19.93,9.78,9.78,0,0,0,12.84,29.61Z"/><path class="cls-1" d="M12.2,15.31q0-1.59,0-3.18c0-.52.07-.59.59-.6s.67,0,.67.68q0,3.15,0,6.3a.62.62,0,0,0,.19.51,1.06,1.06,0,0,1,.27,1.18A1.15,1.15,0,0,1,13,21a.57.57,0,0,0-.34.22c-.81,1.21-1.61,2.43-2.42,3.64a.45.45,0,0,1-.84,0,.51.51,0,0,1,.09-.4c.62-1,1.25-1.9,1.88-2.84.08-.12.15-.24.23-.35.24-.33.47-.62.19-1.1A1,1,0,0,1,12,19a.75.75,0,0,0,.18-.44C12.21,17.47,12.2,16.39,12.2,15.31Z"/></g></g></g></svg>