<svg xmlns="http://www.w3.org/2000/svg" viewBox="0 0 35.12 35.17"><defs><style>.cls-1{fill:#6a625e;}</style></defs><title>Asset 89</title><g id="Layer_2" data-name="Layer 2"><g id="graphic_elements" data-name="graphic elements"><g id="Layer_134" data-name="Layer 134"><path class="cls-1" d="M32,13.19c.36,0,.72,0,1.09,0a1.64,1.64,0,0,0,1.3-.5A2.88,2.88,0,0,0,35,9.93a2.29,2.29,0,0,0-1.91-1.67,12.57,12.57,0,0,0-1.47-.1l-.09-.3A5.05,5.05,0,0,0,30,5.31,5.85,5.85,0,0,0,25.76,3.9a1.93,1.93,0,0,1-1.09-.31c-.58-.36-1.18-.7-1.78-1a1.52,1.52,0,0,0-1.46,0c-.37.19-.71.43-1.08.64s-.59.17-.79-.23-.26-.62-.43-.91A13.13,13.13,0,0,0,18.07.38a.88.88,0,0,0-1.44,0,6.83,6.83,0,0,0-.85,1.19c-.26.44-.46.93-.7,1.39s-.46.43-.83.19-.56-.38-.85-.55a1.31,1.31,0,0,0-1.18-.17,9,9,0,0,0-1.61.76,3.92,3.92,0,0,1-2.24.72A5.15,5.15,0,0,0,3.18,7.67c-.11.39-.25.52-.66.53A2.39,2.39,0,0,0,0,10.28,4.1,4.1,0,0,0,.2,11.84,1.72,1.72,0,0,0,2,13.19c.31,0,.62,0,.94,0,.57,0,.73.14.9.69A3.14,3.14,0,0,1,3.6,16c-.44,1.09-.94,2.16-1.35,3.26a12,12,0,0,0-.82,4.66A4,4,0,0,0,5,28.2c.31.06.3.25.33.46l.58,5.94c0,.43.19.57.62.57H8.25c.41,0,.57-.14.61-.54.19-1.95.4-3.89.57-5.83,0-.36.14-.47.51-.47q7.5,0,15,0c.33,0,.44.09.47.43.18,1.94.38,3.88.57,5.82,0,.47.18.58.64.59h1.73c.4,0,.55-.14.59-.54.19-2,.4-3.93.57-5.9,0-.33.12-.46.47-.5a3.82,3.82,0,0,0,3.47-3,7.31,7.31,0,0,0,.19-1.54,15.23,15.23,0,0,0-1.71-6.61,9.78,9.78,0,0,1-.71-2,4.17,4.17,0,0,1,.09-1.41A.63.63,0,0,1,32,13.19ZM4.08,7.93a4.16,4.16,0,0,1,3.81-3A7.79,7.79,0,0,1,9,4.84a2.14,2.14,0,0,0,1.23-.32l1.69-1a1,1,0,0,1,1.18,0c.29.19.57.4.88.57a1.25,1.25,0,0,0,1.77-.47c.35-.61.64-1.24,1-1.85.16-.26.36-.5.57-.8a6,6,0,0,1,1.32,2.19,1.43,1.43,0,0,0,2.27.81l.3-.2a1.3,1.3,0,0,1,1.86-.06l1.31.84a2.17,2.17,0,0,0,1.33.34,5.51,5.51,0,0,1,2.77.54A4.07,4.07,0,0,1,30.7,8.43l-.87.45a2.61,2.61,0,0,0-.85.69,8.65,8.65,0,0,0-.6,1,5,5,0,0,0-.48,2.89c.07,1.07.22,2.13.37,3.19s.4,2.37.6,3.55c0,.06,0,.12,0,.28a4.24,4.24,0,0,0-2.21-.89c-.67-.07-1.34-.06-2-.07h-2.2c-4.06,0-8.12,0-12.18,0a15.33,15.33,0,0,0-2.39.16,6.39,6.39,0,0,0-1.39.55,3.79,3.79,0,0,0-.34.21c.15-.86.29-1.64.42-2.41.2-1.37.43-2.74.57-4.11A6.15,6.15,0,0,0,6.45,10,2.83,2.83,0,0,0,5.22,8.86L4,8.28A3.15,3.15,0,0,1,4.08,7.93Zm26.28,7.67c.4,1.12.88,2.21,1.33,3.31a13.08,13.08,0,0,1,1,4.3c0,.24,0,.48,0,.72a3.18,3.18,0,0,1-3.27,3.43c-.33,0-.65,0-1,0H6.54a8.33,8.33,0,0,1-1.64-.16,2.88,2.88,0,0,1-2.47-2.65,9.13,9.13,0,0,1,.42-4.07c.35-1.09.84-2.12,1.23-3.19A23.9,23.9,0,0,0,4.83,15a2.79,2.79,0,0,0-.29-1.89,1.42,1.42,0,0,0-1.27-.88c-.4,0-.79,0-1.19,0a.93.93,0,0,1-1-.74,3.31,3.31,0,0,1-.15-.67A1.43,1.43,0,0,1,2.07,9.21a3.3,3.3,0,0,1,4.11,2.94,14,14,0,0,1-.25,4.06c-.32,2.11-.65,4.23-.92,6.35a4.51,4.51,0,0,0,.18,1.6,1.14,1.14,0,0,0,1.24,1c.64,0,1.3.06,1.95.06H28.55a1.35,1.35,0,0,0,1.4-1.26,10.48,10.48,0,0,0,0-2.51c-.17-1.44-.49-2.87-.71-4.31a18.2,18.2,0,0,1-.4-4.81,3.31,3.31,0,0,1,1.28-2.49A3.45,3.45,0,0,1,32.9,9.2,1.46,1.46,0,0,1,34.15,11c-.13,1-.48,1.29-1.47,1.26-.27,0-.55,0-.83,0a1.48,1.48,0,0,0-1.33.91A3.15,3.15,0,0,0,30.37,15.59Z"/></g></g></g></svg>