<svg xmlns="http://www.w3.org/2000/svg" viewBox="0 0 36.58 36.52"><defs><style>.cls-1{fill:#6a625e;}</style></defs><title>Asset 34</title><g id="Layer_2" data-name="Layer 2"><g id="graphic_elements" data-name="graphic elements"><g id="Layer_134" data-name="Layer 134"><path class="cls-1" d="M18.26,36.52A18.49,18.49,0,0,1,5.25,31a1.18,1.18,0,0,1-.3-1.46,31.51,31.51,0,0,1,8.19-11.78c1.44-1.36,3-2.56,4.57-3.79a1.1,1.1,0,0,1,1-.09c5.28,3.8,9.7,8.37,12.37,14.4,1.1,2.49,1.25,1.84-.8,3.67A18,18,0,0,1,18.26,36.52Z"/><path class="cls-1" d="M32.92,29c-.59-7.93-5.18-13.61-10.39-19a20.53,20.53,0,0,1,7.2-5.29,1.12,1.12,0,0,1,1,.14,18.18,18.18,0,0,1,2.4,24.09S33,28.93,32.92,29Z"/><path class="cls-1" d="M14.07,10a46.37,46.37,0,0,0-7,8.59A25.6,25.6,0,0,0,3.46,29c-.64-1.16-1.37-2.28-1.92-3.49A18.28,18.28,0,0,1,5.66,5,1,1,0,0,1,7,4.67,21.51,21.51,0,0,1,14.07,10Z"/><path class="cls-1" d="M18.26,6.67C15.32,4.46,12.3,2.56,8.43,3,11.81-1,23.84-1,28.2,3,24.43,2.86,23.17,3.33,18.26,6.67Z"/></g></g></g></svg>