<?xml version="1.0" encoding="utf-8"?>
<!-- Generator: Adobe Illustrator 19.0.0, SVG Export Plug-In . SVG Version: 6.00 Build 0)  -->
<svg version="1.1" id="Layer_1" xmlns="http://www.w3.org/2000/svg" xmlns:xlink="http://www.w3.org/1999/xlink" x="0px" y="0px"
	 viewBox="0 0 439.3 90.5" style="enable-background:new 0 0 439.3 90.5;" xml:space="preserve">
<path d="M47.1,54.2C47.1,54.2,47.1,54.2,47.1,54.2L47.1,54.2c-0.3-1.9-0.5-3.8-0.9-5.6c-1-5.3-1.4-10.6-2.7-15.8c0,0,0,0,0,0
	c-1.6-10.3-3.2-20.6-4.8-30.9c-0.2-1-0.6-1.4-1.7-1.4c-6.3,0-12.6,0-18.9,0c-1.1,0-1.4,0.5-1.5,1.4c-0.6,3.5-1.4,6.9-2,10.4
	c-1.2,6.3-2.3,12.5-3.4,18.8c-0.7,1.1-0.5,2.5-0.8,3.7l0,0c0,0,0,0,0,0c-0.1,0.8-0.7,1.5-0.5,2.3c-0.6,3.5-1.6,7-1.9,10.6l0,0
	c-0.7,1.8-0.8,3.7-1.2,5.6C4.5,64.6,2.3,76,0.1,87.4c-0.3,1.4,0.1,1.9,1.6,1.9c3.3-0.1,6.6,0,9.9,0c3.1,0,3,0,3.2-3
	c0.3-4.2,0.8-8.4,2.4-12.4c0.7-1.6,1.7-2.6,3.6-2.5c3,0.1,6,0,9,0c4.1,0,5.1,0.7,6.2,4.6c1.1,3.9,1.3,7.9,1.4,11.9
	c0,1.2,0.4,1.5,1.6,1.5c4.1-0.1,8.2-0.1,12.2,0c1.5,0,1.6-0.5,1.4-1.8C50.8,76.4,49,65.3,47.1,54.2z M18.2,54.4
	C18.2,54.4,18.2,54.4,18.2,54.4c0,0.1,0,0.1,0,0.2C18.2,54.5,18.2,54.4,18.2,54.4z M30.2,57.1c-3,0.1-6,0-9,0
	c-1.4,0-1.7-0.7-1.5-1.9c0.2-1.2,0.6-2.4,0.2-3.7c0-0.1-0.1-0.2-0.1-0.3c1-0.6,0.6-1.6,0.5-2.5c-0.1-0.2-0.2-0.4-0.3-0.6
	c0.9-5.3,1.7-10.5,2.6-15.8c0.2-0.1,0.3-0.1,0.5-0.3c0.9-1.7,0.9-3.6,1.2-5.4c0.7-4.5,1.4-8.9,2.2-13.6c1.3,1.6,1.7,3.3,1.9,4.9
	c0.6,3.6,1.2,7.3,1.6,11c0.2,2,0.2,4.1,1.3,5.9c-0.5,0.6-0.4,1.4-0.4,2.2c0.3,4.6,1.1,9.1,1.3,13.7c0,0.7,0,1.5,0.6,1.8
	c-0.1,0.2-0.1,0.3-0.2,0.5C32.6,56.5,32.3,57.1,30.2,57.1z M439.3,88.3c0,1.1-0.5,1.2-1.4,1.2c-1,0-2,0.1-2.9,0.2
	c-0.8,0.9-1.9,0.8-3,0.8c-8.1,0-16.3,0-24.4,0c-1.1,0-2.2,0-3-0.8c-1.4-0.1-1.7-0.7-0.8-1.8c1.4-1.7,3.1-3,5.3-3.3
	c1.5-0.2,1.9-0.8,1.9-2.3c-0.1-10,0-20,0-29.9c0-13-0.1-26.1-0.1-39.1c0-3,0-6,0.1-9c-0.6-1.9-2.1-0.9-3.1-0.9
	c-2.3,0-3.8-0.9-4.7-2.9c0.6-0.7,1.3-0.4,2-0.4c10.1,0,20.2,0,30.3-0.1c1.8,0,2.4,0.4,2.3,2.3c-0.2,2.5-0.1,4.9,0,7.4
	c0,1.3-0.3,1.7-1.7,1.7c-4.7-0.1-9.4,0-14.1-0.1c-1.7,0-2.4,0.3-2.2,2.2c0.2,2.1,0,4.3,0,6.5c0,5.1,0.1,10.1,0,15.2
	c0,1.7,0.3,2.4,2.2,2.3c4.1-0.2,8.3,0,12.4-0.1c1.4,0,1.9,0.4,1.9,1.8c-0.1,2.5-0.1,4.9,0,7.4c0.1,1.4-0.5,1.7-1.7,1.6
	c-3.9-0.1-7.8,0.1-11.8-0.1c-2.3-0.1-3.5,0.3-3.1,2.8l0,0c0,8.4,0.1,16.7,0,25.1c0,1.7,0.3,2.4,2.2,2.3c5.1-0.2,10.3-0.1,15.4-0.2
	c0.6,0,1.2,0,1.8,0.1C439.2,81.6,439.2,84.9,439.3,88.3z M191.8,72.2L191.8,72.2c-0.5-0.9-1.4-0.5-2.1-0.5c-4.5,0-9.1-0.1-13.6,0
	c-1.4,0-1.9-0.3-1.9-1.8c0.3-5.1-0.2-10.1-0.1-15.2c0.2-15.7,0.1-31.4,0.1-47c0-0.7,0.3-1.5-0.4-2.2c-3.5-0.7-7.1-0.1-10.6-0.3
	c-1.9-0.1-2.5,0.5-2.5,2.4c0.1,11.9,0.1,23.9,0.1,35.8c-0.4,0.5-0.3,1-0.3,1.5c0,11.4,0,22.8,0,34.2c0,0.5-0.3,1.3,0.5,1.6v0h0
	c0,0,0,0,0,0v0c2.4,0,4.9,0.1,7.3,0.1c7.3,0,14.6,0,21.8,0c0.8,0,1.9,0.5,1.9-1.2C191.9,77.3,191.9,74.7,191.8,72.2L191.8,72.2z
	 M173.5,15.5c0.1-0.1,0.2-0.1,0.3-0.2c0,0.1,0,0.1,0,0.2C173.7,15.5,173.6,15.5,173.5,15.5z M173.8,7.9c-0.2,0-0.4-0.1-0.5-0.2
	C173.4,7.8,173.6,7.8,173.8,7.9C173.8,7.9,173.8,7.9,173.8,7.9z M137.7,14.4c0,6.8,0.1,13.7,0,20.5c0,1.7,0.4,2.2,2.1,2.2
	c3.8-0.1,7.5,0.1,11.3,0.1c0,0,0,0,0,0c0,0,0,0,0,0l0,0c0,0,0,0,0,0c0.8,2.8,0.2,5.6,0.3,8.4c0,1.3-1.1,1-1.9,1
	c-3.3,0-6.6,0.1-9.9,0c-1.4,0-1.9,0.4-1.8,1.8c0.1,4.4,0,8.8-0.1,13.1c0,2.9,0.1,5.9,0,8.8c0,1.5,0.4,1.8,1.8,1.8
	c5.5-0.1,11.1,0,16.6-0.1c1.4,0,2.1,0.3,1.9,1.9c-0.1,1.8-0.1,3.5,0,5.3c0.1,1.2-0.2,1.7-1.6,1.7c-8.8-0.1-17.6,0-26.3,0
	c-0.2,0-0.4-0.1-0.9-0.2c1.2-1.6,2.6-3,3-4.9l0,0c0-12.1,0-24.3,0.1-36.4c0-2-0.5-2.7-2.5-2.6c-1.3,0-2.9,0.8-4.2-0.3
	c-0.2-0.1-0.3-0.2-0.4-0.4c-0.1-1.6-0.2-3.2,0.2-4.8c0.2-0.8,0.7-1.6,1.6-1.8c0.3-0.2,0.7-0.4,1-0.5c4.5-0.5,5-1.9,4.9-7.7
	c-0.1-4.5-1.3-8.8-3-12.9c-0.3-0.8-0.6-1.7-0.9-2.6c1-0.5,2-0.2,3-0.2c8,0,16,0,24,0c1.6,0,2.2,0.4,2,2c-0.3,2,0.9,4.7-0.5,6
	c-1.2,1.2-3.8,0.3-5.8,0.3c-4,0-8,0-12,0C139.1,13.9,138.3,13.5,137.7,14.4z M91.8,59.5c0-0.1,0-0.3,0-0.4c0,0,0,0,0,0
	c0-2,0-3.9,0-5.9c0.1-15.1,0-30.1,0.1-45.2c0-0.7,0.2-1.4-0.3-2c0,0,0,0,0,0c-2-0.8-4-0.2-6.1-0.4c-2.1-0.2-2.9,1-3.2,2.8
	c-0.2,0.9-0.2,1.8-0.2,2.7c0.5,8.8,1,17.6,1.5,26.4c-0.1,6.9,0.4,13.7,0.3,20.6c0,0.2,0,0.3,0,0.5c0,0.1,0,0.3,0,0.4
	c0,1.3-0.1,2.6-0.2,3.9v0c-0.1,2-0.2,4-0.8,5.9c-0.2,0.6-0.2,1.3-1,1.4c-0.8,0.1-1.3-0.4-1.7-1c-0.5-0.9-0.9-1.8-1.3-2.7
	c-1.1-3-1.7-6.1-2.4-9.1c-0.1-0.8-0.2-1.6-0.4-2.5c-0.8-4.7-1.6-9.5-2.3-14.2c0,0,0,0,0,0c0,0,0,0,0,0c-0.8-5.8-1.5-11.6-2.5-17.3
	c-0.7-4.5-1.3-9.1-2.6-13.6c-0.9-3.1-2.5-4.3-5.7-4.4c-4.3-0.1-8.6,0-12.9-0.1c-1.3,0-1.8,0.3-1.8,1.7c0.1,11.9,0.1,23.7,0.1,35.6
	c0,0,0,0,0,0l0,0c0.4,3.6,0.8,7.2,1.8,10.7c0.2,1.4,0.3,2.7,0.5,4.1c1.1,7.2,2.3,14.4,3.3,21.6c0.3,2.1,1.6,1.5,2.8,1.6
	c1.5,0.1,1.3-0.8,1.3-1.8c0-8.4-0.1-16.8-0.1-25.1c0-4,0-8,0-12h0c0,0,0,0,0,0c0-8.7,0.1-17.5,0.1-26.2c0-0.9-0.3-2,1.2-1.9
	c1.2,0.1,2.5-0.5,2.9,1.6c1.3,7.8,2.8,15.5,4.2,23.3c0,0,0,0,0,0c0,0,0,0,0,0c0.1,1,0.2,2,0.4,3c0.9,5.1,1.7,10.2,2.6,15.3
	c0,0.2,0,0.5,0.1,0.7c1.1,7.3,2.3,14.7,3.4,22c0.1,0.8,0.5,1.1,1.4,1.1c5.7-0.1,11.3-0.1,17-0.2c0,0,0,0,0,0
	c0.8-0.6,0.4-1.4,0.4-2.1C91.9,72,91.8,65.8,91.8,59.5z M49.6,44.2c0.1,0,0.2,0,0.3-0.1c0,0.1-0.1,0.2-0.1,0.4
	C49.7,44.4,49.6,44.3,49.6,44.2z M129.1,75L129.1,75c-0.9,2.8-3.1,4.2-5.6,5c-8.1,2.6-16.3,3.3-24.5,0.8c-3.8-1.1-4.3-2-4.3-5.9
	c0-5.1,0.1-10.2,0.1-15.2l0,0c0-1.2,0-2.5,0-3.7c0-2.5,0-4.9,0-7.4C94.6,35.3,94.7,22,95,8.7c0-0.3,0.2-0.6,0.3-0.9
	c-0.5-1.9,0.3-2.6,2.3-3c6.3-1.1,12.6-1.8,19-0.7c8.7,1.4,12.8,5.9,13.4,14.6c0.4,6.2,0.4,6.2-5.7,6.2c-1.6,0-3.2-0.1-4.8,0
	c-1.4,0.1-1.9-0.3-1.9-1.8c0.1-2.6-0.5-5-1.6-7.3c-1.2-2.3-2.9-3.7-5.6-3.8c-2.7,0-3.9,1.7-4.9,3.8c-2.1,4.6-2.1,9.5-2.6,14.4
	c-0.1,1-0.1,2-0.2,3c0,0,0,0,0,0h0c0,5.4,0,10.8,0,16.2h0c0.1,2.6,0.3,5.3,0.4,7.9c0.2,1.2,0.3,2.5,0.5,3.7v0c0.5,2.3,0.9,4.7,2,6.8
	c0.9,1.9,2.3,3.3,4.6,3.3c2.2,0,3.4-1.4,4.3-3.3c1.1-2.2,1.3-4.5,1.8-6.9c0-0.3,0-0.6,0-0.9c0.3-3.5,0.3-7.1-0.2-10.6
	c-0.2,0-0.3,0-0.5,0c-1.2-0.6-3.3,1.2-3.6-1.4c-0.4-3.8,0.6-5.9,3.2-6.4c3.2-0.6,6.5-0.9,9.8-0.1c1.3,0.3,2.7,0.1,4.1,0.1
	c0.7,0.4,0.4,1.1,0.4,1.6c0,9.9,0.1,19.8,0.1,29.7C129.5,73.7,129.7,74.4,129.1,75z M334.2,15.5c-1.6-1.3-2.6-2.9-3.3-4.9
	c-0.6-1.5,0.2-3.8-1.5-4.5c-1.4-0.6-3.3-0.2-5-0.2c-0.5,0-0.9,0-1.4,0c-3.3,0-5.4,1.5-6.2,4.7c-0.5,1.9-0.7,3.9-1,5.9
	c-0.8,5.1-1.1,10.3-2.3,15.4l0,0c-0.4,3.5-0.7,7-1.1,10.5c-0.7,3.2-1.2,6.4-1.3,9.7c-0.5,3-1,6.1-1.5,9.1c-0.1,0-0.2,0-0.3,0
	c-1.4-0.8-2.8-1.4-3.2-3.2c0.1-0.3,0.2-0.6-0.1-0.8c-0.4-1.9-0.9-3.8-1.3-5.7c0,0,0,0,0,0c-0.7-5.1-1.3-10.2-2.3-15.3c0,0,0,0,0,0
	c-1.2-9.1-2.4-18.3-3.6-27.4c-0.3-2.3-2-3.5-4.9-3.5c-4.9,0-9.8,0-14.8,0c-0.4,0-0.9-0.2-1.3,0.5c0.4,0.5,0.8,1,1.2,1.5
	c3.1,3.9,5.2,7.9,4.9,13.2c-0.4,6.1,0,12.3,0,18.5c0,4.9,0,9.9,0,14.8c0,2.5,0,5,0,7.5c0.1,4.2,0,8.4-1.9,12.4
	c-1.2,2.4-2.6,4.6-4.3,6.9c4.3,0,8.2,0,12.2,0c0,0,0,0,0,0c0,0,0,0,0,0h0v0c0.9-0.6,0.4-1.6,0.4-2.3c0-13,0-26,0-39
	c0-7.6,0.1-15.2,0.2-22.8c0.5,0,0.9,0.1,1.4,0c2-0.3,2.6,0.4,2.8,2.4c0.8,7.8,1.8,15.6,2.7,23.3c0.3,3.7,0.6,7.5,1.3,11.2
	c0.2,2.9,0.4,5.9,0.9,8.8l0,0c0.4,3.7,1.1,7.3,1.3,11c0.2,4.2,2.3,6.4,7,7.6c1.5,0.4,3.1,0.2,4.6,0.3c1.2,0.1,1.6-0.4,1.7-1.5
	c0.7-5.8,1.5-11.6,2.3-17.3v0c0,0,0,0,0,0c0.1-0.2,0.1-0.4,0.1-0.6c0.4-2.9,0.8-5.8,1.2-8.7c0,0,0,0,0,0h0c0.1-1,0-2,0.2-3
	c1.1-4.6,1.5-9.4,2.1-14.1c0,0,0,0,0,0c0.2-1.3,0.4-2.6,0.6-3.9c0.6-4.5,1.2-9,1.8-13.5c0.2-1.4,1-2.2,2.5-2
	c1.7,0.2,1.1,1.5,1.1,2.3c0.1,6,0.1,12,0.2,18c0,5.4,0,10.8,0,16.1c0,1.9,0,3.7,0,5.6c0,0.9,0,1.8,0,2.8c0,6.2,0,12.4,0,18.7
	c0,0.3,0.2,0.5,0.3,0.8c3.3,0.5,6.5,0.5,9.8,0c0,0,0,0,0,0c0,0,0,0,0,0v0l0,0c0.6-0.3,0.4-0.9,0.4-1.4c0-5.4,0-10.8-0.1-16.1h0l0,0
	c0-14,0-28.1,0-42.1C337.1,18.8,336.1,17,334.2,15.5z M289.4,42.8c-0.1-0.1-0.1-0.2-0.2-0.3c0.1,0,0.1-0.1,0.2-0.1
	C289.4,42.6,289.4,42.7,289.4,42.8z M303.2,53.1C303.1,53.1,303.1,53.1,303.2,53.1C303.1,53.1,303.1,53.1,303.2,53.1
	C303.1,53,303.1,53,303.2,53.1z M408.3,79.3c-0.1-9-0.1-18-0.1-27h0c0-6.2,0-12.3,0-18.5v0c0,0,0,0,0,0c0-7.2,0.1-14.4,0-21.7
	c0-2,0.9-4.5-0.4-5.8c-1.2-1.2-3.8-0.3-5.8-0.4c-2.7,0-3.5,0.7-3.5,3.4c0,10,0,20,0,29.9c0,4.6,0,9.3,0,13.9c0,4.9-0.1,9.7-0.1,14.6
	c0,1.5-0.2,2.8-1.6,3.6c-1,0.6-1.7,0.6-2-0.8c-1-5.5-2-11-2.9-16.5c0.1-2.1-0.6-4.1-0.9-6.1c-0.9-5.1-1.4-10.3-2.7-15.3c0,0,0,0,0,0
	c-0.3-2.1-0.6-4.3-0.9-6.4c0.3-0.5,0.3-0.9-0.1-1.3c-1.1-5.8-2.2-11.6-3.1-17.4c-0.2-1.3-0.7-1.6-1.9-1.6c-3.5,0-6.9,0-10.4,0
	c-1.3,0-1.7,0.4-1.8,1.7c-0.1,2.6-1.1,4.9-3.1,6.7c-1.7,1.6-2.3,3.6-2.1,5.8c0.5,6.6,2,13,3.4,19.4c0,0,0,0,0,0c0,0,0,0,0,0
	c0.7,6,2,11.8,3.2,17.7c0,0,0,0,0,0c1.3,7.4,2.7,14.8,3.9,22.2c0.3,1.8,1.6,1.3,2.6,1.3c1.5,0.1,1-1.1,0.9-1.8
	c-0.4-8.2-0.9-16.4-1.4-24.6c-0.2-4.5-0.2-8.9-0.6-13.4c0-0.5,0-1-0.2-1.6c-0.3-6.1-0.7-12.3-0.9-18.4c0-1.2-0.9-3.2,0.5-3.4
	c1.7-0.3,1.9,1.8,2.2,3.2c1,5.5,2.1,11,3.1,16.5c0,0,0,0,0,0c1.1,6.1,2.2,12.3,3.3,18.4c1.4,7.9,2.8,15.8,4.1,23.8
	c0.2,1.2,0.8,1.2,1.7,1.2c5.2,0,10.5-0.1,15.7,0C407.9,81,408.3,80.7,408.3,79.3z M386.2,55.3c0,0-0.1,0-0.1,0
	C386.1,55.3,386.2,55.3,386.2,55.3z M367.9,56.9c-0.1-0.8-0.2-1.7-0.4-2.5c-1-4.7-1.4-9.5-2.7-14.2l0,0c-1.3-7.5-2.6-15-3.9-22.4
	c-0.1-0.5-0.2-1.1-0.8-1.3c-4.1-1.9-5.6-5.7-7-9.6c-0.8-2.1-2.3-1.2-3.6-1.4c-1.4-0.2-1.4,0.9-1.5,1.8c-0.7,4.2-2.7,7.5-7,8.8
	c-1,0.3-1.2,1-1.2,1.9c0,6.5-0.1,12.9-0.1,19.4c0,0,0,0,0,0l0,0c-0.6,7.4-0.3,14.8-0.3,22.2c-0.2,6.6-0.3,13.2-0.5,19.8
	c0,0.7-0.2,1.4,0.8,1.6c2.5,0.7,3.8-0.2,4-2.7c0.1-1.4,0.1-2.8,0.2-4.1c0.4-8.3,1.9-9.7,10.2-9.6c5.5,0.1,4.7-0.4,4.9,4.6
	c0,0.5,0.1,0.9,0.1,1.4c-0.2,8.5,2.1,10.8,11.3,10.4c1.8-0.1,2-0.7,1.7-2.2C370.7,71.7,369.3,64.3,367.9,56.9z M347.5,32.8
	c0.4-3.9,1-7.8,1.5-11.6c0.2-1.1-0.1-2.8,1.7-2.7c1.7,0,1.4,1.6,1.7,2.6c0.3,1.3,0.4,2.7,0.7,4.1c0.7,4.3,0.9,8.7,2.1,12.9
	c0.2,0.1,0.4,0.2,0.6,0.3c0,0-0.1,0-0.1,0c-0.8,0.8-0.4,1.7-0.3,2.6c0.5,4,1.1,7.9,1.7,11.9c0.3,1.7-0.3,2.4-2,2.4
	c-2.8-0.1-5.7-0.1-8.5,0c-1.5,0-1.9-0.5-1.7-1.9c0.6-3.7,1-7.5,1.6-11.2c0.2-1.1,0.4-2.2-0.3-3.1c0.1-0.1,0.2-0.3,0.3-0.4
	C346.5,36.6,347.3,34.8,347.5,32.8z M246.4,32L246.4,32c0-0.5,0-0.9,0-1.4c-0.1-3.9-0.3-7.9-1.3-11.7c0,0,0,0,0,0
	c-0.4-6-3.2-10.1-9-12.1c-2-0.7-4-1.1-6.1-1.1c-7.8,0-15.5,0-23.3,0c0,0,0,0,0,0c0,0,0,0,0,0c-0.9,0.3-0.5,1-0.5,1.6
	c0,18.1,0.1,36.3,0.1,54.4h0c0,5.9,0,11.8-0.1,17.7c0,1.7,0.6,1.8,2,1.8c6.9,0,13.8,0,20.7,0c4.5,0,8.1-1.9,11.1-5.2
	c3.5-3.9,5.2-8.4,5.5-13.6c0,0,0,0,0,0c0.4-2.6,0.8-5.3,0.8-7.9h0l0,0c0.2-2.8,0.4-5.5,0.4-8.3c0-4.2,0.3-8.4-0.3-12.6
	C246.5,33.1,246.4,32.5,246.4,32z M232.5,64.2c-1.4,4.6-4.9,7.2-9.6,7.4c-1.5,0.1-2.1-0.5-2.1-1.9c0-2,0-4,0-6c0-0.8,0-1.7-0.6-2.3
	c1.1-1.6,0.8-3.3,0.2-5c-0.1-0.1-0.2-0.1-0.2-0.2c0-4.3,0-8.5,0-12.8c-0.1,0-0.1,0-0.2,0c0.2-0.1,0.3-0.1,0.5-0.2
	c0.5-0.9,0.4-2,0.4-3c0-4.3,0-8.6,0-12.9c0-3.1,0-6.2,0-9.2c0-0.9,0.1-1.8,1.3-2.1c3.3-0.8,8.3,1.2,10.1,4.2
	c0.4,0.7,0.7,1.6,1.4,2.1c0.1,0,0.2-0.1,0.3-0.1c0,0,0,0,0,0c0.1,1,0.2,2,0.4,3c0,0.5,0.1,1,0.2,1.5c0.1,1.1,0.3,2.2,0.4,3.3
	c0,0.1-0.1,0.2-0.1,0.3c0,0.2,0,0.5,0,0.7c0,0.1,0.1,0.1,0.1,0.2c-1.2,4.6-1,9.3,0,13.9c0,0,0,0,0,0.1c-0.1,0.1-0.2,0.2-0.2,0.3
	c-0.6,2.1-0.5,4.4-0.8,6.5c-0.2,1.2-0.3,2.6,0.4,3.8c0.1-0.1,0.2-0.2,0.3-0.3c-0.1,0.1-0.1,0.3-0.1,0.4c-1.5,1.6-1.5,3.4-0.6,5.3
	C232.8,61.9,232.8,63.1,232.5,64.2z M280.6,55.1C280.6,55.1,280.6,55.1,280.6,55.1C280.6,55.1,280.6,55.1,280.6,55.1
	c0.1-3.2,0.2-6.5,0.3-9.7c0,0,0,0,0,0c0-0.1,0-0.2,0-0.3c0.1-2.5,0.1-5,0.2-7.5c0.1-3.4,0.2-6.9-0.4-10.3c0,0,0,0,0,0
	c0-1.9,0-3.8-0.1-5.8c-0.2-3.4-1.1-6.5-3.2-9.2c-5.2-6.7-12.4-7.3-20-6.5c-3.2,0.4-6.3,1.1-9.2,2.7c-0.8,0.4-1.3,0.9-0.8,1.9
	c2,4.4,2.2,9.2,2.3,14c0.1,3.8,0.3,7.5,0.4,11.3c0,5.9,0,11.7,0.1,17.6l0,0c-0.1,3.2-0.3,6.5-0.4,9.7l0,0c0,3.6-0.8,7.2-1.6,10.7
	c-0.3,1.4,0.1,2.1,1.1,2.9c5.4,4.1,11.5,5.3,18.1,4.2c7.4-1.2,12.4-7.8,13-16.3C281,61.3,280.5,58.2,280.6,55.1z M255.7,40.2
	L255.7,40.2C255.7,40.2,255.7,40.2,255.7,40.2c-0.1-0.1-0.2-0.2-0.2-0.3c0.1,0,0.1,0,0.2-0.1C255.7,40,255.7,40.1,255.7,40.2z
	 M269,64.6c-0.2,4.7-2.3,6.7-7,6.5c-2.9-0.1-4.3-1.5-5.4-5.3c0,0,0-0.1,0-0.1c0.4-0.7,0.4-1.6,0.4-2.5c0-14.2,0-28.4,0-42.6
	c0-0.8,0.1-1.7-0.3-2.4c0-0.1,0-0.2,0.1-0.2c0.5-1.9,1.3-3.6,3.3-4.5c4.5-2,8.8,0.7,9,5.9c0.1,6.6,0,13.3,0.1,19.9
	c0,1.1-0.2,2.3,0.5,3.4c0.1,0,0.1,0.1,0.2,0.1c-1.4,4-0.8,8.1-0.3,12.2c0.1,0.1,0.2,0.2,0.3,0.3c-1.1,2.1-1.1,4.2,0,6.3
	C268.7,62.3,269,63.5,269,64.6z M340,13c-2.5,0-4.8-2.5-4.8-5c0-2.6,2.2-4.7,4.9-4.7c2.7,0,4.8,2,4.8,4.7C345,10.7,342.6,13,340,13z
	 M357.4,7.9c0.1-2.7,2.3-4.7,5-4.6c2.7,0,4.7,2.1,4.7,4.8c0,2.6-2.3,4.9-4.8,4.9C359.7,13,357.3,10.4,357.4,7.9z"/>
</svg>
