<?xml version="1.0" encoding="utf-8"?>
<!-- Generator: Adobe Illustrator 19.0.0, SVG Export Plug-In . SVG Version: 6.00 Build 0)  -->
<svg version="1.1" id="Layer_1" xmlns="http://www.w3.org/2000/svg" xmlns:xlink="http://www.w3.org/1999/xlink" x="0px" y="0px"
	 viewBox="0 0 1667.8 783.9" style="enable-background:new 0 0 1667.8 783.9;" xml:space="preserve">
<g>
	<path d="M1667.8,375.4c-1.3,11.2-2.6,22.4-4,33.6c-0.9,6.8-4.5,8.5-10.8,5.3c-9.2-4.6-18.5-9.2-27.9-13.5c-2-0.9-5.1-1.5-6.8-0.5
		c-1.2,0.7-1.3,4.1-1.2,6.3c1.4,18.2,2.9,36.5,4.4,54.7c0.5,6.6,1.7,13.2,1.5,19.8c-0.4,13.1-0.8,26.3-2.5,39.3
		c-2.3,17.1-6,34.1-12.3,50.3c-6.1,15.8-11.9,31.8-19.3,47.1c-14.4,29.9-33.3,56.8-57.2,80.1c-24.4,23.8-50.5,45.2-81.2,60
		c-14.9,7.2-30.8,12.5-46.7,17.2c-13,3.9-26.7,5.7-40.1,8.1c-4.2,0.7-8.6,0.5-13,0.3c-4.3-0.3-5.8-3.1-5.7-8.3
		c0.5-18.7,6.4-35.9,14.6-52.5c4.2-8.3,7.9-16.9,11.9-25.3c2.1-4.5,0.3-7.9-2.5-11.4c-5-6.2-10.2-12.3-14.6-18.9
		c-8.8-13.2-13.8-28-16.1-43.7c-1.6-10.6,1.6-14.5,12.1-14.4c25.5,0.2,50.5,3.6,74,14.1c11.4,5.1,23.2,9.6,33.5,16.5
		c10.5,7,30.9-3.6,29.5-16.2c-0.7-6.6-1.1-13.3-2.1-19.9c-0.7-4.7-4.5-5.5-8.8-5.5c-9.8,0.1-19.6,0.1-29.4-0.2
		c-6.6-0.2-8.1-2.1-6.4-8.6c4.3-16.2,9-32.4,13.8-48.5c3.7-12.3,8-24.5,7.1-37.5c-0.2-3.6-1.4-7.7-3.6-10.5
		c-15.5-20.4-33.4-38.5-52.3-55.6c-20.1-18.2-40.5-36.2-60.7-54.2c-2.5-2.2-5.1-4.3-7.9-6c-1-0.6-3-0.7-4.1-0.1
		c-0.7,0.4-0.9,2.4-0.7,3.6c2.6,15-3.2,27.5-11.8,38.9c-8.5,11.3-19.6,19.9-32.2,26.4c-5.7,2.9-9,1.2-10.4-5
		c-3.5-15.8-4.2-31.9-5.8-48c-1.2-11.4,0.5-22.1,1.3-33.1c0.1-1,0.4-2,0.2-3c-0.4-1.9-1.1-3.7-1.6-5.5c-1.9,0.7-4.1,1.1-5.5,2.3
		c-11.4,10.4-25.6,14.3-40.2,15.9c-8.8,1-17.9,0-26.7-0.8c-5.8-0.5-7.1-3.2-5.3-8.7c6.9-20.4,19.3-37.1,35.4-51.1
		c6.9-6,14.6-11,21.9-16.5c4.8-3.6,5.4-5.7,1.9-10.4c-4.1-5.4-8.6-10.6-13.2-15.6c-23.4-25.3-47-50.5-70.5-75.7
		c-15.5-16.6-31.2-32.9-43.7-51.9c-5.2-8-9.3-16.5-7.5-26.7c1.2-6.6,4.1-9.6,10.6-7.8c6.5,1.8,12.6,5,18.8,7.7
		c1.5,0.7,2.8,2,4.3,2.5c1.1,0.4,2.9,0.4,3.6-0.3c0.7-0.6,0.9-2.5,0.5-3.6c-4.8-12.2-7.9-24.7-8-37.8c-0.1-6,0-12,0.9-17.9
		c1-6.5,6.2-9.7,12.9-8.9c3,0.4,6,1.2,8.9,1c23.7-1,45.7,6.1,67.6,13.8c3.8,1.3,8.2,2.3,12.1,1.7c13.7-1.9,26.1,1.6,36.9,9.2
		c10.9,7.7,22.7,10.5,35.7,10.5c15.7,0.1,30.9,3.5,45.2,9.4c19,8,37.3,17.6,56.3,25.7c9.5,4.1,19.3,7.7,30.2,7.8
		c18.3,0.1,36.6,2.2,54.9,1.3c13.4-0.6,23.2,2.6,31.5,13.4c14.7,18.9,30.9,36.7,45.4,55.7c14.1,18.5,27,38,40.3,57.2
		c10.9,15.7,18,33.3,24.9,51.1c6.6,17,10.9,34.6,13.9,52.5c1,6.2,0.8,12.6,1.1,18.9C1667.3,375.3,1667.6,375.4,1667.8,375.4z
		 M1255.6,115.1c5.5,0,11.1-5.4,11-10.7c-0.1-4.5-5.6-9.8-10.3-9.8c-5.2,0-10.3,4.9-10.4,10.1C1245.7,110.5,1250,115,1255.6,115.1z"
		/>
	<path d="M1065.5,63.2c-4-0.8-8.1-1.3-12-2.3c-14.2-3.5-28.3-7.4-42.6-10.6c-15.1-3.3-30.3-6.2-45.6-8.7c-11-1.8-22.1-2.7-33.2-3.7
		c-17.1-1.5-34.2-2-51.2-4.2c-29.8-3.7-59.6,0.2-89.3-1.6c-9.8-0.6-19.7,2-29.6,3c-6.6,0.7-13.3,1.1-19.9,1.7
		c-6.3,0.6-12.6,1.1-18.8,2.1c-19.1,2.9-38.2,5.3-57.1,9c-17.8,3.5-35.4,8-52.9,12.6c-14.2,3.7-28.2,7.9-42.1,12.3
		c-10.5,3.3-20.8,7.2-30.9,11.3c-14.5,5.9-29,11.8-43,18.7c-19.7,9.7-39.3,19.8-58.3,30.8C412,149.2,386.4,166.8,362,186
		c-31.1,24.5-60.2,51.2-86.8,80.4c-39.1,42.8-74.1,88.8-103.2,139c-14.5,25.1-28.1,50.7-42,76.1c-1.1,2-2.5,4-3.4,6.1
		c-0.7,1.6-1.4,3.8-0.8,5c0.7,1.1,3.1,1.6,4.7,1.7c9.9,0.3,19.9,0.1,29.8,0.8c15.7,1,29.2,8.2,41.1,17.7
		c9.6,7.6,18.2,16.7,23.9,27.9c0.8,1.6,1.8,3.2,2.4,4.9c1.9,5.4,0,8-5.7,7.9c-11-0.2-22-0.5-33-0.4c-4.6,0-7.8-1.4-10.7-5
		c-10.2-13.1-23.8-19.9-40.3-16.7c-28,5.4-40.7,25-39.1,54c0.5,9.8,4,19.1,9.9,27.4c9.6,13.3,32,21.3,47.7,16.3
		c9.9-3.1,18.8-7.9,24.2-17.3c1.1-1.9,2.2-4.8,1.4-6.3c-0.7-1.4-3.8-2.3-5.9-2.3c-11.5-0.2-23-0.1-34.5-0.1c-6,0-7-1.1-7.1-7
		c-0.1-7-0.1-14,0-21c0.1-5.7,0.9-6.6,6.8-6.6c20.8,0,41.7,0,62.5,0c7.7,0,15.3-0.3,23-0.6c6.8-0.2,10.3,2.5,9.1,8.5
		c-2.3,12.4-4.2,25-8.2,36.9c-6.4,18.9-20.4,32.2-37.2,42.2c-21.8,13-45.5,14.9-69.5,9.1c-17.5-4.3-32.7-13.9-44.6-28
		c-0.9-1-1.5-2.4-2.5-3.1c-1.4-1-3.3-2.4-4.6-2.1c-1.3,0.3-2.5,2.4-3,4c-2.5,7.7-4.8,15.5-7.2,23.3c-1.3,4.1-4.3,5.7-8.4,5.7
		c-15.2,0-30.3,0-45.5-0.2c-5,0-6.5-2.3-5-7.2c6.8-22.5,12.8-45.2,20.5-67.3c8.4-24.4,17.7-48.5,27.8-72.3c9.1-21.6,19-43,29.8-63.8
		c17.8-34.1,36.9-67.6,59.5-98.8c16.8-23.2,33.7-46.4,51.8-68.6c23.7-29.1,50.8-55.1,77.9-81c24.9-23.8,51.8-45.1,79.9-64.7
		c23.3-16.3,47.5-31.6,72.4-45.2c27.1-14.9,55.3-27.8,83.5-40.7c14.2-6.5,29.2-11.2,44.1-16.1c17.2-5.6,34.5-11.4,52.1-15.6
		c20.9-5,42-8.9,63.2-12.4c16.5-2.7,33.4-3.5,49.9-6.4c30.4-5.4,61.1-3.5,91.6-3.3c16.7,0.1,33.3,3.1,49.9,5.1
		c14.9,1.7,29.8,3.4,44.5,5.9c13.1,2.2,26,5.6,39,8.5c7,1.6,14,3.1,20.8,5.1c18,5.3,36,10.7,53.9,16.3c16.3,5.1,32.6,10.4,48.8,15.9
		c1.9,0.6,3.3,2.5,5,3.8C1066.2,61.8,1065.9,62.5,1065.5,63.2z"/>
	<path d="M1001.9,567.4c15.3,0,30.6,0.1,46-0.1c4.4,0,6.4,1.7,6.7,6.1c2.4,32.4-14.8,65.2-43.5,81.6c-14.2,8.1-29.4,12.2-45.3,12.2
		c-33.1-0.1-59.5-13.7-77.4-42.3c-8.8-14.1-14-29.7-13.3-45.9c1.4-32.1,15.8-57.3,44.1-73.7c21.2-12.3,44.2-14.6,67.6-9.2
		c25.2,5.8,44.2,21,57.3,43.4c1.3,2.3,2.8,4.6,3.8,7c1.9,4.4-0.1,7.3-4.8,7.2c-11.7-0.2-23.3-0.4-35-0.5c-4.5,0-8-1.5-10.7-5.2
		c-7.8-10.4-18.2-17.1-31.3-17.3c-23.7-0.3-46.1,16-46.7,42c-0.1,4.7-0.1,9.3,0,14c0.1,14.6,6.3,26.6,18.1,34.4
		c17.5,11.6,33.8,13.4,52.8,1.2c4.5-2.9,8-7.9,11.1-12.5c2.7-4,0-7.5-4.8-7.4c-11.3,0.2-22.6,0.4-34,0.5c-6.8,0-7.9-1.1-7.9-7.8
		c0-6.5,0-13,0-19.5c0-6.6,0.8-7.4,7.6-7.4c13.2,0,26.3,0,39.5,0C1001.9,567.9,1001.9,567.6,1001.9,567.4z"/>
	<path d="M851.5,580c0,25.3,0,50.6,0,76c0,8-0.7,8.4-8.6,8.1c-7-0.3-14-0.1-21,0c-4.7,0.1-8.2-1.5-10.8-5.7
		c-13-21.1-26.2-42.1-39.4-63.2c-4.5-7.2-8.8-14.5-13.5-21.6c-1.2-1.9-3.6-3-5.4-4.5c-0.8,2.2-2.2,4.3-2.2,6.5
		c0.1,26.6,0.5,53.3,0.8,79.9c0.1,6.8-2,8.6-8.6,8.6c-8.2,0-16.3-0.1-24.5,0c-6.7,0-8.6-1.9-8.5-8.6c0.3-45.3,0.7-90.6,0.9-135.9
		c0-5.5-0.3-11-0.7-16.5c-0.4-6.1,1-7.8,7.2-7.8c7.3-0.1,14.7,0.2,22-0.1c5-0.2,8.1,1.8,10.6,5.9c9.6,15.8,19.5,31.4,29.2,47.1
		c8.8,14.1,17.5,28.3,26.5,42.4c1,1.6,3.5,2.4,5.3,3.5c0.6-1.9,2-4,1.7-5.8c-3.8-23.2-0.8-46.5-1.8-69.8c-0.2-5.5-0.4-11-0.7-16.4
		c-0.3-4.8,1.1-6.6,5.7-6.8c10.2-0.3,20.3-0.6,30.5-0.3c1.7,0,4,2.4,4.9,4.3c0.9,1.8,0.3,4.2,0.3,6.4
		C851.5,530.3,851.5,555.2,851.5,580z"/>
	<path d="M1196.9,578.6c0-25.3,0-50.6,0-76c0-5.8,1.4-7.5,7.4-7.5c19.2-0.1,38.4-0.9,57.5,0.2c18.5,1.1,37.5,3.7,49.4,20.6
		c11.4,16.2,18.4,33.5,10.5,54.2c-5,13-12,23.7-24,30.8c-2.2,1.3-4.8,2.3-7.3,2.8c-5.7,1.2-7,4-3.4,8.7c6.4,8.3,13,16.5,19.6,24.6
		c5.3,6.6,11,12.9,16.2,19.6c1.3,1.7,1.8,4,2.7,6.1c-2.1,0.5-4.2,1.4-6.3,1.4c-10.7,0-21.3-0.5-32-0.1c-5.7,0.2-9.6-1.7-12.7-6.2
		c-8.4-11.8-16.8-23.6-25.2-35.4c-0.5-0.7-0.8-1.6-1.4-2c-2.1-1.5-4.3-2.9-6.5-4.3c-0.5,2.5-1.5,4.9-1.4,7.4
		c0,11.3,0.4,22.6,0.5,33.9c0.1,4.3-2.3,6.5-6.5,6.5c-10,0-20,0.1-30-0.2c-5.3-0.1-7.1-2.6-7.1-8.7
		C1196.9,629.6,1196.8,604.1,1196.9,578.6C1196.9,578.6,1196.9,578.6,1196.9,578.6z M1254,533.4c0,0.1,0,0.3-0.1,0.4
		c-2.2,0-4.3-0.1-6.5,0c-5.6,0.2-7.6,2.7-7.6,8.2c0.1,9.6,0.1,19.3-0.2,28.9c-0.1,5.7,2,9,7.5,9c6.4,0,13-0.3,19.3-1.6
		c9.2-1.9,16.6-12.3,16.5-21.9c0-10.4-6.7-19.1-16.8-21.4C1262.3,534.1,1258.1,533.9,1254,533.4z"/>
	<path d="M376.8,579.1c0-25.5,0-51,0-76.5c0-6,1.3-7.4,7.3-7.4c18.7-0.1,37.4-0.8,56,0.2c16.7,1,33.2,3.4,46.5,16.2
		c13.2,12.7,20.7,38.9,15.1,56.2c-4.5,14.1-12.4,25.4-25,33.1c-2.2,1.3-4.8,2.3-7.3,2.9c-5.3,1.3-6.6,3.6-3.5,8
		c3.8,5.4,8,10.6,12.2,15.8c8.1,10,16.3,19.8,24.3,29.8c1.2,1.5,1.5,3.8,2.3,5.7c-1.8,0.4-3.7,1-5.5,1c-11.3,0-22.7-0.4-34-0.2
		c-4.6,0.1-7.9-1.3-10.6-5.1c-9.4-13.4-18.9-26.7-28.5-39.8c-1.2-1.7-3.4-2.6-5.2-3.9c-0.7,2.2-1.9,4.3-1.9,6.5
		c0,12.2,0.3,24.3,0.3,36.5c0,4.1-2.2,6-6.3,6c-9.7,0-19.3,0-29,0c-5.5,0-7.2-2.1-7.3-8.4c0-12.5,0-25,0-37.5
		C376.9,605.1,376.9,592.1,376.8,579.1C376.8,579.1,376.8,579.1,376.8,579.1z M419.3,556.5c-0.1,0-0.2,0-0.3,0c0,5.1,0,10.3,0,15.4
		c0,3.8,0.9,7.4,5.2,7.8c8.5,0.9,17,0.9,25-2.7c8.6-3.9,13.7-14,12.6-24.5c-1-8.6-7.8-15.9-17.2-17.5c-5.7-1-11.5-1-17.3-1.4
		c-5.8-0.4-7.8,1.6-7.9,7.4C419.3,546.2,419.3,551.4,419.3,556.5z"/>
	<path d="M257.8,579.5c0-25.3,0-50.6,0-76c0-7.7,0.6-8.4,8.1-8.4c25.8,0,51.6,0,77.5,0c7.2,0,8,0.9,8.1,8.1c0.1,7.3,0.3,14.6,0.5,22
		c0.2,6.8-1.9,9-8.8,8.9c-12.2-0.2-24.3-0.2-36.5-0.5c-4.6-0.1-7,1.9-7.2,6.4c-0.2,4-0.2,8,0,12c0.2,5.4,2,7.1,7.5,7.1
		c11.5,0.1,23,0,34.5-0.2c7.2-0.1,8.9,1.3,8.9,8.5c0.1,7.5,0.1,15,0,22.5c0,6.5-1.4,7.8-8,7.9c-11.8,0.1-23.7,0-35.5,0
		c-6.1,0-7.3,1.3-7.4,7.3c-0.1,4.3-0.1,8.7,0,13c0.2,5.1,2,6.9,7.1,6.9c11.8-0.1,23.6-0.2,35.5-0.5c8.1-0.2,9.6,1.3,9.5,9.5
		c-0.1,7,0.1,14,0.3,21c0.2,7.1-1.5,9-8.5,9c-25.8-0.1-51.6-0.1-77.5,0c-7,0-8.2-1-8.2-8C257.8,630.5,257.8,605,257.8,579.5
		C257.8,579.5,257.8,579.5,257.8,579.5z"/>
	<path d="M1076.8,579.1c0-25.5,0-51,0-76.5c0-6.8,0.6-7.4,7.4-7.5c26.5-0.1,53-0.1,79.5-0.3c4.6,0,6.8,2,6.8,6.5
		c0,8.3,0.2,16.7,0.2,25c0,6.2-2,7.9-8.2,7.8c-12-0.2-24-0.4-36-0.4c-6.5,0-7.8,1.4-7.9,8c-0.1,3.5,0,7,0.1,10.5
		c0.1,4.2,2.4,6.6,6.5,6.6c12,0,24,0.1,36-0.3c5.9-0.2,8.1,1,8.3,7c0.3,8.7,0.1,17.3,0.1,26c0,4.4-2.3,6.2-6.6,6.2
		c-12.2-0.1-24.3-0.1-36.5,0c-6.8,0-7.8,1.1-7.9,7.9c0,4,0.1,8,0,12c-0.1,4.8,2.2,7.3,6.9,7.2c11.8,0,23.7,0,35.5-0.4
		c7.7-0.3,9.6,1.1,9.7,8.8c0.1,7.8,0.2,15.7,0.2,23.5c0,5.6-1.8,7.4-7,7.4c-26-0.1-52-0.2-78-0.3c-8.2,0-8.9-0.7-8.9-8.8
		C1076.8,629.8,1076.8,604.4,1076.8,579.1z"/>
	<path d="M570.5,559.5c0,18.8,0,37.6,0,56.5c0,7.9,1.6,9.2,9.5,9c11-0.3,22-0.4,33-0.4c6.3,0,8.3,2.2,8.3,8.5
		c0.1,7.5,0.1,15,0.1,22.5c0,6.4-1.9,8.4-8.3,8.4c-25.8,0-51.6,0-77.5,0c-5.6,0-7.7-1.8-7.6-6.8c0.2-19.3,0.7-38.6,0.7-57.9
		c0.1-29.1,0.1-58.3,0-87.4c0-3.5-0.3-7-0.6-10.5c-0.2-3.8,1.3-6.1,5.4-6.1c10.7-0.1,21.3-0.1,32-0.2c4.1,0,4.9,2.6,4.9,6
		c0,8.5,0,17,0,25.5C570.5,537.5,570.5,548.5,570.5,559.5z"/>
	<path d="M637.6,578.1c0-25.5,0.1-51-0.1-76.5c0-4.7,1.8-6.6,6.5-6.6c10,0.1,20,0,30-0.1c4.2-0.1,6.2,1.8,6.4,5.9
		c0.1,1.3,0.1,2.7,0.1,4c0,49.8,0,99.6,0,149.4c0,1.5,0,3-0.1,4.5c-0.3,3.9-2.4,5.5-6.3,5.4c-9.5-0.2-19-0.3-28.5-0.2
		c-6.9,0-8.9-1.8-8.8-8.9c0.3-16.3,0.7-32.6,1-49c0.1-9.3,0-18.7,0-28C637.8,578.1,637.7,578.1,637.6,578.1z"/>
	<path d="M997.5,396.1c9.3,0,10.1,0.4,12.3,9.4c1.6,6.6,2.6,13.3,3.9,20c0.2,1.3,0.1,2.8,0.8,3.9c1,1.8,2.5,3.4,3.8,5.1
		c1.2-1.6,3-3.1,3.5-4.9c2.2-8.5,4.2-17.1,6-25.7c1-4.5,2.6-7.8,7.9-7.9c6.8-0.2,9.5,0.8,11,6.8c2.2,8.7,3.5,17.6,5.5,26.3
		c0.7,3,2.7,5.6,4.1,8.4c1.1-2.9,2.7-5.6,3.3-8.6c2-9.2,3.5-18.6,5.8-27.8c0.5-1.9,3.1-4.2,5.1-4.6c3.7-0.8,7.7-0.8,11.4-0.2
		c1.6,0.2,3.7,2.5,4,4.1c0.6,2.7,0.3,5.7-0.4,8.4c-5.3,20.1-10.8,40.1-16.2,60.2c-1.7,6.4-4.4,8.6-11,8.6c-7.8,0.1-9.8-1-11.6-8.1
		c-2.4-9.7-4.4-19.5-6.5-29.2c-0.3-1.3-0.4-2.7-1-3.8c-0.6-1-1.7-1.8-2.6-2.7c-0.7,1-1.9,1.9-2.1,3c-2.2,10.9-4.3,21.8-6.3,32.8
		c-1.1,6-2.9,7.7-8.9,8c-11.3,0.6-13.5-1.1-16.1-12.3c-3.7-16.2-7.3-32.4-11.1-48.6c-0.8-3.5-2.4-6.9-3.8-10.3
		c-3.1-7.7-1.3-10.4,7-10.5C996.1,396.1,996.8,396.1,997.5,396.1z"/>
	<path d="M857.7,431.2c5.7,0,11.3,0,17,0c4.5,0,7.3,2.4,6.6,6.8c-0.9,6-1.6,12.6-4.6,17.6c-7.6,12.9-19.2,21.3-34.5,22.9
		c-13.6,1.4-24.6-5-33.6-14.5c-11.4-12-13.5-26.7-8.1-41.8c3.3-9.2,10.7-16.1,19.5-20.6c5-2.5,10.6-4,16-5.4c2.6-0.7,5.7-0.6,8.4,0
		c13.2,2.9,23.5,10.5,31.9,20.8c1.1,1.3,1.6,3.9,1,5.4c-0.4,1.2-2.9,2.2-4.5,2.3c-8.3,0.1-15.9,0-23.3-6
		c-11.2-9.1-27.8-1.4-29.9,12.9c-0.4,2.8-0.5,5.7-0.3,8.5c1.2,16,17,24.3,31.1,16.4c1-0.6,2.2-1.2,2.7-2.1c0.8-1.5,1.9-3.6,1.4-4.8
		c-0.5-1.2-2.8-2.1-4.4-2.2c-3.3-0.1-6.6,0.7-9.9,0.8c-4.2,0.1-6.3-2.1-6.5-6.4c-0.5-9.8,1-11.3,10.9-10.8c4.3,0.2,8.7,0,13,0
		C857.7,431,857.7,431.1,857.7,431.2z"/>
	<path d="M789.5,437.5c0,10.7,0,21.3,0,32c0,6.8-1.6,8.3-8.2,8.4c-6.3,0.1-11-1.9-14.3-7.9c-5.3-9.6-11.5-18.7-17.3-28.1
		c-0.6-1-1.1-2.1-2-2.8c-1.1-0.8-2.5-1.3-3.8-1.9c-0.6,1.4-1.8,2.8-1.8,4.2c0.1,8.5,0.8,16.9,0.6,25.4c-0.1,3.5-1.1,9.3-3.1,10
		c-4.4,1.5-9.8,1-14.5,0c-1.6-0.4-3.1-4.9-3.1-7.6c-0.1-10.6,0.5-21.3,0.7-32c0.2-10.3,0-20.7,0.2-31c0-3.5-1.6-8.2,3.2-9.5
		c4.9-1.3,10.3-1.6,14.5,2.6c0.7,0.7,1.3,1.5,1.9,2.3c6.3,10.2,12.5,20.5,18.7,30.7c0.5,0.9,0.8,1.9,1.5,2.6
		c1.3,1.1,2.8,1.9,4.2,2.8c0.7-1.5,2.1-3.1,2.1-4.6c0.1-9.5-0.1-19-0.1-28.5c0-6.9,1.6-8.4,8.6-8.5c1.3,0,2.7,0,4,0
		c5.9,0.2,7.9,1.9,7.9,7.8C789.5,415.1,789.4,426.3,789.5,437.5C789.5,437.5,789.5,437.5,789.5,437.5z"/>
	<path d="M704,477.8c-6.3,0.7-11.7-1.3-14.3-9.3c-0.6-1.9-4.1-3.7-6.4-4c-4.1-0.5-8.3,0.3-12.4,0.2c-5.2-0.1-8.8,1.9-10.3,6.8
		c-1.6,5.3-4.9,7.2-10.2,6.3c-1.6-0.3-3.3,0-5,0.2c-6.6,0.6-9.1-2.7-6.5-8.7c4.2-9.6,8.6-19.1,12.5-28.8
		c4.8-11.9,9.2-23.9,13.6-35.9c1.7-4.7,4.1-8.3,9.7-8.7c6.9-0.5,9,0.2,11.7,6.7c5.2,12.1,9.8,24.3,14.7,36.5
		c3.8,9.5,8.1,19,11.5,28.7C715.9,477.1,715,477.9,704,477.8z M675.9,448c5.1,0,7.1-2.9,5.7-7.8c-0.7-2.4-1.2-4.9-2.2-7.1
		c-0.4-1-1.6-2.2-2.7-2.4c-0.7-0.2-2.2,0.9-2.6,1.8c-1.4,3-2.8,6.1-3.6,9.3C669.5,445.6,671.7,448,675.9,448z"/>
	<path d="M889.7,437.2c0-10.8,0-21.6,0-32.5c0-6.7,2-8.6,8.7-8.6c9.5,0,19,0,28.4,0c6.1,0,8.1,1.9,8.5,7.9c0.1,1.5,0.1,3,0.1,4.5
		c-0.1,6.2-2.4,8.2-8.8,7.8c-3.5-0.2-7-0.5-10.5-0.4c-3.3,0.1-6.1,1.6-6,5.3c0.1,3.6,2.8,5.2,6.1,5.3c3.8,0.1,7.6-0.4,11.5-0.4
		c5.5,0.1,7.4,2.1,7.7,7.6c0.1,1.8,0.1,3.7,0,5.5c-0.4,5.4-2.6,7.4-8,7.2c-3.7-0.1-7.3-0.6-11-0.5c-3.7,0.1-6,2.2-6.1,5.9
		c-0.1,3.8,2.4,5.9,6,6c3.3,0.2,6.6-0.2,10-0.3c7-0.3,9.1,1.5,9.2,8.4c0,1.5,0.1,3,0,4.5c-0.3,5.4-2,7.3-7.3,7.2
		c-10.3-0.1-20.6-0.2-30.9-0.5c-5.9-0.2-7.3-1.8-7.4-7.6C889.8,458.8,889.8,448,889.7,437.2C889.8,437.2,889.8,437.2,889.7,437.2z"
		/>
	<path d="M1094.5,436.6c0-10.7,0-21.3,0-32c0-6.7,2-8.6,8.6-8.5c9.1,0.1,18.3,0.1,27.4,0c5.7-0.1,7.5,1.5,7.9,7.1c0,0.3,0,0.7,0,1
		c0.4,12-0.1,12.4-12,11.6c-2.1-0.1-4.6-0.5-6.4,0.3c-2,0.9-4.9,3.1-4.8,4.5c0.2,2,2.5,4.8,4.5,5.5c2.8,0.9,6.2,0.3,9.4,0.1
		c7.6-0.5,9.3,1,9.4,8.5c0,0.8,0,1.7,0,2.5c0,8.8-1.1,9.7-9.9,8.9c-2.8-0.3-6-0.8-8.4,0.2c-2.1,0.9-4.6,3.7-4.8,5.8
		c-0.2,1.7,2.6,4.7,4.6,5.3c3,0.9,6.6,0.4,9.9,0.1c6.5-0.6,8.5,1.1,8.6,7.7c0,9.3,1.7,14-12.6,12.7c-7.8-0.7-15.6-0.1-23.5-0.1
		c-6.1,0-7.9-2.1-7.9-8.2C1094.6,458.6,1094.5,447.6,1094.5,436.6C1094.5,436.6,1094.5,436.6,1094.5,436.6z"/>
	<path d="M1205.8,446c0-7.5,0.1-15,0-22.5c-0.1-6.5-1.7-7.9-8.1-7.8c-6.2,0.1-7.7-1.3-7.9-7.5c0-1.5-0.1-3,0-4.5
		c0.3-5.5,2.2-7.5,7.8-7.5c7.5,0,15,0.4,22.5,0.4c4.8,0,9.7-0.3,14.5-0.4c5.7-0.1,7.5,1.6,7.8,7.3c0.1,1.5,0.1,3,0,4.5
		c0,8.1-0.8,8.8-9,7.7c-4.2-0.5-6.5,1.3-6.8,5.9c-0.3,4.6-0.2,9.3-0.1,14c0.2,11.5,0.5,23,0.8,34.4c0.2,5.9-2.5,8.6-8.5,8.2
		c-13.7-0.8-13.7-0.9-13.1-14.7c0-0.5,0-1,0-1.5C1205.8,456.7,1205.8,451.3,1205.8,446C1205.8,446,1205.8,446,1205.8,446z"/>
	<path d="M946.4,436.7c0-10.5,0-21,0-31.5c0-6.5,2-8.6,8.6-9c1.5-0.1,3-0.1,4.5-0.1c6.9,0.1,8.9,1.9,8.9,9
		c-0.1,15.3-0.4,30.6-0.8,45.9c-0.1,4.3,1.8,6.7,6,6.9c4,0.2,8,0.2,12,0.1c4.6-0.1,6.7,1.8,6.8,6.4c0.5,12.3-0.7,13.5-12.8,13.3
		c-8-0.1-16,0-24,0c-7.2,0-9.4-2.3-9.4-9.7C946.4,457.7,946.4,447.2,946.4,436.7C946.4,436.7,946.4,436.7,946.4,436.7z"/>
	<path d="M1172.7,425.2c0,8.5,0.1,16.9,0,25.4c-0.1,4.9,1.5,7.2,6.5,7.4c3.6,0.2,7.3,0,11,0c3.6,0,5.7,1.7,6,5.3
		c0.2,2.6,0.4,5.3,0.1,8c-0.6,5.3-2.6,6.8-7.9,6.7c-9.5-0.1-19-0.1-28.4-0.1c-6.6-0.1-8.9-2.6-8.8-9.1c0.3-18.5,0.5-36.9,0.7-55.4
		c0-3.2-0.5-6.3-0.5-9.5c0-5.1,2.2-7.3,7.2-7.7c0.3,0,0.7,0,1,0c12.8-0.5,14,0.7,14,13.5c0,5.2,0,10.3,0,15.5
		C1173.2,425.2,1172.9,425.2,1172.7,425.2z"/>
</g>
</svg>
