<svg xmlns="http://www.w3.org/2000/svg" viewBox="0 0 213.6 76.1">
  <path fill="#1D1D1B" d="M159.1 62h39l13.7 13.8h-47.1zM199.6 60.3V19.4l14 6.6v48.6zM158.7 19.4h38.9v40.5h-38.9z"/>
  <path fill="#E3051B" d="M21.7 39.1h11.2l-5.5-20.5h-.2l-5.5 20.5zM18 51.2l-2.8 8.7H.6L21.9 0h10.7l21.2 59.9H39.1l-2.6-8.7H18zM70.4 30.1h4.8c8 0 8.9-5.7 8.9-8.6 0-5.4-3.5-8.1-8.8-8.1h-5v16.7zM57.4 0h16.8c9.4 0 13 1.3 16.4 4.3a22 22 0 0 1 6.6 16.4c0 6.9-3.2 17-13.2 18.9L98.5 60H82.9L70.5 40.6h-.1v19.3h-13V0zM103.5 0h13.6v46.5h15.7v13.4h-29.3zM139.3 13.4h-10.5V0h34.5v13.4h-10.4v46.5h-13.6z"/>
  <path fill="#1D1D1B" d="M10.9 72.7c-.8 2.1-3 3.4-5.2 3.4a6 6 0 0 1-5.8-6c0-3.2 2.6-5.9 5.7-5.9 2.2 0 4.4 1.3 5.3 3.5H8.6a3.7 3.7 0 0 0-2.9-1.4c-2 0-3.7 1.8-3.7 4 0 2 1.7 3.9 3.7 3.9 1.1 0 2-.5 2.8-1.3h2.4zM24.2 70.1c0 2.1 1.7 3.9 3.7 3.9s3.7-1.8 3.7-3.9c0-2.2-1.7-3.9-3.7-3.9s-3.7 1.8-3.7 3.9m9.6.1a6 6 0 0 1-5.8 6 5.9 5.9 0 0 1-5.8-6 6 6 0 0 1 5.8-6c3.2 0 5.8 2.6 5.8 6M45.9 64.4h2.8l3 8.7 3-8.7h2.8v11.4h-2.1v-8.5l-2.8 8.5h-1.8l-2.9-8.5v8.5h-2zM72.9 69.4l1.6-.1c.6-.2 1-.7 1-1.4s-.5-1.2-1.1-1.4l-1.5-.1h-.4v3h.4zm-2.4 6.4V64.4h2.6c1.1 0 2.1 0 3 .6.9.6 1.5 1.7 1.5 2.9a4 4 0 0 1-1.3 2.9c-.9.8-2.2.7-3.3.7h-.4v4.3h-2.1zM91.3 64.4v7.1c0 .5 0 1.1.2 1.6.3.6.8 1 1.5 1 .5 0 1.1-.3 1.4-.8.3-.5.3-1.1.3-1.7v-7.1h2.1v7.1c0 1.1-.1 2.2-.8 3.1-.7.9-1.8 1.5-2.9 1.5-1.1 0-2.2-.6-2.8-1.4-.8-.9-.9-2-.9-3.2v-7.1h1.9zM110.6 66.4h-2v-2h6.2v2h-2.1v9.4h-2.1zM126.8 64.4h5.9v2h-3.9v2.7h3.8v2h-3.8v2.7h3.9v2h-5.9zM148.4 69.8c.5 0 1.2-.1 1.6-.5.3-.3.5-.8.5-1.2 0-.5-.2-1-.6-1.3-.5-.4-1-.4-1.5-.4h-1.1v3.4h1.1zm-3.2-5.4h3.2c1.1 0 2 .1 2.9.8.8.7 1.3 1.8 1.3 2.8 0 .8-.4 1.9-.9 2.5-.5.6-1.2.9-2 1.1l3 4.2h-2.5l-2.9-4.4v4.4h-2.1V64.4z"/>
</svg>
