<svg width="543" height="96" viewBox="0 0 543 96" fill="none" xmlns="http://www.w3.org/2000/svg">
<path d="M295.9 24.8C298.9 27.5 297.3 29.9 295.5 32.2C290.1 38.8 284.8 45.4 279.1 51.7C276.8 54.3 276.7 56.3 278.3 59.2C282.4 66.8 285.9 74.7 290.1 82.3C292.2 86.1 291.5 88.8 287.9 90.4C283.1 92.5 278 94 273.1 95.8C268.4 95.8 263.8 95.8 259.1 95.8C252.8 94 249.7 89.2 247.3 83.5C244.9 77.7 241.9 72.1 237.9 66.4C236.9 72.3 235.6 78.1 235 84C234.5 88.9 232.3 91.7 227.7 92.8C218.5 95.2 209.4 96 200.2 92.6C196.1 91.1 194.6 88.6 195.3 84.2C199.4 59.6 203.1 34.9 207.3 10.3C207.7 8.00002 209.9 5.00002 212 4.10002C220.8 0.300022 230 -0.499978 239.3 2.70002C245.4 4.80002 246.5 6.90002 245.5 13.2C243.6 24.5 241.9 35.8 240.1 47.1C240.6 47.6 241.1 48 241.7 48.5C243.3 46.3 244.8 44 246.6 42C251.5 36.5 256.4 31.1 261.4 25.8C268.4 18.5 288.5 18 295.9 24.8ZM96 82.9C96.6 87.6 94.6 90.2 90.7 91.8C82.2 95.3 73.5 95.4 64.8 92.9C58 91 57.9 85.2 58.3 78.4C52.7 78.4 47.4 78.2 42.1 78.6C40.9 78.7 39.4 80.8 38.7 82.3C31.6 95.8 11.6 99.3 0.0999756 88.8C0.0999756 87.8 0.0999756 86.8 0.0999756 85.8C5.09998 75 10.3 64.3 15.3 53.5C21.1 41 27.1 28.5 32.3 15.8C36.7 5.30002 45.5 2.40002 55 1.40002C61.8 0.700022 68.9 1.40002 75.8 2.50002C83.2 3.50002 87.6 7.40002 88.4 16C90.3 38.3 93.2 60.6 96 82.9ZM59 57.4C58.7 49 58.1 40.7 57.6 32.3C57.1 32.3 56.6 32.3 56.1 32.3C53.1 41 50.1 49.7 46.9 59.2C50.5 59.4 53.5 59.7 56.4 59.6C57.3 59.6 59 58.2 59 57.4ZM384.9 44.6C383.3 58.5 381.2 72.3 378.5 86C377.9 88.9 374.3 92.6 371.4 93.3C365.5 94.7 359.2 94.8 353.1 94.5C347.4 94.3 345.7 89.1 343.8 84.3C334.7 94.2 323.8 97 311.4 93.7C302.7 91.4 299 86.3 299 77.4C299 62.9 306.6 53.7 321.2 51.2C327.1 50.2 333.1 50.3 339.1 49.8C342 49.5 345.2 49.4 347.8 48.2C349.3 47.5 350.8 44.9 350.8 43.2C350.8 41.9 348.2 39.6 346.9 39.7C343.4 39.9 339.9 40.9 336.5 41.8C331 43.3 325.6 45.5 320 46.6C316.3 47.3 312.7 45.7 311 41.8C309.2 37.7 309.8 33.4 313.3 30.9C318 27.5 323.2 23.8 328.8 22.5C341.8 19.6 355.1 19 368.4 22C380.5 24.7 386.3 32.1 384.9 44.6ZM347.6 59C343.2 61.2 338.9 62.8 335.3 65.4C333.8 66.5 332.6 70.2 333.4 71.6C334.2 73.1 337.5 74.1 339.6 73.8C345 73.2 348.5 66.7 347.6 59ZM185.4 30C181.1 26.4 175.7 23.5 170.3 22.2C158.9 19.3 147 19.6 135.6 22.1C128.6 23.6 121.6 26.6 115.7 30.5C108.5 35.2 105.9 43.1 107.4 51.6C108.8 59.3 115.5 62.1 121.9 64.7C123.3 65.3 124.8 65.5 126.2 65.8C132.5 67.1 138.9 68.2 145.2 69.8C146.7 70.2 148.9 72.4 148.8 73.7C148.8 75.4 147.3 77.7 145.8 78.8C142.6 80.9 139.9 79.8 137 77.1C134.1 74.4 130.3 71.9 126.6 71.1C122 70.1 117 70.6 112.3 71.2C108.1 71.8 103.2 72.8 102.3 78C101.3 83.6 105.5 86.3 109.7 88.6C111.1 89.4 112.7 90.2 114.3 90.6C122.6 92.3 130.8 93.9 137.6 95.2C146.4 94.1 153.6 93.8 160.6 92.2C169.6 90.1 178 86.6 182.6 77.4C190.5 61.7 184.9 51.1 167.5 48.8C161.1 47.9 154.6 47.1 148.3 45.6C146.4 45.1 143.5 42.1 143.8 40.8C144.2 38.8 146.6 36.4 148.7 35.7C150.3 35.1 153.2 36.3 154.6 37.7C163.1 45.7 172.8 44.9 182.7 41.9C188.4 40 190 33.8 185.4 30ZM473 30.7C472.7 25.8 470.3 22.6 465.7 21.1C459.5 19 453.8 20.7 448.9 24.7C444.9 27.9 441.3 31.5 437 35.4C437 33.8 436.9 33 437 32.2C437.9 25.9 436.8 24.2 431 22.3C423.8 19.9 416.6 20.3 409.4 22.4C404.4 23.9 401.3 26.8 400.5 32.4C398 50 395 67.5 392.3 85.1C391.6 89.7 393.5 92.6 398.6 93.6C406.1 95 413.7 95.7 421.3 93.1C426.5 91.3 430.2 88.9 430.1 82.7C430.1 80.1 431 77.5 431.3 74.8C433.3 57.8 433.4 54.1 454.9 51.5C468.8 49.7 473.6 43.5 473 30.7ZM471.2 82.9C470.1 90.2 473.3 94.4 480.8 94.6C487.4 94.7 494 93.8 500.5 92.9C506.5 92.1 509 88.2 509.7 82.3C510.6 74.4 512.1 66.5 513.3 58.6C514.9 48.1 516.6 37.6 518.3 26.7C505.3 26.7 492.9 26.7 480.1 26.7C477.2 45.5 474.1 64.2 471.2 82.9ZM521.4 9.70002C522.1 5.90002 520.7 4.30002 517.6 2.90002C510.5 -0.499978 503.2 -0.599978 495.7 1.10002C484.4 3.60002 483.7 4.40002 482.1 15.9C481.9 17.4 481.6 18.8 481.1 21.4C490.3 21.4 498.9 21.4 507.5 21.4C519.3 21.3 519.2 21.3 521.4 9.70002ZM535.7 36.9C536 38.6 536.2 39.3 536.5 39.7H533.7C533.4 39.3 533.2 38.3 532.8 37C532.6 35.8 531.9 35.2 530.5 35.2H529.3V39.7H526.7V28.5C527.7 28.3 529.2 28.2 531 28.2C533.1 28.2 534.1 28.5 534.9 29C535.5 29.5 536 30.4 536 31.5C536 32.7 535 33.7 533.7 34.1V34.2C534.7 34.6 535.3 35.4 535.7 36.9ZM533.2 31.7C533.2 30.7 532.4 30 530.8 30C530.1 30 529.6 30.1 529.4 30.1V33.3H530.6C532 33.3 533.2 32.9 533.2 31.7ZM542.5 33.8C542.5 40.1 537.5 45.1 531 45.1C524.6 45.1 519.5 40.1 519.5 33.8C519.5 27.6 524.6 22.6 531 22.6C537.5 22.6 542.5 27.6 542.5 33.8ZM539.6 33.9C539.6 28.9 536 24.9 531 24.9C526 24.9 522.3 28.9 522.3 33.8C522.3 38.8 526 42.7 531 42.7C536 42.8 539.6 38.8 539.6 33.9Z" fill="black"/>
</svg>
