<?xml version="1.0" standalone="no"?>
<!DOCTYPE svg PUBLIC "-//W3C//DTD SVG 20010904//EN"
 "http://www.w3.org/TR/2001/REC-SVG-20010904/DTD/svg10.dtd">
<svg version="1.0" xmlns="http://www.w3.org/2000/svg"
 width="400.000000pt" height="124.000000pt" viewBox="0 0 400.000000 124.000000"
 preserveAspectRatio="xMidYMid meet">

<g transform="translate(0.000000,124.000000) scale(0.100000,-0.100000)"
fill="#000000" stroke="none">
<path d="M3305 1041 c-189 -85 -96 -347 111 -316 39 5 57 16 90 49 90 89 62
220 -58 270 -49 21 -94 20 -143 -3z m121 -126 c15 -23 15 -27 0 -50 -19 -29
-60 -33 -88 -8 -20 18 -23 36 -8 64 16 29 75 26 96 -6z"/>
<path d="M3778 1048 c-15 -12 -332 -489 -422 -635 -42 -68 -42 -92 0 -119 50
-33 59 -23 286 323 223 339 238 364 238 383 0 18 -47 60 -68 60 -10 0 -25 -6
-34 -12z"/>
<path d="M15 1003 c-18 -17 -19 -37 -5 -64 8 -14 21 -19 55 -19 l45 0 0 -309
c0 -268 2 -312 16 -325 20 -20 43 -20 72 -1 19 14 24 14 46 0 13 -9 49 -19 79
-22 110 -11 199 45 250 156 32 69 31 227 -2 293 -58 118 -200 174 -304 118
-20 -11 -38 -20 -40 -20 -2 0 -1 41 1 90 3 58 0 95 -7 103 -16 20 -186 20
-206 0z m421 -299 c36 -39 44 -70 44 -158 -1 -112 -50 -179 -133 -179 -93 0
-121 43 -122 190 0 87 3 105 21 130 52 71 136 78 190 17z"/>
<path d="M1875 1003 c-18 -17 -19 -37 -5 -64 8 -14 21 -19 55 -19 l45 0 0
-309 c0 -268 2 -312 16 -325 20 -20 43 -20 72 -1 19 14 24 14 46 0 13 -9 49
-19 79 -22 110 -11 199 45 250 156 32 69 31 227 -2 293 -58 118 -200 174 -304
118 -20 -11 -38 -20 -40 -20 -2 0 -1 41 1 90 3 58 0 95 -7 103 -16 20 -186 20
-206 0z m421 -299 c36 -39 44 -70 44 -158 -1 -112 -50 -179 -133 -179 -93 0
-121 43 -122 190 0 87 3 105 21 130 52 71 136 78 190 17z"/>
<path d="M782 977 c-28 -30 -28 -68 1 -95 30 -28 68 -28 95 1 28 30 28 68 -1
95 -30 28 -68 28 -95 -1z"/>
<path d="M1146 978 c-10 -14 -16 -44 -16 -78 l0 -56 -37 -10 c-71 -17 -65
-104 7 -104 l28 0 3 -173 c4 -149 7 -176 24 -206 30 -50 78 -73 146 -69 101 7
147 60 156 183 5 65 3 75 -16 94 -26 26 -33 26 -62 2 -19 -15 -24 -30 -27 -84
-5 -77 -24 -104 -67 -93 -38 10 -45 41 -45 202 l0 144 69 0 c79 0 104 15 99
59 -4 34 -39 51 -110 51 l-58 0 0 64 c0 45 -5 69 -16 80 -22 23 -60 20 -78 -6z"/>
<path d="M1622 977 c-28 -30 -28 -68 1 -95 30 -28 68 -28 95 1 28 30 28 68 -1
95 -30 28 -68 28 -95 -1z"/>
<path d="M2706 848 c-22 -6 -57 -29 -82 -53 -37 -35 -44 -48 -44 -79 0 -48 12
-70 48 -85 59 -24 119 29 94 84 -10 21 -9 26 8 35 10 5 39 10 63 10 66 0 92
-28 88 -92 -2 -25 -27 -35 -120 -48 -46 -6 -101 -18 -123 -27 -105 -42 -131
-173 -49 -254 65 -66 173 -78 263 -30 l54 28 28 -23 c15 -13 39 -25 54 -26
114 -6 152 29 152 143 0 68 -16 99 -51 99 -32 -1 -44 -20 -49 -82 -4 -47 -9
-63 -20 -63 -13 0 -16 28 -20 175 -6 184 -12 211 -58 253 -47 43 -150 57 -236
35z m174 -344 c0 -52 -27 -91 -77 -110 -73 -28 -143 0 -143 57 0 39 30 56 120
69 40 6 76 13 79 15 13 13 21 1 21 -31z"/>
<path d="M697 822 c-20 -22 -22 -53 -5 -70 7 -7 31 -12 54 -12 35 0 43 -4 48
-22 8 -30 8 -267 0 -307 -6 -29 -9 -31 -48 -31 -46 0 -66 -13 -66 -44 1 -47
11 -51 157 -52 151 -1 183 7 183 50 0 31 -17 44 -65 48 l-40 3 -3 214 c-1 138
-6 219 -13 228 -8 9 -38 13 -99 13 -71 0 -90 -3 -103 -18z"/>
<path d="M1537 822 c-20 -22 -22 -53 -5 -70 7 -7 31 -12 54 -12 35 0 43 -4 48
-22 8 -30 8 -267 0 -307 -6 -29 -9 -31 -48 -31 -46 0 -66 -13 -66 -44 1 -47
11 -51 157 -52 151 -1 183 7 183 50 0 31 -17 44 -65 48 l-40 3 -3 214 c-1 138
-6 219 -13 228 -8 9 -38 13 -99 13 -71 0 -90 -3 -103 -18z"/>
<path d="M3746 605 c-81 -29 -122 -96 -114 -187 11 -105 105 -169 219 -148 81
15 131 72 137 158 7 92 -40 160 -124 181 -54 14 -70 13 -118 -4z m102 -125
c12 -12 22 -30 22 -40 0 -26 -34 -60 -60 -60 -11 0 -29 9 -40 20 -11 11 -20
29 -20 40 0 25 34 60 58 60 10 0 28 -9 40 -20z"/>
</g>
</svg>
