<?xml version="1.0" encoding="UTF-8"?>
<svg xmlns="http://www.w3.org/2000/svg" xmlns:xlink="http://www.w3.org/1999/xlink" id="Ebene_1" data-name="Ebene 1" viewBox="0 0 666.37 125.55">
  <defs>
    <style>.cls-1{fill:none;}.cls-2{clip-path:url(#clip-path);}.cls-3{fill:#4c4c4c;}</style>
    <clipPath id="clip-path" transform="translate(0.01 0)">
      <rect class="cls-1" width="666.37" height="125.56"></rect>
    </clipPath>
  </defs>
  <g id="Ebene_3" data-name="Ebene 3">
    <g class="cls-2">
      <path class="cls-3" d="M636.75,52.68h-6.17V92.82h6.17Zm8.5,20.44,21.1-20.44h-9.07L639.75,69.82a3.73,3.73,0,0,0,0,6.41l17.54,16.59h9.07ZM615.6,80.7a13.51,13.51,0,0,0,7-4.76,13.82,13.82,0,0,0,2.8-8.69q0-7.41-4.82-11.22-4.2-3.36-11-3.35h-25.4V92.82h6.17V59.67h20.22q8.4,0,8.4,7.52a6.68,6.68,0,0,1-2.65,5.7,9.5,9.5,0,0,1-5.75,1.7H594v6.93h13.32l9.91,11.3h9.12Zm-36.08,5.12H555.1V59.67h24.42v-7H548.94V92.82h30.58ZM577.92,69H557.75v7H578ZM540.23,52.69l-14,29.19L512.38,52.69h-7.93l9,18.68-5,10.51-13.8-29.2h-7.9l17.78,36.83q1.92,3.94,3.84,3.94t3.84-3.94l5.08-10.28,5,10.28c1.27,2.63,2.54,3.94,3.83,3.94s2.57-1.31,3.84-3.94l18.25-36.83Zm-58,0h-6.17V80.52L453.35,54.74c-1.21-1.38-2.38-2.06-3.52-2.06a2.17,2.17,0,0,0-1.92,1,4.33,4.33,0,0,0-.67,2.43V92.82h6.11V65l22.74,25.86q2.13,2.4,3.84,2.4c1.56,0,2.33-1.29,2.33-3.88ZM441.62,85.82H417.2V59.67h24.42v-7H411V92.82h30.59ZM440,69H419.75v7H440ZM408,85.82h-24.4V52.68h-6.17V92.82H408Zm-33.46,0h-24.4V52.68H344V92.82h30.53Zm-41.91-3.58a11,11,0,0,1-8.43,3.58h-9.9a10.86,10.86,0,0,1-8.37-3.58,13.23,13.23,0,0,1-3.3-9.34,13.79,13.79,0,0,1,3.3-9.52,10.69,10.69,0,0,1,8.37-3.7h9.9a10.79,10.79,0,0,1,8.43,3.7,13.81,13.81,0,0,1,3.29,9.52,13.27,13.27,0,0,1-3.29,9.34m4.43-24.15a16.7,16.7,0,0,0-12.86-5.4h-9.9a16.72,16.72,0,0,0-12.83,5.4q-5,5.41-5,14.22a21.76,21.76,0,0,0,5,14.69,16.21,16.21,0,0,0,12.74,5.82h9.9A16.2,16.2,0,0,0,337,87q5-5.82,5-14.69T337,58.1m-41.84-5.4h-34v7h14V92.82h6.12V59.67H295.2Zm-39.3,18.5a11.74,11.74,0,0,0-8.55-3.34h-16.7a4.55,4.55,0,0,1-3-1.06,3.72,3.72,0,0,1-1.24-3,3.84,3.84,0,0,1,1.24-3,4.41,4.41,0,0,1,3-1.11h26.7v-7h-26.7a11,11,0,0,0-7.73,2.88,11.81,11.81,0,0,0,0,16.39,11,11,0,0,0,7.73,2.88h16.7a7.62,7.62,0,0,1,4.35,1.23,4.76,4.76,0,0,1,2.18,4.17,5.08,5.08,0,0,1-2.07,4.28,7.49,7.49,0,0,1-4.4,1.29h-27v7h27a12,12,0,0,0,8.55-3.23,12.21,12.21,0,0,0,3.58-9.16,12.42,12.42,0,0,0-3.58-9.23" transform="translate(0.01 0)"></path>
      <path class="cls-3" d="M73.75,125.23c-.37.06-.76.1-1.14.15v.17l1.14-.32M209.09,52.06a2.38,2.38,0,0,0-.24-1.2C206.16,36.38,165.67,18,110.93,7.43,64.93-1.42,21.93-2.22,0,4.24a252.89,252.89,0,0,1,29,.85c68.64,6,121.89,38.09,119,71.67-1,11.82-8.92,22.24-21.67,30.53,48.28-19.23,82.44-41.1,82.63-53.6a8.08,8.08,0,0,0,.09-1.2,3,3,0,0,0,.12-.43" transform="translate(0.01 0)"></path>
      <path class="cls-3" d="M159.75,51.6c5.56,2.25,11.38.81,13-3.21s-1.57-9.1-7.12-11.34-11.38-.81-13,3.21,1.57,9.1,7.12,11.34" transform="translate(0.01 0)"></path>
    </g>
  </g>
  <g id="Ebene_5" data-name="Ebene 5">
    <path class="cls-3" d="M475.8,35.42a6.35,6.35,0,0,1-4.84,2h-8V22.66h8a6.28,6.28,0,0,1,4.84,2.09,7.68,7.68,0,0,1,1.9,5.38,7.41,7.41,0,0,1-1.9,5.29m2.58-13.66A9.75,9.75,0,0,0,471,18.7H459.41V41.4H471a9.45,9.45,0,0,0,7.4-3.29,12.07,12.07,0,0,0,2.91-8.31,11.22,11.22,0,0,0-2.89-8m-23.63-3.1h-3.57V34.45L438,19.87a2.88,2.88,0,0,0-2-1.17,1.24,1.24,0,0,0-1.11.58,2.41,2.41,0,0,0-.39,1.38V41.4h3.53V25.65l13.14,14.62a3.28,3.28,0,0,0,2.22,1.36q1.35,0,1.35-2.19Zm-32.16,2.12a5.12,5.12,0,0,0-1.17-1.49,2.53,2.53,0,0,0-1.62-.73,2.65,2.65,0,0,0-1.61.76A4.87,4.87,0,0,0,417,20.82L405.89,41.33h4.59l9.27-16.78,3.57,6.55H417.9L415.75,35h9.71l3.45,6.35h4.59Zm-19.73,8.31a6.92,6.92,0,0,0-4.95-1.89h-9.65a2.63,2.63,0,0,1-1.74-.6,2.07,2.07,0,0,1-.72-1.7,2.14,2.14,0,0,1,.72-1.69,2.53,2.53,0,0,1,1.74-.63h15.49v-4H388.26a6.46,6.46,0,0,0-4.47,1.63,6.57,6.57,0,0,0,0,9.27,6.41,6.41,0,0,0,4.47,1.63h9.65a4.41,4.41,0,0,1,2.52.7,2.67,2.67,0,0,1,1.26,2.36,2.82,2.82,0,0,1-1.23,2.42,4.42,4.42,0,0,1-2.55.74H382.3v4h15.61a7,7,0,0,0,4.95-1.83,6.81,6.81,0,0,0,2.07-5.18,6.91,6.91,0,0,0-2.07-5.22m-28.45,5.38a7.67,7.67,0,0,0,5.7-7.61,7.5,7.5,0,0,0-2.79-6.34,10.08,10.08,0,0,0-6.39-1.9H356.24v22.7h3.57V22.66H371.5q4.86,0,4.86,4.25a3.75,3.75,0,0,1-1.53,3.22,5.56,5.56,0,0,1-3.33,1h-9.59v3.92h7.7l5.73,6.38h5.28Zm-20.87,2.9H339.42V22.66h14.12v-4H335.85v22.7h17.69Zm-.93-9.54H340.92v3.94h11.69Zm-22.19-9.21-9.23,16.85L312,18.67h-4.59l11.46,20.84c.82,1.48,1.55,2.23,2.19,2.23s1.4-.75,2.22-2.23L335,18.67Zm-41.2,0h-3.56v22.7h3.56Zm17.21,0h-3.56V28h-12v3.95h12v9.44h3.56ZM283.68,37.42H272.1a6.35,6.35,0,0,1-4.84-2,7.41,7.41,0,0,1-1.9-5.29,7.68,7.68,0,0,1,1.9-5.38,6.28,6.28,0,0,1,4.84-2.09h11.58v-4H272.1a9.75,9.75,0,0,0-7.42,3.06,11.22,11.22,0,0,0-2.89,8A12,12,0,0,0,264.71,38a9.48,9.48,0,0,0,7.39,3.29h11.58Zm-30.75-16a4.81,4.81,0,0,0-1.18-1.4,2.41,2.41,0,0,0-1.57-.71,2.54,2.54,0,0,0-1.57.74,5.06,5.06,0,0,0-1.14,1.42l-10.72,19.9h4.45l9-16.32,3.47,6.35H248.4l-2.1,3.81h9.43l3.35,6.16h4.45Zm-15.11-2.77H220.13v22.7h3.56V22.66h14.13Zm-.93,9.21h-11.7v4h11.7Z" transform="translate(0.01 0)"></path>
  </g>
</svg>
