<svg width="133" height="100" viewBox="0 0 133 100" fill="none" xmlns="http://www.w3.org/2000/svg">
<path fill-rule="evenodd" clip-rule="evenodd" d="M10.7 2.6C10.4 2.6 2.6 2.7 2.6 10.7V88.7C2.6 89 2.7 96.8 10.7 96.8H121.9C122.2 96.8 130.1 96.7 130.1 88.7V10.7C130.1 10.4 130 2.6 122 2.6H10.7ZM121.9 99.5H10.7C2.2 99.5 0 92.5 0 88.8V10.8C0 2.3 7 0 10.7 0H121.9C130.4 0 132.6 7 132.6 10.7V88.7C132.6 97.2 125.6 99.5 121.9 99.5ZM67 66.3C41.7999 66.3 20.6 64.4 19 63.6C19.8 63.2 25.3 62.4 33.6 61.6C35.4 61.4 37.2 61.3 39.2 61.2C40.1782 61.1534 41.1781 61.0852 42.1997 61.0154L42.2 61.0154L42.2005 61.0153C43.3718 60.9354 44.5716 60.8534 45.8 60.8L45.8001 60.8C47.4001 60.7 49 60.6 50.7 60.6C55.7999 60.4 61.2999 60.3 67.0999 60.3C71.4999 60.3 75.7999 60.4 79.8999 60.5C80.4631 60.5 80.9999 60.5262 81.524 60.5518C82.0238 60.5762 82.5119 60.6 82.9999 60.6C88.2999 60.8 93.1999 61.1 97.4999 61.5L97.5001 61.5C98.5 61.6 99.5 61.7 100.4 61.7C108.7 62.4 114.1 63.2 114.9 63.7C113.4 64.4 92.2 66.3 67 66.3ZM17.2 53.9C22.5 50.2 27.5 47.7 33.2 46C33.2999 46 33.4 45.8 33.3 45.7C33.3 45.6 33.1 45.5 33 45.6C27.2 47.3 22.2 49.9 16.7999 53.6C16.2999 53.1 15.8 52.6 15.4 52.1C20.9 48.7 26.2 46.6 33.3 44.9C33.4 44.9 33.5 44.8 33.5 44.6C33.5 44.4 33.4 44.4 33.2 44.4C26 46.2 20.7 48.2 15.2 51.7C14.9 51.3 14.6 50.8 14.4 50.4C20.1 47.3 26.5 45.1 33.7 43.7C33.7999 43.7 33.9 43.6 33.9 43.4C33.9 43.3 33.8 43.2 33.6 43.2C26.4 44.6 19.9 46.8 14.2 49.9C12.5 46.3 13.5 42.3 17 38.1L17.2 37.9C17.5726 37.5273 18.1675 36.8213 19.3573 35.4093L19.3582 35.4082C19.7645 34.9261 20.2402 34.3616 20.7999 33.7C24.3523 29.5101 24.669 28.7218 24.7728 28.4634L24.7728 28.4633C24.7829 28.438 24.791 28.4178 24.8 28.4V28.3L24.7 28.2C23 24.9 18.2999 20.7 15.3 18.6C16 18.4 17 18.3 18.1 18.3C22.1 18.3 27.3 19.4 30.2 21L30.5 21.2L30.7 20.9C34 17.3 36.4 16 39.4 16C40.9 16 42.6 16.3 44.9 17L45.2 17.1L45.4 16.8C47.9 12.9 53.9 8.20002 57.2 7.20002C55.6 10.5 53.6 16.4 53.8 20.2V20.3L53.9 20.4C54.4 21.1 60.7 23.7 63.7 24.9C63.9343 25.0172 64.1686 25.1 64.3627 25.1687C64.5 25.2172 64.6171 25.2586 64.7 25.3C65.1 25.4 65.3 25.5 65.3 25.5L65.5 25.6C69.7999 27.3 72.2999 29.7 73.0999 32.8C73.1499 33.05 73.2 33.325 73.2499 33.6C73.2999 33.875 73.3499 34.15 73.3999 34.4V34.6C66.9999 34.8 60.3 36.2 53.4 38.7C53.3 38.7 53.2 38.9 53.3 39C53.3 39.1 53.4 39.1 53.5 39.1H53.6C60.5 36.6 67.0999 35.3 73.4999 35.1V35.8C73.4999 35.95 73.475 36.1249 73.45 36.2998L73.45 36.3C73.4249 36.475 73.3999 36.65 73.3999 36.8C66.8999 36.6 60.9 37.5 54.4 39.6C54.3 39.6 54.2 39.8 54.3 39.9C54.3 40 54.4 40.1 54.5 40.1H54.6C61 38.1 66.9999 37.2 73.3999 37.4V37.6C73.3204 38.0775 73.1775 38.4916 73.0216 38.9432L73.0216 38.9433L73.0214 38.944C72.9815 39.0596 72.9407 39.1777 72.8999 39.3V39.4C66.4999 38.9 60.9 39.1 55.1 40.6C55 40.6 54.9 40.7 54.9 40.9C54.9 41 55 41.1 55.1 41.1H55.2C60.9 39.6 66.3999 39.4 72.7 39.9C71.7999 42.5 70.2 45.1 68 47.7C67.85 47.85 67.7 48.025 67.55 48.1999L67.5499 48.2L67.5499 48.2001C67.3999 48.3751 67.2499 48.55 67.0999 48.7C64.5999 51.5 61.5 54.1 58.1 56.2C46.1 56.3 33.7 56.9 24.9 58.5C21.8 57.2 19.2 55.7 17.2 53.9ZM74.2999 36.6C74.2999 36.4 74.2999 36.1 74.3999 35.9V35.2H76.2999C75.6 35.5 74.8999 36 74.2999 36.6ZM72.0999 56H68.3999H67.3999H67.0999H66.0999H59.7C62.4 54.2 65 52 67.2 49.6C68 51.9 69.6999 54.1 72.0999 56ZM114.9 59.5C112.6 58.8 109.8 58.3 106.8 57.8C107.6 56.9 108.2 55.8 108.5 54.7C108.55 54.8 108.575 54.9 108.6 55C108.625 55.1 108.65 55.2 108.7 55.3C109.262 56.8939 110.792 57.4329 112.135 57.9061C112.224 57.9376 112.313 57.9688 112.4 58C112.537 58.0515 112.672 58.1 112.802 58.1471C113.431 58.3745 113.969 58.5686 114.3 58.9L114.7 59.3L114.9 59.5ZM71.9999 18.643L72 18.643L72.0046 18.6378C72.137 18.491 72.2687 18.3451 72.3999 18.2C72.5107 18.077 72.6206 17.9546 72.7298 17.833L72.7371 17.8248C75.2873 14.9851 77.4593 12.5665 81.0999 11.8C84.4999 10.8 89.9999 10.9 95.7999 12.1C101.6 13.3 106.6 15.3 109.4 17.7C112.5 20 113.6 23.3 114.8 27.1C115.7 30 116.8 33.4 119 36.7C124.8 45.5 124.6 55.3 118.5 60.4C117.7 60.7 116.8 59.9 115.5 58.6L115.1 58.2C114.5 57.7 113.7 57.4 112.8 57.1C111.5 56.7 110.1 56.2 109.7 55C108.4 51.4 108.4 47.5 108.4 43.4C108.4 39.9 108.3 36.3 107.6 32.5C107.6 32.2 107.3 32.1 107.1 32.1C106.8 32.1 106.7 32.4 106.7 32.6C107.312 35.9205 107.389 39.0119 107.465 42.0744V42.0745V42.0747C107.476 42.5169 107.487 42.9585 107.5 43.4C107.5 44.7 107.5 46 107.6 47.3C106.1 43.6 103.5 40 100.4 38.1C100.2 38 99.8999 38 99.7999 38.3C99.7 38.5 99.6999 38.8 99.9999 38.9C105 41.9 108.8 50.2 107.9 54.3C107.6 55.5 107 56.6 105.9 57.6C96.4999 56.4 84.7999 56 73.5999 56C70.5999 53.8 68.5999 51.3 68.0999 48.8C70.5999 45.9 72.5999 42.9 73.5999 39.8C76.2999 40 79.1 40.4 82.2 40.9C82.2999 40.9 82.3999 40.8 82.3999 40.7C82.3999 40.6 82.2999 40.5 82.2 40.5C79.376 40.0294 76.7293 39.7359 74.1764 39.4529L73.7 39.4C73.75 39.15 73.825 38.925 73.9 38.7C73.975 38.475 74.0499 38.25 74.0999 38C74.1999 37.9001 74.3249 37.8001 74.4498 37.7001L74.45 37.7L74.45 37.7C74.575 37.6 74.7 37.5 74.7999 37.4C77.2999 37.5 79.7999 37.8 82.4999 38.2C82.5999 38.2 82.7 38.1 82.7 38C82.7 37.9 82.5999 37.8 82.4999 37.8C80.1085 37.4174 77.8085 37.2178 75.6 37.0261L75.2999 37C76.2 36.3 77.0999 35.7 77.8999 35.3C79.4999 35.4 81.0999 35.5 82.5999 35.8C82.6999 35.8 82.7999 35.7 82.7999 35.6C82.7999 35.5 82.6999 35.4 82.5999 35.4C81.2999 35.2 79.9999 35.1 78.5999 35C79.0999 34.8 79.7 34.6 80.2 34.5C80.5 34.5 80.5999 34.2 80.5999 34C80.5999 33.7 80.2999 33.6 80.0999 33.6C78.9999 33.8 77.8999 34.3 76.7999 34.9H74.2C74.2 34.4001 74.1 33.8001 74 33.2002L73.9999 33.2C74.9999 31.1 76.0999 29 77.4999 26.9C77.5999 26.7 77.5999 26.4 77.3999 26.3C77.2 26.2 76.8999 26.2 76.7999 26.4C75.4999 28.2 74.4999 30.1 73.5999 31.9C72.6999 29.2 70.5 26.6 65.7 24.6C68.3043 22.7398 70.2165 20.62 71.9999 18.643ZM125.5 82.1C125.1 79.3 122.9 66.9 122.3 64.4C122 63.1 120.8 62 119 61C125.4 55.5 125.7 45.3 119.6 36.1C117.564 32.9969 116.562 29.9878 115.591 27.0727L115.5 26.8L115.356 26.3547L115.355 26.3546C114.122 22.5476 113.073 19.3104 109.8 17C107.5 15.1 103.7 13.3 99.2999 12.1C99.4999 11.8 99.6 11.6 99.7999 11.2C99.885 11.0725 99.9339 10.9811 100 10.8567L100 10.8565C100.09 10.6883 100.213 10.4597 100.5 10C100.6 9.80002 100.6 9.50002 100.4 9.40002C100.2 9.30002 99.8999 9.30002 99.7999 9.50002C99.5743 9.9062 99.4097 10.1902 99.2787 10.4163L99.2786 10.4164C99.1194 10.6913 99.0097 10.8806 98.8999 11.1C98.8381 11.1618 98.7763 11.2618 98.6909 11.4C98.6381 11.4855 98.5763 11.5854 98.4999 11.7L98.3999 11.9C98.0999 11.8 97.7 11.7 97.2999 11.7C97.3438 11.6342 97.3828 11.5781 97.4181 11.5273C97.5438 11.3466 97.6219 11.2342 97.7 11C97.75 10.9 97.825 10.775 97.9375 10.5875L97.9375 10.5874C98.05 10.3999 98.2 10.1499 98.3999 9.80002C98.4999 9.60002 98.4999 9.30002 98.2999 9.20002C98.2695 9.18478 98.2413 9.16953 98.2151 9.15535L98.2149 9.15524C98.0694 9.07646 97.9847 9.0306 97.8999 9.20002C97.4999 9.80002 97.2999 10.2 97.0999 10.6C97.0542 10.6458 96.9875 10.7543 96.9 10.8968L96.8999 10.897C96.796 11.0661 96.6627 11.283 96.4999 11.5C96.3999 11.5 96.325 11.475 96.2499 11.45C96.1749 11.425 96.0999 11.4 95.9999 11.4C95.9999 11.2 95.9999 11 96.0999 10.5C96.1272 10.3637 96.1545 10.2496 96.1818 10.1355C96.2545 9.83142 96.3272 9.52728 96.3999 8.80002C96.3999 8.60002 96.1999 8.40002 95.9999 8.40002C95.7999 8.40002 95.5999 8.60002 95.5999 8.80002C95.5999 9.41168 95.5076 9.88478 95.4484 10.1879L95.4484 10.188C95.4205 10.3309 95.3999 10.436 95.3999 10.5C95.3999 10.5828 95.3828 10.6828 95.3627 10.7999L95.3627 10.8C95.3343 10.9657 95.2999 11.1657 95.2999 11.4C95.0999 11.35 94.9249 11.325 94.75 11.3C94.575 11.275 94.3999 11.25 94.2 11.2C94.2 11.0349 94.2303 10.9 94.2575 10.7788C94.2797 10.6798 94.2999 10.5899 94.2999 10.5C94.3999 10.2 94.3999 10 94.3999 8.50002C94.3999 8.30002 94.1999 8.10003 93.9999 8.10003C93.7999 8.10003 93.5999 8.30002 93.5999 8.50002C93.5999 9.45702 93.5532 9.8533 93.5236 10.1041C93.51 10.2202 93.4999 10.3051 93.4999 10.4C93.4999 10.5 93.4999 10.7 93.3999 11C93.0999 10.9 92.7 10.9 92.3999 10.9C92.3999 10.7098 92.3598 10.5598 92.3303 10.45C92.3133 10.3866 92.2999 10.3366 92.2999 10.3C92.2999 10.2051 92.2899 10.1202 92.2763 10.0041C92.2467 9.7533 92.2 9.35702 92.2 8.40002C92.2 8.20002 91.9999 8.00002 91.7999 8.00002C91.6 8.00002 91.3999 8.20002 91.3999 8.40002C91.3999 9.4365 91.4477 9.85228 91.4772 10.1092C91.4904 10.2242 91.4999 10.3073 91.4999 10.4C91.4999 10.5 91.4999 10.6 91.5999 10.8C87.3999 10.3 83.7999 10.5 81.0999 11.2C77.1475 12.0893 74.7572 14.7361 71.9996 17.7897L71.8999 17.9C70.2 19.9 68.3999 21.9 66 23.7C65.8999 20.8 65.2 17.4 64.0999 14.4C62.6999 10.1 60.7 6.50002 58.8 6.40002H58.6C55.4 6.40002 48.2999 11.6 45.2 16.2C43 15.5 41.3 15.2 39.8 15.2H39.2C39.4 13.9 39.7999 12.9 41.7 11.6C41.9 11.5 42 11.2 41.8 11C41.7 10.8 41.4 10.7 41.2 10.9C38.9 12.4 38.5 13.8 38.3 15.3C38.2 15.3 38 15.3 37.9 15.4L37.8999 15.4C37.7999 15 37.6999 14.6 37.5 14.2C37.1 13.2 36.9 12.6 37.7 11.9C37.9 11.7 37.9 11.5 37.8 11.3C37.6 11.1 37.4 11.1 37.2 11.2C35.816 12.2874 36.3865 13.5703 36.7861 14.469L36.8 14.5C36.9527 14.8056 37.0472 15.1112 37.1278 15.3721C37.1527 15.4528 37.1763 15.5292 37.2 15.6C36.7 15.7 36.2 15.9 35.7 16.2C35.5 15 35.1 13.8 33.6 12.5C33.4 12.3 33.1 12.4 33 12.6C32.7999 12.8 32.9 13.1 33.1 13.2C34.6 14.4 34.8999 15.5 35 16.7C33.7 17.5 32.4 18.6 30.9 20.2C27.8 18.7 22.7 17.6 18.6 17.6C17.2 17.6 15.2 17.8 14.2 18.5C13.1 19.2 12.8 21.1 12.8 23C12.6 26.2 13.4 30.7 14.9 34.5C15.4 35.9 16 37.1 16.6 38.1C13.1 42.5 12.1 46.8 13.9 50.7C11.4 52.1 9.09995 53.6 6.89995 55.3C6.79995 55.4 6.79995 55.5 6.89995 55.6L7.09995 55.7H7.19995C9.39995 54 11.7 52.5 14.1 51.1C14.244 51.4601 14.4399 51.7683 14.6503 52.0994C14.732 52.228 14.816 52.3601 14.9 52.5L14.7174 52.6218L14.7 52.6C12.685 53.8822 10.754 55.3322 8.59955 56.95L7.99995 57.4H7.89995L8.19995 57.6C8.09995 57.5 8.09995 57.4 8.19995 57.3C10.5305 55.455 12.6725 53.9872 14.7174 52.6218C15.1144 53.1174 15.6072 53.7058 16.1 54.1C13.9 55.6 11.7 57.3 9.29995 59.2C9.19995 59.3 9.19995 59.4 9.29995 59.5L9.49995 59.6H9.59995C12 57.7 14.3 56 16.4 54.5C18.2 56.2 20.6 57.6 23.2 58.7C17.1 60 12.9 61.9 12.3 64.5C11.7 66.9 8.99995 78.7 8.59995 82.3C8.19995 85.2 8.49995 86.7 10.6 87.8C14.4 89.6 29.3 90.8 38.3 90.8C42.7 90.8 47.7 90.8 52.5 90.9C54.9517 90.9 57.4296 90.9261 59.8535 90.9516L59.8548 90.9517H59.8553C62.1763 90.9761 64.4479 91 66.5999 91H67.5C71.8999 91 76.8999 91 81.7999 90.9C84.2387 90.9 86.729 90.8742 89.1792 90.8488H89.1796C91.5518 90.8242 93.8864 90.8 96.0999 90.8C104.6 90.8 118.8 90 123.2 87.8C125.2 86.8 125.9 85 125.5 82.1ZM45.5 27C45.5999 27 45.7 27 45.8 26.9C48 24.8 50.7 23.9 53.3 24.3C53.5 24.3 53.8 24.2 53.8 23.9C53.8 23.7 53.7 23.4 53.4 23.4C50.5 23 47.6 24 45.2 26.2C45 26.4 45 26.6 45.2 26.8C45.2 27 45.4 27 45.5 27ZM42.1 50.2C41.3 49.6 41.1 48.7 40.9 47.8C40.9 47.7 40.875 47.6 40.85 47.5C40.825 47.4 40.8 47.3 40.8 47.2C40.5 45.8 40.2 44.6 39 44.6C38.7626 44.6 38.5252 44.6626 38.2383 44.7383C38.1626 44.7583 38.0834 44.7791 38 44.8C36.8999 45.2 36.2999 45.8 36.2 46.6C36.1 47.6 36.9 48.6 38.2 49.3C38.2561 49.3562 38.3438 49.3808 38.4453 49.4093C38.5246 49.4316 38.6123 49.4562 38.7 49.5C38.6683 49.4209 38.6341 49.3367 38.5982 49.2483L38.5982 49.2482C38.4074 48.7783 38.1683 48.1891 38 47.6C37.8999 47.1 38 46.5 38.2 46.3C38.5 46 38.9 46.2 39 46.5C39.0251 46.5756 39.044 46.6766 39.0661 46.7949C39.1317 47.1464 39.2259 47.6512 39.6 48.1C40.1 48.7 40.4 49.1 40.9 50C41.0999 50.05 41.2999 50.075 41.4999 50.1L41.5 50.1C41.7 50.125 41.9 50.15 42.1 50.2ZM41.8 40.8C41.7 40.5 41.5 40.3 41.3 40.3C41.1 40.3 41 40.6 41.1 40.9C41.1 41.2 41.3 41.4 41.6 41.4C41.7 41.4 41.8 41.1 41.8 40.8ZM53.5 45.6C53.5999 45.8 53.5 46.1 53.2 46.2C52.4 46.5 51.7 47.2 51.1 47.8C50.6 48.3 50.1 48.8 49.6 49.1C48.7 49.6 48.0999 49.8 47.5 49.7C47.2 49.7 46.9 49.6 46.7 49.5C46.5 49.4 46.3 49.2 46.1 49L46.1 49L45.8 49.9C45.5 50.4 45 50.7 44.2 50.9C43.6 51 43.4 51 42.9 51H42.4C41.1 51 38.6 50.6 37.7 50.1C36.1 49.3 35.2 47.9 35.3 46.6C35.4 45.4 36.2999 44.5 37.7 44C38.1 43.9 38.6 43.8 38.9 43.8C40.8113 43.8 41.2613 45.6266 41.5593 46.8359L41.5595 46.8367C41.5733 46.8926 41.5867 46.9471 41.6 47C41.6 47.1 41.6249 47.2 41.6499 47.3L41.65 47.3L41.65 47.3001C41.675 47.4001 41.7 47.5 41.7 47.6C42 48.8 42.3 49.5 43.3 49.9C43.5 50 43.7 50 43.9 50C44.1 50 44.2 50 44.4 49.9C44.7 49.8 44.9 49.6 45 49.4C45.2 49.1 45.2999 48.6 45.2 48.3C45.2 48.2 45.15 48.05 45.1 47.9C45.0499 47.75 45 47.6 45 47.5C44.7857 46.9 44.6265 46.4653 44.4673 46.0306C44.2551 45.451 44.0428 44.8715 43.7 43.9C42.2 43.7 39.7999 43.1 39.2 41.3C39 40.6 39.0999 39.9 39.5 39.3C40.2999 37.9 42 37.2 42.8 37C42.8828 37 42.9828 36.9829 43.1 36.9628L43.1 36.9628C43.2657 36.9343 43.4657 36.9 43.7 36.9C44.7 36.8 47.5 37.1 47.9 38.9C48.2 40.3 47.2999 41.9 45.2 43.5C45.3499 44.1998 45.4499 44.6747 45.5499 45.1496L45.5499 45.15C45.65 45.625 45.75 46.1 45.9 46.8C45.94 46.96 45.98 47.088 46.02 47.216L46.02 47.2161C46.08 47.4081 46.14 47.6001 46.2 47.9C46.2999 48.2 46.5999 48.6 47 48.7C47.5 48.9 48.2 48.9 49.2 48.3C49.7 48 50.0999 47.6 50.5 47.2C51.2 46.5 52 45.7 53 45.4C53.2 45.3 53.4 45.4 53.5 45.6ZM37.8 39.5C37.5739 38.2188 36.6661 36.0855 34.9483 35.1123C35.3699 35.5966 35.5469 36.5713 35.4 37.6C35.2 38.6 34.6 39.5 34 39.8C34.5 39.9 34.9 39.9 35.3 39.9C36.2 40 37.1 39.8 37.8 39.5ZM32.4 37.1C32.6793 35.7964 33.4789 34.8396 34.2335 34.7948C33.8545 34.67 33.4436 34.6 33 34.6C32.2 34.6 31.4 34.8 30.5 35.2C30.2 36.4 30.3 37.4 30.9 38.2C31.3 38.8 31.9 39.2 32.6 39.4C32.3 38.9 32.2 38 32.4 37.1ZM38.3 39.9C37.5 40.3 36.4 40.6 35.3 40.6C33.7 40.6 31.5 40.1 30.4 38.6C29.7 37.6 29.5 36.4 30 35V34.9L30.1 34.8C31.1 34.3 32 34.1 32.9 34.1C36.5 34.1 38.2 37.9 38.4 39.7V39.9H38.3ZM52.4 29.3C50.7964 29.3944 49.6377 29.9335 48.84 30.9176C48.8557 30.9064 48.8746 30.9 48.9 30.9C49.5 30.4 50.9 30.9 51.8 31.9C52.4 32.6 52.7 33.3 52.7 33.9C53 33.5 53.2 33.1 53.4 32.7C53.9 31.5 53.6 30.3 52.4 29.3ZM48.7 31.1C48.7269 31.0629 48.7544 31.0264 48.7823 30.9904L48.7819 30.991L48.7819 30.991C48.7617 31.0237 48.7381 31.0618 48.7 31.1ZM48.5 31.4C48.5 31.3 48.6 31.2 48.7 31.1C48.4 31.8 48.7 32.9 49.5 33.8C50.2 34.5 51 35 51.7 35C50.6 35.9 49.2 36.5 48.1 36.5C47.7 35.3 47.5 33.1 48.5 31.4ZM54 32.9C53.0999 35.3 50.1 37.1 47.9 37.1H47.7L47.6 37C47.1 35.7 46.7 33.1 47.9 31.1C48.8 29.6 50.2999 28.8 52.5 28.7H52.6L52.7 28.8C54.5 30.3 54.4 31.9 54 32.9ZM27.4 31.2C27.3 31.3 27.2 31.3 27.1 31.3C27 31.3 26.9 31.2 26.8 31.1C26.6 30.9 26.7 30.6 26.9 30.5C29.1 28.7 32 28.2 35.2 29C35.4 29.1 35.6 29.3 35.5 29.5C35.3999 29.7 35.2 29.9 35 29.8C32 29.1 29.4 29.5 27.4 31.2ZM96.2999 19.9C96.2999 19.7 96.5 19.5 96.7 19.5C99.5 19.5 102.1 21.2 104 24.2C104.1 24.4 104.1 24.7 103.9 24.8C103.8 24.8 103.7 24.9 103.7 24.9C103.6 24.9 103.4 24.8 103.3 24.7C101.6 22 99.2999 20.4 96.7 20.4C96.5 20.3 96.2999 20.1 96.2999 19.9ZM95.7 54.7C94.8999 54.8 94.0999 54.8 93.3999 54.7C93.5958 54.3475 93.8836 54.0411 94.1734 53.7325C94.6235 53.2533 95.0783 52.7692 95.2 52.1C95.2999 51.7 95.2 51.4 94.8999 51.3C94.4532 51.0767 94.2837 51.3522 94.0611 51.7139C93.9847 51.8381 93.9021 51.9723 93.7999 52.1C93.6 52.3 93.3999 52.5 93.0999 52.7C92.4999 53 91.7999 53.4 91.2999 54C90.6 53.5 90.1 52.9 89.7 52.1L89.6999 52.0999C89.5999 51.8999 89.4999 51.7 89.3999 51.4C91.2 51.2 93.2 50.1 94.7 49.2C96.2999 48.1 97.7999 47.2 98.9999 47.7C99.5999 47.9 99.7999 48.3 99.8999 48.9C100.2 50.6 97.6 53.6 95.7 54.7ZM87.2 35.4C87.1 35.9 86.7 36.2 86.3999 36.2C86.0999 36.1 85.8999 35.6 85.9999 35.1C86.0999 34.6 86.4999 34.3 86.7999 34.3C87.2 34.4 87.2999 34.9 87.2 35.4ZM100.3 52.8C99.8999 53.1 99.3999 53.4 98.2999 53.9C98.2 53.95 98.125 53.975 98.0499 54C97.9749 54.025 97.8999 54.05 97.7999 54.1C99.4999 52.6 101 50.4 100.9 48.7C100.8 47.8 100.4 47.1 99.4999 46.7C97.7999 46 96.1 47.1 94.2999 48.3L94.1902 48.3732C92.7219 49.3529 91.1561 50.3976 89.3999 50.3H89.2999C89.2 49.4 89.1 48.2 89.2 46.9C89.209 46.8093 89.2181 46.717 89.2272 46.6233L89.2422 46.4692V46.4691C89.3299 45.5677 89.428 44.5599 89.5999 43.7C91.9999 42.9 95.8999 40.4 96.3999 37.8C96.8999 35 93.7 32.6 91.3999 32.3C89.2 31.6 85.1999 32.5 84.5999 35.3C83.9999 37.9 86.6999 42 88.5999 43.6C88.2999 44.6 87.8999 45.8 87.3999 46.8C86.4999 48.8 85.5999 50.3 84.5999 51C83.3999 51.9 81.9999 52.2 80.3999 51.8C78.7999 51.4 77.2999 50.3 76.2 48.9C75.5 48 75.0999 47.4 74.8999 47C74.7999 46.7 74.4999 46.2 74.0999 46.4C73.6999 46.6 73.8999 47.1 74.2 47.6C74.2464 47.6774 74.2928 47.7595 74.3425 47.8476C74.6143 48.3286 74.9856 48.9857 75.9999 50C76.8999 50.9 77.9999 52 79.8999 52.6C81.3999 53.1 83.2999 53 84.5999 52.2C85.8999 51.4 86.9999 50.1 87.8999 48.2L87.9 48.1999C88 48 88.1 47.8 88.2 47.5V47.9C88.2 50 88.4999 51.7 89.2999 53C90.1 54.3 91.7 55.3 93.2999 55.5C95.2 55.8 96.7 55.4 97.8999 54.9C99.2008 54.4664 99.8999 54.0328 100.389 53.7296C100.464 53.6832 100.534 53.6399 100.6 53.6C101.1 53.3 101.5 52.9 101.2 52.5C101.067 52.3667 100.844 52.5 100.622 52.6334C100.511 52.7 100.4 52.7667 100.3 52.8ZM90.9999 26.1C91.2999 26.9 91.2999 27.7 90.9999 28.5C90.9999 28.6 90.8999 28.7 90.8999 28.7C91.0999 27.6 90.4999 26.5 89.3999 26.1C88.2 25.6 86.7 26.2 86.2 27.4C85.7999 28.5 86.1999 29.7 87.0999 30.3L86.8999 30.2C86.0999 29.9 85.5 29.3 85.2 28.5C84.8999 27.7 84.8999 26.9 85.2 26.1C85.7 24.9 86.8999 24.1 88.2 24.1C88.6 24.1 88.9999 24.2 89.3999 24.3C89.9999 24.7 90.5999 25.3 90.9999 26.1ZM84.4999 25.9C84.0999 26.8 84.0999 27.9 84.4999 28.8C84.8999 29.7 85.5999 30.4 86.5999 30.8C86.9999 31 87.4999 31.1 87.9999 31.1C89.4999 31.1 90.8999 30.1 91.4999 28.7C91.8999 27.8 91.8999 26.8 91.4999 25.8C91.0999 24.9 90.3999 24.2 89.3999 23.8C88.9999 23.6 88.4999 23.5 87.9999 23.5C86.4999 23.5 85.0999 24.5 84.4999 25.9ZM81.3999 22.6C81.2999 22.7 81.1999 22.7 81.0999 22.7C80.9999 22.7 80.8999 22.7 80.7999 22.6C80.6 22.4 80.6 22.2 80.7999 22C83.1 19.4 85.8999 18.3 88.7 18.8C88.8999 18.8 89.0999 19.1 88.9999 19.3C88.9999 19.5 88.6999 19.7 88.4999 19.6C85.9999 19.2 83.4999 20.3 81.3999 22.6ZM93.7999 28.9C93.7999 27.2 95.2 25.8 96.8999 25.8H97.0999C97.9999 25.8 98.7 26.2 99.2999 26.8C99.8999 27.4 100.2 28.2 100.1 29.1C100.1 30.8 98.5999 32.2 96.8999 32.2H96.7999H96.4999C97.5999 32 98.3999 31 98.4999 29.9C98.4999 28.6 97.4999 27.5 96.0999 27.4C95.0894 27.4 94.1632 27.9908 93.7867 28.9398L93.7999 28.9ZM96.7999 32.8C98.8999 32.8 100.6 31.2 100.7 29.1C100.7 28.1 100.4 27.1 99.7 26.4C99 25.7 98.0999 25.2 97.0999 25.2C94.9999 25.1 93.2999 26.8 93.2 28.8C93.2 29.8 93.5 30.7 94.2 31.4C94.7999 32.3 95.7999 32.8 96.7999 32.8ZM119.6 71.2H110.1V82.3H114.3V78.3H119.5V75.7H114.3V73.7H119.6V71.2ZM109 75C109 72.2 106.9 71.2 105 71.2H97.6V82.3H101.8V79.1H105C106.2 79.1 107.2 78.8 107.9 78.1C108.6 77.4 109 76.4 109 75ZM96.5 82.3L92.5 71.2H86.7L82.8 82.3H87L87.7 79.9H91.5L92.2 82.3H96.5ZM81.9 71.2H78.3V79.1H78.1L76 71.2H69.7V82.3H73.2V74.1H73.4L75.6 82.3H81.8L81.9 71.2ZM68.6 78.8C68.6 76.2262 66.51 75.7424 64.842 75.3563C64.7602 75.3374 64.6795 75.3187 64.6 75.3C63.6 75.1 62.7 74.9 62.7 74.3C62.7 73.5 64 73.5 64.6 73.5C65.7 73.5 66.8 73.7 67.9 74V71.4C66.7 71.2 65.4 71 64.3 71C60.5 71 58.6 72.2 58.6 74.6C58.6 77.3 60.9 77.8 62.6 78.1C63.7 78.3 64.5 78.5 64.5 79.1C64.5 79.9 63.1 80 62.5 80C61.2 80 59.8 79.7 58.7 79.3V82C60.3 82.4 61.7 82.5 63.3 82.5C64.3 82.5 65.8 82.4 66.9 81.8C68 81.1 68.6 80.2 68.6 78.8ZM57.6 78.8C57.6 76.2262 55.51 75.7424 53.842 75.3563C53.7602 75.3374 53.6795 75.3187 53.6 75.3C52.6 75.1 51.7 74.9 51.7 74.3C51.7 73.5 53 73.5 53.6 73.5C54.7 73.5 55.8 73.7 56.9 74V71.4C55.7 71.2 54.4 71 53.3 71C49.5 71 47.6 72.2 47.6 74.6C47.6 77.3 49.9 77.8 51.6 78.1C52.7 78.3 53.5 78.5 53.5 79.1C53.5 79.9 52.1 80 51.5 80C50.2 80 48.8 79.7 47.7 79.3V82C49.3 82.4 50.7 82.5 52.3 82.5C53.3 82.5 54.8 82.4 55.9 81.8C57 81.1 57.6 80.2 57.6 78.8ZM46.2 79.8H40.6V78.1H45.9V75.5H40.6V73.7H46.1V71.1H36.5V82.2H46.2V79.8ZM35.3 82.3C35.1 81.8 35 81.3 34.9 80.7C34.8 79.9 34.6 79.1 34.3 78.4C33.9 77.7 33.3 77.4 32.4 77.2V77.1V77H32.5C34.3 76.6 35.1 75.6 35.1 74.1C35.1 72.1 33.7 71.2 30.8 71.2H23.9V82.3H28V78.5H29C29.5 78.5 30 78.5 30.3 79.1C30.4858 79.4716 30.5853 80.2746 30.6786 81.0281L30.7 81.2V81.3C30.7 81.7 30.8 82.1 30.9 82.4H35.3V82.3ZM22.5 71.2H13V82.3H17.2V78.3H22.4V75.7H17.2V73.7H22.5V71.2ZM104.8 75.1C104.8 76.5 103.6 76.6 102.6 76.6H101.6V73.6H102.6C103.8 73.7 104.8 73.9 104.8 75.1ZM30.9 74.8C30.9 76 30 76.1 29.1 76.1H27.9V73.5H29.2L29.2267 73.5033C30.0199 73.6023 30.9 73.7122 30.9 74.8ZM89.7 73.6L91 77.4H88.3L89.6 73.6L89.7 73.5V73.6Z" fill="black"/>
</svg>
