<svg width="165" height="40" viewBox="0 0 165 40" fill="none" xmlns="http://www.w3.org/2000/svg">
<path d="M50.072 2.771C42.929 2.771 38.593 9.31 38.593 19.573C38.593 29.896 43.035 36.374 50.072 36.374C57.248 36.374 61.556 30.043 61.556 19.573C61.557 9.256 57.028 2.771 50.072 2.771ZM50.072 0C61.28 0 69.585 8.278 69.585 19.572C69.585 30.937 61.058 39.141 50.072 39.141C38.82 39.141 30.566 30.809 30.566 19.572C30.566 8.344 38.876 0 50.072 0ZM95.521 2.771C88.375 2.771 84.039 9.31 84.039 19.573C84.039 29.896 88.484 36.374 95.521 36.374C102.691 36.374 107 30.043 107 19.573C107.004 9.256 102.479 2.771 95.521 2.771ZM95.521 0C106.724 0 115.029 8.278 115.029 19.572C115.029 30.937 106.505 39.141 95.521 39.141C84.267 39.141 76.011 30.809 76.011 19.572C76.011 8.344 84.32 0 95.521 0ZM156.502 35.267C156.502 34.7577 156.603 34.2534 156.798 33.783C156.993 33.3126 157.279 32.8853 157.639 32.5255C158 32.1657 158.428 31.8805 158.898 31.6861C159.369 31.4918 159.874 31.3922 160.383 31.393C161.41 31.3938 162.395 31.8022 163.121 32.5285C163.848 33.2549 164.256 34.2398 164.257 35.267C164.255 36.294 163.847 37.2784 163.121 38.0046C162.394 38.7307 161.41 39.1394 160.383 39.141C159.355 39.1415 158.368 38.7338 157.641 38.0073C156.913 37.2809 156.503 36.2953 156.502 35.267ZM164.406 4.343C164.406 7.584 161.757 20.782 161.423 27.63C161.078 27.5717 160.729 27.5419 160.379 27.541C160.022 27.541 159.673 27.573 159.334 27.63C158.997 20.782 156.354 7.584 156.354 4.343C156.354 1.901 157.639 0 160.379 0C163.12 0 164.406 1.901 164.406 4.343ZM133.891 0.973C142.419 0.973 148.743 3.819 148.743 11.581C148.743 19.051 142.423 22.681 133.891 22.681H130.557V32.946C130.557 37.304 132.38 37.304 132.38 37.304V38.17H121.415V37.304C121.415 37.304 123.242 37.304 123.242 32.946V6.197C123.242 1.837 121.415 1.837 121.415 1.837V0.973H133.891ZM133.331 19.863C139.044 19.863 141.295 15.718 141.295 11.58C141.295 7.335 139.044 3.791 133.331 3.791H130.557V19.863H133.331ZM13.029 0.972H24.179V1.837C24.179 1.837 22.354 1.837 22.354 6.198V28.63C22.354 36.068 17.007 39.143 9.65898 39.143C6.68598 39.143 3.07098 38.2 0.695984 36.31L2.80698 32.169C4.28498 34.648 6.52898 36.188 9.64398 36.188C12.258 36.188 14.853 34.586 14.853 30.534V6.197C14.853 1.836 13.028 1.836 13.028 1.836L13.029 0.972Z" fill="black"/>
</svg>
