<svg width="60" height="60" viewBox="0 0 60 60" fill="none" xmlns="http://www.w3.org/2000/svg">
<path fill-rule="evenodd" clip-rule="evenodd" d="M59.479 0.521973H0.522003V59.479H59.479V0.521973ZM3.85001 30C3.85001 15.558 15.558 3.84998 30 3.84998C44.443 3.85598 56.15 15.567 56.15 30.011C56.144 44.448 44.438 56.15 30 56.15C15.558 56.15 3.85001 44.442 3.85001 30ZM28.377 30.736L23.76 26.119L18.438 31.451V30.011L13.675 32.661V26.922H15.047V25.148H6.82401V26.922H8.20101V33.084H6.82401V34.868H18.438L18.438 33.241L19.779 31.895L23.494 35.62L22.122 36.987L23.014 37.884L30.444 30.444V28.66L28.378 30.737L28.377 30.736ZM41.494 26.922V25.148H49.726V26.922H48.349V32.661L53.118 30.011V34.868H41.494V33.084H42.871V26.922H41.494ZM23.082 19.623C24.698 19.623 26.009 20.933 26.009 22.55C26.009 24.167 24.699 25.477 23.082 25.477C21.466 25.477 20.155 24.167 20.155 22.55V22.54C20.155 20.929 21.461 19.623 23.072 19.623H23.082ZM36.913 25.148H29.087V26.922H30.459V33.084H29.071V34.868H36.897C42.709 34.868 42.782 25.148 36.913 25.148ZM35.812 31.826H35.421V28.174H35.75C37.467 28.174 37.466 31.826 35.812 31.826Z" fill="#0050AA"/>
</svg>
