<?xml version="1.0" encoding="utf-8"?>
<!-- Generator: Adobe Illustrator 19.0.0, SVG Export Plug-In . SVG Version: 6.00 Build 0)  -->
<svg version="1.1" id="Layer_1" xmlns="http://www.w3.org/2000/svg" xmlns:xlink="http://www.w3.org/1999/xlink" x="0px" y="0px"
	 viewBox="0 0 1920 491.4" style="enable-background:new 0 0 1920 491.4;" xml:space="preserve">
<g>
	<path d="M1920,360c-66.8,0-133.7,0-200.5,0c-95.7,0-191.3,0-287,0c-104.3,0-208.6-0.1-313-0.1c-96.2,0-192.3,0-288.5,0
		c-106.7,0-213.3,0-320,0c-48.8,0-97.7,0-146.5,0c-4.8,0-9.7-0.2-14.5-0.2c-3.8,0-6.5-1.6-7.9-5c-1.5-3.4-2.7-6.8-3.9-10.3
		c-1.1-3.2,0-5.3,3.4-5.8c3.3-0.4,6.6-0.8,10-0.8c57.8,0.1,115.6,0.3,173.5,0.4c204.8,0,409.6,0,614.4,0c95.2,0,190.3,0.1,285.5,0.1
		c111.8,0,223.6,0,335.5,0c51,0,102,0,153,0c2.1,0,4.3,0.3,6.4,0.4C1920,346,1920,353,1920,360z"/>
	<path d="M195,0c1.3,1.1,2.5,2.6,4.1,3.2c13.6,5.3,24.7,14,32.1,26.5c10.2,17,12.7,34.7,5.9,54c-4.9,13.8-14.8,22.7-24.9,31.7
		c-4.6,4.1-9.8,3.4-14.3-1c-0.6-0.6-1-1.4-1.7-1.8c-2-1.3-4.1-2.4-6.1-3.6c-0.9,2-2.2,4-2.5,6.1c-1.5,9.7-5.8,12.5-15.5,11
		c-15.2-2.3-29.1-7.6-39.9-18.7c-11.7-12-17.8-26.4-17.8-43.6c0-18.9,7.6-34.1,20.1-47.4c3-3.2,7-5.6,10.6-8.2
		c3.1-2.2,6-1.2,8.5,1.4c1.8,1.9,3.3,4.2,5.2,6c3.9,3.7,7.6,2.7,8.9-2.4c1.1-4.4,1.6-8.8,2.3-13.3C178.3,0,186.7,0,195,0z"/>
	<path d="M1920,256c-14.6,4.2-29.4,1.4-44.2,1.9c-2.7,0.1-5.3,1.7-7.9,2.5c1.2,2.9,1.5,6.8,3.6,8.6c8.4,7.3,18.2,9.3,28.9,5.5
		c1.3-0.4,2.5-1,3.8-1.2c4.6-0.9,8.7,1.8,9.8,6.3c1.1,4.5-0.7,8.7-5.3,9.9c-15.7,4.1-31.3,4.9-46-3.6c-6.4-3.7-10.3-9.6-12.8-16.1
		c-7-18-4.4-36.2,10.7-49.7c20.2-18.2,50.1-7.5,55.4,14.3c0.6,2.4,2.6,4.5,4,6.7C1920,246,1920,251,1920,256z M1882.3,242.1
		c0,0.1,0,0.2,0,0.3c3.2,0,6.3,0.1,9.5,0c5.9-0.3,7.6-3.6,4.3-8.7c-3-4.6-7.2-7.6-12.8-7.3c-6.1,0.3-11.2,3.3-14.5,8.4
		c-2.3,3.5-0.6,6.6,3.6,7.1C1875.7,242.4,1879,242.1,1882.3,242.1z"/>
	<path d="M0,338c2.1,0.2,4.3,0.5,6.4,0.5c28.8-0.1,57.5-0.1,86.3-0.3c8.4,0,9.6,1.7,6.5,9.3c-5,12.2-4.1,12.7-19.4,12.6
		C53.2,360,26.6,360,0,360C0,352.7,0,345.3,0,338z"/>
	<path d="M377.4,432.9c-6.8,0-10.3-2.3-13.3-5.6c-21.6-23.9-47.6-42.1-75.9-57.1c-12.8-6.7-26-12.8-40.8-14.4
		c-30.9-3.4-58.6,5-83.6,23.1c-11.3,8.2-23.2,15.7-34.2,24.2c-12.8,9.9-24.8,20.7-37.4,30.7c-15,11.8-27.9,25.7-40.1,40.3
		c-1.8,2.1-4.4,3.6-6.5,5.4c-3.6,3.1-7.1,6.4-10.7,9.5c-1.3,1.2-2.8,2.1-5.1,2.4c0.2-0.7,0.1-1.6,0.5-2.2
		c8.4-11.9,17.1-23.6,25.2-35.7c10.4-15.5,20.7-31,30.3-47C92.7,395,99,383,104.3,370.7c12.2-28.1,24.3-56.3,22.4-88.1
		c-0.8-14-4.4-27.2-8.4-40.5c-8.1-26.4-22.3-49.5-40.4-70c-13.4-15.2-27-30.4-44.4-41.5c-4-2.5-7.4-6.1-11-9.4
		c-1.1-1-1.8-2.6-3.5-5.2c3.5,0.3,5.7,0.1,7.5,0.8c4,1.5,8.2,3,11.8,5.4c15.3,10.2,32.5,16.3,49.6,22.1
		c17.5,5.9,35.3,11.1,53.2,15.4c49.9,11.9,95.2,3.1,134.1-31.8c6.9-6.2,14.8-11.6,20.9-18.6c9.7-10.9,18.3-22.8,27.2-34.3
		c2.6-3.4,4.4-7.5,7.1-10.9c2.1-2.8,5-5,7.5-7.4c0.7,0.4,1.5,0.7,2.2,1.1c-0.9,4-1.3,8.1-2.8,11.9c-3.9,9.7-8.5,19.2-12.3,28.9
		c-3.4,8.7-6.4,17.5-9,26.4c-7,23.8-13.9,47.7-17.2,72.3c-2.1,15.5-4,31.1-2.7,47.1c3.1,38.6,17.4,73.4,33.9,107.5
		c9.4,19.4,20.9,37.8,31.8,56.5c2.5,4.3,6.6,7.5,9.3,11.7C373.4,423.6,374.9,427.8,377.4,432.9z M171,251.7
		C171.1,251.7,171.1,251.7,171,251.7c0,10,0.1,20,0,30c0,5.9,1.8,7.7,7.8,7.6c6.3,0,8.3-2,8.1-7.9c-0.3-11-0.5-22-0.9-33
		c-0.2-6.3,1.9-11.8,5.9-16.5c8.2-9.5,19.5-7.6,23.9,4.2c1.6,4.3,2.1,9.1,2.2,13.7c0.1,10.3-0.4,20.6-0.8,30.9
		c-0.2,6.5,1.8,8.5,8.6,8.5c6.1,0,7.8-2,7.6-8.3c-0.3-11.8-0.9-23.6-0.5-35.4c0.2-4.5,2-9.6,4.7-13.3c7.1-9.5,18.2-8.5,23.1,2.3
		c2.5,5.4,3.4,11.8,3.6,17.8c0.4,9.5-0.6,19-0.5,28.5c0,2.5,1.1,6.5,2.8,7.2c3.1,1.2,7.4,1.4,10.4,0.1c1.7-0.7,2.6-5,2.6-7.8
		c0.3-10.6,0.2-21.3-0.1-32c-0.2-5.8-0.3-11.7-1.7-17.3c-3.8-15.1-20.1-21.9-33.7-14.4c-2.8,1.5-5.2,3.6-7.8,5.4
		c-4.4,2.8-7.7,2.5-11.2-1c-9.5-9.6-19.3-10.4-30-2.3c-6.3,4.7-7,4.3-13-1c-1.9-1.7-5.8-2.3-8.4-1.8c-1.4,0.3-2.8,4.1-2.8,6.4
		C170.9,232.1,171,241.9,171,251.7z"/>
	<path d="M788.1,264c0,5.2-0.1,11.7,0,18.2c0.2,6.5-2.1,9.2-8.6,9.7c-1.5,0.1-3,0.1-4.5,0c-6.7-0.4-8.8-3-8.7-9.5
		c0.2-12.8,0.6-25.6,0.2-38.4c-0.1-3.9-2.1-8.5-4.6-11.5c-4.2-5-9.4-4.9-14.6-0.8c-4.7,3.7-6.6,8.7-6.5,14.5
		c0.2,12.3,0.4,24.6,0.7,36.9c0.1,5.1-1.9,7.9-6.9,8.6c-2.3,0.3-4.7,0.3-7,0.1c-5.8-0.5-7.9-3-7.8-8.8c0.2-12.8,0.4-25.6,0.7-38.4
		c0.1-5.1-1.3-9.4-5.4-12.8c-5-4.2-9.5-4.3-14.1,0.3c-4.3,4.3-6.8,9.4-6.7,15.6c0.2,11.2,0.4,22.3,0.8,33.5
		c0.2,7.7-2.6,10.8-10.2,10.8c-9.1,0-12-2.8-11.9-10.7c0.2-19,0.1-37.9,0.2-56.9c0-4.2-0.6-8.6,4.2-10.8c4.2-2,9.6-0.9,13.6,3.1
		c2.3,2.3,4.3,2.3,7.1,0.7c3.7-2.1,7.6-4.1,11.7-5.5c8.5-3,16-0.4,21.7,6c3.5,3.8,6.3,4.2,10.2,1.2c1.7-1.3,3.5-2.5,5.3-3.7
		c17.7-11.1,36.5-0.1,39.7,18.6C788.1,243.3,787.6,253.1,788.1,264z"/>
	<path d="M461.6,232.8c0,16.6,0,33.3,0,49.9c0,3.8-0.9,6.9-4.8,8.4c-5.3,2-11.9,0.7-14.4-3.4c-2.5-4-4.6-3.8-7.9-1.1
		c-11.9,9.7-30.9,7.2-40.6-5c-13-16.4-12.9-34.2-4.6-52.2c6.3-13.6,27.7-25,43.7-14.6c1.6,1,4.7,1.7,5.8,0.9
		c1.2-0.9,1.4-3.8,1.4-5.8c-0.1-8-0.5-15.9-0.8-23.9c-0.1-4.5,2.2-7.3,6.7-7.9c2.8-0.3,5.7-0.3,8.4,0.1c5,0.8,7.2,3.6,7.1,8.6
		c-0.1,7.6-0.3,15.3-0.4,22.9c-0.1,7.7,0,15.3,0,23C461.3,232.8,461.5,232.8,461.6,232.8z M440.1,247.3c0-0.9,0.3-2.4,0.2-3.9
		c-0.6-7.1-5.4-11.2-11-14.5c-4.6-2.7-9.2-1.5-13.7,1.1c-12.5,7.4-15.1,36.1,2.4,44c2.5,1.1,6,1.5,8.5,0.7
		c6.9-2.1,15.8-11.3,13.7-20.8C439.7,252,440.1,249.9,440.1,247.3z"/>
	<path d="M1834.4,234.9c0,15.8,0,31.6,0,47.4c0,4.1-0.8,7.8-5.3,9.2c-4.7,1.5-8.9,0.7-12.2-3.2c-4.4-5.1-4.4-5.1-9.2-0.9
		c-6.9,6.1-24,6.1-32.6,0.7c-13.6-8.6-21.4-32.1-16.8-46.7c4.9-15.3,12.5-26,28.6-29.9c6.7-1.6,12.4-0.3,18.2,2.8
		c2,1.1,4.6,1.1,6.9,1.6c0.4-2.5,1.1-5,1.1-7.5c0-7.8-0.6-15.6-0.1-23.4c0.2-2.3,2.9-5.2,5.2-6.3c2.5-1.2,5.9-1.1,8.8-0.9
		c5.5,0.3,7.8,3.9,7.7,10.7c-0.2,7.8-0.4,15.6-0.5,23.5c-0.1,7.7,0,15.3,0,23C1834.3,234.9,1834.3,234.9,1834.4,234.9z M1813,251.5
		c0-1.8,0-3.7,0-5.5c0.3-8.4-5.9-16.7-13.4-18c-7.1-1.3-16.1,4.4-18.5,12c-2.6,8.1-2.9,16.3,0.4,24.4c2.4,6.1,10.4,11.5,15.9,10.8
		c8-1.1,15-7.8,15.6-15.3C1813.2,257.2,1813,254.3,1813,251.5z"/>
	<path d="M1175.7,299.3c0.3,3.8,0.6,7.6,1,11.4c0.7,7.7-2,10.9-9.8,11c-2.5,0-5-0.2-7.4-0.9c-4.5-1.2-6.2-4.4-6-9.1
		c0.5-10.3,0.9-20.5,1-30.8c0.1-15.8,0-31.6-0.1-47.4c0-3.6-0.3-7.3-0.6-10.9c-0.3-4,0.4-7.4,4.4-9.2c4.1-1.8,8.5-1.8,11.4,1.9
		c3.7,4.7,6.8,4.3,11.3,1.2c17.3-11.8,40.7-4.1,47.7,16.3c6,17.6,3.6,42.4-13.5,53.8c-10.3,6.9-21.3,7.8-32.5,2.1
		c-5-2.6-6.6-1.7-6.6,3.9c0,2.2,0,4.3,0,6.5C1175.9,299.3,1175.8,299.3,1175.7,299.3z M1176,251.1c-0.1,0-0.2,0-0.3,0
		c0,2.8-0.2,5.7,0,8.5c0.7,8.1,6,12.7,12.8,15.8c6,2.7,10.6-0.8,14.8-4.5c8.4-7.5,9.8-24.8,3-34c-5.7-7.7-11.1-10-18.3-7.7
		c-7.9,2.5-12,8.5-12,18C1176,248.4,1176,249.8,1176,251.1z"/>
	<path d="M1446.6,205.8c-0.7,9.8-1.5,19.5-1.9,29.3c-0.1,1.6,1.1,3.3,1.6,4.9c1.6-0.8,3.8-1.2,4.8-2.6c3.3-4.4,6.5-8.9,9.2-13.6
		c5.7-10.1,15.5-11.2,25.3-11.9c1.5-0.1,4,1.7,4.4,3.1c0.5,1.7-0.1,4.6-1.3,5.9c-5.8,6.2-11.8,12.1-18,17.8c-4.4,4-5.1,6-1.5,10.9
		c7.7,10.6,15.7,20.9,23.2,31.6c1.5,2.1,2.6,5.7,1.8,7.6c-0.8,1.8-4.4,2.9-6.9,3.2c-11.2,1.3-18.5-3.6-23.3-13.9
		c-2.4-5.2-6.4-9.7-10-14.3c-1.1-1.4-3.9-3.1-4.7-2.6c-1.7,1-3.6,3.3-3.7,5.2c-0.3,4.1,0.4,8.3,0.7,12.4c0.3,4.1,1.8,9.5-2.9,11.1
		c-4.9,1.6-10.7,1.5-15.9,0.7c-1.7-0.3-3.8-5-3.8-7.7c-0.2-32.1-0.1-64.2,0-96.4c0-6.2,2.6-8.8,8.8-8.9c2.5,0,5,0.3,7.4,0.8
		c4.2,0.9,6.2,3.6,6.2,7.8c0,6.5,0,13,0,19.4C1446.3,205.8,1446.5,205.8,1446.6,205.8z"/>
	<path d="M1670.7,206.5c-0.7,9.8-1.4,19.5-2,29.3c-0.1,1.3,0.8,2.7,1.3,4c1.4-0.6,3.3-0.9,4.1-2c4.3-5.5,8.3-11.3,12.4-16.9
		c4.6-6.3,16.7-10.6,24.1-8.5c3.1,0.9,3.9,3.2,2.8,5.8c-1,2.2-2.5,4.3-4.2,6.1c-5.4,5.6-11.3,10.8-16.5,16.6
		c-1.3,1.5-1.8,5.4-0.8,6.9c6.8,10.1,14,19.8,21.2,29.7c0.9,1.2,2.5,2.1,2.9,3.4c1,2.8,2.4,6.1,1.6,8.6c-0.4,1.4-4.7,2.2-7.3,2.4
		c-3.1,0.2-6.3-0.4-9.4-0.8c-4.1-0.5-6.9-2.8-8.9-6.4c-3.7-6.7-7.5-13.4-11.7-19.7c-1.4-2.1-4.5-3.2-6.8-4.7c-1.2,2.6-3.2,5-3.4,7.7
		c-0.4,4.8,0.5,9.6,0.4,14.5c-0.2,7.4-3.5,10-11.4,9.5c-8.3-0.5-11-3.6-10.9-11c0.3-19.6,0.3-39.3,0.4-58.9c0.1-12,0-23.9,0.1-35.9
		c0.1-5.7,3.7-8.5,10.6-8.6c7-0.1,10.6,2.5,10.8,8.3c0.3,6.8,0.1,13.7,0.1,20.5C1670.4,206.4,1670.5,206.4,1670.7,206.5z"/>
	<path d="M537.4,276.1c0.1,1.3,0.3,2.7,0.4,4c0.7,9.3-2.6,12.5-11.9,11.9c-7.2-0.5-9.7-3.2-9.6-9.9c0.3-25,0.6-50,0.7-74.9
		c0-6.5-0.2-13-0.3-19.5c-0.1-7,3.4-9.9,11.3-9.8c6.9,0.1,10.1,3.5,10,10.2c-0.1,11.3,0.1,22.6-0.1,33.9c-0.1,4.5-1.3,8.9-1.6,13.4
		c-0.1,1.9,1,3.9,1.5,5.8c1.6-0.9,3.8-1.5,4.8-2.8c4.7-6.1,9.2-12.3,13.4-18.7c2.8-4.1,6.4-6.1,11.2-6.3c2.8-0.1,5.6-1.2,8.4-0.9
		c2.2,0.2,5.2,1.1,6.2,2.7c0.8,1.2-0.2,4.7-1.5,6.1c-5.8,6.4-11.8,12.7-18.2,18.5c-3.6,3.3-4,6.1-1.2,9.8
		c8.3,10.8,16.7,21.6,24.7,32.7c1.4,2,2.3,5.6,1.5,7.6c-0.7,1.6-4.4,2-6.7,2.8c-0.3,0.1-0.7-0.1-1-0.1c-11.2,0.8-18.5-4-23-14.4
		c-2.4-5.4-6.4-10.1-10-14.9c-1.1-1.4-3.4-3.2-4.6-2.9c-1.7,0.5-3.6,2.7-3.9,4.4c-0.8,3.7-0.7,7.6-0.9,11.4
		C537.1,276.1,537.3,276.1,537.4,276.1z"/>
	<path d="M882.7,252.3c0-9.3,0-18.7,0-28c0-4.2-0.4-8.6,4.3-10.8c4.1-2,10-0.7,13.5,3.4c2.7,3.1,4.9,3,8,0.5
		c8.3-6.5,17.5-8.7,27.5-4.3c10.8,4.7,17.8,12.9,18.4,24.7c0.9,15.3,0.5,30.6,0.4,46c0,5.2-2.5,7.5-7.7,8c-2.1,0.2-4.3,0.2-6.5,0
		c-7.4-0.6-9.2-3.3-8.8-10.8c0.6-13,0.9-26,0.9-39c0-6.6-5.1-12-11.6-13.2c-5-0.9-13.2,4.4-15.1,10.3c-1,3.3-1.3,6.9-1.3,10.3
		c0.1,11.5,0.5,23,0.8,34.5c0.1,4.1-1.9,6.8-5.9,7.5c-3.1,0.5-6.3,0.7-9.4,0.5c-5.5-0.4-7.6-3.1-7.6-8.5
		C882.7,272.9,882.7,262.6,882.7,252.3z"/>
	<path d="M1062.1,292.4c-15.5,0.1-26.8-2.8-34.9-12.8c-8-10-11.8-21.6-8.8-34.5c1.1-4.5,2.6-9,4.3-13.3c3.6-9.2,11.5-14,19.9-17.9
		c24.9-11.7,49.1,9.8,47.3,36.4c-0.4,6.7-4,8.8-10.8,8.5c-12.1-0.6-24.3-0.6-36.4-0.6c-4.2,0-4.5,2.9-3,5.9
		c3.9,8,10.8,11.8,19.3,12.1c4.7,0.1,9.6-0.9,14.2-2.2c6-1.6,9.5-0.2,11.2,5.5c1.8,5.7-0.5,10-6.5,11.1
		C1071.7,291.6,1065.3,292,1062.1,292.4z M1050.9,242.2c0,0,0-0.1,0-0.1c4.2,0.2,8.3,0.8,12.5,0.6c5.6-0.2,7.5-4.4,4.5-9
		c-5.5-8.6-17.8-9.8-24.5-2c-1.8,2.1-2.4,5.2-3.6,7.8c2.7,0.9,5.3,1.9,8,2.7C1048.8,242.4,1049.9,242.2,1050.9,242.2z"/>
	<path d="M800.3,251.5c-1.1-14.8,5.3-26.8,18.1-34.7c15.9-9.8,30.7-8.2,44.4,5.5c7.9,7.9,8.4,18.6,9.1,28.8c0.3,4.4-3.8,7.4-9.1,7.4
		c-11.3,0-22.6-0.6-33.9-0.6c-2.5,0-5.1,1.3-7.6,2c0.9,2.7,1.1,5.9,2.8,7.9c7.6,8.9,17.6,9.8,28.3,7c2.4-0.6,4.8-1.5,7.3-1.5
		c4.3,0,7.1,2.5,7.9,6.9c0.8,4.4-1.2,8.4-5.5,9.4c-11.7,2.8-23.6,4.3-35.6,1.1C812.6,287.2,798,273.4,800.3,251.5z M834.4,242.3
		c0,0,0-0.1,0-0.1c3.5,0,7,0.3,10.5-0.1c6.4-0.7,8.1-4.9,4-10.1c-3.5-4.4-8.2-6.1-13.7-5.4c-6.3,0.8-10.9,3.9-13.7,9.6
		c-1.6,3.3,0.1,5.8,4,6.1C828.4,242.5,831.4,242.3,834.4,242.3z"/>
	<path d="M657.8,258c0,7.1-0.2,14.3,0.1,21.4c0.1,4,1.5,8.5-2.7,10.9c-4.4,2.5-9.9,2.6-13.8-0.5c-4.9-3.9-8.3-3.1-13.2-0.1
		c-9.1,5.6-24,2.8-30.3-4.8c-9.2-11-9.1-21-1.1-32.1c7.5-10.6,19.2-11,29.9-14c1.1-0.3,2.4,0,3.4-0.4c2-0.8,3.9-2,5.8-3
		c-1.3-2.1-2.1-5.1-4-6.2c-6.2-3.5-12.9-2.5-19.4-0.9c-1.9,0.5-3.8,1.3-5.7,1.8c-3.9,1-7,0-8.7-3.8c-1.6-3.8-0.9-7.2,2.4-9.9
		c10.8-8.4,36.6-7.3,46.7,2c6.4,5.9,9.9,13.3,10.2,22c0.2,5.8,0,11.6,0,17.5C657.5,258,657.7,258,657.8,258z M621.4,276.5
		c7.7,0.1,15.4-6.6,16.2-13.9c0.8-6.4-3.1-10.4-9.1-8.7c-4.4,1.2-8.7,3.2-12.6,5.6c-4,2.4-4.9,6.6-3.4,11
		C613.9,274.8,617.5,276.2,621.4,276.5z"/>
	<path d="M1280.2,293.3c-25.4-1-35.8-12.9-40.8-33c-3.6-14.7,1.7-28.5,12.7-39.1c10.4-10.1,23-12.7,37-8c10.3,3.5,20.1,15.7,21,26.5
		c0.3,3.3,0.7,6.7,0.6,10c-0.2,6.4-3.6,9.3-9.9,9.1c-11-0.4-21.9-0.8-32.9-0.9c-2.4,0-4.8,1.4-7.3,2.2c0.9,2.5,1.2,5.5,2.8,7.4
		c7.1,8.6,18.7,11,30.1,6.6c6.7-2.5,11.5-0.1,12.7,6.5c0.8,4.5-0.9,7.8-5.8,8.9C1293.7,291.2,1286.9,292.1,1280.2,293.3z
		 M1275.6,242.5c0,0,0,0.1,0,0.1c2.3,0,4.7,0.4,6.9-0.1c2.5-0.6,6.4-1.5,6.9-3.2c0.7-2.3-0.5-6-2.2-8c-6.6-7.9-22.2-4.8-25.7,4.9
		c-1.2,3.4,0.5,5.2,3.6,5.6C1268.6,242.3,1272.1,242.3,1275.6,242.5z"/>
	<path d="M349,257.9c-5.3,0-10.7-0.2-16,0.1c-2.4,0.2-6.4,1.3-6.6,2.4c-0.4,2.6,0.3,6.6,2.1,7.9c4.2,3.1,9.1,6.2,14,7
		c5.7,0.9,11.9-0.2,17.7-1.3c6.4-1.3,10.5-0.3,12,4.5c1.7,5.2-0.9,10.5-7,11.8c-14.5,3.1-29,4.1-42.9-3.3
		c-6.6-3.5-10.7-9.4-13.3-15.8c-8.2-20.6-2.8-47,21-57.8c17.6-8,42.8,4.6,45.2,25.5c0.3,2.6,1.1,5.2,1.5,7.9
		c1.1,7.1-2.2,11.3-9.4,11.7c-3.1,0.2-6.3-0.2-9.5-0.3c-3-0.1-6,0-9,0C349,258,349,258,349,257.9z M341.1,242.5c0-0.1,0-0.2,0-0.3
		c3.1,0,6.3,0.2,9.4,0c4.9-0.4,6.4-3,4.4-7.4c-2.5-5.7-7.2-8.6-13.4-8.3c-6.2,0.3-12.8,4.6-14.6,9.6c-1.3,3.7,0.1,6,3.8,6.3
		C334.1,242.7,337.6,242.5,341.1,242.5z"/>
	<path d="M974.7,254.7c0-5.8,0-11.7,0-17.5c0-4.3-1.7-7.3-6.1-8.6c-3.9-1.2-7.1-3.2-7-7.9c0.1-4.7,3.3-6.7,7.3-7.7
		c4.3-1.1,5.7-3.8,5.6-8.1c-0.1-7.7,7.2-14,14.9-13c4.1,0.5,6.2,3.7,5.8,9c-0.9,11.7-0.9,11.7,10.5,12.1c5.4,0.2,8.3,3,8.4,7.9
		c0,5.1-3.3,8.2-8.6,8.2c-1.2,0-2.3-0.2-3.5-0.2c-4.9-0.1-7.2,1.7-7.3,6.7c-0.2,9.3-0.3,18.7-0.1,28c0.1,7.1,3.2,10.1,10.2,11.2
		c5.9,0.9,8.3,3.1,8.5,7.9c0.2,4.8-2.5,8.3-8,9.3c-9.3,1.7-18.3,1.8-25.4-6.1c-4.1-4.6-6.1-9.8-5.9-16c0.2-5,0-10,0-15
		C974.2,254.7,974.4,254.7,974.7,254.7z"/>
	<path d="M1615.4,292.7c-11.6,0.4-21.2-3.8-29.4-11.8c-14.4-13.9-14.7-42.3-0.3-56.3c12.6-12.2,27.6-16,44.6-12.2
		c5,1.1,7.2,4.6,6.3,9.6c-1,5.6-4.4,8.2-10,7c-6.7-1.4-13-1.6-19.2,2.2c-8.7,5.3-11.3,13.9-10.7,22.7c1.2,16.7,17.3,26,29.6,20
		c5.1-2.5,8.3-0.5,9.7,4.3c1.8,6.2-0.2,11.4-5.4,12.5C1625.7,291.8,1620.5,292.1,1615.4,292.7z"/>
	<path d="M1525.1,234.8c0,15-0.1,29.9,0.1,44.9c0.1,8.9-2.3,12.1-10,12.1c-9.3,0-13.3-3.8-13.2-12.3c0.3-27.4,0.4-54.9,0.6-82.3
		c0-3.5-0.4-7-0.5-10.5c-0.2-4.5,2-7.3,6.4-8.2c2.3-0.4,4.6-0.6,6.9-0.7c7.2-0.1,9.8,2.7,9.8,10
		C1525.1,203.5,1525.1,219.1,1525.1,234.8C1525.1,234.8,1525.1,234.8,1525.1,234.8z"/>
	<path d="M1333.7,291.9c-10.8-0.2-12.8-3.3-12.2-14.2c0.8-13.8,0.4-27.6,0.5-41.4c0-5,0.1-10,0-15c0-4.4,1.9-7.4,6.2-8.5
		c4.4-1.1,8.2-0.5,10.8,3.8c3.3,5.4,4,5.3,8.8,1.2c3.3-2.7,6.9-5.2,10.8-7c4.4-2,7.7,0,9.3,4.6c3,8.8-0.4,14.5-9.6,16.1
		c-7.9,1.4-14.2,8.2-14.2,16.3c0,10.8,0.4,21.6,0.8,32.4C1345.3,289.2,1342.7,292,1333.7,291.9z"/>
	<path d="M1541.2,251.9c0-9.8,0-19.6,0-29.5c0-7.8,2.5-9.9,12-9.7c7.8,0.2,10.5,2.9,10.5,10c0,19.6,0.2,39.3,0.5,58.9
		c0.1,6.3-2.1,9.3-8.4,10c-2.1,0.2-4.3,0.2-6.5-0.1c-6-0.8-8.3-3.6-8.3-9.7c0-10,0-20,0-30C1541,251.9,1541.1,251.9,1541.2,251.9z"
		/>
	<path d="M500.6,249.1c0,10.8-0.1,21.6,0,32.5c0.1,7.7-3.5,10.8-12.3,10.4c-8-0.3-10.7-3.8-10.5-11.2c0.4-19.6,0.4-39.3,0.3-58.9
		c0-5.9,1.4-8.4,7.3-9c1.7-0.2,3.3-0.2,5-0.2c8.4,0,10.4,2.5,10,10.9c-0.3,8.5-0.1,17-0.1,25.5C500.4,249.1,500.5,249.1,500.6,249.1
		z"/>
	<path d="M1392.3,256.2c-4.1,0.2-8.3,0.5-12.4,0.6c-6,0.1-9.3-3.3-9.1-9.2c0.2-6.1,3.5-8.6,9.8-8.3c7.8,0.4,15.6,0.4,23.4,0.3
		c7.2-0.1,10.7,2.5,10.8,8.6c0.1,5.6-3.3,8.4-10.5,8.4c-4,0-8,0-12,0C1392.3,256.5,1392.3,256.4,1392.3,256.2z"/>
	<path d="M1132.5,256.7c-6.2,0-12.3,0-18.5,0c-2.2,0-4.4-0.1-6.5-0.5c-4.7-0.9-7.6-4.4-7.4-8.7c0.1-4.3,3.2-7.3,8.4-7.6
		c8.8-0.4,17.6-0.6,26.4-0.5c5.3,0,8.6,4.3,8.2,9.8C1142.8,254.7,1139.2,257.3,1132.5,256.7z"/>
	<path d="M1737.2,292.5c-7.2-0.2-13.7-7.4-13.4-14.8c0.2-6.6,6.6-12.1,13.6-11.9c6.9,0.2,14.1,7.2,13.8,13.3
		C1751,285.4,1743.3,292.7,1737.2,292.5z"/>
	<path d="M1552.9,204c-6.5,0.1-13.2-5.6-13.2-11.2c0-5.1,7.8-13,12.8-12.9c4.8,0,12.3,8.2,12.3,13.5
		C1564.9,198.5,1558.9,203.9,1552.9,204z"/>
	<path d="M501.3,192.9c-0.1,5.3-7.4,11.5-13.2,11.3c-5.4-0.2-11.8-6.8-11.7-11.8c0.1-5.1,7.5-12.1,12.4-11.9
		C494.1,180.6,501.4,187.8,501.3,192.9z"/>
</g>
</svg>
