<?xml version="1.0" standalone="no"?>
<!DOCTYPE svg PUBLIC "-//W3C//DTD SVG 20010904//EN"
 "http://www.w3.org/TR/2001/REC-SVG-20010904/DTD/svg10.dtd">
<svg version="1.0" xmlns="http://www.w3.org/2000/svg"
 width="180.000000pt" height="180.000000pt" viewBox="0 0 180.000000 180.000000"
 preserveAspectRatio="xMidYMid meet">

<g transform="translate(0.000000,180.000000) scale(0.100000,-0.100000)"
fill="#000000" stroke="none">
<path d="M0 900 l0 -900 900 0 900 0 0 900 0 900 -900 0 -900 0 0 -900z m225
840 c-13 -26 -21 -30 -56 -30 -33 0 -41 -4 -49 -26 -14 -37 -14 -39 25 -57 38
-18 38 -19 29 -66 -5 -23 -12 -31 -28 -31 -51 0 -66 -11 -66 -46 0 -28 4 -35
28 -40 39 -10 52 -23 52 -53 0 -36 -10 -47 -47 -56 -29 -6 -33 -10 -33 -40 0
-35 13 -45 55 -45 28 0 31 -4 40 -50 6 -33 4 -37 -30 -53 -31 -15 -35 -20 -29
-44 10 -43 13 -45 55 -38 38 7 40 6 55 -31 l16 -39 -32 -26 -32 -27 18 -31
c18 -31 21 -31 84 -15 9 2 24 -11 38 -31 l22 -35 -25 -26 c-30 -30 -30 -32 -5
-62 15 -18 25 -21 46 -16 19 5 25 4 20 -5 -20 -32 -103 -1 -114 43 -8 29 -12
31 -51 31 -41 0 -44 -2 -55 -35 -9 -29 -18 -37 -49 -44 -76 -19 -72 -52 -75
533 l-2 521 105 0 106 0 -16 -30z m165 21 c0 -6 -4 -12 -9 -15 -11 -7 -47
-108 -65 -186 -23 -94 -20 -256 4 -360 41 -171 164 -366 301 -476 128 -103
216 -150 392 -209 l99 -33 3 -48 c2 -39 -2 -55 -23 -83 -14 -20 -27 -37 -28
-39 -1 -2 -13 0 -28 4 -22 5 -26 12 -26 43 0 36 -2 38 -52 54 l-53 17 -28 -30
c-24 -26 -30 -28 -52 -18 -22 10 -24 16 -19 48 6 36 5 38 -40 59 l-46 23 -29
-21 c-34 -25 -41 -25 -65 -8 -17 13 -17 15 -2 44 l16 32 -41 32 -40 32 -40
-18 c-38 -17 -41 -17 -57 -1 -16 16 -16 18 0 47 18 30 18 31 -14 69 l-32 38
-40 -15 c-37 -12 -42 -12 -53 4 -18 23 -16 33 8 59 l21 23 -23 40 c-23 41 -23
41 -70 35 -43 -6 -48 -4 -54 17 -6 18 -1 28 24 48 l31 26 -20 43 c-18 39 -22
42 -58 42 -27 0 -42 5 -46 16 -11 27 -7 34 29 51 20 10 34 22 31 29 -3 7 -8
29 -12 48 -6 34 -9 36 -44 36 -25 0 -40 5 -44 16 -12 32 -5 43 34 54 40 11 40
11 40 59 0 47 0 48 -41 60 -33 10 -40 16 -37 34 2 17 13 24 45 31 39 9 43 13
51 50 10 46 3 61 -33 70 -25 6 -30 21 -19 50 4 11 19 16 49 16 41 0 44 2 55
35 l12 35 69 0 c38 0 69 -4 69 -9z m490 3 c0 -4 -18 -27 -41 -51 -22 -24 -56
-77 -76 -118 -29 -63 -35 -88 -40 -168 -7 -113 6 -176 55 -270 45 -87 107
-156 187 -209 l64 -42 -44 -86 c-25 -47 -45 -93 -45 -101 0 -31 44 -58 103
-65 l57 -7 0 -68 c0 -82 1 -82 -116 -43 -267 87 -491 281 -599 517 -54 121
-69 188 -69 327 -1 135 8 187 56 313 l29 77 240 0 c131 0 239 -3 239 -6z m360
2 c0 -2 -36 -27 -80 -55 -44 -28 -80 -55 -80 -59 0 -5 9 -21 20 -35 24 -31 25
-41 3 -58 -9 -8 -27 -36 -39 -64 -28 -60 -31 -131 -7 -200 16 -48 13 -81 -12
-147 -5 -13 4 -22 34 -38 23 -11 41 -23 41 -26 0 -4 -79 -153 -86 -163 -8 -10
-110 68 -160 122 -107 115 -157 266 -137 411 13 89 63 199 123 269 l42 47 169
0 c93 0 169 -2 169 -4z m-101 -294 c-11 -37 -26 -93 -35 -124 -9 -32 -20 -58
-25 -58 -10 0 -29 65 -29 98 0 47 23 111 53 147 27 34 32 36 43 21 10 -14 9
-30 -7 -84z m-887 -718 c6 -25 17 -35 53 -49 42 -15 48 -16 70 -1 30 20 49 20
65 1 10 -12 8 -21 -7 -45 -19 -29 -19 -33 -4 -66 13 -27 25 -36 59 -45 34 -9
42 -16 42 -35 0 -18 -7 -25 -27 -30 -16 -3 -35 -8 -44 -10 -9 -2 -22 -22 -29
-43 -11 -33 -10 -42 5 -65 17 -25 17 -27 0 -46 -17 -19 -18 -19 -55 0 -35 18
-41 18 -67 5 -15 -8 -33 -15 -39 -15 -6 0 -15 -15 -20 -32 -8 -27 -15 -34 -41
-36 -29 -3 -32 0 -38 31 -6 31 -12 36 -51 47 -34 10 -51 10 -69 2 l-25 -12 0
60 c0 33 2 60 4 60 2 0 20 -15 40 -34 78 -74 216 -68 289 13 102 113 16 271
-147 271 -70 0 -102 -12 -148 -58 l-38 -36 0 62 c0 61 6 72 27 51 8 -8 21 -8
50 1 50 17 59 25 67 61 5 27 9 30 38 27 26 -2 33 -8 40 -34z m41 -98 c41 -17
83 -66 96 -112 26 -96 -62 -189 -179 -188 -146 2 -226 137 -148 247 42 58 156
85 231 53z m302 -79 c23 -19 25 -25 16 -50 -16 -40 -14 -45 18 -61 27 -14 31
-14 54 4 30 24 48 25 88 5 25 -13 28 -20 23 -43 -4 -15 -7 -31 -8 -36 0 -5 16
-16 36 -24 36 -14 38 -14 61 14 23 27 26 27 66 16 39 -12 41 -15 41 -52 0 -37
1 -38 40 -45 43 -7 46 -11 29 -48 -10 -21 -6 -32 26 -81 21 -31 38 -57 39 -57
1 -1 89 -4 196 -8 l195 -6 3 -37 3 -38 -745 0 -746 0 0 134 0 134 29 11 c43
18 96 -6 104 -48 6 -29 9 -31 51 -31 41 0 45 2 51 31 5 21 17 35 41 46 31 15
36 15 74 -2 l41 -19 26 26 26 26 -22 31 c-22 31 -22 32 -4 64 14 24 28 33 54
37 31 5 34 8 37 42 3 37 2 38 -37 44 -23 4 -41 11 -41 16 0 5 4 6 10 3 5 -3
22 1 37 9 39 21 58 20 88 -7z"/>
<path d="M172 554 c-46 -32 -18 -94 43 -94 64 0 86 79 28 101 -33 12 -45 12
-71 -7z m63 -4 c21 -8 26 -16 23 -36 -4 -34 -27 -49 -61 -40 -37 9 -46 45 -17
68 26 21 22 21 55 8z"/>
</g>
</svg>
