<svg width="1038" height="288" viewBox="0 0 1038 288" fill="none" xmlns="http://www.w3.org/2000/svg">
<path fill-rule="evenodd" clip-rule="evenodd" d="M493.155 199.626H18.4698V44.3077H688.295L654.121 84.2774H1026.92V247.385H452.586L462.817 235.418L493.155 199.626ZM731.748 163.192C731.748 163.192 731.849 164.371 731.9 165.19V166.625L732.053 166.728C738.964 172.467 746.283 180.205 747.553 185.944C747.909 187.533 747.807 188.967 747.197 190.197C746.486 191.632 745.063 192.657 743.183 193.323C733.272 196.705 709.691 190.197 690.43 180.563C676.657 173.697 664.613 165.549 656.43 157.555C648.858 150.125 646.774 144.334 648.756 140.85C649.519 139.518 650.789 138.544 652.517 137.878C658.819 135.418 670.864 137.16 682.705 140.696C677.115 144.898 673.201 150.637 671.372 156.325V156.377C670.813 161.603 678.334 168.419 685.856 172.211C685.856 172.211 686.262 172.365 686.262 172.313C686.262 172.313 686.161 171.801 686.161 171.75C684.382 158.785 694.14 139.364 704.355 135.111C704.753 134.956 705.114 134.839 705.36 134.759C705.523 134.707 705.636 134.67 705.676 134.65C705.665 134.65 705.599 134.645 705.501 134.637C705.374 134.627 705.195 134.613 705.016 134.598L704.797 134.581L704.636 134.568C704.482 134.556 704.37 134.547 704.355 134.547C703.542 134.496 702.729 134.445 701.916 134.445C695.614 134.342 690.074 136.033 685.449 138.8C665.68 131.934 651.196 131.165 645.148 133.215C642.759 134.035 641.133 135.264 640.32 136.904C639.456 138.595 639.456 140.747 640.32 143.258C643.064 151.56 655.109 162.936 670.355 173.031C672.592 184.765 683.01 196.808 697.951 198.396L698.612 198.447H698.866L698.053 197.781C693.428 194.194 689.261 188.25 687.838 183.126L688.753 183.587C688.753 183.587 689.21 183.792 689.464 183.945C713.554 195.988 738.863 202.086 750.043 198.294C752.534 197.422 754.414 196.244 755.227 194.553C756.04 192.913 755.888 190.761 755.075 188.301C752.991 181.947 743.945 172.262 732.459 163.653C732.435 163.639 732.411 163.623 732.388 163.608C732.37 163.596 732.353 163.585 732.336 163.573C732.319 163.561 732.303 163.549 732.286 163.537C732.269 163.524 732.252 163.512 732.235 163.499C732.191 163.466 732.148 163.432 732.105 163.398L732.103 163.397C731.989 163.307 731.875 163.218 731.748 163.141V163.192ZM765.137 150.842V151.611C765.137 160.579 770.829 165.139 776.013 169.187L777.385 170.264C781.959 173.902 784.602 177.489 784.602 180.41V180.615C784.602 184.765 782.772 185.688 780.943 185.688C779.113 185.688 777.131 183.945 777.131 180.358V176.054H764.629V179.846C764.629 189.07 771.185 195.27 780.892 195.27C791.31 195.27 797.511 189.633 797.511 180.205V179.692C797.511 170.52 793.394 166.984 786.838 161.552L785.822 160.681L783.941 159.144C780.689 156.53 778.097 154.071 778.097 150.894V150.586C778.097 148.844 778.707 145.769 781.807 145.769C784.704 145.769 785.364 149.356 785.364 151.201V155.096H797.511V151.15C797.511 141.67 791.361 135.521 781.858 135.521C773.828 135.521 765.188 140.337 765.188 150.894L765.137 150.842ZM830.595 136.597V146.538H840.048V194.092H852.804V146.538H860.885V136.597H830.595ZM883.856 136.597V180.205C883.856 184.56 881.468 185.175 880.197 185.175C878.012 185.175 876.538 183.433 876.538 180.205V136.597H863.832V181.588C863.832 189.838 870.287 195.168 880.197 195.168C890.107 195.168 896.612 189.838 896.612 181.588V136.597H883.907H883.856ZM966.492 136.597L967.152 177.796H966.847L957.141 136.597H940.42V194.143H953.126L952.109 152.79H952.414L962.273 194.143H978.841V136.597H966.492ZM808.844 136.597L798.324 194.143H811.486L817.128 149.613H817.737L823.125 194.143H836.236L825.716 136.597H808.844ZM916.636 164.883V165.754L923.802 194.092H936.863L929.189 169.085V168.931L929.494 168.726C933 165.908 935.033 160.784 935.033 154.429V153.456C935.033 148.229 933.356 143.873 930.154 140.85C927.207 138.032 923.293 136.546 918.567 136.597H902.203V194.092H914.756V145.974H916.788C921.464 145.974 922.43 150.689 922.531 153.968V154.891V155.71V156.787C922.277 162.321 919.787 164.268 917.856 164.627H917.805L916.738 164.832L916.636 164.883ZM670 52.7628L551.688 191.171H26.9061V52.7628H670ZM481.402 110.719C481.605 110.975 481.707 111.283 481.707 111.59L481.808 111.744L480.385 120.558L474.388 153.302C474.287 153.917 473.728 154.173 473.118 154.173H466.46C466.374 154.162 466.29 154.156 466.209 154.15L466.209 154.15C465.907 154.128 465.644 154.108 465.444 153.866C465.24 153.661 465.139 153.353 465.139 153.046V152.79C465.139 152.79 465.291 151.918 465.393 151.304C460.006 154.737 454.466 156.069 449.333 155.096C443.438 153.866 437.949 147.973 436.831 141.67C436.648 140.655 436.795 139.641 436.941 138.626C437.039 137.95 437.136 137.273 437.136 136.597V135.469L434.138 153.353C433.985 153.763 433.63 154.122 433.172 154.122H424.99C424.685 154.122 424.431 153.968 424.228 153.712C424.075 153.558 424.024 153.302 424.024 153.097V152.841C425.494 145.351 426.991 136.439 428.333 128.45C429.59 120.971 430.71 114.3 431.546 110.36C427.378 115.382 399.274 153.712 399.274 153.712C399.122 153.917 398.868 154.071 398.563 154.071H390.279C389.974 154.071 389.72 153.968 389.517 153.712C389.364 153.558 389.313 153.302 389.313 153.097V152.892C391.041 143.935 392.862 133.184 394.367 124.295L394.369 124.285L394.369 124.281L394.371 124.274L394.371 124.273L394.371 124.27C395.344 118.524 396.186 113.558 396.784 110.36C392.769 115.28 357.855 153.712 357.855 153.712C357.702 153.968 357.397 154.071 357.093 154.071H346.522C346.166 154.071 345.81 153.866 345.658 153.507C345.505 153.2 345.556 152.79 345.709 152.533V152.482C345.86 152.221 346.011 151.969 346.154 151.73L346.158 151.723L346.162 151.716L346.164 151.714L346.165 151.713L346.166 151.71L346.168 151.706L346.171 151.701C346.359 151.389 346.532 151.1 346.674 150.842C347.538 149.151 347.996 147.563 348.199 146.487C349.317 138.954 347.792 132.6 347.792 132.6C345.251 119.174 333.969 111.693 324.872 115.741H325.126C325.532 115.741 325.939 115.792 326.346 115.894C336.154 114.306 345.2 124.555 344.286 138.237C344.286 138.237 343.727 144.744 340.626 152.072C338.39 153.251 336.002 154.173 333.511 154.839C333.308 154.891 333.117 154.929 332.927 154.967C332.736 155.006 332.546 155.044 332.343 155.096C337.323 148.793 339.559 142.541 339.559 142.541C344.031 129.269 337.475 116.714 327.159 116.151C327.565 116.304 327.972 116.561 328.378 116.817C338.289 119.994 341.49 133.932 333.816 145.616C333.816 145.616 330.106 151.047 323.754 155.864C320.704 155.71 317.757 155.096 314.86 154.122C322.229 151.15 327.159 146.948 327.159 146.948C337.323 137.878 337.933 123.888 329.649 117.995C330.056 118.457 330.36 118.969 330.564 119.533C336.866 127.475 332.749 140.696 320.704 146.692C320.704 146.692 315.012 149.356 307.338 150.33C305.102 148.895 303.12 147.153 301.341 145.257C308.761 146.333 314.657 145.257 314.657 145.257C327.87 142.592 335.239 130.806 330.97 121.48V121.839C330.97 122.197 330.92 122.556 330.869 122.864C332.8 133.112 322.686 142.695 309.168 141.721C309.168 141.721 303.273 141.209 296.361 138.288C295.04 135.828 294.023 133.215 293.312 130.396C293.304 130.364 293.295 130.331 293.285 130.297C293.28 130.282 293.276 130.266 293.271 130.251C293.267 130.236 293.263 130.221 293.258 130.206L293.258 130.206L293.258 130.206C293.21 130.046 293.159 129.875 293.159 129.73C299.055 134.393 304.696 136.494 304.696 136.494C317.35 140.952 329.395 134.65 330.411 124.503C330.208 125.016 329.903 125.477 329.547 125.887C325.99 135.418 312.776 138.288 301.697 130.653C301.697 130.653 295.954 126.092 291.533 120.763L285.689 153.302C285.587 153.968 285.028 154.173 284.418 154.173H277.76C277.354 154.173 276.947 154.071 276.693 153.763C276.49 153.507 276.439 153.353 276.439 153.046V152.79C276.439 152.79 276.591 151.918 276.693 151.304C271.306 154.737 265.767 156.069 260.634 155.096C254.738 153.866 249.25 147.973 248.132 141.67C247.827 139.979 247.674 136.443 247.674 136.443L244.726 153.251C244.625 153.866 244.066 154.122 243.456 154.122H236.036C235.99 154.116 235.944 154.112 235.899 154.108L235.844 154.103L235.785 154.099C235.483 154.076 235.22 154.057 235.02 153.814C234.715 153.507 234.664 153.148 234.715 152.738L242.135 111.385C242.236 110.77 242.795 110.309 243.405 110.309H250.876C251.282 110.309 251.638 110.463 251.892 110.77C252.197 111.078 252.248 111.436 252.197 111.846L249.148 128.705C249.3 128.552 249.3 128.449 249.3 128.449C250.774 124.196 253.214 120.199 256.771 116.868C262.768 111.18 270.137 108.823 277.405 110.616C277.506 110.616 278.37 110.924 278.37 110.924C279.997 111.641 281.724 112.41 283.198 113.794C283.452 112.205 283.808 111.385 283.808 111.385C284.113 110.719 284.621 110.36 285.231 110.36H291.94C292.346 110.36 292.702 110.463 293.007 110.719C293.21 110.924 293.413 111.334 293.464 111.59C295.904 118.457 300.274 124.452 300.274 124.452C309.27 135.059 323.246 135.521 328.836 126.604C328.531 126.861 328.226 127.066 327.87 127.27L327.718 127.424H327.667C320.044 134.701 306.576 130.601 300.528 117.893C300.528 117.893 297.987 112.307 297.022 104.723C298.597 101.956 300.528 99.5479 302.714 97.3957C301.646 105.082 302.714 111.283 302.714 111.283C305.306 124.965 316.994 132.497 326.142 127.885C325.837 127.988 325.482 127.988 325.126 127.988H324.516C314.504 129.986 305.153 119.635 306.119 105.748C306.119 105.748 306.678 99.4967 309.625 92.3226C311.912 91.0415 314.403 90.0679 316.994 89.3505C312.471 95.3972 310.388 101.136 310.388 101.136C305.966 114.357 312.471 126.912 322.737 127.527C322.432 127.373 322.127 127.168 321.823 126.963L321.67 126.861C311.658 123.735 308.406 109.694 316.13 98.0106C316.13 98.0106 319.637 92.8863 325.685 88.1719C328.785 88.1719 331.885 88.6331 334.884 89.5555C327.667 92.4763 322.788 96.627 322.788 96.627C312.471 105.8 311.963 119.994 320.603 125.784C320.298 125.426 319.993 124.965 319.79 124.503C312.878 116.663 316.944 103.032 329.242 96.8832C329.242 96.8832 335.036 94.1161 342.761 93.1937C345.251 94.731 347.436 96.627 349.418 98.728C341.694 97.5494 335.443 98.6768 335.443 98.6768C322.077 101.341 314.707 113.384 319.281 122.761C319.231 122.454 319.231 122.147 319.231 121.839V121.839V121.275C317.147 110.975 327.26 101.239 340.931 102.213C340.931 102.213 347.335 102.776 354.551 106.005C355.822 108.362 356.788 110.924 357.448 113.64C357.499 113.844 357.537 114.049 357.575 114.253L357.575 114.255C357.613 114.46 357.652 114.665 357.702 114.87C351.502 109.745 345.353 107.439 345.353 107.439C332.698 102.981 320.654 109.335 319.637 119.482C319.84 118.867 320.145 118.354 320.552 117.893C324.211 108.515 337.323 105.646 348.351 113.281C348.351 113.281 353.637 117.124 358.363 123.632C358.211 126.399 357.753 129.064 356.991 131.677C354.145 124.298 350.13 119.379 350.13 119.379C341.338 109.028 327.819 108.362 321.975 116.612C322.331 116.407 322.737 116.202 323.195 116.048C330.92 109.335 343.981 113.537 349.876 125.989C349.876 125.989 353.484 134.445 354.247 142.234L399.376 88.8381C399.528 88.6331 399.782 88.4794 400.087 88.4794H409.489C409.794 88.4794 410.048 88.5818 410.252 88.8381C410.404 89.043 410.455 89.3505 410.455 89.5555V89.7604C410.455 89.7604 404.865 123.94 403.34 129.986C407.609 125.067 434.544 88.8381 434.544 88.8381C434.697 88.6331 435.002 88.4794 435.256 88.4794H444.2C444.505 88.4794 444.759 88.5818 444.963 88.8381C445.166 89.043 445.217 89.4017 445.166 89.7092L438.458 126.451C439.982 122.915 442.218 119.635 445.217 116.817C451.214 111.078 458.532 108.823 465.85 110.463C465.952 110.514 466.104 110.565 466.104 110.565L466.765 110.873C468.9 111.693 470.424 112.564 471.898 113.947L472.406 111.334C472.508 110.719 473.067 110.309 473.677 110.309H480.385C480.792 110.309 481.147 110.411 481.402 110.719ZM269.883 144.949C274.762 143.72 279.336 138.698 280.86 133.317C281.115 132.344 281.267 131.319 281.267 130.243C281.267 128.295 280.81 126.348 279.946 124.76C278.37 121.839 275.88 120.711 274.05 120.301C270.798 119.584 267.088 120.301 264.394 122.249C259.668 125.887 257.076 130.601 257.076 135.521C257.076 136.289 257.076 136.802 257.33 137.878C257.991 140.235 259.058 142.541 261.091 143.976C263.022 145.257 266.224 145.667 269.883 144.949ZM458.024 145.052C462.903 143.873 467.781 138.698 469.408 133.317L469.459 133.266C469.763 132.292 469.865 131.267 469.865 130.191C469.865 128.244 469.408 126.297 468.544 124.708C466.968 121.787 464.478 120.66 462.649 120.25C459.396 119.533 455.686 120.25 452.992 122.197C448.266 125.836 445.674 130.55 445.674 135.469C445.674 136.238 445.725 137.058 445.877 137.827C446.487 140.133 447.656 142.49 449.689 143.925C451.569 145.206 454.314 145.667 458.024 145.052ZM554.94 110.77C554.686 110.463 554.33 110.309 553.975 110.309H546.402C546.809 107.952 548.486 98.933 548.486 98.933V98.728C548.486 98.4205 548.384 98.1131 548.181 97.8569C547.927 97.5494 547.571 97.3957 547.215 97.3957H539.745C539.135 97.3957 538.576 97.8569 538.474 98.523C538.474 98.523 536.644 108.618 536.34 110.411H534.51H533.392H532.172C531.715 110.411 531.308 110.616 531.054 110.975C530.8 110.616 530.444 110.411 529.987 110.411H523.329H521.398C521.042 110.411 520.687 110.514 520.432 110.821C520.432 110.821 514.385 118.662 510.827 122.607C511.844 116.356 515.045 98.9842 515.045 98.9842V98.7793C515.045 98.4718 514.944 98.1643 514.74 97.9081C514.486 97.6007 514.131 97.4469 513.775 97.4469H506.406C505.796 97.4469 505.237 97.9081 505.135 98.523C505.082 98.8792 504.925 99.6995 504.699 100.874L504.697 100.885L504.697 100.887L504.696 100.89C504.273 103.096 503.611 106.545 502.95 110.514V110.463C502.696 110.155 502.34 109.899 501.933 109.899C498.833 110.002 495.479 111.283 493.04 112.871L493.192 111.898C493.243 111.488 493.192 111.129 492.938 110.821C492.684 110.514 492.328 110.411 491.972 110.411H485.264C484.654 110.411 484.095 110.77 483.993 111.436L483.79 112.461L476.624 152.687C476.574 153.097 476.675 153.405 476.929 153.712C477.183 154.019 477.59 154.173 477.946 154.173H481.249H484.349C484.959 154.173 485.467 153.763 485.62 153.148L490.549 128.193C492.176 121.89 496.292 119.994 499.901 119.43C500.104 119.43 500.815 119.43 500.968 119.328C498.987 131.353 496.716 145.162 495.845 150.462L495.793 150.781L495.479 152.687C495.428 153.097 495.479 153.456 495.784 153.712C496.038 154.019 496.394 154.173 496.75 154.173H503.966C504.525 154.173 505.034 153.814 505.186 153.251C505.389 152.533 507.32 142.234 508.337 136.084C511.03 140.235 518.857 153.609 518.857 153.609C519.111 153.968 519.518 154.173 519.924 154.173H528.005C528.005 154.173 528.31 154.019 528.462 153.917C528.513 153.943 528.564 153.971 528.615 154C528.767 154.087 528.92 154.173 529.072 154.173H537.508C538.118 154.173 538.677 153.712 538.779 153.097C538.779 153.097 544.42 121.787 544.776 119.738H552.856C553.466 119.738 554.025 119.277 554.127 118.662L555.245 111.949V111.744C555.245 111.436 555.143 111.129 554.94 110.873V110.77ZM521.465 137.805C524.161 142.342 527.33 147.673 528.985 150.392C529.647 146.315 531.287 137.396 532.613 130.181L532.617 130.158L532.621 130.139L532.623 130.126C533.574 124.952 534.362 120.666 534.51 119.686H530.851C530.444 119.686 530.089 119.533 529.834 119.225C529.58 118.918 529.529 118.559 529.58 118.149L530.546 113.025C529.222 114.614 524.653 120.303 521.131 124.689L521.126 124.694C518.972 127.377 517.21 129.571 516.824 130.038C517.194 130.62 519.138 133.892 521.432 137.75L521.465 137.805ZM240.966 97.3444C241.372 97.3444 241.728 97.5494 241.982 97.8569V97.9081C242.236 98.2156 242.287 98.5743 242.236 98.9842L232.428 153.251C232.326 153.866 231.767 154.122 231.157 154.122H224.5C224.448 154.122 224.397 154.123 224.347 154.124C224.004 154.129 223.705 154.134 223.483 153.866C223.28 153.661 223.178 153.353 223.178 153.046V152.79C223.178 152.79 223.331 151.918 223.432 151.304C218.045 154.737 212.506 156.069 207.373 155.096C201.478 153.866 195.989 147.973 194.871 141.67C194.566 139.979 194.464 138.288 194.464 136.597C194.261 136.802 193.956 136.955 193.6 136.955H162.65V137.314C162.65 137.827 162.802 138.441 163.006 139.159C163.006 139.159 163.158 139.466 163.158 139.62C164.632 143.31 168.139 145.616 172.154 145.513C176.118 145.411 179.828 143.463 183.08 139.723C183.334 139.415 183.69 139.261 184.046 139.261H190.957C191.415 139.261 191.821 139.466 192.076 139.876C192.279 140.235 192.33 140.747 192.126 141.157C188.213 149.561 179.421 155.249 170.222 155.249C163.819 154.993 158.432 151.765 155.433 146.435C153.909 143.566 153.248 140.03 153.248 136.443L150.148 153.251C149.995 153.712 149.64 154.019 149.182 154.019H141.153C140.848 154.019 140.594 153.917 140.39 153.661C140.238 153.507 140.187 153.251 140.187 153.046V152.79C142.281 143.87 144.107 132.449 145.604 123.082L145.604 123.081C146.54 117.22 147.348 112.164 148.013 109.028C143.846 114.05 115.437 153.661 115.437 153.661C115.284 153.866 115.03 154.019 114.725 154.019H106.442C106.137 154.019 105.883 153.866 105.679 153.609C105.527 153.456 105.476 153.2 105.476 152.995V152.79C107.549 142.953 109.668 130.366 111.301 120.67L111.301 120.67C112.109 115.869 112.798 111.777 113.302 109.079C109.288 113.998 75.1356 153.661 75.1356 153.661C74.9831 153.866 74.6782 154.019 74.3733 154.019H63.5483C63.1926 154.019 62.8368 153.712 62.6843 153.353C62.5319 152.995 62.5827 152.585 62.8368 152.277L116.707 88.7356C116.86 88.5306 117.114 88.3769 117.419 88.3769H125.906C126.211 88.3769 126.465 88.4794 126.668 88.7356C126.821 88.9405 126.872 89.1968 126.872 89.4017V89.6067C126.872 89.6067 121.129 123.683 119.858 129.833C124.127 124.913 151.266 88.7356 151.266 88.7356C151.418 88.5306 151.723 88.3769 151.977 88.3769H160.719C161.024 88.3769 161.278 88.4794 161.481 88.7356C161.684 88.9918 161.735 89.2992 161.684 89.6067L155.281 125.323C155.306 125.272 155.344 125.208 155.382 125.144L155.383 125.144C155.421 125.08 155.459 125.016 155.484 124.965C159.601 116.817 168.037 111.129 176.423 110.053H176.524C184.097 109.643 189.992 112.615 193.499 118.559C193.549 118.61 193.549 118.662 193.549 118.662C194.82 121.275 195.786 124.76 195.938 128.347C197.361 124.093 199.902 120.096 203.46 116.766C209.456 111.026 216.775 108.772 224.093 110.411C224.195 110.463 224.347 110.514 224.347 110.514L225.008 110.821L225.11 110.866C226.708 111.571 228.444 112.336 229.887 113.691C230.649 109.899 232.987 98.4205 232.987 98.4205C233.088 97.8056 233.647 97.3444 234.257 97.3444H240.966ZM175.66 120.25C172.001 120.814 167.732 123.222 165.699 127.117H185.723C185.57 125.631 184.808 124.145 183.233 122.505C181.454 120.968 179.675 119.943 175.66 120.25ZM227.549 133.368C227.803 132.395 227.955 131.729 227.955 130.396L227.905 130.345C227.955 128.295 227.498 126.297 226.583 124.76C224.906 121.941 222.67 120.66 220.84 120.25C217.588 119.533 213.878 120.25 211.184 122.197C206.458 125.836 203.764 130.601 203.764 135.521V135.521C203.764 136.341 203.764 136.956 203.968 137.929C204.476 140.286 205.747 142.592 207.779 144.027C209.66 145.308 212.607 145.821 216.368 145.052C221.247 143.822 226.177 138.851 227.549 133.368ZM244.167 109.079H251.587C252.197 109.079 252.756 108.413 252.858 107.798L254.484 98.933C254.535 98.523 254.484 98.1643 254.23 97.8569C253.976 97.5494 253.62 97.3444 253.214 97.3444H245.743C245.133 97.3444 244.574 97.8569 244.472 98.4718L242.897 107.286C242.846 107.696 242.897 108.259 243.151 108.567C243.405 108.874 243.761 109.028 244.167 109.028V109.079Z" fill="black"/>
</svg>
