<svg width="146" height="43" viewBox="0 0 146 43" fill="none" xmlns="http://www.w3.org/2000/svg">
<path d="M28.1 0L22.6 25.9H22.5L21.9 0H9L0 42.4H10.8L16.4 16.3H16.5L17.5 42.4H30.2L39.2 0H28.1ZM88.8 12.7C88.1 15.8 86.1 16.7 84.5 16.7H82.7L84.4 8.6H86C88.5 8.6 89.4 9.9 88.8 12.7ZM86 29.3C85.4 32.1 83.9 33.9 81.2 33.9H79.1L81.1 24.2H83.2C86 24.2 86.6 26.4 86 29.3ZM92.3 20.2L92.4 20.1C95.2 19.5 99.8 17.2 101.2 10.5C102.7 3.5 99 0 91.5 0H74.4L65.4 42.4H83.2C90.5 42.4 96.2 38.7 98.1 30.2C99.8 21.6 94.7 20.4 92.3 20.2ZM56.7 12.7C56 15.8 54 16.7 52.4 16.7H50.6L52.3 8.6H54C56.4 8.6 57.3 9.9 56.7 12.7ZM53.9 29.3C53.3 32.1 51.8 33.9 49.1 33.9H47L49 24.2H51.1C53.9 24.2 54.5 26.4 53.9 29.3ZM60.2 20.2L60.3 20.1C63.1 19.5 67.7 17.2 69.1 10.5C70.6 3.5 66.9 0 59.5 0H42.4L33.4 42.4H51.2C58.5 42.4 64.2 38.7 66.1 30.2C67.7 21.6 62.6 20.4 60.2 20.2ZM119.1 36.2L118.2 40.2H116.5L117.2 36.8C117.3 36.6 117.3 36.4 117.2 36.2C117.1 36.1 117 36 116.9 36C116.8 36 116.7 36 116.6 36.1C116.5 36.2 116.4 36.2 116.4 36.3C116.3 36.4 116.3 36.5 116.2 36.6C116.2 36.7 116.1 36.8 116.1 36.9L115.4 40.2H113.7L114.4 36.8C114.5 36.3 114.4 36 114.1 36C114 36 113.9 36 113.8 36.1C113.7 36.2 113.6 36.2 113.6 36.3C113.5 36.4 113.5 36.5 113.4 36.7C113.3 36.8 113.3 37 113.3 37.1L112.6 40.2H110.9L111.9 35.8C112 35.5 112 35.3 112 35.1C112 34.9 112.1 34.7 112.1 34.6H113.7C113.7 34.7 113.7 34.9 113.6 35C113.6 35.2 113.5 35.3 113.5 35.5C113.5 35.4 113.6 35.3 113.7 35.2C113.8 35.1 113.9 34.9 114 34.8C114.1 34.7 114.3 34.6 114.5 34.5C114.8 34.4 115.2 34.3 115.5 34.4C115.6 34.4 115.7 34.5 115.8 34.5L116.1 34.8C116.2 34.9 116.2 35.1 116.3 35.3C116.5 35 116.8 34.8 117.1 34.6C117.4 34.4 117.7 34.3 118 34.4C118.2 34.4 118.4 34.4 118.5 34.5C118.7 34.6 118.8 34.7 118.9 34.8C119 35 119.1 35.1 119.1 35.3C119.2 35.7 119.2 36 119.1 36.2ZM110.7 37.5C110.6 37.9 110.5 38.3 110.3 38.6C110.1 38.9 109.9 39.3 109.7 39.5C109.4 39.8 109.1 40 108.8 40.1C108.4 40.3 108 40.4 107.6 40.3C107.2 40.3 106.8 40.2 106.5 40.1C106.2 40 106 39.7 105.9 39.5C105.8 39.2 105.7 38.9 105.7 38.6C105.7 38.2 105.7 37.9 105.8 37.5C105.9 37.1 106 36.7 106.2 36.4C106.4 36.1 106.6 35.7 106.8 35.5C107.1 35.2 107.4 35 107.7 34.8C108.1 34.6 108.5 34.5 108.9 34.6C109.3 34.6 109.7 34.7 110 34.8C110.3 35 110.5 35.2 110.6 35.5C110.7 35.8 110.8 36.1 110.8 36.4C110.8 36.7 110.8 37.1 110.7 37.5ZM105 36C104.9 35.9 104.7 35.9 104.5 35.9C104.2 35.9 103.9 36 103.6 36.3C103.3 36.6 103.1 37 103 37.4C103 37.6 102.9 37.8 102.9 38C102.9 38.2 102.9 38.3 103 38.5C103.1 38.6 103.1 38.7 103.3 38.8C103.5 38.9 103.6 38.9 103.8 38.9H104.1C104.2 38.9 104.3 38.9 104.4 38.8C104.5 38.8 104.6 38.7 104.6 38.7L104.7 38.6L104.4 40C104.3 40 104.2 40.1 104.1 40.1C104 40.1 103.8 40.2 103.7 40.2C103.6 40.2 103.4 40.2 103.3 40.3H102.9C102.5 40.3 102.1 40.2 101.8 40.1C101.5 40 101.3 39.7 101.2 39.5C101.1 39.2 101 38.9 101 38.6C101 38.2 101 37.9 101.1 37.5C101.2 37.1 101.3 36.7 101.5 36.4C101.7 36.1 101.9 35.7 102.1 35.4C102.4 35.1 102.7 34.9 103 34.7C103.4 34.5 103.8 34.4 104.2 34.5C104.5 34.5 104.8 34.5 105.1 34.6C105.3 34.7 105.4 34.7 105.5 34.8L105.1 36.2C105.3 36.2 105.1 36.1 105 36ZM99.9 40.3H98.4L98.8 38.6H100.3L99.9 40.3ZM118.9 0H101C105.5 3.7 104.1 10.1 104.1 10.1H116.1L130.2 21.3L117.1 32.4H100.7C100 35.8 96.4 41 93.9 42.5H119L145.1 21.3L118.9 0ZM108.9 36C108.8 35.9 108.7 35.8 108.6 35.9C108.5 35.9 108.3 35.9 108.2 36C108.1 36.1 108 36.2 107.9 36.4C107.8 36.6 107.7 36.7 107.7 36.9C107.6 37.1 107.6 37.3 107.5 37.5C107.5 37.7 107.4 37.9 107.4 38.1V38.6C107.4 38.7 107.4 38.9 107.5 39C107.6 39.1 107.7 39.1 107.8 39.1C107.9 39.1 108.1 39.1 108.2 39C108.3 38.9 108.4 38.8 108.5 38.6C108.6 38.4 108.7 38.3 108.7 38.1C108.8 37.9 108.8 37.7 108.9 37.5C108.9 37.3 109 37.1 109 36.9V36.4C109 36.2 109 36.1 108.9 36Z" fill="#FF7100"/>
</svg>
