<svg width="48" height="37" viewBox="0 0 48 37" fill="none" xmlns="http://www.w3.org/2000/svg">
<path d="M47.689 0.516995C46.855 -0.549005 45.398 0.303995 44.756 0.676995C40.187 3.36899 39.513 8.10899 37.922 10.831C36.669 13.009 34.618 14.61 32.763 14.734C31.39 14.832 29.902 14.567 28.425 13.924C24.812 12.362 22.865 10.341 22.391 9.98399C21.418 9.24499 13.932 1.95399 7.832 1.65699C7.832 1.65699 7.088 0.156995 6.902 0.130995C6.457 0.0799946 6 1.03299 5.669 1.13299C5.369 1.23799 4.844 0.108995 4.539 0.157995C4.233 0.199995 3.936 1.32999 3.34 1.91299C2.901 2.33799 2.367 2.31099 2.065 2.83899C1.961 3.03099 1.997 3.36899 1.879 3.67899C1.626 4.31999 0.776999 4.38699 0.768999 5.07299C0.768999 5.83499 1.483 5.97999 2.107 6.51099C2.603 6.93599 2.637 7.23599 3.216 7.43499C3.731 7.61099 4.48 7.06099 5.144 7.25799C5.697 7.42099 6.229 7.53699 6.348 8.10399C6.456 8.61699 6.348 9.41999 5.666 9.32999C5.444 9.29999 4.472 8.98199 3.271 9.10999C1.821 9.26399 0.165999 9.72799 0.00399857 11.33C-0.0790014 12.225 1.032 13.272 2.114 13.063C2.856 12.92 2.506 12.05 2.911 11.63C3.446 11.089 6.456 13.518 9.255 13.518C10.441 13.518 11.318 13.218 12.19 12.308C12.268 12.251 12.375 12.105 12.5 12.09C12.613 12.105 12.824 12.218 12.89 12.265C15.152 14.058 16.857 17.664 25.15 17.706C26.314 17.72 27.648 18.264 28.741 19.259C29.701 20.125 30.269 21.51 30.816 22.909C31.652 25.015 33.138 27.048 35.4 29.316C35.519 29.451 37.38 30.877 37.519 30.982C37.544 31.003 37.687 31.316 37.625 31.492C37.586 32.872 37.38 36.832 40.356 36.998C41.087 37.038 40.905 36.535 40.905 36.178C40.895 35.495 40.776 34.807 41.131 34.098C41.638 33.141 40.08 32.68 40.114 30.585C40.151 29.018 38.823 29.283 38.145 28.087C37.764 27.4 37.409 27.022 37.446 26.193C37.591 21.433 36.412 18.297 35.836 17.539C35.381 16.952 34.989 16.733 35.422 16.461C37.903 14.829 38.472 13.311 38.472 13.311C39.792 10.23 40.984 7.42099 42.622 6.17299C42.954 5.93199 43.799 5.29299 44.325 5.05299C45.852 4.32799 46.671 3.89699 47.102 3.47699C47.813 2.80199 48.371 1.36999 47.689 0.516995Z" fill="black"/>
</svg>
