<?xml version="1.0" encoding="UTF-8" standalone="no"?>
<svg
   xmlns:dc="http://purl.org/dc/elements/1.1/"
   xmlns:cc="http://creativecommons.org/ns#"
   xmlns:rdf="http://www.w3.org/1999/02/22-rdf-syntax-ns#"
   xmlns:svg="http://www.w3.org/2000/svg"
   xmlns="http://www.w3.org/2000/svg"
   xmlns:sodipodi="http://sodipodi.sourceforge.net/DTD/sodipodi-0.dtd"
   xmlns:inkscape="http://www.inkscape.org/namespaces/inkscape"
   version="1.1"
   id="svg871"
   xml:space="preserve"
   width="2090.8401"
   height="789.56"
   viewBox="0 0 2090.8401 789.56"
   sodipodi:docname="SAN-Logo-RGB.svg"
   inkscape:version="1.0.2 (e86c8708, 2021-01-15)"><metadata
     id="metadata877"><rdf:RDF><cc:Work
         rdf:about=""><dc:format>image/svg+xml</dc:format><dc:type
           rdf:resource="http://purl.org/dc/dcmitype/StillImage" /><dc:title></dc:title></cc:Work></rdf:RDF></metadata><defs
     id="defs875"><clipPath
       clipPathUnits="userSpaceOnUse"
       id="clipPath887"><path
         d="M 0,592.17 H 1568.13 V 0 H 0 Z"
         id="path885" /></clipPath></defs><sodipodi:namedview
     pagecolor="#ffffff"
     bordercolor="#666666"
     borderopacity="1"
     objecttolerance="10"
     gridtolerance="10"
     guidetolerance="10"
     inkscape:pageopacity="0"
     inkscape:pageshadow="2"
     inkscape:window-width="1011"
     inkscape:window-height="480"
     id="namedview873"
     showgrid="false"
     inkscape:zoom="0.11490413"
     inkscape:cx="1045.42"
     inkscape:cy="394.78"
     inkscape:window-x="0"
     inkscape:window-y="25"
     inkscape:window-maximized="0"
     inkscape:current-layer="g879" /><g
     id="g879"
     inkscape:groupmode="layer"
     inkscape:label="SAN-Logo-RGB"
     transform="matrix(1.3333333,0,0,-1.3333333,0,789.56)"><g
       id="g881"><g
         id="g883"
         clip-path="url(#clipPath887)"><g
           id="g889"
           transform="translate(325.6199,318.8252)"><path
             d="m 0,0 c 0,-7.358 -1.717,-13.98 -5.151,-19.867 -3.434,-5.886 -7.849,-10.956 -13.245,-15.206 -5.395,-4.254 -11.489,-7.524 -18.272,-9.811 -6.787,-2.288 -13.532,-3.434 -20.234,-3.434 -3.925,0 -7.972,0.613 -12.141,1.839 -4.17,1.227 -8.217,2.576 -12.142,4.047 -3.923,1.472 -7.645,2.821 -11.159,4.047 -3.518,1.227 -6.745,1.84 -9.688,1.84 -0.656,0 -1.349,-0.368 -2.085,-1.103 -0.736,-0.737 -1.391,-1.557 -1.962,-2.454 -0.574,-0.9 -1.066,-1.839 -1.472,-2.82 -0.41,-0.981 -0.777,-1.717 -1.103,-2.208 h -6.377 v 60.337 h 6.377 c 1.306,-6.707 3.349,-13.164 6.132,-19.377 2.778,-6.216 6.334,-11.734 10.668,-16.556 4.332,-4.824 9.401,-8.668 15.208,-11.527 5.801,-2.862 12.385,-4.292 19.744,-4.292 3.758,0 7.396,0.528 10.914,1.594 3.514,1.061 6.622,2.656 9.32,4.783 2.698,2.123 4.863,4.74 6.5,7.849 1.632,3.104 2.452,6.702 2.452,10.792 0,7.848 -2.169,14.428 -6.499,19.744 -4.335,5.311 -9.772,10.013 -16.31,14.102 -6.542,4.085 -13.575,7.972 -21.094,11.651 -7.523,3.678 -14.555,7.848 -21.093,12.509 -6.542,4.66 -11.979,10.136 -16.31,16.432 -4.334,6.293 -6.499,14.104 -6.499,23.423 0,7.849 1.551,14.594 4.66,20.235 3.103,5.641 7.193,10.339 12.262,14.103 5.067,3.76 10.915,6.538 17.537,8.339 6.623,1.798 13.368,2.698 20.235,2.698 3.269,0 6.458,-0.329 9.565,-0.981 3.105,-0.656 6.213,-1.433 9.321,-2.331 3.104,-0.9 6.17,-1.677 9.198,-2.33 3.023,-0.655 6.089,-0.98 9.197,-0.98 1.962,0 3.557,0.651 4.782,1.962 1.227,1.306 2.246,2.859 3.067,4.66 h 6.622 V 73.826 h -6.622 c -1.311,6.047 -3.151,11.896 -5.519,17.536 -2.372,5.642 -5.357,10.669 -8.952,15.084 -3.599,4.415 -7.972,7.972 -13.122,10.669 -5.15,2.698 -11.16,4.047 -18.027,4.047 -3.599,0 -7.32,-0.329 -11.161,-0.98 -3.843,-0.656 -7.357,-1.802 -10.545,-3.434 -3.189,-1.637 -5.807,-3.925 -7.849,-6.868 -2.047,-2.943 -3.066,-6.787 -3.066,-11.527 0,-8.178 2.33,-14.839 6.99,-19.99 4.66,-5.15 10.463,-9.649 17.414,-13.49 6.948,-3.844 14.471,-7.48 22.565,-10.914 8.094,-3.434 15.613,-7.4 22.565,-11.896 C -17.456,37.564 -11.65,32.008 -6.99,25.385 -2.33,18.763 0,10.301 0,0"
             style="fill:#295515;fill-opacity:1;fill-rule:nonzero;stroke:none"
             id="path891" /></g><g
           id="g893"
           transform="translate(447.0271,377.6895)"><path
             d="m 0,0 c -5.561,-2.292 -12.018,-4.947 -19.376,-7.971 -7.358,-3.028 -14.268,-6.623 -20.726,-10.792 -6.461,-4.17 -11.937,-9.037 -16.432,-14.593 -4.499,-5.561 -6.745,-12.019 -6.745,-19.376 0,-3.599 0.571,-7.236 1.716,-10.915 1.143,-3.679 2.86,-6.99 5.152,-9.933 2.287,-2.943 5.065,-5.316 8.339,-7.113 3.268,-1.801 6.948,-2.699 11.037,-2.699 3.268,0 6.58,0.572 9.933,1.718 3.349,1.142 6.623,2.655 9.811,4.537 3.188,1.878 6.254,3.924 9.197,6.132 2.944,2.207 5.642,4.292 8.094,6.254 z m 59.846,-77.015 c -2.292,-3.107 -4.867,-6.338 -7.727,-9.687 -2.862,-3.354 -5.971,-6.377 -9.319,-9.075 -3.354,-2.699 -6.99,-4.906 -10.915,-6.622 -3.924,-1.717 -8.013,-2.576 -12.264,-2.576 -3.924,0 -7.154,0.821 -9.687,2.453 -2.538,1.632 -4.538,3.801 -6.009,6.5 -1.472,2.698 -2.495,5.679 -3.067,8.952 C 0.284,-83.801 0,-80.448 0,-77.015 c -4.089,-3.272 -8.178,-6.541 -12.264,-9.81 -4.089,-3.273 -8.339,-6.254 -12.754,-8.952 -4.414,-2.699 -8.994,-4.906 -13.734,-6.622 -4.745,-1.717 -9.895,-2.576 -15.452,-2.576 -6.377,0 -12.061,1.104 -17.046,3.311 -4.99,2.208 -9.198,5.273 -12.632,9.198 -3.433,3.924 -6.051,8.542 -7.848,13.858 -1.801,5.311 -2.698,11.075 -2.698,17.291 0,6.868 1.594,13.16 4.782,18.885 3.189,5.722 7.397,10.953 12.632,15.698 5.231,4.741 11.198,9.033 17.905,12.877 6.702,3.839 13.57,7.273 20.602,10.3 7.028,3.025 13.896,5.68 20.603,7.972 6.702,2.288 12.67,4.33 17.904,6.132 v 6.867 c 0,5.722 -0.368,11.24 -1.104,16.556 -0.736,5.311 -2.25,10.055 -4.537,14.225 -2.292,4.17 -5.48,7.481 -9.565,9.934 -4.09,2.452 -9.566,3.679 -16.434,3.679 -5.56,0 -10.017,-0.779 -13.367,-2.33 -3.353,-1.556 -5.887,-3.764 -7.603,-6.623 -1.717,-2.863 -2.821,-6.215 -3.311,-10.055 -0.49,-3.844 -0.736,-8.056 -0.736,-12.632 0,-5.561 -1.066,-9.895 -3.189,-12.999 -2.127,-3.108 -6.296,-4.66 -12.508,-4.66 -5.725,0 -9.73,1.633 -12.018,4.905 -2.292,3.27 -3.434,7.52 -3.434,12.754 0,7.684 2.042,14.226 6.132,19.622 4.085,5.396 9.197,9.811 15.329,13.244 6.132,3.434 12.792,5.925 19.99,7.481 7.193,1.551 13.98,2.33 20.357,2.33 10.627,0 19.579,-1.024 26.856,-3.066 7.274,-2.047 13.122,-5.396 17.538,-10.056 4.415,-4.66 7.56,-10.631 9.442,-17.905 1.878,-7.277 2.82,-16.229 2.82,-26.856 v -57.639 c 0,-4.744 -0.042,-9.73 -0.122,-14.961 -0.084,-5.235 0.283,-10.14 1.104,-14.716 0.49,-2.292 1.264,-4.376 2.33,-6.254 1.061,-1.882 2.981,-2.821 5.763,-2.821 1.472,0 3.147,0.614 5.029,1.839 1.878,1.227 3.801,2.656 5.763,4.293 1.962,1.632 3.802,3.311 5.519,5.027 l 3.802,3.802 z"
             style="fill:#295515;fill-opacity:1;fill-rule:nonzero;stroke:none"
             id="path895" /></g><g
           id="g897"
           transform="translate(611.3572,276.1484)"><path
             d="m 0,0 v 7.112 c 6.377,0 11.404,0.492 15.084,1.472 3.679,0.981 6.457,2.656 8.339,5.028 1.878,2.368 3.065,5.557 3.556,9.566 0.491,4.005 0.736,9.033 0.736,15.084 v 69.166 c 0,4.74 -0.207,9.726 -0.613,14.961 -0.411,5.231 -1.514,10.013 -3.311,14.348 -1.802,4.33 -4.499,7.887 -8.094,10.669 -3.598,2.779 -8.504,4.17 -14.717,4.17 -4.415,0 -8.667,-0.698 -12.753,-2.085 -4.089,-1.391 -7.971,-3.188 -11.651,-5.396 -3.679,-2.207 -7.112,-4.783 -10.301,-7.726 -3.188,-2.943 -6.173,-5.887 -8.952,-8.83 V 38.262 c 0,-5.887 0.245,-10.834 0.736,-14.839 0.49,-4.009 1.632,-7.236 3.433,-9.688 1.798,-2.453 4.538,-4.17 8.217,-5.151 3.679,-0.98 8.707,-1.472 15.084,-1.472 V 0 h -84.372 v 7.112 c 6.212,0 11.037,0.614 14.471,1.84 3.433,1.227 6.008,3.105 7.725,5.642 1.717,2.533 2.737,5.763 3.067,9.687 0.325,3.925 0.49,8.585 0.49,13.981 v 63.279 c 0,2.613 0.08,6.622 0.245,12.019 0.161,5.395 -0.042,10.791 -0.613,16.187 -0.575,5.396 -1.801,10.137 -3.679,14.226 -1.882,4.085 -4.867,6.131 -8.952,6.131 -2.127,0 -4.254,-0.288 -6.377,-0.858 -2.127,-0.575 -4.254,-1.268 -6.377,-2.085 l -2.453,6.622 51.752,20.603 h 7.603 v -35.81 c 3.434,4.25 7.236,8.501 11.405,12.755 4.169,4.25 8.623,8.094 13.367,11.527 4.741,3.434 9.811,6.212 15.207,8.339 5.395,2.123 10.953,3.189 16.677,3.189 9.157,0 16.637,-1.882 22.443,-5.642 5.803,-3.763 10.34,-8.707 13.612,-14.838 3.27,-6.132 5.477,-12.961 6.622,-20.48 1.143,-7.523 1.717,-15.126 1.717,-22.81 V 38.262 c 0,-5.396 0.246,-10.056 0.736,-13.981 0.491,-3.924 1.594,-7.154 3.312,-9.687 1.717,-2.537 4.372,-4.415 7.971,-5.642 3.594,-1.226 8.42,-1.84 14.47,-1.84 l 0,-7.112 z"
             style="fill:#295515;fill-opacity:1;fill-rule:nonzero;stroke:none"
             id="path899" /></g><g
           id="g901"
           transform="translate(771.0271,503.2666)"><path
             d="m 0,0 c 0,-5.234 -1.802,-9.729 -5.396,-13.489 -3.598,-3.764 -8.013,-5.642 -13.245,-5.642 -5.234,0 -9.687,1.798 -13.367,5.397 -3.679,3.594 -5.518,8.173 -5.518,13.734 0,5.231 1.839,9.604 5.518,13.122 3.68,3.515 8.133,5.274 13.367,5.274 5.067,0 9.444,-1.801 13.122,-5.396 C -1.84,9.401 0,5.066 0,0 m -60.336,-227.118 v 7.112 c 5.557,0 10.056,0.406 13.489,1.227 3.435,0.816 6.09,2.288 7.972,4.415 1.878,2.123 3.146,4.943 3.802,8.462 0.651,3.513 0.98,7.97 0.98,13.367 v 90.504 c 0,2.123 -0.122,4.618 -0.367,7.48 -0.245,2.86 -0.778,5.6 -1.595,8.217 -0.82,2.613 -2.127,4.821 -3.924,6.622 -1.801,1.798 -4.169,2.698 -7.113,2.698 -2.127,0 -4.292,-0.288 -6.499,-0.858 -2.208,-0.575 -4.457,-1.269 -6.745,-2.085 l -2.453,6.622 51.262,20.603 h 8.093 v -139.803 c 0,-5.397 0.326,-9.854 0.981,-13.367 0.651,-3.519 1.92,-6.339 3.802,-8.462 1.878,-2.127 4.495,-3.599 7.848,-4.415 3.35,-0.821 7.807,-1.227 13.367,-1.227 v -7.112 z"
             style="fill:#295515;fill-opacity:1;fill-rule:nonzero;stroke:none"
             id="path903" /></g><g
           id="g905"
           transform="translate(957.9207,340.4092)"><path
             d="m 0,0 c -1.472,-8.83 -4.169,-17.414 -8.094,-25.754 -3.924,-8.339 -8.952,-15.781 -15.084,-22.319 -6.132,-6.542 -13.206,-11.815 -21.216,-15.82 -8.012,-4.004 -16.842,-6.009 -26.488,-6.009 -12.264,0 -22.932,2.66 -32.008,7.971 -9.075,5.312 -16.597,12.264 -22.564,20.848 -5.971,8.585 -10.424,18.23 -13.367,28.941 -2.944,10.708 -4.415,21.461 -4.415,32.253 0,11.774 1.878,23.094 5.64,33.97 3.76,10.872 9.157,20.481 16.189,28.819 7.028,8.339 15.532,14.961 25.508,19.867 9.971,4.906 21.172,7.358 33.601,7.358 5.722,0 11.934,-0.858 18.641,-2.575 6.702,-1.717 12.915,-4.292 18.64,-7.726 5.721,-3.434 10.546,-7.688 14.471,-12.754 3.924,-5.07 5.886,-10.957 5.886,-17.66 0,-5.56 -1.594,-9.565 -4.782,-12.017 -3.189,-2.454 -7.401,-3.68 -12.632,-3.68 -5.561,0 -9.65,1.104 -12.263,3.311 -2.618,2.207 -4.499,4.944 -5.642,8.217 -1.145,3.269 -1.961,6.825 -2.452,10.669 -0.491,3.84 -1.514,7.397 -3.066,10.669 -1.556,3.27 -4.047,6.01 -7.481,8.217 -3.433,2.207 -8.585,3.31 -15.452,3.31 -8.177,0 -15.084,-1.923 -20.724,-5.763 -5.642,-3.844 -10.179,-8.791 -13.614,-14.839 -3.433,-6.051 -5.927,-12.715 -7.48,-19.989 -1.556,-7.278 -2.33,-14.348 -2.33,-21.216 0,-8.339 0.981,-17.008 2.943,-25.998 1.962,-8.994 5.151,-17.253 9.566,-24.773 4.415,-7.522 10.094,-13.696 17.046,-18.517 6.948,-4.824 15.33,-7.236 25.14,-7.236 6.867,0 12.999,1.185 18.395,3.557 5.396,2.368 10.178,5.519 14.348,9.442 4.17,3.925 7.849,8.462 11.037,13.613 3.189,5.151 6.009,10.505 8.462,16.065 z"
             style="fill:#295515;fill-opacity:1;fill-rule:nonzero;stroke:none"
             id="path907" /></g><g
           id="g909"
           transform="translate(1078.3484,377.6895)"><path
             d="m 0,0 c -5.561,-2.292 -12.018,-4.947 -19.376,-7.971 -7.358,-3.028 -14.268,-6.623 -20.726,-10.792 -6.461,-4.17 -11.937,-9.037 -16.432,-14.593 -4.499,-5.561 -6.745,-12.019 -6.745,-19.376 0,-3.599 0.571,-7.236 1.716,-10.915 1.143,-3.679 2.86,-6.99 5.152,-9.933 2.287,-2.943 5.065,-5.316 8.339,-7.113 3.268,-1.801 6.948,-2.699 11.037,-2.699 3.268,0 6.58,0.572 9.933,1.718 3.349,1.142 6.623,2.655 9.811,4.537 3.188,1.878 6.254,3.924 9.197,6.132 2.944,2.207 5.642,4.292 8.094,6.254 z m 59.846,-77.015 c -2.292,-3.107 -4.867,-6.338 -7.727,-9.687 -2.862,-3.354 -5.971,-6.377 -9.319,-9.075 -3.354,-2.699 -6.99,-4.906 -10.915,-6.622 -3.924,-1.717 -8.013,-2.576 -12.264,-2.576 -3.924,0 -7.154,0.821 -9.687,2.453 -2.538,1.632 -4.538,3.801 -6.009,6.5 -1.472,2.698 -2.495,5.679 -3.067,8.952 C 0.284,-83.801 0,-80.448 0,-77.015 c -4.089,-3.272 -8.178,-6.541 -12.264,-9.81 -4.089,-3.273 -8.339,-6.254 -12.754,-8.952 -4.414,-2.699 -8.994,-4.906 -13.734,-6.622 -4.745,-1.717 -9.895,-2.576 -15.452,-2.576 -6.377,0 -12.061,1.104 -17.046,3.311 -4.99,2.208 -9.198,5.273 -12.632,9.198 -3.433,3.924 -6.051,8.542 -7.848,13.858 -1.801,5.311 -2.698,11.075 -2.698,17.291 0,6.868 1.594,13.16 4.782,18.885 3.189,5.722 7.397,10.953 12.632,15.698 5.231,4.741 11.198,9.033 17.905,12.877 6.702,3.839 13.57,7.273 20.602,10.3 7.028,3.025 13.896,5.68 20.603,7.972 6.702,2.288 12.67,4.33 17.904,6.132 v 6.867 c 0,5.722 -0.368,11.24 -1.104,16.556 -0.736,5.311 -2.25,10.055 -4.537,14.225 -2.292,4.17 -5.48,7.481 -9.565,9.934 -4.09,2.452 -9.566,3.679 -16.434,3.679 -5.56,0 -10.017,-0.779 -13.367,-2.33 -3.353,-1.556 -5.887,-3.764 -7.603,-6.623 -1.717,-2.863 -2.821,-6.215 -3.311,-10.055 -0.49,-3.844 -0.736,-8.056 -0.736,-12.632 0,-5.561 -1.066,-9.895 -3.189,-12.999 -2.127,-3.108 -6.296,-4.66 -12.508,-4.66 -5.725,0 -9.73,1.633 -12.018,4.905 -2.292,3.27 -3.434,7.52 -3.434,12.754 0,7.684 2.042,14.226 6.132,19.622 4.085,5.396 9.197,9.811 15.329,13.244 6.132,3.434 12.792,5.925 19.99,7.481 7.193,1.551 13.98,2.33 20.357,2.33 10.627,0 19.579,-1.024 26.856,-3.066 7.274,-2.047 13.122,-5.396 17.538,-10.056 4.415,-4.66 7.56,-10.631 9.442,-17.905 1.878,-7.277 2.82,-16.229 2.82,-26.856 v -57.639 c 0,-4.744 -0.042,-9.73 -0.122,-14.961 -0.084,-5.235 0.283,-10.14 1.104,-14.716 0.49,-2.292 1.264,-4.376 2.33,-6.254 1.061,-1.882 2.981,-2.821 5.763,-2.821 1.472,0 3.147,0.614 5.029,1.839 1.878,1.227 3.801,2.656 5.763,4.293 1.962,1.632 3.802,3.311 5.519,5.027 l 3.802,3.802 z"
             style="fill:#295515;fill-opacity:1;fill-rule:nonzero;stroke:none"
             id="path911" /></g><g
           id="g913"
           transform="translate(1267.6951,429.9316)"><path
             d="m 0,0 c 0,-4.579 -1.678,-8.584 -5.027,-12.019 -3.354,-3.433 -7.321,-5.15 -11.896,-5.15 -2.782,0 -5.357,0.694 -7.726,2.085 -2.372,1.388 -4.661,2.859 -6.868,4.415 -2.207,1.552 -4.254,3.023 -6.131,4.415 -1.882,1.387 -3.721,2.084 -5.519,2.084 -2.452,0 -4.947,-1.187 -7.48,-3.556 -2.538,-2.372 -4.906,-5.151 -7.114,-8.339 -2.207,-3.189 -4.211,-6.338 -6.009,-9.443 -1.8,-3.108 -3.107,-5.48 -3.923,-7.113 v -81.919 c 0,-10.792 2.042,-18.848 6.131,-24.159 4.085,-5.316 11.934,-7.972 23.545,-7.972 v -7.112 h -87.56 v 7.112 c 6.377,0 11.321,0.491 14.839,1.472 3.514,0.981 6.17,2.698 7.971,5.151 1.797,2.452 2.901,5.679 3.311,9.688 0.406,4.005 0.613,8.952 0.613,14.839 v 68.184 c 0,1.962 -0.042,4.905 -0.123,8.83 -0.084,3.924 -0.287,8.01 -0.612,12.263 -0.33,4.251 -0.859,8.255 -1.595,12.018 -0.735,3.76 -1.84,6.458 -3.311,8.094 -2.618,1.307 -5.806,1.962 -9.566,1.962 -3.597,0 -7.442,-0.819 -11.527,-2.452 L -127.539,0 -75.297,20.603 h 7.604 v -38.262 c 2.123,3.924 4.66,8.094 7.602,12.509 2.944,4.415 6.255,8.542 9.934,12.385 3.679,3.84 7.683,7.029 12.018,9.566 4.33,2.533 9.033,3.802 14.103,3.802 2.943,0 5.887,-0.453 8.83,-1.349 2.943,-0.9 5.518,-2.25 7.726,-4.047 2.208,-1.802 4.004,-3.967 5.396,-6.5 C -0.697,6.17 0,3.269 0,0"
             style="fill:#295515;fill-opacity:1;fill-rule:nonzero;stroke:none"
             id="path915" /></g><g
           id="g917"
           transform="translate(1386.6511,392.1602)"><path
             d="m 0,0 c 0,5.722 -0.697,11.282 -2.085,16.679 -1.392,5.395 -3.599,10.178 -6.622,14.347 -3.027,4.17 -6.829,7.562 -11.405,10.179 -4.579,2.614 -10.056,3.925 -16.433,3.925 -6.377,0 -12.018,-1.269 -16.924,-3.802 -4.905,-2.537 -9.117,-5.887 -12.631,-10.057 -3.518,-4.168 -6.296,-8.994 -8.339,-14.47 C -76.485,11.321 -77.75,5.722 -78.241,0 Z m 38.752,-54.204 c -1.146,-8.83 -3.679,-17.291 -7.604,-25.386 -3.923,-8.094 -8.913,-15.248 -14.961,-21.461 -6.05,-6.216 -13.041,-11.201 -20.97,-14.961 -7.933,-3.759 -16.556,-5.641 -25.876,-5.641 -12.103,0 -22.772,2.537 -32.007,7.603 -9.24,5.067 -16.966,11.774 -23.178,20.112 -6.217,8.339 -10.877,17.821 -13.98,28.452 -3.109,10.627 -4.66,21.419 -4.66,32.375 0,12.263 1.593,23.914 4.782,34.951 3.188,11.037 8.01,20.724 14.471,29.064 6.458,8.339 14.631,14.999 24.527,19.99 9.891,4.985 21.461,7.48 34.705,7.48 10.137,0 19.212,-1.717 27.226,-5.15 8.008,-3.434 14.795,-8.217 20.356,-14.349 5.558,-6.132 9.812,-13.409 12.754,-21.829 2.943,-8.423 4.415,-17.62 4.415,-27.592 H -78.241 c 0,-9.159 1.226,-18.479 3.679,-27.961 2.453,-9.485 6.212,-18.111 11.283,-25.876 5.066,-7.767 11.485,-14.144 19.253,-19.131 7.764,-4.989 16.962,-7.48 27.592,-7.48 6.538,0 12.387,1.019 17.538,3.065 5.15,2.043 9.726,4.906 13.735,8.585 4.005,3.679 7.518,8.009 10.546,12.999 3.024,4.986 5.599,10.34 7.726,16.065 z"
             style="fill:#295515;fill-opacity:1;fill-rule:nonzero;stroke:none"
             id="path919" /></g><g
           id="g921"
           transform="translate(152.7801,282.3234)"><path
             d="m 0,0 c -51.962,26.237 -106.834,73.489 -127.989,148.793 -15.449,54.995 4.952,131.968 58.557,112.788 34.19,-12.233 50.558,-56.395 64.235,-96.272 1.928,-5.622 8.911,-1.445 7.258,4.38 -0.643,2.265 -1.335,4.54 -2.028,6.815 1.526,-2.837 5.663,-1.823 5.914,2.715 2.961,53.43 29.295,109.367 72.469,110.333 36.143,0.808 71.876,-49.277 75.187,-81.416 0.463,-4.498 9.944,-5.541 9.591,-1.033 -1.892,24.2 -4.938,35.43 -15.397,55.841 -47.893,93.459 -163.738,24.586 -148.362,-83.854 0.054,-0.379 0.079,-0.668 0.124,-0.997 -14.089,45.452 -38.525,98.456 -77.123,104.085 -28.27,4.123 -58.857,-25.303 -67.958,-61.349 C -173.147,111.418 -59.747,17.673 4.334,-4.418 5.428,-4.796 0.598,-0.302 0,0"
             style="fill:#295515;fill-opacity:1;fill-rule:nonzero;stroke:none"
             id="path923" /></g><g
           id="g925"
           transform="translate(152.7801,282.3234)"><path
             d="m 0,0 c -51.962,26.237 -106.834,73.489 -127.989,148.793 -15.449,54.995 4.952,131.968 58.557,112.788 34.19,-12.233 50.558,-56.395 64.235,-96.272 1.928,-5.622 8.911,-1.445 7.258,4.38 -0.643,2.265 -1.335,4.54 -2.028,6.815 1.526,-2.837 5.663,-1.823 5.914,2.715 2.961,53.43 29.295,109.367 72.469,110.333 36.143,0.808 71.876,-49.277 75.187,-81.416 0.463,-4.498 9.944,-5.541 9.591,-1.033 -1.892,24.2 -4.938,35.43 -15.397,55.841 -47.893,93.459 -163.738,24.586 -148.362,-83.854 0.054,-0.379 0.079,-0.668 0.124,-0.997 -14.089,45.452 -38.525,98.456 -77.123,104.085 -28.27,4.123 -58.857,-25.303 -67.958,-61.349 C -173.147,111.418 -59.747,17.673 4.334,-4.418 5.428,-4.796 0.598,-0.302 0,0 Z"
             style="fill:none;stroke:#295515;stroke-width:6;stroke-linecap:butt;stroke-linejoin:miter;stroke-miterlimit:10;stroke-dasharray:none;stroke-opacity:1"
             id="path927" /></g><g
           id="g929"
           transform="translate(942.1609,164.9326)"><path
             d="m 0,0 c -2.624,8.81 -4.686,17.243 -7.497,24.553 0,0 -10.12,-18.93 -15.931,-30.738 -5.623,-11.246 -14.056,-31.299 -14.056,-31.299 0,0 14.806,2.811 26.801,5.809 6.747,1.688 11.995,2.999 17.618,4.873 0,0 -2.812,11.995 -6.935,26.802 m 45.544,-25.489 c -1.124,0 -2.062,0.187 -2.812,0.562 l -24.177,-7.122 12.557,-53.416 c 0,0 4.311,-3.186 4.311,-6.747 0,-2.436 -2.623,-5.435 -5.622,-5.435 -3.374,0 -7.685,2.811 -7.685,5.81 0,0.187 0,0.374 0.188,1.124 L 8.996,-35.235 c 0,0 -18.18,-5.248 -31.674,-9.746 -6.56,-2.062 -13.12,-4.873 -20.429,-7.498 0,0 -6.747,-13.306 -7.685,-19.117 -0.937,-5.809 -0.562,-8.246 -3.373,-9.558 -1.125,-0.375 -2.062,-0.75 -2.999,-0.75 -2.249,0 -4.123,1.312 -4.873,3.186 -0.188,0.375 -0.188,0.75 -0.188,1.125 0,4.498 3.936,15.368 7.31,23.615 0,0 -5.623,0.563 -5.623,6.185 0,0.75 0,1.687 0.375,2.812 0.937,3.748 8.997,5.06 11.059,5.623 l 38.421,83.965 c 1.312,2.998 2.811,5.997 7.122,5.997 3.561,0 4.498,-4.31 4.873,-7.122 0.375,-2.436 1.125,-11.245 4.311,-22.677 2.437,-8.81 7.497,-29.801 11.058,-44.42 l 26.239,7.872 c 0,0 2.436,1.124 4.873,1.124 2.061,0 4.124,-0.937 4.498,-4.873 0,-4.311 -3.561,-5.997 -6.747,-5.997"
             style="fill:#e77b05;fill-opacity:1;fill-rule:nonzero;stroke:none"
             id="path931" /></g><g
           id="g933"
           transform="translate(1017.8748,150.876)"><path
             d="m 0,0 c 0,0 -2.999,-14.619 -4.686,-25.489 -1.686,-11.059 -4.498,-34.487 -4.498,-34.487 0,0 29.051,14.245 33.549,34.674 0.188,0.937 0.188,1.312 0.188,2.062 C 24.553,-14.057 10.871,-0.75 0,0 m -3.186,-69.159 c -2.811,0 -5.81,2.811 -6.373,4.873 0,0 -2.624,-16.681 -2.624,-42.358 v -12.37 c 0,-13.495 0.563,-21.928 0.938,-22.866 0.562,-1.311 0.937,-2.436 0.937,-3.56 0,-3.187 -2.062,-5.436 -4.499,-5.436 -3.935,0 -6.559,4.123 -6.559,7.872 0,1.312 0.187,2.437 0.75,3.373 0.187,0.188 0.187,0.75 0.187,1.875 0,4.123 -1.125,14.618 -1.125,31.674 0,4.873 0.188,10.309 0.375,16.307 1.687,38.983 4.123,52.291 8.621,86.214 0,0 -4.685,1.312 -4.685,5.623 0,5.623 10.496,8.247 13.307,8.247 13.12,-0.188 38.61,-13.121 38.61,-35.049 0,-16.493 -34.112,-44.419 -37.86,-44.419"
             style="fill:#e77b05;fill-opacity:1;fill-rule:nonzero;stroke:none"
             id="path935" /></g><g
           id="g937"
           transform="translate(1069.4119,116.7646)"><path
             d="m 0,0 c -0.75,-2.062 -1.125,-4.686 -1.125,-7.31 0,-6.747 3.562,-18.929 12.183,-18.929 8.622,0 20.429,10.308 23.99,17.055 3.186,6.186 5.435,12.746 5.435,19.305 0,8.247 -4.498,20.242 -14.806,20.242 C 24.178,30.363 9.559,28.302 0,0 m 8.996,-35.985 c -13.307,0 -20.241,16.119 -20.241,28.488 0,4.873 0.936,9.746 3.185,14.807 10.497,23.802 21.367,33.736 32.238,33.736 7.497,0 23.24,-6.56 25.301,-26.989 0.188,-2.249 0.375,-4.123 0.375,-6.185 0,-26.802 -25.114,-43.857 -40.858,-43.857"
             style="fill:#e77b05;fill-opacity:1;fill-rule:nonzero;stroke:none"
             id="path939" /></g><g
           id="g941"
           transform="translate(1203.7917,157.623)"><path
             d="m 0,0 c -2.249,0 -4.872,0.562 -6.372,0.562 -11.62,0 -24.553,-2.624 -31.3,-4.123 -0.187,-2.249 -4.123,-32.424 -4.123,-57.351 0,-3.187 0,-6.373 0.188,-9.184 0,-0.75 0.936,-3.374 0.936,-5.623 0,-2.436 -0.936,-4.498 -4.498,-4.498 h -0.749 c -5.623,0.375 -6.561,7.31 -6.561,10.308 0,8.434 0,20.055 2.063,39.172 1.312,13.307 2.062,17.055 2.998,25.115 0,0 -9.184,-2.063 -15.931,-5.248 -3.186,-1.5 -9.558,-7.31 -12.932,-7.31 -2.062,0 -5.81,2.812 -5.81,5.436 0,0.374 0,0.749 0.188,1.311 0.936,2.812 1.311,4.123 11.62,8.06 10.682,4.123 13.119,5.06 24.365,8.059 0,0 4.498,29.613 4.498,35.985 0,3.186 -0.375,5.81 -0.375,8.434 0,3.936 0.75,7.31 4.311,7.31 3.561,0 5.81,-3.561 5.81,-13.495 0,-2.811 -0.187,-6.185 -0.562,-10.12 -1.125,-11.246 -2.249,-14.244 -3.936,-26.427 0,0 11.245,2.437 24.552,2.437 1.687,0 3.374,-0.188 5.06,-0.188 3.937,-0.187 10.684,0 11.059,-5.248 C 4.499,0.562 2.437,0 0,0"
             style="fill:#e77b05;fill-opacity:1;fill-rule:nonzero;stroke:none"
             id="path943" /></g><g
           id="g945"
           transform="translate(1279.3201,92.9619)"><path
             d="m 0,0 c 0,-2.999 0.375,-5.622 0.375,-7.497 0,-2.624 -0.75,-4.311 -5.061,-4.311 -4.498,0 -5.81,3.937 -5.81,8.809 0,5.248 0.75,11.621 0.75,21.741 0,14.058 -1.312,30.551 -5.436,33.175 -0.749,0.562 -1.874,0.749 -2.998,0.749 -11.246,0 -34.674,-22.865 -39.922,-34.11 -4.123,-8.81 -4.873,-17.619 -4.873,-22.679 0,-2.062 0.375,-4.123 0.375,-6.372 0,-6.936 -3.748,-8.997 -7.122,-8.997 -3.374,0 -6.372,2.249 -6.372,6.185 0,2.624 1.312,5.436 2.437,7.872 2.061,4.311 -0.188,27.176 4.873,73.47 3.373,30.925 1.686,47.043 8.246,47.043 4.873,0 6.559,-2.436 6.559,-6.747 0,-5.81 -2.81,-15.556 -4.123,-30.175 -1.499,-15.556 -2.811,-31.112 -3.56,-48.168 0,0 25.302,32.987 44.794,32.987 1.686,0 3.374,-0.188 5.06,-0.75 C -1.687,58.664 0.562,38.609 0.562,19.68 0.562,13.308 0,5.436 0,0"
             style="fill:#e77b05;fill-opacity:1;fill-rule:nonzero;stroke:none"
             id="path947" /></g><g
           id="g949"
           transform="translate(1321.1121,144.6914)"><path
             d="m 0,0 c -9.559,-4.873 -15.369,-12.558 -15.369,-12.558 0,0 10.496,0.563 22.116,7.685 C 11.62,-2.062 14.806,0 20.616,5.247 13.682,5.247 6.747,3.561 0,0 M 53.228,-34.299 C 49.104,-36.548 18.93,-64.1 -2.25,-64.1 c -2.998,0 -5.81,0.563 -8.246,1.688 -12.183,5.622 -20.804,20.429 -20.804,34.298 0,2.249 0.188,4.499 0.749,6.748 4.873,21.179 29.051,35.61 48.731,35.61 6.184,0 11.62,-1.312 16.118,-4.31 0.562,-0.375 0.75,-0.75 0.75,-1.313 0,-4.685 -15.931,-16.681 -26.614,-23.053 -11.621,-7.122 -23.053,-8.247 -28.301,-8.622 0,0 -0.563,-2.061 -0.563,-5.434 0,-3.937 0.938,-9.746 5.061,-16.119 3.374,-5.435 6.934,-9.934 15.182,-9.934 14.805,0 43.856,23.803 45.731,26.427 1.124,2.062 3.185,6.934 6.372,6.934 2.812,0 5.623,-2.81 5.623,-5.997 0,-2.624 -1.875,-5.435 -4.311,-7.122"
             style="fill:#e77b05;fill-opacity:1;fill-rule:nonzero;stroke:none"
             id="path951" /></g><g
           id="g953"
           transform="translate(1487.3533,88.0889)"><path
             d="m 0,0 c -3.562,-1.312 -8.997,-5.435 -22.679,-5.81 h -1.125 c -19.491,0 -44.231,11.996 -70.283,34.298 0,0 -2.061,-9.371 -2.061,-25.489 v -3.561 c 0.187,-5.81 2.436,-11.246 2.436,-14.994 0,-2.999 -1.5,-4.873 -7.122,-4.873 -3.937,0 -5.248,6.747 -5.248,19.305 0,2.811 0,5.81 0.187,8.996 1.687,54.353 14.807,104.021 17.805,105.332 0.938,0.375 2.062,0.75 2.999,0.75 2.624,0 4.686,-1.874 5.623,-5.623 0.188,-0.562 0.188,-1.124 0.188,-1.686 0,-4.124 -4.312,-6.56 -8.622,-30.364 -1.874,-10.495 -3.186,-16.68 -4.311,-25.302 0,0 55.665,17.431 72.533,19.118 1.874,0 3.373,-1.874 3.373,-3.936 0,-1.5 -0.749,-3.186 -2.436,-4.311 -3.561,-2.249 -29.425,-3.748 -73.095,-21.928 0,0 14.432,-16.681 45.732,-30.738 9.933,-4.498 18.179,-5.997 24.552,-5.997 11.808,0 17.805,5.248 18.742,6.934 0.937,1.499 3.186,2.624 5.249,2.624 2.623,0 5.247,-1.499 5.622,-5.623 C 8.059,3.562 3.936,1.5 0,0"
             style="fill:#e77b05;fill-opacity:1;fill-rule:nonzero;stroke:none"
             id="path955" /></g><g
           id="g957"
           transform="translate(1510.5906,144.6914)"><path
             d="m 0,0 c -9.559,-4.873 -15.369,-12.558 -15.369,-12.558 0,0 10.496,0.563 22.116,7.685 C 11.62,-2.062 14.806,0 20.616,5.247 13.682,5.247 6.747,3.561 0,0 M 53.228,-34.299 C 49.104,-36.548 18.93,-64.1 -2.25,-64.1 c -2.998,0 -5.81,0.563 -8.246,1.688 -12.183,5.622 -20.804,20.429 -20.804,34.298 0,2.249 0.188,4.499 0.749,6.748 4.873,21.179 29.051,35.61 48.731,35.61 6.184,0 11.62,-1.312 16.118,-4.31 0.562,-0.375 0.75,-0.75 0.75,-1.313 0,-4.685 -15.931,-16.681 -26.614,-23.053 -11.621,-7.122 -23.053,-8.247 -28.301,-8.622 0,0 -0.563,-2.061 -0.563,-5.434 0,-3.937 0.938,-9.746 5.061,-16.119 3.374,-5.435 6.934,-9.934 15.182,-9.934 14.805,0 43.856,23.803 45.731,26.427 1.124,2.062 3.185,6.934 6.372,6.934 2.812,0 5.623,-2.81 5.623,-5.997 0,-2.624 -1.875,-5.435 -4.311,-7.122"
             style="fill:#e77b05;fill-opacity:1;fill-rule:nonzero;stroke:none"
             id="path959" /></g></g></g></g></svg>
