<svg width="95" height="19" viewBox="0 0 95 19" fill="none" xmlns="http://www.w3.org/2000/svg">
<path fill-rule="evenodd" clip-rule="evenodd" d="M26.111 9.12265C26.097 8.89565 26.069 8.56966 26.069 8.56966V8.55565C26.104 8.57666 26.1355 8.60142 26.167 8.62618C26.1985 8.65092 26.23 8.67566 26.265 8.69666C29.442 11.0787 31.943 13.7587 32.52 15.5157C32.744 16.1967 32.787 16.7927 32.562 17.2457C32.337 17.7137 31.817 18.0397 31.128 18.2816C28.036 19.3297 21.037 17.6427 14.376 14.3117C14.305 14.2687 14.179 14.2117 14.179 14.2117L13.926 14.0847C14.319 15.5027 15.471 17.1467 16.751 18.1387L16.975 18.3237H16.905L16.723 18.3096C12.591 17.8697 9.70996 14.5377 9.09096 11.2917C4.87497 8.49865 1.54396 5.35166 0.784962 3.05465C0.545963 2.35965 0.545963 1.76466 0.784962 1.29566C1.00997 0.842653 1.45996 0.502657 2.11995 0.275652C3.79296 -0.29135 7.79796 -0.079344 13.265 1.82066C14.6391 0.997965 16.2177 0.580255 17.819 0.615656C18.0439 0.618257 18.2687 0.627924 18.493 0.644655C18.5006 0.644655 18.5915 0.651903 18.6809 0.659021C18.7672 0.665895 18.8521 0.672655 18.859 0.672655C18.8479 0.678194 18.8169 0.688265 18.7723 0.702806C18.704 0.725038 18.6036 0.75773 18.493 0.800653C15.669 1.97666 12.97 7.35066 13.462 10.9367C13.462 10.9517 13.49 11.0927 13.49 11.0927C13.49 11.1077 13.378 11.0647 13.378 11.0647C11.298 10.0156 9.21796 8.12966 9.37195 6.68366V6.66965C9.87796 5.09565 10.96 3.50865 12.506 2.34565C9.23195 1.36765 5.90097 0.885652 4.15796 1.56565C3.67997 1.75065 3.32796 2.01966 3.11795 2.38865C2.56997 3.35266 3.14597 4.95465 5.23996 7.00965C7.50296 9.22165 10.833 11.4757 14.643 13.3757C19.969 16.0407 26.491 17.8417 29.231 16.9057C29.751 16.7207 30.144 16.4377 30.341 16.0407C30.51 15.7007 30.538 15.3037 30.44 14.8647C30.088 13.2767 28.064 11.1357 26.153 9.54765L26.111 9.51966V9.12265ZM35.302 5.36569V5.1527L35.316 5.1667C35.316 2.2467 37.706 0.913698 39.926 0.913698C42.555 0.913698 44.255 2.61469 44.255 5.2377V6.3297H40.896V5.2517C40.896 4.7417 40.713 3.7497 39.912 3.7497C39.055 3.7497 38.886 4.5997 38.886 5.0817V5.1667C38.886 6.0457 39.603 6.72669 40.503 7.44969L41.023 7.8757L41.303 8.11569C43.116 9.61869 44.255 10.5967 44.255 13.1347V13.2767C44.255 15.8847 42.54 17.4447 39.659 17.4447C36.975 17.4447 35.162 15.7287 35.162 13.1767V12.1287H38.619V13.3187C38.619 14.3117 39.167 14.7937 39.673 14.7937C40.179 14.7937 40.685 14.5377 40.685 13.3897V13.3327C40.685 12.5257 39.954 11.5327 38.69 10.5257L38.31 10.2287C36.876 9.1087 35.302 7.8457 35.302 5.36569ZM53.404 3.9617V1.2117H61.781V3.9617H59.546V17.1187H56.018V3.9617H53.404ZM68.133 13.2767V1.2117L71.661 1.21269V13.6587C71.661 15.9417 69.861 17.4157 67.121 17.4157C64.381 17.4157 62.596 15.9417 62.596 13.6587V1.2117H66.109V13.2767C66.109 14.1697 66.517 14.6517 67.121 14.6517C67.473 14.6517 68.133 14.4817 68.133 13.2767ZM91.168 12.6097L90.985 1.2117L94.4 1.21269V17.1317H89.819L87.092 5.6917H87.008L87.289 17.1317H83.775V1.2117H88.399L91.084 12.6097H91.168ZM44.479 17.1317L47.389 1.2117H52.055L54.964 17.1317H51.339L49.849 4.81169H49.679L48.119 17.1317H44.479ZM77.198 9.2777V9.0377L77.226 9.0237L77.521 8.9667H77.535C78.069 8.8677 78.758 8.3277 78.828 6.7977V6.0177C78.8 5.1107 78.533 3.8057 77.24 3.8057H76.678V17.1187H73.207V1.2117H77.732C79.039 1.19769 80.121 1.6087 80.936 2.3887C81.822 3.2247 82.286 4.4297 82.286 5.8757V6.1457C82.286 7.9037 81.724 9.3207 80.754 10.1007L80.669 10.1577V10.1997L82.792 17.1177H79.18L77.198 9.2777Z" fill="#050505"/>
</svg>
