<svg xmlns="http://www.w3.org/2000/svg" version="1.1" viewBox="0 0 180 70"><g fill="none" fill-rule="nonzero" stroke="none" stroke-width="1"><path fill="#005091" d="M8.29351536 6.55801403C11.334471 7.22288181 12.0716724 9.00593632 12.0716724 10.6681058 12.0716724 13.2369131 10.105802 15.1710739 6.11262799 15.1710739 1.90443686 15.1710739.0307167235 13.1160281.0307167235 11.5445224.0307167235 10.7587696.614334471 10.1845656 1.41296928 10.1845656 3.19453925 10.1845656 2.7337884 12.7533729 6.08191126 12.7533729 7.80204778 12.7533729 8.75426621 11.8165138 8.75426621 10.8796546 8.75426621 10.3054506 8.4778157 9.6708041 7.34129693 9.39881274L3.62457338 8.46195359C.614334471 7.70642202.0614334471 6.07447383.0614334471 4.56341069.0614334471 1.39017809 3.04095563.21154884 5.83617747.21154884 8.41638225.21154884 11.4573379 1.63194819 11.4573379 3.53588775 11.4573379 4.35186185 10.7508532 4.83540205 9.95221843 4.83540205 8.41638225 4.83540205 8.69283276 2.71991365 5.62116041 2.71991365 4.08532423 2.71991365 3.2559727 3.4150027 3.2559727 4.41230437 3.2559727 5.40960604 4.45392491 5.71181867 5.52901024 5.95358877L8.29351536 6.55801403ZM14.7440273 1.90393956C14.7440273.936859147 15.3890785.271991365 16.4027304.271991365 17.4163823.271991365 18.0614334.936859147 18.0614334 1.90393956L18.0614334 5.95358877 24.0819113 5.95358877 24.0819113 1.90393956C24.0819113.936859147 24.7269625.271991365 25.7406143.271991365 26.7542662.271991365 27.3993174.936859147 27.3993174 1.90393956L27.3993174 13.448462C27.3993174 14.4155424 26.7542662 15.0804101 25.7406143 15.0804101 24.7269625 15.0804101 24.0819113 14.4155424 24.0819113 13.448462L24.0819113 8.67350243 18.0614334 8.67350243 18.0614334 13.448462C18.0614334 14.4155424 17.4163823 15.0804101 16.4027304 15.0804101 15.3890785 15.0804101 14.7440273 14.4155424 14.7440273 13.448462L14.7440273 1.90393956ZM37.3822526.21154884C42.1433447.21154884 44.7235495 3.32433891 44.7235495 7.52509444 44.7235495 11.5445224 42.3583618 15.2012952 37.3822526 15.2012952 32.1911263 15.2012952 30.0409556 11.8769563 30.0409556 7.52509444 30.0409556 3.32433891 32.6211604.21154884 37.3822526.21154884ZM37.3822526 12.5418241C40.3924915 12.5418241 41.4061433 10.2450081 41.4061433 7.49487318 41.4061433 4.74473826 40.0853242 2.81057744 37.3822526 2.81057744 34.6791809 2.81057744 33.3583618 4.74473826 33.3583618 7.49487318 33.3583618 10.2450081 34.2798635 12.5418241 37.3822526 12.5418241ZM47.3959044 2.44792229C47.3959044.997301673 48.1638225.543982731 49.331058.543982731L54.3993174.543982731C57.1945392.543982731 59.4368601 1.90393956 59.4368601 5.07717215 59.4368601 7.67620076 57.5938567 9.61036158 54.3993174 9.61036158L50.7133106 9.61036158 50.7133106 13.4786832C50.7133106 14.4457636 50.0682594 15.1106314 49.0546075 15.1106314 48.0409556 15.1106314 47.3959044 14.4457636 47.3959044 13.4786832L47.3959044 2.44792229ZM50.7133106 7.10199676 53.7849829 7.10199676C55.105802 7.10199676 56.1194539 6.31624393 56.1194539 5.07717215 56.1194539 3.6567728 55.105802 3.05234754 53.447099 3.05234754L50.7133106 3.05234754 50.7133106 7.10199676ZM69.4505119 1.26929304C69.7269625.543982731 70.2491468.271991365 71.0784983.271991365L71.8771331.271991365C72.6143345.271991365 73.2901024.453318942 73.6587031 1.45062062L77.6518771 12.3907178C77.774744 12.7231516 77.9897611 13.2973556 77.9897611 13.6297895 77.9897611 14.4155424 77.2832765 15.0501889 76.4232082 15.0501889 75.6860068 15.0501889 75.1638225 14.7781975 74.9180887 14.143551L74.0580205 11.7560712 68.7440273 11.7560712 67.883959 14.143551C67.668942 14.7781975 67.2081911 15.0501889 66.4095563 15.0501889 65.4880546 15.0501889 64.8737201 14.5062062 64.8737201 13.6297895 64.8737201 13.2671344 65.0887372 12.6929304 65.2116041 12.3907178L69.4505119 1.26929304ZM71.447099 3.80787911 71.4163823 3.80787911 69.4505119 9.54991905 73.3208191 9.54991905 71.447099 3.80787911ZM79.894198 2.44792229C79.894198.997301673 80.662116.543982731 81.8293515.543982731L86.8976109.543982731C89.6928328.543982731 91.9351536 1.90393956 91.9351536 5.07717215 91.9351536 7.67620076 90.0921502 9.61036158 86.8976109 9.61036158L83.2116041 9.61036158 83.2116041 13.4786832C83.2116041 14.4457636 82.5665529 15.1106314 81.552901 15.1106314 80.5392491 15.1106314 79.894198 14.4457636 79.894198 13.4786832L79.894198 2.44792229 79.894198 2.44792229ZM83.2116041 7.10199676 86.2832765 7.10199676C87.6040956 7.10199676 88.6177474 6.31624393 88.6177474 5.07717215 88.6177474 3.6567728 87.6040956 3.05234754 85.9453925 3.05234754L83.2116041 3.05234754 83.2116041 7.10199676 83.2116041 7.10199676ZM101.027304.21154884C105.788396.21154884 108.368601 3.32433891 108.368601 7.52509444 108.368601 11.5445224 106.003413 15.2012952 101.027304 15.2012952 95.8361775 15.2012952 93.6860068 11.8769563 93.6860068 7.52509444 93.6860068 3.32433891 96.2662116.21154884 101.027304.21154884ZM101.027304 12.5418241C104.037543 12.5418241 105.051195 10.2450081 105.051195 7.49487318 105.051195 4.74473826 103.730375 2.81057744 101.027304 2.81057744 98.3242321 2.81057744 97.003413 4.74473826 97.003413 7.49487318 97.003413 10.2450081 97.9249147 12.5418241 101.027304 12.5418241ZM114.081911 3.29411765 110.948805 3.29411765C109.996587 3.29411765 109.228669 2.81057744 109.228669 1.93416082 109.228669 1.02752294 109.996587.574203994 110.948805.574203994L120.501706.574203994C121.453925.574203994 122.221843 1.0577442 122.221843 1.93416082 122.221843 2.8407987 121.453925 3.29411765 120.501706 3.29411765L117.368601 3.29411765 117.368601 13.4786832C117.368601 14.4457636 116.723549 15.1106314 115.709898 15.1106314 114.696246 15.1106314 114.051195 14.4457636 114.051195 13.4786832L114.051195 3.29411765 114.081911 3.29411765ZM124.249147 1.90393956C124.249147.936859147 124.894198.271991365 125.90785.271991365 126.921502.271991365 127.566553.936859147 127.566553 1.90393956L127.566553 5.95358877 133.587031 5.95358877 133.587031 1.90393956C133.587031.936859147 134.232082.271991365 135.245734.271991365 136.259386.271991365 136.904437.936859147 136.904437 1.90393956L136.904437 13.448462C136.904437 14.4155424 136.259386 15.0804101 135.245734 15.0804101 134.232082 15.0804101 133.587031 14.4155424 133.587031 13.448462L133.587031 8.67350243 127.566553 8.67350243 127.566553 13.448462C127.566553 14.4155424 126.921502 15.0804101 125.90785 15.0804101 124.894198 15.0804101 124.249147 14.4155424 124.249147 13.448462L124.249147 1.90393956ZM140.283276 2.44792229C140.283276.997301673 141.051195.543982731 142.21843.543982731L149.989761.543982731C150.972696.543982731 151.679181.815974096 151.679181 1.84349703 151.679181 2.87101997 150.972696 3.14301133 149.989761 3.14301133L143.600683 3.14301133 143.600683 6.22558014 149.221843 6.22558014C150.081911 6.22558014 150.788396 6.46735024 150.788396 7.46465192 150.788396 8.46195359 150.112628 8.70372369 149.221843 8.70372369L143.600683 8.70372369 143.600683 12.1489477 150.143345 12.1489477C151.12628 12.1489477 151.832765 12.420939 151.832765 13.448462 151.832765 14.4759849 151.12628 14.7479763 150.143345 14.7479763L142.21843 14.7479763C141.051195 14.7479763 140.283276 14.2946573 140.283276 12.8440367L140.283276 2.44792229ZM154.259386 1.90393956C154.259386.936859147 154.904437.271991365 155.918089.271991365 156.931741.271991365 157.576792.936859147 157.576792 1.90393956L157.576792 6.64867782 162.767918.997301673C163.136519.604425256 163.505119.271991365 164.088737.271991365 164.887372.271991365 165.65529.75553157 165.65529 1.57150567 165.65529 2.05504587 165.37884 2.41770103 165.102389 2.68969239L161.723549 6.19535888 165.74744 12.2093902C166.054608 12.6627091 166.361775 13.0858068 166.361775 13.5089045 166.361775 14.717755 165.440273 15.0804101 164.672355 15.0804101 163.996587 15.0804101 163.658703 14.9293038 163.197952 14.2342148L159.389078 8.43173233 157.576792 10.2147868 157.576792 13.448462C157.576792 14.4155424 156.931741 15.0804101 155.918089 15.0804101 154.904437 15.0804101 154.259386 14.4155424 154.259386 13.448462L154.259386 1.90393956 154.259386 1.90393956ZM168.389078 2.44792229C168.389078.997301673 169.156997.543982731 170.324232.543982731L178.095563.543982731C179.078498.543982731 179.784983.815974096 179.784983 1.84349703 179.784983 2.87101997 179.078498 3.14301133 178.095563 3.14301133L171.706485 3.14301133 171.706485 6.22558014 177.327645 6.22558014C178.187713 6.22558014 178.894198 6.46735024 178.894198 7.46465192 178.894198 8.46195359 178.21843 8.70372369 177.327645 8.70372369L171.706485 8.70372369 171.706485 12.1489477 178.249147 12.1489477C179.232082 12.1489477 179.938567 12.420939 179.938567 13.448462 179.938567 14.4759849 179.232082 14.7479763 178.249147 14.7479763L170.324232 14.7479763C169.156997 14.7479763 168.389078 14.2946573 168.389078 12.8440367L168.389078 2.44792229Z" transform="translate(0 54.587)"/><path fill="#E30511" d="M74.4896048 31.2185645C75.6261472 31.7625472 77.0084285 31.279007 77.5306237 30.1608203 78.0835362 29.0426336 77.5920584 27.6826767 76.455516 27.1689153 75.3189736 26.6249325 73.9674096 27.1084727 73.4144971 28.2266595 72.8923019 29.3448462 73.3530624 30.6745818 74.4896048 31.2185645M31.1781232 34.7846735C32.9597303 35.6308689 35.1099457 34.8753373 35.9393145 33.122504 36.7994006 31.3696708 36.0314666 29.2541824 34.2498595 28.4382083 32.4682525 27.592013 30.3487544 28.3475445 29.4886683 30.1003778 28.6592995 31.8229897 29.3965162 33.9384781 31.1781232 34.7846735M36.2772055 23.3308149C37.8745083 24.0863465 39.8097022 23.4214787 40.5776363 21.849973 41.3455703 20.2784674 40.6697883 18.3745278 39.0724855 17.6189962 37.4751826 16.8634647 35.5399888 17.5283324 34.7720547 19.0998381 34.0041206 20.6713438 34.6799026 22.5752833 36.2772055 23.3308149M62.9705937 32.1856449C64.5678966 32.9411765 66.4723731 32.2763087 67.2403072 30.704803 68.0082412 29.1332974 67.3324593 27.2595791 65.7351564 26.5040475 64.1378535 25.7485159 62.233377 26.4133837 61.465443 27.9848894 60.7282263 29.5866163 61.3732909 31.4603346 62.9705937 32.1856449M47.7962165 31.4301133C50.8065181 32.8505127 54.4311669 31.6114409 55.8748829 28.6195359 57.318599 25.6276309 56.0591871 22.0917431 53.0181682 20.6411225 50.0078666 19.2207232 46.3525005 20.4597949 44.9087844 23.4516999 43.4957857 26.443605 44.785915 30.009714 47.7962165 31.4301133M1.38228133 35.6913114C2.51882375 36.2352941 3.90110508 35.7517539 4.42330024 34.6335672 4.97621277 33.5153805 4.48473497 32.1554236 3.34819255 31.6416622 2.21165012 31.0976794.860086158 31.5812196.307173628 32.6994064-.245738902 33.8175931.245738902 35.1473287 1.38228133 35.6913114M58.9159019 19.9158122C60.1753137 20.5202375 61.7111819 19.9762547 62.3255291 18.7371829 62.9398764 17.4981112 62.3869639 15.987048 61.127552 15.3826228 59.8681401 14.7781975 58.332272 15.3221802 57.7179247 16.561252 57.1035774 17.8305451 57.6257726 19.3113869 58.9159019 19.9158122M57.4414684 45.5132218C59.9910096 46.7220723 63.0627458 45.6643281 64.2914403 43.125742 65.5201349 40.6173772 64.4450272 37.5952509 61.8647687 36.3864004 59.3152276 35.1775499 56.2434913 36.2352941 55.0147968 38.7738802 53.8168196 41.282245 54.8919273 44.3043713 57.4414684 45.5132218M42.4821128 40.7987048C44.5094587 41.7657852 46.905413 40.9195899 47.8883686 38.9249865 48.8406069 36.9303832 48.0112381 34.5731247 45.9838921 33.6060443 43.9565462 32.6389638 41.5605919 33.4851592 40.5776363 35.4797625 39.625398 37.4743659 40.4854842 39.8618457 42.4821128 40.7987048M19.1061997 35.41932C20.7649373 36.2050729 22.7615658 35.5099838 23.5602173 33.8780356 24.3588687 32.2460874 23.6523694 30.2817053 21.9936318 29.4959525 20.3348942 28.7101997 18.3382656 29.4052887 17.5396142 31.0372369 16.7409627 32.6691851 17.4474621 34.6335672 19.1061997 35.41932M85.5478554 34.6637885C88.0973965 35.872639 91.1691328 34.7846735 92.3978273 32.2763087 93.6265218 29.7679439 92.5514141 26.7458176 90.001873 25.5369671 87.4523319 24.3281166 84.3805956 25.3858608 83.1519011 27.9244468 81.9232066 30.4630329 82.9983143 33.4851592 85.5478554 34.6637885M73.5680839 42.430653C75.5954299 43.3675121 77.9913842 42.551538 78.9743398 40.5569347 79.9572954 38.5623314 79.0972092 36.2050729 77.0698633 35.2379924 75.0425173 34.270912 72.646563 35.1171074 71.6636074 37.1117107 70.6806518 39.0760928 71.540738 41.4635726 73.5680839 42.430653M70.9571081 23.6330275C73.9059749 25.0232056 77.4384716 23.7841338 78.8207529 20.9131139 80.2337516 18.0118726 79.0050571 14.5666487 76.0561903 13.1764706 73.1073235 11.7862925 69.5748267 12.995143 68.1925454 15.8963842 66.7795467 18.7674042 68.0082412 22.2428494 70.9571081 23.6330275M8.60086158 31.0372369C10.6282075 32.0043173 13.0241618 31.158122 14.0071174 29.1635186 14.9593557 27.1689153 14.1299869 24.8116568 12.1026409 23.8445764 10.075295 22.877496 7.64862334 23.7236913 6.69638509 25.7182947 5.71342948 27.712898 6.57351564 30.0701565 8.60086158 31.0372369M21.4100019 25.5974096C23.9902603 26.8062601 27.0312793 25.7485159 28.2599738 23.2099298 29.4886683 20.701565 28.4135606 17.6794387 25.8333021 16.4705882 23.2530436 15.2617377 20.1813074 16.3194819 18.9833302 18.858068 17.7546357 21.3664328 18.8604608 24.3885591 21.4100019 25.5974096M89.0496348 20.9131139C94.5787601 23.5121425 101.21371 21.2153265 103.855404 15.7754992 106.497097 10.3356719 104.162577 3.80787911 98.633452 1.17862925 93.1043267-1.42039935 86.4693763.876416622 83.7969657 6.31624393 81.1859899 11.7560712 83.5205095 18.3140853 89.0496348 20.9131139" transform="translate(37.153)"/></g></svg>