<svg width="574" height="268" viewBox="0 0 574 268" fill="none" xmlns="http://www.w3.org/2000/svg">
<path fill-rule="evenodd" clip-rule="evenodd" d="M48.2 0H525.4C551.9 0 573.6 21.7 573.6 48.2V219.2C573.6 245.7 551.9 267.4 525.4 267.4H82.3H48.2H0V219.2V178.2V48.2C0 21.7 21.7 0 48.2 0ZM212.3 108.8C212.3 125.6 198.7 140.6 181.8 140.6C164.8 140.6 151.3 125.6 151.3 108.8C151.3 91.8 164.8 77 181.8 77C198.7 77 212.3 91.8 212.3 108.8ZM228.7 153.4V64.2H211.3V69.6C211.3 71.8 211.7 75.9 211.7 75.9H210.8C204.3 68.3 195.7 61.3 181.9 61.3C155.2 61.3 134.2 81.9 134.2 108.8C134.2 135.7 155.2 156.3 181.9 156.3C195.7 156.3 204.4 149 210.8 141.7H211.7C211.7 141.7 211.3 146 211.3 148V153.4H228.7ZM94.4 80.6H122.4L124.5 64.2H44.3V80.6H76.4V153.4H94.4V80.6ZM257.3 64.2H274.5V93C274.5 96.3 273.8 97.7 273.8 97.7H274.5L308.1 64.1H330.1L292.6 101.1L336.6 153.4H314.3L280.4 112.1L274.5 118V153.5H257.3V64.2ZM512.1 108.8C512.1 125.6 498.6 140.6 481.6 140.6C464.6 140.6 451.1 125.6 451.1 108.8C451.1 91.8 464.6 77 481.6 77C498.5 77 512.1 91.8 512.1 108.8ZM529.2 108.8C529.2 81.9 508.2 61.3 481.5 61.3C454.8 61.3 433.8 81.9 433.8 108.8C433.8 135.7 454.8 156.3 481.5 156.3C508.3 156.3 529.2 135.7 529.2 108.8ZM352.3 64.2H369.5V93C369.5 96.3 368.8 97.7 368.8 97.7H369.5L403.1 64.1H425.1L387.6 101.1L431.6 153.4H409.3L375.4 112.1L369.5 118V153.5H352.3V64.2ZM422 218.8H428.3V191.5H428.4L445.2 218.8H453.2V183.5H446.9V210H446.8L430.4 183.5H422V218.8ZM367.4 201C367.4 193.7 372.2 188.1 379.5 188.1C386.8 188.1 391.7 193.7 391.7 201C391.7 208.5 386.8 214 379.5 214C372.3 214 367.4 208.5 367.4 201ZM360.5 201C360.5 212 368.5 219.7 379.4 219.7C390.4 219.7 398.5 212.1 398.5 201C398.5 189.7 390.5 182.5 379.4 182.5C368.6 182.5 360.5 189.7 360.5 201ZM329.5 218.8H335.8V183.5H329.5V218.8ZM272 218.8H278.3V203.1H294.8V218.8H301.1V183.5H294.8V197.8H278.3V183.5H272V218.8ZM244.3 186.3C241.6 183.8 237.6 182.5 234 182.5C227.6 182.5 221.1 185.7 221.1 192.9C221.1 199.5 225.7 201.6 230 202.9L230.272 202.986C234.551 204.346 238.1 205.474 238.1 209C238.1 212.8 234.7 214.2 231.7 214.2C228.9 214.2 225.7 212.7 224 210.3L219.5 214.5C222.3 217.8 227 219.5 231.6 219.5C238.5 219.5 244.5 215.8 244.5 208.2C244.5 201.3 238.7 199.3 234.2 197.9C230.2 196.7 227.5 195.7 227.5 192.5C227.5 189 230.8 187.7 233.7 187.7C236.2 187.7 238.8 189 240.2 190.7L244.3 186.3ZM174.2 205.3L179.7 190.9L185.1 205.3H174.2ZM161.8 218.8H168.8L172 210.7H187.3L190.6 218.8H197.8L182.6 183.5H177.2L161.8 218.8ZM120.4 218.8H126.7V203.9H142.3V198.6H126.7V188.9H143.2V183.4H120.4V218.8Z" fill="black"/>
</svg>
