<svg width="36" height="21" viewBox="0 0 36 21" fill="none" xmlns="http://www.w3.org/2000/svg">
<path fill-rule="evenodd" clip-rule="evenodd" d="M33.6331 10.0348C33.6331 12.2291 31.9227 14.2585 29.1587 15.767C26.2381 17.3602 22.1815 18.3442 17.6804 18.3442H17.6781C13.1771 18.3442 9.11928 17.3602 6.19865 15.767C3.43467 14.2585 1.72546 12.2291 1.7243 10.0348C1.72546 7.84057 3.43467 5.81109 6.19865 4.30262C9.11928 2.71061 13.1759 1.7243 17.677 1.7243H17.6793C22.1815 1.7243 26.2381 2.71061 29.1587 4.30378C31.9227 5.81109 33.6331 7.84057 33.6331 10.0337V10.0348ZM29.9803 2.79415C26.816 1.06753 22.4658 0 17.6793 0H17.677C12.8916 0 8.54142 1.06753 5.37712 2.79415C2.055 4.60548 0 7.16291 0 10.0348C0 12.9067 2.055 15.463 5.37596 17.2755C8.54142 19.0021 12.8928 20.0696 17.6781 20.0696H17.6804C22.4658 20.0696 26.816 19.0021 29.9803 17.2755C33.3024 15.4641 35.3574 12.9067 35.3574 10.0348V10.0337C35.3574 7.16291 33.3024 4.60548 29.9803 2.79415Z" fill="black"/>
<path fill-rule="evenodd" clip-rule="evenodd" d="M14.002 15.3887V8.87675C11.73 9.20745 9.2793 9.92456 9.2793 9.92456V6.10581C12.4506 5.29587 15.3457 4.99534 17.6768 5.01507C19.82 5.03363 23.1027 5.29587 26.274 6.10697V9.92456C26.274 9.92456 23.8233 9.20745 21.5513 8.87675V15.3887H14.002Z" fill="black"/>
</svg>
