<?xml version="1.0" encoding="utf-8"?>
<!-- Generator: Adobe Illustrator 19.0.0, SVG Export Plug-In . SVG Version: 6.00 Build 0)  -->
<svg version="1.1" id="Layer_1" xmlns="http://www.w3.org/2000/svg" xmlns:xlink="http://www.w3.org/1999/xlink" x="0px" y="0px"
	 viewBox="0 0 1896.5 521.1" style="enable-background:new 0 0 1896.5 521.1;" xml:space="preserve">
<g>
	<path d="M0,319.7c2.7-1.8,5.9-3.1,8-5.5c26.5-29,52.9-58.2,79.4-87.3c9.4-10.4,18.9-20.7,28.3-31c1-1.1,2.1-2.2,2.9-3.4
		c2.7-4.2,1.2-7.5-3.6-8.5c-1.6-0.3-3.3-0.3-5-0.3c-31,0-62,0.1-93,0.2c-8.1,0-9.5-1.4-9.5-9.6c0-13.5,0.1-27,0-40.5
		c0-8.4,1.3-9.8,9.8-9.8c64,0,128,0,191.9,0c3.3,0,6.7-0.1,10,0c4,0.2,6.2,2.3,6.2,6.3c0,19.3,0.3,38.7-0.2,58
		c-0.1,3.4-2.1,7.5-4.5,10.2c-32.5,36.2-65.3,72.1-98,108.1c-6.4,7-13,13.9-19.1,21.2c-1.7,2-3.4,5.9-2.5,7.8
		c0.8,1.9,4.8,3.3,7.4,3.3c34.8,0.1,69.6,0,104.5-0.1c12,0,12.5,0.4,12.4,12.2c-0.1,12.8,0,25.7,0,38.5c0,7.6-1.6,9.1-9.1,9.1
		c-68.8,0-137.6,0-206.4-0.1c-3.3,0-6.6-0.5-9.9-0.8C0,371.7,0,345.7,0,319.7z"/>
	<path d="M937.4,322.9c0-63.5,0-127,0-190.4c0-6.9,1.5-8.5,8.6-8.5c22.2,0,44.3,0,66.5,0.1c7.4,0,8.9,1.6,8.4,8.9
		c-0.5,6.6-1,13.3-1.5,19.9c-0.2,2.2-0.7,4.5,0,6.4c0.6,2,2.2,4.7,3.7,5c1.6,0.3,4-1.6,5.5-3.1c1.1-1.1,1.5-2.9,2.2-4.5
		c7.8-19.2,22.5-29.7,42.4-33.3c25.7-4.7,51.1-4,75.9,4.7c22.2,7.8,37.6,22.8,44.6,45.2c3.5,11.2,6.5,23,6.7,34.6
		c0.6,34.8,0.2,69.6-0.6,104.4c-0.3,15.2-4.2,29.9-10.2,44.1c-8.2,19.6-22.7,32.2-42.6,38.7c-23.3,7.6-47.3,8.3-71.2,4
		c-18.7-3.3-33.2-13.4-41.7-31c-1.2-2.5-2.7-5.1-4.6-7.1c-3-3.2-6.8-2.1-7.9,2.1c-0.5,1.7-0.5,3.6-0.5,5.4
		c0,42.8,0.1,85.6,0.2,128.5c0,5.3,0.1,10.7,0.3,16c0.2,7.2-1.4,9-8.5,9c-20.7,0.1-41.3,0-62,0c-2.3,0-4.7,0-7,0
		c-4.5-0.1-6.7-2.3-6.7-6.9c0.1-4.7,0.2-9.3,0.3-14c0-59.5,0-119,0-178.4C937.5,322.9,937.5,322.9,937.4,322.9z M1021.1,260.3
		c0.4,0,0.9,0,1.3,0c0,10.5-0.4,21,0.1,31.4c0.3,5.7,1.7,11.5,3.2,17.1c4.6,16.3,16.3,24.2,32.4,26c5.8,0.6,11.7,0.5,17.5,0.2
		c22.3-0.9,33.8-10.8,38.5-32.6c4.2-19.6,3.6-39.4,3.1-59.2c-0.2-9.8-1.5-19.6-3.5-29.2c-2.8-14-12.3-22.3-26-25.2
		c-12.5-2.6-25.2-2.9-37.7-0.4c-11.2,2.2-19.1,8.8-22.9,19.5c-2.2,6.2-3.7,12.8-4.3,19.4C1021.8,238.3,1021.7,249.3,1021.1,260.3z"
		/>
	<path d="M1763.2,119.6c19.6,1.4,39.3,1.9,58.7,4.6c11.2,1.5,22.4,5.5,32.6,10.4c15.7,7.5,24.8,20.9,27.6,38.1
		c1,6.4,1,12.9,1.4,19.4c0.2,4.8-2.3,7.1-7,7.1c-21.7,0-43.3,0-65,0c-4.1,0-7-1.7-8.5-5.6c-4.6-12-14.2-17.1-26.1-17.7
		c-11.6-0.5-23.3,0.3-35,0.6c-1.2,0-2.3,0.3-3.5,0.5c-17.3,3.5-24.5,17.7-17.3,33.9c2.7,6,7.6,9.5,13.5,10.9
		c7.2,1.8,14.7,3.1,22.1,3.6c16.5,1.1,33,0.8,49.4,2.4c15,1.4,30.1,3.7,44.8,7c23.3,5.2,37.3,20.5,42.1,43.8c4.7,23,5,46-2.8,68.6
		c-7.4,21.4-22.2,35.1-42.9,43.1c-14.3,5.5-29.1,8.5-44.3,9.6c-31.5,2.3-63,2.8-94.4-0.8c-10.1-1.1-20.3-4.1-29.9-7.6
		c-19.8-7.1-31.1-22.4-36.3-42.2c-2.2-8.3-3.2-17-4.2-25.6c-0.8-6.7,0.9-8.6,7.6-8.6c22.8-0.1,45.7,0,68.5-0.1
		c5.1,0,7.5,2.1,8.5,7.1c2.3,12.2,9.5,20.2,21.8,22.5c18.5,3.5,37.1,3.2,55.6-0.8c8.2-1.8,12.8-7.4,14-15.7c0.3-1.8,0.5-3.6,0.5-5.5
		c1.1-20.4-7.6-30.2-27.9-31.4c-25.1-1.4-50.3-1.7-75.3-4.3c-13.2-1.3-26.5-5.3-39-10c-17-6.4-27.4-19.5-31.2-37.5
		c-5.3-25.3-4.6-50.4,4.2-74.9c6.9-19.1,21.1-30.6,40.2-36.6c22-6.9,44.7-7,67.3-7.6c3.3-0.1,6.7,0,10,0
		C1763.1,120.3,1763.1,119.9,1763.2,119.6z"/>
	<path d="M1604.9,260.9c0,42.8,0,85.7,0,128.5c0,7.5-1.6,9.1-9.1,9.1c-21,0-42,0-63,0c-7.6,0-9.1-1.5-8.6-9.2
		c0.6-10.5,1.4-20.9,2.1-31.4c0.1-1.8,0.5-3.8-0.1-5.4c-0.6-1.7-2-4.2-3.2-4.3c-1.7-0.2-4,1.1-5.2,2.5c-1.4,1.7-2.1,4.1-2.9,6.3
		c-9.8,25.3-28.7,39.1-55,43c-23.6,3.4-46.9,2.2-68.9-8.5c-16.7-8.1-27.1-21.6-33.1-38.9c-4.5-12.8-5.8-26-5.9-39.4
		c-0.1-60.2-0.1-120.3-0.2-180.5c0-7,1.6-8.7,8.4-8.7c22.2-0.1,44.3,0,66.5,0c7.2,0,8.8,1.7,8.8,8.9c0,52.2-0.2,104.3,0,156.5
		c0,8.6,1.2,17.3,3.2,25.7c2.4,10.2,9.6,17.1,19.8,19.1c18.2,3.5,35.2,0,49.6-12.5c9.3-8.1,13-18.7,13-30.8c0-27.8,0-55.7,0-83.5
		c0-24.8,0-49.7-0.1-74.5c0-7.3,1.5-8.9,8.7-8.9c22.2,0,44.3,0,66.5,0c7,0,8.6,1.6,8.6,8.5C1604.9,175.3,1604.9,218.1,1604.9,260.9z
		"/>
	<path d="M1234.7,199.7c0-63.2,0-126.3,0-189.5c0-7.5,1.5-9.1,9.1-9.1c21.5,0,43,0,64.5,0c9.1,0,10.4,1.5,10.1,10.5
		c-0.1,3.5-0.2,7-0.2,10.5c0,122.3,0,244.6,0.1,367c0,8.2-1.4,9.4-9.7,9.4c-21-0.1-42-0.1-63,0c-9.8,0-10.8-0.8-10.8-10.8
		c0-62.7,0-125.3,0-188C1234.8,199.7,1234.7,199.7,1234.7,199.7z"/>
	<path d="M912,265.3c-0.2,91.6-74.9,165.6-167,165.3c-91.3-0.3-165.2-75.1-165-166.9c0.3-91.4,75-165.3,166.8-165.1
		C838.2,98.9,912.2,173.6,912,265.3z M897,264.7c0-83-67.6-150.9-150.4-151.1C662.9,113.5,595,181.2,595,264.6
		c0,83.3,67.7,151,150.9,151.1C829.2,415.7,897,348,897,264.7z"/>
	<path d="M398.1,430.7c-91.6,0-166-74.2-166.1-165.8C231.9,173,306.3,98.6,398.2,98.7c91.6,0,165.8,74.4,165.8,166
		C564,356.3,489.7,430.6,398.1,430.7z M549,264.9c0.1-83.1-67.4-151.1-150.2-151.3C315.1,113.5,247.1,181,247,264.4
		c-0.1,83.3,67.6,151.2,150.7,151.3C481,415.7,548.9,348.1,549,264.9z"/>
	<path d="M835,264.6c0,49.1-39.9,89-89,89c-49.1,0-89-39.9-89-89c0-49.1,39.9-89,89-89C795.1,175.7,835,215.5,835,264.6z"/>
	<path d="M487,264.8c0,49.1-40,88.9-89.1,88.9c-49.1,0-88.9-40-88.9-89.1c0-49.1,40-88.9,89.1-88.9C447.2,175.7,487,215.6,487,264.8
		z"/>
</g>
</svg>
