<?xml version="1.0" encoding="utf-8"?>
<!-- Generator: Adobe Illustrator 21.1.0, SVG Export Plug-In . SVG Version: 6.00 Build 0)  -->
<svg version="1.1" id="Ebene_1" xmlns="http://www.w3.org/2000/svg" xmlns:xlink="http://www.w3.org/1999/xlink" x="0px" y="0px"
	 viewBox="0 0 453.5 155.9" style="enable-background:new 0 0 453.5 155.9;" xml:space="preserve">
<style type="text/css">
	.st0{fill:#FFFFFF;}
</style>
<g>
	<path class="st0" d="M139.5,102.8c0-6.8-0.9-11.2-2.6-13.4c-1.3-1.7-3.3-2.6-5.7-2.6c-3.1,0-5.7,2-6.8,5.1
		c-0.9,2.7-1.4,6.2-1.4,11.2c0,5.8,0.6,10.1,1.7,12.7c1.2,2.7,4.1,4.1,6.7,4.1C137,119.8,139.5,114.7,139.5,102.8 M153.8,102.9
		c0,8.6-2,14.5-6.3,19.4c-3.8,4.3-8.8,7-16.6,7c-13.6,0-22.6-10.2-22.6-26s9-26.3,22.6-26.3c7.2,0,12.8,2.5,17.1,7.6
		C152,89.3,153.8,94.8,153.8,102.9 M88.4,102.8c0-6.8-0.9-11.2-2.7-13.4c-1.3-1.7-3.3-2.6-5.7-2.6c-3.1,0-5.7,2-6.8,5.1
		c-0.9,2.7-1.4,6.2-1.4,11.2c0,5.8,0.6,10.1,1.7,12.7c1.2,2.7,4.1,4.1,6.7,4.1C86,119.8,88.4,114.7,88.4,102.8 M97,84.6
		c4,4.7,5.8,10.2,5.8,18.4c0,8.6-2,14.5-6.3,19.4c-3.8,4.3-8.8,7-16.6,7c-13.6,0-22.6-10.2-22.6-26s9-26.3,22.6-26.3
		C87.1,77,92.6,79.5,97,84.6 M29.9,117.1h23l-3.5,11.2H6.8v-9.6l25.1-41.5c1.7-2.8,3.7-5.6,4.2-6.2c-0.6,0.1-3.3,0.5-7,0.5h-21
		l3-11.4H52V70l-25.3,42.7c-1.3,2.2-3.1,4.3-3.5,4.8C24,117.3,27.5,117.1,29.9,117.1"/>
	<path class="st0" d="M382.5,120.2c-0.7,0.2-1,0.2-1.5,0.2c-1.1,0-2.2-0.5-2.6-1.4c-0.8-1.4-0.9-2.6-0.9-11.2V68.7
		c0-7.1-0.2-10.3-0.7-13.1l-13.4,3c0.5,4.5,0.7,8.5,0.7,15.1v37.5c0,7.2,0.2,8.7,1.2,11.3c1.6,4.2,6.1,6.9,11.7,6.9
		c2.8,0,5.6-0.5,7.9-1.4L382.5,120.2z M339.7,106.3h-0.6c-9.1,0-12.3,1.7-12.3,7.7c0,3.9,2.5,6.6,5.8,6.6c2.5,0,4.9-1.3,6.9-3.4
		L339.7,106.3z M357.3,122.8l-7,8c-3-1.3-5.8-3.5-7.1-6.1c-1,1-2.1,2-3,2.6c-2.5,1.8-6,2.7-10.1,2.7c-11.2,0-17.3-5.7-17.3-15.7
		c0-11.8,8.1-17.3,24.1-17.3c1,0,1.9,0,2.9,0.1V95c0-5.6-1.1-7.5-5.9-7.5c-4.2,0-9.1,2.1-14.5,5.7l-5.6-9.4c2.7-1.7,4.6-2.7,8.1-4.1
		c4.9-2.1,9.1-2.9,13.7-2.9c8.4,0,14.2,3.1,16.2,8.7c0.7,2.1,1,3.6,0.9,9l-0.3,16.9C352.4,117.1,352.8,119.4,357.3,122.8 M289,101.9
		c-0.8,2.4-1.6,5.3-2,7c-0.6,2.5-1.6,7.8-1.6,8l-2.6-10.4l-8.7-29.3l-13.4,1.6l18,53.7c0,0,0.3-0.5-0.9,1.6c-1.1,1.7-2.3,3-3.7,4.1
		c-2,1.4-5.3,2.5-8.1,3.3l4.5,8.6c4.5-0.6,8.8-2.2,12.2-4.6c3.6-2.6,6.2-6.9,9.6-16.6l18.3-51h-13.8L289,101.9z M245.4,102.8
		c0-6.8-0.9-11.2-2.6-13.5c-1.3-1.7-3.3-2.6-5.7-2.6c-3.1,0-5.7,2-6.8,5.1c-0.9,2.7-1.4,6.2-1.4,11.2c0,5.8,0.6,10.1,1.7,12.7
		c1.2,2.7,4.1,4.1,6.7,4.1C242.9,119.8,245.4,114.7,245.4,102.8 M253.9,84.6c4,4.7,5.8,10.2,5.8,18.4c0,8.6-2,14.5-6.3,19.4
		c-3.8,4.3-8.8,7-16.6,7c-13.6,0-22.6-10.2-22.6-26s9-26.3,22.6-26.3C244,77,249.6,79.5,253.9,84.6 M191.3,87.2
		c1.7-1.6,2.6-4,2.6-6.9c0-4.2-1.7-7.2-4.9-8.3c-1.6-0.6-4.4-1-7.7-1h-4.9v18.5h4.6C186.9,89.5,189.4,88.9,191.3,87.2 M196,101.7
		c3.5,4.4,13.9,22.2,16.4,26.5h-16.2c-2.6-4.5-3.7-6.4-6.4-11.2c-6.8-12.3-8.8-15.6-11.3-16.7c-0.7-0.3-1.3-0.5-2.2-0.6v28.5h-13.4
		V60h25.4c12.1,0,20,8,20,20c0,10.2-6.8,18.7-15.2,18.8C194.5,100,195.1,100.6,196,101.7"/>
	<path class="st0" d="M411.2,53.2c-6.2,6.7-15,8.7-19.9,4.3c-4.8-4.4-3.7-13.4,2.4-20.2c6.1-6.7,15-8.6,19.9-4.3
		C418.5,37.5,417.4,46.5,411.2,53.2"/>
	<path class="st0" d="M386.3,32.6c-3.5,8.4-11.2,13.3-17.2,10.8s-8.1-11.3-4.6-19.8c3.5-8.4,11.2-13.3,17.2-10.8
		C387.7,15.3,389.8,24.2,386.3,32.6"/>
	<path class="st0" d="M407.2,87.1c-5.9,4.5-13.5,4.4-17-0.2s-1.7-12,4.2-16.5c5.9-4.5,13.5-4.4,17,0.2
		C414.9,75.2,413,82.6,407.2,87.1"/>
	<path class="st0" d="M335.5,43c-1.6,7.2,1.7,14.1,7.4,15.3c5.7,1.2,11.6-3.6,13.1-10.8c1.6-7.2-1.7-14.1-7.4-15.3
		C343,31,337.1,35.8,335.5,43"/>
	<path class="st0" d="M314.3,25.9c0-1.3-0.3-2.4-1.1-3.3c-0.7-0.9-1.5-1.6-3.9-2.2l-2.4-0.6c-1.8-0.5-2.5-1-2.5-2
		c0-1.1,1-1.9,2.5-1.9s2.9,0.4,4.8,1.4l1.7-3.4c-1.8-0.9-3.9-1.8-7-1.8c-4.6,0-7.6,2.6-7.6,6.4c0,1.3,0.4,2.7,1.1,3.5s2.3,1.8,3.6,2
		l2.3,0.4c2.1,0.4,3,1.1,3,2.4s-1.1,2.2-2.6,2.2c-2.2,0-4.9-1.3-6.5-2.2l-1.8,3.8c2.9,1.5,5.5,2.3,7.9,2.3
		C310.9,32.7,314.3,29.9,314.3,25.9 M294.2,32.1V17.7c0-1.2-0.1-2.1-0.4-2.8c-0.6-1.7-2.5-2.8-4.7-2.8c-1.2,0-2.5,0.3-3.5,0.8
		c-0.8,0.5-1.5,0.9-2.3,1.5c0-0.8-0.3-1.6-0.7-2.4l-4.6,1.3c0.5,1.3,0.7,2.9,0.7,4.6v14.2h5.1V18.2c1.2-1.1,2.5-1.8,3.6-1.8
		c1.3,0,1.7,0.7,1.7,2.9v12.8L294.2,32.1L294.2,32.1z M273.6,7c0-1.8-1.4-3.2-3.1-3.2c-1.8,0-3.2,1.4-3.2,3.2s1.4,3.2,3.1,3.2
		C272.2,10.2,273.6,8.8,273.6,7 M273,32.1V12l-5.1,0.8v19.3H273z M258.5,20.1h-5.9V20c0-2.7,1.1-4.3,3.1-4.3c1,0,1.8,0.4,2.3,1.2
		c0.5,0.7,0.6,1.5,0.6,2.9v0.3H258.5z M263.8,23.9v-1.2c0-4.1-0.8-6.7-2.6-8.6c-1.3-1.3-3.4-2.1-5.7-2.1c-2.6,0-4.6,0.8-6.2,2.6
		c-1.7,1.9-2.5,4.3-2.5,7.8c0,6.2,3.6,10.2,9.3,10.2c2.8,0,5.1-0.9,7.4-2.7l-2-3.1c-1.6,1.3-3.2,2-5,2c-2.6,0-4.1-1.7-4.1-4.8v-0.2
		L263.8,23.9L263.8,23.9z M237.5,19.3c0,5.6-1.6,8.4-5.1,8.4h-2.9v-18h2.5c2.1,0,3.3,0.8,4.2,2.2C237.2,13.6,237.5,16.2,237.5,19.3
		 M243.5,18.8c0-4.8-1.2-8.2-3.6-10.6c-1.6-1.6-3.6-2.5-5.8-2.6c-1.1-0.1-3.1-0.2-4.6-0.2H224V32h6.5c1.6,0,2.8-0.1,3.8-0.2
		c2.5-0.2,4.9-1.6,6.5-3.8C242.6,25.7,243.5,22.5,243.5,18.8 M206.1,20.1h-5.9V20c0-2.7,1.1-4.3,3.1-4.3c1,0,1.8,0.4,2.3,1.2
		c0.5,0.7,0.6,1.5,0.6,2.9v0.3H206.1z M211.4,23.9v-1.2c0-4.1-0.8-6.7-2.6-8.6c-1.3-1.3-3.4-2.1-5.7-2.1c-2.6,0-4.6,0.8-6.2,2.6
		c-1.7,1.9-2.5,4.3-2.5,7.8c0,6.2,3.6,10.2,9.3,10.2c2.8,0,5.1-0.9,7.4-2.7l-2-3.1c-1.6,1.3-3.2,2-5,2c-2.6,0-4.1-1.7-4.1-4.8v-0.2
		L211.4,23.9L211.4,23.9z M190.5,7c0-1.8-1.4-3.2-3.1-3.2c-1.8,0-3.2,1.4-3.2,3.2s1.4,3.2,3.1,3.2C189.1,10.2,190.5,8.8,190.5,7
		 M189.9,32.1V12l-5.1,0.8v19.3H189.9z M182.1,12.5h-5.3l-1.5,7c-0.5,2.5-1,5.6-1.1,6.4c-0.1-0.6-0.7-3.7-1.5-6.9l-1.6-6.5h-4.8
		l-1.8,6.6c-0.6,2.2-1.2,5.3-1.4,6.8c-0.1-0.8-0.7-4.1-1.1-6.1l-1.6-7.5l-5.1,0.6l5.4,19.3h4.8l1-4c0.5-1.8,1.3-5.2,1.7-6.9
		c0.3-1.4,0.3-1.7,0.5-2.5l0.3,2c0.2,1.3,0.7,3.2,1.1,4.8l1.8,6.7h4.7L182.1,12.5z M140,20.1h-5.9V20c0-2.7,1.1-4.3,3.1-4.3
		c1,0,1.8,0.4,2.3,1.2c0.5,0.7,0.6,1.5,0.6,2.9v0.3H140z M145.3,23.9v-1.2c0-4.1-0.8-6.7-2.6-8.6c-1.3-1.3-3.4-2.1-5.7-2.1
		c-2.6,0-4.6,0.8-6.2,2.6c-1.7,1.9-2.5,4.3-2.5,7.8c0,6.2,3.6,10.2,9.3,10.2c2.8,0,5.1-0.9,7.4-2.7l-2-3.1c-1.6,1.3-3.2,2-5,2
		c-2.6,0-4.1-1.7-4.1-4.8v-0.2L145.3,23.9L145.3,23.9z M127.7,12.4c-0.8-0.3-1.1-0.4-1.9-0.4c-1.9,0-3.5,1.3-4.6,2.8
		c-0.1-1.1-0.3-2-0.8-2.8l-4.6,1.2c0.4,1.1,0.7,3.1,0.7,5.8v13.1h5.1V18.2c1-1.1,2-1.6,3.1-1.6c0.6,0,1,0.1,1.5,0.4L127.7,12.4z
		 M107.2,20.1h-5.9V20c0-2.7,1.1-4.3,3.1-4.3c1,0,1.8,0.4,2.3,1.2c0.5,0.7,0.6,1.5,0.6,2.9L107.2,20.1L107.2,20.1z M112.5,23.9v-1.2
		c0-4.1-0.8-6.7-2.6-8.6c-1.3-1.3-3.4-2.1-5.7-2.1c-2.6,0-4.6,0.8-6.2,2.6c-1.7,1.9-2.5,4.3-2.5,7.8c0,6.2,3.6,10.2,9.3,10.2
		c2.8,0,5.1-0.9,7.4-2.7l-2-3.1c-1.6,1.3-3.2,2-5,2c-2.6,0-4.1-1.7-4.1-4.8v-0.2L112.5,23.9L112.5,23.9z M91.6,7
		c0-1.8-1.4-3.2-3.1-3.2c-1.8,0-3.2,1.4-3.2,3.2s1.4,3.2,3.1,3.2C90.2,10.2,91.6,8.8,91.6,7 M91,32.1V12l-5.1,0.8v19.3H91z
		 M83.6,5.4H64.4v4.4h6.5V32h5.4V9.9h6.4L83.6,5.4z M55.7,12.4c-0.8-0.3-1.1-0.4-1.9-0.4c-1.9,0-3.5,1.3-4.6,2.8
		c-0.1-1.1-0.3-2-0.8-2.8l-4.6,1.2c0.4,1.1,0.7,3.1,0.7,5.8v13.1h5.1V18.2c1-1.1,2-1.6,3.1-1.6c0.6,0,1,0.1,1.5,0.4L55.7,12.4z
		 M38.6,7.7c0-1.6-1.3-2.9-2.9-2.9c-1.6,0-3,1.3-3,2.9s1.3,3,2.9,3S38.6,9.3,38.6,7.7 M30.3,7.7c0-1.6-1.3-2.9-2.9-2.9s-3,1.3-3,2.9
		s1.3,3,2.9,3C29,10.7,30.3,9.3,30.3,7.7 M40.4,30.5c-0.8-0.9-1.2-2.3-1.2-3.6V12l-4.9,1v13.8c-0.4,1-1.9,1.9-3.2,1.9
		c-0.8,0-1.5-0.4-1.8-0.9s-0.4-1.5-0.4-3.2V12l-5.1,1v12.6c0,2,0.1,3,0.4,3.9c0.7,1.9,3,3.2,5.8,3.2c2.1,0,3.9-0.6,5.2-1.9
		c0.3,0.8,0.9,1.5,1.5,1.9L40.4,30.5z M21.7,5.4H7.3V32h5.4V20.2h6.8v-4.4h-6.8v-6h8.5L21.7,5.4z"/>
</g>
</svg>
